G04 #@! TF.GenerationSoftware,KiCad,Pcbnew,no-vcs-found-996cba7~58~ubuntu16.04.1*
G04 #@! TF.CreationDate,2017-03-19T23:47:34+01:00*
G04 #@! TF.ProjectId,GhostESP32,47686F737445535033322E6B69636164,rev?*
G04 #@! TF.FileFunction,Copper,L2,Bot,Signal*
G04 #@! TF.FilePolarity,Positive*
%FSLAX46Y46*%
G04 Gerber Fmt 4.6, Leading zero omitted, Abs format (unit mm)*
G04 Created by KiCad (PCBNEW no-vcs-found-996cba7~58~ubuntu16.04.1) date Sun Mar 19 23:47:34 2017*
%MOMM*%
%LPD*%
G01*
G04 APERTURE LIST*
%ADD10C,0.100000*%
%ADD11O,1.550000X1.000000*%
%ADD12O,0.950000X1.250000*%
%ADD13C,0.800000*%
%ADD14C,0.250000*%
%ADD15C,0.500000*%
%ADD16C,0.254000*%
G04 APERTURE END LIST*
D10*
D11*
X118441480Y-92527000D03*
X118441480Y-85527000D03*
D12*
X121141480Y-91527000D03*
X121141480Y-86527000D03*
D13*
X141932660Y-92105480D03*
X161914840Y-92377260D03*
X120081040Y-77718920D03*
X139898120Y-78216760D03*
X130395980Y-74477880D03*
X136466580Y-78458060D03*
X173385480Y-90563700D03*
X164879020Y-105641140D03*
X132138420Y-81401920D03*
X152427940Y-83718400D03*
X121437400Y-97891600D03*
X123459240Y-83807300D03*
X149164040Y-71744949D03*
X125379480Y-100365560D03*
X136324340Y-99931220D03*
X139270740Y-100197920D03*
X141279880Y-103035100D03*
X153182320Y-102514400D03*
X121500900Y-96271080D03*
X130924300Y-77304900D03*
X136428480Y-91038680D03*
X165328600Y-76433680D03*
X148564600Y-104353360D03*
X156753560Y-102113080D03*
X174576740Y-83451700D03*
X134342154Y-81362170D03*
X148137880Y-106768900D03*
X175813720Y-102628700D03*
X171954350Y-94701360D03*
X151791071Y-95744190D03*
X161244280Y-83284060D03*
X137411890Y-83885142D03*
X149006560Y-77731620D03*
X149280880Y-73731120D03*
X142539720Y-85430360D03*
X134274957Y-80364418D03*
X152118060Y-78054200D03*
X150789640Y-72113140D03*
X147203160Y-72069960D03*
X126264830Y-95287094D03*
X126286260Y-93731080D03*
X126264830Y-96578420D03*
X124714000Y-89766140D03*
X126585980Y-83334860D03*
X156321760Y-96469200D03*
X126989840Y-103973470D03*
X131015740Y-90967560D03*
X168894760Y-101100769D03*
X135925560Y-104487980D03*
X132267960Y-90840560D03*
X136037320Y-105740200D03*
X170675300Y-100431600D03*
X162491420Y-84559140D03*
X141541500Y-90142060D03*
X156418280Y-75084940D03*
X154659242Y-77354908D03*
X168988740Y-77376020D03*
X152067260Y-72555100D03*
D14*
X161914840Y-92377260D02*
X142204440Y-92377260D01*
X142204440Y-92377260D02*
X141932660Y-92105480D01*
X121141480Y-86527000D02*
X121141480Y-85652000D01*
X121141480Y-85652000D02*
X121016480Y-85527000D01*
X121016480Y-85527000D02*
X118441480Y-85527000D01*
X120081040Y-77718920D02*
X121767600Y-77718920D01*
X125008640Y-74477880D02*
X130395980Y-74477880D01*
X121767600Y-77718920D02*
X125008640Y-74477880D01*
X139898120Y-78216760D02*
X136707880Y-78216760D01*
X136707880Y-78216760D02*
X136466580Y-78458060D01*
X136466580Y-78458060D02*
X134376160Y-78458060D01*
X134376160Y-78458060D02*
X130395980Y-74477880D01*
X172679360Y-100451920D02*
X172679360Y-91269820D01*
X172679360Y-91269820D02*
X173385480Y-90563700D01*
X170345100Y-102786180D02*
X172679360Y-100451920D01*
X170345100Y-103830120D02*
X170345100Y-102786180D01*
X169699441Y-104475779D02*
X170345100Y-103830120D01*
X164879020Y-105641140D02*
X166044381Y-104475779D01*
X166044381Y-104475779D02*
X169699441Y-104475779D01*
D15*
X150356035Y-82212180D02*
X132948680Y-82212180D01*
X132948680Y-82212180D02*
X132138420Y-81401920D01*
X151862255Y-83718400D02*
X150356035Y-82212180D01*
X152427940Y-83718400D02*
X151862255Y-83718400D01*
D14*
X123459240Y-83807300D02*
X123459240Y-95869760D01*
X123459240Y-95869760D02*
X121437400Y-97891600D01*
X165328600Y-76433680D02*
X160239870Y-71344950D01*
X160239870Y-71344950D02*
X149564039Y-71344950D01*
X149564039Y-71344950D02*
X149164040Y-71744949D01*
X119738140Y-98285300D02*
X119738140Y-98033840D01*
X119738140Y-98033840D02*
X121500900Y-96271080D01*
X121282460Y-99829620D02*
X119738140Y-98285300D01*
X124277855Y-99829620D02*
X121282460Y-99829620D01*
X125379480Y-100365560D02*
X124813795Y-100365560D01*
X124813795Y-100365560D02*
X124277855Y-99829620D01*
X139270740Y-100197920D02*
X136591040Y-100197920D01*
X136591040Y-100197920D02*
X136324340Y-99931220D01*
X153182320Y-102514400D02*
X152661620Y-103035100D01*
X152661620Y-103035100D02*
X141279880Y-103035100D01*
X121941490Y-78865630D02*
X123502220Y-77304900D01*
X123502220Y-77304900D02*
X130924300Y-77304900D01*
X121500900Y-96271080D02*
X121500900Y-95705395D01*
X121500900Y-95705395D02*
X121941490Y-95264805D01*
X121941490Y-95264805D02*
X121941490Y-78865630D01*
X136428480Y-91038680D02*
X130924300Y-85534500D01*
X130924300Y-85534500D02*
X130924300Y-77304900D01*
X156753560Y-102113080D02*
X154513280Y-104353360D01*
X154513280Y-104353360D02*
X148564600Y-104353360D01*
X175813720Y-102628700D02*
X175813720Y-84688680D01*
X172687870Y-81562830D02*
X174576740Y-83451700D01*
X175813720Y-84688680D02*
X174576740Y-83451700D01*
X135108499Y-81562830D02*
X172687870Y-81562830D01*
X134342154Y-81362170D02*
X134907839Y-81362170D01*
X134907839Y-81362170D02*
X135108499Y-81562830D01*
X173827440Y-106611420D02*
X148295360Y-106611420D01*
X148295360Y-106611420D02*
X148137880Y-106768900D01*
X175813720Y-104625140D02*
X173827440Y-106611420D01*
X175813720Y-102628700D02*
X175813720Y-104625140D01*
X170911520Y-95744190D02*
X171954350Y-94701360D01*
X151791071Y-95744190D02*
X170911520Y-95744190D01*
X159097980Y-85430360D02*
X161244280Y-83284060D01*
X142539720Y-85430360D02*
X159097980Y-85430360D01*
X140994502Y-83885142D02*
X137411890Y-83885142D01*
X142539720Y-85430360D02*
X140994502Y-83885142D01*
X149280880Y-73731120D02*
X149280880Y-77457300D01*
X149280880Y-77457300D02*
X149006560Y-77731620D01*
X150369201Y-79803059D02*
X134836316Y-79803059D01*
X152118060Y-78054200D02*
X150369201Y-79803059D01*
X134836316Y-79803059D02*
X134274957Y-80364418D01*
X150789640Y-72113140D02*
X150789640Y-76725780D01*
X150789640Y-76725780D02*
X152118060Y-78054200D01*
X147203160Y-72069960D02*
X147603159Y-72469959D01*
X147603159Y-72469959D02*
X150432821Y-72469959D01*
X150432821Y-72469959D02*
X150789640Y-72113140D01*
X126286260Y-95265664D02*
X126264830Y-95287094D01*
X126286260Y-93731080D02*
X126286260Y-95265664D01*
X124714000Y-95027590D02*
X126264830Y-96578420D01*
X124714000Y-89766140D02*
X124714000Y-95027590D01*
X146004182Y-95788480D02*
X139039600Y-95788480D01*
X139039600Y-95788480D02*
X126585980Y-83334860D01*
X156321760Y-96469200D02*
X146684902Y-96469200D01*
X146684902Y-96469200D02*
X146004182Y-95788480D01*
X126989840Y-94993460D02*
X126989840Y-103973470D01*
X131015740Y-90967560D02*
X126989840Y-94993460D01*
X135925560Y-104487980D02*
X139312771Y-101100769D01*
X139312771Y-101100769D02*
X168894760Y-101100769D01*
X134706360Y-93844645D02*
X134706360Y-104409240D01*
X134706360Y-104409240D02*
X136037320Y-105740200D01*
X132267960Y-90840560D02*
X132267960Y-91406245D01*
X132267960Y-91406245D02*
X134706360Y-93844645D01*
X155508960Y-105971340D02*
X136268460Y-105971340D01*
X136268460Y-105971340D02*
X136037320Y-105740200D01*
X157685740Y-103794560D02*
X155508960Y-105971340D01*
X168333420Y-103794560D02*
X157685740Y-103794560D01*
X170275301Y-101852679D02*
X168333420Y-103794560D01*
X170675300Y-100431600D02*
X170275301Y-100831599D01*
X170275301Y-100831599D02*
X170275301Y-101852679D01*
X156908500Y-90142060D02*
X162491420Y-84559140D01*
X141541500Y-90142060D02*
X156908500Y-90142060D01*
X154659242Y-77354908D02*
X156418280Y-75595870D01*
X156418280Y-75595870D02*
X156418280Y-75084940D01*
X159430720Y-73472040D02*
X163334700Y-77376020D01*
X163334700Y-77376020D02*
X168988740Y-77376020D01*
X155143223Y-73472040D02*
X159430720Y-73472040D01*
X152067260Y-72555100D02*
X154226283Y-72555100D01*
X154226283Y-72555100D02*
X155143223Y-73472040D01*
D16*
G36*
X146168340Y-71863183D02*
X146167981Y-72274931D01*
X146325218Y-72655475D01*
X146616114Y-72946879D01*
X146996383Y-73104780D01*
X147211839Y-73104968D01*
X147312320Y-73172107D01*
X147603159Y-73229959D01*
X148368299Y-73229959D01*
X148246060Y-73524343D01*
X148245701Y-73936091D01*
X148402938Y-74316635D01*
X148520880Y-74434783D01*
X148520880Y-76812427D01*
X148421045Y-76853678D01*
X148129641Y-77144574D01*
X147971740Y-77524843D01*
X147971381Y-77936591D01*
X148128618Y-78317135D01*
X148419514Y-78608539D01*
X148799783Y-78766440D01*
X149211531Y-78766799D01*
X149592075Y-78609562D01*
X149883479Y-78318666D01*
X150041380Y-77938397D01*
X150041739Y-77526649D01*
X150031847Y-77502709D01*
X150040880Y-77457300D01*
X150040880Y-76782287D01*
X150087492Y-77016619D01*
X150252239Y-77263181D01*
X151043258Y-78054200D01*
X150054399Y-79043059D01*
X134836316Y-79043059D01*
X134545477Y-79100911D01*
X134298915Y-79265658D01*
X134235190Y-79329383D01*
X134069986Y-79329239D01*
X133689442Y-79486476D01*
X133398038Y-79777372D01*
X133240137Y-80157641D01*
X133239778Y-80569389D01*
X133394837Y-80944662D01*
X133307334Y-81155393D01*
X133307191Y-81319112D01*
X133165551Y-81177472D01*
X133016362Y-80816405D01*
X132725466Y-80525001D01*
X132345197Y-80367100D01*
X131933449Y-80366741D01*
X131684300Y-80469687D01*
X131684300Y-78008661D01*
X131801219Y-77891946D01*
X131959120Y-77511677D01*
X131959479Y-77099929D01*
X131802242Y-76719385D01*
X131511346Y-76427981D01*
X131131077Y-76270080D01*
X130719329Y-76269721D01*
X130338785Y-76426958D01*
X130220637Y-76544900D01*
X123502220Y-76544900D01*
X123211381Y-76602752D01*
X122964819Y-76767499D01*
X121404089Y-78328229D01*
X121239342Y-78574791D01*
X121181490Y-78865630D01*
X121181490Y-94950003D01*
X120963499Y-95167994D01*
X120798752Y-95414556D01*
X120775170Y-95533108D01*
X120623981Y-95684034D01*
X120466080Y-96064303D01*
X120465934Y-96231244D01*
X119200739Y-97496439D01*
X119035992Y-97743001D01*
X118978140Y-98033840D01*
X118978140Y-98285300D01*
X119035992Y-98576139D01*
X119200739Y-98822701D01*
X120745059Y-100367021D01*
X120991620Y-100531768D01*
X121282460Y-100589620D01*
X123963053Y-100589620D01*
X124276394Y-100902961D01*
X124522956Y-101067708D01*
X124641508Y-101091290D01*
X124792434Y-101242479D01*
X125172703Y-101400380D01*
X125584451Y-101400739D01*
X125964995Y-101243502D01*
X126229840Y-100979119D01*
X126229840Y-103269709D01*
X126112921Y-103386424D01*
X125955020Y-103766693D01*
X125954661Y-104178441D01*
X126111898Y-104558985D01*
X126402794Y-104850389D01*
X126783063Y-105008290D01*
X127194811Y-105008649D01*
X127575355Y-104851412D01*
X127866759Y-104560516D01*
X128024660Y-104180247D01*
X128025019Y-103768499D01*
X127867782Y-103387955D01*
X127749840Y-103269807D01*
X127749840Y-95308262D01*
X131055507Y-92002595D01*
X131220711Y-92002739D01*
X131601255Y-91845502D01*
X131639483Y-91807341D01*
X131730559Y-91943646D01*
X133946360Y-94159447D01*
X133946360Y-104409240D01*
X134004212Y-104700079D01*
X134168959Y-104946641D01*
X135002285Y-105779967D01*
X135002141Y-105945171D01*
X135159378Y-106325715D01*
X135450274Y-106617119D01*
X135759178Y-106745387D01*
X119795571Y-106766265D01*
X117968007Y-103651821D01*
X118683630Y-103651821D01*
X118690243Y-103718980D01*
X118683630Y-103786135D01*
X118714380Y-104098285D01*
X118733964Y-104162840D01*
X118740576Y-104229976D01*
X118831626Y-104530126D01*
X118863431Y-104589629D01*
X118883017Y-104654193D01*
X119030877Y-104930813D01*
X119073670Y-104982955D01*
X119105465Y-105042444D01*
X119304435Y-105284904D01*
X119356602Y-105327718D01*
X119399416Y-105379885D01*
X119641876Y-105578855D01*
X119701365Y-105610650D01*
X119753507Y-105653443D01*
X120030127Y-105801303D01*
X120094691Y-105820889D01*
X120154194Y-105852694D01*
X120454344Y-105943744D01*
X120521477Y-105950356D01*
X120586031Y-105969940D01*
X120898161Y-106000690D01*
X120965320Y-105994077D01*
X121032475Y-106000690D01*
X121344625Y-105969940D01*
X121409175Y-105950358D01*
X121476310Y-105943746D01*
X121776470Y-105852696D01*
X121835981Y-105820887D01*
X121900552Y-105801298D01*
X122177162Y-105653438D01*
X122229299Y-105610648D01*
X122288784Y-105578855D01*
X122531244Y-105379885D01*
X122574054Y-105327724D01*
X122626214Y-105284917D01*
X122825194Y-105042457D01*
X122856995Y-104982962D01*
X122899793Y-104930813D01*
X123047653Y-104654193D01*
X123067242Y-104589619D01*
X123099050Y-104530106D01*
X123190090Y-104229956D01*
X123196699Y-104162830D01*
X123216280Y-104098285D01*
X123247030Y-103786134D01*
X123240417Y-103718980D01*
X123247030Y-103651821D01*
X123216280Y-103339691D01*
X123196700Y-103275151D01*
X123190092Y-103208030D01*
X123099052Y-102907870D01*
X123067240Y-102848349D01*
X123047648Y-102783768D01*
X122899788Y-102507158D01*
X122856992Y-102455014D01*
X122825194Y-102395523D01*
X122626214Y-102153063D01*
X122574059Y-102110261D01*
X122531257Y-102058106D01*
X122288797Y-101859126D01*
X122229306Y-101827328D01*
X122177162Y-101784532D01*
X121900552Y-101636672D01*
X121835971Y-101617080D01*
X121776450Y-101585268D01*
X121476290Y-101494228D01*
X121409170Y-101487620D01*
X121344629Y-101468040D01*
X121032499Y-101437290D01*
X120965340Y-101443903D01*
X120898186Y-101437290D01*
X120586035Y-101468040D01*
X120521490Y-101487621D01*
X120454364Y-101494230D01*
X120154214Y-101585270D01*
X120094701Y-101617078D01*
X120030127Y-101636667D01*
X119753507Y-101784527D01*
X119701358Y-101827325D01*
X119641863Y-101859126D01*
X119399403Y-102058106D01*
X119356596Y-102110266D01*
X119304435Y-102153076D01*
X119105465Y-102395536D01*
X119073672Y-102455021D01*
X119030882Y-102507158D01*
X118883022Y-102783768D01*
X118863433Y-102848339D01*
X118831624Y-102907850D01*
X118740574Y-103208010D01*
X118733963Y-103275141D01*
X118714380Y-103339691D01*
X118683630Y-103651821D01*
X117968007Y-103651821D01*
X117952599Y-103625565D01*
X117975422Y-93641637D01*
X118039480Y-93662000D01*
X118314480Y-93662000D01*
X118314480Y-92654000D01*
X118568480Y-92654000D01*
X118568480Y-93662000D01*
X118843480Y-93662000D01*
X119268158Y-93527002D01*
X119608848Y-93239763D01*
X119810599Y-92828874D01*
X119684434Y-92654000D01*
X118568480Y-92654000D01*
X118314480Y-92654000D01*
X118294480Y-92654000D01*
X118294480Y-92400000D01*
X118314480Y-92400000D01*
X118314480Y-91392000D01*
X118568480Y-91392000D01*
X118568480Y-92400000D01*
X119684434Y-92400000D01*
X119810599Y-92225126D01*
X119615671Y-91828131D01*
X120040251Y-91828131D01*
X120181912Y-92238049D01*
X120469659Y-92562552D01*
X120843542Y-92746268D01*
X121014480Y-92619734D01*
X121014480Y-91654000D01*
X120188917Y-91654000D01*
X120040251Y-91828131D01*
X119615671Y-91828131D01*
X119608848Y-91814237D01*
X119268158Y-91526998D01*
X118843480Y-91392000D01*
X118568480Y-91392000D01*
X118314480Y-91392000D01*
X118039480Y-91392000D01*
X117980522Y-91410742D01*
X117980944Y-91225869D01*
X120040251Y-91225869D01*
X120188917Y-91400000D01*
X121014480Y-91400000D01*
X121014480Y-90434266D01*
X120843542Y-90307732D01*
X120469659Y-90491448D01*
X120181912Y-90815951D01*
X120040251Y-91225869D01*
X117980944Y-91225869D01*
X117990998Y-86828131D01*
X120040251Y-86828131D01*
X120181912Y-87238049D01*
X120469659Y-87562552D01*
X120843542Y-87746268D01*
X121014480Y-87619734D01*
X121014480Y-86654000D01*
X120188917Y-86654000D01*
X120040251Y-86828131D01*
X117990998Y-86828131D01*
X117991413Y-86646720D01*
X118039480Y-86662000D01*
X118314480Y-86662000D01*
X118314480Y-85654000D01*
X118568480Y-85654000D01*
X118568480Y-86662000D01*
X118843480Y-86662000D01*
X119268158Y-86527002D01*
X119608848Y-86239763D01*
X119615670Y-86225869D01*
X120040251Y-86225869D01*
X120188917Y-86400000D01*
X121014480Y-86400000D01*
X121014480Y-85434266D01*
X120843542Y-85307732D01*
X120469659Y-85491448D01*
X120181912Y-85815951D01*
X120040251Y-86225869D01*
X119615670Y-86225869D01*
X119810599Y-85828874D01*
X119684434Y-85654000D01*
X118568480Y-85654000D01*
X118314480Y-85654000D01*
X118294480Y-85654000D01*
X118294480Y-85400000D01*
X118314480Y-85400000D01*
X118314480Y-84392000D01*
X118568480Y-84392000D01*
X118568480Y-85400000D01*
X119684434Y-85400000D01*
X119810599Y-85225126D01*
X119608848Y-84814237D01*
X119268158Y-84526998D01*
X118843480Y-84392000D01*
X118568480Y-84392000D01*
X118314480Y-84392000D01*
X118039480Y-84392000D01*
X117996536Y-84405651D01*
X118018833Y-74651815D01*
X118683631Y-74651815D01*
X118690244Y-74718980D01*
X118683631Y-74786145D01*
X118714381Y-75098245D01*
X118733960Y-75162780D01*
X118740567Y-75229896D01*
X118831617Y-75530096D01*
X118863432Y-75589623D01*
X118883027Y-75654211D01*
X119030887Y-75930811D01*
X119073657Y-75982922D01*
X119105430Y-76042381D01*
X119304400Y-76284881D01*
X119356565Y-76327701D01*
X119399377Y-76379873D01*
X119641837Y-76578872D01*
X119701395Y-76610710D01*
X119753609Y-76653547D01*
X120030230Y-76801348D01*
X120094695Y-76820892D01*
X120154094Y-76852653D01*
X120454244Y-76943754D01*
X120521481Y-76950386D01*
X120586139Y-76969991D01*
X120898269Y-77000690D01*
X120965315Y-76994077D01*
X121032366Y-77000691D01*
X121344516Y-76969991D01*
X121409174Y-76950387D01*
X121476410Y-76943755D01*
X121776570Y-76852655D01*
X121835980Y-76820889D01*
X121900450Y-76801342D01*
X122177060Y-76653542D01*
X122229266Y-76610710D01*
X122288823Y-76578873D01*
X122531283Y-76379873D01*
X122574091Y-76327706D01*
X122626249Y-76284894D01*
X122825229Y-76042394D01*
X122857007Y-75982929D01*
X122899783Y-75930811D01*
X123047643Y-75654211D01*
X123067241Y-75589613D01*
X123099059Y-75530076D01*
X123190099Y-75229876D01*
X123196703Y-75162770D01*
X123216279Y-75098245D01*
X123247029Y-74786145D01*
X123240416Y-74718980D01*
X123247029Y-74651815D01*
X123216279Y-74339715D01*
X123196703Y-74275190D01*
X123190099Y-74208084D01*
X123099059Y-73907884D01*
X123067241Y-73848347D01*
X123047643Y-73783749D01*
X122899783Y-73507149D01*
X122857007Y-73455031D01*
X122825229Y-73395566D01*
X122626249Y-73153066D01*
X122574028Y-73110202D01*
X122531153Y-73057980D01*
X122288693Y-72859080D01*
X122229287Y-72827342D01*
X122177230Y-72784608D01*
X121900620Y-72636708D01*
X121835963Y-72617085D01*
X121776370Y-72585244D01*
X121476210Y-72494244D01*
X121409183Y-72487653D01*
X121344737Y-72468091D01*
X121032607Y-72437291D01*
X120965345Y-72443903D01*
X120898077Y-72437290D01*
X120585927Y-72468090D01*
X120521474Y-72487654D01*
X120454444Y-72494246D01*
X120154294Y-72585246D01*
X120094709Y-72617083D01*
X120030060Y-72636703D01*
X119753439Y-72784603D01*
X119701377Y-72827340D01*
X119641967Y-72859080D01*
X119399507Y-73057980D01*
X119356628Y-73110207D01*
X119304400Y-73153079D01*
X119105430Y-73395579D01*
X119073657Y-73455038D01*
X119030887Y-73507149D01*
X118883027Y-73783749D01*
X118863432Y-73848337D01*
X118831617Y-73907864D01*
X118740567Y-74208064D01*
X118733960Y-74275180D01*
X118714381Y-74339715D01*
X118683631Y-74651815D01*
X118018833Y-74651815D01*
X118020975Y-73715019D01*
X120334650Y-71539033D01*
X146317384Y-71504244D01*
X146168340Y-71863183D01*
X146168340Y-71863183D01*
G37*
X146168340Y-71863183D02*
X146167981Y-72274931D01*
X146325218Y-72655475D01*
X146616114Y-72946879D01*
X146996383Y-73104780D01*
X147211839Y-73104968D01*
X147312320Y-73172107D01*
X147603159Y-73229959D01*
X148368299Y-73229959D01*
X148246060Y-73524343D01*
X148245701Y-73936091D01*
X148402938Y-74316635D01*
X148520880Y-74434783D01*
X148520880Y-76812427D01*
X148421045Y-76853678D01*
X148129641Y-77144574D01*
X147971740Y-77524843D01*
X147971381Y-77936591D01*
X148128618Y-78317135D01*
X148419514Y-78608539D01*
X148799783Y-78766440D01*
X149211531Y-78766799D01*
X149592075Y-78609562D01*
X149883479Y-78318666D01*
X150041380Y-77938397D01*
X150041739Y-77526649D01*
X150031847Y-77502709D01*
X150040880Y-77457300D01*
X150040880Y-76782287D01*
X150087492Y-77016619D01*
X150252239Y-77263181D01*
X151043258Y-78054200D01*
X150054399Y-79043059D01*
X134836316Y-79043059D01*
X134545477Y-79100911D01*
X134298915Y-79265658D01*
X134235190Y-79329383D01*
X134069986Y-79329239D01*
X133689442Y-79486476D01*
X133398038Y-79777372D01*
X133240137Y-80157641D01*
X133239778Y-80569389D01*
X133394837Y-80944662D01*
X133307334Y-81155393D01*
X133307191Y-81319112D01*
X133165551Y-81177472D01*
X133016362Y-80816405D01*
X132725466Y-80525001D01*
X132345197Y-80367100D01*
X131933449Y-80366741D01*
X131684300Y-80469687D01*
X131684300Y-78008661D01*
X131801219Y-77891946D01*
X131959120Y-77511677D01*
X131959479Y-77099929D01*
X131802242Y-76719385D01*
X131511346Y-76427981D01*
X131131077Y-76270080D01*
X130719329Y-76269721D01*
X130338785Y-76426958D01*
X130220637Y-76544900D01*
X123502220Y-76544900D01*
X123211381Y-76602752D01*
X122964819Y-76767499D01*
X121404089Y-78328229D01*
X121239342Y-78574791D01*
X121181490Y-78865630D01*
X121181490Y-94950003D01*
X120963499Y-95167994D01*
X120798752Y-95414556D01*
X120775170Y-95533108D01*
X120623981Y-95684034D01*
X120466080Y-96064303D01*
X120465934Y-96231244D01*
X119200739Y-97496439D01*
X119035992Y-97743001D01*
X118978140Y-98033840D01*
X118978140Y-98285300D01*
X119035992Y-98576139D01*
X119200739Y-98822701D01*
X120745059Y-100367021D01*
X120991620Y-100531768D01*
X121282460Y-100589620D01*
X123963053Y-100589620D01*
X124276394Y-100902961D01*
X124522956Y-101067708D01*
X124641508Y-101091290D01*
X124792434Y-101242479D01*
X125172703Y-101400380D01*
X125584451Y-101400739D01*
X125964995Y-101243502D01*
X126229840Y-100979119D01*
X126229840Y-103269709D01*
X126112921Y-103386424D01*
X125955020Y-103766693D01*
X125954661Y-104178441D01*
X126111898Y-104558985D01*
X126402794Y-104850389D01*
X126783063Y-105008290D01*
X127194811Y-105008649D01*
X127575355Y-104851412D01*
X127866759Y-104560516D01*
X128024660Y-104180247D01*
X128025019Y-103768499D01*
X127867782Y-103387955D01*
X127749840Y-103269807D01*
X127749840Y-95308262D01*
X131055507Y-92002595D01*
X131220711Y-92002739D01*
X131601255Y-91845502D01*
X131639483Y-91807341D01*
X131730559Y-91943646D01*
X133946360Y-94159447D01*
X133946360Y-104409240D01*
X134004212Y-104700079D01*
X134168959Y-104946641D01*
X135002285Y-105779967D01*
X135002141Y-105945171D01*
X135159378Y-106325715D01*
X135450274Y-106617119D01*
X135759178Y-106745387D01*
X119795571Y-106766265D01*
X117968007Y-103651821D01*
X118683630Y-103651821D01*
X118690243Y-103718980D01*
X118683630Y-103786135D01*
X118714380Y-104098285D01*
X118733964Y-104162840D01*
X118740576Y-104229976D01*
X118831626Y-104530126D01*
X118863431Y-104589629D01*
X118883017Y-104654193D01*
X119030877Y-104930813D01*
X119073670Y-104982955D01*
X119105465Y-105042444D01*
X119304435Y-105284904D01*
X119356602Y-105327718D01*
X119399416Y-105379885D01*
X119641876Y-105578855D01*
X119701365Y-105610650D01*
X119753507Y-105653443D01*
X120030127Y-105801303D01*
X120094691Y-105820889D01*
X120154194Y-105852694D01*
X120454344Y-105943744D01*
X120521477Y-105950356D01*
X120586031Y-105969940D01*
X120898161Y-106000690D01*
X120965320Y-105994077D01*
X121032475Y-106000690D01*
X121344625Y-105969940D01*
X121409175Y-105950358D01*
X121476310Y-105943746D01*
X121776470Y-105852696D01*
X121835981Y-105820887D01*
X121900552Y-105801298D01*
X122177162Y-105653438D01*
X122229299Y-105610648D01*
X122288784Y-105578855D01*
X122531244Y-105379885D01*
X122574054Y-105327724D01*
X122626214Y-105284917D01*
X122825194Y-105042457D01*
X122856995Y-104982962D01*
X122899793Y-104930813D01*
X123047653Y-104654193D01*
X123067242Y-104589619D01*
X123099050Y-104530106D01*
X123190090Y-104229956D01*
X123196699Y-104162830D01*
X123216280Y-104098285D01*
X123247030Y-103786134D01*
X123240417Y-103718980D01*
X123247030Y-103651821D01*
X123216280Y-103339691D01*
X123196700Y-103275151D01*
X123190092Y-103208030D01*
X123099052Y-102907870D01*
X123067240Y-102848349D01*
X123047648Y-102783768D01*
X122899788Y-102507158D01*
X122856992Y-102455014D01*
X122825194Y-102395523D01*
X122626214Y-102153063D01*
X122574059Y-102110261D01*
X122531257Y-102058106D01*
X122288797Y-101859126D01*
X122229306Y-101827328D01*
X122177162Y-101784532D01*
X121900552Y-101636672D01*
X121835971Y-101617080D01*
X121776450Y-101585268D01*
X121476290Y-101494228D01*
X121409170Y-101487620D01*
X121344629Y-101468040D01*
X121032499Y-101437290D01*
X120965340Y-101443903D01*
X120898186Y-101437290D01*
X120586035Y-101468040D01*
X120521490Y-101487621D01*
X120454364Y-101494230D01*
X120154214Y-101585270D01*
X120094701Y-101617078D01*
X120030127Y-101636667D01*
X119753507Y-101784527D01*
X119701358Y-101827325D01*
X119641863Y-101859126D01*
X119399403Y-102058106D01*
X119356596Y-102110266D01*
X119304435Y-102153076D01*
X119105465Y-102395536D01*
X119073672Y-102455021D01*
X119030882Y-102507158D01*
X118883022Y-102783768D01*
X118863433Y-102848339D01*
X118831624Y-102907850D01*
X118740574Y-103208010D01*
X118733963Y-103275141D01*
X118714380Y-103339691D01*
X118683630Y-103651821D01*
X117968007Y-103651821D01*
X117952599Y-103625565D01*
X117975422Y-93641637D01*
X118039480Y-93662000D01*
X118314480Y-93662000D01*
X118314480Y-92654000D01*
X118568480Y-92654000D01*
X118568480Y-93662000D01*
X118843480Y-93662000D01*
X119268158Y-93527002D01*
X119608848Y-93239763D01*
X119810599Y-92828874D01*
X119684434Y-92654000D01*
X118568480Y-92654000D01*
X118314480Y-92654000D01*
X118294480Y-92654000D01*
X118294480Y-92400000D01*
X118314480Y-92400000D01*
X118314480Y-91392000D01*
X118568480Y-91392000D01*
X118568480Y-92400000D01*
X119684434Y-92400000D01*
X119810599Y-92225126D01*
X119615671Y-91828131D01*
X120040251Y-91828131D01*
X120181912Y-92238049D01*
X120469659Y-92562552D01*
X120843542Y-92746268D01*
X121014480Y-92619734D01*
X121014480Y-91654000D01*
X120188917Y-91654000D01*
X120040251Y-91828131D01*
X119615671Y-91828131D01*
X119608848Y-91814237D01*
X119268158Y-91526998D01*
X118843480Y-91392000D01*
X118568480Y-91392000D01*
X118314480Y-91392000D01*
X118039480Y-91392000D01*
X117980522Y-91410742D01*
X117980944Y-91225869D01*
X120040251Y-91225869D01*
X120188917Y-91400000D01*
X121014480Y-91400000D01*
X121014480Y-90434266D01*
X120843542Y-90307732D01*
X120469659Y-90491448D01*
X120181912Y-90815951D01*
X120040251Y-91225869D01*
X117980944Y-91225869D01*
X117990998Y-86828131D01*
X120040251Y-86828131D01*
X120181912Y-87238049D01*
X120469659Y-87562552D01*
X120843542Y-87746268D01*
X121014480Y-87619734D01*
X121014480Y-86654000D01*
X120188917Y-86654000D01*
X120040251Y-86828131D01*
X117990998Y-86828131D01*
X117991413Y-86646720D01*
X118039480Y-86662000D01*
X118314480Y-86662000D01*
X118314480Y-85654000D01*
X118568480Y-85654000D01*
X118568480Y-86662000D01*
X118843480Y-86662000D01*
X119268158Y-86527002D01*
X119608848Y-86239763D01*
X119615670Y-86225869D01*
X120040251Y-86225869D01*
X120188917Y-86400000D01*
X121014480Y-86400000D01*
X121014480Y-85434266D01*
X120843542Y-85307732D01*
X120469659Y-85491448D01*
X120181912Y-85815951D01*
X120040251Y-86225869D01*
X119615670Y-86225869D01*
X119810599Y-85828874D01*
X119684434Y-85654000D01*
X118568480Y-85654000D01*
X118314480Y-85654000D01*
X118294480Y-85654000D01*
X118294480Y-85400000D01*
X118314480Y-85400000D01*
X118314480Y-84392000D01*
X118568480Y-84392000D01*
X118568480Y-85400000D01*
X119684434Y-85400000D01*
X119810599Y-85225126D01*
X119608848Y-84814237D01*
X119268158Y-84526998D01*
X118843480Y-84392000D01*
X118568480Y-84392000D01*
X118314480Y-84392000D01*
X118039480Y-84392000D01*
X117996536Y-84405651D01*
X118018833Y-74651815D01*
X118683631Y-74651815D01*
X118690244Y-74718980D01*
X118683631Y-74786145D01*
X118714381Y-75098245D01*
X118733960Y-75162780D01*
X118740567Y-75229896D01*
X118831617Y-75530096D01*
X118863432Y-75589623D01*
X118883027Y-75654211D01*
X119030887Y-75930811D01*
X119073657Y-75982922D01*
X119105430Y-76042381D01*
X119304400Y-76284881D01*
X119356565Y-76327701D01*
X119399377Y-76379873D01*
X119641837Y-76578872D01*
X119701395Y-76610710D01*
X119753609Y-76653547D01*
X120030230Y-76801348D01*
X120094695Y-76820892D01*
X120154094Y-76852653D01*
X120454244Y-76943754D01*
X120521481Y-76950386D01*
X120586139Y-76969991D01*
X120898269Y-77000690D01*
X120965315Y-76994077D01*
X121032366Y-77000691D01*
X121344516Y-76969991D01*
X121409174Y-76950387D01*
X121476410Y-76943755D01*
X121776570Y-76852655D01*
X121835980Y-76820889D01*
X121900450Y-76801342D01*
X122177060Y-76653542D01*
X122229266Y-76610710D01*
X122288823Y-76578873D01*
X122531283Y-76379873D01*
X122574091Y-76327706D01*
X122626249Y-76284894D01*
X122825229Y-76042394D01*
X122857007Y-75982929D01*
X122899783Y-75930811D01*
X123047643Y-75654211D01*
X123067241Y-75589613D01*
X123099059Y-75530076D01*
X123190099Y-75229876D01*
X123196703Y-75162770D01*
X123216279Y-75098245D01*
X123247029Y-74786145D01*
X123240416Y-74718980D01*
X123247029Y-74651815D01*
X123216279Y-74339715D01*
X123196703Y-74275190D01*
X123190099Y-74208084D01*
X123099059Y-73907884D01*
X123067241Y-73848347D01*
X123047643Y-73783749D01*
X122899783Y-73507149D01*
X122857007Y-73455031D01*
X122825229Y-73395566D01*
X122626249Y-73153066D01*
X122574028Y-73110202D01*
X122531153Y-73057980D01*
X122288693Y-72859080D01*
X122229287Y-72827342D01*
X122177230Y-72784608D01*
X121900620Y-72636708D01*
X121835963Y-72617085D01*
X121776370Y-72585244D01*
X121476210Y-72494244D01*
X121409183Y-72487653D01*
X121344737Y-72468091D01*
X121032607Y-72437291D01*
X120965345Y-72443903D01*
X120898077Y-72437290D01*
X120585927Y-72468090D01*
X120521474Y-72487654D01*
X120454444Y-72494246D01*
X120154294Y-72585246D01*
X120094709Y-72617083D01*
X120030060Y-72636703D01*
X119753439Y-72784603D01*
X119701377Y-72827340D01*
X119641967Y-72859080D01*
X119399507Y-73057980D01*
X119356628Y-73110207D01*
X119304400Y-73153079D01*
X119105430Y-73395579D01*
X119073657Y-73455038D01*
X119030887Y-73507149D01*
X118883027Y-73783749D01*
X118863432Y-73848337D01*
X118831617Y-73907864D01*
X118740567Y-74208064D01*
X118733960Y-74275180D01*
X118714381Y-74339715D01*
X118683631Y-74651815D01*
X118018833Y-74651815D01*
X118020975Y-73715019D01*
X120334650Y-71539033D01*
X146317384Y-71504244D01*
X146168340Y-71863183D01*
G36*
X173541705Y-83491467D02*
X173541561Y-83656671D01*
X173698798Y-84037215D01*
X173989694Y-84328619D01*
X174369963Y-84486520D01*
X174536904Y-84486666D01*
X175053720Y-85003482D01*
X175053720Y-101924939D01*
X174936801Y-102041654D01*
X174801723Y-102366959D01*
X174626340Y-102153167D01*
X174574121Y-102110294D01*
X174531255Y-102058071D01*
X174288754Y-101859091D01*
X174229289Y-101827313D01*
X174177171Y-101784537D01*
X173900571Y-101636677D01*
X173835973Y-101617079D01*
X173776436Y-101585261D01*
X173476236Y-101494221D01*
X173409130Y-101487617D01*
X173344605Y-101468041D01*
X173032505Y-101437291D01*
X172965340Y-101443904D01*
X172898175Y-101437291D01*
X172586075Y-101468041D01*
X172521550Y-101487617D01*
X172454444Y-101494221D01*
X172154244Y-101585261D01*
X172094707Y-101617079D01*
X172030109Y-101636677D01*
X171753509Y-101784537D01*
X171701391Y-101827313D01*
X171641926Y-101859091D01*
X171399426Y-102058071D01*
X171356614Y-102110229D01*
X171304447Y-102153037D01*
X171105447Y-102395497D01*
X171073610Y-102455054D01*
X171030778Y-102507260D01*
X170882978Y-102783870D01*
X170863431Y-102848340D01*
X170831665Y-102907750D01*
X170740565Y-103207910D01*
X170733933Y-103275143D01*
X170714329Y-103339800D01*
X170683629Y-103651929D01*
X170690242Y-103718979D01*
X170683629Y-103786026D01*
X170714329Y-104098176D01*
X170733934Y-104162838D01*
X170740567Y-104230076D01*
X170831667Y-104530226D01*
X170863429Y-104589627D01*
X170882973Y-104654091D01*
X171030773Y-104930711D01*
X171073608Y-104982922D01*
X171105447Y-105042483D01*
X171304447Y-105284943D01*
X171356620Y-105327756D01*
X171399439Y-105379920D01*
X171641939Y-105578890D01*
X171701398Y-105610663D01*
X171753509Y-105653433D01*
X172030109Y-105801293D01*
X172094697Y-105820888D01*
X172151823Y-105851420D01*
X168432294Y-105851420D01*
X168566783Y-105527536D01*
X168567177Y-105076005D01*
X168394747Y-104658694D01*
X168290795Y-104554560D01*
X168333420Y-104554560D01*
X168624259Y-104496708D01*
X168870821Y-104331961D01*
X170812702Y-102390080D01*
X170977449Y-102143519D01*
X170994441Y-102058095D01*
X171035301Y-101852679D01*
X171035301Y-101402722D01*
X171260815Y-101309542D01*
X171552219Y-101018646D01*
X171710120Y-100638377D01*
X171710479Y-100226629D01*
X171553242Y-99846085D01*
X171262346Y-99554681D01*
X170882077Y-99396780D01*
X170470329Y-99396421D01*
X170089785Y-99553658D01*
X169798381Y-99844554D01*
X169640480Y-100224823D01*
X169640342Y-100382663D01*
X169481806Y-100223850D01*
X169101537Y-100065949D01*
X168689789Y-100065590D01*
X168309245Y-100222827D01*
X168191097Y-100340769D01*
X140305616Y-100340769D01*
X140305919Y-99992949D01*
X140148682Y-99612405D01*
X139857786Y-99321001D01*
X139477517Y-99163100D01*
X139065769Y-99162741D01*
X138685225Y-99319978D01*
X138567077Y-99437920D01*
X137240384Y-99437920D01*
X137202282Y-99345705D01*
X136911386Y-99054301D01*
X136531117Y-98896400D01*
X136119369Y-98896041D01*
X135738825Y-99053278D01*
X135466360Y-99325268D01*
X135466360Y-93844645D01*
X135443770Y-93731080D01*
X135408508Y-93553805D01*
X135243761Y-93307244D01*
X133209206Y-91272689D01*
X133279564Y-91103246D01*
X138502199Y-96325881D01*
X138748760Y-96490628D01*
X139039600Y-96548480D01*
X145165072Y-96548480D01*
X145109932Y-96681272D01*
X145109590Y-97073129D01*
X145259231Y-97435289D01*
X145536074Y-97712615D01*
X145897972Y-97862888D01*
X146289829Y-97863230D01*
X146651989Y-97713589D01*
X146929315Y-97436746D01*
X147015496Y-97229200D01*
X155617999Y-97229200D01*
X155734714Y-97346119D01*
X156114983Y-97504020D01*
X156526731Y-97504379D01*
X156907275Y-97347142D01*
X157198679Y-97056246D01*
X157356580Y-96675977D01*
X157356730Y-96504190D01*
X170911520Y-96504190D01*
X171202359Y-96446338D01*
X171448921Y-96281591D01*
X171994117Y-95736395D01*
X172159321Y-95736539D01*
X172539865Y-95579302D01*
X172831269Y-95288406D01*
X172989170Y-94908137D01*
X172989529Y-94496389D01*
X172832292Y-94115845D01*
X172541396Y-93824441D01*
X172161127Y-93666540D01*
X171749379Y-93666181D01*
X171368835Y-93823418D01*
X171077431Y-94114314D01*
X170919530Y-94494583D01*
X170919384Y-94661524D01*
X170596718Y-94984190D01*
X152494832Y-94984190D01*
X152378117Y-94867271D01*
X151997848Y-94709370D01*
X151586100Y-94709011D01*
X151205556Y-94866248D01*
X150914152Y-95157144D01*
X150756251Y-95537413D01*
X150756101Y-95709200D01*
X146999704Y-95709200D01*
X146541583Y-95251079D01*
X146295021Y-95086332D01*
X146004182Y-95028480D01*
X139354402Y-95028480D01*
X136399577Y-92073655D01*
X136633451Y-92073859D01*
X137013995Y-91916622D01*
X137305399Y-91625726D01*
X137463300Y-91245457D01*
X137463659Y-90833709D01*
X137306422Y-90453165D01*
X137015526Y-90161761D01*
X136635257Y-90003860D01*
X136468316Y-90003714D01*
X131684300Y-85219698D01*
X131684300Y-82334035D01*
X131914572Y-82429652D01*
X132322888Y-82837967D01*
X132322890Y-82837970D01*
X132610005Y-83029813D01*
X132666196Y-83040990D01*
X132948680Y-83097181D01*
X132948685Y-83097180D01*
X136736238Y-83097180D01*
X136534971Y-83298096D01*
X136377070Y-83678365D01*
X136376711Y-84090113D01*
X136533948Y-84470657D01*
X136824844Y-84762061D01*
X137205113Y-84919962D01*
X137616861Y-84920321D01*
X137997405Y-84763084D01*
X138115553Y-84645142D01*
X140679700Y-84645142D01*
X141504685Y-85470127D01*
X141504541Y-85635331D01*
X141661778Y-86015875D01*
X141952674Y-86307279D01*
X142332943Y-86465180D01*
X142744691Y-86465539D01*
X143125235Y-86308302D01*
X143243383Y-86190360D01*
X159097980Y-86190360D01*
X159388819Y-86132508D01*
X159635381Y-85967761D01*
X161284047Y-84319095D01*
X161449251Y-84319239D01*
X161474725Y-84308713D01*
X161456600Y-84352363D01*
X161456454Y-84519304D01*
X156593698Y-89382060D01*
X142245261Y-89382060D01*
X142128546Y-89265141D01*
X141748277Y-89107240D01*
X141336529Y-89106881D01*
X140955985Y-89264118D01*
X140664581Y-89555014D01*
X140506680Y-89935283D01*
X140506321Y-90347031D01*
X140663558Y-90727575D01*
X140954454Y-91018979D01*
X141334723Y-91176880D01*
X141746471Y-91177239D01*
X142127015Y-91020002D01*
X142245163Y-90902060D01*
X156908500Y-90902060D01*
X157199339Y-90844208D01*
X157445901Y-90679461D01*
X162531187Y-85594175D01*
X162696391Y-85594319D01*
X163076935Y-85437082D01*
X163368339Y-85146186D01*
X163526240Y-84765917D01*
X163526599Y-84354169D01*
X163369362Y-83973625D01*
X163078466Y-83682221D01*
X162698197Y-83524320D01*
X162286449Y-83523961D01*
X162260975Y-83534487D01*
X162279100Y-83490837D01*
X162279459Y-83079089D01*
X162122222Y-82698545D01*
X161831326Y-82407141D01*
X161628282Y-82322830D01*
X172373068Y-82322830D01*
X173541705Y-83491467D01*
X173541705Y-83491467D01*
G37*
X173541705Y-83491467D02*
X173541561Y-83656671D01*
X173698798Y-84037215D01*
X173989694Y-84328619D01*
X174369963Y-84486520D01*
X174536904Y-84486666D01*
X175053720Y-85003482D01*
X175053720Y-101924939D01*
X174936801Y-102041654D01*
X174801723Y-102366959D01*
X174626340Y-102153167D01*
X174574121Y-102110294D01*
X174531255Y-102058071D01*
X174288754Y-101859091D01*
X174229289Y-101827313D01*
X174177171Y-101784537D01*
X173900571Y-101636677D01*
X173835973Y-101617079D01*
X173776436Y-101585261D01*
X173476236Y-101494221D01*
X173409130Y-101487617D01*
X173344605Y-101468041D01*
X173032505Y-101437291D01*
X172965340Y-101443904D01*
X172898175Y-101437291D01*
X172586075Y-101468041D01*
X172521550Y-101487617D01*
X172454444Y-101494221D01*
X172154244Y-101585261D01*
X172094707Y-101617079D01*
X172030109Y-101636677D01*
X171753509Y-101784537D01*
X171701391Y-101827313D01*
X171641926Y-101859091D01*
X171399426Y-102058071D01*
X171356614Y-102110229D01*
X171304447Y-102153037D01*
X171105447Y-102395497D01*
X171073610Y-102455054D01*
X171030778Y-102507260D01*
X170882978Y-102783870D01*
X170863431Y-102848340D01*
X170831665Y-102907750D01*
X170740565Y-103207910D01*
X170733933Y-103275143D01*
X170714329Y-103339800D01*
X170683629Y-103651929D01*
X170690242Y-103718979D01*
X170683629Y-103786026D01*
X170714329Y-104098176D01*
X170733934Y-104162838D01*
X170740567Y-104230076D01*
X170831667Y-104530226D01*
X170863429Y-104589627D01*
X170882973Y-104654091D01*
X171030773Y-104930711D01*
X171073608Y-104982922D01*
X171105447Y-105042483D01*
X171304447Y-105284943D01*
X171356620Y-105327756D01*
X171399439Y-105379920D01*
X171641939Y-105578890D01*
X171701398Y-105610663D01*
X171753509Y-105653433D01*
X172030109Y-105801293D01*
X172094697Y-105820888D01*
X172151823Y-105851420D01*
X168432294Y-105851420D01*
X168566783Y-105527536D01*
X168567177Y-105076005D01*
X168394747Y-104658694D01*
X168290795Y-104554560D01*
X168333420Y-104554560D01*
X168624259Y-104496708D01*
X168870821Y-104331961D01*
X170812702Y-102390080D01*
X170977449Y-102143519D01*
X170994441Y-102058095D01*
X171035301Y-101852679D01*
X171035301Y-101402722D01*
X171260815Y-101309542D01*
X171552219Y-101018646D01*
X171710120Y-100638377D01*
X171710479Y-100226629D01*
X171553242Y-99846085D01*
X171262346Y-99554681D01*
X170882077Y-99396780D01*
X170470329Y-99396421D01*
X170089785Y-99553658D01*
X169798381Y-99844554D01*
X169640480Y-100224823D01*
X169640342Y-100382663D01*
X169481806Y-100223850D01*
X169101537Y-100065949D01*
X168689789Y-100065590D01*
X168309245Y-100222827D01*
X168191097Y-100340769D01*
X140305616Y-100340769D01*
X140305919Y-99992949D01*
X140148682Y-99612405D01*
X139857786Y-99321001D01*
X139477517Y-99163100D01*
X139065769Y-99162741D01*
X138685225Y-99319978D01*
X138567077Y-99437920D01*
X137240384Y-99437920D01*
X137202282Y-99345705D01*
X136911386Y-99054301D01*
X136531117Y-98896400D01*
X136119369Y-98896041D01*
X135738825Y-99053278D01*
X135466360Y-99325268D01*
X135466360Y-93844645D01*
X135443770Y-93731080D01*
X135408508Y-93553805D01*
X135243761Y-93307244D01*
X133209206Y-91272689D01*
X133279564Y-91103246D01*
X138502199Y-96325881D01*
X138748760Y-96490628D01*
X139039600Y-96548480D01*
X145165072Y-96548480D01*
X145109932Y-96681272D01*
X145109590Y-97073129D01*
X145259231Y-97435289D01*
X145536074Y-97712615D01*
X145897972Y-97862888D01*
X146289829Y-97863230D01*
X146651989Y-97713589D01*
X146929315Y-97436746D01*
X147015496Y-97229200D01*
X155617999Y-97229200D01*
X155734714Y-97346119D01*
X156114983Y-97504020D01*
X156526731Y-97504379D01*
X156907275Y-97347142D01*
X157198679Y-97056246D01*
X157356580Y-96675977D01*
X157356730Y-96504190D01*
X170911520Y-96504190D01*
X171202359Y-96446338D01*
X171448921Y-96281591D01*
X171994117Y-95736395D01*
X172159321Y-95736539D01*
X172539865Y-95579302D01*
X172831269Y-95288406D01*
X172989170Y-94908137D01*
X172989529Y-94496389D01*
X172832292Y-94115845D01*
X172541396Y-93824441D01*
X172161127Y-93666540D01*
X171749379Y-93666181D01*
X171368835Y-93823418D01*
X171077431Y-94114314D01*
X170919530Y-94494583D01*
X170919384Y-94661524D01*
X170596718Y-94984190D01*
X152494832Y-94984190D01*
X152378117Y-94867271D01*
X151997848Y-94709370D01*
X151586100Y-94709011D01*
X151205556Y-94866248D01*
X150914152Y-95157144D01*
X150756251Y-95537413D01*
X150756101Y-95709200D01*
X146999704Y-95709200D01*
X146541583Y-95251079D01*
X146295021Y-95086332D01*
X146004182Y-95028480D01*
X139354402Y-95028480D01*
X136399577Y-92073655D01*
X136633451Y-92073859D01*
X137013995Y-91916622D01*
X137305399Y-91625726D01*
X137463300Y-91245457D01*
X137463659Y-90833709D01*
X137306422Y-90453165D01*
X137015526Y-90161761D01*
X136635257Y-90003860D01*
X136468316Y-90003714D01*
X131684300Y-85219698D01*
X131684300Y-82334035D01*
X131914572Y-82429652D01*
X132322888Y-82837967D01*
X132322890Y-82837970D01*
X132610005Y-83029813D01*
X132666196Y-83040990D01*
X132948680Y-83097181D01*
X132948685Y-83097180D01*
X136736238Y-83097180D01*
X136534971Y-83298096D01*
X136377070Y-83678365D01*
X136376711Y-84090113D01*
X136533948Y-84470657D01*
X136824844Y-84762061D01*
X137205113Y-84919962D01*
X137616861Y-84920321D01*
X137997405Y-84763084D01*
X138115553Y-84645142D01*
X140679700Y-84645142D01*
X141504685Y-85470127D01*
X141504541Y-85635331D01*
X141661778Y-86015875D01*
X141952674Y-86307279D01*
X142332943Y-86465180D01*
X142744691Y-86465539D01*
X143125235Y-86308302D01*
X143243383Y-86190360D01*
X159097980Y-86190360D01*
X159388819Y-86132508D01*
X159635381Y-85967761D01*
X161284047Y-84319095D01*
X161449251Y-84319239D01*
X161474725Y-84308713D01*
X161456600Y-84352363D01*
X161456454Y-84519304D01*
X156593698Y-89382060D01*
X142245261Y-89382060D01*
X142128546Y-89265141D01*
X141748277Y-89107240D01*
X141336529Y-89106881D01*
X140955985Y-89264118D01*
X140664581Y-89555014D01*
X140506680Y-89935283D01*
X140506321Y-90347031D01*
X140663558Y-90727575D01*
X140954454Y-91018979D01*
X141334723Y-91176880D01*
X141746471Y-91177239D01*
X142127015Y-91020002D01*
X142245163Y-90902060D01*
X156908500Y-90902060D01*
X157199339Y-90844208D01*
X157445901Y-90679461D01*
X162531187Y-85594175D01*
X162696391Y-85594319D01*
X163076935Y-85437082D01*
X163368339Y-85146186D01*
X163526240Y-84765917D01*
X163526599Y-84354169D01*
X163369362Y-83973625D01*
X163078466Y-83682221D01*
X162698197Y-83524320D01*
X162286449Y-83523961D01*
X162260975Y-83534487D01*
X162279100Y-83490837D01*
X162279459Y-83079089D01*
X162122222Y-82698545D01*
X161831326Y-82407141D01*
X161628282Y-82322830D01*
X172373068Y-82322830D01*
X173541705Y-83491467D01*
G36*
X166470335Y-104657015D02*
X166297177Y-105074024D01*
X166296783Y-105525555D01*
X166431428Y-105851420D01*
X162432294Y-105851420D01*
X162566783Y-105527536D01*
X162567177Y-105076005D01*
X162394747Y-104658694D01*
X162290795Y-104554560D01*
X166572969Y-104554560D01*
X166470335Y-104657015D01*
X166470335Y-104657015D01*
G37*
X166470335Y-104657015D02*
X166297177Y-105074024D01*
X166296783Y-105525555D01*
X166431428Y-105851420D01*
X162432294Y-105851420D01*
X162566783Y-105527536D01*
X162567177Y-105076005D01*
X162394747Y-104658694D01*
X162290795Y-104554560D01*
X166572969Y-104554560D01*
X166470335Y-104657015D01*
M02*
