G04 #@! TF.GenerationSoftware,KiCad,Pcbnew,no-vcs-found-996cba7~58~ubuntu16.04.1*
G04 #@! TF.CreationDate,2017-03-19T23:47:34+01:00*
G04 #@! TF.ProjectId,GhostESP32,47686F737445535033322E6B69636164,rev?*
G04 #@! TF.FileFunction,Soldermask,Top*
G04 #@! TF.FilePolarity,Negative*
%FSLAX46Y46*%
G04 Gerber Fmt 4.6, Leading zero omitted, Abs format (unit mm)*
G04 Created by KiCad (PCBNEW no-vcs-found-996cba7~58~ubuntu16.04.1) date Sun Mar 19 23:47:34 2017*
%MOMM*%
%LPD*%
G01*
G04 APERTURE LIST*
%ADD10C,0.100000*%
%ADD11R,1.000000X1.300000*%
%ADD12C,1.000000*%
%ADD13R,1.000000X1.100000*%
%ADD14R,0.750000X0.800000*%
%ADD15R,0.800000X0.750000*%
%ADD16R,0.800000X0.800000*%
%ADD17R,2.500000X1.800000*%
%ADD18R,2.500000X0.350000*%
%ADD19C,0.700000*%
%ADD20C,1.100000*%
%ADD21O,1.550000X1.000000*%
%ADD22O,0.950000X1.250000*%
%ADD23R,1.350000X0.400000*%
%ADD24R,0.900000X0.800000*%
%ADD25R,0.800000X0.900000*%
%ADD26R,0.500000X0.900000*%
%ADD27R,0.900000X0.500000*%
%ADD28R,1.550000X0.600000*%
%ADD29R,2.000000X1.500000*%
%ADD30R,2.000000X3.800000*%
%ADD31R,1.675000X1.675000*%
%ADD32O,0.300000X0.850000*%
%ADD33O,0.850000X0.300000*%
%ADD34O,0.900000X2.500000*%
%ADD35O,2.500000X0.900000*%
%ADD36R,6.000000X6.000000*%
%ADD37R,1.300000X1.300000*%
%ADD38R,0.300000X0.850000*%
%ADD39R,0.850000X0.300000*%
%ADD40R,0.900000X0.900000*%
%ADD41O,0.300000X0.750000*%
%ADD42O,0.750000X0.300000*%
G04 APERTURE END LIST*
D10*
D11*
X160681980Y-102800780D03*
X163681980Y-102800780D03*
X165181980Y-102800780D03*
X168181980Y-102800780D03*
D12*
X167431980Y-105300780D03*
X161431980Y-105300780D03*
D13*
X158631980Y-103800780D03*
X158631980Y-106800780D03*
X170231980Y-103800780D03*
X170231980Y-106800780D03*
D14*
X124785120Y-75256960D03*
X124785120Y-76756960D03*
D15*
X139107480Y-76591160D03*
X140607480Y-76591160D03*
D14*
X119776240Y-95381380D03*
X119776240Y-96881380D03*
X165892480Y-73788840D03*
X165892480Y-75288840D03*
X123332240Y-97003300D03*
X123332240Y-95503300D03*
X169035160Y-75304080D03*
X169035160Y-73804080D03*
X123332240Y-98896740D03*
X123332240Y-100396740D03*
X119816880Y-100315460D03*
X119816880Y-98815460D03*
X146672300Y-101233540D03*
X146672300Y-102733540D03*
D15*
X173951200Y-101028500D03*
X175451200Y-101028500D03*
D16*
X139032080Y-73599040D03*
X140632080Y-73599040D03*
X156034640Y-106189780D03*
X154434640Y-106189780D03*
X143281400Y-102933400D03*
X143281400Y-101333400D03*
X124005440Y-106146600D03*
X125605440Y-106146600D03*
D17*
X120065800Y-81554320D03*
X124065800Y-81554320D03*
D18*
X149844760Y-89078060D03*
X149844760Y-89678060D03*
X149844760Y-90278060D03*
X149844760Y-90878060D03*
X149844760Y-91478060D03*
X149844760Y-92078060D03*
X149844760Y-92678060D03*
X149844760Y-93278060D03*
X149844760Y-93878060D03*
X149844760Y-94478060D03*
X149844760Y-88478060D03*
X149844760Y-87878060D03*
X149844760Y-87278060D03*
X149844760Y-86678060D03*
X149844760Y-86078060D03*
X149844760Y-85478060D03*
X149844760Y-84878060D03*
X149844760Y-84278060D03*
X149844760Y-83678060D03*
X149844760Y-83078060D03*
X145344760Y-89078060D03*
X145344760Y-89678060D03*
X145344760Y-90278060D03*
X145344760Y-90878060D03*
X145344760Y-91478060D03*
X145344760Y-92078060D03*
X145344760Y-92678060D03*
X145344760Y-93278060D03*
X145344760Y-93878060D03*
X145344760Y-94478060D03*
X145344760Y-88478060D03*
X145344760Y-87878060D03*
X145344760Y-86078060D03*
X145344760Y-87278060D03*
X145344760Y-86678060D03*
X145344760Y-85478060D03*
X145344760Y-83078060D03*
X145344760Y-84278060D03*
X145344760Y-84878060D03*
X145344760Y-83678060D03*
D19*
X146094760Y-96878060D03*
D20*
X146094760Y-80678060D03*
D21*
X118441480Y-92527000D03*
X118441480Y-85527000D03*
D22*
X121141480Y-91527000D03*
X121141480Y-86527000D03*
D23*
X121141480Y-90327000D03*
X121141480Y-89677000D03*
X121141480Y-89027000D03*
X121141480Y-88377000D03*
X121141480Y-87727000D03*
D24*
X130668520Y-85079800D03*
X130668520Y-86979800D03*
X132668520Y-86029800D03*
D25*
X126164340Y-85121240D03*
X127114340Y-87121240D03*
X125214340Y-87121240D03*
D26*
X142998760Y-73624440D03*
X144498760Y-73624440D03*
X154400820Y-103398320D03*
X155900820Y-103398320D03*
X128076260Y-89562940D03*
X129576260Y-89562940D03*
X128121980Y-82499200D03*
X129621980Y-82499200D03*
X129975040Y-103248460D03*
X128475040Y-103248460D03*
X139077000Y-98419920D03*
X140577000Y-98419920D03*
X128304860Y-106103420D03*
X129804860Y-106103420D03*
D27*
X146908520Y-105931400D03*
X146908520Y-104431400D03*
X143367760Y-106058400D03*
X143367760Y-104558400D03*
D28*
X138879560Y-102158800D03*
X138879560Y-103428800D03*
X138879560Y-104698800D03*
X138879560Y-105968800D03*
X133479560Y-105968800D03*
X133479560Y-104698800D03*
X133479560Y-103428800D03*
X133479560Y-102158800D03*
D29*
X127645160Y-73685400D03*
X127645160Y-78285400D03*
X127645160Y-75985400D03*
D30*
X133945160Y-75985400D03*
D31*
X131858620Y-94764420D03*
X131858620Y-96439420D03*
X133533620Y-94764420D03*
X133533620Y-96439420D03*
D32*
X131196120Y-93151920D03*
X131696120Y-93151920D03*
X132196120Y-93151920D03*
X132696120Y-93151920D03*
X133196120Y-93151920D03*
X133696120Y-93151920D03*
X134196120Y-93151920D03*
D33*
X135146120Y-94101920D03*
X135146120Y-94601920D03*
X135146120Y-95101920D03*
X135146120Y-95601920D03*
X135146120Y-96101920D03*
X135146120Y-96601920D03*
X135146120Y-97101920D03*
D32*
X134196120Y-98051920D03*
X133696120Y-98051920D03*
X133196120Y-98051920D03*
X132696120Y-98051920D03*
X132196120Y-98051920D03*
X131696120Y-98051920D03*
X131196120Y-98051920D03*
D33*
X130246120Y-97101920D03*
X130246120Y-96601920D03*
X130246120Y-96101920D03*
X130246120Y-95601920D03*
X130246120Y-95101920D03*
X130246120Y-94601920D03*
X130246120Y-94101920D03*
D34*
X175394440Y-98037160D03*
X174124440Y-98037160D03*
X172854440Y-98037160D03*
X171584440Y-98037160D03*
X170314440Y-98037160D03*
X169044440Y-98037160D03*
X167774440Y-98037160D03*
X166504440Y-98037160D03*
X165234440Y-98037160D03*
X163964440Y-98037160D03*
X162694440Y-98037160D03*
X161424440Y-98037160D03*
X160154440Y-98037160D03*
X158884440Y-98037160D03*
D35*
X157394440Y-94752160D03*
X157394440Y-93482160D03*
X157394440Y-92212160D03*
X157394440Y-90942160D03*
X157394440Y-89672160D03*
X157394440Y-88402160D03*
X157394440Y-87132160D03*
X157394440Y-85862160D03*
X157394440Y-84592160D03*
X157394440Y-83322160D03*
D34*
X158884440Y-80037160D03*
X160154440Y-80037160D03*
X161424440Y-80037160D03*
X162694440Y-80037160D03*
X163964440Y-80037160D03*
X165234440Y-80037160D03*
X166504440Y-80037160D03*
X167774440Y-80037160D03*
X169044440Y-80037160D03*
X170314440Y-80037160D03*
X171584440Y-80037160D03*
X172854440Y-80037160D03*
X174124440Y-80037160D03*
X175394440Y-80037160D03*
D36*
X167694440Y-88737160D03*
D15*
X138317540Y-93106240D03*
X139817540Y-93106240D03*
X141435520Y-81318100D03*
X139935520Y-81318100D03*
X136431020Y-81178400D03*
X137931020Y-81178400D03*
X156630940Y-73395840D03*
X158130940Y-73395840D03*
X161722500Y-73306940D03*
X160222500Y-73306940D03*
D26*
X146379500Y-73588880D03*
X147879500Y-73588880D03*
X147871880Y-76334620D03*
X146371880Y-76334620D03*
D37*
X137487900Y-86113860D03*
X137487900Y-87413860D03*
X138787900Y-86113860D03*
X138787900Y-87413860D03*
D38*
X136887900Y-84813860D03*
X137387900Y-84813860D03*
X137887900Y-84813860D03*
X138387900Y-84813860D03*
X138887900Y-84813860D03*
X139387900Y-84813860D03*
D39*
X140087900Y-85513860D03*
X140087900Y-86013860D03*
X140087900Y-86513860D03*
X140087900Y-87013860D03*
X140087900Y-87513860D03*
X140087900Y-88013860D03*
D38*
X139387900Y-88713860D03*
X138887900Y-88713860D03*
X138387900Y-88713860D03*
X137887900Y-88713860D03*
X137387900Y-88713860D03*
X136887900Y-88713860D03*
D39*
X136187900Y-88013860D03*
X136187900Y-87513860D03*
X136187900Y-87013860D03*
X136187900Y-86513860D03*
X136187900Y-86013860D03*
X136187900Y-85513860D03*
D40*
X151629220Y-74615320D03*
X151629220Y-75515320D03*
X152529220Y-74615320D03*
X152529220Y-75515320D03*
D41*
X151329220Y-73590320D03*
X151829220Y-73590320D03*
X152329220Y-73590320D03*
X152829220Y-73590320D03*
D42*
X153554220Y-74315320D03*
X153554220Y-74815320D03*
X153554220Y-75315320D03*
X153554220Y-75815320D03*
D41*
X152829220Y-76540320D03*
X152329220Y-76540320D03*
X151829220Y-76540320D03*
X151329220Y-76540320D03*
D42*
X150604220Y-75815320D03*
X150604220Y-75315320D03*
X150604220Y-74815320D03*
X150604220Y-74315320D03*
D24*
X151685500Y-101810820D03*
X149685500Y-102760820D03*
X149685500Y-100860820D03*
D26*
X151199280Y-106123740D03*
X149699280Y-106123740D03*
M02*
