M48
;DRILL file {KiCad no-vcs-found-996cba7~58~ubuntu16.04.1} date Sun Mar 19 23:47:43 2017
;FORMAT={-:-/ absolute / metric / decimal}
FMAT,2
METRIC,TZ
T1C0.400
T2C0.500
T3C0.550
%
G90
G05
M71
T1
X120.081Y-77.719
X121.437Y-97.892
X121.501Y-96.271
X123.459Y-83.807
X124.714Y-89.766
X125.379Y-100.366
X126.265Y-95.287
X126.265Y-96.578
X126.286Y-93.731
X126.586Y-83.335
X126.99Y-103.973
X130.396Y-74.478
X130.924Y-77.305
X131.016Y-90.968
X132.138Y-81.402
X132.268Y-90.841
X134.275Y-80.364
X134.342Y-81.362
X135.926Y-104.488
X136.037Y-105.74
X136.324Y-99.931
X136.428Y-91.039
X136.467Y-78.458
X137.412Y-83.885
X139.271Y-100.198
X139.898Y-78.217
X141.28Y-103.035
X141.541Y-90.142
X141.933Y-92.105
X142.54Y-85.43
X147.203Y-72.07
X148.138Y-106.769
X148.565Y-104.353
X149.007Y-77.732
X149.164Y-71.745
X149.281Y-73.731
X150.79Y-72.113
X151.791Y-95.744
X152.067Y-72.555
X152.118Y-78.054
X152.428Y-83.718
X153.182Y-102.514
X154.659Y-77.355
X156.322Y-96.469
X156.418Y-75.085
X156.754Y-102.113
X161.244Y-83.284
X161.915Y-92.377
X162.491Y-84.559
X164.879Y-105.641
X165.329Y-76.434
X168.895Y-101.101
X168.989Y-77.376
X170.675Y-100.432
X171.954Y-94.701
X173.385Y-90.564
X174.577Y-83.452
X175.814Y-102.629
T2
X118.116Y-85.527G85X118.766Y-85.527
G05
X118.116Y-92.527G85X118.766Y-92.527
G05
T3
X121.141Y-86.377G85X121.141Y-86.677
G05
X121.141Y-91.377G85X121.141Y-91.677
G05
T0
M30
