G04 #@! TF.GenerationSoftware,KiCad,Pcbnew,5.0.0-rc2-dev-unknown-9e8bcbe~62~ubuntu16.04.1*
G04 #@! TF.CreationDate,2018-03-17T21:54:01+01:00*
G04 #@! TF.ProjectId,GhostESP32,47686F737445535033322E6B69636164,rev?*
G04 #@! TF.SameCoordinates,Original*
G04 #@! TF.FileFunction,Soldermask,Top*
G04 #@! TF.FilePolarity,Negative*
%FSLAX46Y46*%
G04 Gerber Fmt 4.6, Leading zero omitted, Abs format (unit mm)*
G04 Created by KiCad (PCBNEW 5.0.0-rc2-dev-unknown-9e8bcbe~62~ubuntu16.04.1) date Sat Mar 17 21:54:01 2018*
%MOMM*%
%LPD*%
G01*
G04 APERTURE LIST*
%ADD10R,0.800000X1.000000*%
%ADD11R,0.452400X0.602400*%
%ADD12R,2.100000X2.100000*%
%ADD13O,2.100000X2.100000*%
%ADD14R,2.900000X2.200000*%
%ADD15R,0.900000X1.000000*%
%ADD16R,1.000000X0.900000*%
%ADD17O,1.950000X1.400000*%
%ADD18O,1.350000X1.650000*%
%ADD19R,1.750000X0.800000*%
%ADD20R,1.000000X1.200000*%
%ADD21R,1.200000X1.000000*%
%ADD22R,1.275000X1.200000*%
%ADD23R,0.600000X0.950000*%
%ADD24R,0.950000X0.600000*%
%ADD25R,2.075000X2.075000*%
%ADD26O,0.700000X1.250000*%
%ADD27O,1.250000X0.700000*%
%ADD28O,1.300000X2.900000*%
%ADD29O,2.900000X1.300000*%
%ADD30R,6.400000X6.400000*%
%ADD31R,1.700000X1.400000*%
%ADD32C,1.400000*%
%ADD33R,1.500000X1.400000*%
%ADD34R,1.000000X0.800000*%
%ADD35R,2.400000X1.900000*%
%ADD36R,2.400000X4.200000*%
%ADD37R,1.300000X1.200000*%
G04 APERTURE END LIST*
D10*
X107300000Y-107150000D03*
X106400000Y-107150000D03*
D11*
X139350000Y-111925000D03*
X138350000Y-111925000D03*
X138850000Y-113275000D03*
X138850000Y-111925000D03*
X138350000Y-113275000D03*
X139350000Y-113275000D03*
D12*
X107570000Y-122100000D03*
D13*
X110110000Y-122100000D03*
X112650000Y-122100000D03*
D14*
X111450000Y-89800000D03*
X107450000Y-89800000D03*
D10*
X116400000Y-89450000D03*
X117300000Y-89450000D03*
D15*
X102700000Y-108050000D03*
X102700000Y-109150000D03*
X123800000Y-109400000D03*
X123800000Y-110500000D03*
D16*
X132450000Y-107650000D03*
X133550000Y-107650000D03*
D15*
X124000000Y-113000000D03*
X124000000Y-114100000D03*
X162800000Y-90100000D03*
X162800000Y-89000000D03*
X160300000Y-89000000D03*
X160300000Y-90100000D03*
X112600000Y-98300000D03*
X112600000Y-99400000D03*
X114100000Y-99400000D03*
X114100000Y-98300000D03*
X111100000Y-98300000D03*
X111100000Y-99400000D03*
X109400000Y-99400000D03*
X109400000Y-98300000D03*
D16*
X117450000Y-88050000D03*
X116350000Y-88050000D03*
D15*
X115850000Y-99400000D03*
X115850000Y-98300000D03*
D17*
X96400000Y-99000000D03*
X96400000Y-92000000D03*
D18*
X99100000Y-98000000D03*
X99100000Y-93000000D03*
D19*
X99100000Y-96800000D03*
X99100000Y-96150000D03*
X99100000Y-95500000D03*
X99100000Y-94850000D03*
X99100000Y-94200000D03*
D20*
X106000000Y-98300000D03*
X104300000Y-98300000D03*
X104300000Y-99850000D03*
X106000000Y-99850000D03*
X106000000Y-101550000D03*
X104300000Y-101550000D03*
D21*
X103850000Y-82700000D03*
X103850000Y-84400000D03*
D20*
X154800000Y-117450000D03*
X153100000Y-117450000D03*
D14*
X111500000Y-93400000D03*
X107500000Y-93400000D03*
D22*
X132130000Y-102250000D03*
X132130000Y-103050000D03*
X133000000Y-102250000D03*
X133000000Y-103050000D03*
D23*
X131565000Y-101150000D03*
X131965000Y-101150000D03*
X132365000Y-101150000D03*
X132765000Y-101150000D03*
X133165000Y-101150000D03*
X133565000Y-101150000D03*
D24*
X134065000Y-101650000D03*
X134065000Y-102050000D03*
X134065000Y-102450000D03*
X134065000Y-102850000D03*
X134065000Y-103250000D03*
X134065000Y-103650000D03*
D23*
X133565000Y-104150000D03*
X133165000Y-104150000D03*
X132765000Y-104150000D03*
X132365000Y-104150000D03*
X131965000Y-104150000D03*
X131565000Y-104150000D03*
D24*
X131065000Y-103650000D03*
X131065000Y-103250000D03*
X131065000Y-102850000D03*
X131065000Y-102450000D03*
X131065000Y-102050000D03*
X131065000Y-101650000D03*
D25*
X116375000Y-110825000D03*
X116375000Y-112500000D03*
X118050000Y-110825000D03*
X118050000Y-112500000D03*
D26*
X115712500Y-109212500D03*
X116212500Y-109212500D03*
X116712500Y-109212500D03*
X117212500Y-109212500D03*
X117712500Y-109212500D03*
X118212500Y-109212500D03*
X118712500Y-109212500D03*
D27*
X119662500Y-110162500D03*
X119662500Y-110662500D03*
X119662500Y-111162500D03*
X119662500Y-111662500D03*
X119662500Y-112162500D03*
X119662500Y-112662500D03*
X119662500Y-113162500D03*
D26*
X118712500Y-114112500D03*
X118212500Y-114112500D03*
X117712500Y-114112500D03*
X117212500Y-114112500D03*
X116712500Y-114112500D03*
X116212500Y-114112500D03*
X115712500Y-114112500D03*
D27*
X114762500Y-113162500D03*
X114762500Y-112662500D03*
X114762500Y-112162500D03*
X114762500Y-111662500D03*
X114762500Y-111162500D03*
X114762500Y-110662500D03*
X114762500Y-110162500D03*
D28*
X163450000Y-111650000D03*
X162180000Y-111650000D03*
X160910000Y-111650000D03*
X159640000Y-111650000D03*
X158370000Y-111650000D03*
X157100000Y-111650000D03*
X155830000Y-111650000D03*
X154560000Y-111650000D03*
X153290000Y-111650000D03*
X152020000Y-111650000D03*
X150750000Y-111650000D03*
X149480000Y-111650000D03*
X148210000Y-111650000D03*
X146940000Y-111650000D03*
D29*
X145450000Y-108365000D03*
X145450000Y-107095000D03*
X145450000Y-105825000D03*
X145450000Y-104555000D03*
X145450000Y-103285000D03*
X145450000Y-102015000D03*
X145450000Y-100745000D03*
X145450000Y-99475000D03*
X145450000Y-98205000D03*
X145450000Y-96935000D03*
D28*
X146940000Y-93650000D03*
X148210000Y-93650000D03*
X149480000Y-93650000D03*
X150750000Y-93650000D03*
X152020000Y-93650000D03*
X153290000Y-93650000D03*
X154560000Y-93650000D03*
X155830000Y-93650000D03*
X157100000Y-93650000D03*
X158370000Y-93650000D03*
X159640000Y-93650000D03*
X160910000Y-93650000D03*
X162180000Y-93650000D03*
X163450000Y-93650000D03*
D30*
X155750000Y-102350000D03*
D31*
X99900000Y-106550000D03*
X99900000Y-109550000D03*
X99900000Y-111050000D03*
X99900000Y-114050000D03*
D32*
X97400000Y-113300000D03*
X97400000Y-107300000D03*
D33*
X98900000Y-104500000D03*
X95900000Y-104500000D03*
X98900000Y-116100000D03*
X95900000Y-116100000D03*
D13*
X112700000Y-83500000D03*
X110160000Y-83500000D03*
D12*
X107620000Y-83500000D03*
X127300000Y-122050000D03*
D13*
X129840000Y-122050000D03*
X132380000Y-122050000D03*
X134920000Y-122050000D03*
X137460000Y-122050000D03*
X140000000Y-122050000D03*
X142540000Y-122050000D03*
X145080000Y-122050000D03*
X147620000Y-122050000D03*
X150160000Y-122050000D03*
X152700000Y-122050000D03*
X155240000Y-122050000D03*
X155150000Y-83500000D03*
X152610000Y-83500000D03*
X150070000Y-83500000D03*
X147530000Y-83500000D03*
X144990000Y-83500000D03*
X142450000Y-83500000D03*
X139910000Y-83500000D03*
X137370000Y-83500000D03*
X134830000Y-83500000D03*
X132290000Y-83500000D03*
X129750000Y-83500000D03*
D12*
X127210000Y-83500000D03*
D10*
X117250000Y-85350000D03*
X116350000Y-85350000D03*
D34*
X102700000Y-111400000D03*
X102700000Y-110500000D03*
X131200000Y-117150000D03*
X131200000Y-116250000D03*
D10*
X133550000Y-93850000D03*
X134450000Y-93850000D03*
X134500000Y-95400000D03*
X133600000Y-95400000D03*
X106400000Y-108600000D03*
X107300000Y-108600000D03*
D34*
X103850000Y-86750000D03*
X103850000Y-85850000D03*
D10*
X156600000Y-117500000D03*
X157500000Y-117500000D03*
X117650000Y-106050000D03*
X116750000Y-106050000D03*
D34*
X109250000Y-117200000D03*
X109250000Y-118100000D03*
X110850000Y-118200000D03*
X110850000Y-117300000D03*
X132650000Y-116200000D03*
X132650000Y-117100000D03*
X163250000Y-115250000D03*
X163250000Y-116150000D03*
D35*
X121350000Y-91150000D03*
X121350000Y-95750000D03*
X121350000Y-93450000D03*
D36*
X127650000Y-93450000D03*
D37*
X139250000Y-99050000D03*
X137250000Y-100000000D03*
X137250000Y-98100000D03*
X160400000Y-116550000D03*
X160400000Y-114650000D03*
X158400000Y-115600000D03*
X139600000Y-91500000D03*
X137600000Y-92450000D03*
X137600000Y-90550000D03*
X120800000Y-84150000D03*
X120800000Y-86050000D03*
X122800000Y-85100000D03*
X103600000Y-117500000D03*
X105600000Y-116550000D03*
X105600000Y-118450000D03*
M02*
