G04 #@! TF.GenerationSoftware,KiCad,Pcbnew,5.0.0-rc2-dev-unknown-9e8bcbe~62~ubuntu16.04.1*
G04 #@! TF.CreationDate,2018-03-17T21:54:01+01:00*
G04 #@! TF.ProjectId,GhostESP32,47686F737445535033322E6B69636164,rev?*
G04 #@! TF.SameCoordinates,Original*
G04 #@! TF.FileFunction,Legend,Top*
G04 #@! TF.FilePolarity,Positive*
%FSLAX46Y46*%
G04 Gerber Fmt 4.6, Leading zero omitted, Abs format (unit mm)*
G04 Created by KiCad (PCBNEW 5.0.0-rc2-dev-unknown-9e8bcbe~62~ubuntu16.04.1) date Sat Mar 17 21:54:01 2018*
%MOMM*%
%LPD*%
G01*
G04 APERTURE LIST*
%ADD10C,0.150000*%
%ADD11C,0.120000*%
%ADD12C,0.177800*%
%ADD13C,0.500000*%
%ADD14C,0.152400*%
G04 APERTURE END LIST*
D10*
X117054761Y-116157142D02*
X117007142Y-116204761D01*
X116864285Y-116252380D01*
X116769047Y-116252380D01*
X116626190Y-116204761D01*
X116530952Y-116109523D01*
X116483333Y-116014285D01*
X116435714Y-115823809D01*
X116435714Y-115680952D01*
X116483333Y-115490476D01*
X116530952Y-115395238D01*
X116626190Y-115300000D01*
X116769047Y-115252380D01*
X116864285Y-115252380D01*
X117007142Y-115300000D01*
X117054761Y-115347619D01*
X117483333Y-116252380D02*
X117483333Y-115252380D01*
X117864285Y-115252380D01*
X117959523Y-115300000D01*
X118007142Y-115347619D01*
X118054761Y-115442857D01*
X118054761Y-115585714D01*
X118007142Y-115680952D01*
X117959523Y-115728571D01*
X117864285Y-115776190D01*
X117483333Y-115776190D01*
X118435714Y-115347619D02*
X118483333Y-115300000D01*
X118578571Y-115252380D01*
X118816666Y-115252380D01*
X118911904Y-115300000D01*
X118959523Y-115347619D01*
X119007142Y-115442857D01*
X119007142Y-115538095D01*
X118959523Y-115680952D01*
X118388095Y-116252380D01*
X119007142Y-116252380D01*
X119959523Y-116252380D02*
X119388095Y-116252380D01*
X119673809Y-116252380D02*
X119673809Y-115252380D01*
X119578571Y-115395238D01*
X119483333Y-115490476D01*
X119388095Y-115538095D01*
X120578571Y-115252380D02*
X120673809Y-115252380D01*
X120769047Y-115300000D01*
X120816666Y-115347619D01*
X120864285Y-115442857D01*
X120911904Y-115633333D01*
X120911904Y-115871428D01*
X120864285Y-116061904D01*
X120816666Y-116157142D01*
X120769047Y-116204761D01*
X120673809Y-116252380D01*
X120578571Y-116252380D01*
X120483333Y-116204761D01*
X120435714Y-116157142D01*
X120388095Y-116061904D01*
X120340476Y-115871428D01*
X120340476Y-115633333D01*
X120388095Y-115442857D01*
X120435714Y-115347619D01*
X120483333Y-115300000D01*
X120578571Y-115252380D01*
X121292857Y-115347619D02*
X121340476Y-115300000D01*
X121435714Y-115252380D01*
X121673809Y-115252380D01*
X121769047Y-115300000D01*
X121816666Y-115347619D01*
X121864285Y-115442857D01*
X121864285Y-115538095D01*
X121816666Y-115680952D01*
X121245238Y-116252380D01*
X121864285Y-116252380D01*
X136252380Y-106230952D02*
X135252380Y-106230952D01*
X135966666Y-105897619D01*
X135252380Y-105564285D01*
X136252380Y-105564285D01*
X136252380Y-105088095D02*
X135252380Y-105088095D01*
X135252380Y-104707142D01*
X135300000Y-104611904D01*
X135347619Y-104564285D01*
X135442857Y-104516666D01*
X135585714Y-104516666D01*
X135680952Y-104564285D01*
X135728571Y-104611904D01*
X135776190Y-104707142D01*
X135776190Y-105088095D01*
X135252380Y-104088095D02*
X136061904Y-104088095D01*
X136157142Y-104040476D01*
X136204761Y-103992857D01*
X136252380Y-103897619D01*
X136252380Y-103707142D01*
X136204761Y-103611904D01*
X136157142Y-103564285D01*
X136061904Y-103516666D01*
X135252380Y-103516666D01*
X135871428Y-103040476D02*
X135871428Y-102278571D01*
X136252380Y-101754761D02*
X136252380Y-101564285D01*
X136204761Y-101469047D01*
X136157142Y-101421428D01*
X136014285Y-101326190D01*
X135823809Y-101278571D01*
X135442857Y-101278571D01*
X135347619Y-101326190D01*
X135300000Y-101373809D01*
X135252380Y-101469047D01*
X135252380Y-101659523D01*
X135300000Y-101754761D01*
X135347619Y-101802380D01*
X135442857Y-101850000D01*
X135680952Y-101850000D01*
X135776190Y-101802380D01*
X135823809Y-101754761D01*
X135871428Y-101659523D01*
X135871428Y-101469047D01*
X135823809Y-101373809D01*
X135776190Y-101326190D01*
X135680952Y-101278571D01*
X135347619Y-100897619D02*
X135300000Y-100850000D01*
X135252380Y-100754761D01*
X135252380Y-100516666D01*
X135300000Y-100421428D01*
X135347619Y-100373809D01*
X135442857Y-100326190D01*
X135538095Y-100326190D01*
X135680952Y-100373809D01*
X136252380Y-100945238D01*
X136252380Y-100326190D01*
X135252380Y-99421428D02*
X135252380Y-99897619D01*
X135728571Y-99945238D01*
X135680952Y-99897619D01*
X135633333Y-99802380D01*
X135633333Y-99564285D01*
X135680952Y-99469047D01*
X135728571Y-99421428D01*
X135823809Y-99373809D01*
X136061904Y-99373809D01*
X136157142Y-99421428D01*
X136204761Y-99469047D01*
X136252380Y-99564285D01*
X136252380Y-99802380D01*
X136204761Y-99897619D01*
X136157142Y-99945238D01*
X135252380Y-98754761D02*
X135252380Y-98659523D01*
X135300000Y-98564285D01*
X135347619Y-98516666D01*
X135442857Y-98469047D01*
X135633333Y-98421428D01*
X135871428Y-98421428D01*
X136061904Y-98469047D01*
X136157142Y-98516666D01*
X136204761Y-98564285D01*
X136252380Y-98659523D01*
X136252380Y-98754761D01*
X136204761Y-98850000D01*
X136157142Y-98897619D01*
X136061904Y-98945238D01*
X135871428Y-98992857D01*
X135633333Y-98992857D01*
X135442857Y-98945238D01*
X135347619Y-98897619D01*
X135300000Y-98850000D01*
X135252380Y-98754761D01*
X142052380Y-116885714D02*
X142052380Y-116314285D01*
X143052380Y-116600000D02*
X142052380Y-116600000D01*
X143052380Y-115980952D02*
X142052380Y-115980952D01*
X142766666Y-115647619D01*
X142052380Y-115314285D01*
X143052380Y-115314285D01*
X143052380Y-114838095D02*
X142052380Y-114838095D01*
X142052380Y-114457142D01*
X142100000Y-114361904D01*
X142147619Y-114314285D01*
X142242857Y-114266666D01*
X142385714Y-114266666D01*
X142480952Y-114314285D01*
X142528571Y-114361904D01*
X142576190Y-114457142D01*
X142576190Y-114838095D01*
X143052380Y-113314285D02*
X143052380Y-113885714D01*
X143052380Y-113600000D02*
X142052380Y-113600000D01*
X142195238Y-113695238D01*
X142290476Y-113790476D01*
X142338095Y-113885714D01*
X142052380Y-112695238D02*
X142052380Y-112600000D01*
X142100000Y-112504761D01*
X142147619Y-112457142D01*
X142242857Y-112409523D01*
X142433333Y-112361904D01*
X142671428Y-112361904D01*
X142861904Y-112409523D01*
X142957142Y-112457142D01*
X143004761Y-112504761D01*
X143052380Y-112600000D01*
X143052380Y-112695238D01*
X143004761Y-112790476D01*
X142957142Y-112838095D01*
X142861904Y-112885714D01*
X142671428Y-112933333D01*
X142433333Y-112933333D01*
X142242857Y-112885714D01*
X142147619Y-112838095D01*
X142100000Y-112790476D01*
X142052380Y-112695238D01*
X142147619Y-111980952D02*
X142100000Y-111933333D01*
X142052380Y-111838095D01*
X142052380Y-111600000D01*
X142100000Y-111504761D01*
X142147619Y-111457142D01*
X142242857Y-111409523D01*
X142338095Y-111409523D01*
X142480952Y-111457142D01*
X143052380Y-112028571D01*
X143052380Y-111409523D01*
D11*
X106600000Y-107680000D02*
X107100000Y-107680000D01*
X107100000Y-106620000D02*
X106600000Y-106620000D01*
D12*
X139891421Y-111900000D02*
G75*
G03X139891421Y-111900000I-141421J0D01*
G01*
X139350000Y-112000000D02*
X138050000Y-112000000D01*
X139650000Y-112300000D02*
X139650000Y-113200000D01*
X139350000Y-112000000D02*
X139650000Y-112300000D01*
X138050000Y-112000000D02*
X138050000Y-113200000D01*
X138050000Y-113200000D02*
X139650000Y-113200000D01*
D11*
X113980000Y-123430000D02*
X113980000Y-120770000D01*
X108840000Y-123430000D02*
X113980000Y-123430000D01*
X108840000Y-120770000D02*
X113980000Y-120770000D01*
X108840000Y-123430000D02*
X108840000Y-120770000D01*
X107570000Y-123430000D02*
X106240000Y-123430000D01*
X106240000Y-123430000D02*
X106240000Y-122100000D01*
X112850000Y-91450000D02*
X112850000Y-88150000D01*
X112850000Y-88150000D02*
X107450000Y-88150000D01*
X112850000Y-91450000D02*
X107450000Y-91450000D01*
X117100000Y-88920000D02*
X116600000Y-88920000D01*
X116600000Y-89980000D02*
X117100000Y-89980000D01*
X103170000Y-108850000D02*
X103170000Y-108350000D01*
X102230000Y-108350000D02*
X102230000Y-108850000D01*
X124270000Y-110200000D02*
X124270000Y-109700000D01*
X123330000Y-109700000D02*
X123330000Y-110200000D01*
X133250000Y-107180000D02*
X132750000Y-107180000D01*
X132750000Y-108120000D02*
X133250000Y-108120000D01*
X124470000Y-113800000D02*
X124470000Y-113300000D01*
X123530000Y-113300000D02*
X123530000Y-113800000D01*
X162330000Y-89300000D02*
X162330000Y-89800000D01*
X163270000Y-89800000D02*
X163270000Y-89300000D01*
X160770000Y-89800000D02*
X160770000Y-89300000D01*
X159830000Y-89300000D02*
X159830000Y-89800000D01*
X113070000Y-99100000D02*
X113070000Y-98600000D01*
X112130000Y-98600000D02*
X112130000Y-99100000D01*
X113630000Y-98600000D02*
X113630000Y-99100000D01*
X114570000Y-99100000D02*
X114570000Y-98600000D01*
X111570000Y-99100000D02*
X111570000Y-98600000D01*
X110630000Y-98600000D02*
X110630000Y-99100000D01*
X108930000Y-98600000D02*
X108930000Y-99100000D01*
X109870000Y-99100000D02*
X109870000Y-98600000D01*
X116650000Y-88520000D02*
X117150000Y-88520000D01*
X117150000Y-87580000D02*
X116650000Y-87580000D01*
X115380000Y-98600000D02*
X115380000Y-99100000D01*
X116320000Y-99100000D02*
X116320000Y-98600000D01*
X93720000Y-91150000D02*
X100130000Y-91150000D01*
X94950000Y-99850000D02*
X94950000Y-91150000D01*
X100130000Y-99850000D02*
X93720000Y-99850000D01*
X100130000Y-91150000D02*
X100130000Y-99850000D01*
X93720000Y-91150000D02*
X93720000Y-99850000D01*
X103850000Y-97730000D02*
X105950000Y-97730000D01*
X103850000Y-98870000D02*
X105950000Y-98870000D01*
X103850000Y-97730000D02*
X103850000Y-98870000D01*
X103850000Y-99280000D02*
X103850000Y-100420000D01*
X103850000Y-100420000D02*
X105950000Y-100420000D01*
X103850000Y-99280000D02*
X105950000Y-99280000D01*
X103850000Y-100980000D02*
X105950000Y-100980000D01*
X103850000Y-102120000D02*
X105950000Y-102120000D01*
X103850000Y-100980000D02*
X103850000Y-102120000D01*
X104420000Y-82250000D02*
X103280000Y-82250000D01*
X103280000Y-82250000D02*
X103280000Y-84350000D01*
X104420000Y-82250000D02*
X104420000Y-84350000D01*
X152650000Y-116880000D02*
X154750000Y-116880000D01*
X152650000Y-118020000D02*
X154750000Y-118020000D01*
X152650000Y-116880000D02*
X152650000Y-118020000D01*
X106100000Y-91750000D02*
X111500000Y-91750000D01*
X106100000Y-95050000D02*
X111500000Y-95050000D01*
X106100000Y-91750000D02*
X106100000Y-95050000D01*
D10*
X130965000Y-101050000D02*
X131365000Y-101050000D01*
X134165000Y-101050000D02*
X133765000Y-101050000D01*
X134165000Y-101050000D02*
X134165000Y-101450000D01*
X134165000Y-104250000D02*
X133765000Y-104250000D01*
X134165000Y-104250000D02*
X134165000Y-103850000D01*
X130965000Y-104250000D02*
X131365000Y-104250000D01*
X130965000Y-104250000D02*
X130965000Y-103850000D01*
X119837500Y-109037500D02*
X119087500Y-109037500D01*
X119837500Y-114287500D02*
X119087500Y-114287500D01*
X114587500Y-114287500D02*
X115337500Y-114287500D01*
X114587500Y-109037500D02*
X115337500Y-109037500D01*
X119837500Y-114287500D02*
X119837500Y-113537500D01*
X114587500Y-114287500D02*
X114587500Y-113537500D01*
X119837500Y-109037500D02*
X119837500Y-109787500D01*
D13*
X165087981Y-92744000D02*
G75*
G03X165087981Y-92744000I-283981J0D01*
G01*
D10*
X164950000Y-111650000D02*
X164950000Y-93650000D01*
X170950000Y-93650000D02*
X145450000Y-93650000D01*
X170950000Y-111650000D02*
X145450000Y-111650000D01*
X145450000Y-111650000D02*
X145450000Y-93650000D01*
X170950000Y-111650000D02*
X170950000Y-93650000D01*
X99432000Y-115380000D02*
X99432000Y-105220000D01*
X99432000Y-105220000D02*
X95368000Y-105220000D01*
X95368000Y-105220000D02*
X95368000Y-115380000D01*
X95368000Y-115380000D02*
X99432000Y-115380000D01*
X99432000Y-115380000D02*
X99432000Y-115380000D01*
D11*
X106290000Y-84830000D02*
X106290000Y-83500000D01*
X107620000Y-84830000D02*
X106290000Y-84830000D01*
X108890000Y-84830000D02*
X108890000Y-82170000D01*
X108890000Y-82170000D02*
X114030000Y-82170000D01*
X108890000Y-84830000D02*
X114030000Y-84830000D01*
X114030000Y-84830000D02*
X114030000Y-82170000D01*
X156570000Y-123380000D02*
X156570000Y-120720000D01*
X128570000Y-123380000D02*
X156570000Y-123380000D01*
X128570000Y-120720000D02*
X156570000Y-120720000D01*
X128570000Y-123380000D02*
X128570000Y-120720000D01*
X127300000Y-123380000D02*
X125970000Y-123380000D01*
X125970000Y-123380000D02*
X125970000Y-122050000D01*
X125880000Y-84830000D02*
X125880000Y-83500000D01*
X127210000Y-84830000D02*
X125880000Y-84830000D01*
X128480000Y-84830000D02*
X128480000Y-82170000D01*
X128480000Y-82170000D02*
X156480000Y-82170000D01*
X128480000Y-84830000D02*
X156480000Y-84830000D01*
X156480000Y-84830000D02*
X156480000Y-82170000D01*
X116550000Y-85880000D02*
X117050000Y-85880000D01*
X117050000Y-84820000D02*
X116550000Y-84820000D01*
X102170000Y-110700000D02*
X102170000Y-111200000D01*
X103230000Y-111200000D02*
X103230000Y-110700000D01*
X130670000Y-116450000D02*
X130670000Y-116950000D01*
X131730000Y-116950000D02*
X131730000Y-116450000D01*
X134250000Y-93320000D02*
X133750000Y-93320000D01*
X133750000Y-94380000D02*
X134250000Y-94380000D01*
X133800000Y-95930000D02*
X134300000Y-95930000D01*
X134300000Y-94870000D02*
X133800000Y-94870000D01*
X107100000Y-108070000D02*
X106600000Y-108070000D01*
X106600000Y-109130000D02*
X107100000Y-109130000D01*
X103320000Y-86050000D02*
X103320000Y-86550000D01*
X104380000Y-86550000D02*
X104380000Y-86050000D01*
X157300000Y-116970000D02*
X156800000Y-116970000D01*
X156800000Y-118030000D02*
X157300000Y-118030000D01*
X116950000Y-106580000D02*
X117450000Y-106580000D01*
X117450000Y-105520000D02*
X116950000Y-105520000D01*
X109780000Y-117900000D02*
X109780000Y-117400000D01*
X108720000Y-117400000D02*
X108720000Y-117900000D01*
X110320000Y-117500000D02*
X110320000Y-118000000D01*
X111380000Y-118000000D02*
X111380000Y-117500000D01*
X133180000Y-116900000D02*
X133180000Y-116400000D01*
X132120000Y-116400000D02*
X132120000Y-116900000D01*
X163780000Y-115950000D02*
X163780000Y-115450000D01*
X162720000Y-115450000D02*
X162720000Y-115950000D01*
X120400000Y-90040000D02*
X126410000Y-90040000D01*
X122650000Y-96860000D02*
X126410000Y-96860000D01*
X126410000Y-90040000D02*
X126410000Y-91300000D01*
X126410000Y-96860000D02*
X126410000Y-95600000D01*
X139010000Y-100630000D02*
X137550000Y-100630000D01*
X139010000Y-97470000D02*
X136850000Y-97470000D01*
X139010000Y-97470000D02*
X139010000Y-98400000D01*
X139010000Y-100630000D02*
X139010000Y-99700000D01*
X158640000Y-114020000D02*
X158640000Y-114950000D01*
X158640000Y-117180000D02*
X158640000Y-116250000D01*
X158640000Y-117180000D02*
X160800000Y-117180000D01*
X158640000Y-114020000D02*
X160100000Y-114020000D01*
X139360000Y-93080000D02*
X137900000Y-93080000D01*
X139360000Y-89920000D02*
X137200000Y-89920000D01*
X139360000Y-89920000D02*
X139360000Y-90850000D01*
X139360000Y-93080000D02*
X139360000Y-92150000D01*
X122560000Y-86680000D02*
X122560000Y-85750000D01*
X122560000Y-83520000D02*
X122560000Y-84450000D01*
X122560000Y-83520000D02*
X120400000Y-83520000D01*
X122560000Y-86680000D02*
X121100000Y-86680000D01*
X103840000Y-115920000D02*
X105300000Y-115920000D01*
X103840000Y-119080000D02*
X106000000Y-119080000D01*
X103840000Y-119080000D02*
X103840000Y-118150000D01*
X103840000Y-115920000D02*
X103840000Y-116850000D01*
D10*
X106683333Y-106152380D02*
X106350000Y-105676190D01*
X106111904Y-106152380D02*
X106111904Y-105152380D01*
X106492857Y-105152380D01*
X106588095Y-105200000D01*
X106635714Y-105247619D01*
X106683333Y-105342857D01*
X106683333Y-105485714D01*
X106635714Y-105580952D01*
X106588095Y-105628571D01*
X106492857Y-105676190D01*
X106111904Y-105676190D01*
X107016666Y-105152380D02*
X107635714Y-105152380D01*
X107302380Y-105533333D01*
X107445238Y-105533333D01*
X107540476Y-105580952D01*
X107588095Y-105628571D01*
X107635714Y-105723809D01*
X107635714Y-105961904D01*
X107588095Y-106057142D01*
X107540476Y-106104761D01*
X107445238Y-106152380D01*
X107159523Y-106152380D01*
X107064285Y-106104761D01*
X107016666Y-106057142D01*
D14*
X135892714Y-113180571D02*
X136509571Y-113180571D01*
X136582142Y-113144285D01*
X136618428Y-113108000D01*
X136654714Y-113035428D01*
X136654714Y-112890285D01*
X136618428Y-112817714D01*
X136582142Y-112781428D01*
X136509571Y-112745142D01*
X135892714Y-112745142D01*
X135892714Y-112454857D02*
X135892714Y-111983142D01*
X136183000Y-112237142D01*
X136183000Y-112128285D01*
X136219285Y-112055714D01*
X136255571Y-112019428D01*
X136328142Y-111983142D01*
X136509571Y-111983142D01*
X136582142Y-112019428D01*
X136618428Y-112055714D01*
X136654714Y-112128285D01*
X136654714Y-112346000D01*
X136618428Y-112418571D01*
X136582142Y-112454857D01*
D10*
X104692380Y-122433333D02*
X105406666Y-122433333D01*
X105549523Y-122480952D01*
X105644761Y-122576190D01*
X105692380Y-122719047D01*
X105692380Y-122814285D01*
X105025714Y-121528571D02*
X105692380Y-121528571D01*
X104644761Y-121766666D02*
X105359047Y-122004761D01*
X105359047Y-121385714D01*
X103961904Y-90252380D02*
X103961904Y-89252380D01*
X104200000Y-89252380D01*
X104342857Y-89300000D01*
X104438095Y-89395238D01*
X104485714Y-89490476D01*
X104533333Y-89680952D01*
X104533333Y-89823809D01*
X104485714Y-90014285D01*
X104438095Y-90109523D01*
X104342857Y-90204761D01*
X104200000Y-90252380D01*
X103961904Y-90252380D01*
X105390476Y-89585714D02*
X105390476Y-90252380D01*
X105152380Y-89204761D02*
X104914285Y-89919047D01*
X105533333Y-89919047D01*
X116307142Y-91352380D02*
X115973809Y-90876190D01*
X115735714Y-91352380D02*
X115735714Y-90352380D01*
X116116666Y-90352380D01*
X116211904Y-90400000D01*
X116259523Y-90447619D01*
X116307142Y-90542857D01*
X116307142Y-90685714D01*
X116259523Y-90780952D01*
X116211904Y-90828571D01*
X116116666Y-90876190D01*
X115735714Y-90876190D01*
X117259523Y-91352380D02*
X116688095Y-91352380D01*
X116973809Y-91352380D02*
X116973809Y-90352380D01*
X116878571Y-90495238D01*
X116783333Y-90590476D01*
X116688095Y-90638095D01*
X117878571Y-90352380D02*
X117973809Y-90352380D01*
X118069047Y-90400000D01*
X118116666Y-90447619D01*
X118164285Y-90542857D01*
X118211904Y-90733333D01*
X118211904Y-90971428D01*
X118164285Y-91161904D01*
X118116666Y-91257142D01*
X118069047Y-91304761D01*
X117973809Y-91352380D01*
X117878571Y-91352380D01*
X117783333Y-91304761D01*
X117735714Y-91257142D01*
X117688095Y-91161904D01*
X117640476Y-90971428D01*
X117640476Y-90733333D01*
X117688095Y-90542857D01*
X117735714Y-90447619D01*
X117783333Y-90400000D01*
X117878571Y-90352380D01*
X103007142Y-106442857D02*
X103054761Y-106490476D01*
X103102380Y-106633333D01*
X103102380Y-106728571D01*
X103054761Y-106871428D01*
X102959523Y-106966666D01*
X102864285Y-107014285D01*
X102673809Y-107061904D01*
X102530952Y-107061904D01*
X102340476Y-107014285D01*
X102245238Y-106966666D01*
X102150000Y-106871428D01*
X102102380Y-106728571D01*
X102102380Y-106633333D01*
X102150000Y-106490476D01*
X102197619Y-106442857D01*
X103102380Y-105490476D02*
X103102380Y-106061904D01*
X103102380Y-105776190D02*
X102102380Y-105776190D01*
X102245238Y-105871428D01*
X102340476Y-105966666D01*
X102388095Y-106061904D01*
X102197619Y-105109523D02*
X102150000Y-105061904D01*
X102102380Y-104966666D01*
X102102380Y-104728571D01*
X102150000Y-104633333D01*
X102197619Y-104585714D01*
X102292857Y-104538095D01*
X102388095Y-104538095D01*
X102530952Y-104585714D01*
X103102380Y-105157142D01*
X103102380Y-104538095D01*
X122887142Y-110592857D02*
X122934761Y-110640476D01*
X122982380Y-110783333D01*
X122982380Y-110878571D01*
X122934761Y-111021428D01*
X122839523Y-111116666D01*
X122744285Y-111164285D01*
X122553809Y-111211904D01*
X122410952Y-111211904D01*
X122220476Y-111164285D01*
X122125238Y-111116666D01*
X122030000Y-111021428D01*
X121982380Y-110878571D01*
X121982380Y-110783333D01*
X122030000Y-110640476D01*
X122077619Y-110592857D01*
X122982380Y-109640476D02*
X122982380Y-110211904D01*
X122982380Y-109926190D02*
X121982380Y-109926190D01*
X122125238Y-110021428D01*
X122220476Y-110116666D01*
X122268095Y-110211904D01*
X122982380Y-108688095D02*
X122982380Y-109259523D01*
X122982380Y-108973809D02*
X121982380Y-108973809D01*
X122125238Y-109069047D01*
X122220476Y-109164285D01*
X122268095Y-109259523D01*
X132357142Y-106737142D02*
X132309523Y-106784761D01*
X132166666Y-106832380D01*
X132071428Y-106832380D01*
X131928571Y-106784761D01*
X131833333Y-106689523D01*
X131785714Y-106594285D01*
X131738095Y-106403809D01*
X131738095Y-106260952D01*
X131785714Y-106070476D01*
X131833333Y-105975238D01*
X131928571Y-105880000D01*
X132071428Y-105832380D01*
X132166666Y-105832380D01*
X132309523Y-105880000D01*
X132357142Y-105927619D01*
X133309523Y-106832380D02*
X132738095Y-106832380D01*
X133023809Y-106832380D02*
X133023809Y-105832380D01*
X132928571Y-105975238D01*
X132833333Y-106070476D01*
X132738095Y-106118095D01*
X133928571Y-105832380D02*
X134023809Y-105832380D01*
X134119047Y-105880000D01*
X134166666Y-105927619D01*
X134214285Y-106022857D01*
X134261904Y-106213333D01*
X134261904Y-106451428D01*
X134214285Y-106641904D01*
X134166666Y-106737142D01*
X134119047Y-106784761D01*
X134023809Y-106832380D01*
X133928571Y-106832380D01*
X133833333Y-106784761D01*
X133785714Y-106737142D01*
X133738095Y-106641904D01*
X133690476Y-106451428D01*
X133690476Y-106213333D01*
X133738095Y-106022857D01*
X133785714Y-105927619D01*
X133833333Y-105880000D01*
X133928571Y-105832380D01*
X123087142Y-113716666D02*
X123134761Y-113764285D01*
X123182380Y-113907142D01*
X123182380Y-114002380D01*
X123134761Y-114145238D01*
X123039523Y-114240476D01*
X122944285Y-114288095D01*
X122753809Y-114335714D01*
X122610952Y-114335714D01*
X122420476Y-114288095D01*
X122325238Y-114240476D01*
X122230000Y-114145238D01*
X122182380Y-114002380D01*
X122182380Y-113907142D01*
X122230000Y-113764285D01*
X122277619Y-113716666D01*
X123182380Y-113240476D02*
X123182380Y-113050000D01*
X123134761Y-112954761D01*
X123087142Y-112907142D01*
X122944285Y-112811904D01*
X122753809Y-112764285D01*
X122372857Y-112764285D01*
X122277619Y-112811904D01*
X122230000Y-112859523D01*
X122182380Y-112954761D01*
X122182380Y-113145238D01*
X122230000Y-113240476D01*
X122277619Y-113288095D01*
X122372857Y-113335714D01*
X122610952Y-113335714D01*
X122706190Y-113288095D01*
X122753809Y-113240476D01*
X122801428Y-113145238D01*
X122801428Y-112954761D01*
X122753809Y-112859523D01*
X122706190Y-112811904D01*
X122610952Y-112764285D01*
X161887142Y-89716666D02*
X161934761Y-89764285D01*
X161982380Y-89907142D01*
X161982380Y-90002380D01*
X161934761Y-90145238D01*
X161839523Y-90240476D01*
X161744285Y-90288095D01*
X161553809Y-90335714D01*
X161410952Y-90335714D01*
X161220476Y-90288095D01*
X161125238Y-90240476D01*
X161030000Y-90145238D01*
X160982380Y-90002380D01*
X160982380Y-89907142D01*
X161030000Y-89764285D01*
X161077619Y-89716666D01*
X161410952Y-89145238D02*
X161363333Y-89240476D01*
X161315714Y-89288095D01*
X161220476Y-89335714D01*
X161172857Y-89335714D01*
X161077619Y-89288095D01*
X161030000Y-89240476D01*
X160982380Y-89145238D01*
X160982380Y-88954761D01*
X161030000Y-88859523D01*
X161077619Y-88811904D01*
X161172857Y-88764285D01*
X161220476Y-88764285D01*
X161315714Y-88811904D01*
X161363333Y-88859523D01*
X161410952Y-88954761D01*
X161410952Y-89145238D01*
X161458571Y-89240476D01*
X161506190Y-89288095D01*
X161601428Y-89335714D01*
X161791904Y-89335714D01*
X161887142Y-89288095D01*
X161934761Y-89240476D01*
X161982380Y-89145238D01*
X161982380Y-88954761D01*
X161934761Y-88859523D01*
X161887142Y-88811904D01*
X161791904Y-88764285D01*
X161601428Y-88764285D01*
X161506190Y-88811904D01*
X161458571Y-88859523D01*
X161410952Y-88954761D01*
X159387142Y-89716666D02*
X159434761Y-89764285D01*
X159482380Y-89907142D01*
X159482380Y-90002380D01*
X159434761Y-90145238D01*
X159339523Y-90240476D01*
X159244285Y-90288095D01*
X159053809Y-90335714D01*
X158910952Y-90335714D01*
X158720476Y-90288095D01*
X158625238Y-90240476D01*
X158530000Y-90145238D01*
X158482380Y-90002380D01*
X158482380Y-89907142D01*
X158530000Y-89764285D01*
X158577619Y-89716666D01*
X158482380Y-89383333D02*
X158482380Y-88716666D01*
X159482380Y-89145238D01*
X113057142Y-101116666D02*
X113104761Y-101164285D01*
X113152380Y-101307142D01*
X113152380Y-101402380D01*
X113104761Y-101545238D01*
X113009523Y-101640476D01*
X112914285Y-101688095D01*
X112723809Y-101735714D01*
X112580952Y-101735714D01*
X112390476Y-101688095D01*
X112295238Y-101640476D01*
X112200000Y-101545238D01*
X112152380Y-101402380D01*
X112152380Y-101307142D01*
X112200000Y-101164285D01*
X112247619Y-101116666D01*
X112152380Y-100259523D02*
X112152380Y-100450000D01*
X112200000Y-100545238D01*
X112247619Y-100592857D01*
X112390476Y-100688095D01*
X112580952Y-100735714D01*
X112961904Y-100735714D01*
X113057142Y-100688095D01*
X113104761Y-100640476D01*
X113152380Y-100545238D01*
X113152380Y-100354761D01*
X113104761Y-100259523D01*
X113057142Y-100211904D01*
X112961904Y-100164285D01*
X112723809Y-100164285D01*
X112628571Y-100211904D01*
X112580952Y-100259523D01*
X112533333Y-100354761D01*
X112533333Y-100545238D01*
X112580952Y-100640476D01*
X112628571Y-100688095D01*
X112723809Y-100735714D01*
X114557142Y-101116666D02*
X114604761Y-101164285D01*
X114652380Y-101307142D01*
X114652380Y-101402380D01*
X114604761Y-101545238D01*
X114509523Y-101640476D01*
X114414285Y-101688095D01*
X114223809Y-101735714D01*
X114080952Y-101735714D01*
X113890476Y-101688095D01*
X113795238Y-101640476D01*
X113700000Y-101545238D01*
X113652380Y-101402380D01*
X113652380Y-101307142D01*
X113700000Y-101164285D01*
X113747619Y-101116666D01*
X113652380Y-100211904D02*
X113652380Y-100688095D01*
X114128571Y-100735714D01*
X114080952Y-100688095D01*
X114033333Y-100592857D01*
X114033333Y-100354761D01*
X114080952Y-100259523D01*
X114128571Y-100211904D01*
X114223809Y-100164285D01*
X114461904Y-100164285D01*
X114557142Y-100211904D01*
X114604761Y-100259523D01*
X114652380Y-100354761D01*
X114652380Y-100592857D01*
X114604761Y-100688095D01*
X114557142Y-100735714D01*
X111457142Y-101116666D02*
X111504761Y-101164285D01*
X111552380Y-101307142D01*
X111552380Y-101402380D01*
X111504761Y-101545238D01*
X111409523Y-101640476D01*
X111314285Y-101688095D01*
X111123809Y-101735714D01*
X110980952Y-101735714D01*
X110790476Y-101688095D01*
X110695238Y-101640476D01*
X110600000Y-101545238D01*
X110552380Y-101402380D01*
X110552380Y-101307142D01*
X110600000Y-101164285D01*
X110647619Y-101116666D01*
X110885714Y-100259523D02*
X111552380Y-100259523D01*
X110504761Y-100497619D02*
X111219047Y-100735714D01*
X111219047Y-100116666D01*
X109857142Y-101116666D02*
X109904761Y-101164285D01*
X109952380Y-101307142D01*
X109952380Y-101402380D01*
X109904761Y-101545238D01*
X109809523Y-101640476D01*
X109714285Y-101688095D01*
X109523809Y-101735714D01*
X109380952Y-101735714D01*
X109190476Y-101688095D01*
X109095238Y-101640476D01*
X109000000Y-101545238D01*
X108952380Y-101402380D01*
X108952380Y-101307142D01*
X109000000Y-101164285D01*
X109047619Y-101116666D01*
X108952380Y-100783333D02*
X108952380Y-100164285D01*
X109333333Y-100497619D01*
X109333333Y-100354761D01*
X109380952Y-100259523D01*
X109428571Y-100211904D01*
X109523809Y-100164285D01*
X109761904Y-100164285D01*
X109857142Y-100211904D01*
X109904761Y-100259523D01*
X109952380Y-100354761D01*
X109952380Y-100640476D01*
X109904761Y-100735714D01*
X109857142Y-100783333D01*
X116683333Y-87157142D02*
X116635714Y-87204761D01*
X116492857Y-87252380D01*
X116397619Y-87252380D01*
X116254761Y-87204761D01*
X116159523Y-87109523D01*
X116111904Y-87014285D01*
X116064285Y-86823809D01*
X116064285Y-86680952D01*
X116111904Y-86490476D01*
X116159523Y-86395238D01*
X116254761Y-86300000D01*
X116397619Y-86252380D01*
X116492857Y-86252380D01*
X116635714Y-86300000D01*
X116683333Y-86347619D01*
X117064285Y-86347619D02*
X117111904Y-86300000D01*
X117207142Y-86252380D01*
X117445238Y-86252380D01*
X117540476Y-86300000D01*
X117588095Y-86347619D01*
X117635714Y-86442857D01*
X117635714Y-86538095D01*
X117588095Y-86680952D01*
X117016666Y-87252380D01*
X117635714Y-87252380D01*
X116307142Y-101016666D02*
X116354761Y-101064285D01*
X116402380Y-101207142D01*
X116402380Y-101302380D01*
X116354761Y-101445238D01*
X116259523Y-101540476D01*
X116164285Y-101588095D01*
X115973809Y-101635714D01*
X115830952Y-101635714D01*
X115640476Y-101588095D01*
X115545238Y-101540476D01*
X115450000Y-101445238D01*
X115402380Y-101302380D01*
X115402380Y-101207142D01*
X115450000Y-101064285D01*
X115497619Y-101016666D01*
X116402380Y-100064285D02*
X116402380Y-100635714D01*
X116402380Y-100350000D02*
X115402380Y-100350000D01*
X115545238Y-100445238D01*
X115640476Y-100540476D01*
X115688095Y-100635714D01*
X100442380Y-95833333D02*
X101156666Y-95833333D01*
X101299523Y-95880952D01*
X101394761Y-95976190D01*
X101442380Y-96119047D01*
X101442380Y-96214285D01*
X101442380Y-94833333D02*
X101442380Y-95404761D01*
X101442380Y-95119047D02*
X100442380Y-95119047D01*
X100585238Y-95214285D01*
X100680476Y-95309523D01*
X100728095Y-95404761D01*
X104411904Y-97352380D02*
X104411904Y-96352380D01*
X104650000Y-96352380D01*
X104792857Y-96400000D01*
X104888095Y-96495238D01*
X104935714Y-96590476D01*
X104983333Y-96780952D01*
X104983333Y-96923809D01*
X104935714Y-97114285D01*
X104888095Y-97209523D01*
X104792857Y-97304761D01*
X104650000Y-97352380D01*
X104411904Y-97352380D01*
X105935714Y-97352380D02*
X105364285Y-97352380D01*
X105650000Y-97352380D02*
X105650000Y-96352380D01*
X105554761Y-96495238D01*
X105459523Y-96590476D01*
X105364285Y-96638095D01*
X106811904Y-100502380D02*
X106811904Y-99502380D01*
X107050000Y-99502380D01*
X107192857Y-99550000D01*
X107288095Y-99645238D01*
X107335714Y-99740476D01*
X107383333Y-99930952D01*
X107383333Y-100073809D01*
X107335714Y-100264285D01*
X107288095Y-100359523D01*
X107192857Y-100454761D01*
X107050000Y-100502380D01*
X106811904Y-100502380D01*
X107764285Y-99597619D02*
X107811904Y-99550000D01*
X107907142Y-99502380D01*
X108145238Y-99502380D01*
X108240476Y-99550000D01*
X108288095Y-99597619D01*
X108335714Y-99692857D01*
X108335714Y-99788095D01*
X108288095Y-99930952D01*
X107716666Y-100502380D01*
X108335714Y-100502380D01*
X104611904Y-103302380D02*
X104611904Y-102302380D01*
X104850000Y-102302380D01*
X104992857Y-102350000D01*
X105088095Y-102445238D01*
X105135714Y-102540476D01*
X105183333Y-102730952D01*
X105183333Y-102873809D01*
X105135714Y-103064285D01*
X105088095Y-103159523D01*
X104992857Y-103254761D01*
X104850000Y-103302380D01*
X104611904Y-103302380D01*
X105516666Y-102302380D02*
X106135714Y-102302380D01*
X105802380Y-102683333D01*
X105945238Y-102683333D01*
X106040476Y-102730952D01*
X106088095Y-102778571D01*
X106135714Y-102873809D01*
X106135714Y-103111904D01*
X106088095Y-103207142D01*
X106040476Y-103254761D01*
X105945238Y-103302380D01*
X105659523Y-103302380D01*
X105564285Y-103254761D01*
X105516666Y-103207142D01*
X102952380Y-84238095D02*
X101952380Y-84238095D01*
X101952380Y-84000000D01*
X102000000Y-83857142D01*
X102095238Y-83761904D01*
X102190476Y-83714285D01*
X102380952Y-83666666D01*
X102523809Y-83666666D01*
X102714285Y-83714285D01*
X102809523Y-83761904D01*
X102904761Y-83857142D01*
X102952380Y-84000000D01*
X102952380Y-84238095D01*
X101952380Y-82809523D02*
X101952380Y-83000000D01*
X102000000Y-83095238D01*
X102047619Y-83142857D01*
X102190476Y-83238095D01*
X102380952Y-83285714D01*
X102761904Y-83285714D01*
X102857142Y-83238095D01*
X102904761Y-83190476D01*
X102952380Y-83095238D01*
X102952380Y-82904761D01*
X102904761Y-82809523D01*
X102857142Y-82761904D01*
X102761904Y-82714285D01*
X102523809Y-82714285D01*
X102428571Y-82761904D01*
X102380952Y-82809523D01*
X102333333Y-82904761D01*
X102333333Y-83095238D01*
X102380952Y-83190476D01*
X102428571Y-83238095D01*
X102523809Y-83285714D01*
X153211904Y-116502380D02*
X153211904Y-115502380D01*
X153450000Y-115502380D01*
X153592857Y-115550000D01*
X153688095Y-115645238D01*
X153735714Y-115740476D01*
X153783333Y-115930952D01*
X153783333Y-116073809D01*
X153735714Y-116264285D01*
X153688095Y-116359523D01*
X153592857Y-116454761D01*
X153450000Y-116502380D01*
X153211904Y-116502380D01*
X154116666Y-115502380D02*
X154783333Y-115502380D01*
X154354761Y-116502380D01*
X104011904Y-93802380D02*
X104011904Y-92802380D01*
X104250000Y-92802380D01*
X104392857Y-92850000D01*
X104488095Y-92945238D01*
X104535714Y-93040476D01*
X104583333Y-93230952D01*
X104583333Y-93373809D01*
X104535714Y-93564285D01*
X104488095Y-93659523D01*
X104392857Y-93754761D01*
X104250000Y-93802380D01*
X104011904Y-93802380D01*
X105488095Y-92802380D02*
X105011904Y-92802380D01*
X104964285Y-93278571D01*
X105011904Y-93230952D01*
X105107142Y-93183333D01*
X105345238Y-93183333D01*
X105440476Y-93230952D01*
X105488095Y-93278571D01*
X105535714Y-93373809D01*
X105535714Y-93611904D01*
X105488095Y-93707142D01*
X105440476Y-93754761D01*
X105345238Y-93802380D01*
X105107142Y-93802380D01*
X105011904Y-93754761D01*
X104964285Y-93707142D01*
X131803095Y-98852380D02*
X131803095Y-99661904D01*
X131850714Y-99757142D01*
X131898333Y-99804761D01*
X131993571Y-99852380D01*
X132184047Y-99852380D01*
X132279285Y-99804761D01*
X132326904Y-99757142D01*
X132374523Y-99661904D01*
X132374523Y-98852380D01*
X133279285Y-99185714D02*
X133279285Y-99852380D01*
X133041190Y-98804761D02*
X132803095Y-99519047D01*
X133422142Y-99519047D01*
X116450595Y-107239880D02*
X116450595Y-108049404D01*
X116498214Y-108144642D01*
X116545833Y-108192261D01*
X116641071Y-108239880D01*
X116831547Y-108239880D01*
X116926785Y-108192261D01*
X116974404Y-108144642D01*
X117022023Y-108049404D01*
X117022023Y-107239880D01*
X117450595Y-107335119D02*
X117498214Y-107287500D01*
X117593452Y-107239880D01*
X117831547Y-107239880D01*
X117926785Y-107287500D01*
X117974404Y-107335119D01*
X118022023Y-107430357D01*
X118022023Y-107525595D01*
X117974404Y-107668452D01*
X117402976Y-108239880D01*
X118022023Y-108239880D01*
X162102380Y-103311904D02*
X162911904Y-103311904D01*
X163007142Y-103264285D01*
X163054761Y-103216666D01*
X163102380Y-103121428D01*
X163102380Y-102930952D01*
X163054761Y-102835714D01*
X163007142Y-102788095D01*
X162911904Y-102740476D01*
X162102380Y-102740476D01*
X162102380Y-101788095D02*
X162102380Y-102264285D01*
X162578571Y-102311904D01*
X162530952Y-102264285D01*
X162483333Y-102169047D01*
X162483333Y-101930952D01*
X162530952Y-101835714D01*
X162578571Y-101788095D01*
X162673809Y-101740476D01*
X162911904Y-101740476D01*
X163007142Y-101788095D01*
X163054761Y-101835714D01*
X163102380Y-101930952D01*
X163102380Y-102169047D01*
X163054761Y-102264285D01*
X163007142Y-102311904D01*
X150739571Y-109436571D02*
X151072904Y-109436571D01*
X151215761Y-109960380D02*
X150739571Y-109960380D01*
X150739571Y-108960380D01*
X151215761Y-108960380D01*
X151596714Y-109912761D02*
X151691952Y-109960380D01*
X151882428Y-109960380D01*
X151977666Y-109912761D01*
X152025285Y-109817523D01*
X152025285Y-109769904D01*
X151977666Y-109674666D01*
X151882428Y-109627047D01*
X151739571Y-109627047D01*
X151644333Y-109579428D01*
X151596714Y-109484190D01*
X151596714Y-109436571D01*
X151644333Y-109341333D01*
X151739571Y-109293714D01*
X151882428Y-109293714D01*
X151977666Y-109341333D01*
X152453857Y-109293714D02*
X152453857Y-110293714D01*
X152453857Y-109341333D02*
X152549095Y-109293714D01*
X152739571Y-109293714D01*
X152834809Y-109341333D01*
X152882428Y-109388952D01*
X152930047Y-109484190D01*
X152930047Y-109769904D01*
X152882428Y-109865142D01*
X152834809Y-109912761D01*
X152739571Y-109960380D01*
X152549095Y-109960380D01*
X152453857Y-109912761D01*
X153358619Y-109960380D02*
X153358619Y-109293714D01*
X153358619Y-109484190D02*
X153406238Y-109388952D01*
X153453857Y-109341333D01*
X153549095Y-109293714D01*
X153644333Y-109293714D01*
X154358619Y-109912761D02*
X154263380Y-109960380D01*
X154072904Y-109960380D01*
X153977666Y-109912761D01*
X153930047Y-109817523D01*
X153930047Y-109436571D01*
X153977666Y-109341333D01*
X154072904Y-109293714D01*
X154263380Y-109293714D01*
X154358619Y-109341333D01*
X154406238Y-109436571D01*
X154406238Y-109531809D01*
X153930047Y-109627047D01*
X154787190Y-109912761D02*
X154882428Y-109960380D01*
X155072904Y-109960380D01*
X155168142Y-109912761D01*
X155215761Y-109817523D01*
X155215761Y-109769904D01*
X155168142Y-109674666D01*
X155072904Y-109627047D01*
X154930047Y-109627047D01*
X154834809Y-109579428D01*
X154787190Y-109484190D01*
X154787190Y-109436571D01*
X154834809Y-109341333D01*
X154930047Y-109293714D01*
X155072904Y-109293714D01*
X155168142Y-109341333D01*
X155596714Y-109912761D02*
X155691952Y-109960380D01*
X155882428Y-109960380D01*
X155977666Y-109912761D01*
X156025285Y-109817523D01*
X156025285Y-109769904D01*
X155977666Y-109674666D01*
X155882428Y-109627047D01*
X155739571Y-109627047D01*
X155644333Y-109579428D01*
X155596714Y-109484190D01*
X155596714Y-109436571D01*
X155644333Y-109341333D01*
X155739571Y-109293714D01*
X155882428Y-109293714D01*
X155977666Y-109341333D01*
X156453857Y-109960380D02*
X156453857Y-109293714D01*
X156453857Y-108960380D02*
X156406238Y-109008000D01*
X156453857Y-109055619D01*
X156501476Y-109008000D01*
X156453857Y-108960380D01*
X156453857Y-109055619D01*
X156787190Y-109293714D02*
X157168142Y-109293714D01*
X156930047Y-109960380D02*
X156930047Y-109103238D01*
X156977666Y-109008000D01*
X157072904Y-108960380D01*
X157168142Y-108960380D01*
X158215761Y-109912761D02*
X158358619Y-109960380D01*
X158596714Y-109960380D01*
X158691952Y-109912761D01*
X158739571Y-109865142D01*
X158787190Y-109769904D01*
X158787190Y-109674666D01*
X158739571Y-109579428D01*
X158691952Y-109531809D01*
X158596714Y-109484190D01*
X158406238Y-109436571D01*
X158311000Y-109388952D01*
X158263380Y-109341333D01*
X158215761Y-109246095D01*
X158215761Y-109150857D01*
X158263380Y-109055619D01*
X158311000Y-109008000D01*
X158406238Y-108960380D01*
X158644333Y-108960380D01*
X158787190Y-109008000D01*
X159120523Y-109293714D02*
X159358619Y-109960380D01*
X159596714Y-109293714D02*
X159358619Y-109960380D01*
X159263380Y-110198476D01*
X159215761Y-110246095D01*
X159120523Y-110293714D01*
X159930047Y-109912761D02*
X160025285Y-109960380D01*
X160215761Y-109960380D01*
X160311000Y-109912761D01*
X160358619Y-109817523D01*
X160358619Y-109769904D01*
X160311000Y-109674666D01*
X160215761Y-109627047D01*
X160072904Y-109627047D01*
X159977666Y-109579428D01*
X159930047Y-109484190D01*
X159930047Y-109436571D01*
X159977666Y-109341333D01*
X160072904Y-109293714D01*
X160215761Y-109293714D01*
X160311000Y-109341333D01*
X160644333Y-109293714D02*
X161025285Y-109293714D01*
X160787190Y-108960380D02*
X160787190Y-109817523D01*
X160834809Y-109912761D01*
X160930047Y-109960380D01*
X161025285Y-109960380D01*
X161739571Y-109912761D02*
X161644333Y-109960380D01*
X161453857Y-109960380D01*
X161358619Y-109912761D01*
X161311000Y-109817523D01*
X161311000Y-109436571D01*
X161358619Y-109341333D01*
X161453857Y-109293714D01*
X161644333Y-109293714D01*
X161739571Y-109341333D01*
X161787190Y-109436571D01*
X161787190Y-109531809D01*
X161311000Y-109627047D01*
X162215761Y-109960380D02*
X162215761Y-109293714D01*
X162215761Y-109388952D02*
X162263380Y-109341333D01*
X162358619Y-109293714D01*
X162501476Y-109293714D01*
X162596714Y-109341333D01*
X162644333Y-109436571D01*
X162644333Y-109960380D01*
X162644333Y-109436571D02*
X162691952Y-109341333D01*
X162787190Y-109293714D01*
X162930047Y-109293714D01*
X163025285Y-109341333D01*
X163072904Y-109436571D01*
X163072904Y-109960380D01*
X163501476Y-109912761D02*
X163596714Y-109960380D01*
X163787190Y-109960380D01*
X163882428Y-109912761D01*
X163930047Y-109817523D01*
X163930047Y-109769904D01*
X163882428Y-109674666D01*
X163787190Y-109627047D01*
X163644333Y-109627047D01*
X163549095Y-109579428D01*
X163501476Y-109484190D01*
X163501476Y-109436571D01*
X163549095Y-109341333D01*
X163644333Y-109293714D01*
X163787190Y-109293714D01*
X163882428Y-109341333D01*
X153001619Y-107785571D02*
X153334952Y-107785571D01*
X153477809Y-108309380D02*
X153001619Y-108309380D01*
X153001619Y-107309380D01*
X153477809Y-107309380D01*
X153858761Y-108261761D02*
X154001619Y-108309380D01*
X154239714Y-108309380D01*
X154334952Y-108261761D01*
X154382571Y-108214142D01*
X154430190Y-108118904D01*
X154430190Y-108023666D01*
X154382571Y-107928428D01*
X154334952Y-107880809D01*
X154239714Y-107833190D01*
X154049238Y-107785571D01*
X153954000Y-107737952D01*
X153906380Y-107690333D01*
X153858761Y-107595095D01*
X153858761Y-107499857D01*
X153906380Y-107404619D01*
X153954000Y-107357000D01*
X154049238Y-107309380D01*
X154287333Y-107309380D01*
X154430190Y-107357000D01*
X154858761Y-108309380D02*
X154858761Y-107309380D01*
X155239714Y-107309380D01*
X155334952Y-107357000D01*
X155382571Y-107404619D01*
X155430190Y-107499857D01*
X155430190Y-107642714D01*
X155382571Y-107737952D01*
X155334952Y-107785571D01*
X155239714Y-107833190D01*
X154858761Y-107833190D01*
X155763523Y-107309380D02*
X156382571Y-107309380D01*
X156049238Y-107690333D01*
X156192095Y-107690333D01*
X156287333Y-107737952D01*
X156334952Y-107785571D01*
X156382571Y-107880809D01*
X156382571Y-108118904D01*
X156334952Y-108214142D01*
X156287333Y-108261761D01*
X156192095Y-108309380D01*
X155906380Y-108309380D01*
X155811142Y-108261761D01*
X155763523Y-108214142D01*
X156763523Y-107404619D02*
X156811142Y-107357000D01*
X156906380Y-107309380D01*
X157144476Y-107309380D01*
X157239714Y-107357000D01*
X157287333Y-107404619D01*
X157334952Y-107499857D01*
X157334952Y-107595095D01*
X157287333Y-107737952D01*
X156715904Y-108309380D01*
X157334952Y-108309380D01*
X157763523Y-107928428D02*
X158525428Y-107928428D01*
X158906380Y-107309380D02*
X159144476Y-108309380D01*
X159334952Y-107595095D01*
X159525428Y-108309380D01*
X159763523Y-107309380D01*
X160715904Y-108309380D02*
X160382571Y-107833190D01*
X160144476Y-108309380D02*
X160144476Y-107309380D01*
X160525428Y-107309380D01*
X160620666Y-107357000D01*
X160668285Y-107404619D01*
X160715904Y-107499857D01*
X160715904Y-107642714D01*
X160668285Y-107737952D01*
X160620666Y-107785571D01*
X160525428Y-107833190D01*
X160144476Y-107833190D01*
X161334952Y-107309380D02*
X161525428Y-107309380D01*
X161620666Y-107357000D01*
X161715904Y-107452238D01*
X161763523Y-107642714D01*
X161763523Y-107976047D01*
X161715904Y-108166523D01*
X161620666Y-108261761D01*
X161525428Y-108309380D01*
X161334952Y-108309380D01*
X161239714Y-108261761D01*
X161144476Y-108166523D01*
X161096857Y-107976047D01*
X161096857Y-107642714D01*
X161144476Y-107452238D01*
X161239714Y-107357000D01*
X161334952Y-107309380D01*
X162382571Y-107309380D02*
X162573047Y-107309380D01*
X162668285Y-107357000D01*
X162763523Y-107452238D01*
X162811142Y-107642714D01*
X162811142Y-107976047D01*
X162763523Y-108166523D01*
X162668285Y-108261761D01*
X162573047Y-108309380D01*
X162382571Y-108309380D01*
X162287333Y-108261761D01*
X162192095Y-108166523D01*
X162144476Y-107976047D01*
X162144476Y-107642714D01*
X162192095Y-107452238D01*
X162287333Y-107357000D01*
X162382571Y-107309380D01*
X163239714Y-108309380D02*
X163239714Y-107309380D01*
X163573047Y-108023666D01*
X163906380Y-107309380D01*
X163906380Y-108309380D01*
X97804761Y-111887333D02*
X97852380Y-111744476D01*
X97852380Y-111506380D01*
X97804761Y-111411142D01*
X97757142Y-111363523D01*
X97661904Y-111315904D01*
X97566666Y-111315904D01*
X97471428Y-111363523D01*
X97423809Y-111411142D01*
X97376190Y-111506380D01*
X97328571Y-111696857D01*
X97280952Y-111792095D01*
X97233333Y-111839714D01*
X97138095Y-111887333D01*
X97042857Y-111887333D01*
X96947619Y-111839714D01*
X96900000Y-111792095D01*
X96852380Y-111696857D01*
X96852380Y-111458761D01*
X96900000Y-111315904D01*
X96852380Y-110982571D02*
X97852380Y-110744476D01*
X97138095Y-110554000D01*
X97852380Y-110363523D01*
X96852380Y-110125428D01*
X97852380Y-109220666D02*
X97852380Y-109792095D01*
X97852380Y-109506380D02*
X96852380Y-109506380D01*
X96995238Y-109601619D01*
X97090476Y-109696857D01*
X97138095Y-109792095D01*
X104742380Y-83833333D02*
X105456666Y-83833333D01*
X105599523Y-83880952D01*
X105694761Y-83976190D01*
X105742380Y-84119047D01*
X105742380Y-84214285D01*
X104742380Y-82880952D02*
X104742380Y-83357142D01*
X105218571Y-83404761D01*
X105170952Y-83357142D01*
X105123333Y-83261904D01*
X105123333Y-83023809D01*
X105170952Y-82928571D01*
X105218571Y-82880952D01*
X105313809Y-82833333D01*
X105551904Y-82833333D01*
X105647142Y-82880952D01*
X105694761Y-82928571D01*
X105742380Y-83023809D01*
X105742380Y-83261904D01*
X105694761Y-83357142D01*
X105647142Y-83404761D01*
X124422380Y-122383333D02*
X125136666Y-122383333D01*
X125279523Y-122430952D01*
X125374761Y-122526190D01*
X125422380Y-122669047D01*
X125422380Y-122764285D01*
X124422380Y-122002380D02*
X124422380Y-121383333D01*
X124803333Y-121716666D01*
X124803333Y-121573809D01*
X124850952Y-121478571D01*
X124898571Y-121430952D01*
X124993809Y-121383333D01*
X125231904Y-121383333D01*
X125327142Y-121430952D01*
X125374761Y-121478571D01*
X125422380Y-121573809D01*
X125422380Y-121859523D01*
X125374761Y-121954761D01*
X125327142Y-122002380D01*
X124332380Y-83833333D02*
X125046666Y-83833333D01*
X125189523Y-83880952D01*
X125284761Y-83976190D01*
X125332380Y-84119047D01*
X125332380Y-84214285D01*
X124427619Y-83404761D02*
X124380000Y-83357142D01*
X124332380Y-83261904D01*
X124332380Y-83023809D01*
X124380000Y-82928571D01*
X124427619Y-82880952D01*
X124522857Y-82833333D01*
X124618095Y-82833333D01*
X124760952Y-82880952D01*
X125332380Y-83452380D01*
X125332380Y-82833333D01*
X116557142Y-84502380D02*
X116223809Y-84026190D01*
X115985714Y-84502380D02*
X115985714Y-83502380D01*
X116366666Y-83502380D01*
X116461904Y-83550000D01*
X116509523Y-83597619D01*
X116557142Y-83692857D01*
X116557142Y-83835714D01*
X116509523Y-83930952D01*
X116461904Y-83978571D01*
X116366666Y-84026190D01*
X115985714Y-84026190D01*
X117509523Y-84502380D02*
X116938095Y-84502380D01*
X117223809Y-84502380D02*
X117223809Y-83502380D01*
X117128571Y-83645238D01*
X117033333Y-83740476D01*
X116938095Y-83788095D01*
X117890476Y-83597619D02*
X117938095Y-83550000D01*
X118033333Y-83502380D01*
X118271428Y-83502380D01*
X118366666Y-83550000D01*
X118414285Y-83597619D01*
X118461904Y-83692857D01*
X118461904Y-83788095D01*
X118414285Y-83930952D01*
X117842857Y-84502380D01*
X118461904Y-84502380D01*
X103152380Y-114342857D02*
X102676190Y-114676190D01*
X103152380Y-114914285D02*
X102152380Y-114914285D01*
X102152380Y-114533333D01*
X102200000Y-114438095D01*
X102247619Y-114390476D01*
X102342857Y-114342857D01*
X102485714Y-114342857D01*
X102580952Y-114390476D01*
X102628571Y-114438095D01*
X102676190Y-114533333D01*
X102676190Y-114914285D01*
X103152380Y-113390476D02*
X103152380Y-113961904D01*
X103152380Y-113676190D02*
X102152380Y-113676190D01*
X102295238Y-113771428D01*
X102390476Y-113866666D01*
X102438095Y-113961904D01*
X102152380Y-112485714D02*
X102152380Y-112961904D01*
X102628571Y-113009523D01*
X102580952Y-112961904D01*
X102533333Y-112866666D01*
X102533333Y-112628571D01*
X102580952Y-112533333D01*
X102628571Y-112485714D01*
X102723809Y-112438095D01*
X102961904Y-112438095D01*
X103057142Y-112485714D01*
X103104761Y-112533333D01*
X103152380Y-112628571D01*
X103152380Y-112866666D01*
X103104761Y-112961904D01*
X103057142Y-113009523D01*
X130552380Y-117392857D02*
X130076190Y-117726190D01*
X130552380Y-117964285D02*
X129552380Y-117964285D01*
X129552380Y-117583333D01*
X129600000Y-117488095D01*
X129647619Y-117440476D01*
X129742857Y-117392857D01*
X129885714Y-117392857D01*
X129980952Y-117440476D01*
X130028571Y-117488095D01*
X130076190Y-117583333D01*
X130076190Y-117964285D01*
X130552380Y-116440476D02*
X130552380Y-117011904D01*
X130552380Y-116726190D02*
X129552380Y-116726190D01*
X129695238Y-116821428D01*
X129790476Y-116916666D01*
X129838095Y-117011904D01*
X129885714Y-115583333D02*
X130552380Y-115583333D01*
X129504761Y-115821428D02*
X130219047Y-116059523D01*
X130219047Y-115440476D01*
X131933333Y-94302380D02*
X131600000Y-93826190D01*
X131361904Y-94302380D02*
X131361904Y-93302380D01*
X131742857Y-93302380D01*
X131838095Y-93350000D01*
X131885714Y-93397619D01*
X131933333Y-93492857D01*
X131933333Y-93635714D01*
X131885714Y-93730952D01*
X131838095Y-93778571D01*
X131742857Y-93826190D01*
X131361904Y-93826190D01*
X132885714Y-94302380D02*
X132314285Y-94302380D01*
X132600000Y-94302380D02*
X132600000Y-93302380D01*
X132504761Y-93445238D01*
X132409523Y-93540476D01*
X132314285Y-93588095D01*
X131883333Y-95752380D02*
X131550000Y-95276190D01*
X131311904Y-95752380D02*
X131311904Y-94752380D01*
X131692857Y-94752380D01*
X131788095Y-94800000D01*
X131835714Y-94847619D01*
X131883333Y-94942857D01*
X131883333Y-95085714D01*
X131835714Y-95180952D01*
X131788095Y-95228571D01*
X131692857Y-95276190D01*
X131311904Y-95276190D01*
X132264285Y-94847619D02*
X132311904Y-94800000D01*
X132407142Y-94752380D01*
X132645238Y-94752380D01*
X132740476Y-94800000D01*
X132788095Y-94847619D01*
X132835714Y-94942857D01*
X132835714Y-95038095D01*
X132788095Y-95180952D01*
X132216666Y-95752380D01*
X132835714Y-95752380D01*
X106683333Y-110402380D02*
X106350000Y-109926190D01*
X106111904Y-110402380D02*
X106111904Y-109402380D01*
X106492857Y-109402380D01*
X106588095Y-109450000D01*
X106635714Y-109497619D01*
X106683333Y-109592857D01*
X106683333Y-109735714D01*
X106635714Y-109830952D01*
X106588095Y-109878571D01*
X106492857Y-109926190D01*
X106111904Y-109926190D01*
X107540476Y-109735714D02*
X107540476Y-110402380D01*
X107302380Y-109354761D02*
X107064285Y-110069047D01*
X107683333Y-110069047D01*
X102952380Y-86466666D02*
X102476190Y-86800000D01*
X102952380Y-87038095D02*
X101952380Y-87038095D01*
X101952380Y-86657142D01*
X102000000Y-86561904D01*
X102047619Y-86514285D01*
X102142857Y-86466666D01*
X102285714Y-86466666D01*
X102380952Y-86514285D01*
X102428571Y-86561904D01*
X102476190Y-86657142D01*
X102476190Y-87038095D01*
X101952380Y-85609523D02*
X101952380Y-85800000D01*
X102000000Y-85895238D01*
X102047619Y-85942857D01*
X102190476Y-86038095D01*
X102380952Y-86085714D01*
X102761904Y-86085714D01*
X102857142Y-86038095D01*
X102904761Y-85990476D01*
X102952380Y-85895238D01*
X102952380Y-85704761D01*
X102904761Y-85609523D01*
X102857142Y-85561904D01*
X102761904Y-85514285D01*
X102523809Y-85514285D01*
X102428571Y-85561904D01*
X102380952Y-85609523D01*
X102333333Y-85704761D01*
X102333333Y-85895238D01*
X102380952Y-85990476D01*
X102428571Y-86038095D01*
X102523809Y-86085714D01*
X156883333Y-119302380D02*
X156550000Y-118826190D01*
X156311904Y-119302380D02*
X156311904Y-118302380D01*
X156692857Y-118302380D01*
X156788095Y-118350000D01*
X156835714Y-118397619D01*
X156883333Y-118492857D01*
X156883333Y-118635714D01*
X156835714Y-118730952D01*
X156788095Y-118778571D01*
X156692857Y-118826190D01*
X156311904Y-118826190D01*
X157216666Y-118302380D02*
X157883333Y-118302380D01*
X157454761Y-119302380D01*
X117033333Y-107852380D02*
X116700000Y-107376190D01*
X116461904Y-107852380D02*
X116461904Y-106852380D01*
X116842857Y-106852380D01*
X116938095Y-106900000D01*
X116985714Y-106947619D01*
X117033333Y-107042857D01*
X117033333Y-107185714D01*
X116985714Y-107280952D01*
X116938095Y-107328571D01*
X116842857Y-107376190D01*
X116461904Y-107376190D01*
X117604761Y-107280952D02*
X117509523Y-107233333D01*
X117461904Y-107185714D01*
X117414285Y-107090476D01*
X117414285Y-107042857D01*
X117461904Y-106947619D01*
X117509523Y-106900000D01*
X117604761Y-106852380D01*
X117795238Y-106852380D01*
X117890476Y-106900000D01*
X117938095Y-106947619D01*
X117985714Y-107042857D01*
X117985714Y-107090476D01*
X117938095Y-107185714D01*
X117890476Y-107233333D01*
X117795238Y-107280952D01*
X117604761Y-107280952D01*
X117509523Y-107328571D01*
X117461904Y-107376190D01*
X117414285Y-107471428D01*
X117414285Y-107661904D01*
X117461904Y-107757142D01*
X117509523Y-107804761D01*
X117604761Y-107852380D01*
X117795238Y-107852380D01*
X117890476Y-107804761D01*
X117938095Y-107757142D01*
X117985714Y-107661904D01*
X117985714Y-107471428D01*
X117938095Y-107376190D01*
X117890476Y-107328571D01*
X117795238Y-107280952D01*
X108352380Y-117816666D02*
X107876190Y-118150000D01*
X108352380Y-118388095D02*
X107352380Y-118388095D01*
X107352380Y-118007142D01*
X107400000Y-117911904D01*
X107447619Y-117864285D01*
X107542857Y-117816666D01*
X107685714Y-117816666D01*
X107780952Y-117864285D01*
X107828571Y-117911904D01*
X107876190Y-118007142D01*
X107876190Y-118388095D01*
X108352380Y-117340476D02*
X108352380Y-117150000D01*
X108304761Y-117054761D01*
X108257142Y-117007142D01*
X108114285Y-116911904D01*
X107923809Y-116864285D01*
X107542857Y-116864285D01*
X107447619Y-116911904D01*
X107400000Y-116959523D01*
X107352380Y-117054761D01*
X107352380Y-117245238D01*
X107400000Y-117340476D01*
X107447619Y-117388095D01*
X107542857Y-117435714D01*
X107780952Y-117435714D01*
X107876190Y-117388095D01*
X107923809Y-117340476D01*
X107971428Y-117245238D01*
X107971428Y-117054761D01*
X107923809Y-116959523D01*
X107876190Y-116911904D01*
X107780952Y-116864285D01*
X112652380Y-118392857D02*
X112176190Y-118726190D01*
X112652380Y-118964285D02*
X111652380Y-118964285D01*
X111652380Y-118583333D01*
X111700000Y-118488095D01*
X111747619Y-118440476D01*
X111842857Y-118392857D01*
X111985714Y-118392857D01*
X112080952Y-118440476D01*
X112128571Y-118488095D01*
X112176190Y-118583333D01*
X112176190Y-118964285D01*
X112652380Y-117440476D02*
X112652380Y-118011904D01*
X112652380Y-117726190D02*
X111652380Y-117726190D01*
X111795238Y-117821428D01*
X111890476Y-117916666D01*
X111938095Y-118011904D01*
X112652380Y-116488095D02*
X112652380Y-117059523D01*
X112652380Y-116773809D02*
X111652380Y-116773809D01*
X111795238Y-116869047D01*
X111890476Y-116964285D01*
X111938095Y-117059523D01*
X134452380Y-117292857D02*
X133976190Y-117626190D01*
X134452380Y-117864285D02*
X133452380Y-117864285D01*
X133452380Y-117483333D01*
X133500000Y-117388095D01*
X133547619Y-117340476D01*
X133642857Y-117292857D01*
X133785714Y-117292857D01*
X133880952Y-117340476D01*
X133928571Y-117388095D01*
X133976190Y-117483333D01*
X133976190Y-117864285D01*
X134452380Y-116340476D02*
X134452380Y-116911904D01*
X134452380Y-116626190D02*
X133452380Y-116626190D01*
X133595238Y-116721428D01*
X133690476Y-116816666D01*
X133738095Y-116911904D01*
X133452380Y-116007142D02*
X133452380Y-115388095D01*
X133833333Y-115721428D01*
X133833333Y-115578571D01*
X133880952Y-115483333D01*
X133928571Y-115435714D01*
X134023809Y-115388095D01*
X134261904Y-115388095D01*
X134357142Y-115435714D01*
X134404761Y-115483333D01*
X134452380Y-115578571D01*
X134452380Y-115864285D01*
X134404761Y-115959523D01*
X134357142Y-116007142D01*
X162352380Y-115866666D02*
X161876190Y-116200000D01*
X162352380Y-116438095D02*
X161352380Y-116438095D01*
X161352380Y-116057142D01*
X161400000Y-115961904D01*
X161447619Y-115914285D01*
X161542857Y-115866666D01*
X161685714Y-115866666D01*
X161780952Y-115914285D01*
X161828571Y-115961904D01*
X161876190Y-116057142D01*
X161876190Y-116438095D01*
X161352380Y-114961904D02*
X161352380Y-115438095D01*
X161828571Y-115485714D01*
X161780952Y-115438095D01*
X161733333Y-115342857D01*
X161733333Y-115104761D01*
X161780952Y-115009523D01*
X161828571Y-114961904D01*
X161923809Y-114914285D01*
X162161904Y-114914285D01*
X162257142Y-114961904D01*
X162304761Y-115009523D01*
X162352380Y-115104761D01*
X162352380Y-115342857D01*
X162304761Y-115438095D01*
X162257142Y-115485714D01*
X123738095Y-88402380D02*
X123738095Y-89211904D01*
X123785714Y-89307142D01*
X123833333Y-89354761D01*
X123928571Y-89402380D01*
X124119047Y-89402380D01*
X124214285Y-89354761D01*
X124261904Y-89307142D01*
X124309523Y-89211904D01*
X124309523Y-88402380D01*
X125309523Y-89402380D02*
X124738095Y-89402380D01*
X125023809Y-89402380D02*
X125023809Y-88402380D01*
X124928571Y-88545238D01*
X124833333Y-88640476D01*
X124738095Y-88688095D01*
X141304761Y-99647619D02*
X141209523Y-99600000D01*
X141114285Y-99504761D01*
X140971428Y-99361904D01*
X140876190Y-99314285D01*
X140780952Y-99314285D01*
X140828571Y-99552380D02*
X140733333Y-99504761D01*
X140638095Y-99409523D01*
X140590476Y-99219047D01*
X140590476Y-98885714D01*
X140638095Y-98695238D01*
X140733333Y-98600000D01*
X140828571Y-98552380D01*
X141019047Y-98552380D01*
X141114285Y-98600000D01*
X141209523Y-98695238D01*
X141257142Y-98885714D01*
X141257142Y-99219047D01*
X141209523Y-99409523D01*
X141114285Y-99504761D01*
X141019047Y-99552380D01*
X140828571Y-99552380D01*
X141638095Y-98647619D02*
X141685714Y-98600000D01*
X141780952Y-98552380D01*
X142019047Y-98552380D01*
X142114285Y-98600000D01*
X142161904Y-98647619D01*
X142209523Y-98742857D01*
X142209523Y-98838095D01*
X142161904Y-98980952D01*
X141590476Y-99552380D01*
X142209523Y-99552380D01*
X159304761Y-118647619D02*
X159209523Y-118600000D01*
X159114285Y-118504761D01*
X158971428Y-118361904D01*
X158876190Y-118314285D01*
X158780952Y-118314285D01*
X158828571Y-118552380D02*
X158733333Y-118504761D01*
X158638095Y-118409523D01*
X158590476Y-118219047D01*
X158590476Y-117885714D01*
X158638095Y-117695238D01*
X158733333Y-117600000D01*
X158828571Y-117552380D01*
X159019047Y-117552380D01*
X159114285Y-117600000D01*
X159209523Y-117695238D01*
X159257142Y-117885714D01*
X159257142Y-118219047D01*
X159209523Y-118409523D01*
X159114285Y-118504761D01*
X159019047Y-118552380D01*
X158828571Y-118552380D01*
X159590476Y-117552380D02*
X160209523Y-117552380D01*
X159876190Y-117933333D01*
X160019047Y-117933333D01*
X160114285Y-117980952D01*
X160161904Y-118028571D01*
X160209523Y-118123809D01*
X160209523Y-118361904D01*
X160161904Y-118457142D01*
X160114285Y-118504761D01*
X160019047Y-118552380D01*
X159733333Y-118552380D01*
X159638095Y-118504761D01*
X159590476Y-118457142D01*
X141754761Y-91997619D02*
X141659523Y-91950000D01*
X141564285Y-91854761D01*
X141421428Y-91711904D01*
X141326190Y-91664285D01*
X141230952Y-91664285D01*
X141278571Y-91902380D02*
X141183333Y-91854761D01*
X141088095Y-91759523D01*
X141040476Y-91569047D01*
X141040476Y-91235714D01*
X141088095Y-91045238D01*
X141183333Y-90950000D01*
X141278571Y-90902380D01*
X141469047Y-90902380D01*
X141564285Y-90950000D01*
X141659523Y-91045238D01*
X141707142Y-91235714D01*
X141707142Y-91569047D01*
X141659523Y-91759523D01*
X141564285Y-91854761D01*
X141469047Y-91902380D01*
X141278571Y-91902380D01*
X142659523Y-91902380D02*
X142088095Y-91902380D01*
X142373809Y-91902380D02*
X142373809Y-90902380D01*
X142278571Y-91045238D01*
X142183333Y-91140476D01*
X142088095Y-91188095D01*
X121704761Y-83147619D02*
X121609523Y-83100000D01*
X121514285Y-83004761D01*
X121371428Y-82861904D01*
X121276190Y-82814285D01*
X121180952Y-82814285D01*
X121228571Y-83052380D02*
X121133333Y-83004761D01*
X121038095Y-82909523D01*
X120990476Y-82719047D01*
X120990476Y-82385714D01*
X121038095Y-82195238D01*
X121133333Y-82100000D01*
X121228571Y-82052380D01*
X121419047Y-82052380D01*
X121514285Y-82100000D01*
X121609523Y-82195238D01*
X121657142Y-82385714D01*
X121657142Y-82719047D01*
X121609523Y-82909523D01*
X121514285Y-83004761D01*
X121419047Y-83052380D01*
X121228571Y-83052380D01*
X122561904Y-82052380D02*
X122085714Y-82052380D01*
X122038095Y-82528571D01*
X122085714Y-82480952D01*
X122180952Y-82433333D01*
X122419047Y-82433333D01*
X122514285Y-82480952D01*
X122561904Y-82528571D01*
X122609523Y-82623809D01*
X122609523Y-82861904D01*
X122561904Y-82957142D01*
X122514285Y-83004761D01*
X122419047Y-83052380D01*
X122180952Y-83052380D01*
X122085714Y-83004761D01*
X122038095Y-82957142D01*
X104504761Y-120547619D02*
X104409523Y-120500000D01*
X104314285Y-120404761D01*
X104171428Y-120261904D01*
X104076190Y-120214285D01*
X103980952Y-120214285D01*
X104028571Y-120452380D02*
X103933333Y-120404761D01*
X103838095Y-120309523D01*
X103790476Y-120119047D01*
X103790476Y-119785714D01*
X103838095Y-119595238D01*
X103933333Y-119500000D01*
X104028571Y-119452380D01*
X104219047Y-119452380D01*
X104314285Y-119500000D01*
X104409523Y-119595238D01*
X104457142Y-119785714D01*
X104457142Y-120119047D01*
X104409523Y-120309523D01*
X104314285Y-120404761D01*
X104219047Y-120452380D01*
X104028571Y-120452380D01*
X105314285Y-119785714D02*
X105314285Y-120452380D01*
X105076190Y-119404761D02*
X104838095Y-120119047D01*
X105457142Y-120119047D01*
M02*
