G04 #@! TF.GenerationSoftware,KiCad,Pcbnew,5.0.0-rc2-dev-unknown-9e8bcbe~62~ubuntu16.04.1*
G04 #@! TF.CreationDate,2018-03-17T21:54:01+01:00*
G04 #@! TF.ProjectId,GhostESP32,47686F737445535033322E6B69636164,rev?*
G04 #@! TF.SameCoordinates,Original*
G04 #@! TF.FileFunction,Profile,NP*
%FSLAX46Y46*%
G04 Gerber Fmt 4.6, Leading zero omitted, Abs format (unit mm)*
G04 Created by KiCad (PCBNEW 5.0.0-rc2-dev-unknown-9e8bcbe~62~ubuntu16.04.1) date Sat Mar 17 21:54:01 2018*
%MOMM*%
%LPD*%
G01*
G04 APERTURE LIST*
%ADD10C,0.200000*%
G04 APERTURE END LIST*
D10*
X161012300Y-83921800D02*
X161324400Y-83952600D01*
X99012280Y-124521800D02*
X161012300Y-124521800D01*
X162490500Y-84909500D02*
X162581500Y-85209700D01*
X162581500Y-120209670D02*
X162612300Y-120521800D01*
X162490500Y-119909510D02*
X162581500Y-120209670D01*
X99901200Y-121852150D02*
X99624590Y-122000010D01*
X100581540Y-120833950D02*
X100490500Y-121134100D01*
X163234600Y-123847682D02*
X163840700Y-123350230D01*
X161324400Y-83952600D02*
X161624600Y-84043600D01*
X100143660Y-119390440D02*
X100342640Y-119632900D01*
X159681900Y-121410720D02*
X159534100Y-121134100D01*
X160123400Y-84191500D02*
X160400000Y-84043600D01*
X159443000Y-85209700D02*
X159534100Y-84909500D01*
X96183870Y-82693400D02*
X95686418Y-83299500D01*
X163234600Y-82195900D02*
X162543000Y-81826300D01*
X98400000Y-122000010D02*
X98123380Y-121852150D01*
X97880920Y-119390440D02*
X98123380Y-119191460D01*
X95089158Y-84741500D02*
X95012300Y-85521800D01*
X97443040Y-120209670D02*
X97534090Y-119909510D01*
X162543000Y-81826300D02*
X161792600Y-81598700D01*
X165012300Y-85521800D02*
X164935400Y-84741500D01*
X97880920Y-86653200D02*
X97681950Y-86410700D01*
X100143660Y-121653180D02*
X99901200Y-121852150D01*
X164707800Y-83991100D02*
X164338200Y-83299500D01*
X159880900Y-121653180D02*
X159681900Y-121410720D01*
X100612290Y-120521800D02*
X100581540Y-120833950D01*
X162143700Y-86653200D02*
X161901200Y-86852200D01*
X97534090Y-121134100D02*
X97443040Y-120833950D01*
X99624590Y-119043600D02*
X99901200Y-119191460D01*
X100342640Y-121410720D02*
X100143660Y-121653180D01*
X98700150Y-122091060D02*
X98400000Y-122000010D01*
X161624600Y-84043600D02*
X161901200Y-84191500D01*
X95012300Y-85521800D02*
X95012300Y-120521800D01*
X100490500Y-84909500D02*
X100581540Y-85209700D01*
X100490500Y-121134100D02*
X100342640Y-121410720D01*
X161792600Y-124444941D02*
X162543000Y-124217326D01*
X98400000Y-84043600D02*
X98700150Y-83952600D01*
X164935400Y-121302160D02*
X165012300Y-120521800D01*
X97481550Y-124217326D02*
X98231940Y-124444941D01*
X160700200Y-118952560D02*
X161012300Y-118921810D01*
X161012300Y-124521800D02*
X161792600Y-124444941D01*
X100490500Y-86134100D02*
X100342640Y-86410700D01*
X99012300Y-118921810D02*
X99324430Y-118952560D01*
X97681950Y-84632900D02*
X97880920Y-84390400D01*
X99324430Y-122091060D02*
X99012280Y-122121810D01*
X95012300Y-120521800D02*
X95089158Y-121302160D01*
X162581500Y-85833900D02*
X162490500Y-86134100D01*
X159880900Y-119390440D02*
X160123400Y-119191460D01*
X97681950Y-119632900D02*
X97880920Y-119390440D01*
X97443040Y-120833950D02*
X97412290Y-120521800D01*
X97412290Y-120521800D02*
X97443040Y-120209670D01*
X99324430Y-118952560D02*
X99624590Y-119043600D01*
X99624590Y-122000010D02*
X99324430Y-122091060D01*
X162490500Y-86134100D02*
X162342600Y-86410700D01*
X95089158Y-121302160D02*
X95316774Y-122052550D01*
X159880900Y-84390400D02*
X160123400Y-84191500D01*
X160700200Y-83952600D02*
X161012300Y-83921800D01*
X162581500Y-120833950D02*
X162490500Y-121134100D01*
X162612300Y-120521800D02*
X162581500Y-120833950D01*
X161624600Y-87000000D02*
X161324400Y-87091100D01*
X100342640Y-119632900D02*
X100490500Y-119909510D01*
X99324430Y-83952600D02*
X99624590Y-84043600D01*
X160400000Y-119043600D02*
X160700200Y-118952560D01*
X162342600Y-86410700D02*
X162143700Y-86653200D01*
X164707800Y-122052550D02*
X164935400Y-121302160D01*
X161901200Y-119191460D02*
X162143700Y-119390440D01*
X161624600Y-119043600D02*
X161901200Y-119191460D01*
X100490500Y-119909510D02*
X100581540Y-120209670D01*
X159681900Y-86410700D02*
X159534100Y-86134100D01*
X96790010Y-123847682D02*
X97481550Y-124217326D01*
X160700200Y-87091100D02*
X160400000Y-87000000D01*
X100342640Y-86410700D02*
X100143660Y-86653200D01*
X99324430Y-87091100D02*
X99012280Y-87121800D01*
X159534100Y-121134100D02*
X159443000Y-120833950D01*
X97681950Y-86410700D02*
X97534090Y-86134100D01*
X97534090Y-86134100D02*
X97443040Y-85833900D01*
X95316774Y-122052550D02*
X95686418Y-122744090D01*
X159681900Y-84632900D02*
X159880900Y-84390400D01*
X160123400Y-119191460D02*
X160400000Y-119043600D01*
X100143660Y-86653200D02*
X99901200Y-86852200D01*
X162342600Y-84632900D02*
X162490500Y-84909500D01*
X159534100Y-119909510D02*
X159681900Y-119632900D01*
X99901200Y-119191460D02*
X100143660Y-119390440D01*
X98700150Y-87091100D02*
X98400000Y-87000000D01*
X98123380Y-121852150D02*
X97880920Y-121653180D01*
X98123380Y-86852200D02*
X97880920Y-86653200D01*
X160700200Y-122091060D02*
X160400000Y-122000010D01*
X100143660Y-84390400D02*
X100342640Y-84632900D01*
X95686418Y-83299500D02*
X95316774Y-83991100D01*
X162342600Y-119632900D02*
X162490500Y-119909510D01*
X162143700Y-119390440D02*
X162342600Y-119632900D01*
X162612300Y-85521800D02*
X162581500Y-85833900D01*
X99012280Y-122121810D02*
X98700150Y-122091060D01*
X160123400Y-121852150D02*
X159880900Y-121653180D01*
X162143700Y-121653180D02*
X161901200Y-121852150D01*
X162342600Y-121410720D02*
X162143700Y-121653180D01*
X162490500Y-121134100D02*
X162342600Y-121410720D01*
X97481550Y-81826300D02*
X96790010Y-82195900D01*
X96183870Y-123350230D02*
X96790010Y-123847682D01*
X160400000Y-84043600D02*
X160700200Y-83952600D01*
X159443000Y-85833900D02*
X159412300Y-85521800D01*
X97412290Y-85521800D02*
X97443040Y-85209700D01*
X161324400Y-118952560D02*
X161624600Y-119043600D01*
X98123380Y-119191460D02*
X98400000Y-119043600D01*
X99624590Y-87000000D02*
X99324430Y-87091100D01*
X162581500Y-85209700D02*
X162612300Y-85521800D01*
X159443000Y-120833950D02*
X159412300Y-120521800D01*
X159534100Y-84909500D02*
X159681900Y-84632900D01*
X95686418Y-122744090D02*
X96183870Y-123350230D01*
X100581540Y-85833900D02*
X100490500Y-86134100D01*
X99901200Y-86852200D02*
X99624590Y-87000000D01*
X163840700Y-82693400D02*
X163234600Y-82195900D01*
X161012300Y-81521800D02*
X99012300Y-81521800D01*
X164338200Y-83299500D02*
X163840700Y-82693400D01*
X97534090Y-119909510D02*
X97681950Y-119632900D01*
X161901200Y-84191500D02*
X162143700Y-84390400D01*
X161792600Y-81598700D02*
X161012300Y-81521800D01*
X97681950Y-121410720D02*
X97534090Y-121134100D01*
X98700150Y-118952560D02*
X99012300Y-118921810D01*
X159412300Y-120521800D02*
X159443000Y-120209670D01*
X100581540Y-85209700D02*
X100612290Y-85521800D01*
X97443040Y-85209700D02*
X97534090Y-84909500D01*
X161012300Y-118921810D02*
X161324400Y-118952560D01*
X160123400Y-86852200D02*
X159880900Y-86653200D01*
X160400000Y-122000010D02*
X160123400Y-121852150D01*
X99012300Y-81521800D02*
X98231940Y-81598700D01*
X164935400Y-84741500D02*
X164707800Y-83991100D01*
X165012300Y-120521800D02*
X165012300Y-85521800D01*
X95316774Y-83991100D02*
X95089158Y-84741500D01*
X100612290Y-85521800D02*
X100581540Y-85833900D01*
X98400000Y-119043600D02*
X98700150Y-118952560D01*
X159443000Y-120209670D02*
X159534100Y-119909510D01*
X161901200Y-86852200D02*
X161624600Y-87000000D01*
X161012300Y-87121800D02*
X160700200Y-87091100D01*
X162143700Y-84390400D02*
X162342600Y-84632900D01*
X162543000Y-124217326D02*
X163234600Y-123847682D01*
X99624590Y-84043600D02*
X99901200Y-84191500D01*
X161324400Y-87091100D02*
X161012300Y-87121800D01*
X100342640Y-84632900D02*
X100490500Y-84909500D01*
X159880900Y-86653200D02*
X159681900Y-86410700D01*
X98400000Y-87000000D02*
X98123380Y-86852200D01*
X97880920Y-121653180D02*
X97681950Y-121410720D01*
X98231940Y-124444941D02*
X99012280Y-124521800D01*
X159534100Y-86134100D02*
X159443000Y-85833900D01*
X161324400Y-122091060D02*
X161012300Y-122121810D01*
X161624600Y-122000010D02*
X161324400Y-122091060D01*
X161901200Y-121852150D02*
X161624600Y-122000010D01*
X100581540Y-120209670D02*
X100612290Y-120521800D01*
X159681900Y-119632900D02*
X159880900Y-119390440D01*
X161012300Y-122121810D02*
X160700200Y-122091060D01*
X98231940Y-81598700D02*
X97481550Y-81826300D01*
X99012300Y-83921800D02*
X99324430Y-83952600D01*
X97534090Y-84909500D02*
X97681950Y-84632900D01*
X98123380Y-84191500D02*
X98400000Y-84043600D01*
X163840700Y-123350230D02*
X164338200Y-122744090D01*
X99901200Y-84191500D02*
X100143660Y-84390400D01*
X97443040Y-85833900D02*
X97412290Y-85521800D01*
X97880920Y-84390400D02*
X98123380Y-84191500D01*
X164338200Y-122744090D02*
X164707800Y-122052550D01*
X98700150Y-83952600D02*
X99012300Y-83921800D01*
X96790010Y-82195900D02*
X96183870Y-82693400D01*
X159412300Y-85521800D02*
X159443000Y-85209700D01*
X99012280Y-87121800D02*
X98700150Y-87091100D01*
X160400000Y-87000000D02*
X160123400Y-86852200D01*
M02*
