M48
;DRILL file {KiCad 5.0.0-rc2-dev-unknown-9e8bcbe~62~ubuntu16.04.1} date Sat Mar 17 21:54:09 2018
;FORMAT={-:-/ absolute / metric / decimal}
FMAT,2
METRIC,TZ
T1C0.400
T2C0.500
T3C0.550
T4C1.000
%
G90
G05
M71
T1
X101.75Y-113.9
X101.8Y-103.15
X104.25Y-109.65
X106.75Y-104.35
X106.85Y-87.35
X107.7Y-113.75
X108.05Y-97.05
X108.4Y-105.
X109.65Y-86.25
X110.65Y-96.75
X111.7Y-107.6
X113.6Y-101.3
X114.2Y-95.8
X114.5Y-88.15
X117.7Y-117.9
X118.5Y-105.15
X119.15Y-102.15
X119.75Y-98.75
X119.813Y-105.437
X122.85Y-89.1
X124.9Y-93.6
X126.05Y-112.2
X126.6Y-110.85
X128.4Y-101.1
X128.75Y-86.95
X129.8Y-97.9
X130.75Y-99.55
X131.4Y-94.05
X131.95Y-99.5
X132.7Y-119.1
X133.1Y-86.05
X133.85Y-110.509
X134.9Y-111.1
X134.9Y-117.
X135.Y-89.
X135.25Y-106.4
X135.6Y-101.9
X135.7Y-96.35
X137.35Y-94.15
X137.8Y-107.55
X138.99Y-110.875
X139.15Y-87.8
X140.2Y-110.875
X140.65Y-97.5
X141.7Y-90.3
X141.75Y-96.5
X142.227Y-109.237
X142.75Y-110.15
X149.1Y-99.9
X155.75Y-97.95
X157.7Y-119.85
X158.4Y-89.25
X158.4Y-96.65
X160.6Y-98.2
T4
X107.62Y-83.5
X110.16Y-83.5
X112.7Y-83.5
X127.21Y-83.5
X129.75Y-83.5
X132.29Y-83.5
X134.83Y-83.5
X137.37Y-83.5
X139.91Y-83.5
X142.45Y-83.5
X144.99Y-83.5
X147.53Y-83.5
X150.07Y-83.5
X152.61Y-83.5
X155.15Y-83.5
X127.3Y-122.05
X129.84Y-122.05
X132.38Y-122.05
X134.92Y-122.05
X137.46Y-122.05
X140.Y-122.05
X142.54Y-122.05
X145.08Y-122.05
X147.62Y-122.05
X150.16Y-122.05
X152.7Y-122.05
X155.24Y-122.05
X107.57Y-122.1
X110.11Y-122.1
X112.65Y-122.1
T2
X96.075Y-92.G85X96.725Y-92.
G05
X96.075Y-99.G85X96.725Y-99.
G05
T3
X99.1Y-92.85G85X99.1Y-93.15
G05
X99.1Y-97.85G85X99.1Y-98.15
G05
T0
M30
