G04 #@! TF.GenerationSoftware,KiCad,Pcbnew,5.0.0-rc2-dev-unknown-e0e0687~62~ubuntu16.04.1*
G04 #@! TF.CreationDate,2018-03-18T12:36:43+01:00*
G04 #@! TF.ProjectId,GhostESP32,47686F737445535033322E6B69636164,rev?*
G04 #@! TF.SameCoordinates,Original*
G04 #@! TF.FileFunction,Copper,L2,Bot,Signal*
G04 #@! TF.FilePolarity,Positive*
%FSLAX46Y46*%
G04 Gerber Fmt 4.6, Leading zero omitted, Abs format (unit mm)*
G04 Created by KiCad (PCBNEW 5.0.0-rc2-dev-unknown-e0e0687~62~ubuntu16.04.1) date Sun Mar 18 12:36:43 2018*
%MOMM*%
%LPD*%
G01*
G04 APERTURE LIST*
%ADD10R,1.700000X1.700000*%
%ADD11O,1.700000X1.700000*%
%ADD12O,1.550000X1.000000*%
%ADD13O,0.950000X1.250000*%
%ADD14C,0.800000*%
%ADD15C,0.300000*%
%ADD16C,0.250000*%
%ADD17C,0.200000*%
%ADD18C,0.400000*%
%ADD19C,0.254000*%
G04 APERTURE END LIST*
D10*
X107570000Y-122100000D03*
D11*
X110110000Y-122100000D03*
X112650000Y-122100000D03*
D12*
X96400000Y-99000000D03*
X96400000Y-92000000D03*
D13*
X99100000Y-98000000D03*
X99100000Y-93000000D03*
D11*
X112700000Y-83500000D03*
X110160000Y-83500000D03*
D10*
X107620000Y-83500000D03*
X127300000Y-122050000D03*
D11*
X129840000Y-122050000D03*
X132380000Y-122050000D03*
X134920000Y-122050000D03*
X137460000Y-122050000D03*
X140000000Y-122050000D03*
X142540000Y-122050000D03*
X145080000Y-122050000D03*
X147620000Y-122050000D03*
X150160000Y-122050000D03*
X152700000Y-122050000D03*
X155240000Y-122050000D03*
X155150000Y-83500000D03*
X152610000Y-83500000D03*
X150070000Y-83500000D03*
X147530000Y-83500000D03*
X144990000Y-83500000D03*
X142450000Y-83500000D03*
X139910000Y-83500000D03*
X137370000Y-83500000D03*
X134830000Y-83500000D03*
X132290000Y-83500000D03*
X129750000Y-83500000D03*
D10*
X127210000Y-83500000D03*
D14*
X124900000Y-93600000D03*
X110650000Y-96750000D03*
X160600000Y-98200000D03*
X157700000Y-119850000D03*
X149100000Y-99900000D03*
X135250000Y-106400000D03*
X135600000Y-101900000D03*
X101750000Y-113900000D03*
X108050000Y-97050000D03*
X114500000Y-88150000D03*
X122850000Y-89100000D03*
X138989805Y-110875010D03*
X158400000Y-96650000D03*
X139150000Y-87800000D03*
X135000000Y-89000000D03*
X107700000Y-113750000D03*
X133100000Y-86050000D03*
X128750000Y-86950000D03*
X104250000Y-109650000D03*
X108400000Y-105000000D03*
X111700000Y-107600000D03*
X131400000Y-94050000D03*
X141700000Y-90300000D03*
X158400000Y-89250000D03*
X128400000Y-101100000D03*
X137350000Y-94150000D03*
X135700000Y-96350000D03*
X140650000Y-97500000D03*
X129800000Y-97900000D03*
X119750000Y-98750000D03*
X118500000Y-105150000D03*
X126050000Y-112200000D03*
X134900000Y-111100000D03*
X142750000Y-110150000D03*
X106750000Y-104350000D03*
X101800000Y-103150000D03*
X141750000Y-96500000D03*
X106850000Y-87350000D03*
X109650000Y-86250000D03*
X119812660Y-105437340D03*
X142227458Y-109236896D03*
X133849989Y-110508971D03*
X126600000Y-110850000D03*
X155750000Y-97950000D03*
X137800000Y-107550000D03*
X114200000Y-95800000D03*
X113600000Y-101300000D03*
X119150000Y-102150000D03*
X117700000Y-117900000D03*
X130750000Y-99550000D03*
X132700000Y-119100000D03*
X140200000Y-110875010D03*
X131950000Y-99500000D03*
X134900000Y-117000000D03*
D15*
X110650000Y-96750000D02*
X113800000Y-93600000D01*
X113800000Y-93600000D02*
X124900000Y-93600000D01*
X160600000Y-98200000D02*
X157700000Y-101100000D01*
X157700000Y-101100000D02*
X157700000Y-119850000D01*
D16*
X157700000Y-119850000D02*
X157700000Y-121329002D01*
X157700000Y-121329002D02*
X155804001Y-123225001D01*
X155804001Y-123225001D02*
X127375001Y-123225001D01*
X127375001Y-123225001D02*
X127300000Y-123150000D01*
X127300000Y-123150000D02*
X127300000Y-122050000D01*
D17*
X135600000Y-101900000D02*
X147100000Y-101900000D01*
X147100000Y-101900000D02*
X149100000Y-99900000D01*
D18*
X135600000Y-101900000D02*
X135600000Y-106050000D01*
X135600000Y-106050000D02*
X135250000Y-106400000D01*
D16*
X111474999Y-123275001D02*
X109545999Y-123275001D01*
X108934999Y-121084999D02*
X101750000Y-113900000D01*
X108934999Y-122664001D02*
X108934999Y-121084999D01*
X109545999Y-123275001D02*
X108934999Y-122664001D01*
X112650000Y-122100000D02*
X111474999Y-123275001D01*
D18*
X108050000Y-97050000D02*
X114500000Y-90600000D01*
X114500000Y-90600000D02*
X114500000Y-88150000D01*
X99100000Y-98000000D02*
X99975000Y-98000000D01*
X99975000Y-98000000D02*
X112700000Y-85275000D01*
X112700000Y-84702081D02*
X112700000Y-83500000D01*
X112700000Y-85275000D02*
X112700000Y-84702081D01*
X114500000Y-88150000D02*
X112700000Y-86350000D01*
X112700000Y-86350000D02*
X112700000Y-83500000D01*
X112700000Y-83500000D02*
X117250000Y-83500000D01*
X117250000Y-83500000D02*
X122850000Y-89100000D01*
D16*
X158400000Y-96650000D02*
X153423004Y-96650000D01*
X147747993Y-102325011D02*
X140960945Y-102325011D01*
X140960945Y-102325011D02*
X133124987Y-110160969D01*
X138589806Y-111275009D02*
X138989805Y-110875010D01*
X133124987Y-110856973D02*
X134093016Y-111825002D01*
X133124987Y-110160969D02*
X133124987Y-110856973D01*
X138039813Y-111825002D02*
X138589806Y-111275009D01*
X134093016Y-111825002D02*
X138039813Y-111825002D01*
X153423004Y-96650000D02*
X147747993Y-102325011D01*
X107700000Y-109673519D02*
X119348520Y-98024999D01*
X119348520Y-98024999D02*
X125975001Y-98024999D01*
X134600001Y-89399999D02*
X135000000Y-89000000D01*
X125975001Y-98024999D02*
X134600001Y-89399999D01*
X107700000Y-113750000D02*
X107700000Y-109673519D01*
X139150000Y-87800000D02*
X139150000Y-85280000D01*
X139150000Y-85280000D02*
X137370000Y-83500000D01*
X128750000Y-86950000D02*
X132200000Y-86950000D01*
X132200000Y-86950000D02*
X133100000Y-86050000D01*
X131400000Y-94050000D02*
X130834315Y-94050000D01*
X130834315Y-94050000D02*
X123459316Y-101424999D01*
X117875001Y-101424999D02*
X112099999Y-107200001D01*
X112099999Y-107200001D02*
X111700000Y-107600000D01*
X123459316Y-101424999D02*
X117875001Y-101424999D01*
X108400000Y-105000000D02*
X104250000Y-109150000D01*
X104250000Y-109150000D02*
X104250000Y-109650000D01*
X158400000Y-89250000D02*
X142750000Y-89250000D01*
X142750000Y-89250000D02*
X141700000Y-90300000D01*
X128400000Y-101100000D02*
X128400000Y-97650000D01*
X128400000Y-97650000D02*
X129700000Y-96350000D01*
X129700000Y-96350000D02*
X135700000Y-96350000D01*
X135700000Y-96350000D02*
X137350000Y-94700000D01*
X137350000Y-94700000D02*
X137350000Y-94150000D01*
X129800000Y-97900000D02*
X140250000Y-97900000D01*
X140250000Y-97900000D02*
X140650000Y-97500000D01*
D18*
X118965997Y-99149999D02*
X119350001Y-99149999D01*
X110110000Y-108005996D02*
X118965997Y-99149999D01*
X119350001Y-99149999D02*
X119750000Y-98750000D01*
X110110000Y-122100000D02*
X110110000Y-108005996D01*
X129840000Y-122050000D02*
X129840000Y-120847919D01*
X129840000Y-120847919D02*
X129792080Y-120799999D01*
X129792080Y-120799999D02*
X111410001Y-120799999D01*
X111410001Y-120799999D02*
X110959999Y-121250001D01*
X110959999Y-121250001D02*
X110110000Y-122100000D01*
D16*
X126050000Y-112200000D02*
X125650001Y-111800001D01*
X125650001Y-111800001D02*
X125150001Y-111800001D01*
X125150001Y-111800001D02*
X118500000Y-105150000D01*
X142750000Y-110150000D02*
X135850000Y-110150000D01*
X135850000Y-110150000D02*
X134900000Y-111100000D01*
X101800000Y-103150000D02*
X105550000Y-103150000D01*
X105550000Y-103150000D02*
X106750000Y-104350000D01*
X141750000Y-95934315D02*
X141750000Y-96500000D01*
X132290000Y-83500000D02*
X141750000Y-92960000D01*
X141750000Y-92960000D02*
X141750000Y-95934315D01*
D18*
X109650000Y-86250000D02*
X107950000Y-86250000D01*
X107950000Y-86250000D02*
X106850000Y-87350000D01*
D16*
X125225320Y-110850000D02*
X120212659Y-105837339D01*
X126600000Y-110850000D02*
X125225320Y-110850000D01*
X120212659Y-105837339D02*
X119812660Y-105437340D01*
X142227458Y-109236896D02*
X135122064Y-109236896D01*
X134249988Y-110108972D02*
X133849989Y-110508971D01*
X135122064Y-109236896D02*
X134249988Y-110108972D01*
D17*
X137800000Y-107550000D02*
X146150000Y-107550000D01*
X146150000Y-107550000D02*
X155350001Y-98349999D01*
X155350001Y-98349999D02*
X155750000Y-97950000D01*
D16*
X118750001Y-102549999D02*
X119150000Y-102150000D01*
X117274998Y-117474998D02*
X117274998Y-104025002D01*
X117700000Y-117900000D02*
X117274998Y-117474998D01*
X117274998Y-104025002D02*
X118750001Y-102549999D01*
X113600000Y-101300000D02*
X114200000Y-100700000D01*
X114200000Y-100700000D02*
X114200000Y-95800000D01*
D17*
X130750000Y-117150000D02*
X132300001Y-118700001D01*
X130750000Y-99550000D02*
X130750000Y-117150000D01*
X132300001Y-118700001D02*
X132700000Y-119100000D01*
D16*
X147620000Y-122050000D02*
X144670000Y-119100000D01*
X144670000Y-119100000D02*
X132700000Y-119100000D01*
X140200000Y-111440695D02*
X140200000Y-110875010D01*
X150160000Y-122050000D02*
X150160000Y-120835010D01*
X138799997Y-112275013D02*
X139800001Y-111275009D01*
X139800001Y-111275009D02*
X140200000Y-110875010D01*
X133906616Y-112275013D02*
X138799997Y-112275013D01*
X140200000Y-111700000D02*
X140200000Y-111440695D01*
X131950000Y-99500000D02*
X131950000Y-110318397D01*
X131950000Y-110318397D02*
X133906616Y-112275013D01*
X134900000Y-117000000D02*
X140200000Y-111700000D01*
X140599999Y-111275009D02*
X140200000Y-110875010D01*
X150160000Y-120835010D02*
X140599999Y-111275009D01*
D19*
G36*
X106145914Y-82532589D02*
X106122560Y-82650000D01*
X106122560Y-84350000D01*
X106171843Y-84597765D01*
X106312191Y-84807809D01*
X106522235Y-84948157D01*
X106770000Y-84997440D01*
X108470000Y-84997440D01*
X108717765Y-84948157D01*
X108927809Y-84807809D01*
X109068157Y-84597765D01*
X109077184Y-84552381D01*
X109089375Y-84570625D01*
X109580582Y-84898839D01*
X110013744Y-84985000D01*
X110306256Y-84985000D01*
X110739418Y-84898839D01*
X111230625Y-84570625D01*
X111443843Y-84251522D01*
X111504817Y-84381358D01*
X111933076Y-84771645D01*
X112343110Y-84941476D01*
X112573000Y-84820155D01*
X112573000Y-83627000D01*
X112827000Y-83627000D01*
X112827000Y-84820155D01*
X113056890Y-84941476D01*
X113466924Y-84771645D01*
X113895183Y-84381358D01*
X114141486Y-83856892D01*
X114020819Y-83627000D01*
X112827000Y-83627000D01*
X112573000Y-83627000D01*
X112553000Y-83627000D01*
X112553000Y-83373000D01*
X112573000Y-83373000D01*
X112573000Y-83353000D01*
X112827000Y-83353000D01*
X112827000Y-83373000D01*
X114020819Y-83373000D01*
X114141486Y-83143108D01*
X113895183Y-82618642D01*
X113807570Y-82538797D01*
X125732757Y-82548461D01*
X125712560Y-82650000D01*
X125712560Y-84350000D01*
X125761843Y-84597765D01*
X125902191Y-84807809D01*
X126112235Y-84948157D01*
X126360000Y-84997440D01*
X128060000Y-84997440D01*
X128307765Y-84948157D01*
X128517809Y-84807809D01*
X128658157Y-84597765D01*
X128667184Y-84552381D01*
X128679375Y-84570625D01*
X129170582Y-84898839D01*
X129603744Y-84985000D01*
X129896256Y-84985000D01*
X130329418Y-84898839D01*
X130820625Y-84570625D01*
X131020000Y-84272239D01*
X131219375Y-84570625D01*
X131710582Y-84898839D01*
X132143744Y-84985000D01*
X132436256Y-84985000D01*
X132656408Y-84941209D01*
X132778212Y-85063013D01*
X132513720Y-85172569D01*
X132222569Y-85463720D01*
X132065000Y-85844126D01*
X132065000Y-86010199D01*
X131885199Y-86190000D01*
X129453711Y-86190000D01*
X129336280Y-86072569D01*
X128955874Y-85915000D01*
X128544126Y-85915000D01*
X128163720Y-86072569D01*
X127872569Y-86363720D01*
X127715000Y-86744126D01*
X127715000Y-87155874D01*
X127872569Y-87536280D01*
X128163720Y-87827431D01*
X128544126Y-87985000D01*
X128955874Y-87985000D01*
X129336280Y-87827431D01*
X129453711Y-87710000D01*
X132125153Y-87710000D01*
X132200000Y-87724888D01*
X132274847Y-87710000D01*
X132274852Y-87710000D01*
X132496537Y-87665904D01*
X132747929Y-87497929D01*
X132790331Y-87434470D01*
X133139801Y-87085000D01*
X133305874Y-87085000D01*
X133686280Y-86927431D01*
X133977431Y-86636280D01*
X134086987Y-86371788D01*
X140990000Y-93274803D01*
X140990001Y-95796288D01*
X140872569Y-95913720D01*
X140715000Y-96294126D01*
X140715000Y-96465000D01*
X140444126Y-96465000D01*
X140063720Y-96622569D01*
X139772569Y-96913720D01*
X139678841Y-97140000D01*
X136373711Y-97140000D01*
X136577431Y-96936280D01*
X136735000Y-96555874D01*
X136735000Y-96389802D01*
X137834476Y-95290327D01*
X137897929Y-95247929D01*
X137940327Y-95184476D01*
X137940329Y-95184474D01*
X138065903Y-94996538D01*
X138065904Y-94996537D01*
X138090419Y-94873292D01*
X138227431Y-94736280D01*
X138385000Y-94355874D01*
X138385000Y-93944126D01*
X138227431Y-93563720D01*
X137936280Y-93272569D01*
X137555874Y-93115000D01*
X137144126Y-93115000D01*
X136763720Y-93272569D01*
X136472569Y-93563720D01*
X136315000Y-93944126D01*
X136315000Y-94355874D01*
X136404134Y-94571063D01*
X135660198Y-95315000D01*
X135494126Y-95315000D01*
X135113720Y-95472569D01*
X134996289Y-95590000D01*
X130369117Y-95590000D01*
X130967845Y-94991272D01*
X131194126Y-95085000D01*
X131605874Y-95085000D01*
X131986280Y-94927431D01*
X132277431Y-94636280D01*
X132435000Y-94255874D01*
X132435000Y-93844126D01*
X132277431Y-93463720D01*
X131986280Y-93172569D01*
X131926849Y-93147952D01*
X135039802Y-90035000D01*
X135205874Y-90035000D01*
X135586280Y-89877431D01*
X135877431Y-89586280D01*
X136035000Y-89205874D01*
X136035000Y-88794126D01*
X135877431Y-88413720D01*
X135586280Y-88122569D01*
X135205874Y-87965000D01*
X134794126Y-87965000D01*
X134413720Y-88122569D01*
X134122569Y-88413720D01*
X133965000Y-88794126D01*
X133965000Y-88960198D01*
X125660200Y-97264999D01*
X119423367Y-97264999D01*
X119348520Y-97250111D01*
X119273673Y-97264999D01*
X119273668Y-97264999D01*
X119051983Y-97309095D01*
X118800591Y-97477070D01*
X118758191Y-97540526D01*
X114523388Y-101775329D01*
X114635000Y-101505874D01*
X114635000Y-101339802D01*
X114684473Y-101290329D01*
X114747929Y-101247929D01*
X114915904Y-100996537D01*
X114960000Y-100774852D01*
X114960000Y-100774848D01*
X114974888Y-100700001D01*
X114960000Y-100625154D01*
X114960000Y-96503711D01*
X115077431Y-96386280D01*
X115235000Y-96005874D01*
X115235000Y-95594126D01*
X115077431Y-95213720D01*
X114786280Y-94922569D01*
X114405874Y-94765000D01*
X113994126Y-94765000D01*
X113613720Y-94922569D01*
X113322569Y-95213720D01*
X113165000Y-95594126D01*
X113165000Y-96005874D01*
X113322569Y-96386280D01*
X113440001Y-96503712D01*
X113440000Y-100265000D01*
X113394126Y-100265000D01*
X113013720Y-100422569D01*
X112722569Y-100713720D01*
X112565000Y-101094126D01*
X112565000Y-101505874D01*
X112722569Y-101886280D01*
X113013720Y-102177431D01*
X113394126Y-102335000D01*
X113805874Y-102335000D01*
X114075329Y-102223388D01*
X107215528Y-109083190D01*
X107152072Y-109125590D01*
X107109672Y-109189046D01*
X107109671Y-109189047D01*
X106984097Y-109376982D01*
X106925112Y-109673519D01*
X106940001Y-109748371D01*
X106940000Y-113046289D01*
X106822569Y-113163720D01*
X106665000Y-113544126D01*
X106665000Y-113955874D01*
X106822569Y-114336280D01*
X107113720Y-114627431D01*
X107494126Y-114785000D01*
X107905874Y-114785000D01*
X108286280Y-114627431D01*
X108577431Y-114336280D01*
X108735000Y-113955874D01*
X108735000Y-113544126D01*
X108577431Y-113163720D01*
X108460000Y-113046289D01*
X108460000Y-109988320D01*
X109275001Y-109173319D01*
X109275000Y-120871935D01*
X109039375Y-121029375D01*
X109027184Y-121047619D01*
X109018157Y-121002235D01*
X108877809Y-120792191D01*
X108667765Y-120651843D01*
X108420000Y-120602560D01*
X106720000Y-120602560D01*
X106472235Y-120651843D01*
X106262191Y-120792191D01*
X106121843Y-121002235D01*
X106072560Y-121250000D01*
X106072560Y-122950000D01*
X106121843Y-123197765D01*
X106262191Y-123407809D01*
X106472235Y-123548157D01*
X106720000Y-123597440D01*
X108420000Y-123597440D01*
X108667765Y-123548157D01*
X108877809Y-123407809D01*
X109018157Y-123197765D01*
X109027184Y-123152381D01*
X109039375Y-123170625D01*
X109530582Y-123498839D01*
X109963744Y-123585000D01*
X110256256Y-123585000D01*
X110689418Y-123498839D01*
X111180625Y-123170625D01*
X111393843Y-122851522D01*
X111454817Y-122981358D01*
X111883076Y-123371645D01*
X112293110Y-123541476D01*
X112523000Y-123420155D01*
X112523000Y-122227000D01*
X112777000Y-122227000D01*
X112777000Y-123420155D01*
X113006890Y-123541476D01*
X113416924Y-123371645D01*
X113845183Y-122981358D01*
X114091486Y-122456892D01*
X113970819Y-122227000D01*
X112777000Y-122227000D01*
X112523000Y-122227000D01*
X112503000Y-122227000D01*
X112503000Y-121973000D01*
X112523000Y-121973000D01*
X112523000Y-121953000D01*
X112777000Y-121953000D01*
X112777000Y-121973000D01*
X113970819Y-121973000D01*
X114091486Y-121743108D01*
X114040715Y-121634999D01*
X125802560Y-121634999D01*
X125802560Y-122900000D01*
X125851843Y-123147765D01*
X125992191Y-123357809D01*
X126202235Y-123498157D01*
X126450000Y-123547440D01*
X126651518Y-123547440D01*
X126752071Y-123697929D01*
X126797031Y-123727970D01*
X126827072Y-123772930D01*
X126847830Y-123786800D01*
X108195826Y-123786800D01*
X99793117Y-123773070D01*
X98532768Y-122808358D01*
X98556060Y-122815424D01*
X98628574Y-122822566D01*
X98794742Y-122838937D01*
X98794754Y-122838943D01*
X98919881Y-122851265D01*
X99012258Y-122860366D01*
X99012278Y-122860364D01*
X99012297Y-122860366D01*
X99099066Y-122851818D01*
X99229801Y-122838945D01*
X99229814Y-122838938D01*
X99411230Y-122821066D01*
X99468512Y-122815425D01*
X99468520Y-122815422D01*
X99468525Y-122815422D01*
X99499903Y-122805903D01*
X99698052Y-122745797D01*
X99698062Y-122745798D01*
X99810633Y-122711647D01*
X99907215Y-122682350D01*
X99907230Y-122682342D01*
X99907243Y-122682338D01*
X99985832Y-122640329D01*
X100099999Y-122579306D01*
X100100005Y-122579298D01*
X100256012Y-122495906D01*
X100311504Y-122466247D01*
X100311518Y-122466235D01*
X100311532Y-122466228D01*
X100360790Y-122425801D01*
X100496916Y-122314092D01*
X100496926Y-122314089D01*
X100596359Y-122232486D01*
X100665880Y-122175435D01*
X100665890Y-122175423D01*
X100665902Y-122175413D01*
X100726677Y-122101358D01*
X100804560Y-122006463D01*
X100804563Y-122006453D01*
X100956667Y-121821112D01*
X100956724Y-121821043D01*
X100956725Y-121821042D01*
X100956727Y-121821039D01*
X100992847Y-121753463D01*
X101069796Y-121609506D01*
X101069806Y-121609497D01*
X101142613Y-121473276D01*
X101172832Y-121416742D01*
X101172836Y-121416729D01*
X101172846Y-121416710D01*
X101202449Y-121319112D01*
X101236289Y-121207561D01*
X101236288Y-121207549D01*
X101293151Y-121020076D01*
X101305902Y-120978045D01*
X101305903Y-120978034D01*
X101305908Y-120978018D01*
X101312640Y-120909649D01*
X101329418Y-120739334D01*
X101329425Y-120739321D01*
X101343004Y-120601417D01*
X101350846Y-120521817D01*
X101350844Y-120521798D01*
X101350846Y-120521778D01*
X101340524Y-120417005D01*
X101329423Y-120304274D01*
X101329416Y-120304260D01*
X101311948Y-120126950D01*
X101305909Y-120065609D01*
X101305903Y-120065588D01*
X101305901Y-120065570D01*
X101288871Y-120009434D01*
X101236286Y-119836061D01*
X101236288Y-119836038D01*
X101195681Y-119702186D01*
X101172848Y-119626906D01*
X101172836Y-119626884D01*
X101172828Y-119626857D01*
X101128928Y-119544730D01*
X101069810Y-119434119D01*
X101069794Y-119434106D01*
X100982559Y-119270910D01*
X100956727Y-119222581D01*
X100956721Y-119222574D01*
X100956718Y-119222568D01*
X100929505Y-119189410D01*
X100804556Y-119037158D01*
X100751032Y-118971939D01*
X100665902Y-118868207D01*
X100665897Y-118868203D01*
X100665893Y-118868198D01*
X100555292Y-118777431D01*
X100496926Y-118729531D01*
X100496924Y-118729530D01*
X100361743Y-118618592D01*
X100311532Y-118577382D01*
X100311521Y-118577376D01*
X100311519Y-118577374D01*
X100279896Y-118560471D01*
X100099996Y-118464307D01*
X100099982Y-118464290D01*
X99983994Y-118402299D01*
X99907243Y-118361272D01*
X99907216Y-118361264D01*
X99907194Y-118361252D01*
X99832670Y-118338648D01*
X99698062Y-118297812D01*
X99698039Y-118297814D01*
X99528504Y-118246394D01*
X99468530Y-118228199D01*
X99468510Y-118228197D01*
X99468490Y-118228191D01*
X99404956Y-118221936D01*
X99229838Y-118204683D01*
X99229826Y-118204677D01*
X99102799Y-118192168D01*
X99012321Y-118183254D01*
X99012302Y-118183256D01*
X99012283Y-118183254D01*
X98926865Y-118191669D01*
X98794779Y-118204675D01*
X98794766Y-118204682D01*
X98624451Y-118221460D01*
X98556082Y-118228192D01*
X98556066Y-118228197D01*
X98556055Y-118228198D01*
X98514024Y-118240949D01*
X98326551Y-118297812D01*
X98326539Y-118297811D01*
X98214988Y-118331651D01*
X98117390Y-118361254D01*
X98117371Y-118361264D01*
X98117358Y-118361268D01*
X98050871Y-118396807D01*
X97924603Y-118464294D01*
X97924594Y-118464304D01*
X97771158Y-118546319D01*
X97713061Y-118577373D01*
X97713058Y-118577375D01*
X97713057Y-118577376D01*
X97700690Y-118587525D01*
X97527647Y-118729537D01*
X97527637Y-118729540D01*
X97437567Y-118803463D01*
X97358687Y-118868198D01*
X97358677Y-118868210D01*
X97358665Y-118868220D01*
X97298041Y-118942095D01*
X97220011Y-119037174D01*
X97220008Y-119037184D01*
X97103495Y-119179164D01*
X97067872Y-119222568D01*
X97067865Y-119222581D01*
X97067853Y-119222596D01*
X97042031Y-119270910D01*
X96954802Y-119434095D01*
X96954794Y-119434101D01*
X96895662Y-119544730D01*
X96851762Y-119626857D01*
X96851758Y-119626870D01*
X96851750Y-119626885D01*
X96822453Y-119723467D01*
X96788302Y-119836038D01*
X96788303Y-119836048D01*
X96730883Y-120025343D01*
X96718679Y-120065570D01*
X96718678Y-120065577D01*
X96718675Y-120065588D01*
X96712636Y-120126912D01*
X96695164Y-120304260D01*
X96695157Y-120304274D01*
X96684056Y-120417005D01*
X96673734Y-120521779D01*
X96673736Y-120521798D01*
X96673734Y-120521817D01*
X96681576Y-120601417D01*
X96695155Y-120739321D01*
X96695162Y-120739334D01*
X96709857Y-120888500D01*
X96718676Y-120978039D01*
X96788301Y-121207560D01*
X96790301Y-121214154D01*
X96851753Y-121416731D01*
X96851757Y-121416738D01*
X96851758Y-121416742D01*
X96881977Y-121473276D01*
X96946670Y-121594308D01*
X95827617Y-120737749D01*
X95902749Y-113074234D01*
X96265000Y-113074234D01*
X96265000Y-113525766D01*
X96437793Y-113942926D01*
X96757074Y-114262207D01*
X97174234Y-114435000D01*
X97625766Y-114435000D01*
X98042926Y-114262207D01*
X98362207Y-113942926D01*
X98535000Y-113525766D01*
X98535000Y-113074234D01*
X98362207Y-112657074D01*
X98042926Y-112337793D01*
X97625766Y-112165000D01*
X97174234Y-112165000D01*
X96757074Y-112337793D01*
X96437793Y-112657074D01*
X96265000Y-113074234D01*
X95902749Y-113074234D01*
X95961572Y-107074234D01*
X96265000Y-107074234D01*
X96265000Y-107525766D01*
X96437793Y-107942926D01*
X96757074Y-108262207D01*
X97174234Y-108435000D01*
X97625766Y-108435000D01*
X98042926Y-108262207D01*
X98362207Y-107942926D01*
X98535000Y-107525766D01*
X98535000Y-107074234D01*
X98362207Y-106657074D01*
X98042926Y-106337793D01*
X97625766Y-106165000D01*
X97174234Y-106165000D01*
X96757074Y-106337793D01*
X96437793Y-106657074D01*
X96265000Y-107074234D01*
X95961572Y-107074234D01*
X96002064Y-102944126D01*
X100765000Y-102944126D01*
X100765000Y-103355874D01*
X100922569Y-103736280D01*
X101213720Y-104027431D01*
X101594126Y-104185000D01*
X102005874Y-104185000D01*
X102386280Y-104027431D01*
X102503711Y-103910000D01*
X105235199Y-103910000D01*
X105715000Y-104389802D01*
X105715000Y-104555874D01*
X105872569Y-104936280D01*
X106163720Y-105227431D01*
X106544126Y-105385000D01*
X106940198Y-105385000D01*
X103765530Y-108559669D01*
X103702071Y-108602071D01*
X103534096Y-108853464D01*
X103521996Y-108914293D01*
X103372569Y-109063720D01*
X103215000Y-109444126D01*
X103215000Y-109855874D01*
X103372569Y-110236280D01*
X103663720Y-110527431D01*
X104044126Y-110685000D01*
X104455874Y-110685000D01*
X104836280Y-110527431D01*
X105127431Y-110236280D01*
X105285000Y-109855874D01*
X105285000Y-109444126D01*
X105210510Y-109264291D01*
X108439802Y-106035000D01*
X108605874Y-106035000D01*
X108986280Y-105877431D01*
X109277431Y-105586280D01*
X109435000Y-105205874D01*
X109435000Y-104794126D01*
X109277431Y-104413720D01*
X108986280Y-104122569D01*
X108605874Y-103965000D01*
X108194126Y-103965000D01*
X107813720Y-104122569D01*
X107785000Y-104151289D01*
X107785000Y-104144126D01*
X107627431Y-103763720D01*
X107336280Y-103472569D01*
X106955874Y-103315000D01*
X106789802Y-103315000D01*
X106140331Y-102665530D01*
X106097929Y-102602071D01*
X105846537Y-102434096D01*
X105624852Y-102390000D01*
X105624847Y-102390000D01*
X105550000Y-102375112D01*
X105475153Y-102390000D01*
X102503711Y-102390000D01*
X102386280Y-102272569D01*
X102005874Y-102115000D01*
X101594126Y-102115000D01*
X101213720Y-102272569D01*
X100922569Y-102563720D01*
X100765000Y-102944126D01*
X96002064Y-102944126D01*
X96029605Y-100135000D01*
X96273000Y-100135000D01*
X96273000Y-99127000D01*
X96527000Y-99127000D01*
X96527000Y-100135000D01*
X96802000Y-100135000D01*
X97226678Y-100000002D01*
X97567368Y-99712763D01*
X97769119Y-99301874D01*
X97642954Y-99127000D01*
X96527000Y-99127000D01*
X96273000Y-99127000D01*
X96253000Y-99127000D01*
X96253000Y-98873000D01*
X96273000Y-98873000D01*
X96273000Y-97865000D01*
X96527000Y-97865000D01*
X96527000Y-98873000D01*
X97642954Y-98873000D01*
X97769119Y-98698126D01*
X97574191Y-98301131D01*
X97998771Y-98301131D01*
X98140432Y-98711049D01*
X98428179Y-99035552D01*
X98802062Y-99219268D01*
X98973000Y-99092734D01*
X98973000Y-98127000D01*
X99227000Y-98127000D01*
X99227000Y-99092734D01*
X99397938Y-99219268D01*
X99771821Y-99035552D01*
X100059568Y-98711049D01*
X100201229Y-98301131D01*
X100052563Y-98127000D01*
X99227000Y-98127000D01*
X98973000Y-98127000D01*
X98147437Y-98127000D01*
X97998771Y-98301131D01*
X97574191Y-98301131D01*
X97567368Y-98287237D01*
X97226678Y-97999998D01*
X96802000Y-97865000D01*
X96527000Y-97865000D01*
X96273000Y-97865000D01*
X96051859Y-97865000D01*
X96053487Y-97698869D01*
X97998771Y-97698869D01*
X98147437Y-97873000D01*
X98973000Y-97873000D01*
X98973000Y-96907266D01*
X99227000Y-96907266D01*
X99227000Y-97873000D01*
X100052563Y-97873000D01*
X100201229Y-97698869D01*
X100059568Y-97288951D01*
X99771821Y-96964448D01*
X99397938Y-96780732D01*
X99227000Y-96907266D01*
X98973000Y-96907266D01*
X98802062Y-96780732D01*
X98428179Y-96964448D01*
X98140432Y-97288951D01*
X97998771Y-97698869D01*
X96053487Y-97698869D01*
X96064808Y-96544126D01*
X109615000Y-96544126D01*
X109615000Y-96955874D01*
X109772569Y-97336280D01*
X110063720Y-97627431D01*
X110444126Y-97785000D01*
X110855874Y-97785000D01*
X111236280Y-97627431D01*
X111527431Y-97336280D01*
X111685000Y-96955874D01*
X111685000Y-96825157D01*
X114125157Y-94385000D01*
X124221289Y-94385000D01*
X124313720Y-94477431D01*
X124694126Y-94635000D01*
X125105874Y-94635000D01*
X125486280Y-94477431D01*
X125777431Y-94186280D01*
X125935000Y-93805874D01*
X125935000Y-93394126D01*
X125777431Y-93013720D01*
X125486280Y-92722569D01*
X125105874Y-92565000D01*
X124694126Y-92565000D01*
X124313720Y-92722569D01*
X124221289Y-92815000D01*
X113877312Y-92815000D01*
X113800000Y-92799622D01*
X113722688Y-92815000D01*
X113722684Y-92815000D01*
X113493708Y-92860546D01*
X113234047Y-93034047D01*
X113190251Y-93099592D01*
X110574843Y-95715000D01*
X110444126Y-95715000D01*
X110063720Y-95872569D01*
X109772569Y-96163720D01*
X109615000Y-96544126D01*
X96064808Y-96544126D01*
X96096603Y-93301131D01*
X97998771Y-93301131D01*
X98140432Y-93711049D01*
X98428179Y-94035552D01*
X98802062Y-94219268D01*
X98973000Y-94092734D01*
X98973000Y-93127000D01*
X99227000Y-93127000D01*
X99227000Y-94092734D01*
X99397938Y-94219268D01*
X99771821Y-94035552D01*
X100059568Y-93711049D01*
X100201229Y-93301131D01*
X100052563Y-93127000D01*
X99227000Y-93127000D01*
X98973000Y-93127000D01*
X98147437Y-93127000D01*
X97998771Y-93301131D01*
X96096603Y-93301131D01*
X96098232Y-93135000D01*
X96273000Y-93135000D01*
X96273000Y-92127000D01*
X96527000Y-92127000D01*
X96527000Y-93135000D01*
X96802000Y-93135000D01*
X97226678Y-93000002D01*
X97567368Y-92712763D01*
X97574190Y-92698869D01*
X97998771Y-92698869D01*
X98147437Y-92873000D01*
X98973000Y-92873000D01*
X98973000Y-91907266D01*
X99227000Y-91907266D01*
X99227000Y-92873000D01*
X100052563Y-92873000D01*
X100201229Y-92698869D01*
X100059568Y-92288951D01*
X99771821Y-91964448D01*
X99397938Y-91780732D01*
X99227000Y-91907266D01*
X98973000Y-91907266D01*
X98802062Y-91780732D01*
X98428179Y-91964448D01*
X98140432Y-92288951D01*
X97998771Y-92698869D01*
X97574190Y-92698869D01*
X97769119Y-92301874D01*
X97642954Y-92127000D01*
X96527000Y-92127000D01*
X96273000Y-92127000D01*
X96253000Y-92127000D01*
X96253000Y-91873000D01*
X96273000Y-91873000D01*
X96273000Y-90865000D01*
X96527000Y-90865000D01*
X96527000Y-91873000D01*
X97642954Y-91873000D01*
X97769119Y-91698126D01*
X97567368Y-91287237D01*
X97226678Y-90999998D01*
X96802000Y-90865000D01*
X96527000Y-90865000D01*
X96273000Y-90865000D01*
X96120487Y-90865000D01*
X96176423Y-85159498D01*
X96887951Y-84559147D01*
X96851766Y-84626837D01*
X96851755Y-84626873D01*
X96851740Y-84626901D01*
X96832252Y-84691156D01*
X96788303Y-84836017D01*
X96788306Y-84836048D01*
X96738060Y-85001713D01*
X96718680Y-85065594D01*
X96718677Y-85065621D01*
X96718670Y-85065645D01*
X96713635Y-85116794D01*
X96695164Y-85304265D01*
X96695153Y-85304286D01*
X96681702Y-85440903D01*
X96673734Y-85521772D01*
X96673737Y-85521800D01*
X96673734Y-85521828D01*
X96681576Y-85601416D01*
X96695153Y-85739314D01*
X96695164Y-85739334D01*
X96711725Y-85907413D01*
X96718670Y-85977955D01*
X96718677Y-85977979D01*
X96718680Y-85978006D01*
X96737215Y-86039101D01*
X96788306Y-86207552D01*
X96788303Y-86207583D01*
X96829997Y-86345012D01*
X96851740Y-86416699D01*
X96851755Y-86416727D01*
X96851766Y-86416763D01*
X96889468Y-86487292D01*
X96954776Y-86609488D01*
X96954800Y-86609508D01*
X97036698Y-86762712D01*
X97067820Y-86820954D01*
X97067853Y-86820994D01*
X97067878Y-86821041D01*
X97111862Y-86874632D01*
X97219988Y-87006413D01*
X97219994Y-87006433D01*
X97304145Y-87108982D01*
X97358623Y-87175378D01*
X97358644Y-87175395D01*
X97358661Y-87175416D01*
X97424477Y-87229435D01*
X97527584Y-87314071D01*
X97527605Y-87314077D01*
X97544127Y-87327638D01*
X97544163Y-87327705D01*
X97653263Y-87417212D01*
X97713030Y-87466266D01*
X97713102Y-87466304D01*
X97713161Y-87466353D01*
X97777688Y-87500830D01*
X97905809Y-87569320D01*
X97905886Y-87569328D01*
X98054808Y-87648898D01*
X98117265Y-87682294D01*
X98117374Y-87682327D01*
X98117473Y-87682380D01*
X98184702Y-87702762D01*
X98346892Y-87751989D01*
X98346974Y-87752057D01*
X98482292Y-87793086D01*
X98555950Y-87815442D01*
X98556063Y-87815453D01*
X98556165Y-87815484D01*
X98628820Y-87822630D01*
X98773489Y-87836901D01*
X98773592Y-87836870D01*
X98942932Y-87853526D01*
X99012180Y-87860356D01*
X99012278Y-87860346D01*
X99012375Y-87860356D01*
X99081257Y-87853562D01*
X99250983Y-87836869D01*
X99251084Y-87836900D01*
X99394363Y-87822768D01*
X99468410Y-87815485D01*
X99468513Y-87815454D01*
X99468623Y-87815443D01*
X99541567Y-87793304D01*
X99677602Y-87752059D01*
X99677683Y-87751992D01*
X99840925Y-87702448D01*
X99907127Y-87682376D01*
X99907218Y-87682327D01*
X99907318Y-87682297D01*
X99968584Y-87649538D01*
X100118700Y-87569327D01*
X100118770Y-87569320D01*
X100242605Y-87503122D01*
X100311429Y-87466347D01*
X100311488Y-87466299D01*
X100311549Y-87466266D01*
X100367437Y-87420395D01*
X100480425Y-87327696D01*
X100480459Y-87327633D01*
X100496967Y-87314084D01*
X100496980Y-87314080D01*
X100597412Y-87231643D01*
X100665918Y-87175417D01*
X100665930Y-87175403D01*
X100665944Y-87175391D01*
X100691597Y-87144126D01*
X105815000Y-87144126D01*
X105815000Y-87555874D01*
X105972569Y-87936280D01*
X106263720Y-88227431D01*
X106644126Y-88385000D01*
X107055874Y-88385000D01*
X107436280Y-88227431D01*
X107727431Y-87936280D01*
X107885000Y-87555874D01*
X107885000Y-87495867D01*
X108295868Y-87085000D01*
X109021289Y-87085000D01*
X109063720Y-87127431D01*
X109444126Y-87285000D01*
X109855874Y-87285000D01*
X110236280Y-87127431D01*
X110527431Y-86836280D01*
X110685000Y-86455874D01*
X110685000Y-86044126D01*
X110527431Y-85663720D01*
X110236280Y-85372569D01*
X109855874Y-85215000D01*
X109444126Y-85215000D01*
X109063720Y-85372569D01*
X109021289Y-85415000D01*
X108032237Y-85415000D01*
X107950000Y-85398642D01*
X107867763Y-85415000D01*
X107624199Y-85463448D01*
X107347999Y-85647999D01*
X107301415Y-85717718D01*
X106704133Y-86315000D01*
X106644126Y-86315000D01*
X106263720Y-86472569D01*
X105972569Y-86763720D01*
X105815000Y-87144126D01*
X100691597Y-87144126D01*
X100722825Y-87106069D01*
X100804586Y-87006434D01*
X100804590Y-87006421D01*
X100914289Y-86872729D01*
X100956712Y-86821041D01*
X100956733Y-86821002D01*
X100956760Y-86820969D01*
X100988467Y-86761638D01*
X101069796Y-86609496D01*
X101069828Y-86609470D01*
X101135122Y-86487292D01*
X101172824Y-86416763D01*
X101172838Y-86416718D01*
X101172859Y-86416678D01*
X101195174Y-86343096D01*
X101236287Y-86207584D01*
X101236283Y-86207542D01*
X101288253Y-86036173D01*
X101305900Y-85978006D01*
X101305903Y-85977973D01*
X101305915Y-85977934D01*
X101312856Y-85907407D01*
X101329416Y-85739334D01*
X101329427Y-85739314D01*
X101343004Y-85601416D01*
X101350846Y-85521829D01*
X101350843Y-85521800D01*
X101350846Y-85521771D01*
X101342674Y-85438828D01*
X101329427Y-85304286D01*
X101329416Y-85304265D01*
X101312665Y-85134253D01*
X101305915Y-85065666D01*
X101305903Y-85065627D01*
X101305900Y-85065594D01*
X101287396Y-85004601D01*
X101236283Y-84836058D01*
X101236287Y-84836016D01*
X101195174Y-84700504D01*
X101172859Y-84626922D01*
X101172838Y-84626882D01*
X101172824Y-84626837D01*
X101135014Y-84556106D01*
X101069828Y-84434130D01*
X101069796Y-84434104D01*
X100988467Y-84281962D01*
X100956760Y-84222631D01*
X100956733Y-84222598D01*
X100956712Y-84222559D01*
X100914289Y-84170871D01*
X100804530Y-84037106D01*
X100804499Y-84037004D01*
X100713549Y-83926227D01*
X100665944Y-83868209D01*
X100665859Y-83868140D01*
X100665790Y-83868055D01*
X100608259Y-83820860D01*
X100496980Y-83729520D01*
X100496877Y-83729489D01*
X100366642Y-83622652D01*
X100311601Y-83577468D01*
X100311491Y-83577409D01*
X100311398Y-83577333D01*
X100250790Y-83544953D01*
X100099980Y-83464317D01*
X100099910Y-83464232D01*
X99972930Y-83396385D01*
X99907319Y-83361304D01*
X99907212Y-83361272D01*
X99907110Y-83361217D01*
X99834920Y-83339331D01*
X99698145Y-83297820D01*
X99698034Y-83297831D01*
X99536442Y-83248841D01*
X99468645Y-83228261D01*
X99468519Y-83228249D01*
X99468402Y-83228213D01*
X99399388Y-83221427D01*
X99229831Y-83204696D01*
X99229712Y-83204632D01*
X99086518Y-83190554D01*
X99012438Y-83183244D01*
X99012301Y-83183257D01*
X99012165Y-83183244D01*
X98938047Y-83190557D01*
X98794893Y-83204631D01*
X98794774Y-83204695D01*
X98628434Y-83221108D01*
X98556171Y-83228214D01*
X98556053Y-83228250D01*
X98555940Y-83228261D01*
X98491525Y-83247814D01*
X98414416Y-83271192D01*
X99296376Y-82527038D01*
X106145914Y-82532589D01*
X106145914Y-82532589D01*
G37*
X106145914Y-82532589D02*
X106122560Y-82650000D01*
X106122560Y-84350000D01*
X106171843Y-84597765D01*
X106312191Y-84807809D01*
X106522235Y-84948157D01*
X106770000Y-84997440D01*
X108470000Y-84997440D01*
X108717765Y-84948157D01*
X108927809Y-84807809D01*
X109068157Y-84597765D01*
X109077184Y-84552381D01*
X109089375Y-84570625D01*
X109580582Y-84898839D01*
X110013744Y-84985000D01*
X110306256Y-84985000D01*
X110739418Y-84898839D01*
X111230625Y-84570625D01*
X111443843Y-84251522D01*
X111504817Y-84381358D01*
X111933076Y-84771645D01*
X112343110Y-84941476D01*
X112573000Y-84820155D01*
X112573000Y-83627000D01*
X112827000Y-83627000D01*
X112827000Y-84820155D01*
X113056890Y-84941476D01*
X113466924Y-84771645D01*
X113895183Y-84381358D01*
X114141486Y-83856892D01*
X114020819Y-83627000D01*
X112827000Y-83627000D01*
X112573000Y-83627000D01*
X112553000Y-83627000D01*
X112553000Y-83373000D01*
X112573000Y-83373000D01*
X112573000Y-83353000D01*
X112827000Y-83353000D01*
X112827000Y-83373000D01*
X114020819Y-83373000D01*
X114141486Y-83143108D01*
X113895183Y-82618642D01*
X113807570Y-82538797D01*
X125732757Y-82548461D01*
X125712560Y-82650000D01*
X125712560Y-84350000D01*
X125761843Y-84597765D01*
X125902191Y-84807809D01*
X126112235Y-84948157D01*
X126360000Y-84997440D01*
X128060000Y-84997440D01*
X128307765Y-84948157D01*
X128517809Y-84807809D01*
X128658157Y-84597765D01*
X128667184Y-84552381D01*
X128679375Y-84570625D01*
X129170582Y-84898839D01*
X129603744Y-84985000D01*
X129896256Y-84985000D01*
X130329418Y-84898839D01*
X130820625Y-84570625D01*
X131020000Y-84272239D01*
X131219375Y-84570625D01*
X131710582Y-84898839D01*
X132143744Y-84985000D01*
X132436256Y-84985000D01*
X132656408Y-84941209D01*
X132778212Y-85063013D01*
X132513720Y-85172569D01*
X132222569Y-85463720D01*
X132065000Y-85844126D01*
X132065000Y-86010199D01*
X131885199Y-86190000D01*
X129453711Y-86190000D01*
X129336280Y-86072569D01*
X128955874Y-85915000D01*
X128544126Y-85915000D01*
X128163720Y-86072569D01*
X127872569Y-86363720D01*
X127715000Y-86744126D01*
X127715000Y-87155874D01*
X127872569Y-87536280D01*
X128163720Y-87827431D01*
X128544126Y-87985000D01*
X128955874Y-87985000D01*
X129336280Y-87827431D01*
X129453711Y-87710000D01*
X132125153Y-87710000D01*
X132200000Y-87724888D01*
X132274847Y-87710000D01*
X132274852Y-87710000D01*
X132496537Y-87665904D01*
X132747929Y-87497929D01*
X132790331Y-87434470D01*
X133139801Y-87085000D01*
X133305874Y-87085000D01*
X133686280Y-86927431D01*
X133977431Y-86636280D01*
X134086987Y-86371788D01*
X140990000Y-93274803D01*
X140990001Y-95796288D01*
X140872569Y-95913720D01*
X140715000Y-96294126D01*
X140715000Y-96465000D01*
X140444126Y-96465000D01*
X140063720Y-96622569D01*
X139772569Y-96913720D01*
X139678841Y-97140000D01*
X136373711Y-97140000D01*
X136577431Y-96936280D01*
X136735000Y-96555874D01*
X136735000Y-96389802D01*
X137834476Y-95290327D01*
X137897929Y-95247929D01*
X137940327Y-95184476D01*
X137940329Y-95184474D01*
X138065903Y-94996538D01*
X138065904Y-94996537D01*
X138090419Y-94873292D01*
X138227431Y-94736280D01*
X138385000Y-94355874D01*
X138385000Y-93944126D01*
X138227431Y-93563720D01*
X137936280Y-93272569D01*
X137555874Y-93115000D01*
X137144126Y-93115000D01*
X136763720Y-93272569D01*
X136472569Y-93563720D01*
X136315000Y-93944126D01*
X136315000Y-94355874D01*
X136404134Y-94571063D01*
X135660198Y-95315000D01*
X135494126Y-95315000D01*
X135113720Y-95472569D01*
X134996289Y-95590000D01*
X130369117Y-95590000D01*
X130967845Y-94991272D01*
X131194126Y-95085000D01*
X131605874Y-95085000D01*
X131986280Y-94927431D01*
X132277431Y-94636280D01*
X132435000Y-94255874D01*
X132435000Y-93844126D01*
X132277431Y-93463720D01*
X131986280Y-93172569D01*
X131926849Y-93147952D01*
X135039802Y-90035000D01*
X135205874Y-90035000D01*
X135586280Y-89877431D01*
X135877431Y-89586280D01*
X136035000Y-89205874D01*
X136035000Y-88794126D01*
X135877431Y-88413720D01*
X135586280Y-88122569D01*
X135205874Y-87965000D01*
X134794126Y-87965000D01*
X134413720Y-88122569D01*
X134122569Y-88413720D01*
X133965000Y-88794126D01*
X133965000Y-88960198D01*
X125660200Y-97264999D01*
X119423367Y-97264999D01*
X119348520Y-97250111D01*
X119273673Y-97264999D01*
X119273668Y-97264999D01*
X119051983Y-97309095D01*
X118800591Y-97477070D01*
X118758191Y-97540526D01*
X114523388Y-101775329D01*
X114635000Y-101505874D01*
X114635000Y-101339802D01*
X114684473Y-101290329D01*
X114747929Y-101247929D01*
X114915904Y-100996537D01*
X114960000Y-100774852D01*
X114960000Y-100774848D01*
X114974888Y-100700001D01*
X114960000Y-100625154D01*
X114960000Y-96503711D01*
X115077431Y-96386280D01*
X115235000Y-96005874D01*
X115235000Y-95594126D01*
X115077431Y-95213720D01*
X114786280Y-94922569D01*
X114405874Y-94765000D01*
X113994126Y-94765000D01*
X113613720Y-94922569D01*
X113322569Y-95213720D01*
X113165000Y-95594126D01*
X113165000Y-96005874D01*
X113322569Y-96386280D01*
X113440001Y-96503712D01*
X113440000Y-100265000D01*
X113394126Y-100265000D01*
X113013720Y-100422569D01*
X112722569Y-100713720D01*
X112565000Y-101094126D01*
X112565000Y-101505874D01*
X112722569Y-101886280D01*
X113013720Y-102177431D01*
X113394126Y-102335000D01*
X113805874Y-102335000D01*
X114075329Y-102223388D01*
X107215528Y-109083190D01*
X107152072Y-109125590D01*
X107109672Y-109189046D01*
X107109671Y-109189047D01*
X106984097Y-109376982D01*
X106925112Y-109673519D01*
X106940001Y-109748371D01*
X106940000Y-113046289D01*
X106822569Y-113163720D01*
X106665000Y-113544126D01*
X106665000Y-113955874D01*
X106822569Y-114336280D01*
X107113720Y-114627431D01*
X107494126Y-114785000D01*
X107905874Y-114785000D01*
X108286280Y-114627431D01*
X108577431Y-114336280D01*
X108735000Y-113955874D01*
X108735000Y-113544126D01*
X108577431Y-113163720D01*
X108460000Y-113046289D01*
X108460000Y-109988320D01*
X109275001Y-109173319D01*
X109275000Y-120871935D01*
X109039375Y-121029375D01*
X109027184Y-121047619D01*
X109018157Y-121002235D01*
X108877809Y-120792191D01*
X108667765Y-120651843D01*
X108420000Y-120602560D01*
X106720000Y-120602560D01*
X106472235Y-120651843D01*
X106262191Y-120792191D01*
X106121843Y-121002235D01*
X106072560Y-121250000D01*
X106072560Y-122950000D01*
X106121843Y-123197765D01*
X106262191Y-123407809D01*
X106472235Y-123548157D01*
X106720000Y-123597440D01*
X108420000Y-123597440D01*
X108667765Y-123548157D01*
X108877809Y-123407809D01*
X109018157Y-123197765D01*
X109027184Y-123152381D01*
X109039375Y-123170625D01*
X109530582Y-123498839D01*
X109963744Y-123585000D01*
X110256256Y-123585000D01*
X110689418Y-123498839D01*
X111180625Y-123170625D01*
X111393843Y-122851522D01*
X111454817Y-122981358D01*
X111883076Y-123371645D01*
X112293110Y-123541476D01*
X112523000Y-123420155D01*
X112523000Y-122227000D01*
X112777000Y-122227000D01*
X112777000Y-123420155D01*
X113006890Y-123541476D01*
X113416924Y-123371645D01*
X113845183Y-122981358D01*
X114091486Y-122456892D01*
X113970819Y-122227000D01*
X112777000Y-122227000D01*
X112523000Y-122227000D01*
X112503000Y-122227000D01*
X112503000Y-121973000D01*
X112523000Y-121973000D01*
X112523000Y-121953000D01*
X112777000Y-121953000D01*
X112777000Y-121973000D01*
X113970819Y-121973000D01*
X114091486Y-121743108D01*
X114040715Y-121634999D01*
X125802560Y-121634999D01*
X125802560Y-122900000D01*
X125851843Y-123147765D01*
X125992191Y-123357809D01*
X126202235Y-123498157D01*
X126450000Y-123547440D01*
X126651518Y-123547440D01*
X126752071Y-123697929D01*
X126797031Y-123727970D01*
X126827072Y-123772930D01*
X126847830Y-123786800D01*
X108195826Y-123786800D01*
X99793117Y-123773070D01*
X98532768Y-122808358D01*
X98556060Y-122815424D01*
X98628574Y-122822566D01*
X98794742Y-122838937D01*
X98794754Y-122838943D01*
X98919881Y-122851265D01*
X99012258Y-122860366D01*
X99012278Y-122860364D01*
X99012297Y-122860366D01*
X99099066Y-122851818D01*
X99229801Y-122838945D01*
X99229814Y-122838938D01*
X99411230Y-122821066D01*
X99468512Y-122815425D01*
X99468520Y-122815422D01*
X99468525Y-122815422D01*
X99499903Y-122805903D01*
X99698052Y-122745797D01*
X99698062Y-122745798D01*
X99810633Y-122711647D01*
X99907215Y-122682350D01*
X99907230Y-122682342D01*
X99907243Y-122682338D01*
X99985832Y-122640329D01*
X100099999Y-122579306D01*
X100100005Y-122579298D01*
X100256012Y-122495906D01*
X100311504Y-122466247D01*
X100311518Y-122466235D01*
X100311532Y-122466228D01*
X100360790Y-122425801D01*
X100496916Y-122314092D01*
X100496926Y-122314089D01*
X100596359Y-122232486D01*
X100665880Y-122175435D01*
X100665890Y-122175423D01*
X100665902Y-122175413D01*
X100726677Y-122101358D01*
X100804560Y-122006463D01*
X100804563Y-122006453D01*
X100956667Y-121821112D01*
X100956724Y-121821043D01*
X100956725Y-121821042D01*
X100956727Y-121821039D01*
X100992847Y-121753463D01*
X101069796Y-121609506D01*
X101069806Y-121609497D01*
X101142613Y-121473276D01*
X101172832Y-121416742D01*
X101172836Y-121416729D01*
X101172846Y-121416710D01*
X101202449Y-121319112D01*
X101236289Y-121207561D01*
X101236288Y-121207549D01*
X101293151Y-121020076D01*
X101305902Y-120978045D01*
X101305903Y-120978034D01*
X101305908Y-120978018D01*
X101312640Y-120909649D01*
X101329418Y-120739334D01*
X101329425Y-120739321D01*
X101343004Y-120601417D01*
X101350846Y-120521817D01*
X101350844Y-120521798D01*
X101350846Y-120521778D01*
X101340524Y-120417005D01*
X101329423Y-120304274D01*
X101329416Y-120304260D01*
X101311948Y-120126950D01*
X101305909Y-120065609D01*
X101305903Y-120065588D01*
X101305901Y-120065570D01*
X101288871Y-120009434D01*
X101236286Y-119836061D01*
X101236288Y-119836038D01*
X101195681Y-119702186D01*
X101172848Y-119626906D01*
X101172836Y-119626884D01*
X101172828Y-119626857D01*
X101128928Y-119544730D01*
X101069810Y-119434119D01*
X101069794Y-119434106D01*
X100982559Y-119270910D01*
X100956727Y-119222581D01*
X100956721Y-119222574D01*
X100956718Y-119222568D01*
X100929505Y-119189410D01*
X100804556Y-119037158D01*
X100751032Y-118971939D01*
X100665902Y-118868207D01*
X100665897Y-118868203D01*
X100665893Y-118868198D01*
X100555292Y-118777431D01*
X100496926Y-118729531D01*
X100496924Y-118729530D01*
X100361743Y-118618592D01*
X100311532Y-118577382D01*
X100311521Y-118577376D01*
X100311519Y-118577374D01*
X100279896Y-118560471D01*
X100099996Y-118464307D01*
X100099982Y-118464290D01*
X99983994Y-118402299D01*
X99907243Y-118361272D01*
X99907216Y-118361264D01*
X99907194Y-118361252D01*
X99832670Y-118338648D01*
X99698062Y-118297812D01*
X99698039Y-118297814D01*
X99528504Y-118246394D01*
X99468530Y-118228199D01*
X99468510Y-118228197D01*
X99468490Y-118228191D01*
X99404956Y-118221936D01*
X99229838Y-118204683D01*
X99229826Y-118204677D01*
X99102799Y-118192168D01*
X99012321Y-118183254D01*
X99012302Y-118183256D01*
X99012283Y-118183254D01*
X98926865Y-118191669D01*
X98794779Y-118204675D01*
X98794766Y-118204682D01*
X98624451Y-118221460D01*
X98556082Y-118228192D01*
X98556066Y-118228197D01*
X98556055Y-118228198D01*
X98514024Y-118240949D01*
X98326551Y-118297812D01*
X98326539Y-118297811D01*
X98214988Y-118331651D01*
X98117390Y-118361254D01*
X98117371Y-118361264D01*
X98117358Y-118361268D01*
X98050871Y-118396807D01*
X97924603Y-118464294D01*
X97924594Y-118464304D01*
X97771158Y-118546319D01*
X97713061Y-118577373D01*
X97713058Y-118577375D01*
X97713057Y-118577376D01*
X97700690Y-118587525D01*
X97527647Y-118729537D01*
X97527637Y-118729540D01*
X97437567Y-118803463D01*
X97358687Y-118868198D01*
X97358677Y-118868210D01*
X97358665Y-118868220D01*
X97298041Y-118942095D01*
X97220011Y-119037174D01*
X97220008Y-119037184D01*
X97103495Y-119179164D01*
X97067872Y-119222568D01*
X97067865Y-119222581D01*
X97067853Y-119222596D01*
X97042031Y-119270910D01*
X96954802Y-119434095D01*
X96954794Y-119434101D01*
X96895662Y-119544730D01*
X96851762Y-119626857D01*
X96851758Y-119626870D01*
X96851750Y-119626885D01*
X96822453Y-119723467D01*
X96788302Y-119836038D01*
X96788303Y-119836048D01*
X96730883Y-120025343D01*
X96718679Y-120065570D01*
X96718678Y-120065577D01*
X96718675Y-120065588D01*
X96712636Y-120126912D01*
X96695164Y-120304260D01*
X96695157Y-120304274D01*
X96684056Y-120417005D01*
X96673734Y-120521779D01*
X96673736Y-120521798D01*
X96673734Y-120521817D01*
X96681576Y-120601417D01*
X96695155Y-120739321D01*
X96695162Y-120739334D01*
X96709857Y-120888500D01*
X96718676Y-120978039D01*
X96788301Y-121207560D01*
X96790301Y-121214154D01*
X96851753Y-121416731D01*
X96851757Y-121416738D01*
X96851758Y-121416742D01*
X96881977Y-121473276D01*
X96946670Y-121594308D01*
X95827617Y-120737749D01*
X95902749Y-113074234D01*
X96265000Y-113074234D01*
X96265000Y-113525766D01*
X96437793Y-113942926D01*
X96757074Y-114262207D01*
X97174234Y-114435000D01*
X97625766Y-114435000D01*
X98042926Y-114262207D01*
X98362207Y-113942926D01*
X98535000Y-113525766D01*
X98535000Y-113074234D01*
X98362207Y-112657074D01*
X98042926Y-112337793D01*
X97625766Y-112165000D01*
X97174234Y-112165000D01*
X96757074Y-112337793D01*
X96437793Y-112657074D01*
X96265000Y-113074234D01*
X95902749Y-113074234D01*
X95961572Y-107074234D01*
X96265000Y-107074234D01*
X96265000Y-107525766D01*
X96437793Y-107942926D01*
X96757074Y-108262207D01*
X97174234Y-108435000D01*
X97625766Y-108435000D01*
X98042926Y-108262207D01*
X98362207Y-107942926D01*
X98535000Y-107525766D01*
X98535000Y-107074234D01*
X98362207Y-106657074D01*
X98042926Y-106337793D01*
X97625766Y-106165000D01*
X97174234Y-106165000D01*
X96757074Y-106337793D01*
X96437793Y-106657074D01*
X96265000Y-107074234D01*
X95961572Y-107074234D01*
X96002064Y-102944126D01*
X100765000Y-102944126D01*
X100765000Y-103355874D01*
X100922569Y-103736280D01*
X101213720Y-104027431D01*
X101594126Y-104185000D01*
X102005874Y-104185000D01*
X102386280Y-104027431D01*
X102503711Y-103910000D01*
X105235199Y-103910000D01*
X105715000Y-104389802D01*
X105715000Y-104555874D01*
X105872569Y-104936280D01*
X106163720Y-105227431D01*
X106544126Y-105385000D01*
X106940198Y-105385000D01*
X103765530Y-108559669D01*
X103702071Y-108602071D01*
X103534096Y-108853464D01*
X103521996Y-108914293D01*
X103372569Y-109063720D01*
X103215000Y-109444126D01*
X103215000Y-109855874D01*
X103372569Y-110236280D01*
X103663720Y-110527431D01*
X104044126Y-110685000D01*
X104455874Y-110685000D01*
X104836280Y-110527431D01*
X105127431Y-110236280D01*
X105285000Y-109855874D01*
X105285000Y-109444126D01*
X105210510Y-109264291D01*
X108439802Y-106035000D01*
X108605874Y-106035000D01*
X108986280Y-105877431D01*
X109277431Y-105586280D01*
X109435000Y-105205874D01*
X109435000Y-104794126D01*
X109277431Y-104413720D01*
X108986280Y-104122569D01*
X108605874Y-103965000D01*
X108194126Y-103965000D01*
X107813720Y-104122569D01*
X107785000Y-104151289D01*
X107785000Y-104144126D01*
X107627431Y-103763720D01*
X107336280Y-103472569D01*
X106955874Y-103315000D01*
X106789802Y-103315000D01*
X106140331Y-102665530D01*
X106097929Y-102602071D01*
X105846537Y-102434096D01*
X105624852Y-102390000D01*
X105624847Y-102390000D01*
X105550000Y-102375112D01*
X105475153Y-102390000D01*
X102503711Y-102390000D01*
X102386280Y-102272569D01*
X102005874Y-102115000D01*
X101594126Y-102115000D01*
X101213720Y-102272569D01*
X100922569Y-102563720D01*
X100765000Y-102944126D01*
X96002064Y-102944126D01*
X96029605Y-100135000D01*
X96273000Y-100135000D01*
X96273000Y-99127000D01*
X96527000Y-99127000D01*
X96527000Y-100135000D01*
X96802000Y-100135000D01*
X97226678Y-100000002D01*
X97567368Y-99712763D01*
X97769119Y-99301874D01*
X97642954Y-99127000D01*
X96527000Y-99127000D01*
X96273000Y-99127000D01*
X96253000Y-99127000D01*
X96253000Y-98873000D01*
X96273000Y-98873000D01*
X96273000Y-97865000D01*
X96527000Y-97865000D01*
X96527000Y-98873000D01*
X97642954Y-98873000D01*
X97769119Y-98698126D01*
X97574191Y-98301131D01*
X97998771Y-98301131D01*
X98140432Y-98711049D01*
X98428179Y-99035552D01*
X98802062Y-99219268D01*
X98973000Y-99092734D01*
X98973000Y-98127000D01*
X99227000Y-98127000D01*
X99227000Y-99092734D01*
X99397938Y-99219268D01*
X99771821Y-99035552D01*
X100059568Y-98711049D01*
X100201229Y-98301131D01*
X100052563Y-98127000D01*
X99227000Y-98127000D01*
X98973000Y-98127000D01*
X98147437Y-98127000D01*
X97998771Y-98301131D01*
X97574191Y-98301131D01*
X97567368Y-98287237D01*
X97226678Y-97999998D01*
X96802000Y-97865000D01*
X96527000Y-97865000D01*
X96273000Y-97865000D01*
X96051859Y-97865000D01*
X96053487Y-97698869D01*
X97998771Y-97698869D01*
X98147437Y-97873000D01*
X98973000Y-97873000D01*
X98973000Y-96907266D01*
X99227000Y-96907266D01*
X99227000Y-97873000D01*
X100052563Y-97873000D01*
X100201229Y-97698869D01*
X100059568Y-97288951D01*
X99771821Y-96964448D01*
X99397938Y-96780732D01*
X99227000Y-96907266D01*
X98973000Y-96907266D01*
X98802062Y-96780732D01*
X98428179Y-96964448D01*
X98140432Y-97288951D01*
X97998771Y-97698869D01*
X96053487Y-97698869D01*
X96064808Y-96544126D01*
X109615000Y-96544126D01*
X109615000Y-96955874D01*
X109772569Y-97336280D01*
X110063720Y-97627431D01*
X110444126Y-97785000D01*
X110855874Y-97785000D01*
X111236280Y-97627431D01*
X111527431Y-97336280D01*
X111685000Y-96955874D01*
X111685000Y-96825157D01*
X114125157Y-94385000D01*
X124221289Y-94385000D01*
X124313720Y-94477431D01*
X124694126Y-94635000D01*
X125105874Y-94635000D01*
X125486280Y-94477431D01*
X125777431Y-94186280D01*
X125935000Y-93805874D01*
X125935000Y-93394126D01*
X125777431Y-93013720D01*
X125486280Y-92722569D01*
X125105874Y-92565000D01*
X124694126Y-92565000D01*
X124313720Y-92722569D01*
X124221289Y-92815000D01*
X113877312Y-92815000D01*
X113800000Y-92799622D01*
X113722688Y-92815000D01*
X113722684Y-92815000D01*
X113493708Y-92860546D01*
X113234047Y-93034047D01*
X113190251Y-93099592D01*
X110574843Y-95715000D01*
X110444126Y-95715000D01*
X110063720Y-95872569D01*
X109772569Y-96163720D01*
X109615000Y-96544126D01*
X96064808Y-96544126D01*
X96096603Y-93301131D01*
X97998771Y-93301131D01*
X98140432Y-93711049D01*
X98428179Y-94035552D01*
X98802062Y-94219268D01*
X98973000Y-94092734D01*
X98973000Y-93127000D01*
X99227000Y-93127000D01*
X99227000Y-94092734D01*
X99397938Y-94219268D01*
X99771821Y-94035552D01*
X100059568Y-93711049D01*
X100201229Y-93301131D01*
X100052563Y-93127000D01*
X99227000Y-93127000D01*
X98973000Y-93127000D01*
X98147437Y-93127000D01*
X97998771Y-93301131D01*
X96096603Y-93301131D01*
X96098232Y-93135000D01*
X96273000Y-93135000D01*
X96273000Y-92127000D01*
X96527000Y-92127000D01*
X96527000Y-93135000D01*
X96802000Y-93135000D01*
X97226678Y-93000002D01*
X97567368Y-92712763D01*
X97574190Y-92698869D01*
X97998771Y-92698869D01*
X98147437Y-92873000D01*
X98973000Y-92873000D01*
X98973000Y-91907266D01*
X99227000Y-91907266D01*
X99227000Y-92873000D01*
X100052563Y-92873000D01*
X100201229Y-92698869D01*
X100059568Y-92288951D01*
X99771821Y-91964448D01*
X99397938Y-91780732D01*
X99227000Y-91907266D01*
X98973000Y-91907266D01*
X98802062Y-91780732D01*
X98428179Y-91964448D01*
X98140432Y-92288951D01*
X97998771Y-92698869D01*
X97574190Y-92698869D01*
X97769119Y-92301874D01*
X97642954Y-92127000D01*
X96527000Y-92127000D01*
X96273000Y-92127000D01*
X96253000Y-92127000D01*
X96253000Y-91873000D01*
X96273000Y-91873000D01*
X96273000Y-90865000D01*
X96527000Y-90865000D01*
X96527000Y-91873000D01*
X97642954Y-91873000D01*
X97769119Y-91698126D01*
X97567368Y-91287237D01*
X97226678Y-90999998D01*
X96802000Y-90865000D01*
X96527000Y-90865000D01*
X96273000Y-90865000D01*
X96120487Y-90865000D01*
X96176423Y-85159498D01*
X96887951Y-84559147D01*
X96851766Y-84626837D01*
X96851755Y-84626873D01*
X96851740Y-84626901D01*
X96832252Y-84691156D01*
X96788303Y-84836017D01*
X96788306Y-84836048D01*
X96738060Y-85001713D01*
X96718680Y-85065594D01*
X96718677Y-85065621D01*
X96718670Y-85065645D01*
X96713635Y-85116794D01*
X96695164Y-85304265D01*
X96695153Y-85304286D01*
X96681702Y-85440903D01*
X96673734Y-85521772D01*
X96673737Y-85521800D01*
X96673734Y-85521828D01*
X96681576Y-85601416D01*
X96695153Y-85739314D01*
X96695164Y-85739334D01*
X96711725Y-85907413D01*
X96718670Y-85977955D01*
X96718677Y-85977979D01*
X96718680Y-85978006D01*
X96737215Y-86039101D01*
X96788306Y-86207552D01*
X96788303Y-86207583D01*
X96829997Y-86345012D01*
X96851740Y-86416699D01*
X96851755Y-86416727D01*
X96851766Y-86416763D01*
X96889468Y-86487292D01*
X96954776Y-86609488D01*
X96954800Y-86609508D01*
X97036698Y-86762712D01*
X97067820Y-86820954D01*
X97067853Y-86820994D01*
X97067878Y-86821041D01*
X97111862Y-86874632D01*
X97219988Y-87006413D01*
X97219994Y-87006433D01*
X97304145Y-87108982D01*
X97358623Y-87175378D01*
X97358644Y-87175395D01*
X97358661Y-87175416D01*
X97424477Y-87229435D01*
X97527584Y-87314071D01*
X97527605Y-87314077D01*
X97544127Y-87327638D01*
X97544163Y-87327705D01*
X97653263Y-87417212D01*
X97713030Y-87466266D01*
X97713102Y-87466304D01*
X97713161Y-87466353D01*
X97777688Y-87500830D01*
X97905809Y-87569320D01*
X97905886Y-87569328D01*
X98054808Y-87648898D01*
X98117265Y-87682294D01*
X98117374Y-87682327D01*
X98117473Y-87682380D01*
X98184702Y-87702762D01*
X98346892Y-87751989D01*
X98346974Y-87752057D01*
X98482292Y-87793086D01*
X98555950Y-87815442D01*
X98556063Y-87815453D01*
X98556165Y-87815484D01*
X98628820Y-87822630D01*
X98773489Y-87836901D01*
X98773592Y-87836870D01*
X98942932Y-87853526D01*
X99012180Y-87860356D01*
X99012278Y-87860346D01*
X99012375Y-87860356D01*
X99081257Y-87853562D01*
X99250983Y-87836869D01*
X99251084Y-87836900D01*
X99394363Y-87822768D01*
X99468410Y-87815485D01*
X99468513Y-87815454D01*
X99468623Y-87815443D01*
X99541567Y-87793304D01*
X99677602Y-87752059D01*
X99677683Y-87751992D01*
X99840925Y-87702448D01*
X99907127Y-87682376D01*
X99907218Y-87682327D01*
X99907318Y-87682297D01*
X99968584Y-87649538D01*
X100118700Y-87569327D01*
X100118770Y-87569320D01*
X100242605Y-87503122D01*
X100311429Y-87466347D01*
X100311488Y-87466299D01*
X100311549Y-87466266D01*
X100367437Y-87420395D01*
X100480425Y-87327696D01*
X100480459Y-87327633D01*
X100496967Y-87314084D01*
X100496980Y-87314080D01*
X100597412Y-87231643D01*
X100665918Y-87175417D01*
X100665930Y-87175403D01*
X100665944Y-87175391D01*
X100691597Y-87144126D01*
X105815000Y-87144126D01*
X105815000Y-87555874D01*
X105972569Y-87936280D01*
X106263720Y-88227431D01*
X106644126Y-88385000D01*
X107055874Y-88385000D01*
X107436280Y-88227431D01*
X107727431Y-87936280D01*
X107885000Y-87555874D01*
X107885000Y-87495867D01*
X108295868Y-87085000D01*
X109021289Y-87085000D01*
X109063720Y-87127431D01*
X109444126Y-87285000D01*
X109855874Y-87285000D01*
X110236280Y-87127431D01*
X110527431Y-86836280D01*
X110685000Y-86455874D01*
X110685000Y-86044126D01*
X110527431Y-85663720D01*
X110236280Y-85372569D01*
X109855874Y-85215000D01*
X109444126Y-85215000D01*
X109063720Y-85372569D01*
X109021289Y-85415000D01*
X108032237Y-85415000D01*
X107950000Y-85398642D01*
X107867763Y-85415000D01*
X107624199Y-85463448D01*
X107347999Y-85647999D01*
X107301415Y-85717718D01*
X106704133Y-86315000D01*
X106644126Y-86315000D01*
X106263720Y-86472569D01*
X105972569Y-86763720D01*
X105815000Y-87144126D01*
X100691597Y-87144126D01*
X100722825Y-87106069D01*
X100804586Y-87006434D01*
X100804590Y-87006421D01*
X100914289Y-86872729D01*
X100956712Y-86821041D01*
X100956733Y-86821002D01*
X100956760Y-86820969D01*
X100988467Y-86761638D01*
X101069796Y-86609496D01*
X101069828Y-86609470D01*
X101135122Y-86487292D01*
X101172824Y-86416763D01*
X101172838Y-86416718D01*
X101172859Y-86416678D01*
X101195174Y-86343096D01*
X101236287Y-86207584D01*
X101236283Y-86207542D01*
X101288253Y-86036173D01*
X101305900Y-85978006D01*
X101305903Y-85977973D01*
X101305915Y-85977934D01*
X101312856Y-85907407D01*
X101329416Y-85739334D01*
X101329427Y-85739314D01*
X101343004Y-85601416D01*
X101350846Y-85521829D01*
X101350843Y-85521800D01*
X101350846Y-85521771D01*
X101342674Y-85438828D01*
X101329427Y-85304286D01*
X101329416Y-85304265D01*
X101312665Y-85134253D01*
X101305915Y-85065666D01*
X101305903Y-85065627D01*
X101305900Y-85065594D01*
X101287396Y-85004601D01*
X101236283Y-84836058D01*
X101236287Y-84836016D01*
X101195174Y-84700504D01*
X101172859Y-84626922D01*
X101172838Y-84626882D01*
X101172824Y-84626837D01*
X101135014Y-84556106D01*
X101069828Y-84434130D01*
X101069796Y-84434104D01*
X100988467Y-84281962D01*
X100956760Y-84222631D01*
X100956733Y-84222598D01*
X100956712Y-84222559D01*
X100914289Y-84170871D01*
X100804530Y-84037106D01*
X100804499Y-84037004D01*
X100713549Y-83926227D01*
X100665944Y-83868209D01*
X100665859Y-83868140D01*
X100665790Y-83868055D01*
X100608259Y-83820860D01*
X100496980Y-83729520D01*
X100496877Y-83729489D01*
X100366642Y-83622652D01*
X100311601Y-83577468D01*
X100311491Y-83577409D01*
X100311398Y-83577333D01*
X100250790Y-83544953D01*
X100099980Y-83464317D01*
X100099910Y-83464232D01*
X99972930Y-83396385D01*
X99907319Y-83361304D01*
X99907212Y-83361272D01*
X99907110Y-83361217D01*
X99834920Y-83339331D01*
X99698145Y-83297820D01*
X99698034Y-83297831D01*
X99536442Y-83248841D01*
X99468645Y-83228261D01*
X99468519Y-83228249D01*
X99468402Y-83228213D01*
X99399388Y-83221427D01*
X99229831Y-83204696D01*
X99229712Y-83204632D01*
X99086518Y-83190554D01*
X99012438Y-83183244D01*
X99012301Y-83183257D01*
X99012165Y-83183244D01*
X98938047Y-83190557D01*
X98794893Y-83204631D01*
X98794774Y-83204695D01*
X98628434Y-83221108D01*
X98556171Y-83228214D01*
X98556053Y-83228250D01*
X98555940Y-83228261D01*
X98491525Y-83247814D01*
X98414416Y-83271192D01*
X99296376Y-82527038D01*
X106145914Y-82532589D01*
G36*
X160894658Y-82576955D02*
X161513379Y-83241849D01*
X161468621Y-83228263D01*
X161468481Y-83228249D01*
X161468345Y-83228208D01*
X161398226Y-83221316D01*
X161229827Y-83204697D01*
X161229700Y-83204629D01*
X161086411Y-83190544D01*
X161012445Y-83183244D01*
X161012300Y-83183258D01*
X161012154Y-83183244D01*
X160938229Y-83190540D01*
X160794899Y-83204629D01*
X160794772Y-83204697D01*
X160626503Y-83221303D01*
X160556254Y-83228208D01*
X160556118Y-83228249D01*
X160555979Y-83228263D01*
X160488954Y-83248609D01*
X160326565Y-83297834D01*
X160326432Y-83297821D01*
X160186976Y-83340148D01*
X160117505Y-83361207D01*
X160117390Y-83361269D01*
X160117260Y-83361308D01*
X160050744Y-83396874D01*
X159924701Y-83464214D01*
X159924618Y-83464315D01*
X159775613Y-83543989D01*
X159713252Y-83577299D01*
X159713130Y-83577399D01*
X159712990Y-83577474D01*
X159658636Y-83622096D01*
X159527728Y-83729467D01*
X159527613Y-83729502D01*
X159416322Y-83820843D01*
X159358812Y-83868013D01*
X159358735Y-83868107D01*
X159358641Y-83868184D01*
X159311703Y-83925382D01*
X159220089Y-84036950D01*
X159220054Y-84037065D01*
X159206443Y-84053652D01*
X159206413Y-84053668D01*
X159117363Y-84162204D01*
X159067801Y-84222600D01*
X159067784Y-84222631D01*
X159067759Y-84222662D01*
X159027815Y-84297416D01*
X158964763Y-84415388D01*
X158964760Y-84415420D01*
X158885316Y-84564096D01*
X158851793Y-84626797D01*
X158851768Y-84626879D01*
X158851729Y-84626952D01*
X158832262Y-84691156D01*
X158782101Y-84856451D01*
X158782046Y-84856518D01*
X158740945Y-84992072D01*
X158718652Y-85065534D01*
X158718643Y-85065622D01*
X158718617Y-85065709D01*
X158711204Y-85141068D01*
X158697202Y-85283074D01*
X158697227Y-85283157D01*
X158680470Y-85453513D01*
X158673744Y-85521712D01*
X158673753Y-85521800D01*
X158673744Y-85521888D01*
X158680470Y-85590087D01*
X158697227Y-85760443D01*
X158697202Y-85760526D01*
X158711204Y-85902532D01*
X158718617Y-85977891D01*
X158718643Y-85977978D01*
X158718652Y-85978066D01*
X158740289Y-86049367D01*
X158782046Y-86187082D01*
X158782101Y-86187149D01*
X158831802Y-86350926D01*
X158851729Y-86416648D01*
X158851768Y-86416721D01*
X158851793Y-86416803D01*
X158884449Y-86477883D01*
X158964760Y-86628180D01*
X158964763Y-86628212D01*
X159026715Y-86744126D01*
X159067759Y-86820938D01*
X159067784Y-86820969D01*
X159067801Y-86821000D01*
X159116115Y-86879875D01*
X159206413Y-86989932D01*
X159206443Y-86989948D01*
X159219994Y-87006462D01*
X159220002Y-87006487D01*
X159306772Y-87112209D01*
X159358641Y-87175416D01*
X159358665Y-87175435D01*
X159358684Y-87175459D01*
X159421891Y-87227328D01*
X159527613Y-87314098D01*
X159527638Y-87314106D01*
X159544152Y-87327657D01*
X159544168Y-87327687D01*
X159654202Y-87417966D01*
X159713100Y-87466299D01*
X159713131Y-87466316D01*
X159713162Y-87466341D01*
X159787726Y-87506184D01*
X159905887Y-87569337D01*
X159905919Y-87569340D01*
X160058459Y-87650849D01*
X160117297Y-87682307D01*
X160117374Y-87682330D01*
X160117452Y-87682372D01*
X160185980Y-87703150D01*
X160346951Y-87751999D01*
X160347018Y-87752054D01*
X160483733Y-87793507D01*
X160556033Y-87815448D01*
X160556123Y-87815457D01*
X160556209Y-87815483D01*
X160632645Y-87823002D01*
X160773573Y-87836897D01*
X160773654Y-87836872D01*
X160944013Y-87853630D01*
X161012212Y-87860356D01*
X161012300Y-87860347D01*
X161012388Y-87860356D01*
X161080587Y-87853630D01*
X161250943Y-87836873D01*
X161251026Y-87836898D01*
X161393032Y-87822896D01*
X161468391Y-87815483D01*
X161468478Y-87815457D01*
X161468566Y-87815448D01*
X161539867Y-87793811D01*
X161677582Y-87752054D01*
X161677649Y-87751999D01*
X161841426Y-87702298D01*
X161907148Y-87682371D01*
X161907221Y-87682332D01*
X161907303Y-87682307D01*
X161968383Y-87649651D01*
X162118680Y-87569340D01*
X162118712Y-87569337D01*
X162236684Y-87506285D01*
X162311438Y-87466341D01*
X162311469Y-87466316D01*
X162311500Y-87466299D01*
X162370398Y-87417966D01*
X162480432Y-87327687D01*
X162480448Y-87327657D01*
X162497035Y-87314046D01*
X162497150Y-87314011D01*
X162608718Y-87222397D01*
X162665916Y-87175459D01*
X162665993Y-87175365D01*
X162666087Y-87175288D01*
X162713257Y-87117778D01*
X162804598Y-87006487D01*
X162804633Y-87006372D01*
X162912004Y-86875464D01*
X162956626Y-86821110D01*
X162956701Y-86820970D01*
X162956801Y-86820848D01*
X162990111Y-86758487D01*
X163069785Y-86609482D01*
X163069886Y-86609399D01*
X163137226Y-86483356D01*
X163172792Y-86416840D01*
X163172831Y-86416710D01*
X163172893Y-86416595D01*
X163194130Y-86346538D01*
X163236279Y-86207668D01*
X163236266Y-86207535D01*
X163285491Y-86045146D01*
X163305837Y-85978121D01*
X163305851Y-85977982D01*
X163305892Y-85977846D01*
X163312816Y-85907407D01*
X163329403Y-85739327D01*
X163329471Y-85739200D01*
X163343535Y-85596125D01*
X163350856Y-85521946D01*
X163350842Y-85521800D01*
X163350856Y-85521654D01*
X163343535Y-85447475D01*
X163329471Y-85304400D01*
X163329403Y-85304273D01*
X163317163Y-85180244D01*
X164172852Y-86099791D01*
X164073127Y-119657237D01*
X163340550Y-120626493D01*
X163343525Y-120596231D01*
X163350856Y-120521935D01*
X163350843Y-120521798D01*
X163350856Y-120521661D01*
X163343524Y-120447354D01*
X163329468Y-120304388D01*
X163329404Y-120304269D01*
X163312697Y-120134951D01*
X163305887Y-120065697D01*
X163305851Y-120065579D01*
X163305839Y-120065455D01*
X163285543Y-119998592D01*
X163236269Y-119836066D01*
X163236280Y-119835954D01*
X163194718Y-119699012D01*
X163172883Y-119626990D01*
X163172828Y-119626888D01*
X163172796Y-119626781D01*
X163137972Y-119561652D01*
X163069868Y-119434189D01*
X163069782Y-119434118D01*
X162989354Y-119283697D01*
X162956767Y-119222702D01*
X162956691Y-119222609D01*
X162956632Y-119222499D01*
X162911448Y-119167458D01*
X162804612Y-119037225D01*
X162804581Y-119037121D01*
X162713136Y-118925714D01*
X162666045Y-118868310D01*
X162665960Y-118868241D01*
X162665891Y-118868156D01*
X162607589Y-118820317D01*
X162497096Y-118729601D01*
X162496995Y-118729570D01*
X162361314Y-118618239D01*
X162311541Y-118577388D01*
X162311505Y-118577369D01*
X162311470Y-118577340D01*
X162250899Y-118544971D01*
X162099996Y-118464304D01*
X162099970Y-118464272D01*
X161977933Y-118399053D01*
X161907263Y-118361276D01*
X161907218Y-118361262D01*
X161907178Y-118361241D01*
X161833146Y-118338790D01*
X161698083Y-118297813D01*
X161698041Y-118297817D01*
X161528898Y-118246522D01*
X161468506Y-118228200D01*
X161468471Y-118228197D01*
X161468433Y-118228185D01*
X161400306Y-118221480D01*
X161229835Y-118204684D01*
X161229814Y-118204673D01*
X161094098Y-118191311D01*
X161012328Y-118183254D01*
X161012300Y-118183257D01*
X161012271Y-118183254D01*
X160930218Y-118191338D01*
X160794786Y-118204673D01*
X160794765Y-118204684D01*
X160624753Y-118221435D01*
X160556166Y-118228185D01*
X160556127Y-118228197D01*
X160556094Y-118228200D01*
X160497927Y-118245847D01*
X160326558Y-118297817D01*
X160326516Y-118297813D01*
X160191004Y-118338926D01*
X160117422Y-118361241D01*
X160117382Y-118361262D01*
X160117337Y-118361276D01*
X160046667Y-118399053D01*
X159924630Y-118464272D01*
X159924604Y-118464304D01*
X159772462Y-118545633D01*
X159713131Y-118577340D01*
X159713098Y-118577367D01*
X159713059Y-118577388D01*
X159661371Y-118619811D01*
X159527679Y-118729510D01*
X159527666Y-118729514D01*
X159437551Y-118803463D01*
X159358709Y-118868156D01*
X159358697Y-118868170D01*
X159358683Y-118868182D01*
X159303842Y-118935000D01*
X159220020Y-119037120D01*
X159220016Y-119037133D01*
X159206467Y-119053641D01*
X159206404Y-119053675D01*
X159113705Y-119166663D01*
X159067834Y-119222551D01*
X159067801Y-119222612D01*
X159067753Y-119222671D01*
X159030978Y-119291495D01*
X158964780Y-119415330D01*
X158964773Y-119415400D01*
X158884562Y-119565516D01*
X158851803Y-119626782D01*
X158851773Y-119626882D01*
X158851724Y-119626973D01*
X158832277Y-119691116D01*
X158782109Y-119856414D01*
X158782043Y-119856494D01*
X158740947Y-119992035D01*
X158735000Y-120011629D01*
X158735000Y-119644126D01*
X158577431Y-119263720D01*
X158485000Y-119171289D01*
X158485000Y-101425157D01*
X160675158Y-99235000D01*
X160805874Y-99235000D01*
X161186280Y-99077431D01*
X161477431Y-98786280D01*
X161635000Y-98405874D01*
X161635000Y-97994126D01*
X161477431Y-97613720D01*
X161186280Y-97322569D01*
X160805874Y-97165000D01*
X160394126Y-97165000D01*
X160013720Y-97322569D01*
X159722569Y-97613720D01*
X159565000Y-97994126D01*
X159565000Y-98124842D01*
X157199592Y-100490251D01*
X157134047Y-100534047D01*
X156960546Y-100793709D01*
X156915000Y-101022685D01*
X156915000Y-101022688D01*
X156899622Y-101100000D01*
X156915000Y-101177312D01*
X156915001Y-119171288D01*
X156822569Y-119263720D01*
X156665000Y-119644126D01*
X156665000Y-120055874D01*
X156822569Y-120436280D01*
X156940000Y-120553711D01*
X156940001Y-121014199D01*
X156547147Y-121407053D01*
X156435183Y-121168642D01*
X156006924Y-120778355D01*
X155596890Y-120608524D01*
X155367000Y-120729845D01*
X155367000Y-121923000D01*
X155387000Y-121923000D01*
X155387000Y-122177000D01*
X155367000Y-122177000D01*
X155367000Y-122197000D01*
X155113000Y-122197000D01*
X155113000Y-122177000D01*
X155093000Y-122177000D01*
X155093000Y-121923000D01*
X155113000Y-121923000D01*
X155113000Y-120729845D01*
X154883110Y-120608524D01*
X154473076Y-120778355D01*
X154044817Y-121168642D01*
X153983843Y-121298478D01*
X153770625Y-120979375D01*
X153279418Y-120651161D01*
X152846256Y-120565000D01*
X152553744Y-120565000D01*
X152120582Y-120651161D01*
X151629375Y-120979375D01*
X151430000Y-121277761D01*
X151230625Y-120979375D01*
X150922675Y-120773609D01*
X150920000Y-120760162D01*
X150920000Y-120760158D01*
X150875904Y-120538473D01*
X150707929Y-120287081D01*
X150644473Y-120244681D01*
X141309791Y-110910000D01*
X142046289Y-110910000D01*
X142163720Y-111027431D01*
X142544126Y-111185000D01*
X142955874Y-111185000D01*
X143336280Y-111027431D01*
X143627431Y-110736280D01*
X143785000Y-110355874D01*
X143785000Y-109944126D01*
X143627431Y-109563720D01*
X143336280Y-109272569D01*
X143262458Y-109241991D01*
X143262458Y-109031022D01*
X143104889Y-108650616D01*
X142813738Y-108359465D01*
X142633963Y-108285000D01*
X146077616Y-108285000D01*
X146150000Y-108299398D01*
X146222384Y-108285000D01*
X146222388Y-108285000D01*
X146436783Y-108242354D01*
X146679905Y-108079905D01*
X146720911Y-108018535D01*
X155754447Y-98985000D01*
X155955874Y-98985000D01*
X156336280Y-98827431D01*
X156627431Y-98536280D01*
X156785000Y-98155874D01*
X156785000Y-97744126D01*
X156646601Y-97410000D01*
X157696289Y-97410000D01*
X157813720Y-97527431D01*
X158194126Y-97685000D01*
X158605874Y-97685000D01*
X158986280Y-97527431D01*
X159277431Y-97236280D01*
X159435000Y-96855874D01*
X159435000Y-96444126D01*
X159277431Y-96063720D01*
X158986280Y-95772569D01*
X158605874Y-95615000D01*
X158194126Y-95615000D01*
X157813720Y-95772569D01*
X157696289Y-95890000D01*
X153497852Y-95890000D01*
X153423004Y-95875112D01*
X153348156Y-95890000D01*
X153348152Y-95890000D01*
X153126467Y-95934096D01*
X152875075Y-96102071D01*
X152832675Y-96165527D01*
X147433192Y-101565011D01*
X141035791Y-101565011D01*
X140960944Y-101550123D01*
X140886097Y-101565011D01*
X140886093Y-101565011D01*
X140664408Y-101609107D01*
X140413016Y-101777082D01*
X140370616Y-101840538D01*
X132710000Y-109501155D01*
X132710000Y-105654824D01*
X135148846Y-105676995D01*
X135198601Y-105667333D01*
X135239803Y-105639803D01*
X135267333Y-105598601D01*
X135277000Y-105550000D01*
X135277000Y-99850000D01*
X135267333Y-99801399D01*
X135239803Y-99760197D01*
X135198601Y-99732667D01*
X135150000Y-99723000D01*
X132977906Y-99723000D01*
X132985000Y-99705874D01*
X132985000Y-99294126D01*
X132827431Y-98913720D01*
X132573711Y-98660000D01*
X140175153Y-98660000D01*
X140250000Y-98674888D01*
X140324847Y-98660000D01*
X140324852Y-98660000D01*
X140546537Y-98615904D01*
X140667618Y-98535000D01*
X140855874Y-98535000D01*
X141236280Y-98377431D01*
X141527431Y-98086280D01*
X141685000Y-97705874D01*
X141685000Y-97535000D01*
X141955874Y-97535000D01*
X142336280Y-97377431D01*
X142627431Y-97086280D01*
X142785000Y-96705874D01*
X142785000Y-96294126D01*
X142627431Y-95913720D01*
X142510000Y-95796289D01*
X142510000Y-93034846D01*
X142524888Y-92959999D01*
X142510000Y-92885152D01*
X142510000Y-92885148D01*
X142465904Y-92663463D01*
X142400113Y-92565000D01*
X142340329Y-92475526D01*
X142340327Y-92475524D01*
X142297929Y-92412071D01*
X142234476Y-92369673D01*
X139958929Y-90094126D01*
X140665000Y-90094126D01*
X140665000Y-90505874D01*
X140822569Y-90886280D01*
X141113720Y-91177431D01*
X141494126Y-91335000D01*
X141905874Y-91335000D01*
X142286280Y-91177431D01*
X142577431Y-90886280D01*
X142735000Y-90505874D01*
X142735000Y-90339801D01*
X143064802Y-90010000D01*
X157696289Y-90010000D01*
X157813720Y-90127431D01*
X158194126Y-90285000D01*
X158605874Y-90285000D01*
X158986280Y-90127431D01*
X159277431Y-89836280D01*
X159435000Y-89455874D01*
X159435000Y-89044126D01*
X159277431Y-88663720D01*
X158986280Y-88372569D01*
X158605874Y-88215000D01*
X158194126Y-88215000D01*
X157813720Y-88372569D01*
X157696289Y-88490000D01*
X142824846Y-88490000D01*
X142749999Y-88475112D01*
X142675152Y-88490000D01*
X142675148Y-88490000D01*
X142453463Y-88534096D01*
X142202071Y-88702071D01*
X142159671Y-88765527D01*
X141660199Y-89265000D01*
X141494126Y-89265000D01*
X141113720Y-89422569D01*
X140822569Y-89713720D01*
X140665000Y-90094126D01*
X139958929Y-90094126D01*
X134849801Y-84985000D01*
X134976256Y-84985000D01*
X135409418Y-84898839D01*
X135900625Y-84570625D01*
X136100000Y-84272239D01*
X136299375Y-84570625D01*
X136790582Y-84898839D01*
X137223744Y-84985000D01*
X137516256Y-84985000D01*
X137736408Y-84941209D01*
X138390001Y-85594803D01*
X138390000Y-87096289D01*
X138272569Y-87213720D01*
X138115000Y-87594126D01*
X138115000Y-88005874D01*
X138272569Y-88386280D01*
X138563720Y-88677431D01*
X138944126Y-88835000D01*
X139355874Y-88835000D01*
X139736280Y-88677431D01*
X140027431Y-88386280D01*
X140185000Y-88005874D01*
X140185000Y-87594126D01*
X140027431Y-87213720D01*
X139910000Y-87096289D01*
X139910000Y-85354846D01*
X139924888Y-85279999D01*
X139910000Y-85205152D01*
X139910000Y-85205148D01*
X139866210Y-84985000D01*
X140056256Y-84985000D01*
X140489418Y-84898839D01*
X140980625Y-84570625D01*
X141180000Y-84272239D01*
X141379375Y-84570625D01*
X141870582Y-84898839D01*
X142303744Y-84985000D01*
X142596256Y-84985000D01*
X143029418Y-84898839D01*
X143520625Y-84570625D01*
X143720000Y-84272239D01*
X143919375Y-84570625D01*
X144410582Y-84898839D01*
X144843744Y-84985000D01*
X145136256Y-84985000D01*
X145569418Y-84898839D01*
X146060625Y-84570625D01*
X146260000Y-84272239D01*
X146459375Y-84570625D01*
X146950582Y-84898839D01*
X147383744Y-84985000D01*
X147676256Y-84985000D01*
X148109418Y-84898839D01*
X148600625Y-84570625D01*
X148800000Y-84272239D01*
X148999375Y-84570625D01*
X149490582Y-84898839D01*
X149923744Y-84985000D01*
X150216256Y-84985000D01*
X150649418Y-84898839D01*
X151140625Y-84570625D01*
X151340000Y-84272239D01*
X151539375Y-84570625D01*
X152030582Y-84898839D01*
X152463744Y-84985000D01*
X152756256Y-84985000D01*
X153189418Y-84898839D01*
X153680625Y-84570625D01*
X153893843Y-84251522D01*
X153954817Y-84381358D01*
X154383076Y-84771645D01*
X154793110Y-84941476D01*
X155023000Y-84820155D01*
X155023000Y-83627000D01*
X155277000Y-83627000D01*
X155277000Y-84820155D01*
X155506890Y-84941476D01*
X155916924Y-84771645D01*
X156345183Y-84381358D01*
X156591486Y-83856892D01*
X156470819Y-83627000D01*
X155277000Y-83627000D01*
X155023000Y-83627000D01*
X155003000Y-83627000D01*
X155003000Y-83373000D01*
X155023000Y-83373000D01*
X155023000Y-83353000D01*
X155277000Y-83353000D01*
X155277000Y-83373000D01*
X156470819Y-83373000D01*
X156591486Y-83143108D01*
X156345183Y-82618642D01*
X156295350Y-82573228D01*
X160894658Y-82576955D01*
X160894658Y-82576955D01*
G37*
X160894658Y-82576955D02*
X161513379Y-83241849D01*
X161468621Y-83228263D01*
X161468481Y-83228249D01*
X161468345Y-83228208D01*
X161398226Y-83221316D01*
X161229827Y-83204697D01*
X161229700Y-83204629D01*
X161086411Y-83190544D01*
X161012445Y-83183244D01*
X161012300Y-83183258D01*
X161012154Y-83183244D01*
X160938229Y-83190540D01*
X160794899Y-83204629D01*
X160794772Y-83204697D01*
X160626503Y-83221303D01*
X160556254Y-83228208D01*
X160556118Y-83228249D01*
X160555979Y-83228263D01*
X160488954Y-83248609D01*
X160326565Y-83297834D01*
X160326432Y-83297821D01*
X160186976Y-83340148D01*
X160117505Y-83361207D01*
X160117390Y-83361269D01*
X160117260Y-83361308D01*
X160050744Y-83396874D01*
X159924701Y-83464214D01*
X159924618Y-83464315D01*
X159775613Y-83543989D01*
X159713252Y-83577299D01*
X159713130Y-83577399D01*
X159712990Y-83577474D01*
X159658636Y-83622096D01*
X159527728Y-83729467D01*
X159527613Y-83729502D01*
X159416322Y-83820843D01*
X159358812Y-83868013D01*
X159358735Y-83868107D01*
X159358641Y-83868184D01*
X159311703Y-83925382D01*
X159220089Y-84036950D01*
X159220054Y-84037065D01*
X159206443Y-84053652D01*
X159206413Y-84053668D01*
X159117363Y-84162204D01*
X159067801Y-84222600D01*
X159067784Y-84222631D01*
X159067759Y-84222662D01*
X159027815Y-84297416D01*
X158964763Y-84415388D01*
X158964760Y-84415420D01*
X158885316Y-84564096D01*
X158851793Y-84626797D01*
X158851768Y-84626879D01*
X158851729Y-84626952D01*
X158832262Y-84691156D01*
X158782101Y-84856451D01*
X158782046Y-84856518D01*
X158740945Y-84992072D01*
X158718652Y-85065534D01*
X158718643Y-85065622D01*
X158718617Y-85065709D01*
X158711204Y-85141068D01*
X158697202Y-85283074D01*
X158697227Y-85283157D01*
X158680470Y-85453513D01*
X158673744Y-85521712D01*
X158673753Y-85521800D01*
X158673744Y-85521888D01*
X158680470Y-85590087D01*
X158697227Y-85760443D01*
X158697202Y-85760526D01*
X158711204Y-85902532D01*
X158718617Y-85977891D01*
X158718643Y-85977978D01*
X158718652Y-85978066D01*
X158740289Y-86049367D01*
X158782046Y-86187082D01*
X158782101Y-86187149D01*
X158831802Y-86350926D01*
X158851729Y-86416648D01*
X158851768Y-86416721D01*
X158851793Y-86416803D01*
X158884449Y-86477883D01*
X158964760Y-86628180D01*
X158964763Y-86628212D01*
X159026715Y-86744126D01*
X159067759Y-86820938D01*
X159067784Y-86820969D01*
X159067801Y-86821000D01*
X159116115Y-86879875D01*
X159206413Y-86989932D01*
X159206443Y-86989948D01*
X159219994Y-87006462D01*
X159220002Y-87006487D01*
X159306772Y-87112209D01*
X159358641Y-87175416D01*
X159358665Y-87175435D01*
X159358684Y-87175459D01*
X159421891Y-87227328D01*
X159527613Y-87314098D01*
X159527638Y-87314106D01*
X159544152Y-87327657D01*
X159544168Y-87327687D01*
X159654202Y-87417966D01*
X159713100Y-87466299D01*
X159713131Y-87466316D01*
X159713162Y-87466341D01*
X159787726Y-87506184D01*
X159905887Y-87569337D01*
X159905919Y-87569340D01*
X160058459Y-87650849D01*
X160117297Y-87682307D01*
X160117374Y-87682330D01*
X160117452Y-87682372D01*
X160185980Y-87703150D01*
X160346951Y-87751999D01*
X160347018Y-87752054D01*
X160483733Y-87793507D01*
X160556033Y-87815448D01*
X160556123Y-87815457D01*
X160556209Y-87815483D01*
X160632645Y-87823002D01*
X160773573Y-87836897D01*
X160773654Y-87836872D01*
X160944013Y-87853630D01*
X161012212Y-87860356D01*
X161012300Y-87860347D01*
X161012388Y-87860356D01*
X161080587Y-87853630D01*
X161250943Y-87836873D01*
X161251026Y-87836898D01*
X161393032Y-87822896D01*
X161468391Y-87815483D01*
X161468478Y-87815457D01*
X161468566Y-87815448D01*
X161539867Y-87793811D01*
X161677582Y-87752054D01*
X161677649Y-87751999D01*
X161841426Y-87702298D01*
X161907148Y-87682371D01*
X161907221Y-87682332D01*
X161907303Y-87682307D01*
X161968383Y-87649651D01*
X162118680Y-87569340D01*
X162118712Y-87569337D01*
X162236684Y-87506285D01*
X162311438Y-87466341D01*
X162311469Y-87466316D01*
X162311500Y-87466299D01*
X162370398Y-87417966D01*
X162480432Y-87327687D01*
X162480448Y-87327657D01*
X162497035Y-87314046D01*
X162497150Y-87314011D01*
X162608718Y-87222397D01*
X162665916Y-87175459D01*
X162665993Y-87175365D01*
X162666087Y-87175288D01*
X162713257Y-87117778D01*
X162804598Y-87006487D01*
X162804633Y-87006372D01*
X162912004Y-86875464D01*
X162956626Y-86821110D01*
X162956701Y-86820970D01*
X162956801Y-86820848D01*
X162990111Y-86758487D01*
X163069785Y-86609482D01*
X163069886Y-86609399D01*
X163137226Y-86483356D01*
X163172792Y-86416840D01*
X163172831Y-86416710D01*
X163172893Y-86416595D01*
X163194130Y-86346538D01*
X163236279Y-86207668D01*
X163236266Y-86207535D01*
X163285491Y-86045146D01*
X163305837Y-85978121D01*
X163305851Y-85977982D01*
X163305892Y-85977846D01*
X163312816Y-85907407D01*
X163329403Y-85739327D01*
X163329471Y-85739200D01*
X163343535Y-85596125D01*
X163350856Y-85521946D01*
X163350842Y-85521800D01*
X163350856Y-85521654D01*
X163343535Y-85447475D01*
X163329471Y-85304400D01*
X163329403Y-85304273D01*
X163317163Y-85180244D01*
X164172852Y-86099791D01*
X164073127Y-119657237D01*
X163340550Y-120626493D01*
X163343525Y-120596231D01*
X163350856Y-120521935D01*
X163350843Y-120521798D01*
X163350856Y-120521661D01*
X163343524Y-120447354D01*
X163329468Y-120304388D01*
X163329404Y-120304269D01*
X163312697Y-120134951D01*
X163305887Y-120065697D01*
X163305851Y-120065579D01*
X163305839Y-120065455D01*
X163285543Y-119998592D01*
X163236269Y-119836066D01*
X163236280Y-119835954D01*
X163194718Y-119699012D01*
X163172883Y-119626990D01*
X163172828Y-119626888D01*
X163172796Y-119626781D01*
X163137972Y-119561652D01*
X163069868Y-119434189D01*
X163069782Y-119434118D01*
X162989354Y-119283697D01*
X162956767Y-119222702D01*
X162956691Y-119222609D01*
X162956632Y-119222499D01*
X162911448Y-119167458D01*
X162804612Y-119037225D01*
X162804581Y-119037121D01*
X162713136Y-118925714D01*
X162666045Y-118868310D01*
X162665960Y-118868241D01*
X162665891Y-118868156D01*
X162607589Y-118820317D01*
X162497096Y-118729601D01*
X162496995Y-118729570D01*
X162361314Y-118618239D01*
X162311541Y-118577388D01*
X162311505Y-118577369D01*
X162311470Y-118577340D01*
X162250899Y-118544971D01*
X162099996Y-118464304D01*
X162099970Y-118464272D01*
X161977933Y-118399053D01*
X161907263Y-118361276D01*
X161907218Y-118361262D01*
X161907178Y-118361241D01*
X161833146Y-118338790D01*
X161698083Y-118297813D01*
X161698041Y-118297817D01*
X161528898Y-118246522D01*
X161468506Y-118228200D01*
X161468471Y-118228197D01*
X161468433Y-118228185D01*
X161400306Y-118221480D01*
X161229835Y-118204684D01*
X161229814Y-118204673D01*
X161094098Y-118191311D01*
X161012328Y-118183254D01*
X161012300Y-118183257D01*
X161012271Y-118183254D01*
X160930218Y-118191338D01*
X160794786Y-118204673D01*
X160794765Y-118204684D01*
X160624753Y-118221435D01*
X160556166Y-118228185D01*
X160556127Y-118228197D01*
X160556094Y-118228200D01*
X160497927Y-118245847D01*
X160326558Y-118297817D01*
X160326516Y-118297813D01*
X160191004Y-118338926D01*
X160117422Y-118361241D01*
X160117382Y-118361262D01*
X160117337Y-118361276D01*
X160046667Y-118399053D01*
X159924630Y-118464272D01*
X159924604Y-118464304D01*
X159772462Y-118545633D01*
X159713131Y-118577340D01*
X159713098Y-118577367D01*
X159713059Y-118577388D01*
X159661371Y-118619811D01*
X159527679Y-118729510D01*
X159527666Y-118729514D01*
X159437551Y-118803463D01*
X159358709Y-118868156D01*
X159358697Y-118868170D01*
X159358683Y-118868182D01*
X159303842Y-118935000D01*
X159220020Y-119037120D01*
X159220016Y-119037133D01*
X159206467Y-119053641D01*
X159206404Y-119053675D01*
X159113705Y-119166663D01*
X159067834Y-119222551D01*
X159067801Y-119222612D01*
X159067753Y-119222671D01*
X159030978Y-119291495D01*
X158964780Y-119415330D01*
X158964773Y-119415400D01*
X158884562Y-119565516D01*
X158851803Y-119626782D01*
X158851773Y-119626882D01*
X158851724Y-119626973D01*
X158832277Y-119691116D01*
X158782109Y-119856414D01*
X158782043Y-119856494D01*
X158740947Y-119992035D01*
X158735000Y-120011629D01*
X158735000Y-119644126D01*
X158577431Y-119263720D01*
X158485000Y-119171289D01*
X158485000Y-101425157D01*
X160675158Y-99235000D01*
X160805874Y-99235000D01*
X161186280Y-99077431D01*
X161477431Y-98786280D01*
X161635000Y-98405874D01*
X161635000Y-97994126D01*
X161477431Y-97613720D01*
X161186280Y-97322569D01*
X160805874Y-97165000D01*
X160394126Y-97165000D01*
X160013720Y-97322569D01*
X159722569Y-97613720D01*
X159565000Y-97994126D01*
X159565000Y-98124842D01*
X157199592Y-100490251D01*
X157134047Y-100534047D01*
X156960546Y-100793709D01*
X156915000Y-101022685D01*
X156915000Y-101022688D01*
X156899622Y-101100000D01*
X156915000Y-101177312D01*
X156915001Y-119171288D01*
X156822569Y-119263720D01*
X156665000Y-119644126D01*
X156665000Y-120055874D01*
X156822569Y-120436280D01*
X156940000Y-120553711D01*
X156940001Y-121014199D01*
X156547147Y-121407053D01*
X156435183Y-121168642D01*
X156006924Y-120778355D01*
X155596890Y-120608524D01*
X155367000Y-120729845D01*
X155367000Y-121923000D01*
X155387000Y-121923000D01*
X155387000Y-122177000D01*
X155367000Y-122177000D01*
X155367000Y-122197000D01*
X155113000Y-122197000D01*
X155113000Y-122177000D01*
X155093000Y-122177000D01*
X155093000Y-121923000D01*
X155113000Y-121923000D01*
X155113000Y-120729845D01*
X154883110Y-120608524D01*
X154473076Y-120778355D01*
X154044817Y-121168642D01*
X153983843Y-121298478D01*
X153770625Y-120979375D01*
X153279418Y-120651161D01*
X152846256Y-120565000D01*
X152553744Y-120565000D01*
X152120582Y-120651161D01*
X151629375Y-120979375D01*
X151430000Y-121277761D01*
X151230625Y-120979375D01*
X150922675Y-120773609D01*
X150920000Y-120760162D01*
X150920000Y-120760158D01*
X150875904Y-120538473D01*
X150707929Y-120287081D01*
X150644473Y-120244681D01*
X141309791Y-110910000D01*
X142046289Y-110910000D01*
X142163720Y-111027431D01*
X142544126Y-111185000D01*
X142955874Y-111185000D01*
X143336280Y-111027431D01*
X143627431Y-110736280D01*
X143785000Y-110355874D01*
X143785000Y-109944126D01*
X143627431Y-109563720D01*
X143336280Y-109272569D01*
X143262458Y-109241991D01*
X143262458Y-109031022D01*
X143104889Y-108650616D01*
X142813738Y-108359465D01*
X142633963Y-108285000D01*
X146077616Y-108285000D01*
X146150000Y-108299398D01*
X146222384Y-108285000D01*
X146222388Y-108285000D01*
X146436783Y-108242354D01*
X146679905Y-108079905D01*
X146720911Y-108018535D01*
X155754447Y-98985000D01*
X155955874Y-98985000D01*
X156336280Y-98827431D01*
X156627431Y-98536280D01*
X156785000Y-98155874D01*
X156785000Y-97744126D01*
X156646601Y-97410000D01*
X157696289Y-97410000D01*
X157813720Y-97527431D01*
X158194126Y-97685000D01*
X158605874Y-97685000D01*
X158986280Y-97527431D01*
X159277431Y-97236280D01*
X159435000Y-96855874D01*
X159435000Y-96444126D01*
X159277431Y-96063720D01*
X158986280Y-95772569D01*
X158605874Y-95615000D01*
X158194126Y-95615000D01*
X157813720Y-95772569D01*
X157696289Y-95890000D01*
X153497852Y-95890000D01*
X153423004Y-95875112D01*
X153348156Y-95890000D01*
X153348152Y-95890000D01*
X153126467Y-95934096D01*
X152875075Y-96102071D01*
X152832675Y-96165527D01*
X147433192Y-101565011D01*
X141035791Y-101565011D01*
X140960944Y-101550123D01*
X140886097Y-101565011D01*
X140886093Y-101565011D01*
X140664408Y-101609107D01*
X140413016Y-101777082D01*
X140370616Y-101840538D01*
X132710000Y-109501155D01*
X132710000Y-105654824D01*
X135148846Y-105676995D01*
X135198601Y-105667333D01*
X135239803Y-105639803D01*
X135267333Y-105598601D01*
X135277000Y-105550000D01*
X135277000Y-99850000D01*
X135267333Y-99801399D01*
X135239803Y-99760197D01*
X135198601Y-99732667D01*
X135150000Y-99723000D01*
X132977906Y-99723000D01*
X132985000Y-99705874D01*
X132985000Y-99294126D01*
X132827431Y-98913720D01*
X132573711Y-98660000D01*
X140175153Y-98660000D01*
X140250000Y-98674888D01*
X140324847Y-98660000D01*
X140324852Y-98660000D01*
X140546537Y-98615904D01*
X140667618Y-98535000D01*
X140855874Y-98535000D01*
X141236280Y-98377431D01*
X141527431Y-98086280D01*
X141685000Y-97705874D01*
X141685000Y-97535000D01*
X141955874Y-97535000D01*
X142336280Y-97377431D01*
X142627431Y-97086280D01*
X142785000Y-96705874D01*
X142785000Y-96294126D01*
X142627431Y-95913720D01*
X142510000Y-95796289D01*
X142510000Y-93034846D01*
X142524888Y-92959999D01*
X142510000Y-92885152D01*
X142510000Y-92885148D01*
X142465904Y-92663463D01*
X142400113Y-92565000D01*
X142340329Y-92475526D01*
X142340327Y-92475524D01*
X142297929Y-92412071D01*
X142234476Y-92369673D01*
X139958929Y-90094126D01*
X140665000Y-90094126D01*
X140665000Y-90505874D01*
X140822569Y-90886280D01*
X141113720Y-91177431D01*
X141494126Y-91335000D01*
X141905874Y-91335000D01*
X142286280Y-91177431D01*
X142577431Y-90886280D01*
X142735000Y-90505874D01*
X142735000Y-90339801D01*
X143064802Y-90010000D01*
X157696289Y-90010000D01*
X157813720Y-90127431D01*
X158194126Y-90285000D01*
X158605874Y-90285000D01*
X158986280Y-90127431D01*
X159277431Y-89836280D01*
X159435000Y-89455874D01*
X159435000Y-89044126D01*
X159277431Y-88663720D01*
X158986280Y-88372569D01*
X158605874Y-88215000D01*
X158194126Y-88215000D01*
X157813720Y-88372569D01*
X157696289Y-88490000D01*
X142824846Y-88490000D01*
X142749999Y-88475112D01*
X142675152Y-88490000D01*
X142675148Y-88490000D01*
X142453463Y-88534096D01*
X142202071Y-88702071D01*
X142159671Y-88765527D01*
X141660199Y-89265000D01*
X141494126Y-89265000D01*
X141113720Y-89422569D01*
X140822569Y-89713720D01*
X140665000Y-90094126D01*
X139958929Y-90094126D01*
X134849801Y-84985000D01*
X134976256Y-84985000D01*
X135409418Y-84898839D01*
X135900625Y-84570625D01*
X136100000Y-84272239D01*
X136299375Y-84570625D01*
X136790582Y-84898839D01*
X137223744Y-84985000D01*
X137516256Y-84985000D01*
X137736408Y-84941209D01*
X138390001Y-85594803D01*
X138390000Y-87096289D01*
X138272569Y-87213720D01*
X138115000Y-87594126D01*
X138115000Y-88005874D01*
X138272569Y-88386280D01*
X138563720Y-88677431D01*
X138944126Y-88835000D01*
X139355874Y-88835000D01*
X139736280Y-88677431D01*
X140027431Y-88386280D01*
X140185000Y-88005874D01*
X140185000Y-87594126D01*
X140027431Y-87213720D01*
X139910000Y-87096289D01*
X139910000Y-85354846D01*
X139924888Y-85279999D01*
X139910000Y-85205152D01*
X139910000Y-85205148D01*
X139866210Y-84985000D01*
X140056256Y-84985000D01*
X140489418Y-84898839D01*
X140980625Y-84570625D01*
X141180000Y-84272239D01*
X141379375Y-84570625D01*
X141870582Y-84898839D01*
X142303744Y-84985000D01*
X142596256Y-84985000D01*
X143029418Y-84898839D01*
X143520625Y-84570625D01*
X143720000Y-84272239D01*
X143919375Y-84570625D01*
X144410582Y-84898839D01*
X144843744Y-84985000D01*
X145136256Y-84985000D01*
X145569418Y-84898839D01*
X146060625Y-84570625D01*
X146260000Y-84272239D01*
X146459375Y-84570625D01*
X146950582Y-84898839D01*
X147383744Y-84985000D01*
X147676256Y-84985000D01*
X148109418Y-84898839D01*
X148600625Y-84570625D01*
X148800000Y-84272239D01*
X148999375Y-84570625D01*
X149490582Y-84898839D01*
X149923744Y-84985000D01*
X150216256Y-84985000D01*
X150649418Y-84898839D01*
X151140625Y-84570625D01*
X151340000Y-84272239D01*
X151539375Y-84570625D01*
X152030582Y-84898839D01*
X152463744Y-84985000D01*
X152756256Y-84985000D01*
X153189418Y-84898839D01*
X153680625Y-84570625D01*
X153893843Y-84251522D01*
X153954817Y-84381358D01*
X154383076Y-84771645D01*
X154793110Y-84941476D01*
X155023000Y-84820155D01*
X155023000Y-83627000D01*
X155277000Y-83627000D01*
X155277000Y-84820155D01*
X155506890Y-84941476D01*
X155916924Y-84771645D01*
X156345183Y-84381358D01*
X156591486Y-83856892D01*
X156470819Y-83627000D01*
X155277000Y-83627000D01*
X155023000Y-83627000D01*
X155003000Y-83627000D01*
X155003000Y-83373000D01*
X155023000Y-83373000D01*
X155023000Y-83353000D01*
X155277000Y-83353000D01*
X155277000Y-83373000D01*
X156470819Y-83373000D01*
X156591486Y-83143108D01*
X156345183Y-82618642D01*
X156295350Y-82573228D01*
X160894658Y-82576955D01*
G36*
X127640000Y-100396289D02*
X127522569Y-100513720D01*
X127365000Y-100894126D01*
X127365000Y-101305874D01*
X127522569Y-101686280D01*
X127813720Y-101977431D01*
X128194126Y-102135000D01*
X128605874Y-102135000D01*
X128986280Y-101977431D01*
X129277431Y-101686280D01*
X129435000Y-101305874D01*
X129435000Y-100894126D01*
X129277431Y-100513720D01*
X129160000Y-100396289D01*
X129160000Y-98723711D01*
X129213720Y-98777431D01*
X129594126Y-98935000D01*
X129901289Y-98935000D01*
X129872569Y-98963720D01*
X129715000Y-99344126D01*
X129715000Y-99723000D01*
X129650000Y-99723000D01*
X129601399Y-99732667D01*
X129560197Y-99760197D01*
X129532667Y-99801399D01*
X129523000Y-99850000D01*
X129523000Y-105500000D01*
X129532230Y-105547532D01*
X129559385Y-105588982D01*
X129600335Y-105616886D01*
X129648846Y-105626995D01*
X130015000Y-105630324D01*
X130015001Y-117077611D01*
X130000602Y-117150000D01*
X130057646Y-117436782D01*
X130057647Y-117436783D01*
X130220096Y-117679905D01*
X130281463Y-117720909D01*
X131665000Y-119104447D01*
X131665000Y-119305874D01*
X131822569Y-119686280D01*
X132113720Y-119977431D01*
X132494126Y-120135000D01*
X132905874Y-120135000D01*
X133286280Y-119977431D01*
X133403711Y-119860000D01*
X144355199Y-119860000D01*
X145060199Y-120565000D01*
X144933744Y-120565000D01*
X144500582Y-120651161D01*
X144009375Y-120979375D01*
X143810000Y-121277761D01*
X143610625Y-120979375D01*
X143119418Y-120651161D01*
X142686256Y-120565000D01*
X142393744Y-120565000D01*
X141960582Y-120651161D01*
X141469375Y-120979375D01*
X141270000Y-121277761D01*
X141070625Y-120979375D01*
X140579418Y-120651161D01*
X140146256Y-120565000D01*
X139853744Y-120565000D01*
X139420582Y-120651161D01*
X138929375Y-120979375D01*
X138730000Y-121277761D01*
X138530625Y-120979375D01*
X138039418Y-120651161D01*
X137606256Y-120565000D01*
X137313744Y-120565000D01*
X136880582Y-120651161D01*
X136389375Y-120979375D01*
X136190000Y-121277761D01*
X135990625Y-120979375D01*
X135499418Y-120651161D01*
X135066256Y-120565000D01*
X134773744Y-120565000D01*
X134340582Y-120651161D01*
X133849375Y-120979375D01*
X133636157Y-121298478D01*
X133575183Y-121168642D01*
X133146924Y-120778355D01*
X132736890Y-120608524D01*
X132507000Y-120729845D01*
X132507000Y-121923000D01*
X132527000Y-121923000D01*
X132527000Y-122177000D01*
X132507000Y-122177000D01*
X132507000Y-122197000D01*
X132253000Y-122197000D01*
X132253000Y-122177000D01*
X132233000Y-122177000D01*
X132233000Y-121923000D01*
X132253000Y-121923000D01*
X132253000Y-120729845D01*
X132023110Y-120608524D01*
X131613076Y-120778355D01*
X131184817Y-121168642D01*
X131123843Y-121298478D01*
X130910625Y-120979375D01*
X130687904Y-120830557D01*
X130675000Y-120765685D01*
X130675000Y-120765682D01*
X130626552Y-120522118D01*
X130442001Y-120245918D01*
X130413275Y-120226724D01*
X130394081Y-120197998D01*
X130117881Y-120013447D01*
X129874317Y-119964999D01*
X129874313Y-119964999D01*
X129792080Y-119948642D01*
X129709847Y-119964999D01*
X111492238Y-119964999D01*
X111410001Y-119948641D01*
X111327764Y-119964999D01*
X111084200Y-120013447D01*
X110945000Y-120106457D01*
X110945000Y-108351863D01*
X110966576Y-108330287D01*
X111113720Y-108477431D01*
X111494126Y-108635000D01*
X111905874Y-108635000D01*
X112286280Y-108477431D01*
X112577431Y-108186280D01*
X112735000Y-107805874D01*
X112735000Y-107639801D01*
X116537433Y-103837369D01*
X116500110Y-104025002D01*
X116514999Y-104099854D01*
X116514998Y-117400151D01*
X116500110Y-117474998D01*
X116514998Y-117549845D01*
X116514998Y-117549849D01*
X116559094Y-117771534D01*
X116665000Y-117930034D01*
X116665000Y-118105874D01*
X116822569Y-118486280D01*
X117113720Y-118777431D01*
X117494126Y-118935000D01*
X117905874Y-118935000D01*
X118286280Y-118777431D01*
X118577431Y-118486280D01*
X118735000Y-118105874D01*
X118735000Y-117694126D01*
X118577431Y-117313720D01*
X118286280Y-117022569D01*
X118034998Y-116918485D01*
X118034998Y-106077666D01*
X118294126Y-106185000D01*
X118460199Y-106185000D01*
X124559671Y-112284473D01*
X124602072Y-112347930D01*
X124853464Y-112515905D01*
X125075149Y-112560001D01*
X125075153Y-112560001D01*
X125079173Y-112560801D01*
X125172569Y-112786280D01*
X125463720Y-113077431D01*
X125844126Y-113235000D01*
X126255874Y-113235000D01*
X126636280Y-113077431D01*
X126927431Y-112786280D01*
X127085000Y-112405874D01*
X127085000Y-111994126D01*
X127005541Y-111802295D01*
X127186280Y-111727431D01*
X127477431Y-111436280D01*
X127635000Y-111055874D01*
X127635000Y-110644126D01*
X127477431Y-110263720D01*
X127186280Y-109972569D01*
X126805874Y-109815000D01*
X126394126Y-109815000D01*
X126013720Y-109972569D01*
X125896289Y-110090000D01*
X125540122Y-110090000D01*
X120847660Y-105397539D01*
X120847660Y-105231466D01*
X120690091Y-104851060D01*
X120398940Y-104559909D01*
X120018534Y-104402340D01*
X119606786Y-104402340D01*
X119330494Y-104516783D01*
X119086280Y-104272569D01*
X118705874Y-104115000D01*
X118294126Y-104115000D01*
X118235530Y-104139271D01*
X119189802Y-103185000D01*
X119355874Y-103185000D01*
X119736280Y-103027431D01*
X120027431Y-102736280D01*
X120185000Y-102355874D01*
X120185000Y-102184999D01*
X123384469Y-102184999D01*
X123459316Y-102199887D01*
X123534163Y-102184999D01*
X123534168Y-102184999D01*
X123755853Y-102140903D01*
X124007245Y-101972928D01*
X124049647Y-101909469D01*
X127640001Y-98319116D01*
X127640000Y-100396289D01*
X127640000Y-100396289D01*
G37*
X127640000Y-100396289D02*
X127522569Y-100513720D01*
X127365000Y-100894126D01*
X127365000Y-101305874D01*
X127522569Y-101686280D01*
X127813720Y-101977431D01*
X128194126Y-102135000D01*
X128605874Y-102135000D01*
X128986280Y-101977431D01*
X129277431Y-101686280D01*
X129435000Y-101305874D01*
X129435000Y-100894126D01*
X129277431Y-100513720D01*
X129160000Y-100396289D01*
X129160000Y-98723711D01*
X129213720Y-98777431D01*
X129594126Y-98935000D01*
X129901289Y-98935000D01*
X129872569Y-98963720D01*
X129715000Y-99344126D01*
X129715000Y-99723000D01*
X129650000Y-99723000D01*
X129601399Y-99732667D01*
X129560197Y-99760197D01*
X129532667Y-99801399D01*
X129523000Y-99850000D01*
X129523000Y-105500000D01*
X129532230Y-105547532D01*
X129559385Y-105588982D01*
X129600335Y-105616886D01*
X129648846Y-105626995D01*
X130015000Y-105630324D01*
X130015001Y-117077611D01*
X130000602Y-117150000D01*
X130057646Y-117436782D01*
X130057647Y-117436783D01*
X130220096Y-117679905D01*
X130281463Y-117720909D01*
X131665000Y-119104447D01*
X131665000Y-119305874D01*
X131822569Y-119686280D01*
X132113720Y-119977431D01*
X132494126Y-120135000D01*
X132905874Y-120135000D01*
X133286280Y-119977431D01*
X133403711Y-119860000D01*
X144355199Y-119860000D01*
X145060199Y-120565000D01*
X144933744Y-120565000D01*
X144500582Y-120651161D01*
X144009375Y-120979375D01*
X143810000Y-121277761D01*
X143610625Y-120979375D01*
X143119418Y-120651161D01*
X142686256Y-120565000D01*
X142393744Y-120565000D01*
X141960582Y-120651161D01*
X141469375Y-120979375D01*
X141270000Y-121277761D01*
X141070625Y-120979375D01*
X140579418Y-120651161D01*
X140146256Y-120565000D01*
X139853744Y-120565000D01*
X139420582Y-120651161D01*
X138929375Y-120979375D01*
X138730000Y-121277761D01*
X138530625Y-120979375D01*
X138039418Y-120651161D01*
X137606256Y-120565000D01*
X137313744Y-120565000D01*
X136880582Y-120651161D01*
X136389375Y-120979375D01*
X136190000Y-121277761D01*
X135990625Y-120979375D01*
X135499418Y-120651161D01*
X135066256Y-120565000D01*
X134773744Y-120565000D01*
X134340582Y-120651161D01*
X133849375Y-120979375D01*
X133636157Y-121298478D01*
X133575183Y-121168642D01*
X133146924Y-120778355D01*
X132736890Y-120608524D01*
X132507000Y-120729845D01*
X132507000Y-121923000D01*
X132527000Y-121923000D01*
X132527000Y-122177000D01*
X132507000Y-122177000D01*
X132507000Y-122197000D01*
X132253000Y-122197000D01*
X132253000Y-122177000D01*
X132233000Y-122177000D01*
X132233000Y-121923000D01*
X132253000Y-121923000D01*
X132253000Y-120729845D01*
X132023110Y-120608524D01*
X131613076Y-120778355D01*
X131184817Y-121168642D01*
X131123843Y-121298478D01*
X130910625Y-120979375D01*
X130687904Y-120830557D01*
X130675000Y-120765685D01*
X130675000Y-120765682D01*
X130626552Y-120522118D01*
X130442001Y-120245918D01*
X130413275Y-120226724D01*
X130394081Y-120197998D01*
X130117881Y-120013447D01*
X129874317Y-119964999D01*
X129874313Y-119964999D01*
X129792080Y-119948642D01*
X129709847Y-119964999D01*
X111492238Y-119964999D01*
X111410001Y-119948641D01*
X111327764Y-119964999D01*
X111084200Y-120013447D01*
X110945000Y-120106457D01*
X110945000Y-108351863D01*
X110966576Y-108330287D01*
X111113720Y-108477431D01*
X111494126Y-108635000D01*
X111905874Y-108635000D01*
X112286280Y-108477431D01*
X112577431Y-108186280D01*
X112735000Y-107805874D01*
X112735000Y-107639801D01*
X116537433Y-103837369D01*
X116500110Y-104025002D01*
X116514999Y-104099854D01*
X116514998Y-117400151D01*
X116500110Y-117474998D01*
X116514998Y-117549845D01*
X116514998Y-117549849D01*
X116559094Y-117771534D01*
X116665000Y-117930034D01*
X116665000Y-118105874D01*
X116822569Y-118486280D01*
X117113720Y-118777431D01*
X117494126Y-118935000D01*
X117905874Y-118935000D01*
X118286280Y-118777431D01*
X118577431Y-118486280D01*
X118735000Y-118105874D01*
X118735000Y-117694126D01*
X118577431Y-117313720D01*
X118286280Y-117022569D01*
X118034998Y-116918485D01*
X118034998Y-106077666D01*
X118294126Y-106185000D01*
X118460199Y-106185000D01*
X124559671Y-112284473D01*
X124602072Y-112347930D01*
X124853464Y-112515905D01*
X125075149Y-112560001D01*
X125075153Y-112560001D01*
X125079173Y-112560801D01*
X125172569Y-112786280D01*
X125463720Y-113077431D01*
X125844126Y-113235000D01*
X126255874Y-113235000D01*
X126636280Y-113077431D01*
X126927431Y-112786280D01*
X127085000Y-112405874D01*
X127085000Y-111994126D01*
X127005541Y-111802295D01*
X127186280Y-111727431D01*
X127477431Y-111436280D01*
X127635000Y-111055874D01*
X127635000Y-110644126D01*
X127477431Y-110263720D01*
X127186280Y-109972569D01*
X126805874Y-109815000D01*
X126394126Y-109815000D01*
X126013720Y-109972569D01*
X125896289Y-110090000D01*
X125540122Y-110090000D01*
X120847660Y-105397539D01*
X120847660Y-105231466D01*
X120690091Y-104851060D01*
X120398940Y-104559909D01*
X120018534Y-104402340D01*
X119606786Y-104402340D01*
X119330494Y-104516783D01*
X119086280Y-104272569D01*
X118705874Y-104115000D01*
X118294126Y-104115000D01*
X118235530Y-104139271D01*
X119189802Y-103185000D01*
X119355874Y-103185000D01*
X119736280Y-103027431D01*
X120027431Y-102736280D01*
X120185000Y-102355874D01*
X120185000Y-102184999D01*
X123384469Y-102184999D01*
X123459316Y-102199887D01*
X123534163Y-102184999D01*
X123534168Y-102184999D01*
X123755853Y-102140903D01*
X124007245Y-101972928D01*
X124049647Y-101909469D01*
X127640001Y-98319116D01*
X127640000Y-100396289D01*
M02*
