G04 #@! TF.GenerationSoftware,KiCad,Pcbnew,5.0.0-rc2-dev-unknown-e0e0687~62~ubuntu16.04.1*
G04 #@! TF.CreationDate,2018-03-18T12:36:43+01:00*
G04 #@! TF.ProjectId,GhostESP32,47686F737445535033322E6B69636164,rev?*
G04 #@! TF.SameCoordinates,Original*
G04 #@! TF.FileFunction,Legend,Bot*
G04 #@! TF.FilePolarity,Positive*
%FSLAX46Y46*%
G04 Gerber Fmt 4.6, Leading zero omitted, Abs format (unit mm)*
G04 Created by KiCad (PCBNEW 5.0.0-rc2-dev-unknown-e0e0687~62~ubuntu16.04.1) date Sun Mar 18 12:36:43 2018*
%MOMM*%
%LPD*%
G01*
G04 APERTURE LIST*
%ADD10C,0.300000*%
G04 APERTURE END LIST*
D10*
X154550000Y-86307142D02*
X154478571Y-86164285D01*
X154478571Y-85950000D01*
X154550000Y-85735714D01*
X154692857Y-85592857D01*
X154835714Y-85521428D01*
X155121428Y-85450000D01*
X155335714Y-85450000D01*
X155621428Y-85521428D01*
X155764285Y-85592857D01*
X155907142Y-85735714D01*
X155978571Y-85950000D01*
X155978571Y-86092857D01*
X155907142Y-86307142D01*
X155835714Y-86378571D01*
X155335714Y-86378571D01*
X155335714Y-86092857D01*
X155978571Y-87021428D02*
X154478571Y-87021428D01*
X155978571Y-87878571D01*
X154478571Y-87878571D01*
X155978571Y-88592857D02*
X154478571Y-88592857D01*
X154478571Y-88950000D01*
X154550000Y-89164285D01*
X154692857Y-89307142D01*
X154835714Y-89378571D01*
X155121428Y-89450000D01*
X155335714Y-89450000D01*
X155621428Y-89378571D01*
X155764285Y-89307142D01*
X155907142Y-89164285D01*
X155978571Y-88950000D01*
X155978571Y-88592857D01*
X153428571Y-85471428D02*
X151928571Y-85471428D01*
X151928571Y-86042857D02*
X151928571Y-86971428D01*
X152500000Y-86471428D01*
X152500000Y-86685714D01*
X152571428Y-86828571D01*
X152642857Y-86900000D01*
X152785714Y-86971428D01*
X153142857Y-86971428D01*
X153285714Y-86900000D01*
X153357142Y-86828571D01*
X153428571Y-86685714D01*
X153428571Y-86257142D01*
X153357142Y-86114285D01*
X153285714Y-86042857D01*
X151928571Y-88257142D02*
X151928571Y-87971428D01*
X152000000Y-87828571D01*
X152071428Y-87757142D01*
X152285714Y-87614285D01*
X152571428Y-87542857D01*
X153142857Y-87542857D01*
X153285714Y-87614285D01*
X153357142Y-87685714D01*
X153428571Y-87828571D01*
X153428571Y-88114285D01*
X153357142Y-88257142D01*
X153285714Y-88328571D01*
X153142857Y-88400000D01*
X152785714Y-88400000D01*
X152642857Y-88328571D01*
X152571428Y-88257142D01*
X152500000Y-88114285D01*
X152500000Y-87828571D01*
X152571428Y-87685714D01*
X152642857Y-87614285D01*
X152785714Y-87542857D01*
X150778571Y-85471428D02*
X149278571Y-85471428D01*
X149278571Y-86042857D02*
X149278571Y-86971428D01*
X149850000Y-86471428D01*
X149850000Y-86685714D01*
X149921428Y-86828571D01*
X149992857Y-86900000D01*
X150135714Y-86971428D01*
X150492857Y-86971428D01*
X150635714Y-86900000D01*
X150707142Y-86828571D01*
X150778571Y-86685714D01*
X150778571Y-86257142D01*
X150707142Y-86114285D01*
X150635714Y-86042857D01*
X150778571Y-87685714D02*
X150778571Y-87971428D01*
X150707142Y-88114285D01*
X150635714Y-88185714D01*
X150421428Y-88328571D01*
X150135714Y-88400000D01*
X149564285Y-88400000D01*
X149421428Y-88328571D01*
X149350000Y-88257142D01*
X149278571Y-88114285D01*
X149278571Y-87828571D01*
X149350000Y-87685714D01*
X149421428Y-87614285D01*
X149564285Y-87542857D01*
X149921428Y-87542857D01*
X150064285Y-87614285D01*
X150135714Y-87685714D01*
X150207142Y-87828571D01*
X150207142Y-88114285D01*
X150135714Y-88257142D01*
X150064285Y-88328571D01*
X149921428Y-88400000D01*
X148328571Y-85471428D02*
X146828571Y-85471428D01*
X146828571Y-86042857D02*
X146828571Y-86971428D01*
X147400000Y-86471428D01*
X147400000Y-86685714D01*
X147471428Y-86828571D01*
X147542857Y-86900000D01*
X147685714Y-86971428D01*
X148042857Y-86971428D01*
X148185714Y-86900000D01*
X148257142Y-86828571D01*
X148328571Y-86685714D01*
X148328571Y-86257142D01*
X148257142Y-86114285D01*
X148185714Y-86042857D01*
X147328571Y-88257142D02*
X148328571Y-88257142D01*
X146757142Y-87900000D02*
X147828571Y-87542857D01*
X147828571Y-88471428D01*
X141028571Y-85435714D02*
X139528571Y-85435714D01*
X139528571Y-86435714D02*
X139528571Y-86721428D01*
X139600000Y-86864285D01*
X139742857Y-87007142D01*
X140028571Y-87078571D01*
X140528571Y-87078571D01*
X140814285Y-87007142D01*
X140957142Y-86864285D01*
X141028571Y-86721428D01*
X141028571Y-86435714D01*
X140957142Y-86292857D01*
X140814285Y-86150000D01*
X140528571Y-86078571D01*
X140028571Y-86078571D01*
X139742857Y-86150000D01*
X139600000Y-86292857D01*
X139528571Y-86435714D01*
X139671428Y-87650000D02*
X139600000Y-87721428D01*
X139528571Y-87864285D01*
X139528571Y-88221428D01*
X139600000Y-88364285D01*
X139671428Y-88435714D01*
X139814285Y-88507142D01*
X139957142Y-88507142D01*
X140171428Y-88435714D01*
X141028571Y-87578571D01*
X141028571Y-88507142D01*
X139528571Y-89864285D02*
X139528571Y-89150000D01*
X140242857Y-89078571D01*
X140171428Y-89150000D01*
X140100000Y-89292857D01*
X140100000Y-89650000D01*
X140171428Y-89792857D01*
X140242857Y-89864285D01*
X140385714Y-89935714D01*
X140742857Y-89935714D01*
X140885714Y-89864285D01*
X140957142Y-89792857D01*
X141028571Y-89650000D01*
X141028571Y-89292857D01*
X140957142Y-89150000D01*
X140885714Y-89078571D01*
X130478571Y-85535714D02*
X128978571Y-85535714D01*
X128978571Y-86535714D02*
X128978571Y-86821428D01*
X129050000Y-86964285D01*
X129192857Y-87107142D01*
X129478571Y-87178571D01*
X129978571Y-87178571D01*
X130264285Y-87107142D01*
X130407142Y-86964285D01*
X130478571Y-86821428D01*
X130478571Y-86535714D01*
X130407142Y-86392857D01*
X130264285Y-86250000D01*
X129978571Y-86178571D01*
X129478571Y-86178571D01*
X129192857Y-86250000D01*
X129050000Y-86392857D01*
X128978571Y-86535714D01*
X130478571Y-88607142D02*
X130478571Y-87750000D01*
X130478571Y-88178571D02*
X128978571Y-88178571D01*
X129192857Y-88035714D01*
X129335714Y-87892857D01*
X129407142Y-87750000D01*
X129478571Y-89892857D02*
X130478571Y-89892857D01*
X128907142Y-89535714D02*
X129978571Y-89178571D01*
X129978571Y-90107142D01*
X133328571Y-85435714D02*
X131828571Y-85435714D01*
X131828571Y-86435714D02*
X131828571Y-86721428D01*
X131900000Y-86864285D01*
X132042857Y-87007142D01*
X132328571Y-87078571D01*
X132828571Y-87078571D01*
X133114285Y-87007142D01*
X133257142Y-86864285D01*
X133328571Y-86721428D01*
X133328571Y-86435714D01*
X133257142Y-86292857D01*
X133114285Y-86150000D01*
X132828571Y-86078571D01*
X132328571Y-86078571D01*
X132042857Y-86150000D01*
X131900000Y-86292857D01*
X131828571Y-86435714D01*
X133328571Y-88507142D02*
X133328571Y-87650000D01*
X133328571Y-88078571D02*
X131828571Y-88078571D01*
X132042857Y-87935714D01*
X132185714Y-87792857D01*
X132257142Y-87650000D01*
X131828571Y-89007142D02*
X131828571Y-89935714D01*
X132400000Y-89435714D01*
X132400000Y-89650000D01*
X132471428Y-89792857D01*
X132542857Y-89864285D01*
X132685714Y-89935714D01*
X133042857Y-89935714D01*
X133185714Y-89864285D01*
X133257142Y-89792857D01*
X133328571Y-89650000D01*
X133328571Y-89221428D01*
X133257142Y-89078571D01*
X133185714Y-89007142D01*
X145778571Y-85485714D02*
X144278571Y-85485714D01*
X144278571Y-86485714D02*
X144278571Y-86771428D01*
X144350000Y-86914285D01*
X144492857Y-87057142D01*
X144778571Y-87128571D01*
X145278571Y-87128571D01*
X145564285Y-87057142D01*
X145707142Y-86914285D01*
X145778571Y-86771428D01*
X145778571Y-86485714D01*
X145707142Y-86342857D01*
X145564285Y-86200000D01*
X145278571Y-86128571D01*
X144778571Y-86128571D01*
X144492857Y-86200000D01*
X144350000Y-86342857D01*
X144278571Y-86485714D01*
X144278571Y-87628571D02*
X144278571Y-88557142D01*
X144850000Y-88057142D01*
X144850000Y-88271428D01*
X144921428Y-88414285D01*
X144992857Y-88485714D01*
X145135714Y-88557142D01*
X145492857Y-88557142D01*
X145635714Y-88485714D01*
X145707142Y-88414285D01*
X145778571Y-88271428D01*
X145778571Y-87842857D01*
X145707142Y-87700000D01*
X145635714Y-87628571D01*
X144421428Y-89128571D02*
X144350000Y-89200000D01*
X144278571Y-89342857D01*
X144278571Y-89700000D01*
X144350000Y-89842857D01*
X144421428Y-89914285D01*
X144564285Y-89985714D01*
X144707142Y-89985714D01*
X144921428Y-89914285D01*
X145778571Y-89057142D01*
X145778571Y-89985714D01*
X143478571Y-85485714D02*
X141978571Y-85485714D01*
X141978571Y-86485714D02*
X141978571Y-86771428D01*
X142050000Y-86914285D01*
X142192857Y-87057142D01*
X142478571Y-87128571D01*
X142978571Y-87128571D01*
X143264285Y-87057142D01*
X143407142Y-86914285D01*
X143478571Y-86771428D01*
X143478571Y-86485714D01*
X143407142Y-86342857D01*
X143264285Y-86200000D01*
X142978571Y-86128571D01*
X142478571Y-86128571D01*
X142192857Y-86200000D01*
X142050000Y-86342857D01*
X141978571Y-86485714D01*
X141978571Y-87628571D02*
X141978571Y-88557142D01*
X142550000Y-88057142D01*
X142550000Y-88271428D01*
X142621428Y-88414285D01*
X142692857Y-88485714D01*
X142835714Y-88557142D01*
X143192857Y-88557142D01*
X143335714Y-88485714D01*
X143407142Y-88414285D01*
X143478571Y-88271428D01*
X143478571Y-87842857D01*
X143407142Y-87700000D01*
X143335714Y-87628571D01*
X141978571Y-89057142D02*
X141978571Y-89985714D01*
X142550000Y-89485714D01*
X142550000Y-89700000D01*
X142621428Y-89842857D01*
X142692857Y-89914285D01*
X142835714Y-89985714D01*
X143192857Y-89985714D01*
X143335714Y-89914285D01*
X143407142Y-89842857D01*
X143478571Y-89700000D01*
X143478571Y-89271428D01*
X143407142Y-89128571D01*
X143335714Y-89057142D01*
X138528571Y-85485714D02*
X137028571Y-85485714D01*
X137028571Y-86485714D02*
X137028571Y-86771428D01*
X137100000Y-86914285D01*
X137242857Y-87057142D01*
X137528571Y-87128571D01*
X138028571Y-87128571D01*
X138314285Y-87057142D01*
X138457142Y-86914285D01*
X138528571Y-86771428D01*
X138528571Y-86485714D01*
X138457142Y-86342857D01*
X138314285Y-86200000D01*
X138028571Y-86128571D01*
X137528571Y-86128571D01*
X137242857Y-86200000D01*
X137100000Y-86342857D01*
X137028571Y-86485714D01*
X137171428Y-87700000D02*
X137100000Y-87771428D01*
X137028571Y-87914285D01*
X137028571Y-88271428D01*
X137100000Y-88414285D01*
X137171428Y-88485714D01*
X137314285Y-88557142D01*
X137457142Y-88557142D01*
X137671428Y-88485714D01*
X138528571Y-87628571D01*
X138528571Y-88557142D01*
X137028571Y-89842857D02*
X137028571Y-89557142D01*
X137100000Y-89414285D01*
X137171428Y-89342857D01*
X137385714Y-89200000D01*
X137671428Y-89128571D01*
X138242857Y-89128571D01*
X138385714Y-89200000D01*
X138457142Y-89271428D01*
X138528571Y-89414285D01*
X138528571Y-89700000D01*
X138457142Y-89842857D01*
X138385714Y-89914285D01*
X138242857Y-89985714D01*
X137885714Y-89985714D01*
X137742857Y-89914285D01*
X137671428Y-89842857D01*
X137600000Y-89700000D01*
X137600000Y-89414285D01*
X137671428Y-89271428D01*
X137742857Y-89200000D01*
X137885714Y-89128571D01*
X135978571Y-85435714D02*
X134478571Y-85435714D01*
X134478571Y-86435714D02*
X134478571Y-86721428D01*
X134550000Y-86864285D01*
X134692857Y-87007142D01*
X134978571Y-87078571D01*
X135478571Y-87078571D01*
X135764285Y-87007142D01*
X135907142Y-86864285D01*
X135978571Y-86721428D01*
X135978571Y-86435714D01*
X135907142Y-86292857D01*
X135764285Y-86150000D01*
X135478571Y-86078571D01*
X134978571Y-86078571D01*
X134692857Y-86150000D01*
X134550000Y-86292857D01*
X134478571Y-86435714D01*
X134621428Y-87650000D02*
X134550000Y-87721428D01*
X134478571Y-87864285D01*
X134478571Y-88221428D01*
X134550000Y-88364285D01*
X134621428Y-88435714D01*
X134764285Y-88507142D01*
X134907142Y-88507142D01*
X135121428Y-88435714D01*
X135978571Y-87578571D01*
X135978571Y-88507142D01*
X134478571Y-89007142D02*
X134478571Y-90007142D01*
X135978571Y-89364285D01*
X126428571Y-85592857D02*
X126428571Y-86521428D01*
X127000000Y-86021428D01*
X127000000Y-86235714D01*
X127071428Y-86378571D01*
X127142857Y-86450000D01*
X127285714Y-86521428D01*
X127642857Y-86521428D01*
X127785714Y-86450000D01*
X127857142Y-86378571D01*
X127928571Y-86235714D01*
X127928571Y-85807142D01*
X127857142Y-85664285D01*
X127785714Y-85592857D01*
X126428571Y-86950000D02*
X127928571Y-87450000D01*
X126428571Y-87950000D01*
X126428571Y-88307142D02*
X126428571Y-89235714D01*
X127000000Y-88735714D01*
X127000000Y-88950000D01*
X127071428Y-89092857D01*
X127142857Y-89164285D01*
X127285714Y-89235714D01*
X127642857Y-89235714D01*
X127785714Y-89164285D01*
X127857142Y-89092857D01*
X127928571Y-88950000D01*
X127928571Y-88521428D01*
X127857142Y-88378571D01*
X127785714Y-88307142D01*
X112100000Y-86357142D02*
X112028571Y-86214285D01*
X112028571Y-86000000D01*
X112100000Y-85785714D01*
X112242857Y-85642857D01*
X112385714Y-85571428D01*
X112671428Y-85500000D01*
X112885714Y-85500000D01*
X113171428Y-85571428D01*
X113314285Y-85642857D01*
X113457142Y-85785714D01*
X113528571Y-86000000D01*
X113528571Y-86142857D01*
X113457142Y-86357142D01*
X113385714Y-86428571D01*
X112885714Y-86428571D01*
X112885714Y-86142857D01*
X113528571Y-87071428D02*
X112028571Y-87071428D01*
X113528571Y-87928571D01*
X112028571Y-87928571D01*
X113528571Y-88642857D02*
X112028571Y-88642857D01*
X112028571Y-89000000D01*
X112100000Y-89214285D01*
X112242857Y-89357142D01*
X112385714Y-89428571D01*
X112671428Y-89500000D01*
X112885714Y-89500000D01*
X113171428Y-89428571D01*
X113314285Y-89357142D01*
X113457142Y-89214285D01*
X113528571Y-89000000D01*
X113528571Y-88642857D01*
X110207142Y-85407142D02*
X110207142Y-86550000D01*
X110778571Y-85978571D02*
X109635714Y-85978571D01*
X109278571Y-87978571D02*
X109278571Y-87264285D01*
X109992857Y-87192857D01*
X109921428Y-87264285D01*
X109850000Y-87407142D01*
X109850000Y-87764285D01*
X109921428Y-87907142D01*
X109992857Y-87978571D01*
X110135714Y-88050000D01*
X110492857Y-88050000D01*
X110635714Y-87978571D01*
X110707142Y-87907142D01*
X110778571Y-87764285D01*
X110778571Y-87407142D01*
X110707142Y-87264285D01*
X110635714Y-87192857D01*
X109278571Y-88478571D02*
X110778571Y-88978571D01*
X109278571Y-89478571D01*
X109992857Y-91121428D02*
X109992857Y-91621428D01*
X110778571Y-91835714D02*
X110778571Y-91121428D01*
X109278571Y-91121428D01*
X109278571Y-91835714D01*
X110707142Y-92407142D02*
X110778571Y-92621428D01*
X110778571Y-92978571D01*
X110707142Y-93121428D01*
X110635714Y-93192857D01*
X110492857Y-93264285D01*
X110350000Y-93264285D01*
X110207142Y-93192857D01*
X110135714Y-93121428D01*
X110064285Y-92978571D01*
X109992857Y-92692857D01*
X109921428Y-92550000D01*
X109850000Y-92478571D01*
X109707142Y-92407142D01*
X109564285Y-92407142D01*
X109421428Y-92478571D01*
X109350000Y-92550000D01*
X109278571Y-92692857D01*
X109278571Y-93050000D01*
X109350000Y-93264285D01*
X110635714Y-94764285D02*
X110707142Y-94692857D01*
X110778571Y-94478571D01*
X110778571Y-94335714D01*
X110707142Y-94121428D01*
X110564285Y-93978571D01*
X110421428Y-93907142D01*
X110135714Y-93835714D01*
X109921428Y-93835714D01*
X109635714Y-93907142D01*
X109492857Y-93978571D01*
X109350000Y-94121428D01*
X109278571Y-94335714D01*
X109278571Y-94478571D01*
X109350000Y-94692857D01*
X109421428Y-94764285D01*
X108278571Y-85421428D02*
X106778571Y-85421428D01*
X107850000Y-85921428D01*
X106778571Y-86421428D01*
X108278571Y-86421428D01*
X106778571Y-87421428D02*
X106778571Y-87707142D01*
X106850000Y-87850000D01*
X106992857Y-87992857D01*
X107278571Y-88064285D01*
X107778571Y-88064285D01*
X108064285Y-87992857D01*
X108207142Y-87850000D01*
X108278571Y-87707142D01*
X108278571Y-87421428D01*
X108207142Y-87278571D01*
X108064285Y-87135714D01*
X107778571Y-87064285D01*
X107278571Y-87064285D01*
X106992857Y-87135714D01*
X106850000Y-87278571D01*
X106778571Y-87421428D01*
X106778571Y-88492857D02*
X106778571Y-89350000D01*
X108278571Y-88921428D02*
X106778571Y-88921428D01*
X106778571Y-90135714D02*
X106778571Y-90421428D01*
X106850000Y-90564285D01*
X106992857Y-90707142D01*
X107278571Y-90778571D01*
X107778571Y-90778571D01*
X108064285Y-90707142D01*
X108207142Y-90564285D01*
X108278571Y-90421428D01*
X108278571Y-90135714D01*
X108207142Y-89992857D01*
X108064285Y-89850000D01*
X107778571Y-89778571D01*
X107278571Y-89778571D01*
X106992857Y-89850000D01*
X106850000Y-89992857D01*
X106778571Y-90135714D01*
X108278571Y-92278571D02*
X107564285Y-91778571D01*
X108278571Y-91421428D02*
X106778571Y-91421428D01*
X106778571Y-91992857D01*
X106850000Y-92135714D01*
X106921428Y-92207142D01*
X107064285Y-92278571D01*
X107278571Y-92278571D01*
X107421428Y-92207142D01*
X107492857Y-92135714D01*
X107564285Y-91992857D01*
X107564285Y-91421428D01*
X108278571Y-94064285D02*
X106778571Y-94064285D01*
X106778571Y-94635714D01*
X106850000Y-94778571D01*
X106921428Y-94850000D01*
X107064285Y-94921428D01*
X107278571Y-94921428D01*
X107421428Y-94850000D01*
X107492857Y-94778571D01*
X107564285Y-94635714D01*
X107564285Y-94064285D01*
X106778571Y-95421428D02*
X108278571Y-95778571D01*
X107207142Y-96064285D01*
X108278571Y-96350000D01*
X106778571Y-96707142D01*
X108278571Y-97278571D02*
X106778571Y-97278571D01*
X107850000Y-97778571D01*
X106778571Y-98278571D01*
X108278571Y-98278571D01*
X108207142Y-104114285D02*
X108278571Y-104328571D01*
X108278571Y-104685714D01*
X108207142Y-104828571D01*
X108135714Y-104900000D01*
X107992857Y-104971428D01*
X107850000Y-104971428D01*
X107707142Y-104900000D01*
X107635714Y-104828571D01*
X107564285Y-104685714D01*
X107492857Y-104400000D01*
X107421428Y-104257142D01*
X107350000Y-104185714D01*
X107207142Y-104114285D01*
X107064285Y-104114285D01*
X106921428Y-104185714D01*
X106850000Y-104257142D01*
X106778571Y-104400000D01*
X106778571Y-104757142D01*
X106850000Y-104971428D01*
X106778571Y-105400000D02*
X106778571Y-106257142D01*
X108278571Y-105828571D02*
X106778571Y-105828571D01*
X107492857Y-106757142D02*
X107492857Y-107257142D01*
X108278571Y-107471428D02*
X108278571Y-106757142D01*
X106778571Y-106757142D01*
X106778571Y-107471428D01*
X107492857Y-108114285D02*
X107492857Y-108614285D01*
X108278571Y-108828571D02*
X108278571Y-108114285D01*
X106778571Y-108114285D01*
X106778571Y-108828571D01*
X108278571Y-110328571D02*
X107564285Y-109828571D01*
X108278571Y-109471428D02*
X106778571Y-109471428D01*
X106778571Y-110042857D01*
X106850000Y-110185714D01*
X106921428Y-110257142D01*
X107064285Y-110328571D01*
X107278571Y-110328571D01*
X107421428Y-110257142D01*
X107492857Y-110185714D01*
X107564285Y-110042857D01*
X107564285Y-109471428D01*
X108278571Y-110971428D02*
X106778571Y-110971428D01*
X108278571Y-111685714D02*
X106778571Y-111685714D01*
X108278571Y-112542857D01*
X106778571Y-112542857D01*
X106850000Y-114042857D02*
X106778571Y-113900000D01*
X106778571Y-113685714D01*
X106850000Y-113471428D01*
X106992857Y-113328571D01*
X107135714Y-113257142D01*
X107421428Y-113185714D01*
X107635714Y-113185714D01*
X107921428Y-113257142D01*
X108064285Y-113328571D01*
X108207142Y-113471428D01*
X108278571Y-113685714D01*
X108278571Y-113828571D01*
X108207142Y-114042857D01*
X108135714Y-114114285D01*
X107635714Y-114114285D01*
X107635714Y-113828571D01*
X108278571Y-115900000D02*
X106778571Y-115900000D01*
X106778571Y-116471428D01*
X106850000Y-116614285D01*
X106921428Y-116685714D01*
X107064285Y-116757142D01*
X107278571Y-116757142D01*
X107421428Y-116685714D01*
X107492857Y-116614285D01*
X107564285Y-116471428D01*
X107564285Y-115900000D01*
X106778571Y-117257142D02*
X108278571Y-117614285D01*
X107207142Y-117900000D01*
X108278571Y-118185714D01*
X106778571Y-118542857D01*
X108278571Y-119114285D02*
X106778571Y-119114285D01*
X107850000Y-119614285D01*
X106778571Y-120114285D01*
X108278571Y-120114285D01*
X110507142Y-116021428D02*
X110507142Y-117164285D01*
X111078571Y-116592857D02*
X109935714Y-116592857D01*
X109578571Y-118592857D02*
X109578571Y-117878571D01*
X110292857Y-117807142D01*
X110221428Y-117878571D01*
X110150000Y-118021428D01*
X110150000Y-118378571D01*
X110221428Y-118521428D01*
X110292857Y-118592857D01*
X110435714Y-118664285D01*
X110792857Y-118664285D01*
X110935714Y-118592857D01*
X111007142Y-118521428D01*
X111078571Y-118378571D01*
X111078571Y-118021428D01*
X111007142Y-117878571D01*
X110935714Y-117807142D01*
X109578571Y-119092857D02*
X111078571Y-119592857D01*
X109578571Y-120092857D01*
X112350000Y-116957142D02*
X112278571Y-116814285D01*
X112278571Y-116600000D01*
X112350000Y-116385714D01*
X112492857Y-116242857D01*
X112635714Y-116171428D01*
X112921428Y-116100000D01*
X113135714Y-116100000D01*
X113421428Y-116171428D01*
X113564285Y-116242857D01*
X113707142Y-116385714D01*
X113778571Y-116600000D01*
X113778571Y-116742857D01*
X113707142Y-116957142D01*
X113635714Y-117028571D01*
X113135714Y-117028571D01*
X113135714Y-116742857D01*
X113778571Y-117671428D02*
X112278571Y-117671428D01*
X113778571Y-118528571D01*
X112278571Y-118528571D01*
X113778571Y-119242857D02*
X112278571Y-119242857D01*
X112278571Y-119600000D01*
X112350000Y-119814285D01*
X112492857Y-119957142D01*
X112635714Y-120028571D01*
X112921428Y-120100000D01*
X113135714Y-120100000D01*
X113421428Y-120028571D01*
X113564285Y-119957142D01*
X113707142Y-119814285D01*
X113778571Y-119600000D01*
X113778571Y-119242857D01*
X154650000Y-116507142D02*
X154578571Y-116364285D01*
X154578571Y-116150000D01*
X154650000Y-115935714D01*
X154792857Y-115792857D01*
X154935714Y-115721428D01*
X155221428Y-115650000D01*
X155435714Y-115650000D01*
X155721428Y-115721428D01*
X155864285Y-115792857D01*
X156007142Y-115935714D01*
X156078571Y-116150000D01*
X156078571Y-116292857D01*
X156007142Y-116507142D01*
X155935714Y-116578571D01*
X155435714Y-116578571D01*
X155435714Y-116292857D01*
X156078571Y-117221428D02*
X154578571Y-117221428D01*
X156078571Y-118078571D01*
X154578571Y-118078571D01*
X156078571Y-118792857D02*
X154578571Y-118792857D01*
X154578571Y-119150000D01*
X154650000Y-119364285D01*
X154792857Y-119507142D01*
X154935714Y-119578571D01*
X155221428Y-119650000D01*
X155435714Y-119650000D01*
X155721428Y-119578571D01*
X155864285Y-119507142D01*
X156007142Y-119364285D01*
X156078571Y-119150000D01*
X156078571Y-118792857D01*
X153378571Y-116485714D02*
X153378571Y-115771428D01*
X151878571Y-115771428D01*
X152592857Y-116985714D02*
X152592857Y-117485714D01*
X153378571Y-117700000D02*
X153378571Y-116985714D01*
X151878571Y-116985714D01*
X151878571Y-117700000D01*
X153378571Y-118342857D02*
X151878571Y-118342857D01*
X151878571Y-118700000D01*
X151950000Y-118914285D01*
X152092857Y-119057142D01*
X152235714Y-119128571D01*
X152521428Y-119200000D01*
X152735714Y-119200000D01*
X153021428Y-119128571D01*
X153164285Y-119057142D01*
X153307142Y-118914285D01*
X153378571Y-118700000D01*
X153378571Y-118342857D01*
X150878571Y-109664285D02*
X149378571Y-109664285D01*
X149378571Y-110664285D02*
X149378571Y-110950000D01*
X149450000Y-111092857D01*
X149592857Y-111235714D01*
X149878571Y-111307142D01*
X150378571Y-111307142D01*
X150664285Y-111235714D01*
X150807142Y-111092857D01*
X150878571Y-110950000D01*
X150878571Y-110664285D01*
X150807142Y-110521428D01*
X150664285Y-110378571D01*
X150378571Y-110307142D01*
X149878571Y-110307142D01*
X149592857Y-110378571D01*
X149450000Y-110521428D01*
X149378571Y-110664285D01*
X149521428Y-111878571D02*
X149450000Y-111950000D01*
X149378571Y-112092857D01*
X149378571Y-112450000D01*
X149450000Y-112592857D01*
X149521428Y-112664285D01*
X149664285Y-112735714D01*
X149807142Y-112735714D01*
X150021428Y-112664285D01*
X150878571Y-111807142D01*
X150878571Y-112735714D01*
X149521428Y-113307142D02*
X149450000Y-113378571D01*
X149378571Y-113521428D01*
X149378571Y-113878571D01*
X149450000Y-114021428D01*
X149521428Y-114092857D01*
X149664285Y-114164285D01*
X149807142Y-114164285D01*
X150021428Y-114092857D01*
X150878571Y-113235714D01*
X150878571Y-114164285D01*
X151450000Y-115235714D02*
X151378571Y-115164285D01*
X151164285Y-115021428D01*
X151021428Y-114950000D01*
X150807142Y-114878571D01*
X150450000Y-114807142D01*
X150164285Y-114807142D01*
X149807142Y-114878571D01*
X149592857Y-114950000D01*
X149450000Y-115021428D01*
X149235714Y-115164285D01*
X149164285Y-115235714D01*
X150807142Y-115735714D02*
X150878571Y-115950000D01*
X150878571Y-116307142D01*
X150807142Y-116450000D01*
X150735714Y-116521428D01*
X150592857Y-116592857D01*
X150450000Y-116592857D01*
X150307142Y-116521428D01*
X150235714Y-116450000D01*
X150164285Y-116307142D01*
X150092857Y-116021428D01*
X150021428Y-115878571D01*
X149950000Y-115807142D01*
X149807142Y-115735714D01*
X149664285Y-115735714D01*
X149521428Y-115807142D01*
X149450000Y-115878571D01*
X149378571Y-116021428D01*
X149378571Y-116378571D01*
X149450000Y-116592857D01*
X150735714Y-118092857D02*
X150807142Y-118021428D01*
X150878571Y-117807142D01*
X150878571Y-117664285D01*
X150807142Y-117450000D01*
X150664285Y-117307142D01*
X150521428Y-117235714D01*
X150235714Y-117164285D01*
X150021428Y-117164285D01*
X149735714Y-117235714D01*
X149592857Y-117307142D01*
X149450000Y-117450000D01*
X149378571Y-117664285D01*
X149378571Y-117807142D01*
X149450000Y-118021428D01*
X149521428Y-118092857D01*
X150878571Y-119450000D02*
X150878571Y-118735714D01*
X149378571Y-118735714D01*
X151450000Y-119807142D02*
X151378571Y-119878571D01*
X151164285Y-120021428D01*
X151021428Y-120092857D01*
X150807142Y-120164285D01*
X150450000Y-120235714D01*
X150164285Y-120235714D01*
X149807142Y-120164285D01*
X149592857Y-120092857D01*
X149450000Y-120021428D01*
X149235714Y-119878571D01*
X149164285Y-119807142D01*
X148178571Y-109778571D02*
X146678571Y-109778571D01*
X146678571Y-110778571D02*
X146678571Y-111064285D01*
X146750000Y-111207142D01*
X146892857Y-111350000D01*
X147178571Y-111421428D01*
X147678571Y-111421428D01*
X147964285Y-111350000D01*
X148107142Y-111207142D01*
X148178571Y-111064285D01*
X148178571Y-110778571D01*
X148107142Y-110635714D01*
X147964285Y-110492857D01*
X147678571Y-110421428D01*
X147178571Y-110421428D01*
X146892857Y-110492857D01*
X146750000Y-110635714D01*
X146678571Y-110778571D01*
X146821428Y-111992857D02*
X146750000Y-112064285D01*
X146678571Y-112207142D01*
X146678571Y-112564285D01*
X146750000Y-112707142D01*
X146821428Y-112778571D01*
X146964285Y-112850000D01*
X147107142Y-112850000D01*
X147321428Y-112778571D01*
X148178571Y-111921428D01*
X148178571Y-112850000D01*
X148178571Y-114278571D02*
X148178571Y-113421428D01*
X148178571Y-113850000D02*
X146678571Y-113850000D01*
X146892857Y-113707142D01*
X147035714Y-113564285D01*
X147107142Y-113421428D01*
X148750000Y-115350000D02*
X148678571Y-115278571D01*
X148464285Y-115135714D01*
X148321428Y-115064285D01*
X148107142Y-114992857D01*
X147750000Y-114921428D01*
X147464285Y-114921428D01*
X147107142Y-114992857D01*
X146892857Y-115064285D01*
X146750000Y-115135714D01*
X146535714Y-115278571D01*
X146464285Y-115350000D01*
X148107142Y-115850000D02*
X148178571Y-116064285D01*
X148178571Y-116421428D01*
X148107142Y-116564285D01*
X148035714Y-116635714D01*
X147892857Y-116707142D01*
X147750000Y-116707142D01*
X147607142Y-116635714D01*
X147535714Y-116564285D01*
X147464285Y-116421428D01*
X147392857Y-116135714D01*
X147321428Y-115992857D01*
X147250000Y-115921428D01*
X147107142Y-115850000D01*
X146964285Y-115850000D01*
X146821428Y-115921428D01*
X146750000Y-115992857D01*
X146678571Y-116135714D01*
X146678571Y-116492857D01*
X146750000Y-116707142D01*
X148178571Y-117350000D02*
X146678571Y-117350000D01*
X146678571Y-117707142D01*
X146750000Y-117921428D01*
X146892857Y-118064285D01*
X147035714Y-118135714D01*
X147321428Y-118207142D01*
X147535714Y-118207142D01*
X147821428Y-118135714D01*
X147964285Y-118064285D01*
X148107142Y-117921428D01*
X148178571Y-117707142D01*
X148178571Y-117350000D01*
X147750000Y-118778571D02*
X147750000Y-119492857D01*
X148178571Y-118635714D02*
X146678571Y-119135714D01*
X148178571Y-119635714D01*
X148750000Y-119992857D02*
X148678571Y-120064285D01*
X148464285Y-120207142D01*
X148321428Y-120278571D01*
X148107142Y-120350000D01*
X147750000Y-120421428D01*
X147464285Y-120421428D01*
X147107142Y-120350000D01*
X146892857Y-120278571D01*
X146750000Y-120207142D01*
X146535714Y-120064285D01*
X146464285Y-119992857D01*
X145978571Y-115735714D02*
X144478571Y-115735714D01*
X144478571Y-116735714D02*
X144478571Y-117021428D01*
X144550000Y-117164285D01*
X144692857Y-117307142D01*
X144978571Y-117378571D01*
X145478571Y-117378571D01*
X145764285Y-117307142D01*
X145907142Y-117164285D01*
X145978571Y-117021428D01*
X145978571Y-116735714D01*
X145907142Y-116592857D01*
X145764285Y-116450000D01*
X145478571Y-116378571D01*
X144978571Y-116378571D01*
X144692857Y-116450000D01*
X144550000Y-116592857D01*
X144478571Y-116735714D01*
X145978571Y-118807142D02*
X145978571Y-117950000D01*
X145978571Y-118378571D02*
X144478571Y-118378571D01*
X144692857Y-118235714D01*
X144835714Y-118092857D01*
X144907142Y-117950000D01*
X145978571Y-119521428D02*
X145978571Y-119807142D01*
X145907142Y-119950000D01*
X145835714Y-120021428D01*
X145621428Y-120164285D01*
X145335714Y-120235714D01*
X144764285Y-120235714D01*
X144621428Y-120164285D01*
X144550000Y-120092857D01*
X144478571Y-119950000D01*
X144478571Y-119664285D01*
X144550000Y-119521428D01*
X144621428Y-119450000D01*
X144764285Y-119378571D01*
X145121428Y-119378571D01*
X145264285Y-119450000D01*
X145335714Y-119521428D01*
X145407142Y-119664285D01*
X145407142Y-119950000D01*
X145335714Y-120092857D01*
X145264285Y-120164285D01*
X145121428Y-120235714D01*
X143578571Y-115735714D02*
X142078571Y-115735714D01*
X142078571Y-116735714D02*
X142078571Y-117021428D01*
X142150000Y-117164285D01*
X142292857Y-117307142D01*
X142578571Y-117378571D01*
X143078571Y-117378571D01*
X143364285Y-117307142D01*
X143507142Y-117164285D01*
X143578571Y-117021428D01*
X143578571Y-116735714D01*
X143507142Y-116592857D01*
X143364285Y-116450000D01*
X143078571Y-116378571D01*
X142578571Y-116378571D01*
X142292857Y-116450000D01*
X142150000Y-116592857D01*
X142078571Y-116735714D01*
X143578571Y-118807142D02*
X143578571Y-117950000D01*
X143578571Y-118378571D02*
X142078571Y-118378571D01*
X142292857Y-118235714D01*
X142435714Y-118092857D01*
X142507142Y-117950000D01*
X142721428Y-119664285D02*
X142650000Y-119521428D01*
X142578571Y-119450000D01*
X142435714Y-119378571D01*
X142364285Y-119378571D01*
X142221428Y-119450000D01*
X142150000Y-119521428D01*
X142078571Y-119664285D01*
X142078571Y-119950000D01*
X142150000Y-120092857D01*
X142221428Y-120164285D01*
X142364285Y-120235714D01*
X142435714Y-120235714D01*
X142578571Y-120164285D01*
X142650000Y-120092857D01*
X142721428Y-119950000D01*
X142721428Y-119664285D01*
X142792857Y-119521428D01*
X142864285Y-119450000D01*
X143007142Y-119378571D01*
X143292857Y-119378571D01*
X143435714Y-119450000D01*
X143507142Y-119521428D01*
X143578571Y-119664285D01*
X143578571Y-119950000D01*
X143507142Y-120092857D01*
X143435714Y-120164285D01*
X143292857Y-120235714D01*
X143007142Y-120235714D01*
X142864285Y-120164285D01*
X142792857Y-120092857D01*
X142721428Y-119950000D01*
X140978571Y-115735714D02*
X139478571Y-115735714D01*
X139478571Y-116735714D02*
X139478571Y-117021428D01*
X139550000Y-117164285D01*
X139692857Y-117307142D01*
X139978571Y-117378571D01*
X140478571Y-117378571D01*
X140764285Y-117307142D01*
X140907142Y-117164285D01*
X140978571Y-117021428D01*
X140978571Y-116735714D01*
X140907142Y-116592857D01*
X140764285Y-116450000D01*
X140478571Y-116378571D01*
X139978571Y-116378571D01*
X139692857Y-116450000D01*
X139550000Y-116592857D01*
X139478571Y-116735714D01*
X140978571Y-118807142D02*
X140978571Y-117950000D01*
X140978571Y-118378571D02*
X139478571Y-118378571D01*
X139692857Y-118235714D01*
X139835714Y-118092857D01*
X139907142Y-117950000D01*
X139478571Y-119307142D02*
X139478571Y-120307142D01*
X140978571Y-119664285D01*
X138378571Y-115735714D02*
X136878571Y-115735714D01*
X136878571Y-116735714D02*
X136878571Y-117021428D01*
X136950000Y-117164285D01*
X137092857Y-117307142D01*
X137378571Y-117378571D01*
X137878571Y-117378571D01*
X138164285Y-117307142D01*
X138307142Y-117164285D01*
X138378571Y-117021428D01*
X138378571Y-116735714D01*
X138307142Y-116592857D01*
X138164285Y-116450000D01*
X137878571Y-116378571D01*
X137378571Y-116378571D01*
X137092857Y-116450000D01*
X136950000Y-116592857D01*
X136878571Y-116735714D01*
X138378571Y-118807142D02*
X138378571Y-117950000D01*
X138378571Y-118378571D02*
X136878571Y-118378571D01*
X137092857Y-118235714D01*
X137235714Y-118092857D01*
X137307142Y-117950000D01*
X136878571Y-120092857D02*
X136878571Y-119807142D01*
X136950000Y-119664285D01*
X137021428Y-119592857D01*
X137235714Y-119450000D01*
X137521428Y-119378571D01*
X138092857Y-119378571D01*
X138235714Y-119450000D01*
X138307142Y-119521428D01*
X138378571Y-119664285D01*
X138378571Y-119950000D01*
X138307142Y-120092857D01*
X138235714Y-120164285D01*
X138092857Y-120235714D01*
X137735714Y-120235714D01*
X137592857Y-120164285D01*
X137521428Y-120092857D01*
X137450000Y-119950000D01*
X137450000Y-119664285D01*
X137521428Y-119521428D01*
X137592857Y-119450000D01*
X137735714Y-119378571D01*
X135778571Y-115750000D02*
X134278571Y-115750000D01*
X134278571Y-116750000D02*
X134278571Y-117035714D01*
X134350000Y-117178571D01*
X134492857Y-117321428D01*
X134778571Y-117392857D01*
X135278571Y-117392857D01*
X135564285Y-117321428D01*
X135707142Y-117178571D01*
X135778571Y-117035714D01*
X135778571Y-116750000D01*
X135707142Y-116607142D01*
X135564285Y-116464285D01*
X135278571Y-116392857D01*
X134778571Y-116392857D01*
X134492857Y-116464285D01*
X134350000Y-116607142D01*
X134278571Y-116750000D01*
X134778571Y-118678571D02*
X135778571Y-118678571D01*
X134207142Y-118321428D02*
X135278571Y-117964285D01*
X135278571Y-118892857D01*
X131900000Y-116607142D02*
X131828571Y-116464285D01*
X131828571Y-116250000D01*
X131900000Y-116035714D01*
X132042857Y-115892857D01*
X132185714Y-115821428D01*
X132471428Y-115750000D01*
X132685714Y-115750000D01*
X132971428Y-115821428D01*
X133114285Y-115892857D01*
X133257142Y-116035714D01*
X133328571Y-116250000D01*
X133328571Y-116392857D01*
X133257142Y-116607142D01*
X133185714Y-116678571D01*
X132685714Y-116678571D01*
X132685714Y-116392857D01*
X133328571Y-117321428D02*
X131828571Y-117321428D01*
X133328571Y-118178571D01*
X131828571Y-118178571D01*
X133328571Y-118892857D02*
X131828571Y-118892857D01*
X131828571Y-119250000D01*
X131900000Y-119464285D01*
X132042857Y-119607142D01*
X132185714Y-119678571D01*
X132471428Y-119750000D01*
X132685714Y-119750000D01*
X132971428Y-119678571D01*
X133114285Y-119607142D01*
X133257142Y-119464285D01*
X133328571Y-119250000D01*
X133328571Y-118892857D01*
X129328571Y-116564285D02*
X129328571Y-115850000D01*
X130042857Y-115778571D01*
X129971428Y-115850000D01*
X129900000Y-115992857D01*
X129900000Y-116350000D01*
X129971428Y-116492857D01*
X130042857Y-116564285D01*
X130185714Y-116635714D01*
X130542857Y-116635714D01*
X130685714Y-116564285D01*
X130757142Y-116492857D01*
X130828571Y-116350000D01*
X130828571Y-115992857D01*
X130757142Y-115850000D01*
X130685714Y-115778571D01*
X129328571Y-117064285D02*
X130828571Y-117564285D01*
X129328571Y-118064285D01*
X126828571Y-115792857D02*
X126828571Y-116721428D01*
X127400000Y-116221428D01*
X127400000Y-116435714D01*
X127471428Y-116578571D01*
X127542857Y-116650000D01*
X127685714Y-116721428D01*
X128042857Y-116721428D01*
X128185714Y-116650000D01*
X128257142Y-116578571D01*
X128328571Y-116435714D01*
X128328571Y-116007142D01*
X128257142Y-115864285D01*
X128185714Y-115792857D01*
X126828571Y-117150000D02*
X128328571Y-117650000D01*
X126828571Y-118150000D01*
X126828571Y-118507142D02*
X126828571Y-119435714D01*
X127400000Y-118935714D01*
X127400000Y-119150000D01*
X127471428Y-119292857D01*
X127542857Y-119364285D01*
X127685714Y-119435714D01*
X128042857Y-119435714D01*
X128185714Y-119364285D01*
X128257142Y-119292857D01*
X128328571Y-119150000D01*
X128328571Y-118721428D01*
X128257142Y-118578571D01*
X128185714Y-118507142D01*
X118550000Y-94950000D02*
X118478571Y-94807142D01*
X118478571Y-94592857D01*
X118550000Y-94378571D01*
X118692857Y-94235714D01*
X118835714Y-94164285D01*
X119121428Y-94092857D01*
X119335714Y-94092857D01*
X119621428Y-94164285D01*
X119764285Y-94235714D01*
X119907142Y-94378571D01*
X119978571Y-94592857D01*
X119978571Y-94735714D01*
X119907142Y-94950000D01*
X119835714Y-95021428D01*
X119335714Y-95021428D01*
X119335714Y-94735714D01*
X119978571Y-95664285D02*
X118478571Y-95664285D01*
X119978571Y-96307142D02*
X119192857Y-96307142D01*
X119050000Y-96235714D01*
X118978571Y-96092857D01*
X118978571Y-95878571D01*
X119050000Y-95735714D01*
X119121428Y-95664285D01*
X119978571Y-97235714D02*
X119907142Y-97092857D01*
X119835714Y-97021428D01*
X119692857Y-96950000D01*
X119264285Y-96950000D01*
X119121428Y-97021428D01*
X119050000Y-97092857D01*
X118978571Y-97235714D01*
X118978571Y-97450000D01*
X119050000Y-97592857D01*
X119121428Y-97664285D01*
X119264285Y-97735714D01*
X119692857Y-97735714D01*
X119835714Y-97664285D01*
X119907142Y-97592857D01*
X119978571Y-97450000D01*
X119978571Y-97235714D01*
X119907142Y-98307142D02*
X119978571Y-98450000D01*
X119978571Y-98735714D01*
X119907142Y-98878571D01*
X119764285Y-98950000D01*
X119692857Y-98950000D01*
X119550000Y-98878571D01*
X119478571Y-98735714D01*
X119478571Y-98521428D01*
X119407142Y-98378571D01*
X119264285Y-98307142D01*
X119192857Y-98307142D01*
X119050000Y-98378571D01*
X118978571Y-98521428D01*
X118978571Y-98735714D01*
X119050000Y-98878571D01*
X118978571Y-99378571D02*
X118978571Y-99950000D01*
X118478571Y-99592857D02*
X119764285Y-99592857D01*
X119907142Y-99664285D01*
X119978571Y-99807142D01*
X119978571Y-99950000D01*
X118478571Y-100307142D02*
X118478571Y-101235714D01*
X119050000Y-100735714D01*
X119050000Y-100949999D01*
X119121428Y-101092857D01*
X119192857Y-101164285D01*
X119335714Y-101235714D01*
X119692857Y-101235714D01*
X119835714Y-101164285D01*
X119907142Y-101092857D01*
X119978571Y-100949999D01*
X119978571Y-100521428D01*
X119907142Y-100378571D01*
X119835714Y-100307142D01*
X118621428Y-101807142D02*
X118550000Y-101878571D01*
X118478571Y-102021428D01*
X118478571Y-102378571D01*
X118550000Y-102521428D01*
X118621428Y-102592857D01*
X118764285Y-102664285D01*
X118907142Y-102664285D01*
X119121428Y-102592857D01*
X119978571Y-101735714D01*
X119978571Y-102664285D01*
X119978571Y-105307142D02*
X119264285Y-104807142D01*
X119978571Y-104449999D02*
X118478571Y-104449999D01*
X118478571Y-105021428D01*
X118550000Y-105164285D01*
X118621428Y-105235714D01*
X118764285Y-105307142D01*
X118978571Y-105307142D01*
X119121428Y-105235714D01*
X119192857Y-105164285D01*
X119264285Y-105021428D01*
X119264285Y-104449999D01*
X119907142Y-106521428D02*
X119978571Y-106378571D01*
X119978571Y-106092857D01*
X119907142Y-105949999D01*
X119764285Y-105878571D01*
X119192857Y-105878571D01*
X119050000Y-105949999D01*
X118978571Y-106092857D01*
X118978571Y-106378571D01*
X119050000Y-106521428D01*
X119192857Y-106592857D01*
X119335714Y-106592857D01*
X119478571Y-105878571D01*
X118978571Y-107092857D02*
X119978571Y-107449999D01*
X118978571Y-107807142D01*
X118478571Y-110235714D02*
X118478571Y-109521428D01*
X119192857Y-109449999D01*
X119121428Y-109521428D01*
X119050000Y-109664285D01*
X119050000Y-110021428D01*
X119121428Y-110164285D01*
X119192857Y-110235714D01*
X119335714Y-110307142D01*
X119692857Y-110307142D01*
X119835714Y-110235714D01*
X119907142Y-110164285D01*
X119978571Y-110021428D01*
X119978571Y-109664285D01*
X119907142Y-109521428D01*
X119835714Y-109449999D01*
X121742857Y-95164285D02*
X121742857Y-94664285D01*
X122528571Y-94664285D02*
X121028571Y-94664285D01*
X121028571Y-95378571D01*
X122528571Y-95950000D02*
X121528571Y-95950000D01*
X121814285Y-95950000D02*
X121671428Y-96021428D01*
X121600000Y-96092857D01*
X121528571Y-96235714D01*
X121528571Y-96378571D01*
X122528571Y-97092857D02*
X122457142Y-96950000D01*
X122385714Y-96878571D01*
X122242857Y-96807142D01*
X121814285Y-96807142D01*
X121671428Y-96878571D01*
X121600000Y-96950000D01*
X121528571Y-97092857D01*
X121528571Y-97307142D01*
X121600000Y-97450000D01*
X121671428Y-97521428D01*
X121814285Y-97592857D01*
X122242857Y-97592857D01*
X122385714Y-97521428D01*
X122457142Y-97450000D01*
X122528571Y-97307142D01*
X122528571Y-97092857D01*
X122528571Y-98878571D02*
X121028571Y-98878571D01*
X122457142Y-98878571D02*
X122528571Y-98735714D01*
X122528571Y-98450000D01*
X122457142Y-98307142D01*
X122385714Y-98235714D01*
X122242857Y-98164285D01*
X121814285Y-98164285D01*
X121671428Y-98235714D01*
X121600000Y-98307142D01*
X121528571Y-98450000D01*
X121528571Y-98735714D01*
X121600000Y-98878571D01*
X122457142Y-100164285D02*
X122528571Y-100021428D01*
X122528571Y-99735714D01*
X122457142Y-99592857D01*
X122314285Y-99521428D01*
X121742857Y-99521428D01*
X121600000Y-99592857D01*
X121528571Y-99735714D01*
X121528571Y-100021428D01*
X121600000Y-100164285D01*
X121742857Y-100235714D01*
X121885714Y-100235714D01*
X122028571Y-99521428D01*
X122528571Y-102735714D02*
X122528571Y-102021428D01*
X121028571Y-102021428D01*
X122528571Y-103235714D02*
X121528571Y-103235714D01*
X121028571Y-103235714D02*
X121100000Y-103164285D01*
X121171428Y-103235714D01*
X121100000Y-103307142D01*
X121028571Y-103235714D01*
X121171428Y-103235714D01*
X122528571Y-104164285D02*
X122457142Y-104021428D01*
X122314285Y-103950000D01*
X121028571Y-103950000D01*
X122528571Y-104950000D02*
X122457142Y-104807142D01*
X122314285Y-104735714D01*
X121028571Y-104735714D01*
X122457142Y-106092857D02*
X122528571Y-105950000D01*
X122528571Y-105664285D01*
X122457142Y-105521428D01*
X122314285Y-105450000D01*
X121742857Y-105450000D01*
X121600000Y-105521428D01*
X121528571Y-105664285D01*
X121528571Y-105950000D01*
X121600000Y-106092857D01*
X121742857Y-106164285D01*
X121885714Y-106164285D01*
X122028571Y-105450000D01*
X122528571Y-106807142D02*
X121528571Y-106807142D01*
X121814285Y-106807142D02*
X121671428Y-106878571D01*
X121600000Y-106950000D01*
X121528571Y-107092857D01*
X121528571Y-107235714D01*
X121528571Y-108378571D02*
X122528571Y-108378571D01*
X121528571Y-107735714D02*
X122314285Y-107735714D01*
X122457142Y-107807142D01*
X122528571Y-107950000D01*
X122528571Y-108164285D01*
X122457142Y-108307142D01*
X122385714Y-108378571D01*
X122528571Y-109735714D02*
X121028571Y-109735714D01*
X122457142Y-109735714D02*
X122528571Y-109592857D01*
X122528571Y-109307142D01*
X122457142Y-109164285D01*
X122385714Y-109092857D01*
X122242857Y-109021428D01*
X121814285Y-109021428D01*
X121671428Y-109092857D01*
X121600000Y-109164285D01*
X121528571Y-109307142D01*
X121528571Y-109592857D01*
X121600000Y-109735714D01*
X125078571Y-95985714D02*
X125078571Y-95128571D01*
X125078571Y-95557142D02*
X123578571Y-95557142D01*
X123792857Y-95414285D01*
X123935714Y-95271428D01*
X124007142Y-95128571D01*
X123578571Y-96485714D02*
X123578571Y-97485714D01*
X125078571Y-96842857D01*
X124935714Y-98057142D02*
X125007142Y-98128571D01*
X125078571Y-98057142D01*
X125007142Y-97985714D01*
X124935714Y-98057142D01*
X125078571Y-98057142D01*
X125078571Y-98771428D02*
X124078571Y-98771428D01*
X124221428Y-98771428D02*
X124150000Y-98842857D01*
X124078571Y-98985714D01*
X124078571Y-99200000D01*
X124150000Y-99342857D01*
X124292857Y-99414285D01*
X125078571Y-99414285D01*
X124292857Y-99414285D02*
X124150000Y-99485714D01*
X124078571Y-99628571D01*
X124078571Y-99842857D01*
X124150000Y-99985714D01*
X124292857Y-100057142D01*
X125078571Y-100057142D01*
X125078571Y-101414285D02*
X124292857Y-101414285D01*
X124150000Y-101342857D01*
X124078571Y-101200000D01*
X124078571Y-100914285D01*
X124150000Y-100771428D01*
X125007142Y-101414285D02*
X125078571Y-101271428D01*
X125078571Y-100914285D01*
X125007142Y-100771428D01*
X124864285Y-100700000D01*
X124721428Y-100700000D01*
X124578571Y-100771428D01*
X124507142Y-100914285D01*
X124507142Y-101271428D01*
X124435714Y-101414285D01*
X125078571Y-102128571D02*
X124078571Y-102128571D01*
X124364285Y-102128571D02*
X124221428Y-102200000D01*
X124150000Y-102271428D01*
X124078571Y-102414285D01*
X124078571Y-102557142D01*
X123721428Y-104128571D02*
X123650000Y-104200000D01*
X123578571Y-104342857D01*
X123578571Y-104700000D01*
X123650000Y-104842857D01*
X123721428Y-104914285D01*
X123864285Y-104985714D01*
X124007142Y-104985714D01*
X124221428Y-104914285D01*
X125078571Y-104057142D01*
X125078571Y-104985714D01*
X123578571Y-105914285D02*
X123578571Y-106057142D01*
X123650000Y-106200000D01*
X123721428Y-106271428D01*
X123864285Y-106342857D01*
X124150000Y-106414285D01*
X124507142Y-106414285D01*
X124792857Y-106342857D01*
X124935714Y-106271428D01*
X125007142Y-106200000D01*
X125078571Y-106057142D01*
X125078571Y-105914285D01*
X125007142Y-105771428D01*
X124935714Y-105700000D01*
X124792857Y-105628571D01*
X124507142Y-105557142D01*
X124150000Y-105557142D01*
X123864285Y-105628571D01*
X123721428Y-105700000D01*
X123650000Y-105771428D01*
X123578571Y-105914285D01*
X125078571Y-107842857D02*
X125078571Y-106985714D01*
X125078571Y-107414285D02*
X123578571Y-107414285D01*
X123792857Y-107271428D01*
X123935714Y-107128571D01*
X124007142Y-106985714D01*
X124221428Y-108700000D02*
X124150000Y-108557142D01*
X124078571Y-108485714D01*
X123935714Y-108414285D01*
X123864285Y-108414285D01*
X123721428Y-108485714D01*
X123650000Y-108557142D01*
X123578571Y-108700000D01*
X123578571Y-108985714D01*
X123650000Y-109128571D01*
X123721428Y-109200000D01*
X123864285Y-109271428D01*
X123935714Y-109271428D01*
X124078571Y-109200000D01*
X124150000Y-109128571D01*
X124221428Y-108985714D01*
X124221428Y-108700000D01*
X124292857Y-108557142D01*
X124364285Y-108485714D01*
X124507142Y-108414285D01*
X124792857Y-108414285D01*
X124935714Y-108485714D01*
X125007142Y-108557142D01*
X125078571Y-108700000D01*
X125078571Y-108985714D01*
X125007142Y-109128571D01*
X124935714Y-109200000D01*
X124792857Y-109271428D01*
X124507142Y-109271428D01*
X124364285Y-109200000D01*
X124292857Y-109128571D01*
X124221428Y-108985714D01*
M02*
