M48
;DRILL file {KiCad no-vcs-found-7722~57~ubuntu16.04.1} date Sat Feb 25 15:22:04 2017
;FORMAT={-:-/ absolute / metric / decimal}
FMAT,2
METRIC,TZ
T1C0.400
T2C0.500
T3C0.550
%
G90
G05
M71
T1
X128.092Y-105.004
X129.172Y-105.08
X129.731Y-100.686
X130.424Y-90.729
X131.049Y-87.818
X131.477Y-93.123
X132.626Y-100.368
X132.639Y-87.605
X133.323Y-99.976
X134.134Y-88.922
X134.178Y-92.319
X134.702Y-92.924
X135.445Y-93.218
X136.22Y-111.722
X136.271Y-87.935
X136.271Y-97.033
X136.906Y-95.415
X137.307Y-101.544
X137.477Y-86.208
X137.592Y-92.723
X137.851Y-105.565
X137.932Y-98.088
X138.051Y-104.047
X138.977Y-104.658
X140.97Y-115.672
X141.999Y-115.227
X142.253Y-80.023
X144.437Y-108.217
X145.737Y-111.559
X146.355Y-115.913
X147.925Y-106.502
X149.936Y-89.98
X151.521Y-112.255
X152.146Y-113.894
X152.832Y-101.792
X154.102Y-114.3
X156.654Y-76.263
X156.82Y-113.03
X156.87Y-99.504
X157.611Y-109.229
X159.015Y-107.84
X161.925Y-114.427
X163.817Y-116.116
X166.256Y-77.102
X166.675Y-75.235
X166.675Y-106.07
X167.272Y-82.182
X170.053Y-75.425
X171.22Y-82.278
T2
X124.284Y-86.365G85X124.934Y-86.365
G05
X124.284Y-93.365G85X124.934Y-93.365
G05
T3
X127.309Y-87.215G85X127.309Y-87.515
G05
X127.309Y-92.215G85X127.309Y-92.515
G05
T0
M30
