G04 #@! TF.GenerationSoftware,KiCad,Pcbnew,no-vcs-found-7722~57~ubuntu16.04.1*
G04 #@! TF.CreationDate,2017-02-25T15:22:01+01:00*
G04 #@! TF.ProjectId,GhostESP32,47686F737445535033322E6B69636164,rev?*
G04 #@! TF.FileFunction,Copper,L1,Top,Signal*
G04 #@! TF.FilePolarity,Positive*
%FSLAX46Y46*%
G04 Gerber Fmt 4.6, Leading zero omitted, Abs format (unit mm)*
G04 Created by KiCad (PCBNEW no-vcs-found-7722~57~ubuntu16.04.1) date Sat Feb 25 15:22:01 2017*
%MOMM*%
%LPD*%
G01*
G04 APERTURE LIST*
%ADD10C,0.100000*%
%ADD11R,0.750000X0.800000*%
%ADD12R,0.800000X0.750000*%
%ADD13R,0.800000X0.800000*%
%ADD14R,1.800000X2.500000*%
%ADD15R,1.350000X0.400000*%
%ADD16O,0.950000X1.250000*%
%ADD17O,1.550000X1.000000*%
%ADD18R,2.500000X0.350000*%
%ADD19R,0.800000X0.900000*%
%ADD20R,0.900000X0.800000*%
%ADD21R,0.500000X0.900000*%
%ADD22R,0.900000X0.500000*%
%ADD23R,1.450000X0.700000*%
%ADD24R,3.500000X2.000000*%
%ADD25R,7.000000X7.000000*%
%ADD26R,1.550000X0.600000*%
%ADD27O,0.300000X0.850000*%
%ADD28O,0.850000X0.300000*%
%ADD29R,1.675000X1.675000*%
%ADD30O,0.900000X2.500000*%
%ADD31O,2.500000X0.900000*%
%ADD32R,6.000000X6.000000*%
%ADD33C,0.600000*%
%ADD34C,0.250000*%
%ADD35C,0.254000*%
G04 APERTURE END LIST*
D10*
D11*
X138823700Y-77737400D03*
X138823700Y-76237400D03*
X138760200Y-71576500D03*
X138760200Y-73076500D03*
X171145200Y-81077500D03*
X171145200Y-79577500D03*
D12*
X166116700Y-79616300D03*
X164616700Y-79616300D03*
X132295200Y-98552000D03*
X133795200Y-98552000D03*
X169341100Y-76987400D03*
X170841100Y-76987400D03*
X128105600Y-106540300D03*
X126605600Y-106540300D03*
X128804100Y-98374200D03*
X127304100Y-98374200D03*
X128004000Y-102984300D03*
X126504000Y-102984300D03*
D11*
X169151300Y-110389100D03*
X169151300Y-108889100D03*
D12*
X159842900Y-71462900D03*
X158342900Y-71462900D03*
D13*
X128663700Y-81483200D03*
X127063700Y-81483200D03*
D14*
X133616700Y-75597000D03*
X133616700Y-79597000D03*
D13*
X132676800Y-110070900D03*
X131076800Y-110070900D03*
X132676800Y-112268000D03*
X131076800Y-112268000D03*
D15*
X127308600Y-88565200D03*
X127308600Y-89215200D03*
X127308600Y-89865200D03*
X127308600Y-90515200D03*
X127308600Y-91165200D03*
D16*
X127308600Y-87365200D03*
X127308600Y-92365200D03*
D17*
X124608600Y-86365200D03*
X124608600Y-93365200D03*
D18*
X144439200Y-94178400D03*
X144439200Y-94778400D03*
X144439200Y-95378400D03*
X144439200Y-95978400D03*
X144439200Y-96578400D03*
X144439200Y-97178400D03*
X144439200Y-97778400D03*
X144439200Y-98378400D03*
X144439200Y-98978400D03*
X144439200Y-99578400D03*
X144439200Y-100178400D03*
X144439200Y-100778400D03*
X144439200Y-101378400D03*
X144439200Y-101978400D03*
X144439200Y-102578400D03*
X144439200Y-93578400D03*
X144439200Y-92978400D03*
X144439200Y-92378400D03*
X144439200Y-91778400D03*
X144439200Y-91178400D03*
X144439200Y-90578400D03*
X144439200Y-89978400D03*
X144439200Y-89378400D03*
X144439200Y-88778400D03*
X144439200Y-88178400D03*
X144439200Y-87578400D03*
X144439200Y-86978400D03*
X144439200Y-86378400D03*
X144439200Y-85778400D03*
X144439200Y-85178400D03*
X139939200Y-94178400D03*
X139939200Y-94778400D03*
X139939200Y-95378400D03*
X139939200Y-95978400D03*
X139939200Y-96578400D03*
X139939200Y-97178400D03*
X139939200Y-97778400D03*
X139939200Y-98378400D03*
X139939200Y-98978400D03*
X139939200Y-99578400D03*
X139939200Y-100178400D03*
X139939200Y-100778400D03*
X139939200Y-101978400D03*
X139939200Y-102578400D03*
X139939200Y-101378400D03*
X139939200Y-93578400D03*
X139939200Y-92978400D03*
X139939200Y-91178400D03*
X139939200Y-92378400D03*
X139939200Y-91778400D03*
X139939200Y-90578400D03*
X139939200Y-88178400D03*
X139939200Y-89378400D03*
X139939200Y-89978400D03*
X139939200Y-88778400D03*
X139939200Y-85778400D03*
X139939200Y-86978400D03*
X139939200Y-86378400D03*
X139939200Y-85178400D03*
X139939200Y-87578400D03*
D19*
X135112800Y-84407500D03*
X133212800Y-84407500D03*
X134162800Y-86407500D03*
D20*
X150390100Y-110182700D03*
X150390100Y-108282700D03*
X148390100Y-109232700D03*
D21*
X128702500Y-78905100D03*
X127202500Y-78905100D03*
X135027100Y-90119200D03*
X133527100Y-90119200D03*
X145631600Y-109728000D03*
X144131600Y-109728000D03*
X154139200Y-112522000D03*
X155639200Y-112522000D03*
X154088400Y-110794800D03*
X155588400Y-110794800D03*
D22*
X141249400Y-109474700D03*
X141249400Y-107974700D03*
X150190200Y-114427700D03*
X150190200Y-112927700D03*
D21*
X134416100Y-110147100D03*
X135916100Y-110147100D03*
D22*
X168452800Y-79449800D03*
X168452800Y-80949800D03*
D21*
X131228400Y-115976400D03*
X132728400Y-115976400D03*
D22*
X135585200Y-113080100D03*
X135585200Y-114580100D03*
X149098000Y-97778000D03*
X149098000Y-96278000D03*
D21*
X160465200Y-114452400D03*
X158965200Y-114452400D03*
X163486400Y-114503200D03*
X164986400Y-114503200D03*
X164440300Y-71526400D03*
X162940300Y-71526400D03*
D23*
X165592200Y-109998000D03*
X160442200Y-109998000D03*
X160442200Y-111998000D03*
X165592200Y-111998000D03*
X159032500Y-77593700D03*
X164182500Y-77593700D03*
X164182500Y-75593700D03*
X159032500Y-75593700D03*
D24*
X143831600Y-72376000D03*
X143831600Y-76956000D03*
D25*
X151231600Y-74676000D03*
D26*
X138930400Y-112191800D03*
X138930400Y-113461800D03*
X138930400Y-114731800D03*
X138930400Y-116001800D03*
X144330400Y-116001800D03*
X144330400Y-114731800D03*
X144330400Y-113461800D03*
X144330400Y-112191800D03*
D27*
X134748400Y-102248800D03*
X134248400Y-102248800D03*
X133748400Y-102248800D03*
X133248400Y-102248800D03*
X132748400Y-102248800D03*
X132248400Y-102248800D03*
X131748400Y-102248800D03*
D28*
X130798400Y-103198800D03*
X130798400Y-103698800D03*
X130798400Y-104198800D03*
X130798400Y-104698800D03*
X130798400Y-105198800D03*
X130798400Y-105698800D03*
X130798400Y-106198800D03*
D27*
X131748400Y-107148800D03*
X132248400Y-107148800D03*
X132748400Y-107148800D03*
X133248400Y-107148800D03*
X133748400Y-107148800D03*
X134248400Y-107148800D03*
X134748400Y-107148800D03*
D28*
X135698400Y-106198800D03*
X135698400Y-105698800D03*
X135698400Y-105198800D03*
X135698400Y-104698800D03*
X135698400Y-104198800D03*
X135698400Y-103698800D03*
X135698400Y-103198800D03*
D29*
X132410900Y-105536300D03*
X134085900Y-105536300D03*
X132410900Y-103861300D03*
X134085900Y-103861300D03*
D30*
X171530000Y-103280000D03*
X170260000Y-103280000D03*
X168990000Y-103280000D03*
X167720000Y-103280000D03*
X166450000Y-103280000D03*
X165180000Y-103280000D03*
X163910000Y-103280000D03*
X162640000Y-103280000D03*
X161370000Y-103280000D03*
X160100000Y-103280000D03*
X158830000Y-103280000D03*
X157560000Y-103280000D03*
X156290000Y-103280000D03*
X155020000Y-103280000D03*
D31*
X153530000Y-99995000D03*
X153530000Y-98725000D03*
X153530000Y-97455000D03*
X153530000Y-96185000D03*
X153530000Y-94915000D03*
X153530000Y-93645000D03*
X153530000Y-92375000D03*
X153530000Y-91105000D03*
X153530000Y-89835000D03*
X153530000Y-88565000D03*
D30*
X155020000Y-85280000D03*
X156290000Y-85280000D03*
X157560000Y-85280000D03*
X158830000Y-85280000D03*
X160100000Y-85280000D03*
X161370000Y-85280000D03*
X162640000Y-85280000D03*
X163910000Y-85280000D03*
X165180000Y-85280000D03*
X166450000Y-85280000D03*
X167720000Y-85280000D03*
X168990000Y-85280000D03*
X170260000Y-85280000D03*
X171530000Y-85280000D03*
D32*
X163830000Y-93980000D03*
D13*
X153619100Y-115900200D03*
X152019100Y-115900200D03*
D21*
X155244100Y-115925600D03*
X156744100Y-115925600D03*
D33*
X137932330Y-98088115D03*
X134178045Y-92318660D03*
X142252700Y-80022700D03*
X137591800Y-92722700D03*
X135445500Y-93218000D03*
X166255700Y-77101700D03*
X170053000Y-75425300D03*
X163817300Y-116116100D03*
X134701662Y-92923510D03*
X145737191Y-111558590D03*
X156654500Y-76263500D03*
X128092200Y-105003600D03*
X129730500Y-100685600D03*
X137477500Y-86207600D03*
X132638800Y-87604600D03*
X166674800Y-75234800D03*
X171220191Y-82277824D03*
X167271700Y-82181700D03*
X130423750Y-90728800D03*
X132626100Y-100368100D03*
X131476761Y-93122739D03*
X133323487Y-99976091D03*
X136906000Y-95415100D03*
X129171700Y-105079800D03*
X151520990Y-112255499D03*
X156870400Y-99504500D03*
X147924520Y-106502200D03*
X161925000Y-114427000D03*
X152831800Y-101791800D03*
X134134248Y-88922248D03*
X136271000Y-87934800D03*
X137850880Y-105565102D03*
X137307320Y-101544120D03*
X136271000Y-97033080D03*
X131048760Y-87817960D03*
X138977464Y-104657670D03*
X146354800Y-115912900D03*
X154101800Y-114300000D03*
X141998700Y-115227100D03*
X166674800Y-106070400D03*
X156819600Y-113030000D03*
X152146000Y-113893600D03*
X140970000Y-115671600D03*
X157610799Y-109228901D03*
X159015345Y-107840179D03*
X149936200Y-89979500D03*
X144437100Y-108216700D03*
X138051254Y-104047065D03*
X136220200Y-111721900D03*
D34*
X138232329Y-97788116D02*
X137932330Y-98088115D01*
X138242045Y-97778400D02*
X138232329Y-97788116D01*
X139939200Y-97778400D02*
X138242045Y-97778400D01*
X128804100Y-97692605D02*
X134178045Y-92318660D01*
X128804100Y-98374200D02*
X128804100Y-97692605D01*
X142252700Y-80022700D02*
X143831600Y-78443800D01*
X143831600Y-78443800D02*
X143831600Y-76956000D01*
X139939200Y-98378400D02*
X139939200Y-98978400D01*
X139939200Y-97778400D02*
X139939200Y-98378400D01*
X139939200Y-97178400D02*
X139939200Y-96578400D01*
X139939200Y-97778400D02*
X139939200Y-97178400D01*
X138823700Y-77737400D02*
X138823700Y-83098198D01*
X136463400Y-85458498D02*
X136463400Y-86802600D01*
X138439200Y-88778400D02*
X139939200Y-88778400D01*
X138823700Y-83098198D02*
X136463400Y-85458498D01*
X136463400Y-86802600D02*
X138439200Y-88778400D01*
X128004000Y-102984300D02*
X128004000Y-99149300D01*
X128004000Y-99149300D02*
X128779100Y-98374200D01*
X128779100Y-98374200D02*
X128804100Y-98374200D01*
X128004000Y-102984300D02*
X130583900Y-102984300D01*
X130583900Y-102984300D02*
X130798400Y-103198800D01*
X139939200Y-89378400D02*
X139939200Y-89978400D01*
X139939200Y-88778400D02*
X139939200Y-89378400D01*
X133616700Y-75597000D02*
X131810600Y-75597000D01*
X131810600Y-75597000D02*
X128702500Y-78705100D01*
X128702500Y-78705100D02*
X128702500Y-78905100D01*
X138823700Y-77737400D02*
X135407100Y-77737400D01*
X135407100Y-77737400D02*
X133616700Y-75947000D01*
X133616700Y-75947000D02*
X133616700Y-75597000D01*
X138823700Y-77737400D02*
X143050200Y-77737400D01*
X143050200Y-77737400D02*
X143831600Y-76956000D01*
X139939200Y-91778400D02*
X139939200Y-91178400D01*
X139939200Y-92978400D02*
X137847500Y-92978400D01*
X137847500Y-92978400D02*
X137591800Y-92722700D01*
X133795200Y-94868300D02*
X135445500Y-93218000D01*
X133795200Y-98552000D02*
X133795200Y-94868300D01*
X142939200Y-96578400D02*
X142207700Y-95846900D01*
X142207700Y-95846900D02*
X141514201Y-95153401D01*
X139939200Y-100178400D02*
X141439200Y-100178400D01*
X141439200Y-100178400D02*
X142207700Y-99409900D01*
X142207700Y-99409900D02*
X142207700Y-95846900D01*
X139939200Y-100778400D02*
X139939200Y-100178400D01*
X144439200Y-96578400D02*
X142939200Y-96578400D01*
X141514201Y-95153401D02*
X141514201Y-94078401D01*
X141514201Y-94078401D02*
X141014200Y-93578400D01*
X141014200Y-93578400D02*
X139939200Y-93578400D01*
X139939200Y-94178400D02*
X139939200Y-93578400D01*
X137499000Y-115595400D02*
X136448800Y-115595400D01*
X138930400Y-116001800D02*
X137905400Y-116001800D01*
X137905400Y-116001800D02*
X137499000Y-115595400D01*
X156883100Y-72720200D02*
X156972000Y-72872600D01*
X156883100Y-72783700D02*
X156972000Y-72872600D01*
X156883100Y-72272700D02*
X156883100Y-72720200D01*
X158342900Y-71462900D02*
X157692900Y-71462900D01*
X157692900Y-71462900D02*
X156883100Y-72272700D01*
X164182500Y-77593700D02*
X165763700Y-77593700D01*
X165763700Y-77593700D02*
X166255700Y-77101700D01*
X170841100Y-76987400D02*
X170841100Y-76213400D01*
X170841100Y-76213400D02*
X170053000Y-75425300D01*
X134569200Y-100753000D02*
X133748400Y-101573800D01*
X133748400Y-101573800D02*
X133748400Y-102248800D01*
X133748400Y-102248800D02*
X133748400Y-103523800D01*
X133748400Y-103523800D02*
X134085900Y-103861300D01*
X127308600Y-92365200D02*
X127308600Y-91165200D01*
X127308600Y-92365200D02*
X124858600Y-92365200D01*
X124858600Y-92365200D02*
X124608600Y-92615200D01*
X124608600Y-92615200D02*
X124608600Y-93365200D01*
X124608600Y-86365200D02*
X126458600Y-86365200D01*
X126458600Y-86365200D02*
X127308600Y-87215200D01*
X127308600Y-87215200D02*
X127308600Y-87365200D01*
X127063700Y-81483200D02*
X127063700Y-84185100D01*
X127063700Y-84185100D02*
X124883600Y-86365200D01*
X124883600Y-86365200D02*
X124608600Y-86365200D01*
X149098000Y-97778000D02*
X148898000Y-97778000D01*
X148898000Y-97778000D02*
X147698400Y-96578400D01*
X147698400Y-96578400D02*
X144439200Y-96578400D01*
X171145200Y-79577500D02*
X171145200Y-77291500D01*
X171145200Y-77291500D02*
X170841100Y-76987400D01*
X171530000Y-85280000D02*
X171530000Y-83780000D01*
X171845201Y-80302501D02*
X171145200Y-79602500D01*
X171530000Y-83780000D02*
X171845201Y-83464799D01*
X171145200Y-79602500D02*
X171145200Y-79577500D01*
X171845201Y-83464799D02*
X171845201Y-80302501D01*
X158965200Y-114452400D02*
X158965200Y-114652400D01*
X158965200Y-114652400D02*
X160428900Y-116116100D01*
X160428900Y-116116100D02*
X163817300Y-116116100D01*
X132295200Y-98552000D02*
X132295200Y-95329972D01*
X132295200Y-95329972D02*
X134701662Y-92923510D01*
X169341100Y-76987400D02*
X169341100Y-76478700D01*
X169341100Y-76478700D02*
X165015301Y-72152901D01*
X165015301Y-72152901D02*
X165015301Y-70816399D01*
X163865299Y-71002899D02*
X163613799Y-70751399D01*
X163613799Y-70751399D02*
X151406201Y-70751399D01*
X165015301Y-70816399D02*
X164950301Y-70751399D01*
X163865299Y-70816399D02*
X163865299Y-71002899D01*
X151231600Y-70926000D02*
X151231600Y-74676000D01*
X164950301Y-70751399D02*
X163930299Y-70751399D01*
X151406201Y-70751399D02*
X151231600Y-70926000D01*
X163930299Y-70751399D02*
X163865299Y-70816399D01*
X144805400Y-112191800D02*
X145438610Y-111558590D01*
X144330400Y-112191800D02*
X144805400Y-112191800D01*
X145438610Y-111558590D02*
X145737191Y-111558590D01*
X142254199Y-83653401D02*
X151231600Y-74676000D01*
X137477500Y-86207600D02*
X137777499Y-85907601D01*
X137777499Y-85907601D02*
X137777499Y-85330099D01*
X139454197Y-83653401D02*
X142254199Y-83653401D01*
X137777499Y-85330099D02*
X139454197Y-83653401D01*
X166116700Y-79616300D02*
X168286300Y-79616300D01*
X168286300Y-79616300D02*
X168452800Y-79449800D01*
X156654500Y-76263500D02*
X152819100Y-76263500D01*
X152819100Y-76263500D02*
X151231600Y-74676000D01*
X128092200Y-105003600D02*
X128092200Y-106526900D01*
X128092200Y-106526900D02*
X128105600Y-106540300D01*
X131748400Y-102248800D02*
X131748400Y-101973800D01*
X131748400Y-101973800D02*
X130460200Y-100685600D01*
X130460200Y-100685600D02*
X129730500Y-100685600D01*
X131645200Y-100970600D02*
X132248400Y-101573800D01*
X132295200Y-98552000D02*
X132295200Y-99177000D01*
X132295200Y-99177000D02*
X131645200Y-99827000D01*
X131645200Y-99827000D02*
X131645200Y-100970600D01*
X132248400Y-101573800D02*
X132248400Y-102248800D01*
X138248300Y-86978400D02*
X137477500Y-86207600D01*
X139939200Y-86978400D02*
X138248300Y-86978400D01*
X139939200Y-86378400D02*
X139939200Y-85778400D01*
X139939200Y-86978400D02*
X139939200Y-86378400D01*
X139939200Y-86978400D02*
X139939200Y-87578400D01*
X132248400Y-102248800D02*
X131748400Y-102248800D01*
X138760200Y-71576500D02*
X139385200Y-71576500D01*
X139385200Y-71576500D02*
X139910701Y-71050999D01*
X139910701Y-71050999D02*
X147606599Y-71050999D01*
X147606599Y-71050999D02*
X151231600Y-74676000D01*
X168452800Y-79449800D02*
X168452800Y-77850700D01*
X168452800Y-77850700D02*
X169316100Y-76987400D01*
X169316100Y-76987400D02*
X169341100Y-76987400D01*
X170260000Y-85280000D02*
X170260000Y-81057000D01*
X170260000Y-81057000D02*
X168652800Y-79449800D01*
X168652800Y-79449800D02*
X168452800Y-79449800D01*
X134162800Y-86407500D02*
X133835900Y-86407500D01*
X133835900Y-86407500D02*
X132638800Y-87604600D01*
X164440300Y-73000300D02*
X166674800Y-75234800D01*
X164440300Y-71526400D02*
X164440300Y-73000300D01*
X171145200Y-82202833D02*
X171220191Y-82277824D01*
X171145200Y-81077500D02*
X171145200Y-82202833D01*
X168452800Y-80949800D02*
X168452800Y-81000600D01*
X168452800Y-81000600D02*
X167271700Y-82181700D01*
X168990000Y-85280000D02*
X168990000Y-81487000D01*
X168990000Y-81487000D02*
X168452800Y-80949800D01*
X160442200Y-111998000D02*
X165592200Y-111998000D01*
X165592200Y-111998000D02*
X167567400Y-111998000D01*
X167567400Y-111998000D02*
X169151300Y-110414100D01*
X169151300Y-110414100D02*
X169151300Y-110389100D01*
X164986400Y-114503200D02*
X164986400Y-112603800D01*
X164986400Y-112603800D02*
X165592200Y-111998000D01*
X162940300Y-71526400D02*
X159906400Y-71526400D01*
X159906400Y-71526400D02*
X159842900Y-71462900D01*
X162940300Y-71526400D02*
X162940300Y-74726500D01*
X162940300Y-74726500D02*
X163807500Y-75593700D01*
X163807500Y-75593700D02*
X164182500Y-75593700D01*
X159032500Y-75593700D02*
X159032500Y-72248300D01*
X159032500Y-72248300D02*
X159817900Y-71462900D01*
X159817900Y-71462900D02*
X159842900Y-71462900D01*
X128663700Y-81483200D02*
X128663700Y-80366300D01*
X128663700Y-80366300D02*
X127902500Y-79605100D01*
X127902500Y-79605100D02*
X127702500Y-79605100D01*
X127702500Y-79605100D02*
X127202500Y-79105100D01*
X127202500Y-79105100D02*
X127202500Y-78905100D01*
X127308600Y-88565200D02*
X127783600Y-88565200D01*
X127783600Y-88565200D02*
X128233600Y-88115200D01*
X128233600Y-88115200D02*
X128233600Y-86480100D01*
X128233600Y-86480100D02*
X133616700Y-81097000D01*
X133616700Y-81097000D02*
X133616700Y-79597000D01*
X134416100Y-110147100D02*
X132753000Y-110147100D01*
X132753000Y-110147100D02*
X132676800Y-110070900D01*
X131228400Y-115976400D02*
X131228400Y-113716400D01*
X131228400Y-113716400D02*
X132676800Y-112268000D01*
X128910150Y-89215200D02*
X130123751Y-90428801D01*
X130123751Y-90428801D02*
X130423750Y-90728800D01*
X127308600Y-89215200D02*
X128910150Y-89215200D01*
X132626100Y-100368100D02*
X132748400Y-100490400D01*
X132748400Y-100490400D02*
X132748400Y-102248800D01*
X131476761Y-93108361D02*
X131476761Y-93122739D01*
X127308600Y-89865200D02*
X128233600Y-89865200D01*
X128233600Y-89865200D02*
X131476761Y-93108361D01*
X133323487Y-100989415D02*
X133323487Y-99976091D01*
X133248400Y-101064502D02*
X133323487Y-100989415D01*
X133248400Y-102248800D02*
X133248400Y-101064502D01*
X153530000Y-91105000D02*
X152030000Y-91105000D01*
X152030000Y-91105000D02*
X151356600Y-91778400D01*
X151356600Y-91778400D02*
X144439200Y-91778400D01*
X150089811Y-94178400D02*
X144439200Y-94178400D01*
X152030000Y-95485000D02*
X151396411Y-95485000D01*
X153530000Y-96185000D02*
X152730000Y-96185000D01*
X152730000Y-96185000D02*
X152030000Y-95485000D01*
X151396411Y-95485000D02*
X150089811Y-94178400D01*
X136906000Y-95415100D02*
X139902500Y-95415100D01*
X139902500Y-95415100D02*
X139939200Y-95378400D01*
X130798400Y-104698800D02*
X129552700Y-104698800D01*
X129552700Y-104698800D02*
X129171700Y-105079800D01*
X153530000Y-97455000D02*
X152730000Y-97455000D01*
X152730000Y-97455000D02*
X150053400Y-94778400D01*
X150053400Y-94778400D02*
X144439200Y-94778400D01*
X161853000Y-81153000D02*
X165180000Y-84480000D01*
X157279408Y-80554913D02*
X157877495Y-81153000D01*
X165180000Y-84480000D02*
X165180000Y-85280000D01*
X157877495Y-81153000D02*
X161853000Y-81153000D01*
X150381887Y-80554913D02*
X157279408Y-80554913D01*
X146014201Y-84922599D02*
X150381887Y-80554913D01*
X144439200Y-85778400D02*
X144539199Y-85678401D01*
X144539199Y-85678401D02*
X145949201Y-85678401D01*
X145949201Y-85678401D02*
X146014201Y-85613401D01*
X146014201Y-85613401D02*
X146014201Y-84922599D01*
X141439200Y-85178400D02*
X139939200Y-85178400D01*
X162373700Y-79133700D02*
X147483900Y-79133700D01*
X167720000Y-84480000D02*
X162373700Y-79133700D01*
X167720000Y-85280000D02*
X167720000Y-84480000D01*
X147483900Y-79133700D02*
X141439200Y-85178400D01*
X163910000Y-84480000D02*
X163910000Y-85280000D01*
X157691095Y-81603011D02*
X161033011Y-81603011D01*
X145939200Y-86378400D02*
X146464212Y-85853388D01*
X156459419Y-81004924D02*
X156909430Y-81454935D01*
X157543019Y-81454935D02*
X157691095Y-81603011D01*
X156909430Y-81454935D02*
X157543019Y-81454935D01*
X151222678Y-81004924D02*
X156459419Y-81004924D01*
X146464212Y-85853388D02*
X146464212Y-85763390D01*
X144439200Y-86378400D02*
X145939200Y-86378400D01*
X161033011Y-81603011D02*
X163910000Y-84480000D01*
X146464212Y-85763390D02*
X151222678Y-81004924D01*
X144439200Y-85178400D02*
X144439200Y-84753400D01*
X144439200Y-84753400D02*
X149296900Y-79895700D01*
X149296900Y-79895700D02*
X161865700Y-79895700D01*
X161865700Y-79895700D02*
X166450000Y-84480000D01*
X166450000Y-84480000D02*
X166450000Y-85280000D01*
X153530000Y-92375000D02*
X144442600Y-92375000D01*
X144442600Y-92375000D02*
X144439200Y-92378400D01*
X150162633Y-92978400D02*
X144439200Y-92978400D01*
X150829233Y-93645000D02*
X150162633Y-92978400D01*
X153530000Y-93645000D02*
X150829233Y-93645000D01*
X150126222Y-93578400D02*
X144439200Y-93578400D01*
X151462822Y-94915000D02*
X150126222Y-93578400D01*
X153530000Y-94915000D02*
X151462822Y-94915000D01*
X151062401Y-112255499D02*
X151520990Y-112255499D01*
X150390200Y-112927700D02*
X151062401Y-112255499D01*
X150190200Y-112927700D02*
X150390200Y-112927700D01*
X153530000Y-98725000D02*
X156090900Y-98725000D01*
X156090900Y-98725000D02*
X156870400Y-99504500D01*
X153530000Y-98725000D02*
X152730000Y-98725000D01*
X149383400Y-95378400D02*
X144439200Y-95378400D01*
X152730000Y-98725000D02*
X149383400Y-95378400D01*
X149098000Y-96278000D02*
X148398000Y-96278000D01*
X148398000Y-96278000D02*
X148098400Y-95978400D01*
X148098400Y-95978400D02*
X144439200Y-95978400D01*
X153530000Y-99995000D02*
X152730000Y-99995000D01*
X152730000Y-99995000D02*
X149798000Y-97063000D01*
X149798000Y-97063000D02*
X149798000Y-96778000D01*
X149798000Y-96778000D02*
X149298000Y-96278000D01*
X149298000Y-96278000D02*
X149098000Y-96278000D01*
X152534285Y-103326723D02*
X154512575Y-105305013D01*
X144439200Y-98378400D02*
X147242350Y-98378400D01*
X156161016Y-105305013D02*
X156686029Y-104780000D01*
X156860000Y-104780000D02*
X157560000Y-104080000D01*
X156686029Y-104780000D02*
X156860000Y-104780000D01*
X157560000Y-104080000D02*
X157560000Y-103280000D01*
X154512575Y-105305013D02*
X156161016Y-105305013D01*
X147242350Y-98378400D02*
X152190673Y-103326723D01*
X152190673Y-103326723D02*
X152534285Y-103326723D01*
X154155198Y-85280000D02*
X155020000Y-85280000D01*
X150080699Y-89354499D02*
X154155198Y-85280000D01*
X149636199Y-89354499D02*
X150080699Y-89354499D01*
X148412298Y-90578400D02*
X149636199Y-89354499D01*
X144439200Y-90578400D02*
X148412298Y-90578400D01*
X156533816Y-106205035D02*
X157046095Y-105692756D01*
X144439200Y-99578400D02*
X147169528Y-99578400D01*
X157046095Y-105692756D02*
X158487244Y-105692756D01*
X152161485Y-104226745D02*
X154139775Y-106205035D01*
X151817873Y-104226745D02*
X152161485Y-104226745D01*
X158487244Y-105692756D02*
X160100000Y-104080000D01*
X160100000Y-104080000D02*
X160100000Y-103280000D01*
X147169528Y-99578400D02*
X151817873Y-104226745D01*
X154139775Y-106205035D02*
X156533816Y-106205035D01*
X156290000Y-84653971D02*
X156290000Y-85280000D01*
X149443467Y-88942588D02*
X154681065Y-83704990D01*
X149386299Y-88942588D02*
X149443467Y-88942588D01*
X144439200Y-89978400D02*
X148350487Y-89978400D01*
X154681065Y-83704990D02*
X155341019Y-83704990D01*
X155341019Y-83704990D02*
X156290000Y-84653971D01*
X148350487Y-89978400D02*
X149386299Y-88942588D01*
X155341019Y-104855010D02*
X154698981Y-104855010D01*
X156290000Y-103280000D02*
X156290000Y-103906029D01*
X156290000Y-103906029D02*
X155341019Y-104855010D01*
X148667706Y-98823735D02*
X148324095Y-98823735D01*
X148324095Y-98823735D02*
X147278760Y-97778400D01*
X147278760Y-97778400D02*
X144439200Y-97778400D01*
X154698981Y-104855010D02*
X148667706Y-98823735D01*
X148314076Y-89378400D02*
X149199899Y-88492577D01*
X149257067Y-88492577D02*
X154494665Y-83254979D01*
X144439200Y-89378400D02*
X148314076Y-89378400D01*
X157560000Y-84653971D02*
X157560000Y-85280000D01*
X155977430Y-83704990D02*
X156611019Y-83704990D01*
X154494665Y-83254979D02*
X155527419Y-83254979D01*
X156611019Y-83704990D02*
X157560000Y-84653971D01*
X149199899Y-88492577D02*
X149257067Y-88492577D01*
X155527419Y-83254979D02*
X155977430Y-83704990D01*
X148224519Y-106802199D02*
X147924520Y-106502200D01*
X148390100Y-106967780D02*
X148224519Y-106802199D01*
X148390100Y-109232700D02*
X148390100Y-106967780D01*
X163486400Y-114503200D02*
X162001200Y-114503200D01*
X162001200Y-114503200D02*
X161925000Y-114427000D01*
X161925000Y-114427000D02*
X160490600Y-114427000D01*
X160490600Y-114427000D02*
X160465200Y-114452400D01*
X152831800Y-101791800D02*
X149413725Y-98373725D01*
X155020000Y-103280000D02*
X154320000Y-103280000D01*
X154320000Y-103280000D02*
X152831800Y-101791800D01*
X147315171Y-97178400D02*
X144439200Y-97178400D01*
X148510496Y-98373725D02*
X147315171Y-97178400D01*
X149413725Y-98373725D02*
X148510496Y-98373725D01*
X156797419Y-83254979D02*
X156945495Y-83403055D01*
X157753055Y-83403055D02*
X158830000Y-84480000D01*
X156945495Y-83403055D02*
X157753055Y-83403055D01*
X149013499Y-88042566D02*
X149070666Y-88042566D01*
X149070666Y-88042566D02*
X154308265Y-82804968D01*
X155713819Y-82804968D02*
X156163830Y-83254979D01*
X156163830Y-83254979D02*
X156797419Y-83254979D01*
X148277666Y-88778400D02*
X149013499Y-88042566D01*
X154308265Y-82804968D02*
X155713819Y-82804968D01*
X158830000Y-84480000D02*
X158830000Y-85280000D01*
X144439200Y-88778400D02*
X148277666Y-88778400D01*
X151631472Y-104676756D02*
X147133115Y-100178400D01*
X153953375Y-106655046D02*
X151975085Y-104676756D01*
X159262453Y-105573045D02*
X158507643Y-106327855D01*
X158015353Y-106655046D02*
X153953375Y-106655046D01*
X147133115Y-100178400D02*
X144439200Y-100178400D01*
X161370000Y-103280000D02*
X161370000Y-104080000D01*
X151975085Y-104676756D02*
X151631472Y-104676756D01*
X158342543Y-106327855D02*
X158015353Y-106655046D01*
X159876955Y-105573045D02*
X159262453Y-105573045D01*
X161370000Y-104080000D02*
X159876955Y-105573045D01*
X158507643Y-106327855D02*
X158342543Y-106327855D01*
X160100000Y-84480000D02*
X160100000Y-85280000D01*
X157131895Y-82953044D02*
X158573044Y-82953044D01*
X156350230Y-82804968D02*
X156983819Y-82804968D01*
X155900219Y-82354957D02*
X156350230Y-82804968D01*
X154121865Y-82354957D02*
X155900219Y-82354957D01*
X148241254Y-88178400D02*
X148827099Y-87592555D01*
X148827099Y-87592555D02*
X148884267Y-87592555D01*
X158573044Y-82953044D02*
X160100000Y-84480000D01*
X144439200Y-88178400D02*
X148241254Y-88178400D01*
X156983819Y-82804968D02*
X157131895Y-82953044D01*
X148884267Y-87592555D02*
X154121865Y-82354957D01*
X158694043Y-106777866D02*
X159448853Y-106023056D01*
X147096706Y-100778400D02*
X151445073Y-105126767D01*
X158201752Y-107105057D02*
X158528943Y-106777866D01*
X144439200Y-100778400D02*
X147096706Y-100778400D01*
X153766975Y-107105057D02*
X158201752Y-107105057D01*
X160696944Y-106023056D02*
X162640000Y-104080000D01*
X162640000Y-104080000D02*
X162640000Y-103280000D01*
X151788685Y-105126767D02*
X153766975Y-107105057D01*
X158528943Y-106777866D02*
X158694043Y-106777866D01*
X151445073Y-105126767D02*
X151788685Y-105126767D01*
X159448853Y-106023056D02*
X160696944Y-106023056D01*
X147060294Y-101378400D02*
X144439200Y-101378400D01*
X158390343Y-107555068D02*
X153580577Y-107555068D01*
X158717534Y-107227877D02*
X158390343Y-107555068D01*
X158880443Y-107227877D02*
X158717534Y-107227877D01*
X162786933Y-106473067D02*
X159635253Y-106473067D01*
X153580577Y-107555068D02*
X151602287Y-105576778D01*
X165180000Y-104080000D02*
X162786933Y-106473067D01*
X151258671Y-105576778D02*
X147060294Y-101378400D01*
X165180000Y-103280000D02*
X165180000Y-104080000D01*
X159635253Y-106473067D02*
X158880443Y-107227877D01*
X151602287Y-105576778D02*
X151258671Y-105576778D01*
X148454299Y-86692533D02*
X148487478Y-86692533D01*
X162640000Y-84480000D02*
X162640000Y-85280000D01*
X148168432Y-86978400D02*
X148454299Y-86692533D01*
X156273019Y-81454935D02*
X156723030Y-81904946D01*
X160213022Y-82053022D02*
X162640000Y-84480000D01*
X157504695Y-82053022D02*
X160213022Y-82053022D01*
X156723030Y-81904946D02*
X157356619Y-81904946D01*
X153725076Y-81454935D02*
X156273019Y-81454935D01*
X148487478Y-86692533D02*
X153725076Y-81454935D01*
X144439200Y-86978400D02*
X148168432Y-86978400D01*
X157356619Y-81904946D02*
X157504695Y-82053022D01*
X148640699Y-87142544D02*
X148697866Y-87142544D01*
X156536630Y-82354957D02*
X157170219Y-82354957D01*
X148204844Y-87578400D02*
X148640699Y-87142544D01*
X156086619Y-81904946D02*
X156536630Y-82354957D01*
X161370000Y-84480000D02*
X161370000Y-85280000D01*
X157318295Y-82503033D02*
X159393033Y-82503033D01*
X157170219Y-82354957D02*
X157318295Y-82503033D01*
X144439200Y-87578400D02*
X148204844Y-87578400D01*
X148697866Y-87142544D02*
X153935465Y-81904946D01*
X153935465Y-81904946D02*
X156086619Y-81904946D01*
X159393033Y-82503033D02*
X161370000Y-84480000D01*
X156347416Y-105755024D02*
X154326175Y-105755024D01*
X147205939Y-98978400D02*
X144439200Y-98978400D01*
X158830000Y-104080000D02*
X157667255Y-105242745D01*
X158830000Y-103280000D02*
X158830000Y-104080000D01*
X157667255Y-105242745D02*
X156859695Y-105242745D01*
X152004273Y-103776734D02*
X147205939Y-98978400D01*
X152347885Y-103776734D02*
X152004273Y-103776734D01*
X154326175Y-105755024D02*
X152347885Y-103776734D01*
X156859695Y-105242745D02*
X156347416Y-105755024D01*
X158830000Y-103280000D02*
X158830000Y-102480000D01*
X158196700Y-108915200D02*
X158521400Y-108915200D01*
X158521400Y-108915200D02*
X159968515Y-108915200D01*
X156744100Y-115925600D02*
X156744100Y-114580012D01*
X156744100Y-114580012D02*
X158521400Y-112802712D01*
X158521400Y-112802712D02*
X158521400Y-108915200D01*
X144439200Y-102578400D02*
X145939200Y-102578400D01*
X153207785Y-108455098D02*
X157736598Y-108455098D01*
X160260615Y-108623100D02*
X166416900Y-108623100D01*
X151229487Y-106476800D02*
X153207785Y-108455098D01*
X145939200Y-102578400D02*
X149837600Y-106476800D01*
X170260000Y-104780000D02*
X170260000Y-103280000D01*
X157736598Y-108455098D02*
X158196700Y-108915200D01*
X166416900Y-108623100D02*
X170260000Y-104780000D01*
X149837600Y-106476800D02*
X151229487Y-106476800D01*
X159968515Y-108915200D02*
X160260615Y-108623100D01*
X168990000Y-104780000D02*
X168990000Y-103280000D01*
X165596911Y-108173089D02*
X168990000Y-104780000D01*
X160074215Y-108173089D02*
X165596911Y-108173089D01*
X158383099Y-108465189D02*
X159782115Y-108465189D01*
X151049699Y-106026789D02*
X151415887Y-106026789D01*
X159782115Y-108465189D02*
X160074215Y-108173089D01*
X147001311Y-101978400D02*
X151049699Y-106026789D01*
X153394177Y-108005079D02*
X157922989Y-108005079D01*
X157922989Y-108005079D02*
X158383099Y-108465189D01*
X151415887Y-106026789D02*
X153394177Y-108005079D01*
X144439200Y-101978400D02*
X147001311Y-101978400D01*
X134134248Y-89026348D02*
X134134248Y-88922248D01*
X135027100Y-89919200D02*
X134134248Y-89026348D01*
X135027100Y-90119200D02*
X135027100Y-89919200D01*
X135112800Y-86776600D02*
X136271000Y-87934800D01*
X135112800Y-84407500D02*
X135112800Y-86776600D01*
X137850880Y-105565102D02*
X136739702Y-105565102D01*
X138587768Y-105565102D02*
X137850880Y-105565102D01*
X136271000Y-97033080D02*
X137307320Y-98069400D01*
X137307320Y-98069400D02*
X137307320Y-101544120D01*
X133212800Y-84407500D02*
X133212800Y-84457500D01*
X133212800Y-84457500D02*
X131048760Y-86621540D01*
X131048760Y-86621540D02*
X131048760Y-87817960D01*
X133212800Y-84407500D02*
X133212800Y-84357500D01*
X141249400Y-109474700D02*
X141049400Y-109474700D01*
X141049400Y-109474700D02*
X138587768Y-107013068D01*
X138587768Y-107013068D02*
X138587768Y-105565102D01*
X136373400Y-105198800D02*
X135698400Y-105198800D01*
X136739702Y-105565102D02*
X136373400Y-105198800D01*
X141249400Y-109474700D02*
X143878300Y-109474700D01*
X143878300Y-109474700D02*
X144131600Y-109728000D01*
X145631600Y-109728000D02*
X146131600Y-109728000D01*
X146131600Y-109728000D02*
X146586300Y-110182700D01*
X146586300Y-110182700D02*
X150390100Y-110182700D01*
X149690100Y-107271656D02*
X149690100Y-107632700D01*
X150340100Y-108282700D02*
X150390100Y-108282700D01*
X145617244Y-103198800D02*
X149690100Y-107271656D01*
X149690100Y-107632700D02*
X150340100Y-108282700D01*
X135698400Y-103198800D02*
X145617244Y-103198800D01*
X136070502Y-92862602D02*
X133527100Y-90319200D01*
X135625679Y-97211161D02*
X135625679Y-93962825D01*
X136070502Y-93518002D02*
X136070502Y-92862602D01*
X135698400Y-103198800D02*
X135698400Y-97283882D01*
X133527100Y-90319200D02*
X133527100Y-90119200D01*
X135625679Y-93962825D02*
X136070502Y-93518002D01*
X135698400Y-97283882D02*
X135625679Y-97211161D01*
X136373400Y-104698800D02*
X136400125Y-104672075D01*
X135698400Y-104698800D02*
X136373400Y-104698800D01*
X136400125Y-104672075D02*
X138538795Y-104672075D01*
X138538795Y-104672075D02*
X138553200Y-104657670D01*
X138553200Y-104657670D02*
X138977464Y-104657670D01*
X146354800Y-115912900D02*
X144419300Y-115912900D01*
X144419300Y-115912900D02*
X144330400Y-116001800D01*
X154139200Y-112522000D02*
X154139200Y-114262600D01*
X154139200Y-114262600D02*
X154101800Y-114300000D01*
X141998700Y-115227100D02*
X141998700Y-115651364D01*
X141998700Y-115651364D02*
X142349136Y-116001800D01*
X142349136Y-116001800D02*
X144330400Y-116001800D01*
X166674800Y-106070400D02*
X167720000Y-105025200D01*
X167720000Y-105025200D02*
X167720000Y-103280000D01*
X155639200Y-112522000D02*
X156311600Y-112522000D01*
X156311600Y-112522000D02*
X156819600Y-113030000D01*
X167720000Y-103280000D02*
X167720000Y-104080000D01*
X152146000Y-113893600D02*
X152146000Y-112242600D01*
X152146000Y-112242600D02*
X153593800Y-110794800D01*
X153593800Y-110794800D02*
X154088400Y-110794800D01*
X138930400Y-114731800D02*
X140030200Y-114731800D01*
X140030200Y-114731800D02*
X140970000Y-115671600D01*
X138930400Y-114731800D02*
X135736900Y-114731800D01*
X135736900Y-114731800D02*
X135585200Y-114580100D01*
X157610799Y-109272401D02*
X157610799Y-109228901D01*
X155588400Y-110794800D02*
X156088400Y-110794800D01*
X156088400Y-110794800D02*
X157610799Y-109272401D01*
X163606922Y-106923078D02*
X159932446Y-106923078D01*
X166450000Y-104080000D02*
X163606922Y-106923078D01*
X166450000Y-103280000D02*
X166450000Y-104080000D01*
X159932446Y-106923078D02*
X159015345Y-107840179D01*
X149936200Y-89979500D02*
X153385500Y-89979500D01*
X153385500Y-89979500D02*
X153530000Y-89835000D01*
X141249400Y-107974700D02*
X144195100Y-107974700D01*
X144195100Y-107974700D02*
X144437100Y-108216700D01*
X146065501Y-110503001D02*
X140992699Y-110503001D01*
X149990200Y-114427700D02*
X146065501Y-110503001D01*
X140992699Y-110503001D02*
X136188498Y-105698800D01*
X150190200Y-114427700D02*
X149990200Y-114427700D01*
X136188498Y-105698800D02*
X135698400Y-105698800D01*
X138930400Y-112191800D02*
X138930400Y-113461800D01*
X135916100Y-110147100D02*
X137435700Y-110147100D01*
X137435700Y-110147100D02*
X138930400Y-111641800D01*
X138930400Y-111641800D02*
X138930400Y-112191800D01*
X144330400Y-114731800D02*
X148856700Y-114731800D01*
X148856700Y-114731800D02*
X148882100Y-114757200D01*
X148882100Y-114757200D02*
X146888200Y-116751100D01*
X133878801Y-116626801D02*
X133228400Y-115976400D01*
X146888200Y-116751100D02*
X141873796Y-116751100D01*
X141873796Y-116751100D02*
X141749497Y-116626801D01*
X141749497Y-116626801D02*
X133878801Y-116626801D01*
X133228400Y-115976400D02*
X132728400Y-115976400D01*
X144330400Y-113461800D02*
X144330400Y-114731800D01*
X137899519Y-104198800D02*
X138051254Y-104047065D01*
X135698400Y-104198800D02*
X137899519Y-104198800D01*
X135585200Y-113080100D02*
X135585200Y-112356900D01*
X135585200Y-112356900D02*
X136220200Y-111721900D01*
X153619100Y-115900200D02*
X155218700Y-115900200D01*
X155218700Y-115900200D02*
X155244100Y-115925600D01*
D35*
G36*
X139609947Y-70355476D02*
X139373300Y-70513598D01*
X139320900Y-70565998D01*
X139135200Y-70529060D01*
X138385200Y-70529060D01*
X138137435Y-70578343D01*
X137927391Y-70718691D01*
X137787043Y-70928735D01*
X137737760Y-71176500D01*
X137737760Y-71976500D01*
X137787043Y-72224265D01*
X137848073Y-72315602D01*
X137846873Y-72316802D01*
X137750200Y-72550191D01*
X137750200Y-72790750D01*
X137908950Y-72949500D01*
X138633200Y-72949500D01*
X138633200Y-72929500D01*
X138887200Y-72929500D01*
X138887200Y-72949500D01*
X139611450Y-72949500D01*
X139770200Y-72790750D01*
X139770200Y-72661750D01*
X141446600Y-72661750D01*
X141446600Y-73502309D01*
X141543273Y-73735698D01*
X141721901Y-73914327D01*
X141955290Y-74011000D01*
X143545850Y-74011000D01*
X143704600Y-73852250D01*
X143704600Y-72503000D01*
X143958600Y-72503000D01*
X143958600Y-73852250D01*
X144117350Y-74011000D01*
X145707910Y-74011000D01*
X145941299Y-73914327D01*
X146119927Y-73735698D01*
X146216600Y-73502309D01*
X146216600Y-72661750D01*
X146057850Y-72503000D01*
X143958600Y-72503000D01*
X143704600Y-72503000D01*
X141605350Y-72503000D01*
X141446600Y-72661750D01*
X139770200Y-72661750D01*
X139770200Y-72550191D01*
X139673527Y-72316802D01*
X139672327Y-72315602D01*
X139713941Y-72253323D01*
X139922601Y-72113901D01*
X140225503Y-71810999D01*
X141446600Y-71810999D01*
X141446600Y-72090250D01*
X141605350Y-72249000D01*
X143704600Y-72249000D01*
X143704600Y-72229000D01*
X143958600Y-72229000D01*
X143958600Y-72249000D01*
X146057850Y-72249000D01*
X146216600Y-72090250D01*
X146216600Y-71810999D01*
X147084160Y-71810999D01*
X147084160Y-77748638D01*
X141939397Y-82893401D01*
X141874100Y-82893401D01*
X141874406Y-82543723D01*
X141694380Y-82108028D01*
X141361325Y-81774391D01*
X140925945Y-81593606D01*
X140454523Y-81593194D01*
X140018828Y-81773220D01*
X139685191Y-82106275D01*
X139583700Y-82350693D01*
X139583700Y-78643859D01*
X139656509Y-78595209D01*
X139721863Y-78497400D01*
X141748893Y-78497400D01*
X141833835Y-78554157D01*
X142081600Y-78603440D01*
X142597158Y-78603440D01*
X142113020Y-79087578D01*
X142067533Y-79087538D01*
X141723757Y-79229583D01*
X141460508Y-79492373D01*
X141317862Y-79835901D01*
X141317538Y-80207867D01*
X141459583Y-80551643D01*
X141722373Y-80814892D01*
X142065901Y-80957538D01*
X142437867Y-80957862D01*
X142781643Y-80815817D01*
X143044892Y-80553027D01*
X143187538Y-80209499D01*
X143187579Y-80162623D01*
X144369001Y-78981201D01*
X144533748Y-78734639D01*
X144559845Y-78603440D01*
X145581600Y-78603440D01*
X145829365Y-78554157D01*
X146039409Y-78413809D01*
X146179757Y-78203765D01*
X146229040Y-77956000D01*
X146229040Y-75956000D01*
X146179757Y-75708235D01*
X146039409Y-75498191D01*
X145829365Y-75357843D01*
X145581600Y-75308560D01*
X142081600Y-75308560D01*
X141833835Y-75357843D01*
X141623791Y-75498191D01*
X141483443Y-75708235D01*
X141434160Y-75956000D01*
X141434160Y-76977400D01*
X139745186Y-76977400D01*
X139833700Y-76763709D01*
X139833700Y-76523150D01*
X139674950Y-76364400D01*
X138950700Y-76364400D01*
X138950700Y-76384400D01*
X138696700Y-76384400D01*
X138696700Y-76364400D01*
X137972450Y-76364400D01*
X137813700Y-76523150D01*
X137813700Y-76763709D01*
X137902214Y-76977400D01*
X135721902Y-76977400D01*
X135164140Y-76419638D01*
X135164140Y-75711091D01*
X137813700Y-75711091D01*
X137813700Y-75951650D01*
X137972450Y-76110400D01*
X138696700Y-76110400D01*
X138696700Y-75361150D01*
X138950700Y-75361150D01*
X138950700Y-76110400D01*
X139674950Y-76110400D01*
X139833700Y-75951650D01*
X139833700Y-75711091D01*
X139737027Y-75477702D01*
X139558399Y-75299073D01*
X139325010Y-75202400D01*
X139109450Y-75202400D01*
X138950700Y-75361150D01*
X138696700Y-75361150D01*
X138537950Y-75202400D01*
X138322390Y-75202400D01*
X138089001Y-75299073D01*
X137910373Y-75477702D01*
X137813700Y-75711091D01*
X135164140Y-75711091D01*
X135164140Y-74347000D01*
X135114857Y-74099235D01*
X134974509Y-73889191D01*
X134764465Y-73748843D01*
X134516700Y-73699560D01*
X132716700Y-73699560D01*
X132468935Y-73748843D01*
X132258891Y-73889191D01*
X132118543Y-74099235D01*
X132069260Y-74347000D01*
X132069260Y-74837000D01*
X131810600Y-74837000D01*
X131519760Y-74894852D01*
X131273199Y-75059599D01*
X128525138Y-77807660D01*
X128452500Y-77807660D01*
X128204735Y-77856943D01*
X127994691Y-77997291D01*
X127952500Y-78060434D01*
X127910309Y-77997291D01*
X127700265Y-77856943D01*
X127452500Y-77807660D01*
X126952500Y-77807660D01*
X126704735Y-77856943D01*
X126494691Y-77997291D01*
X126354343Y-78207335D01*
X126305060Y-78455100D01*
X126305060Y-79355100D01*
X126354343Y-79602865D01*
X126494691Y-79812909D01*
X126704735Y-79953257D01*
X126952500Y-80002540D01*
X127025138Y-80002540D01*
X127165099Y-80142501D01*
X127411661Y-80307248D01*
X127559192Y-80336594D01*
X127727925Y-80505327D01*
X127590009Y-80448200D01*
X127349450Y-80448200D01*
X127190700Y-80606950D01*
X127190700Y-81356200D01*
X127210700Y-81356200D01*
X127210700Y-81610200D01*
X127190700Y-81610200D01*
X127190700Y-82359450D01*
X127349450Y-82518200D01*
X127590009Y-82518200D01*
X127823398Y-82421527D01*
X127864653Y-82380273D01*
X128015935Y-82481357D01*
X128263700Y-82530640D01*
X129063700Y-82530640D01*
X129311465Y-82481357D01*
X129521509Y-82341009D01*
X129661857Y-82130965D01*
X129711140Y-81883200D01*
X129711140Y-81083200D01*
X129661857Y-80835435D01*
X129521509Y-80625391D01*
X129423700Y-80560037D01*
X129423700Y-80366300D01*
X129398973Y-80241991D01*
X129365848Y-80075460D01*
X129258289Y-79914486D01*
X129410309Y-79812909D01*
X129550657Y-79602865D01*
X129599940Y-79355100D01*
X129599940Y-78882462D01*
X132069260Y-76413142D01*
X132069260Y-76847000D01*
X132118543Y-77094765D01*
X132258891Y-77304809D01*
X132468935Y-77445157D01*
X132716700Y-77494440D01*
X134089338Y-77494440D01*
X134294458Y-77699560D01*
X132716700Y-77699560D01*
X132468935Y-77748843D01*
X132258891Y-77889191D01*
X132118543Y-78099235D01*
X132069260Y-78347000D01*
X132069260Y-80847000D01*
X132118543Y-81094765D01*
X132258891Y-81304809D01*
X132303969Y-81334929D01*
X127696199Y-85942699D01*
X127531452Y-86189261D01*
X127528594Y-86203629D01*
X127435600Y-86272466D01*
X127435600Y-87238200D01*
X127455600Y-87238200D01*
X127455600Y-87492200D01*
X127435600Y-87492200D01*
X127435600Y-87512200D01*
X127181600Y-87512200D01*
X127181600Y-87492200D01*
X126356037Y-87492200D01*
X126207371Y-87666331D01*
X126269125Y-87845027D01*
X126175791Y-87907391D01*
X126035443Y-88117435D01*
X125986160Y-88365200D01*
X125986160Y-88765200D01*
X126011024Y-88890200D01*
X125986160Y-89015200D01*
X125986160Y-89415200D01*
X126011024Y-89540200D01*
X125986160Y-89665200D01*
X125986160Y-90065200D01*
X126011024Y-90190200D01*
X125986160Y-90315200D01*
X125986160Y-90715200D01*
X126006817Y-90819052D01*
X125998600Y-90838890D01*
X125998600Y-90906450D01*
X126030558Y-90938408D01*
X126035443Y-90962965D01*
X126175791Y-91173009D01*
X126313764Y-91265200D01*
X126157350Y-91265200D01*
X125998600Y-91423950D01*
X125998600Y-91491510D01*
X126095273Y-91724899D01*
X126265690Y-91895315D01*
X126207371Y-92064069D01*
X126356037Y-92238200D01*
X127181600Y-92238200D01*
X127181600Y-92218200D01*
X127435600Y-92218200D01*
X127435600Y-92238200D01*
X128261163Y-92238200D01*
X128409829Y-92064069D01*
X128351510Y-91895315D01*
X128521927Y-91724899D01*
X128618600Y-91491510D01*
X128618600Y-91423950D01*
X128486852Y-91292202D01*
X128585800Y-91292202D01*
X130541651Y-93248053D01*
X130541599Y-93307906D01*
X130683644Y-93651682D01*
X130946434Y-93914931D01*
X131289962Y-94057577D01*
X131364261Y-94057642D01*
X128266699Y-97155204D01*
X128101952Y-97401766D01*
X128093782Y-97442840D01*
X128064998Y-97462073D01*
X128063798Y-97460873D01*
X127830409Y-97364200D01*
X127589850Y-97364200D01*
X127431100Y-97522950D01*
X127431100Y-98247200D01*
X127451100Y-98247200D01*
X127451100Y-98501200D01*
X127431100Y-98501200D01*
X127431100Y-98521200D01*
X127177100Y-98521200D01*
X127177100Y-98501200D01*
X126427850Y-98501200D01*
X126269100Y-98659950D01*
X126269100Y-98875510D01*
X126365773Y-99108899D01*
X126544402Y-99287527D01*
X126777791Y-99384200D01*
X127018350Y-99384200D01*
X127177098Y-99225452D01*
X127177098Y-99384200D01*
X127244000Y-99384200D01*
X127244000Y-102062814D01*
X127030309Y-101974300D01*
X126789750Y-101974300D01*
X126631000Y-102133050D01*
X126631000Y-102857300D01*
X126651000Y-102857300D01*
X126651000Y-103111300D01*
X126631000Y-103111300D01*
X126631000Y-103835550D01*
X126789750Y-103994300D01*
X127030309Y-103994300D01*
X127263698Y-103897627D01*
X127264898Y-103896427D01*
X127356235Y-103957457D01*
X127604000Y-104006740D01*
X128404000Y-104006740D01*
X128651765Y-103957457D01*
X128861809Y-103817109D01*
X128910459Y-103744300D01*
X129726684Y-103744300D01*
X129765372Y-103938800D01*
X129552700Y-103938800D01*
X129261860Y-103996652D01*
X129040313Y-104144685D01*
X128986533Y-104144638D01*
X128681635Y-104270619D01*
X128622527Y-104211408D01*
X128278999Y-104068762D01*
X127907033Y-104068438D01*
X127563257Y-104210483D01*
X127300008Y-104473273D01*
X127157362Y-104816801D01*
X127157038Y-105188767D01*
X127299083Y-105532543D01*
X127332200Y-105565718D01*
X127332200Y-105613263D01*
X127131909Y-105530300D01*
X126891350Y-105530300D01*
X126732600Y-105689050D01*
X126732600Y-106413300D01*
X126752600Y-106413300D01*
X126752600Y-106667300D01*
X126732600Y-106667300D01*
X126732600Y-107391550D01*
X126891350Y-107550300D01*
X127131909Y-107550300D01*
X127365298Y-107453627D01*
X127366498Y-107452427D01*
X127457835Y-107513457D01*
X127705600Y-107562740D01*
X128505600Y-107562740D01*
X128753365Y-107513457D01*
X128963409Y-107373109D01*
X129103757Y-107163065D01*
X129153040Y-106915300D01*
X129153040Y-106165300D01*
X129123096Y-106014758D01*
X129356867Y-106014962D01*
X129700643Y-105872917D01*
X129743715Y-105829920D01*
X129767362Y-105948800D01*
X129717633Y-106198800D01*
X129777388Y-106499206D01*
X129947554Y-106753879D01*
X130202227Y-106924045D01*
X130502633Y-106983800D01*
X130963400Y-106983800D01*
X130963400Y-107444567D01*
X131023155Y-107744973D01*
X131193321Y-107999646D01*
X131447994Y-108169812D01*
X131748400Y-108229567D01*
X131998400Y-108179838D01*
X132248400Y-108229567D01*
X132498400Y-108179838D01*
X132748400Y-108229567D01*
X132998400Y-108179838D01*
X133248400Y-108229567D01*
X133498400Y-108179838D01*
X133748400Y-108229567D01*
X133998400Y-108179838D01*
X134248400Y-108229567D01*
X134498400Y-108179838D01*
X134748400Y-108229567D01*
X135048806Y-108169812D01*
X135303479Y-107999646D01*
X135473645Y-107744973D01*
X135533400Y-107444567D01*
X135533400Y-106983800D01*
X135994167Y-106983800D01*
X136294573Y-106924045D01*
X136321170Y-106906274D01*
X140455298Y-111040402D01*
X140701859Y-111205149D01*
X140992699Y-111263001D01*
X143461684Y-111263001D01*
X143307635Y-111293643D01*
X143097591Y-111433991D01*
X142957243Y-111644035D01*
X142907960Y-111891800D01*
X142907960Y-112491800D01*
X142957243Y-112739565D01*
X143015532Y-112826800D01*
X142957243Y-112914035D01*
X142907960Y-113161800D01*
X142907960Y-113761800D01*
X142957243Y-114009565D01*
X143015532Y-114096800D01*
X142957243Y-114184035D01*
X142907960Y-114431800D01*
X142907960Y-114979245D01*
X142791817Y-114698157D01*
X142529027Y-114434908D01*
X142185499Y-114292262D01*
X141813533Y-114291938D01*
X141469757Y-114433983D01*
X141206508Y-114696773D01*
X141185035Y-114748486D01*
X141156799Y-114736762D01*
X141109923Y-114736721D01*
X140567601Y-114194399D01*
X140321039Y-114029652D01*
X140293761Y-114024226D01*
X140303557Y-114009565D01*
X140352840Y-113761800D01*
X140352840Y-113161800D01*
X140303557Y-112914035D01*
X140245268Y-112826800D01*
X140303557Y-112739565D01*
X140352840Y-112491800D01*
X140352840Y-111891800D01*
X140303557Y-111644035D01*
X140163209Y-111433991D01*
X139953165Y-111293643D01*
X139705400Y-111244360D01*
X139561320Y-111244360D01*
X139467801Y-111104399D01*
X137973101Y-109609699D01*
X137726539Y-109444952D01*
X137435700Y-109387100D01*
X136722673Y-109387100D01*
X136623909Y-109239291D01*
X136413865Y-109098943D01*
X136166100Y-109049660D01*
X135666100Y-109049660D01*
X135418335Y-109098943D01*
X135208291Y-109239291D01*
X135166100Y-109302434D01*
X135123909Y-109239291D01*
X134913865Y-109098943D01*
X134666100Y-109049660D01*
X134166100Y-109049660D01*
X133918335Y-109098943D01*
X133708291Y-109239291D01*
X133630203Y-109356157D01*
X133534609Y-109213091D01*
X133324565Y-109072743D01*
X133076800Y-109023460D01*
X132276800Y-109023460D01*
X132029035Y-109072743D01*
X131877753Y-109173827D01*
X131836498Y-109132573D01*
X131603109Y-109035900D01*
X131362550Y-109035900D01*
X131203800Y-109194650D01*
X131203800Y-109943900D01*
X131223800Y-109943900D01*
X131223800Y-110197900D01*
X131203800Y-110197900D01*
X131203800Y-110947150D01*
X131362550Y-111105900D01*
X131603109Y-111105900D01*
X131836498Y-111009227D01*
X131877753Y-110967973D01*
X132029035Y-111069057D01*
X132276800Y-111118340D01*
X133076800Y-111118340D01*
X133324565Y-111069057D01*
X133534609Y-110928709D01*
X133549048Y-110907100D01*
X133609527Y-110907100D01*
X133708291Y-111054909D01*
X133918335Y-111195257D01*
X134166100Y-111244540D01*
X134666100Y-111244540D01*
X134913865Y-111195257D01*
X135123909Y-111054909D01*
X135166100Y-110991766D01*
X135208291Y-111054909D01*
X135418335Y-111195257D01*
X135425857Y-111196753D01*
X135285362Y-111535101D01*
X135285321Y-111581977D01*
X135047799Y-111819499D01*
X134883052Y-112066061D01*
X134844326Y-112260748D01*
X134677391Y-112372291D01*
X134537043Y-112582335D01*
X134487760Y-112830100D01*
X134487760Y-113330100D01*
X134537043Y-113577865D01*
X134677391Y-113787909D01*
X134740534Y-113830100D01*
X134677391Y-113872291D01*
X134537043Y-114082335D01*
X134487760Y-114330100D01*
X134487760Y-114830100D01*
X134537043Y-115077865D01*
X134677391Y-115287909D01*
X134887435Y-115428257D01*
X135135200Y-115477540D01*
X135665211Y-115477540D01*
X135736900Y-115491800D01*
X137555066Y-115491800D01*
X137520400Y-115575490D01*
X137520400Y-115716050D01*
X137671151Y-115866801D01*
X134193603Y-115866801D01*
X133765801Y-115438999D01*
X133584337Y-115317749D01*
X133576557Y-115278635D01*
X133436209Y-115068591D01*
X133226165Y-114928243D01*
X132978400Y-114878960D01*
X132478400Y-114878960D01*
X132230635Y-114928243D01*
X132020591Y-115068591D01*
X131988400Y-115116768D01*
X131988400Y-114031202D01*
X132704162Y-113315440D01*
X133076800Y-113315440D01*
X133324565Y-113266157D01*
X133534609Y-113125809D01*
X133674957Y-112915765D01*
X133724240Y-112668000D01*
X133724240Y-111868000D01*
X133674957Y-111620235D01*
X133534609Y-111410191D01*
X133324565Y-111269843D01*
X133076800Y-111220560D01*
X132276800Y-111220560D01*
X132029035Y-111269843D01*
X131877753Y-111370927D01*
X131836498Y-111329673D01*
X131603109Y-111233000D01*
X131362550Y-111233000D01*
X131203800Y-111391750D01*
X131203800Y-112141000D01*
X131223800Y-112141000D01*
X131223800Y-112395000D01*
X131203800Y-112395000D01*
X131203800Y-112415000D01*
X130949800Y-112415000D01*
X130949800Y-112395000D01*
X130200550Y-112395000D01*
X130041800Y-112553750D01*
X130041800Y-112794310D01*
X130138473Y-113027699D01*
X130317102Y-113206327D01*
X130550491Y-113303000D01*
X130608144Y-113303000D01*
X130526252Y-113425561D01*
X130468400Y-113716400D01*
X130468400Y-115146700D01*
X130380243Y-115278635D01*
X130330960Y-115526400D01*
X130330960Y-116426400D01*
X130380243Y-116674165D01*
X130520591Y-116884209D01*
X130730635Y-117024557D01*
X130978400Y-117073840D01*
X131478400Y-117073840D01*
X131726165Y-117024557D01*
X131936209Y-116884209D01*
X131978400Y-116821066D01*
X132020591Y-116884209D01*
X132230635Y-117024557D01*
X132478400Y-117073840D01*
X132978400Y-117073840D01*
X133205805Y-117028607D01*
X133341400Y-117164202D01*
X133587962Y-117328949D01*
X133878801Y-117386801D01*
X141483511Y-117386801D01*
X141582956Y-117453248D01*
X141873796Y-117511100D01*
X146888200Y-117511100D01*
X147179039Y-117453248D01*
X147425601Y-117288501D01*
X148528152Y-116185950D01*
X150984100Y-116185950D01*
X150984100Y-116426510D01*
X151080773Y-116659899D01*
X151259402Y-116838527D01*
X151492791Y-116935200D01*
X151733350Y-116935200D01*
X151892100Y-116776450D01*
X151892100Y-116027200D01*
X151142850Y-116027200D01*
X150984100Y-116185950D01*
X148528152Y-116185950D01*
X149419501Y-115294601D01*
X149450671Y-115247951D01*
X149492435Y-115275857D01*
X149740200Y-115325140D01*
X150640200Y-115325140D01*
X150887965Y-115275857D01*
X151077036Y-115149523D01*
X150984100Y-115373890D01*
X150984100Y-115614450D01*
X151142850Y-115773200D01*
X151892100Y-115773200D01*
X151892100Y-115023950D01*
X151733350Y-114865200D01*
X151492791Y-114865200D01*
X151259402Y-114961873D01*
X151122664Y-115098610D01*
X151238357Y-114925465D01*
X151287640Y-114677700D01*
X151287640Y-114264642D01*
X151352883Y-114422543D01*
X151615673Y-114685792D01*
X151959201Y-114828438D01*
X152331167Y-114828762D01*
X152674943Y-114686717D01*
X152938192Y-114423927D01*
X153080838Y-114080399D01*
X153081162Y-113708433D01*
X152939117Y-113364657D01*
X152906000Y-113331482D01*
X152906000Y-112557402D01*
X153241760Y-112221642D01*
X153241760Y-112972000D01*
X153291043Y-113219765D01*
X153379200Y-113351700D01*
X153379200Y-113700202D01*
X153309608Y-113769673D01*
X153166962Y-114113201D01*
X153166638Y-114485167D01*
X153308683Y-114828943D01*
X153332458Y-114852760D01*
X153219100Y-114852760D01*
X152971335Y-114902043D01*
X152820053Y-115003127D01*
X152778798Y-114961873D01*
X152545409Y-114865200D01*
X152304850Y-114865200D01*
X152146100Y-115023950D01*
X152146100Y-115773200D01*
X152166100Y-115773200D01*
X152166100Y-116027200D01*
X152146100Y-116027200D01*
X152146100Y-116776450D01*
X152304850Y-116935200D01*
X152545409Y-116935200D01*
X152778798Y-116838527D01*
X152820053Y-116797273D01*
X152971335Y-116898357D01*
X153219100Y-116947640D01*
X154019100Y-116947640D01*
X154266865Y-116898357D01*
X154476909Y-116758009D01*
X154481409Y-116751274D01*
X154536291Y-116833409D01*
X154746335Y-116973757D01*
X154994100Y-117023040D01*
X155494100Y-117023040D01*
X155741865Y-116973757D01*
X155951909Y-116833409D01*
X155994100Y-116770266D01*
X156036291Y-116833409D01*
X156246335Y-116973757D01*
X156494100Y-117023040D01*
X156994100Y-117023040D01*
X157241865Y-116973757D01*
X157451909Y-116833409D01*
X157592257Y-116623365D01*
X157641540Y-116375600D01*
X157641540Y-115475600D01*
X157592257Y-115227835D01*
X157504100Y-115095900D01*
X157504100Y-114894814D01*
X158067760Y-114331154D01*
X158067760Y-114902400D01*
X158117043Y-115150165D01*
X158257391Y-115360209D01*
X158467435Y-115500557D01*
X158715200Y-115549840D01*
X158787838Y-115549840D01*
X159891499Y-116653501D01*
X160138060Y-116818248D01*
X160428900Y-116876100D01*
X163254837Y-116876100D01*
X163286973Y-116908292D01*
X163630501Y-117050938D01*
X164002467Y-117051262D01*
X164346243Y-116909217D01*
X164609492Y-116646427D01*
X164752138Y-116302899D01*
X164752462Y-115930933D01*
X164610417Y-115587157D01*
X164595998Y-115572713D01*
X164736400Y-115600640D01*
X165236400Y-115600640D01*
X165484165Y-115551357D01*
X165694209Y-115411009D01*
X165834557Y-115200965D01*
X165883840Y-114953200D01*
X165883840Y-114053200D01*
X165834557Y-113805435D01*
X165746400Y-113673500D01*
X165746400Y-112995440D01*
X166317200Y-112995440D01*
X166564965Y-112946157D01*
X166775009Y-112805809D01*
X166806954Y-112758000D01*
X167567400Y-112758000D01*
X167858239Y-112700148D01*
X168104801Y-112535401D01*
X169203662Y-111436540D01*
X169526300Y-111436540D01*
X169774065Y-111387257D01*
X169984109Y-111246909D01*
X170124457Y-111036865D01*
X170173740Y-110789100D01*
X170173740Y-109989100D01*
X170124457Y-109741335D01*
X170063427Y-109649998D01*
X170064627Y-109648798D01*
X170161300Y-109415409D01*
X170161300Y-109174850D01*
X170002550Y-109016100D01*
X169278300Y-109016100D01*
X169278300Y-109036100D01*
X169024300Y-109036100D01*
X169024300Y-109016100D01*
X168300050Y-109016100D01*
X168141300Y-109174850D01*
X168141300Y-109415409D01*
X168237973Y-109648798D01*
X168239173Y-109649998D01*
X168178143Y-109741335D01*
X168128860Y-109989100D01*
X168128860Y-110361738D01*
X167252598Y-111238000D01*
X166806954Y-111238000D01*
X166775009Y-111190191D01*
X166564965Y-111049843D01*
X166317200Y-111000560D01*
X164867200Y-111000560D01*
X164619435Y-111049843D01*
X164409391Y-111190191D01*
X164377446Y-111238000D01*
X161656954Y-111238000D01*
X161625009Y-111190191D01*
X161414965Y-111049843D01*
X161167200Y-111000560D01*
X159717200Y-111000560D01*
X159469435Y-111049843D01*
X159281400Y-111175485D01*
X159281400Y-110810225D01*
X159357502Y-110886327D01*
X159590891Y-110983000D01*
X160156450Y-110983000D01*
X160315200Y-110824250D01*
X160315200Y-110125000D01*
X160569200Y-110125000D01*
X160569200Y-110824250D01*
X160727950Y-110983000D01*
X161293509Y-110983000D01*
X161526898Y-110886327D01*
X161705527Y-110707699D01*
X161802200Y-110474310D01*
X161802200Y-110283750D01*
X164232200Y-110283750D01*
X164232200Y-110474310D01*
X164328873Y-110707699D01*
X164507502Y-110886327D01*
X164740891Y-110983000D01*
X165306450Y-110983000D01*
X165465200Y-110824250D01*
X165465200Y-110125000D01*
X165719200Y-110125000D01*
X165719200Y-110824250D01*
X165877950Y-110983000D01*
X166443509Y-110983000D01*
X166676898Y-110886327D01*
X166855527Y-110707699D01*
X166952200Y-110474310D01*
X166952200Y-110283750D01*
X166793450Y-110125000D01*
X165719200Y-110125000D01*
X165465200Y-110125000D01*
X164390950Y-110125000D01*
X164232200Y-110283750D01*
X161802200Y-110283750D01*
X161643450Y-110125000D01*
X160569200Y-110125000D01*
X160315200Y-110125000D01*
X160295200Y-110125000D01*
X160295200Y-109871000D01*
X160315200Y-109871000D01*
X160315200Y-109851000D01*
X160569200Y-109851000D01*
X160569200Y-109871000D01*
X161643450Y-109871000D01*
X161802200Y-109712250D01*
X161802200Y-109521690D01*
X161744794Y-109383100D01*
X164289606Y-109383100D01*
X164232200Y-109521690D01*
X164232200Y-109712250D01*
X164390950Y-109871000D01*
X165465200Y-109871000D01*
X165465200Y-109851000D01*
X165719200Y-109851000D01*
X165719200Y-109871000D01*
X166793450Y-109871000D01*
X166952200Y-109712250D01*
X166952200Y-109521690D01*
X166855527Y-109288301D01*
X166818480Y-109251254D01*
X166954301Y-109160501D01*
X167752011Y-108362791D01*
X168141300Y-108362791D01*
X168141300Y-108603350D01*
X168300050Y-108762100D01*
X169024300Y-108762100D01*
X169024300Y-108012850D01*
X169278300Y-108012850D01*
X169278300Y-108762100D01*
X170002550Y-108762100D01*
X170161300Y-108603350D01*
X170161300Y-108362791D01*
X170064627Y-108129402D01*
X169885999Y-107950773D01*
X169652610Y-107854100D01*
X169437050Y-107854100D01*
X169278300Y-108012850D01*
X169024300Y-108012850D01*
X168865550Y-107854100D01*
X168649990Y-107854100D01*
X168416601Y-107950773D01*
X168237973Y-108129402D01*
X168141300Y-108362791D01*
X167752011Y-108362791D01*
X170797401Y-105317401D01*
X170962148Y-105070839D01*
X170976702Y-104997673D01*
X171235999Y-105124408D01*
X171403000Y-104997502D01*
X171403000Y-103407000D01*
X171383000Y-103407000D01*
X171383000Y-103153000D01*
X171403000Y-103153000D01*
X171403000Y-101562498D01*
X171235999Y-101435592D01*
X170907741Y-101596032D01*
X170675212Y-101440662D01*
X170260000Y-101358071D01*
X169844788Y-101440662D01*
X169625000Y-101587520D01*
X169405212Y-101440662D01*
X168990000Y-101358071D01*
X168574788Y-101440662D01*
X168355000Y-101587520D01*
X168135212Y-101440662D01*
X167720000Y-101358071D01*
X167304788Y-101440662D01*
X167085000Y-101587520D01*
X166865212Y-101440662D01*
X166450000Y-101358071D01*
X166034788Y-101440662D01*
X165815000Y-101587520D01*
X165595212Y-101440662D01*
X165180000Y-101358071D01*
X164764788Y-101440662D01*
X164545000Y-101587520D01*
X164325212Y-101440662D01*
X163910000Y-101358071D01*
X163494788Y-101440662D01*
X163275000Y-101587520D01*
X163055212Y-101440662D01*
X162640000Y-101358071D01*
X162224788Y-101440662D01*
X162005000Y-101587520D01*
X161785212Y-101440662D01*
X161370000Y-101358071D01*
X160954788Y-101440662D01*
X160735000Y-101587520D01*
X160515212Y-101440662D01*
X160100000Y-101358071D01*
X159684788Y-101440662D01*
X159465000Y-101587520D01*
X159245212Y-101440662D01*
X158830000Y-101358071D01*
X158414788Y-101440662D01*
X158195000Y-101587520D01*
X157975212Y-101440662D01*
X157560000Y-101358071D01*
X157144788Y-101440662D01*
X156925000Y-101587520D01*
X156705212Y-101440662D01*
X156290000Y-101358071D01*
X155874788Y-101440662D01*
X155655000Y-101587520D01*
X155435212Y-101440662D01*
X155020000Y-101358071D01*
X154604788Y-101440662D01*
X154252789Y-101675860D01*
X154067687Y-101952885D01*
X153766922Y-101652120D01*
X153766962Y-101606633D01*
X153624917Y-101262857D01*
X153442379Y-101080000D01*
X154366929Y-101080000D01*
X154782141Y-100997409D01*
X155134140Y-100762211D01*
X155369338Y-100410212D01*
X155451929Y-99995000D01*
X155369338Y-99579788D01*
X155306003Y-99485000D01*
X155776098Y-99485000D01*
X155935278Y-99644180D01*
X155935238Y-99689667D01*
X156077283Y-100033443D01*
X156340073Y-100296692D01*
X156683601Y-100439338D01*
X157055567Y-100439662D01*
X157399343Y-100297617D01*
X157662592Y-100034827D01*
X157805238Y-99691299D01*
X157805562Y-99319333D01*
X157663517Y-98975557D01*
X157400727Y-98712308D01*
X157057199Y-98569662D01*
X157010323Y-98569621D01*
X156628301Y-98187599D01*
X156381739Y-98022852D01*
X156090900Y-97965000D01*
X155306003Y-97965000D01*
X155369338Y-97870212D01*
X155451929Y-97455000D01*
X155369338Y-97039788D01*
X155222480Y-96820000D01*
X155369338Y-96600212D01*
X155451929Y-96185000D01*
X155369338Y-95769788D01*
X155222480Y-95550000D01*
X155369338Y-95330212D01*
X155451929Y-94915000D01*
X155369338Y-94499788D01*
X155222480Y-94280000D01*
X155232001Y-94265750D01*
X160195000Y-94265750D01*
X160195000Y-97106309D01*
X160291673Y-97339698D01*
X160470301Y-97518327D01*
X160703690Y-97615000D01*
X163544250Y-97615000D01*
X163703000Y-97456250D01*
X163703000Y-94107000D01*
X163957000Y-94107000D01*
X163957000Y-97456250D01*
X164115750Y-97615000D01*
X166956310Y-97615000D01*
X167189699Y-97518327D01*
X167368327Y-97339698D01*
X167465000Y-97106309D01*
X167465000Y-94265750D01*
X167306250Y-94107000D01*
X163957000Y-94107000D01*
X163703000Y-94107000D01*
X160353750Y-94107000D01*
X160195000Y-94265750D01*
X155232001Y-94265750D01*
X155369338Y-94060212D01*
X155451929Y-93645000D01*
X155369338Y-93229788D01*
X155222480Y-93010000D01*
X155369338Y-92790212D01*
X155451929Y-92375000D01*
X155369338Y-91959788D01*
X155222480Y-91740000D01*
X155369338Y-91520212D01*
X155451929Y-91105000D01*
X155401941Y-90853691D01*
X160195000Y-90853691D01*
X160195000Y-93694250D01*
X160353750Y-93853000D01*
X163703000Y-93853000D01*
X163703000Y-90503750D01*
X163957000Y-90503750D01*
X163957000Y-93853000D01*
X167306250Y-93853000D01*
X167465000Y-93694250D01*
X167465000Y-90853691D01*
X167368327Y-90620302D01*
X167189699Y-90441673D01*
X166956310Y-90345000D01*
X164115750Y-90345000D01*
X163957000Y-90503750D01*
X163703000Y-90503750D01*
X163544250Y-90345000D01*
X160703690Y-90345000D01*
X160470301Y-90441673D01*
X160291673Y-90620302D01*
X160195000Y-90853691D01*
X155401941Y-90853691D01*
X155369338Y-90689788D01*
X155222480Y-90470000D01*
X155369338Y-90250212D01*
X155451929Y-89835000D01*
X155369338Y-89419788D01*
X155213968Y-89187259D01*
X155374408Y-88859001D01*
X155247502Y-88692000D01*
X153657000Y-88692000D01*
X153657000Y-88712000D01*
X153403000Y-88712000D01*
X153403000Y-88692000D01*
X153383000Y-88692000D01*
X153383000Y-88438000D01*
X153403000Y-88438000D01*
X153403000Y-87480000D01*
X153657000Y-87480000D01*
X153657000Y-88438000D01*
X155247502Y-88438000D01*
X155374408Y-88270999D01*
X155187013Y-87887592D01*
X154862544Y-87611192D01*
X154457000Y-87480000D01*
X153657000Y-87480000D01*
X153403000Y-87480000D01*
X153030000Y-87480000D01*
X154010999Y-86499001D01*
X154017591Y-86532141D01*
X154252789Y-86884140D01*
X154604788Y-87119338D01*
X155020000Y-87201929D01*
X155435212Y-87119338D01*
X155655000Y-86972480D01*
X155874788Y-87119338D01*
X156290000Y-87201929D01*
X156705212Y-87119338D01*
X156925000Y-86972480D01*
X157144788Y-87119338D01*
X157560000Y-87201929D01*
X157975212Y-87119338D01*
X158195000Y-86972480D01*
X158414788Y-87119338D01*
X158830000Y-87201929D01*
X159245212Y-87119338D01*
X159465000Y-86972480D01*
X159684788Y-87119338D01*
X160100000Y-87201929D01*
X160515212Y-87119338D01*
X160735000Y-86972480D01*
X160954788Y-87119338D01*
X161370000Y-87201929D01*
X161785212Y-87119338D01*
X162005000Y-86972480D01*
X162224788Y-87119338D01*
X162640000Y-87201929D01*
X163055212Y-87119338D01*
X163275000Y-86972480D01*
X163494788Y-87119338D01*
X163910000Y-87201929D01*
X164325212Y-87119338D01*
X164545000Y-86972480D01*
X164764788Y-87119338D01*
X165180000Y-87201929D01*
X165595212Y-87119338D01*
X165815000Y-86972480D01*
X166034788Y-87119338D01*
X166450000Y-87201929D01*
X166865212Y-87119338D01*
X167085000Y-86972480D01*
X167304788Y-87119338D01*
X167720000Y-87201929D01*
X168135212Y-87119338D01*
X168355000Y-86972480D01*
X168574788Y-87119338D01*
X168990000Y-87201929D01*
X169405212Y-87119338D01*
X169625000Y-86972480D01*
X169844788Y-87119338D01*
X170260000Y-87201929D01*
X170675212Y-87119338D01*
X170907741Y-86963968D01*
X171235999Y-87124408D01*
X171403000Y-86997502D01*
X171403000Y-85407000D01*
X171383000Y-85407000D01*
X171383000Y-85153000D01*
X171403000Y-85153000D01*
X171403000Y-83562498D01*
X171235999Y-83435592D01*
X171020000Y-83541164D01*
X171020000Y-83207101D01*
X171033392Y-83212662D01*
X171405358Y-83212986D01*
X171749134Y-83070941D01*
X171853770Y-82966487D01*
X171862768Y-83454540D01*
X171824001Y-83435592D01*
X171657000Y-83562498D01*
X171657000Y-85153000D01*
X171677000Y-85153000D01*
X171677000Y-85407000D01*
X171657000Y-85407000D01*
X171657000Y-86997502D01*
X171824001Y-87124408D01*
X171929470Y-87072859D01*
X172197607Y-101618197D01*
X171824001Y-101435592D01*
X171657000Y-101562498D01*
X171657000Y-103153000D01*
X171677000Y-103153000D01*
X171677000Y-103407000D01*
X171657000Y-103407000D01*
X171657000Y-104997502D01*
X171824001Y-105124408D01*
X172207408Y-104937013D01*
X172257700Y-104877975D01*
X172427115Y-114068055D01*
X171240360Y-115643202D01*
X171291577Y-115547410D01*
X171311197Y-115482761D01*
X171343034Y-115423176D01*
X171434034Y-115123026D01*
X171440626Y-115055996D01*
X171460190Y-114991543D01*
X171490990Y-114679393D01*
X171484377Y-114612125D01*
X171490989Y-114544863D01*
X171460189Y-114232733D01*
X171440627Y-114168287D01*
X171434036Y-114101260D01*
X171343036Y-113801100D01*
X171311195Y-113741507D01*
X171291572Y-113676850D01*
X171143672Y-113400240D01*
X171100938Y-113348183D01*
X171069200Y-113288777D01*
X170870300Y-113046317D01*
X170818081Y-113003444D01*
X170775215Y-112951221D01*
X170532714Y-112752241D01*
X170473249Y-112720463D01*
X170421131Y-112677687D01*
X170144531Y-112529827D01*
X170079933Y-112510229D01*
X170020396Y-112478411D01*
X169720196Y-112387371D01*
X169653090Y-112380767D01*
X169588565Y-112361191D01*
X169276465Y-112330441D01*
X169209300Y-112337054D01*
X169142135Y-112330441D01*
X168830035Y-112361191D01*
X168765510Y-112380767D01*
X168698404Y-112387371D01*
X168398204Y-112478411D01*
X168338667Y-112510229D01*
X168274069Y-112529827D01*
X167997469Y-112677687D01*
X167945351Y-112720463D01*
X167885886Y-112752241D01*
X167643386Y-112951221D01*
X167600574Y-113003379D01*
X167548407Y-113046187D01*
X167349407Y-113288647D01*
X167317570Y-113348204D01*
X167274738Y-113400410D01*
X167126938Y-113677020D01*
X167107391Y-113741490D01*
X167075625Y-113800900D01*
X166984525Y-114101060D01*
X166977893Y-114168293D01*
X166958289Y-114232950D01*
X166927589Y-114545079D01*
X166934202Y-114612129D01*
X166927589Y-114679176D01*
X166958289Y-114991326D01*
X166977894Y-115055988D01*
X166984527Y-115123226D01*
X167075627Y-115423376D01*
X167107389Y-115482777D01*
X167126933Y-115547241D01*
X167274733Y-115823861D01*
X167317568Y-115876072D01*
X167349407Y-115935633D01*
X167548407Y-116178093D01*
X167600580Y-116220906D01*
X167643399Y-116273070D01*
X167885899Y-116472040D01*
X167945358Y-116503813D01*
X167997469Y-116546583D01*
X168274069Y-116694443D01*
X168338657Y-116714038D01*
X168398184Y-116745853D01*
X168698384Y-116836903D01*
X168765500Y-116843510D01*
X168830035Y-116863089D01*
X169142135Y-116893839D01*
X169209300Y-116887226D01*
X169276465Y-116893839D01*
X169588565Y-116863089D01*
X169653100Y-116843510D01*
X169720216Y-116836903D01*
X170020416Y-116745853D01*
X170079943Y-116714038D01*
X170144531Y-116694443D01*
X170421131Y-116546583D01*
X170473242Y-116503813D01*
X170532701Y-116472040D01*
X170750585Y-116293267D01*
X169697760Y-117690653D01*
X127445840Y-117525953D01*
X126060802Y-116580447D01*
X126274087Y-116694453D01*
X126338651Y-116714039D01*
X126398154Y-116745844D01*
X126698304Y-116836894D01*
X126765437Y-116843506D01*
X126829991Y-116863090D01*
X127142121Y-116893840D01*
X127209280Y-116887227D01*
X127276435Y-116893840D01*
X127588585Y-116863090D01*
X127653135Y-116843508D01*
X127720270Y-116836896D01*
X128020430Y-116745846D01*
X128079941Y-116714037D01*
X128144512Y-116694448D01*
X128421122Y-116546588D01*
X128473259Y-116503798D01*
X128532744Y-116472005D01*
X128775204Y-116273035D01*
X128818014Y-116220874D01*
X128870174Y-116178067D01*
X129069154Y-115935607D01*
X129100955Y-115876112D01*
X129143753Y-115823963D01*
X129291613Y-115547343D01*
X129311202Y-115482769D01*
X129343010Y-115423256D01*
X129434050Y-115123106D01*
X129440659Y-115055980D01*
X129460240Y-114991435D01*
X129490990Y-114679284D01*
X129484377Y-114612130D01*
X129490990Y-114544971D01*
X129460240Y-114232841D01*
X129440660Y-114168301D01*
X129434052Y-114101180D01*
X129343012Y-113801020D01*
X129311200Y-113741499D01*
X129291608Y-113676918D01*
X129143748Y-113400308D01*
X129100952Y-113348164D01*
X129069154Y-113288673D01*
X128870174Y-113046213D01*
X128818019Y-113003411D01*
X128775217Y-112951256D01*
X128532757Y-112752276D01*
X128473266Y-112720478D01*
X128421122Y-112677682D01*
X128144512Y-112529822D01*
X128079931Y-112510230D01*
X128020410Y-112478418D01*
X127720250Y-112387378D01*
X127653130Y-112380770D01*
X127588589Y-112361190D01*
X127276459Y-112330440D01*
X127209300Y-112337053D01*
X127142146Y-112330440D01*
X126829995Y-112361190D01*
X126765450Y-112380771D01*
X126698324Y-112387380D01*
X126398174Y-112478420D01*
X126338661Y-112510228D01*
X126274087Y-112529817D01*
X125997467Y-112677677D01*
X125945318Y-112720475D01*
X125885823Y-112752276D01*
X125643363Y-112951256D01*
X125600556Y-113003416D01*
X125548395Y-113046226D01*
X125349425Y-113288686D01*
X125317632Y-113348171D01*
X125274842Y-113400308D01*
X125126982Y-113676918D01*
X125107393Y-113741489D01*
X125075584Y-113801000D01*
X124984534Y-114101160D01*
X124977923Y-114168291D01*
X124958340Y-114232841D01*
X124927590Y-114544971D01*
X124934203Y-114612130D01*
X124927590Y-114679285D01*
X124958340Y-114991435D01*
X124977924Y-115055990D01*
X124984536Y-115123126D01*
X125075586Y-115423276D01*
X125107391Y-115482779D01*
X125126977Y-115547343D01*
X125274837Y-115823963D01*
X125317630Y-115876105D01*
X125349425Y-115935594D01*
X125548395Y-116178054D01*
X125600562Y-116220868D01*
X125643376Y-116273035D01*
X125806113Y-116406582D01*
X124091580Y-115236144D01*
X124085305Y-111741690D01*
X130041800Y-111741690D01*
X130041800Y-111982250D01*
X130200550Y-112141000D01*
X130949800Y-112141000D01*
X130949800Y-111391750D01*
X130791050Y-111233000D01*
X130550491Y-111233000D01*
X130317102Y-111329673D01*
X130138473Y-111508301D01*
X130041800Y-111741690D01*
X124085305Y-111741690D01*
X124082818Y-110356650D01*
X130041800Y-110356650D01*
X130041800Y-110597210D01*
X130138473Y-110830599D01*
X130317102Y-111009227D01*
X130550491Y-111105900D01*
X130791050Y-111105900D01*
X130949800Y-110947150D01*
X130949800Y-110197900D01*
X130200550Y-110197900D01*
X130041800Y-110356650D01*
X124082818Y-110356650D01*
X124081360Y-109544590D01*
X130041800Y-109544590D01*
X130041800Y-109785150D01*
X130200550Y-109943900D01*
X130949800Y-109943900D01*
X130949800Y-109194650D01*
X130791050Y-109035900D01*
X130550491Y-109035900D01*
X130317102Y-109132573D01*
X130138473Y-109311201D01*
X130041800Y-109544590D01*
X124081360Y-109544590D01*
X124076477Y-106826050D01*
X125570600Y-106826050D01*
X125570600Y-107041610D01*
X125667273Y-107274999D01*
X125845902Y-107453627D01*
X126079291Y-107550300D01*
X126319850Y-107550300D01*
X126478600Y-107391550D01*
X126478600Y-106667300D01*
X125729350Y-106667300D01*
X125570600Y-106826050D01*
X124076477Y-106826050D01*
X124075064Y-106038990D01*
X125570600Y-106038990D01*
X125570600Y-106254550D01*
X125729350Y-106413300D01*
X126478600Y-106413300D01*
X126478600Y-105689050D01*
X126319850Y-105530300D01*
X126079291Y-105530300D01*
X125845902Y-105626973D01*
X125667273Y-105805601D01*
X125570600Y-106038990D01*
X124075064Y-106038990D01*
X124070091Y-103270050D01*
X125469000Y-103270050D01*
X125469000Y-103485610D01*
X125565673Y-103718999D01*
X125744302Y-103897627D01*
X125977691Y-103994300D01*
X126218250Y-103994300D01*
X126377000Y-103835550D01*
X126377000Y-103111300D01*
X125627750Y-103111300D01*
X125469000Y-103270050D01*
X124070091Y-103270050D01*
X124068678Y-102482990D01*
X125469000Y-102482990D01*
X125469000Y-102698550D01*
X125627750Y-102857300D01*
X126377000Y-102857300D01*
X126377000Y-102133050D01*
X126218250Y-101974300D01*
X125977691Y-101974300D01*
X125744302Y-102070973D01*
X125565673Y-102249601D01*
X125469000Y-102482990D01*
X124068678Y-102482990D01*
X124060399Y-97872890D01*
X126269100Y-97872890D01*
X126269100Y-98088450D01*
X126427850Y-98247200D01*
X127177100Y-98247200D01*
X127177100Y-97522950D01*
X127018350Y-97364200D01*
X126777791Y-97364200D01*
X126544402Y-97460873D01*
X126365773Y-97639501D01*
X126269100Y-97872890D01*
X124060399Y-97872890D01*
X124054254Y-94451772D01*
X124206600Y-94500200D01*
X124481600Y-94500200D01*
X124481600Y-93492200D01*
X124735600Y-93492200D01*
X124735600Y-94500200D01*
X125010600Y-94500200D01*
X125435278Y-94365202D01*
X125775968Y-94077963D01*
X125977719Y-93667074D01*
X125851554Y-93492200D01*
X124735600Y-93492200D01*
X124481600Y-93492200D01*
X124461600Y-93492200D01*
X124461600Y-93238200D01*
X124481600Y-93238200D01*
X124481600Y-92230200D01*
X124735600Y-92230200D01*
X124735600Y-93238200D01*
X125851554Y-93238200D01*
X125977719Y-93063326D01*
X125782791Y-92666331D01*
X126207371Y-92666331D01*
X126349032Y-93076249D01*
X126636779Y-93400752D01*
X127010662Y-93584468D01*
X127181600Y-93457934D01*
X127181600Y-92492200D01*
X127435600Y-92492200D01*
X127435600Y-93457934D01*
X127606538Y-93584468D01*
X127980421Y-93400752D01*
X128268168Y-93076249D01*
X128409829Y-92666331D01*
X128261163Y-92492200D01*
X127435600Y-92492200D01*
X127181600Y-92492200D01*
X126356037Y-92492200D01*
X126207371Y-92666331D01*
X125782791Y-92666331D01*
X125775968Y-92652437D01*
X125435278Y-92365198D01*
X125010600Y-92230200D01*
X124735600Y-92230200D01*
X124481600Y-92230200D01*
X124206600Y-92230200D01*
X124050353Y-92279868D01*
X124041675Y-87447773D01*
X124206600Y-87500200D01*
X124481600Y-87500200D01*
X124481600Y-86492200D01*
X124735600Y-86492200D01*
X124735600Y-87500200D01*
X125010600Y-87500200D01*
X125435278Y-87365202D01*
X125775968Y-87077963D01*
X125782790Y-87064069D01*
X126207371Y-87064069D01*
X126356037Y-87238200D01*
X127181600Y-87238200D01*
X127181600Y-86272466D01*
X127010662Y-86145932D01*
X126636779Y-86329648D01*
X126349032Y-86654151D01*
X126207371Y-87064069D01*
X125782790Y-87064069D01*
X125977719Y-86667074D01*
X125851554Y-86492200D01*
X124735600Y-86492200D01*
X124481600Y-86492200D01*
X124461600Y-86492200D01*
X124461600Y-86238200D01*
X124481600Y-86238200D01*
X124481600Y-85230200D01*
X124735600Y-85230200D01*
X124735600Y-86238200D01*
X125851554Y-86238200D01*
X125977719Y-86063326D01*
X125775968Y-85652437D01*
X125435278Y-85365198D01*
X125010600Y-85230200D01*
X124735600Y-85230200D01*
X124481600Y-85230200D01*
X124206600Y-85230200D01*
X124037789Y-85283862D01*
X124031477Y-81768950D01*
X126028700Y-81768950D01*
X126028700Y-82009510D01*
X126125373Y-82242899D01*
X126304002Y-82421527D01*
X126537391Y-82518200D01*
X126777950Y-82518200D01*
X126936700Y-82359450D01*
X126936700Y-81610200D01*
X126187450Y-81610200D01*
X126028700Y-81768950D01*
X124031477Y-81768950D01*
X124030019Y-80956890D01*
X126028700Y-80956890D01*
X126028700Y-81197450D01*
X126187450Y-81356200D01*
X126936700Y-81356200D01*
X126936700Y-80606950D01*
X126777950Y-80448200D01*
X126537391Y-80448200D01*
X126304002Y-80544873D01*
X126125373Y-80723501D01*
X126028700Y-80956890D01*
X124030019Y-80956890D01*
X124015555Y-72903101D01*
X124198826Y-72544965D01*
X124927591Y-72544965D01*
X124934204Y-72612130D01*
X124927591Y-72679295D01*
X124958341Y-72991395D01*
X124977920Y-73055930D01*
X124984527Y-73123046D01*
X125075577Y-73423246D01*
X125107392Y-73482773D01*
X125126987Y-73547361D01*
X125274847Y-73823961D01*
X125317617Y-73876072D01*
X125349390Y-73935531D01*
X125548360Y-74178031D01*
X125600525Y-74220851D01*
X125643337Y-74273023D01*
X125885797Y-74472022D01*
X125945355Y-74503860D01*
X125997569Y-74546697D01*
X126274190Y-74694498D01*
X126338655Y-74714042D01*
X126398054Y-74745803D01*
X126698204Y-74836904D01*
X126765441Y-74843536D01*
X126830099Y-74863141D01*
X127142229Y-74893840D01*
X127209275Y-74887227D01*
X127276326Y-74893841D01*
X127588476Y-74863141D01*
X127653134Y-74843537D01*
X127720370Y-74836905D01*
X128020530Y-74745805D01*
X128079940Y-74714039D01*
X128144410Y-74694492D01*
X128421020Y-74546692D01*
X128473226Y-74503860D01*
X128532783Y-74472023D01*
X128775243Y-74273023D01*
X128818051Y-74220856D01*
X128870209Y-74178044D01*
X129069189Y-73935544D01*
X129100967Y-73876079D01*
X129143743Y-73823961D01*
X129291603Y-73547361D01*
X129311201Y-73482763D01*
X129343019Y-73423226D01*
X129361510Y-73362250D01*
X137750200Y-73362250D01*
X137750200Y-73602809D01*
X137846873Y-73836198D01*
X138025501Y-74014827D01*
X138258890Y-74111500D01*
X138474450Y-74111500D01*
X138633200Y-73952750D01*
X138633200Y-73203500D01*
X138887200Y-73203500D01*
X138887200Y-73952750D01*
X139045950Y-74111500D01*
X139261510Y-74111500D01*
X139494899Y-74014827D01*
X139673527Y-73836198D01*
X139770200Y-73602809D01*
X139770200Y-73362250D01*
X139611450Y-73203500D01*
X138887200Y-73203500D01*
X138633200Y-73203500D01*
X137908950Y-73203500D01*
X137750200Y-73362250D01*
X129361510Y-73362250D01*
X129434059Y-73123026D01*
X129440663Y-73055920D01*
X129460239Y-72991395D01*
X129490989Y-72679295D01*
X129484376Y-72612130D01*
X129490989Y-72544965D01*
X129460239Y-72232865D01*
X129440663Y-72168340D01*
X129434059Y-72101234D01*
X129343019Y-71801034D01*
X129311201Y-71741497D01*
X129291603Y-71676899D01*
X129143743Y-71400299D01*
X129100967Y-71348181D01*
X129069189Y-71288716D01*
X128870209Y-71046216D01*
X128817988Y-71003352D01*
X128775113Y-70951130D01*
X128532653Y-70752230D01*
X128473247Y-70720492D01*
X128421190Y-70677758D01*
X128144580Y-70529858D01*
X128079923Y-70510235D01*
X128020330Y-70478394D01*
X127720170Y-70387394D01*
X127653143Y-70380803D01*
X127588697Y-70361241D01*
X127276567Y-70330441D01*
X127209305Y-70337053D01*
X127142037Y-70330440D01*
X126829887Y-70361240D01*
X126765434Y-70380804D01*
X126698404Y-70387396D01*
X126398254Y-70478396D01*
X126338669Y-70510233D01*
X126274020Y-70529853D01*
X125997399Y-70677753D01*
X125945337Y-70720490D01*
X125885927Y-70752230D01*
X125643467Y-70951130D01*
X125600588Y-71003357D01*
X125548360Y-71046229D01*
X125349390Y-71288729D01*
X125317617Y-71348188D01*
X125274847Y-71400299D01*
X125126987Y-71676899D01*
X125107392Y-71741487D01*
X125075577Y-71801014D01*
X124984527Y-72101214D01*
X124977920Y-72168330D01*
X124958341Y-72232865D01*
X124927591Y-72544965D01*
X124198826Y-72544965D01*
X125350304Y-70294831D01*
X139609947Y-70355476D01*
X139609947Y-70355476D01*
G37*
X139609947Y-70355476D02*
X139373300Y-70513598D01*
X139320900Y-70565998D01*
X139135200Y-70529060D01*
X138385200Y-70529060D01*
X138137435Y-70578343D01*
X137927391Y-70718691D01*
X137787043Y-70928735D01*
X137737760Y-71176500D01*
X137737760Y-71976500D01*
X137787043Y-72224265D01*
X137848073Y-72315602D01*
X137846873Y-72316802D01*
X137750200Y-72550191D01*
X137750200Y-72790750D01*
X137908950Y-72949500D01*
X138633200Y-72949500D01*
X138633200Y-72929500D01*
X138887200Y-72929500D01*
X138887200Y-72949500D01*
X139611450Y-72949500D01*
X139770200Y-72790750D01*
X139770200Y-72661750D01*
X141446600Y-72661750D01*
X141446600Y-73502309D01*
X141543273Y-73735698D01*
X141721901Y-73914327D01*
X141955290Y-74011000D01*
X143545850Y-74011000D01*
X143704600Y-73852250D01*
X143704600Y-72503000D01*
X143958600Y-72503000D01*
X143958600Y-73852250D01*
X144117350Y-74011000D01*
X145707910Y-74011000D01*
X145941299Y-73914327D01*
X146119927Y-73735698D01*
X146216600Y-73502309D01*
X146216600Y-72661750D01*
X146057850Y-72503000D01*
X143958600Y-72503000D01*
X143704600Y-72503000D01*
X141605350Y-72503000D01*
X141446600Y-72661750D01*
X139770200Y-72661750D01*
X139770200Y-72550191D01*
X139673527Y-72316802D01*
X139672327Y-72315602D01*
X139713941Y-72253323D01*
X139922601Y-72113901D01*
X140225503Y-71810999D01*
X141446600Y-71810999D01*
X141446600Y-72090250D01*
X141605350Y-72249000D01*
X143704600Y-72249000D01*
X143704600Y-72229000D01*
X143958600Y-72229000D01*
X143958600Y-72249000D01*
X146057850Y-72249000D01*
X146216600Y-72090250D01*
X146216600Y-71810999D01*
X147084160Y-71810999D01*
X147084160Y-77748638D01*
X141939397Y-82893401D01*
X141874100Y-82893401D01*
X141874406Y-82543723D01*
X141694380Y-82108028D01*
X141361325Y-81774391D01*
X140925945Y-81593606D01*
X140454523Y-81593194D01*
X140018828Y-81773220D01*
X139685191Y-82106275D01*
X139583700Y-82350693D01*
X139583700Y-78643859D01*
X139656509Y-78595209D01*
X139721863Y-78497400D01*
X141748893Y-78497400D01*
X141833835Y-78554157D01*
X142081600Y-78603440D01*
X142597158Y-78603440D01*
X142113020Y-79087578D01*
X142067533Y-79087538D01*
X141723757Y-79229583D01*
X141460508Y-79492373D01*
X141317862Y-79835901D01*
X141317538Y-80207867D01*
X141459583Y-80551643D01*
X141722373Y-80814892D01*
X142065901Y-80957538D01*
X142437867Y-80957862D01*
X142781643Y-80815817D01*
X143044892Y-80553027D01*
X143187538Y-80209499D01*
X143187579Y-80162623D01*
X144369001Y-78981201D01*
X144533748Y-78734639D01*
X144559845Y-78603440D01*
X145581600Y-78603440D01*
X145829365Y-78554157D01*
X146039409Y-78413809D01*
X146179757Y-78203765D01*
X146229040Y-77956000D01*
X146229040Y-75956000D01*
X146179757Y-75708235D01*
X146039409Y-75498191D01*
X145829365Y-75357843D01*
X145581600Y-75308560D01*
X142081600Y-75308560D01*
X141833835Y-75357843D01*
X141623791Y-75498191D01*
X141483443Y-75708235D01*
X141434160Y-75956000D01*
X141434160Y-76977400D01*
X139745186Y-76977400D01*
X139833700Y-76763709D01*
X139833700Y-76523150D01*
X139674950Y-76364400D01*
X138950700Y-76364400D01*
X138950700Y-76384400D01*
X138696700Y-76384400D01*
X138696700Y-76364400D01*
X137972450Y-76364400D01*
X137813700Y-76523150D01*
X137813700Y-76763709D01*
X137902214Y-76977400D01*
X135721902Y-76977400D01*
X135164140Y-76419638D01*
X135164140Y-75711091D01*
X137813700Y-75711091D01*
X137813700Y-75951650D01*
X137972450Y-76110400D01*
X138696700Y-76110400D01*
X138696700Y-75361150D01*
X138950700Y-75361150D01*
X138950700Y-76110400D01*
X139674950Y-76110400D01*
X139833700Y-75951650D01*
X139833700Y-75711091D01*
X139737027Y-75477702D01*
X139558399Y-75299073D01*
X139325010Y-75202400D01*
X139109450Y-75202400D01*
X138950700Y-75361150D01*
X138696700Y-75361150D01*
X138537950Y-75202400D01*
X138322390Y-75202400D01*
X138089001Y-75299073D01*
X137910373Y-75477702D01*
X137813700Y-75711091D01*
X135164140Y-75711091D01*
X135164140Y-74347000D01*
X135114857Y-74099235D01*
X134974509Y-73889191D01*
X134764465Y-73748843D01*
X134516700Y-73699560D01*
X132716700Y-73699560D01*
X132468935Y-73748843D01*
X132258891Y-73889191D01*
X132118543Y-74099235D01*
X132069260Y-74347000D01*
X132069260Y-74837000D01*
X131810600Y-74837000D01*
X131519760Y-74894852D01*
X131273199Y-75059599D01*
X128525138Y-77807660D01*
X128452500Y-77807660D01*
X128204735Y-77856943D01*
X127994691Y-77997291D01*
X127952500Y-78060434D01*
X127910309Y-77997291D01*
X127700265Y-77856943D01*
X127452500Y-77807660D01*
X126952500Y-77807660D01*
X126704735Y-77856943D01*
X126494691Y-77997291D01*
X126354343Y-78207335D01*
X126305060Y-78455100D01*
X126305060Y-79355100D01*
X126354343Y-79602865D01*
X126494691Y-79812909D01*
X126704735Y-79953257D01*
X126952500Y-80002540D01*
X127025138Y-80002540D01*
X127165099Y-80142501D01*
X127411661Y-80307248D01*
X127559192Y-80336594D01*
X127727925Y-80505327D01*
X127590009Y-80448200D01*
X127349450Y-80448200D01*
X127190700Y-80606950D01*
X127190700Y-81356200D01*
X127210700Y-81356200D01*
X127210700Y-81610200D01*
X127190700Y-81610200D01*
X127190700Y-82359450D01*
X127349450Y-82518200D01*
X127590009Y-82518200D01*
X127823398Y-82421527D01*
X127864653Y-82380273D01*
X128015935Y-82481357D01*
X128263700Y-82530640D01*
X129063700Y-82530640D01*
X129311465Y-82481357D01*
X129521509Y-82341009D01*
X129661857Y-82130965D01*
X129711140Y-81883200D01*
X129711140Y-81083200D01*
X129661857Y-80835435D01*
X129521509Y-80625391D01*
X129423700Y-80560037D01*
X129423700Y-80366300D01*
X129398973Y-80241991D01*
X129365848Y-80075460D01*
X129258289Y-79914486D01*
X129410309Y-79812909D01*
X129550657Y-79602865D01*
X129599940Y-79355100D01*
X129599940Y-78882462D01*
X132069260Y-76413142D01*
X132069260Y-76847000D01*
X132118543Y-77094765D01*
X132258891Y-77304809D01*
X132468935Y-77445157D01*
X132716700Y-77494440D01*
X134089338Y-77494440D01*
X134294458Y-77699560D01*
X132716700Y-77699560D01*
X132468935Y-77748843D01*
X132258891Y-77889191D01*
X132118543Y-78099235D01*
X132069260Y-78347000D01*
X132069260Y-80847000D01*
X132118543Y-81094765D01*
X132258891Y-81304809D01*
X132303969Y-81334929D01*
X127696199Y-85942699D01*
X127531452Y-86189261D01*
X127528594Y-86203629D01*
X127435600Y-86272466D01*
X127435600Y-87238200D01*
X127455600Y-87238200D01*
X127455600Y-87492200D01*
X127435600Y-87492200D01*
X127435600Y-87512200D01*
X127181600Y-87512200D01*
X127181600Y-87492200D01*
X126356037Y-87492200D01*
X126207371Y-87666331D01*
X126269125Y-87845027D01*
X126175791Y-87907391D01*
X126035443Y-88117435D01*
X125986160Y-88365200D01*
X125986160Y-88765200D01*
X126011024Y-88890200D01*
X125986160Y-89015200D01*
X125986160Y-89415200D01*
X126011024Y-89540200D01*
X125986160Y-89665200D01*
X125986160Y-90065200D01*
X126011024Y-90190200D01*
X125986160Y-90315200D01*
X125986160Y-90715200D01*
X126006817Y-90819052D01*
X125998600Y-90838890D01*
X125998600Y-90906450D01*
X126030558Y-90938408D01*
X126035443Y-90962965D01*
X126175791Y-91173009D01*
X126313764Y-91265200D01*
X126157350Y-91265200D01*
X125998600Y-91423950D01*
X125998600Y-91491510D01*
X126095273Y-91724899D01*
X126265690Y-91895315D01*
X126207371Y-92064069D01*
X126356037Y-92238200D01*
X127181600Y-92238200D01*
X127181600Y-92218200D01*
X127435600Y-92218200D01*
X127435600Y-92238200D01*
X128261163Y-92238200D01*
X128409829Y-92064069D01*
X128351510Y-91895315D01*
X128521927Y-91724899D01*
X128618600Y-91491510D01*
X128618600Y-91423950D01*
X128486852Y-91292202D01*
X128585800Y-91292202D01*
X130541651Y-93248053D01*
X130541599Y-93307906D01*
X130683644Y-93651682D01*
X130946434Y-93914931D01*
X131289962Y-94057577D01*
X131364261Y-94057642D01*
X128266699Y-97155204D01*
X128101952Y-97401766D01*
X128093782Y-97442840D01*
X128064998Y-97462073D01*
X128063798Y-97460873D01*
X127830409Y-97364200D01*
X127589850Y-97364200D01*
X127431100Y-97522950D01*
X127431100Y-98247200D01*
X127451100Y-98247200D01*
X127451100Y-98501200D01*
X127431100Y-98501200D01*
X127431100Y-98521200D01*
X127177100Y-98521200D01*
X127177100Y-98501200D01*
X126427850Y-98501200D01*
X126269100Y-98659950D01*
X126269100Y-98875510D01*
X126365773Y-99108899D01*
X126544402Y-99287527D01*
X126777791Y-99384200D01*
X127018350Y-99384200D01*
X127177098Y-99225452D01*
X127177098Y-99384200D01*
X127244000Y-99384200D01*
X127244000Y-102062814D01*
X127030309Y-101974300D01*
X126789750Y-101974300D01*
X126631000Y-102133050D01*
X126631000Y-102857300D01*
X126651000Y-102857300D01*
X126651000Y-103111300D01*
X126631000Y-103111300D01*
X126631000Y-103835550D01*
X126789750Y-103994300D01*
X127030309Y-103994300D01*
X127263698Y-103897627D01*
X127264898Y-103896427D01*
X127356235Y-103957457D01*
X127604000Y-104006740D01*
X128404000Y-104006740D01*
X128651765Y-103957457D01*
X128861809Y-103817109D01*
X128910459Y-103744300D01*
X129726684Y-103744300D01*
X129765372Y-103938800D01*
X129552700Y-103938800D01*
X129261860Y-103996652D01*
X129040313Y-104144685D01*
X128986533Y-104144638D01*
X128681635Y-104270619D01*
X128622527Y-104211408D01*
X128278999Y-104068762D01*
X127907033Y-104068438D01*
X127563257Y-104210483D01*
X127300008Y-104473273D01*
X127157362Y-104816801D01*
X127157038Y-105188767D01*
X127299083Y-105532543D01*
X127332200Y-105565718D01*
X127332200Y-105613263D01*
X127131909Y-105530300D01*
X126891350Y-105530300D01*
X126732600Y-105689050D01*
X126732600Y-106413300D01*
X126752600Y-106413300D01*
X126752600Y-106667300D01*
X126732600Y-106667300D01*
X126732600Y-107391550D01*
X126891350Y-107550300D01*
X127131909Y-107550300D01*
X127365298Y-107453627D01*
X127366498Y-107452427D01*
X127457835Y-107513457D01*
X127705600Y-107562740D01*
X128505600Y-107562740D01*
X128753365Y-107513457D01*
X128963409Y-107373109D01*
X129103757Y-107163065D01*
X129153040Y-106915300D01*
X129153040Y-106165300D01*
X129123096Y-106014758D01*
X129356867Y-106014962D01*
X129700643Y-105872917D01*
X129743715Y-105829920D01*
X129767362Y-105948800D01*
X129717633Y-106198800D01*
X129777388Y-106499206D01*
X129947554Y-106753879D01*
X130202227Y-106924045D01*
X130502633Y-106983800D01*
X130963400Y-106983800D01*
X130963400Y-107444567D01*
X131023155Y-107744973D01*
X131193321Y-107999646D01*
X131447994Y-108169812D01*
X131748400Y-108229567D01*
X131998400Y-108179838D01*
X132248400Y-108229567D01*
X132498400Y-108179838D01*
X132748400Y-108229567D01*
X132998400Y-108179838D01*
X133248400Y-108229567D01*
X133498400Y-108179838D01*
X133748400Y-108229567D01*
X133998400Y-108179838D01*
X134248400Y-108229567D01*
X134498400Y-108179838D01*
X134748400Y-108229567D01*
X135048806Y-108169812D01*
X135303479Y-107999646D01*
X135473645Y-107744973D01*
X135533400Y-107444567D01*
X135533400Y-106983800D01*
X135994167Y-106983800D01*
X136294573Y-106924045D01*
X136321170Y-106906274D01*
X140455298Y-111040402D01*
X140701859Y-111205149D01*
X140992699Y-111263001D01*
X143461684Y-111263001D01*
X143307635Y-111293643D01*
X143097591Y-111433991D01*
X142957243Y-111644035D01*
X142907960Y-111891800D01*
X142907960Y-112491800D01*
X142957243Y-112739565D01*
X143015532Y-112826800D01*
X142957243Y-112914035D01*
X142907960Y-113161800D01*
X142907960Y-113761800D01*
X142957243Y-114009565D01*
X143015532Y-114096800D01*
X142957243Y-114184035D01*
X142907960Y-114431800D01*
X142907960Y-114979245D01*
X142791817Y-114698157D01*
X142529027Y-114434908D01*
X142185499Y-114292262D01*
X141813533Y-114291938D01*
X141469757Y-114433983D01*
X141206508Y-114696773D01*
X141185035Y-114748486D01*
X141156799Y-114736762D01*
X141109923Y-114736721D01*
X140567601Y-114194399D01*
X140321039Y-114029652D01*
X140293761Y-114024226D01*
X140303557Y-114009565D01*
X140352840Y-113761800D01*
X140352840Y-113161800D01*
X140303557Y-112914035D01*
X140245268Y-112826800D01*
X140303557Y-112739565D01*
X140352840Y-112491800D01*
X140352840Y-111891800D01*
X140303557Y-111644035D01*
X140163209Y-111433991D01*
X139953165Y-111293643D01*
X139705400Y-111244360D01*
X139561320Y-111244360D01*
X139467801Y-111104399D01*
X137973101Y-109609699D01*
X137726539Y-109444952D01*
X137435700Y-109387100D01*
X136722673Y-109387100D01*
X136623909Y-109239291D01*
X136413865Y-109098943D01*
X136166100Y-109049660D01*
X135666100Y-109049660D01*
X135418335Y-109098943D01*
X135208291Y-109239291D01*
X135166100Y-109302434D01*
X135123909Y-109239291D01*
X134913865Y-109098943D01*
X134666100Y-109049660D01*
X134166100Y-109049660D01*
X133918335Y-109098943D01*
X133708291Y-109239291D01*
X133630203Y-109356157D01*
X133534609Y-109213091D01*
X133324565Y-109072743D01*
X133076800Y-109023460D01*
X132276800Y-109023460D01*
X132029035Y-109072743D01*
X131877753Y-109173827D01*
X131836498Y-109132573D01*
X131603109Y-109035900D01*
X131362550Y-109035900D01*
X131203800Y-109194650D01*
X131203800Y-109943900D01*
X131223800Y-109943900D01*
X131223800Y-110197900D01*
X131203800Y-110197900D01*
X131203800Y-110947150D01*
X131362550Y-111105900D01*
X131603109Y-111105900D01*
X131836498Y-111009227D01*
X131877753Y-110967973D01*
X132029035Y-111069057D01*
X132276800Y-111118340D01*
X133076800Y-111118340D01*
X133324565Y-111069057D01*
X133534609Y-110928709D01*
X133549048Y-110907100D01*
X133609527Y-110907100D01*
X133708291Y-111054909D01*
X133918335Y-111195257D01*
X134166100Y-111244540D01*
X134666100Y-111244540D01*
X134913865Y-111195257D01*
X135123909Y-111054909D01*
X135166100Y-110991766D01*
X135208291Y-111054909D01*
X135418335Y-111195257D01*
X135425857Y-111196753D01*
X135285362Y-111535101D01*
X135285321Y-111581977D01*
X135047799Y-111819499D01*
X134883052Y-112066061D01*
X134844326Y-112260748D01*
X134677391Y-112372291D01*
X134537043Y-112582335D01*
X134487760Y-112830100D01*
X134487760Y-113330100D01*
X134537043Y-113577865D01*
X134677391Y-113787909D01*
X134740534Y-113830100D01*
X134677391Y-113872291D01*
X134537043Y-114082335D01*
X134487760Y-114330100D01*
X134487760Y-114830100D01*
X134537043Y-115077865D01*
X134677391Y-115287909D01*
X134887435Y-115428257D01*
X135135200Y-115477540D01*
X135665211Y-115477540D01*
X135736900Y-115491800D01*
X137555066Y-115491800D01*
X137520400Y-115575490D01*
X137520400Y-115716050D01*
X137671151Y-115866801D01*
X134193603Y-115866801D01*
X133765801Y-115438999D01*
X133584337Y-115317749D01*
X133576557Y-115278635D01*
X133436209Y-115068591D01*
X133226165Y-114928243D01*
X132978400Y-114878960D01*
X132478400Y-114878960D01*
X132230635Y-114928243D01*
X132020591Y-115068591D01*
X131988400Y-115116768D01*
X131988400Y-114031202D01*
X132704162Y-113315440D01*
X133076800Y-113315440D01*
X133324565Y-113266157D01*
X133534609Y-113125809D01*
X133674957Y-112915765D01*
X133724240Y-112668000D01*
X133724240Y-111868000D01*
X133674957Y-111620235D01*
X133534609Y-111410191D01*
X133324565Y-111269843D01*
X133076800Y-111220560D01*
X132276800Y-111220560D01*
X132029035Y-111269843D01*
X131877753Y-111370927D01*
X131836498Y-111329673D01*
X131603109Y-111233000D01*
X131362550Y-111233000D01*
X131203800Y-111391750D01*
X131203800Y-112141000D01*
X131223800Y-112141000D01*
X131223800Y-112395000D01*
X131203800Y-112395000D01*
X131203800Y-112415000D01*
X130949800Y-112415000D01*
X130949800Y-112395000D01*
X130200550Y-112395000D01*
X130041800Y-112553750D01*
X130041800Y-112794310D01*
X130138473Y-113027699D01*
X130317102Y-113206327D01*
X130550491Y-113303000D01*
X130608144Y-113303000D01*
X130526252Y-113425561D01*
X130468400Y-113716400D01*
X130468400Y-115146700D01*
X130380243Y-115278635D01*
X130330960Y-115526400D01*
X130330960Y-116426400D01*
X130380243Y-116674165D01*
X130520591Y-116884209D01*
X130730635Y-117024557D01*
X130978400Y-117073840D01*
X131478400Y-117073840D01*
X131726165Y-117024557D01*
X131936209Y-116884209D01*
X131978400Y-116821066D01*
X132020591Y-116884209D01*
X132230635Y-117024557D01*
X132478400Y-117073840D01*
X132978400Y-117073840D01*
X133205805Y-117028607D01*
X133341400Y-117164202D01*
X133587962Y-117328949D01*
X133878801Y-117386801D01*
X141483511Y-117386801D01*
X141582956Y-117453248D01*
X141873796Y-117511100D01*
X146888200Y-117511100D01*
X147179039Y-117453248D01*
X147425601Y-117288501D01*
X148528152Y-116185950D01*
X150984100Y-116185950D01*
X150984100Y-116426510D01*
X151080773Y-116659899D01*
X151259402Y-116838527D01*
X151492791Y-116935200D01*
X151733350Y-116935200D01*
X151892100Y-116776450D01*
X151892100Y-116027200D01*
X151142850Y-116027200D01*
X150984100Y-116185950D01*
X148528152Y-116185950D01*
X149419501Y-115294601D01*
X149450671Y-115247951D01*
X149492435Y-115275857D01*
X149740200Y-115325140D01*
X150640200Y-115325140D01*
X150887965Y-115275857D01*
X151077036Y-115149523D01*
X150984100Y-115373890D01*
X150984100Y-115614450D01*
X151142850Y-115773200D01*
X151892100Y-115773200D01*
X151892100Y-115023950D01*
X151733350Y-114865200D01*
X151492791Y-114865200D01*
X151259402Y-114961873D01*
X151122664Y-115098610D01*
X151238357Y-114925465D01*
X151287640Y-114677700D01*
X151287640Y-114264642D01*
X151352883Y-114422543D01*
X151615673Y-114685792D01*
X151959201Y-114828438D01*
X152331167Y-114828762D01*
X152674943Y-114686717D01*
X152938192Y-114423927D01*
X153080838Y-114080399D01*
X153081162Y-113708433D01*
X152939117Y-113364657D01*
X152906000Y-113331482D01*
X152906000Y-112557402D01*
X153241760Y-112221642D01*
X153241760Y-112972000D01*
X153291043Y-113219765D01*
X153379200Y-113351700D01*
X153379200Y-113700202D01*
X153309608Y-113769673D01*
X153166962Y-114113201D01*
X153166638Y-114485167D01*
X153308683Y-114828943D01*
X153332458Y-114852760D01*
X153219100Y-114852760D01*
X152971335Y-114902043D01*
X152820053Y-115003127D01*
X152778798Y-114961873D01*
X152545409Y-114865200D01*
X152304850Y-114865200D01*
X152146100Y-115023950D01*
X152146100Y-115773200D01*
X152166100Y-115773200D01*
X152166100Y-116027200D01*
X152146100Y-116027200D01*
X152146100Y-116776450D01*
X152304850Y-116935200D01*
X152545409Y-116935200D01*
X152778798Y-116838527D01*
X152820053Y-116797273D01*
X152971335Y-116898357D01*
X153219100Y-116947640D01*
X154019100Y-116947640D01*
X154266865Y-116898357D01*
X154476909Y-116758009D01*
X154481409Y-116751274D01*
X154536291Y-116833409D01*
X154746335Y-116973757D01*
X154994100Y-117023040D01*
X155494100Y-117023040D01*
X155741865Y-116973757D01*
X155951909Y-116833409D01*
X155994100Y-116770266D01*
X156036291Y-116833409D01*
X156246335Y-116973757D01*
X156494100Y-117023040D01*
X156994100Y-117023040D01*
X157241865Y-116973757D01*
X157451909Y-116833409D01*
X157592257Y-116623365D01*
X157641540Y-116375600D01*
X157641540Y-115475600D01*
X157592257Y-115227835D01*
X157504100Y-115095900D01*
X157504100Y-114894814D01*
X158067760Y-114331154D01*
X158067760Y-114902400D01*
X158117043Y-115150165D01*
X158257391Y-115360209D01*
X158467435Y-115500557D01*
X158715200Y-115549840D01*
X158787838Y-115549840D01*
X159891499Y-116653501D01*
X160138060Y-116818248D01*
X160428900Y-116876100D01*
X163254837Y-116876100D01*
X163286973Y-116908292D01*
X163630501Y-117050938D01*
X164002467Y-117051262D01*
X164346243Y-116909217D01*
X164609492Y-116646427D01*
X164752138Y-116302899D01*
X164752462Y-115930933D01*
X164610417Y-115587157D01*
X164595998Y-115572713D01*
X164736400Y-115600640D01*
X165236400Y-115600640D01*
X165484165Y-115551357D01*
X165694209Y-115411009D01*
X165834557Y-115200965D01*
X165883840Y-114953200D01*
X165883840Y-114053200D01*
X165834557Y-113805435D01*
X165746400Y-113673500D01*
X165746400Y-112995440D01*
X166317200Y-112995440D01*
X166564965Y-112946157D01*
X166775009Y-112805809D01*
X166806954Y-112758000D01*
X167567400Y-112758000D01*
X167858239Y-112700148D01*
X168104801Y-112535401D01*
X169203662Y-111436540D01*
X169526300Y-111436540D01*
X169774065Y-111387257D01*
X169984109Y-111246909D01*
X170124457Y-111036865D01*
X170173740Y-110789100D01*
X170173740Y-109989100D01*
X170124457Y-109741335D01*
X170063427Y-109649998D01*
X170064627Y-109648798D01*
X170161300Y-109415409D01*
X170161300Y-109174850D01*
X170002550Y-109016100D01*
X169278300Y-109016100D01*
X169278300Y-109036100D01*
X169024300Y-109036100D01*
X169024300Y-109016100D01*
X168300050Y-109016100D01*
X168141300Y-109174850D01*
X168141300Y-109415409D01*
X168237973Y-109648798D01*
X168239173Y-109649998D01*
X168178143Y-109741335D01*
X168128860Y-109989100D01*
X168128860Y-110361738D01*
X167252598Y-111238000D01*
X166806954Y-111238000D01*
X166775009Y-111190191D01*
X166564965Y-111049843D01*
X166317200Y-111000560D01*
X164867200Y-111000560D01*
X164619435Y-111049843D01*
X164409391Y-111190191D01*
X164377446Y-111238000D01*
X161656954Y-111238000D01*
X161625009Y-111190191D01*
X161414965Y-111049843D01*
X161167200Y-111000560D01*
X159717200Y-111000560D01*
X159469435Y-111049843D01*
X159281400Y-111175485D01*
X159281400Y-110810225D01*
X159357502Y-110886327D01*
X159590891Y-110983000D01*
X160156450Y-110983000D01*
X160315200Y-110824250D01*
X160315200Y-110125000D01*
X160569200Y-110125000D01*
X160569200Y-110824250D01*
X160727950Y-110983000D01*
X161293509Y-110983000D01*
X161526898Y-110886327D01*
X161705527Y-110707699D01*
X161802200Y-110474310D01*
X161802200Y-110283750D01*
X164232200Y-110283750D01*
X164232200Y-110474310D01*
X164328873Y-110707699D01*
X164507502Y-110886327D01*
X164740891Y-110983000D01*
X165306450Y-110983000D01*
X165465200Y-110824250D01*
X165465200Y-110125000D01*
X165719200Y-110125000D01*
X165719200Y-110824250D01*
X165877950Y-110983000D01*
X166443509Y-110983000D01*
X166676898Y-110886327D01*
X166855527Y-110707699D01*
X166952200Y-110474310D01*
X166952200Y-110283750D01*
X166793450Y-110125000D01*
X165719200Y-110125000D01*
X165465200Y-110125000D01*
X164390950Y-110125000D01*
X164232200Y-110283750D01*
X161802200Y-110283750D01*
X161643450Y-110125000D01*
X160569200Y-110125000D01*
X160315200Y-110125000D01*
X160295200Y-110125000D01*
X160295200Y-109871000D01*
X160315200Y-109871000D01*
X160315200Y-109851000D01*
X160569200Y-109851000D01*
X160569200Y-109871000D01*
X161643450Y-109871000D01*
X161802200Y-109712250D01*
X161802200Y-109521690D01*
X161744794Y-109383100D01*
X164289606Y-109383100D01*
X164232200Y-109521690D01*
X164232200Y-109712250D01*
X164390950Y-109871000D01*
X165465200Y-109871000D01*
X165465200Y-109851000D01*
X165719200Y-109851000D01*
X165719200Y-109871000D01*
X166793450Y-109871000D01*
X166952200Y-109712250D01*
X166952200Y-109521690D01*
X166855527Y-109288301D01*
X166818480Y-109251254D01*
X166954301Y-109160501D01*
X167752011Y-108362791D01*
X168141300Y-108362791D01*
X168141300Y-108603350D01*
X168300050Y-108762100D01*
X169024300Y-108762100D01*
X169024300Y-108012850D01*
X169278300Y-108012850D01*
X169278300Y-108762100D01*
X170002550Y-108762100D01*
X170161300Y-108603350D01*
X170161300Y-108362791D01*
X170064627Y-108129402D01*
X169885999Y-107950773D01*
X169652610Y-107854100D01*
X169437050Y-107854100D01*
X169278300Y-108012850D01*
X169024300Y-108012850D01*
X168865550Y-107854100D01*
X168649990Y-107854100D01*
X168416601Y-107950773D01*
X168237973Y-108129402D01*
X168141300Y-108362791D01*
X167752011Y-108362791D01*
X170797401Y-105317401D01*
X170962148Y-105070839D01*
X170976702Y-104997673D01*
X171235999Y-105124408D01*
X171403000Y-104997502D01*
X171403000Y-103407000D01*
X171383000Y-103407000D01*
X171383000Y-103153000D01*
X171403000Y-103153000D01*
X171403000Y-101562498D01*
X171235999Y-101435592D01*
X170907741Y-101596032D01*
X170675212Y-101440662D01*
X170260000Y-101358071D01*
X169844788Y-101440662D01*
X169625000Y-101587520D01*
X169405212Y-101440662D01*
X168990000Y-101358071D01*
X168574788Y-101440662D01*
X168355000Y-101587520D01*
X168135212Y-101440662D01*
X167720000Y-101358071D01*
X167304788Y-101440662D01*
X167085000Y-101587520D01*
X166865212Y-101440662D01*
X166450000Y-101358071D01*
X166034788Y-101440662D01*
X165815000Y-101587520D01*
X165595212Y-101440662D01*
X165180000Y-101358071D01*
X164764788Y-101440662D01*
X164545000Y-101587520D01*
X164325212Y-101440662D01*
X163910000Y-101358071D01*
X163494788Y-101440662D01*
X163275000Y-101587520D01*
X163055212Y-101440662D01*
X162640000Y-101358071D01*
X162224788Y-101440662D01*
X162005000Y-101587520D01*
X161785212Y-101440662D01*
X161370000Y-101358071D01*
X160954788Y-101440662D01*
X160735000Y-101587520D01*
X160515212Y-101440662D01*
X160100000Y-101358071D01*
X159684788Y-101440662D01*
X159465000Y-101587520D01*
X159245212Y-101440662D01*
X158830000Y-101358071D01*
X158414788Y-101440662D01*
X158195000Y-101587520D01*
X157975212Y-101440662D01*
X157560000Y-101358071D01*
X157144788Y-101440662D01*
X156925000Y-101587520D01*
X156705212Y-101440662D01*
X156290000Y-101358071D01*
X155874788Y-101440662D01*
X155655000Y-101587520D01*
X155435212Y-101440662D01*
X155020000Y-101358071D01*
X154604788Y-101440662D01*
X154252789Y-101675860D01*
X154067687Y-101952885D01*
X153766922Y-101652120D01*
X153766962Y-101606633D01*
X153624917Y-101262857D01*
X153442379Y-101080000D01*
X154366929Y-101080000D01*
X154782141Y-100997409D01*
X155134140Y-100762211D01*
X155369338Y-100410212D01*
X155451929Y-99995000D01*
X155369338Y-99579788D01*
X155306003Y-99485000D01*
X155776098Y-99485000D01*
X155935278Y-99644180D01*
X155935238Y-99689667D01*
X156077283Y-100033443D01*
X156340073Y-100296692D01*
X156683601Y-100439338D01*
X157055567Y-100439662D01*
X157399343Y-100297617D01*
X157662592Y-100034827D01*
X157805238Y-99691299D01*
X157805562Y-99319333D01*
X157663517Y-98975557D01*
X157400727Y-98712308D01*
X157057199Y-98569662D01*
X157010323Y-98569621D01*
X156628301Y-98187599D01*
X156381739Y-98022852D01*
X156090900Y-97965000D01*
X155306003Y-97965000D01*
X155369338Y-97870212D01*
X155451929Y-97455000D01*
X155369338Y-97039788D01*
X155222480Y-96820000D01*
X155369338Y-96600212D01*
X155451929Y-96185000D01*
X155369338Y-95769788D01*
X155222480Y-95550000D01*
X155369338Y-95330212D01*
X155451929Y-94915000D01*
X155369338Y-94499788D01*
X155222480Y-94280000D01*
X155232001Y-94265750D01*
X160195000Y-94265750D01*
X160195000Y-97106309D01*
X160291673Y-97339698D01*
X160470301Y-97518327D01*
X160703690Y-97615000D01*
X163544250Y-97615000D01*
X163703000Y-97456250D01*
X163703000Y-94107000D01*
X163957000Y-94107000D01*
X163957000Y-97456250D01*
X164115750Y-97615000D01*
X166956310Y-97615000D01*
X167189699Y-97518327D01*
X167368327Y-97339698D01*
X167465000Y-97106309D01*
X167465000Y-94265750D01*
X167306250Y-94107000D01*
X163957000Y-94107000D01*
X163703000Y-94107000D01*
X160353750Y-94107000D01*
X160195000Y-94265750D01*
X155232001Y-94265750D01*
X155369338Y-94060212D01*
X155451929Y-93645000D01*
X155369338Y-93229788D01*
X155222480Y-93010000D01*
X155369338Y-92790212D01*
X155451929Y-92375000D01*
X155369338Y-91959788D01*
X155222480Y-91740000D01*
X155369338Y-91520212D01*
X155451929Y-91105000D01*
X155401941Y-90853691D01*
X160195000Y-90853691D01*
X160195000Y-93694250D01*
X160353750Y-93853000D01*
X163703000Y-93853000D01*
X163703000Y-90503750D01*
X163957000Y-90503750D01*
X163957000Y-93853000D01*
X167306250Y-93853000D01*
X167465000Y-93694250D01*
X167465000Y-90853691D01*
X167368327Y-90620302D01*
X167189699Y-90441673D01*
X166956310Y-90345000D01*
X164115750Y-90345000D01*
X163957000Y-90503750D01*
X163703000Y-90503750D01*
X163544250Y-90345000D01*
X160703690Y-90345000D01*
X160470301Y-90441673D01*
X160291673Y-90620302D01*
X160195000Y-90853691D01*
X155401941Y-90853691D01*
X155369338Y-90689788D01*
X155222480Y-90470000D01*
X155369338Y-90250212D01*
X155451929Y-89835000D01*
X155369338Y-89419788D01*
X155213968Y-89187259D01*
X155374408Y-88859001D01*
X155247502Y-88692000D01*
X153657000Y-88692000D01*
X153657000Y-88712000D01*
X153403000Y-88712000D01*
X153403000Y-88692000D01*
X153383000Y-88692000D01*
X153383000Y-88438000D01*
X153403000Y-88438000D01*
X153403000Y-87480000D01*
X153657000Y-87480000D01*
X153657000Y-88438000D01*
X155247502Y-88438000D01*
X155374408Y-88270999D01*
X155187013Y-87887592D01*
X154862544Y-87611192D01*
X154457000Y-87480000D01*
X153657000Y-87480000D01*
X153403000Y-87480000D01*
X153030000Y-87480000D01*
X154010999Y-86499001D01*
X154017591Y-86532141D01*
X154252789Y-86884140D01*
X154604788Y-87119338D01*
X155020000Y-87201929D01*
X155435212Y-87119338D01*
X155655000Y-86972480D01*
X155874788Y-87119338D01*
X156290000Y-87201929D01*
X156705212Y-87119338D01*
X156925000Y-86972480D01*
X157144788Y-87119338D01*
X157560000Y-87201929D01*
X157975212Y-87119338D01*
X158195000Y-86972480D01*
X158414788Y-87119338D01*
X158830000Y-87201929D01*
X159245212Y-87119338D01*
X159465000Y-86972480D01*
X159684788Y-87119338D01*
X160100000Y-87201929D01*
X160515212Y-87119338D01*
X160735000Y-86972480D01*
X160954788Y-87119338D01*
X161370000Y-87201929D01*
X161785212Y-87119338D01*
X162005000Y-86972480D01*
X162224788Y-87119338D01*
X162640000Y-87201929D01*
X163055212Y-87119338D01*
X163275000Y-86972480D01*
X163494788Y-87119338D01*
X163910000Y-87201929D01*
X164325212Y-87119338D01*
X164545000Y-86972480D01*
X164764788Y-87119338D01*
X165180000Y-87201929D01*
X165595212Y-87119338D01*
X165815000Y-86972480D01*
X166034788Y-87119338D01*
X166450000Y-87201929D01*
X166865212Y-87119338D01*
X167085000Y-86972480D01*
X167304788Y-87119338D01*
X167720000Y-87201929D01*
X168135212Y-87119338D01*
X168355000Y-86972480D01*
X168574788Y-87119338D01*
X168990000Y-87201929D01*
X169405212Y-87119338D01*
X169625000Y-86972480D01*
X169844788Y-87119338D01*
X170260000Y-87201929D01*
X170675212Y-87119338D01*
X170907741Y-86963968D01*
X171235999Y-87124408D01*
X171403000Y-86997502D01*
X171403000Y-85407000D01*
X171383000Y-85407000D01*
X171383000Y-85153000D01*
X171403000Y-85153000D01*
X171403000Y-83562498D01*
X171235999Y-83435592D01*
X171020000Y-83541164D01*
X171020000Y-83207101D01*
X171033392Y-83212662D01*
X171405358Y-83212986D01*
X171749134Y-83070941D01*
X171853770Y-82966487D01*
X171862768Y-83454540D01*
X171824001Y-83435592D01*
X171657000Y-83562498D01*
X171657000Y-85153000D01*
X171677000Y-85153000D01*
X171677000Y-85407000D01*
X171657000Y-85407000D01*
X171657000Y-86997502D01*
X171824001Y-87124408D01*
X171929470Y-87072859D01*
X172197607Y-101618197D01*
X171824001Y-101435592D01*
X171657000Y-101562498D01*
X171657000Y-103153000D01*
X171677000Y-103153000D01*
X171677000Y-103407000D01*
X171657000Y-103407000D01*
X171657000Y-104997502D01*
X171824001Y-105124408D01*
X172207408Y-104937013D01*
X172257700Y-104877975D01*
X172427115Y-114068055D01*
X171240360Y-115643202D01*
X171291577Y-115547410D01*
X171311197Y-115482761D01*
X171343034Y-115423176D01*
X171434034Y-115123026D01*
X171440626Y-115055996D01*
X171460190Y-114991543D01*
X171490990Y-114679393D01*
X171484377Y-114612125D01*
X171490989Y-114544863D01*
X171460189Y-114232733D01*
X171440627Y-114168287D01*
X171434036Y-114101260D01*
X171343036Y-113801100D01*
X171311195Y-113741507D01*
X171291572Y-113676850D01*
X171143672Y-113400240D01*
X171100938Y-113348183D01*
X171069200Y-113288777D01*
X170870300Y-113046317D01*
X170818081Y-113003444D01*
X170775215Y-112951221D01*
X170532714Y-112752241D01*
X170473249Y-112720463D01*
X170421131Y-112677687D01*
X170144531Y-112529827D01*
X170079933Y-112510229D01*
X170020396Y-112478411D01*
X169720196Y-112387371D01*
X169653090Y-112380767D01*
X169588565Y-112361191D01*
X169276465Y-112330441D01*
X169209300Y-112337054D01*
X169142135Y-112330441D01*
X168830035Y-112361191D01*
X168765510Y-112380767D01*
X168698404Y-112387371D01*
X168398204Y-112478411D01*
X168338667Y-112510229D01*
X168274069Y-112529827D01*
X167997469Y-112677687D01*
X167945351Y-112720463D01*
X167885886Y-112752241D01*
X167643386Y-112951221D01*
X167600574Y-113003379D01*
X167548407Y-113046187D01*
X167349407Y-113288647D01*
X167317570Y-113348204D01*
X167274738Y-113400410D01*
X167126938Y-113677020D01*
X167107391Y-113741490D01*
X167075625Y-113800900D01*
X166984525Y-114101060D01*
X166977893Y-114168293D01*
X166958289Y-114232950D01*
X166927589Y-114545079D01*
X166934202Y-114612129D01*
X166927589Y-114679176D01*
X166958289Y-114991326D01*
X166977894Y-115055988D01*
X166984527Y-115123226D01*
X167075627Y-115423376D01*
X167107389Y-115482777D01*
X167126933Y-115547241D01*
X167274733Y-115823861D01*
X167317568Y-115876072D01*
X167349407Y-115935633D01*
X167548407Y-116178093D01*
X167600580Y-116220906D01*
X167643399Y-116273070D01*
X167885899Y-116472040D01*
X167945358Y-116503813D01*
X167997469Y-116546583D01*
X168274069Y-116694443D01*
X168338657Y-116714038D01*
X168398184Y-116745853D01*
X168698384Y-116836903D01*
X168765500Y-116843510D01*
X168830035Y-116863089D01*
X169142135Y-116893839D01*
X169209300Y-116887226D01*
X169276465Y-116893839D01*
X169588565Y-116863089D01*
X169653100Y-116843510D01*
X169720216Y-116836903D01*
X170020416Y-116745853D01*
X170079943Y-116714038D01*
X170144531Y-116694443D01*
X170421131Y-116546583D01*
X170473242Y-116503813D01*
X170532701Y-116472040D01*
X170750585Y-116293267D01*
X169697760Y-117690653D01*
X127445840Y-117525953D01*
X126060802Y-116580447D01*
X126274087Y-116694453D01*
X126338651Y-116714039D01*
X126398154Y-116745844D01*
X126698304Y-116836894D01*
X126765437Y-116843506D01*
X126829991Y-116863090D01*
X127142121Y-116893840D01*
X127209280Y-116887227D01*
X127276435Y-116893840D01*
X127588585Y-116863090D01*
X127653135Y-116843508D01*
X127720270Y-116836896D01*
X128020430Y-116745846D01*
X128079941Y-116714037D01*
X128144512Y-116694448D01*
X128421122Y-116546588D01*
X128473259Y-116503798D01*
X128532744Y-116472005D01*
X128775204Y-116273035D01*
X128818014Y-116220874D01*
X128870174Y-116178067D01*
X129069154Y-115935607D01*
X129100955Y-115876112D01*
X129143753Y-115823963D01*
X129291613Y-115547343D01*
X129311202Y-115482769D01*
X129343010Y-115423256D01*
X129434050Y-115123106D01*
X129440659Y-115055980D01*
X129460240Y-114991435D01*
X129490990Y-114679284D01*
X129484377Y-114612130D01*
X129490990Y-114544971D01*
X129460240Y-114232841D01*
X129440660Y-114168301D01*
X129434052Y-114101180D01*
X129343012Y-113801020D01*
X129311200Y-113741499D01*
X129291608Y-113676918D01*
X129143748Y-113400308D01*
X129100952Y-113348164D01*
X129069154Y-113288673D01*
X128870174Y-113046213D01*
X128818019Y-113003411D01*
X128775217Y-112951256D01*
X128532757Y-112752276D01*
X128473266Y-112720478D01*
X128421122Y-112677682D01*
X128144512Y-112529822D01*
X128079931Y-112510230D01*
X128020410Y-112478418D01*
X127720250Y-112387378D01*
X127653130Y-112380770D01*
X127588589Y-112361190D01*
X127276459Y-112330440D01*
X127209300Y-112337053D01*
X127142146Y-112330440D01*
X126829995Y-112361190D01*
X126765450Y-112380771D01*
X126698324Y-112387380D01*
X126398174Y-112478420D01*
X126338661Y-112510228D01*
X126274087Y-112529817D01*
X125997467Y-112677677D01*
X125945318Y-112720475D01*
X125885823Y-112752276D01*
X125643363Y-112951256D01*
X125600556Y-113003416D01*
X125548395Y-113046226D01*
X125349425Y-113288686D01*
X125317632Y-113348171D01*
X125274842Y-113400308D01*
X125126982Y-113676918D01*
X125107393Y-113741489D01*
X125075584Y-113801000D01*
X124984534Y-114101160D01*
X124977923Y-114168291D01*
X124958340Y-114232841D01*
X124927590Y-114544971D01*
X124934203Y-114612130D01*
X124927590Y-114679285D01*
X124958340Y-114991435D01*
X124977924Y-115055990D01*
X124984536Y-115123126D01*
X125075586Y-115423276D01*
X125107391Y-115482779D01*
X125126977Y-115547343D01*
X125274837Y-115823963D01*
X125317630Y-115876105D01*
X125349425Y-115935594D01*
X125548395Y-116178054D01*
X125600562Y-116220868D01*
X125643376Y-116273035D01*
X125806113Y-116406582D01*
X124091580Y-115236144D01*
X124085305Y-111741690D01*
X130041800Y-111741690D01*
X130041800Y-111982250D01*
X130200550Y-112141000D01*
X130949800Y-112141000D01*
X130949800Y-111391750D01*
X130791050Y-111233000D01*
X130550491Y-111233000D01*
X130317102Y-111329673D01*
X130138473Y-111508301D01*
X130041800Y-111741690D01*
X124085305Y-111741690D01*
X124082818Y-110356650D01*
X130041800Y-110356650D01*
X130041800Y-110597210D01*
X130138473Y-110830599D01*
X130317102Y-111009227D01*
X130550491Y-111105900D01*
X130791050Y-111105900D01*
X130949800Y-110947150D01*
X130949800Y-110197900D01*
X130200550Y-110197900D01*
X130041800Y-110356650D01*
X124082818Y-110356650D01*
X124081360Y-109544590D01*
X130041800Y-109544590D01*
X130041800Y-109785150D01*
X130200550Y-109943900D01*
X130949800Y-109943900D01*
X130949800Y-109194650D01*
X130791050Y-109035900D01*
X130550491Y-109035900D01*
X130317102Y-109132573D01*
X130138473Y-109311201D01*
X130041800Y-109544590D01*
X124081360Y-109544590D01*
X124076477Y-106826050D01*
X125570600Y-106826050D01*
X125570600Y-107041610D01*
X125667273Y-107274999D01*
X125845902Y-107453627D01*
X126079291Y-107550300D01*
X126319850Y-107550300D01*
X126478600Y-107391550D01*
X126478600Y-106667300D01*
X125729350Y-106667300D01*
X125570600Y-106826050D01*
X124076477Y-106826050D01*
X124075064Y-106038990D01*
X125570600Y-106038990D01*
X125570600Y-106254550D01*
X125729350Y-106413300D01*
X126478600Y-106413300D01*
X126478600Y-105689050D01*
X126319850Y-105530300D01*
X126079291Y-105530300D01*
X125845902Y-105626973D01*
X125667273Y-105805601D01*
X125570600Y-106038990D01*
X124075064Y-106038990D01*
X124070091Y-103270050D01*
X125469000Y-103270050D01*
X125469000Y-103485610D01*
X125565673Y-103718999D01*
X125744302Y-103897627D01*
X125977691Y-103994300D01*
X126218250Y-103994300D01*
X126377000Y-103835550D01*
X126377000Y-103111300D01*
X125627750Y-103111300D01*
X125469000Y-103270050D01*
X124070091Y-103270050D01*
X124068678Y-102482990D01*
X125469000Y-102482990D01*
X125469000Y-102698550D01*
X125627750Y-102857300D01*
X126377000Y-102857300D01*
X126377000Y-102133050D01*
X126218250Y-101974300D01*
X125977691Y-101974300D01*
X125744302Y-102070973D01*
X125565673Y-102249601D01*
X125469000Y-102482990D01*
X124068678Y-102482990D01*
X124060399Y-97872890D01*
X126269100Y-97872890D01*
X126269100Y-98088450D01*
X126427850Y-98247200D01*
X127177100Y-98247200D01*
X127177100Y-97522950D01*
X127018350Y-97364200D01*
X126777791Y-97364200D01*
X126544402Y-97460873D01*
X126365773Y-97639501D01*
X126269100Y-97872890D01*
X124060399Y-97872890D01*
X124054254Y-94451772D01*
X124206600Y-94500200D01*
X124481600Y-94500200D01*
X124481600Y-93492200D01*
X124735600Y-93492200D01*
X124735600Y-94500200D01*
X125010600Y-94500200D01*
X125435278Y-94365202D01*
X125775968Y-94077963D01*
X125977719Y-93667074D01*
X125851554Y-93492200D01*
X124735600Y-93492200D01*
X124481600Y-93492200D01*
X124461600Y-93492200D01*
X124461600Y-93238200D01*
X124481600Y-93238200D01*
X124481600Y-92230200D01*
X124735600Y-92230200D01*
X124735600Y-93238200D01*
X125851554Y-93238200D01*
X125977719Y-93063326D01*
X125782791Y-92666331D01*
X126207371Y-92666331D01*
X126349032Y-93076249D01*
X126636779Y-93400752D01*
X127010662Y-93584468D01*
X127181600Y-93457934D01*
X127181600Y-92492200D01*
X127435600Y-92492200D01*
X127435600Y-93457934D01*
X127606538Y-93584468D01*
X127980421Y-93400752D01*
X128268168Y-93076249D01*
X128409829Y-92666331D01*
X128261163Y-92492200D01*
X127435600Y-92492200D01*
X127181600Y-92492200D01*
X126356037Y-92492200D01*
X126207371Y-92666331D01*
X125782791Y-92666331D01*
X125775968Y-92652437D01*
X125435278Y-92365198D01*
X125010600Y-92230200D01*
X124735600Y-92230200D01*
X124481600Y-92230200D01*
X124206600Y-92230200D01*
X124050353Y-92279868D01*
X124041675Y-87447773D01*
X124206600Y-87500200D01*
X124481600Y-87500200D01*
X124481600Y-86492200D01*
X124735600Y-86492200D01*
X124735600Y-87500200D01*
X125010600Y-87500200D01*
X125435278Y-87365202D01*
X125775968Y-87077963D01*
X125782790Y-87064069D01*
X126207371Y-87064069D01*
X126356037Y-87238200D01*
X127181600Y-87238200D01*
X127181600Y-86272466D01*
X127010662Y-86145932D01*
X126636779Y-86329648D01*
X126349032Y-86654151D01*
X126207371Y-87064069D01*
X125782790Y-87064069D01*
X125977719Y-86667074D01*
X125851554Y-86492200D01*
X124735600Y-86492200D01*
X124481600Y-86492200D01*
X124461600Y-86492200D01*
X124461600Y-86238200D01*
X124481600Y-86238200D01*
X124481600Y-85230200D01*
X124735600Y-85230200D01*
X124735600Y-86238200D01*
X125851554Y-86238200D01*
X125977719Y-86063326D01*
X125775968Y-85652437D01*
X125435278Y-85365198D01*
X125010600Y-85230200D01*
X124735600Y-85230200D01*
X124481600Y-85230200D01*
X124206600Y-85230200D01*
X124037789Y-85283862D01*
X124031477Y-81768950D01*
X126028700Y-81768950D01*
X126028700Y-82009510D01*
X126125373Y-82242899D01*
X126304002Y-82421527D01*
X126537391Y-82518200D01*
X126777950Y-82518200D01*
X126936700Y-82359450D01*
X126936700Y-81610200D01*
X126187450Y-81610200D01*
X126028700Y-81768950D01*
X124031477Y-81768950D01*
X124030019Y-80956890D01*
X126028700Y-80956890D01*
X126028700Y-81197450D01*
X126187450Y-81356200D01*
X126936700Y-81356200D01*
X126936700Y-80606950D01*
X126777950Y-80448200D01*
X126537391Y-80448200D01*
X126304002Y-80544873D01*
X126125373Y-80723501D01*
X126028700Y-80956890D01*
X124030019Y-80956890D01*
X124015555Y-72903101D01*
X124198826Y-72544965D01*
X124927591Y-72544965D01*
X124934204Y-72612130D01*
X124927591Y-72679295D01*
X124958341Y-72991395D01*
X124977920Y-73055930D01*
X124984527Y-73123046D01*
X125075577Y-73423246D01*
X125107392Y-73482773D01*
X125126987Y-73547361D01*
X125274847Y-73823961D01*
X125317617Y-73876072D01*
X125349390Y-73935531D01*
X125548360Y-74178031D01*
X125600525Y-74220851D01*
X125643337Y-74273023D01*
X125885797Y-74472022D01*
X125945355Y-74503860D01*
X125997569Y-74546697D01*
X126274190Y-74694498D01*
X126338655Y-74714042D01*
X126398054Y-74745803D01*
X126698204Y-74836904D01*
X126765441Y-74843536D01*
X126830099Y-74863141D01*
X127142229Y-74893840D01*
X127209275Y-74887227D01*
X127276326Y-74893841D01*
X127588476Y-74863141D01*
X127653134Y-74843537D01*
X127720370Y-74836905D01*
X128020530Y-74745805D01*
X128079940Y-74714039D01*
X128144410Y-74694492D01*
X128421020Y-74546692D01*
X128473226Y-74503860D01*
X128532783Y-74472023D01*
X128775243Y-74273023D01*
X128818051Y-74220856D01*
X128870209Y-74178044D01*
X129069189Y-73935544D01*
X129100967Y-73876079D01*
X129143743Y-73823961D01*
X129291603Y-73547361D01*
X129311201Y-73482763D01*
X129343019Y-73423226D01*
X129361510Y-73362250D01*
X137750200Y-73362250D01*
X137750200Y-73602809D01*
X137846873Y-73836198D01*
X138025501Y-74014827D01*
X138258890Y-74111500D01*
X138474450Y-74111500D01*
X138633200Y-73952750D01*
X138633200Y-73203500D01*
X138887200Y-73203500D01*
X138887200Y-73952750D01*
X139045950Y-74111500D01*
X139261510Y-74111500D01*
X139494899Y-74014827D01*
X139673527Y-73836198D01*
X139770200Y-73602809D01*
X139770200Y-73362250D01*
X139611450Y-73203500D01*
X138887200Y-73203500D01*
X138633200Y-73203500D01*
X137908950Y-73203500D01*
X137750200Y-73362250D01*
X129361510Y-73362250D01*
X129434059Y-73123026D01*
X129440663Y-73055920D01*
X129460239Y-72991395D01*
X129490989Y-72679295D01*
X129484376Y-72612130D01*
X129490989Y-72544965D01*
X129460239Y-72232865D01*
X129440663Y-72168340D01*
X129434059Y-72101234D01*
X129343019Y-71801034D01*
X129311201Y-71741497D01*
X129291603Y-71676899D01*
X129143743Y-71400299D01*
X129100967Y-71348181D01*
X129069189Y-71288716D01*
X128870209Y-71046216D01*
X128817988Y-71003352D01*
X128775113Y-70951130D01*
X128532653Y-70752230D01*
X128473247Y-70720492D01*
X128421190Y-70677758D01*
X128144580Y-70529858D01*
X128079923Y-70510235D01*
X128020330Y-70478394D01*
X127720170Y-70387394D01*
X127653143Y-70380803D01*
X127588697Y-70361241D01*
X127276567Y-70330441D01*
X127209305Y-70337053D01*
X127142037Y-70330440D01*
X126829887Y-70361240D01*
X126765434Y-70380804D01*
X126698404Y-70387396D01*
X126398254Y-70478396D01*
X126338669Y-70510233D01*
X126274020Y-70529853D01*
X125997399Y-70677753D01*
X125945337Y-70720490D01*
X125885927Y-70752230D01*
X125643467Y-70951130D01*
X125600588Y-71003357D01*
X125548360Y-71046229D01*
X125349390Y-71288729D01*
X125317617Y-71348188D01*
X125274847Y-71400299D01*
X125126987Y-71676899D01*
X125107392Y-71741487D01*
X125075577Y-71801014D01*
X124984527Y-72101214D01*
X124977920Y-72168330D01*
X124958341Y-72232865D01*
X124927591Y-72544965D01*
X124198826Y-72544965D01*
X125350304Y-70294831D01*
X139609947Y-70355476D01*
G36*
X132537900Y-103734300D02*
X133958900Y-103734300D01*
X133958900Y-103714300D01*
X134212900Y-103714300D01*
X134212900Y-103734300D01*
X134232900Y-103734300D01*
X134232900Y-103988300D01*
X134212900Y-103988300D01*
X134212900Y-105409300D01*
X134232900Y-105409300D01*
X134232900Y-105663300D01*
X134212900Y-105663300D01*
X134212900Y-105683300D01*
X133958900Y-105683300D01*
X133958900Y-105663300D01*
X132537900Y-105663300D01*
X132537900Y-105683300D01*
X132283900Y-105683300D01*
X132283900Y-105663300D01*
X132263900Y-105663300D01*
X132263900Y-105409300D01*
X132283900Y-105409300D01*
X132283900Y-103988300D01*
X132537900Y-103988300D01*
X132537900Y-105409300D01*
X133958900Y-105409300D01*
X133958900Y-103988300D01*
X132537900Y-103988300D01*
X132283900Y-103988300D01*
X132263900Y-103988300D01*
X132263900Y-103734300D01*
X132283900Y-103734300D01*
X132283900Y-103714300D01*
X132537900Y-103714300D01*
X132537900Y-103734300D01*
X132537900Y-103734300D01*
G37*
X132537900Y-103734300D02*
X133958900Y-103734300D01*
X133958900Y-103714300D01*
X134212900Y-103714300D01*
X134212900Y-103734300D01*
X134232900Y-103734300D01*
X134232900Y-103988300D01*
X134212900Y-103988300D01*
X134212900Y-105409300D01*
X134232900Y-105409300D01*
X134232900Y-105663300D01*
X134212900Y-105663300D01*
X134212900Y-105683300D01*
X133958900Y-105683300D01*
X133958900Y-105663300D01*
X132537900Y-105663300D01*
X132537900Y-105683300D01*
X132283900Y-105683300D01*
X132283900Y-105663300D01*
X132263900Y-105663300D01*
X132263900Y-105409300D01*
X132283900Y-105409300D01*
X132283900Y-103988300D01*
X132537900Y-103988300D01*
X132537900Y-105409300D01*
X133958900Y-105409300D01*
X133958900Y-103988300D01*
X132537900Y-103988300D01*
X132283900Y-103988300D01*
X132263900Y-103988300D01*
X132263900Y-103734300D01*
X132283900Y-103734300D01*
X132283900Y-103714300D01*
X132537900Y-103714300D01*
X132537900Y-103734300D01*
G36*
X142541760Y-85353400D02*
X142566624Y-85478400D01*
X142541760Y-85603400D01*
X142541760Y-85953400D01*
X142566624Y-86078400D01*
X142541760Y-86203400D01*
X142541760Y-86553400D01*
X142566624Y-86678400D01*
X142541760Y-86803400D01*
X142541760Y-87153400D01*
X142566624Y-87278400D01*
X142541760Y-87403400D01*
X142541760Y-87753400D01*
X142566624Y-87878400D01*
X142541760Y-88003400D01*
X142541760Y-88353400D01*
X142566624Y-88478400D01*
X142541760Y-88603400D01*
X142541760Y-88953400D01*
X142566624Y-89078400D01*
X142541760Y-89203400D01*
X142541760Y-89553400D01*
X142566624Y-89678400D01*
X142541760Y-89803400D01*
X142541760Y-90153400D01*
X142566624Y-90278400D01*
X142541760Y-90403400D01*
X142541760Y-90753400D01*
X142566624Y-90878400D01*
X142541760Y-91003400D01*
X142541760Y-91353400D01*
X142566624Y-91478400D01*
X142541760Y-91603400D01*
X142541760Y-91953400D01*
X142566624Y-92078400D01*
X142541760Y-92203400D01*
X142541760Y-92553400D01*
X142566624Y-92678400D01*
X142541760Y-92803400D01*
X142541760Y-93153400D01*
X142566624Y-93278400D01*
X142541760Y-93403400D01*
X142541760Y-93753400D01*
X142566624Y-93878400D01*
X142541760Y-94003400D01*
X142541760Y-94353400D01*
X142566624Y-94478400D01*
X142541760Y-94603400D01*
X142541760Y-94953400D01*
X142566624Y-95078400D01*
X142541760Y-95203400D01*
X142541760Y-95553400D01*
X142566624Y-95678400D01*
X142541760Y-95803400D01*
X142541760Y-96153400D01*
X142562417Y-96257253D01*
X142554200Y-96277091D01*
X142554200Y-96332150D01*
X142583055Y-96361005D01*
X142591043Y-96401165D01*
X142709469Y-96578400D01*
X142591043Y-96755635D01*
X142583055Y-96795795D01*
X142554200Y-96824650D01*
X142554200Y-96879709D01*
X142562417Y-96899547D01*
X142541760Y-97003400D01*
X142541760Y-97353400D01*
X142566624Y-97478400D01*
X142541760Y-97603400D01*
X142541760Y-97953400D01*
X142566624Y-98078400D01*
X142541760Y-98203400D01*
X142541760Y-98553400D01*
X142566624Y-98678400D01*
X142541760Y-98803400D01*
X142541760Y-99153400D01*
X142566624Y-99278400D01*
X142541760Y-99403400D01*
X142541760Y-99753400D01*
X142566624Y-99878400D01*
X142541760Y-100003400D01*
X142541760Y-100353400D01*
X142566624Y-100478400D01*
X142541760Y-100603400D01*
X142541760Y-100953400D01*
X142566624Y-101078400D01*
X142541760Y-101203400D01*
X142541760Y-101553400D01*
X142566624Y-101678400D01*
X142541760Y-101803400D01*
X142541760Y-102153400D01*
X142566624Y-102278400D01*
X142541760Y-102403400D01*
X142541760Y-102438800D01*
X141758302Y-102438800D01*
X141787119Y-102369231D01*
X141824200Y-102332150D01*
X141824200Y-102224650D01*
X141787119Y-102187569D01*
X141727527Y-102043702D01*
X141662225Y-101978400D01*
X141727527Y-101913098D01*
X141787119Y-101769231D01*
X141824200Y-101732150D01*
X141824200Y-101624650D01*
X141787119Y-101587569D01*
X141727527Y-101443702D01*
X141662225Y-101378400D01*
X141727527Y-101313098D01*
X141787119Y-101169231D01*
X141824200Y-101132150D01*
X141824200Y-101024650D01*
X141787119Y-100987569D01*
X141727527Y-100843702D01*
X141662225Y-100778400D01*
X141727527Y-100713098D01*
X141787119Y-100569231D01*
X141824200Y-100532150D01*
X141824200Y-100424650D01*
X141787119Y-100387569D01*
X141727527Y-100243702D01*
X141666245Y-100182420D01*
X141787357Y-100001165D01*
X141795345Y-99961005D01*
X141824200Y-99932150D01*
X141824200Y-99877091D01*
X141815983Y-99857253D01*
X141836640Y-99753400D01*
X141836640Y-99403400D01*
X141811776Y-99278400D01*
X141836640Y-99153400D01*
X141836640Y-98803400D01*
X141811776Y-98678400D01*
X141836640Y-98553400D01*
X141836640Y-98203400D01*
X141811776Y-98078400D01*
X141836640Y-97953400D01*
X141836640Y-97603400D01*
X141811776Y-97478400D01*
X141836640Y-97353400D01*
X141836640Y-97003400D01*
X141811776Y-96878400D01*
X141836640Y-96753400D01*
X141836640Y-96403400D01*
X141811776Y-96278400D01*
X141836640Y-96153400D01*
X141836640Y-95803400D01*
X141811776Y-95678400D01*
X141836640Y-95553400D01*
X141836640Y-95203400D01*
X141811776Y-95078400D01*
X141836640Y-94953400D01*
X141836640Y-94603400D01*
X141815983Y-94499547D01*
X141824200Y-94479709D01*
X141824200Y-94424650D01*
X141795345Y-94395795D01*
X141787357Y-94355635D01*
X141666245Y-94174380D01*
X141727527Y-94113098D01*
X141787119Y-93969231D01*
X141824200Y-93932150D01*
X141824200Y-93824650D01*
X141787119Y-93787569D01*
X141727527Y-93643702D01*
X141662225Y-93578400D01*
X141727527Y-93513098D01*
X141787119Y-93369231D01*
X141824200Y-93332150D01*
X141824200Y-93224650D01*
X141787119Y-93187569D01*
X141727527Y-93043702D01*
X141662225Y-92978400D01*
X141727527Y-92913098D01*
X141787119Y-92769231D01*
X141824200Y-92732150D01*
X141824200Y-92624650D01*
X141787119Y-92587569D01*
X141727527Y-92443702D01*
X141662225Y-92378400D01*
X141727527Y-92313098D01*
X141787119Y-92169231D01*
X141824200Y-92132150D01*
X141824200Y-92024650D01*
X141787119Y-91987569D01*
X141727527Y-91843702D01*
X141662225Y-91778400D01*
X141727527Y-91713098D01*
X141787119Y-91569231D01*
X141824200Y-91532150D01*
X141824200Y-91424650D01*
X141787119Y-91387569D01*
X141727527Y-91243702D01*
X141666245Y-91182420D01*
X141787357Y-91001165D01*
X141795345Y-90961005D01*
X141824200Y-90932150D01*
X141824200Y-90877091D01*
X141815983Y-90857253D01*
X141836640Y-90753400D01*
X141836640Y-90403400D01*
X141811776Y-90278400D01*
X141836640Y-90153400D01*
X141836640Y-89803400D01*
X141811776Y-89678400D01*
X141836640Y-89553400D01*
X141836640Y-89203400D01*
X141811776Y-89078400D01*
X141836640Y-88953400D01*
X141836640Y-88603400D01*
X141811776Y-88478400D01*
X141836640Y-88353400D01*
X141836640Y-88003400D01*
X141811776Y-87878400D01*
X141836640Y-87753400D01*
X141836640Y-87403400D01*
X141811776Y-87278400D01*
X141836640Y-87153400D01*
X141836640Y-86803400D01*
X141811776Y-86678400D01*
X141836640Y-86553400D01*
X141836640Y-86203400D01*
X141811776Y-86078400D01*
X141836640Y-85953400D01*
X141836640Y-85809320D01*
X141976601Y-85715801D01*
X142541760Y-85150642D01*
X142541760Y-85353400D01*
X142541760Y-85353400D01*
G37*
X142541760Y-85353400D02*
X142566624Y-85478400D01*
X142541760Y-85603400D01*
X142541760Y-85953400D01*
X142566624Y-86078400D01*
X142541760Y-86203400D01*
X142541760Y-86553400D01*
X142566624Y-86678400D01*
X142541760Y-86803400D01*
X142541760Y-87153400D01*
X142566624Y-87278400D01*
X142541760Y-87403400D01*
X142541760Y-87753400D01*
X142566624Y-87878400D01*
X142541760Y-88003400D01*
X142541760Y-88353400D01*
X142566624Y-88478400D01*
X142541760Y-88603400D01*
X142541760Y-88953400D01*
X142566624Y-89078400D01*
X142541760Y-89203400D01*
X142541760Y-89553400D01*
X142566624Y-89678400D01*
X142541760Y-89803400D01*
X142541760Y-90153400D01*
X142566624Y-90278400D01*
X142541760Y-90403400D01*
X142541760Y-90753400D01*
X142566624Y-90878400D01*
X142541760Y-91003400D01*
X142541760Y-91353400D01*
X142566624Y-91478400D01*
X142541760Y-91603400D01*
X142541760Y-91953400D01*
X142566624Y-92078400D01*
X142541760Y-92203400D01*
X142541760Y-92553400D01*
X142566624Y-92678400D01*
X142541760Y-92803400D01*
X142541760Y-93153400D01*
X142566624Y-93278400D01*
X142541760Y-93403400D01*
X142541760Y-93753400D01*
X142566624Y-93878400D01*
X142541760Y-94003400D01*
X142541760Y-94353400D01*
X142566624Y-94478400D01*
X142541760Y-94603400D01*
X142541760Y-94953400D01*
X142566624Y-95078400D01*
X142541760Y-95203400D01*
X142541760Y-95553400D01*
X142566624Y-95678400D01*
X142541760Y-95803400D01*
X142541760Y-96153400D01*
X142562417Y-96257253D01*
X142554200Y-96277091D01*
X142554200Y-96332150D01*
X142583055Y-96361005D01*
X142591043Y-96401165D01*
X142709469Y-96578400D01*
X142591043Y-96755635D01*
X142583055Y-96795795D01*
X142554200Y-96824650D01*
X142554200Y-96879709D01*
X142562417Y-96899547D01*
X142541760Y-97003400D01*
X142541760Y-97353400D01*
X142566624Y-97478400D01*
X142541760Y-97603400D01*
X142541760Y-97953400D01*
X142566624Y-98078400D01*
X142541760Y-98203400D01*
X142541760Y-98553400D01*
X142566624Y-98678400D01*
X142541760Y-98803400D01*
X142541760Y-99153400D01*
X142566624Y-99278400D01*
X142541760Y-99403400D01*
X142541760Y-99753400D01*
X142566624Y-99878400D01*
X142541760Y-100003400D01*
X142541760Y-100353400D01*
X142566624Y-100478400D01*
X142541760Y-100603400D01*
X142541760Y-100953400D01*
X142566624Y-101078400D01*
X142541760Y-101203400D01*
X142541760Y-101553400D01*
X142566624Y-101678400D01*
X142541760Y-101803400D01*
X142541760Y-102153400D01*
X142566624Y-102278400D01*
X142541760Y-102403400D01*
X142541760Y-102438800D01*
X141758302Y-102438800D01*
X141787119Y-102369231D01*
X141824200Y-102332150D01*
X141824200Y-102224650D01*
X141787119Y-102187569D01*
X141727527Y-102043702D01*
X141662225Y-101978400D01*
X141727527Y-101913098D01*
X141787119Y-101769231D01*
X141824200Y-101732150D01*
X141824200Y-101624650D01*
X141787119Y-101587569D01*
X141727527Y-101443702D01*
X141662225Y-101378400D01*
X141727527Y-101313098D01*
X141787119Y-101169231D01*
X141824200Y-101132150D01*
X141824200Y-101024650D01*
X141787119Y-100987569D01*
X141727527Y-100843702D01*
X141662225Y-100778400D01*
X141727527Y-100713098D01*
X141787119Y-100569231D01*
X141824200Y-100532150D01*
X141824200Y-100424650D01*
X141787119Y-100387569D01*
X141727527Y-100243702D01*
X141666245Y-100182420D01*
X141787357Y-100001165D01*
X141795345Y-99961005D01*
X141824200Y-99932150D01*
X141824200Y-99877091D01*
X141815983Y-99857253D01*
X141836640Y-99753400D01*
X141836640Y-99403400D01*
X141811776Y-99278400D01*
X141836640Y-99153400D01*
X141836640Y-98803400D01*
X141811776Y-98678400D01*
X141836640Y-98553400D01*
X141836640Y-98203400D01*
X141811776Y-98078400D01*
X141836640Y-97953400D01*
X141836640Y-97603400D01*
X141811776Y-97478400D01*
X141836640Y-97353400D01*
X141836640Y-97003400D01*
X141811776Y-96878400D01*
X141836640Y-96753400D01*
X141836640Y-96403400D01*
X141811776Y-96278400D01*
X141836640Y-96153400D01*
X141836640Y-95803400D01*
X141811776Y-95678400D01*
X141836640Y-95553400D01*
X141836640Y-95203400D01*
X141811776Y-95078400D01*
X141836640Y-94953400D01*
X141836640Y-94603400D01*
X141815983Y-94499547D01*
X141824200Y-94479709D01*
X141824200Y-94424650D01*
X141795345Y-94395795D01*
X141787357Y-94355635D01*
X141666245Y-94174380D01*
X141727527Y-94113098D01*
X141787119Y-93969231D01*
X141824200Y-93932150D01*
X141824200Y-93824650D01*
X141787119Y-93787569D01*
X141727527Y-93643702D01*
X141662225Y-93578400D01*
X141727527Y-93513098D01*
X141787119Y-93369231D01*
X141824200Y-93332150D01*
X141824200Y-93224650D01*
X141787119Y-93187569D01*
X141727527Y-93043702D01*
X141662225Y-92978400D01*
X141727527Y-92913098D01*
X141787119Y-92769231D01*
X141824200Y-92732150D01*
X141824200Y-92624650D01*
X141787119Y-92587569D01*
X141727527Y-92443702D01*
X141662225Y-92378400D01*
X141727527Y-92313098D01*
X141787119Y-92169231D01*
X141824200Y-92132150D01*
X141824200Y-92024650D01*
X141787119Y-91987569D01*
X141727527Y-91843702D01*
X141662225Y-91778400D01*
X141727527Y-91713098D01*
X141787119Y-91569231D01*
X141824200Y-91532150D01*
X141824200Y-91424650D01*
X141787119Y-91387569D01*
X141727527Y-91243702D01*
X141666245Y-91182420D01*
X141787357Y-91001165D01*
X141795345Y-90961005D01*
X141824200Y-90932150D01*
X141824200Y-90877091D01*
X141815983Y-90857253D01*
X141836640Y-90753400D01*
X141836640Y-90403400D01*
X141811776Y-90278400D01*
X141836640Y-90153400D01*
X141836640Y-89803400D01*
X141811776Y-89678400D01*
X141836640Y-89553400D01*
X141836640Y-89203400D01*
X141811776Y-89078400D01*
X141836640Y-88953400D01*
X141836640Y-88603400D01*
X141811776Y-88478400D01*
X141836640Y-88353400D01*
X141836640Y-88003400D01*
X141811776Y-87878400D01*
X141836640Y-87753400D01*
X141836640Y-87403400D01*
X141811776Y-87278400D01*
X141836640Y-87153400D01*
X141836640Y-86803400D01*
X141811776Y-86678400D01*
X141836640Y-86553400D01*
X141836640Y-86203400D01*
X141811776Y-86078400D01*
X141836640Y-85953400D01*
X141836640Y-85809320D01*
X141976601Y-85715801D01*
X142541760Y-85150642D01*
X142541760Y-85353400D01*
G36*
X140066200Y-102125400D02*
X139812200Y-102125400D01*
X139812200Y-100631400D01*
X140066200Y-100631400D01*
X140066200Y-102125400D01*
X140066200Y-102125400D01*
G37*
X140066200Y-102125400D02*
X139812200Y-102125400D01*
X139812200Y-100631400D01*
X140066200Y-100631400D01*
X140066200Y-102125400D01*
G36*
X134886397Y-93858672D02*
X134865679Y-93962825D01*
X134865679Y-97211161D01*
X134923531Y-97502000D01*
X134938400Y-97524253D01*
X134938400Y-101205827D01*
X134748400Y-101168033D01*
X134498400Y-101217762D01*
X134248400Y-101168033D01*
X134039700Y-101209546D01*
X134083487Y-100989415D01*
X134083487Y-100538554D01*
X134115679Y-100506418D01*
X134258325Y-100162890D01*
X134258649Y-99790924D01*
X134164060Y-99562000D01*
X134321509Y-99562000D01*
X134554898Y-99465327D01*
X134733527Y-99286699D01*
X134830200Y-99053310D01*
X134830200Y-98837750D01*
X134671450Y-98679000D01*
X133922200Y-98679000D01*
X133922200Y-98699000D01*
X133668200Y-98699000D01*
X133668200Y-98679000D01*
X133648200Y-98679000D01*
X133648200Y-98425000D01*
X133668200Y-98425000D01*
X133668200Y-97700750D01*
X133922200Y-97700750D01*
X133922200Y-98425000D01*
X134671450Y-98425000D01*
X134830200Y-98266250D01*
X134830200Y-98050690D01*
X134733527Y-97817301D01*
X134554898Y-97638673D01*
X134321509Y-97542000D01*
X134080950Y-97542000D01*
X133922200Y-97700750D01*
X133668200Y-97700750D01*
X133509450Y-97542000D01*
X133268891Y-97542000D01*
X133055200Y-97630514D01*
X133055200Y-95644774D01*
X134841342Y-93858632D01*
X134886397Y-93858672D01*
X134886397Y-93858672D01*
G37*
X134886397Y-93858672D02*
X134865679Y-93962825D01*
X134865679Y-97211161D01*
X134923531Y-97502000D01*
X134938400Y-97524253D01*
X134938400Y-101205827D01*
X134748400Y-101168033D01*
X134498400Y-101217762D01*
X134248400Y-101168033D01*
X134039700Y-101209546D01*
X134083487Y-100989415D01*
X134083487Y-100538554D01*
X134115679Y-100506418D01*
X134258325Y-100162890D01*
X134258649Y-99790924D01*
X134164060Y-99562000D01*
X134321509Y-99562000D01*
X134554898Y-99465327D01*
X134733527Y-99286699D01*
X134830200Y-99053310D01*
X134830200Y-98837750D01*
X134671450Y-98679000D01*
X133922200Y-98679000D01*
X133922200Y-98699000D01*
X133668200Y-98699000D01*
X133668200Y-98679000D01*
X133648200Y-98679000D01*
X133648200Y-98425000D01*
X133668200Y-98425000D01*
X133668200Y-97700750D01*
X133922200Y-97700750D01*
X133922200Y-98425000D01*
X134671450Y-98425000D01*
X134830200Y-98266250D01*
X134830200Y-98050690D01*
X134733527Y-97817301D01*
X134554898Y-97638673D01*
X134321509Y-97542000D01*
X134080950Y-97542000D01*
X133922200Y-97700750D01*
X133668200Y-97700750D01*
X133509450Y-97542000D01*
X133268891Y-97542000D01*
X133055200Y-97630514D01*
X133055200Y-95644774D01*
X134841342Y-93858632D01*
X134886397Y-93858672D01*
G36*
X135407100Y-78497400D02*
X137925537Y-78497400D01*
X137990891Y-78595209D01*
X138063700Y-78643859D01*
X138063700Y-82783396D01*
X136160240Y-84686856D01*
X136160240Y-83957500D01*
X136110957Y-83709735D01*
X135970609Y-83499691D01*
X135760565Y-83359343D01*
X135512800Y-83310060D01*
X134712800Y-83310060D01*
X134465035Y-83359343D01*
X134254991Y-83499691D01*
X134162800Y-83637664D01*
X134070609Y-83499691D01*
X133860565Y-83359343D01*
X133612800Y-83310060D01*
X132812800Y-83310060D01*
X132565035Y-83359343D01*
X132354991Y-83499691D01*
X132214643Y-83709735D01*
X132165360Y-83957500D01*
X132165360Y-84430138D01*
X130511359Y-86084139D01*
X130346612Y-86330701D01*
X130288760Y-86621540D01*
X130288760Y-87255497D01*
X130256568Y-87287633D01*
X130113922Y-87631161D01*
X130113598Y-88003127D01*
X130255643Y-88346903D01*
X130518433Y-88610152D01*
X130861961Y-88752798D01*
X131233927Y-88753122D01*
X131577703Y-88611077D01*
X131840952Y-88348287D01*
X131905317Y-88193281D01*
X132108473Y-88396792D01*
X132452001Y-88539438D01*
X132823967Y-88539762D01*
X133167743Y-88397717D01*
X133430992Y-88134927D01*
X133573638Y-87791399D01*
X133573679Y-87744523D01*
X133813262Y-87504940D01*
X134562800Y-87504940D01*
X134732569Y-87471171D01*
X135335878Y-88074480D01*
X135335838Y-88119967D01*
X135477883Y-88463743D01*
X135740673Y-88726992D01*
X136084201Y-88869638D01*
X136456167Y-88869962D01*
X136799943Y-88727917D01*
X137057153Y-88471155D01*
X137901799Y-89315801D01*
X138041760Y-89409320D01*
X138041760Y-89553400D01*
X138066624Y-89678400D01*
X138041760Y-89803400D01*
X138041760Y-90153400D01*
X138066624Y-90278400D01*
X138041760Y-90403400D01*
X138041760Y-90753400D01*
X138062417Y-90857253D01*
X138054200Y-90877091D01*
X138054200Y-90932150D01*
X138083055Y-90961005D01*
X138091043Y-91001165D01*
X138212155Y-91182420D01*
X138150873Y-91243702D01*
X138091281Y-91387569D01*
X138054200Y-91424650D01*
X138054200Y-91532150D01*
X138091281Y-91569231D01*
X138150873Y-91713098D01*
X138216175Y-91778400D01*
X138150873Y-91843702D01*
X138091281Y-91987569D01*
X138054200Y-92024650D01*
X138054200Y-92132150D01*
X138091281Y-92169231D01*
X138150873Y-92313098D01*
X138216175Y-92378400D01*
X138150873Y-92443702D01*
X138091281Y-92587569D01*
X138054200Y-92624650D01*
X138054200Y-92732150D01*
X138091281Y-92769231D01*
X138150873Y-92913098D01*
X138216175Y-92978400D01*
X138150873Y-93043702D01*
X138091281Y-93187569D01*
X138054200Y-93224650D01*
X138054200Y-93332150D01*
X138091281Y-93369231D01*
X138150873Y-93513098D01*
X138216175Y-93578400D01*
X138150873Y-93643702D01*
X138091281Y-93787569D01*
X138054200Y-93824650D01*
X138054200Y-93932150D01*
X138091281Y-93969231D01*
X138150873Y-94113098D01*
X138212155Y-94174380D01*
X138091043Y-94355635D01*
X138083055Y-94395795D01*
X138054200Y-94424650D01*
X138054200Y-94479709D01*
X138062417Y-94499547D01*
X138041760Y-94603400D01*
X138041760Y-94655100D01*
X137468463Y-94655100D01*
X137436327Y-94622908D01*
X137092799Y-94480262D01*
X136720833Y-94479938D01*
X136385679Y-94618420D01*
X136385679Y-94277627D01*
X136607903Y-94055403D01*
X136772650Y-93808841D01*
X136830502Y-93518002D01*
X136830502Y-92862602D01*
X136772650Y-92571763D01*
X136607903Y-92325201D01*
X135462470Y-91179768D01*
X135524865Y-91167357D01*
X135734909Y-91027009D01*
X135875257Y-90816965D01*
X135924540Y-90569200D01*
X135924540Y-89669200D01*
X135875257Y-89421435D01*
X135734909Y-89211391D01*
X135524865Y-89071043D01*
X135277100Y-89021760D01*
X135204462Y-89021760D01*
X135069280Y-88886578D01*
X135069410Y-88737081D01*
X134927365Y-88393305D01*
X134664575Y-88130056D01*
X134321047Y-87987410D01*
X133949081Y-87987086D01*
X133605305Y-88129131D01*
X133342056Y-88391921D01*
X133199410Y-88735449D01*
X133199147Y-89037266D01*
X133029335Y-89071043D01*
X132819291Y-89211391D01*
X132678943Y-89421435D01*
X132629660Y-89669200D01*
X132629660Y-90569200D01*
X132678943Y-90816965D01*
X132819291Y-91027009D01*
X133029335Y-91167357D01*
X133277100Y-91216640D01*
X133349738Y-91216640D01*
X133655852Y-91522754D01*
X133649102Y-91525543D01*
X133385853Y-91788333D01*
X133243207Y-92131861D01*
X133243166Y-92178737D01*
X132411860Y-93010043D01*
X132411923Y-92937572D01*
X132269878Y-92593796D01*
X132007088Y-92330547D01*
X131663560Y-92187901D01*
X131631075Y-92187873D01*
X130958911Y-91515709D01*
X131215942Y-91259127D01*
X131358588Y-90915599D01*
X131358912Y-90543633D01*
X131216867Y-90199857D01*
X130954077Y-89936608D01*
X130610549Y-89793962D01*
X130563673Y-89793921D01*
X129447551Y-88677799D01*
X129200989Y-88513052D01*
X128910150Y-88455200D01*
X128902900Y-88455200D01*
X128935748Y-88406039D01*
X128993600Y-88115200D01*
X128993600Y-86794902D01*
X134154101Y-81634401D01*
X134247620Y-81494440D01*
X134516700Y-81494440D01*
X134764465Y-81445157D01*
X134974509Y-81304809D01*
X135114857Y-81094765D01*
X135164140Y-80847000D01*
X135164140Y-78449072D01*
X135407100Y-78497400D01*
X135407100Y-78497400D01*
G37*
X135407100Y-78497400D02*
X137925537Y-78497400D01*
X137990891Y-78595209D01*
X138063700Y-78643859D01*
X138063700Y-82783396D01*
X136160240Y-84686856D01*
X136160240Y-83957500D01*
X136110957Y-83709735D01*
X135970609Y-83499691D01*
X135760565Y-83359343D01*
X135512800Y-83310060D01*
X134712800Y-83310060D01*
X134465035Y-83359343D01*
X134254991Y-83499691D01*
X134162800Y-83637664D01*
X134070609Y-83499691D01*
X133860565Y-83359343D01*
X133612800Y-83310060D01*
X132812800Y-83310060D01*
X132565035Y-83359343D01*
X132354991Y-83499691D01*
X132214643Y-83709735D01*
X132165360Y-83957500D01*
X132165360Y-84430138D01*
X130511359Y-86084139D01*
X130346612Y-86330701D01*
X130288760Y-86621540D01*
X130288760Y-87255497D01*
X130256568Y-87287633D01*
X130113922Y-87631161D01*
X130113598Y-88003127D01*
X130255643Y-88346903D01*
X130518433Y-88610152D01*
X130861961Y-88752798D01*
X131233927Y-88753122D01*
X131577703Y-88611077D01*
X131840952Y-88348287D01*
X131905317Y-88193281D01*
X132108473Y-88396792D01*
X132452001Y-88539438D01*
X132823967Y-88539762D01*
X133167743Y-88397717D01*
X133430992Y-88134927D01*
X133573638Y-87791399D01*
X133573679Y-87744523D01*
X133813262Y-87504940D01*
X134562800Y-87504940D01*
X134732569Y-87471171D01*
X135335878Y-88074480D01*
X135335838Y-88119967D01*
X135477883Y-88463743D01*
X135740673Y-88726992D01*
X136084201Y-88869638D01*
X136456167Y-88869962D01*
X136799943Y-88727917D01*
X137057153Y-88471155D01*
X137901799Y-89315801D01*
X138041760Y-89409320D01*
X138041760Y-89553400D01*
X138066624Y-89678400D01*
X138041760Y-89803400D01*
X138041760Y-90153400D01*
X138066624Y-90278400D01*
X138041760Y-90403400D01*
X138041760Y-90753400D01*
X138062417Y-90857253D01*
X138054200Y-90877091D01*
X138054200Y-90932150D01*
X138083055Y-90961005D01*
X138091043Y-91001165D01*
X138212155Y-91182420D01*
X138150873Y-91243702D01*
X138091281Y-91387569D01*
X138054200Y-91424650D01*
X138054200Y-91532150D01*
X138091281Y-91569231D01*
X138150873Y-91713098D01*
X138216175Y-91778400D01*
X138150873Y-91843702D01*
X138091281Y-91987569D01*
X138054200Y-92024650D01*
X138054200Y-92132150D01*
X138091281Y-92169231D01*
X138150873Y-92313098D01*
X138216175Y-92378400D01*
X138150873Y-92443702D01*
X138091281Y-92587569D01*
X138054200Y-92624650D01*
X138054200Y-92732150D01*
X138091281Y-92769231D01*
X138150873Y-92913098D01*
X138216175Y-92978400D01*
X138150873Y-93043702D01*
X138091281Y-93187569D01*
X138054200Y-93224650D01*
X138054200Y-93332150D01*
X138091281Y-93369231D01*
X138150873Y-93513098D01*
X138216175Y-93578400D01*
X138150873Y-93643702D01*
X138091281Y-93787569D01*
X138054200Y-93824650D01*
X138054200Y-93932150D01*
X138091281Y-93969231D01*
X138150873Y-94113098D01*
X138212155Y-94174380D01*
X138091043Y-94355635D01*
X138083055Y-94395795D01*
X138054200Y-94424650D01*
X138054200Y-94479709D01*
X138062417Y-94499547D01*
X138041760Y-94603400D01*
X138041760Y-94655100D01*
X137468463Y-94655100D01*
X137436327Y-94622908D01*
X137092799Y-94480262D01*
X136720833Y-94479938D01*
X136385679Y-94618420D01*
X136385679Y-94277627D01*
X136607903Y-94055403D01*
X136772650Y-93808841D01*
X136830502Y-93518002D01*
X136830502Y-92862602D01*
X136772650Y-92571763D01*
X136607903Y-92325201D01*
X135462470Y-91179768D01*
X135524865Y-91167357D01*
X135734909Y-91027009D01*
X135875257Y-90816965D01*
X135924540Y-90569200D01*
X135924540Y-89669200D01*
X135875257Y-89421435D01*
X135734909Y-89211391D01*
X135524865Y-89071043D01*
X135277100Y-89021760D01*
X135204462Y-89021760D01*
X135069280Y-88886578D01*
X135069410Y-88737081D01*
X134927365Y-88393305D01*
X134664575Y-88130056D01*
X134321047Y-87987410D01*
X133949081Y-87987086D01*
X133605305Y-88129131D01*
X133342056Y-88391921D01*
X133199410Y-88735449D01*
X133199147Y-89037266D01*
X133029335Y-89071043D01*
X132819291Y-89211391D01*
X132678943Y-89421435D01*
X132629660Y-89669200D01*
X132629660Y-90569200D01*
X132678943Y-90816965D01*
X132819291Y-91027009D01*
X133029335Y-91167357D01*
X133277100Y-91216640D01*
X133349738Y-91216640D01*
X133655852Y-91522754D01*
X133649102Y-91525543D01*
X133385853Y-91788333D01*
X133243207Y-92131861D01*
X133243166Y-92178737D01*
X132411860Y-93010043D01*
X132411923Y-92937572D01*
X132269878Y-92593796D01*
X132007088Y-92330547D01*
X131663560Y-92187901D01*
X131631075Y-92187873D01*
X130958911Y-91515709D01*
X131215942Y-91259127D01*
X131358588Y-90915599D01*
X131358912Y-90543633D01*
X131216867Y-90199857D01*
X130954077Y-89936608D01*
X130610549Y-89793962D01*
X130563673Y-89793921D01*
X129447551Y-88677799D01*
X129200989Y-88513052D01*
X128910150Y-88455200D01*
X128902900Y-88455200D01*
X128935748Y-88406039D01*
X128993600Y-88115200D01*
X128993600Y-86794902D01*
X134154101Y-81634401D01*
X134247620Y-81494440D01*
X134516700Y-81494440D01*
X134764465Y-81445157D01*
X134974509Y-81304809D01*
X135114857Y-81094765D01*
X135164140Y-80847000D01*
X135164140Y-78449072D01*
X135407100Y-78497400D01*
G36*
X140066200Y-93725400D02*
X139812200Y-93725400D01*
X139812200Y-91631400D01*
X140066200Y-91631400D01*
X140066200Y-93725400D01*
X140066200Y-93725400D01*
G37*
X140066200Y-93725400D02*
X139812200Y-93725400D01*
X139812200Y-91631400D01*
X140066200Y-91631400D01*
X140066200Y-93725400D01*
G36*
X171654161Y-72138499D02*
X171729076Y-76202351D01*
X171600798Y-76074073D01*
X171367409Y-75977400D01*
X171126850Y-75977400D01*
X170968100Y-76136150D01*
X170968100Y-76860400D01*
X170988100Y-76860400D01*
X170988100Y-77114400D01*
X170968100Y-77114400D01*
X170968100Y-77838650D01*
X171126850Y-77997400D01*
X171367409Y-77997400D01*
X171600798Y-77900727D01*
X171757497Y-77744029D01*
X171773183Y-78594970D01*
X171646510Y-78542500D01*
X171430950Y-78542500D01*
X171272200Y-78701250D01*
X171272200Y-79450500D01*
X171292200Y-79450500D01*
X171292200Y-79704500D01*
X171272200Y-79704500D01*
X171272200Y-79724500D01*
X171018200Y-79724500D01*
X171018200Y-79704500D01*
X170293950Y-79704500D01*
X170138126Y-79860324D01*
X169550240Y-79272438D01*
X169550240Y-79199800D01*
X169520681Y-79051191D01*
X170135200Y-79051191D01*
X170135200Y-79291750D01*
X170293950Y-79450500D01*
X171018200Y-79450500D01*
X171018200Y-78701250D01*
X170859450Y-78542500D01*
X170643890Y-78542500D01*
X170410501Y-78639173D01*
X170231873Y-78817802D01*
X170135200Y-79051191D01*
X169520681Y-79051191D01*
X169500957Y-78952035D01*
X169360609Y-78741991D01*
X169212800Y-78643227D01*
X169212800Y-78165502D01*
X169368462Y-78009840D01*
X169741100Y-78009840D01*
X169988865Y-77960557D01*
X170080202Y-77899527D01*
X170081402Y-77900727D01*
X170314791Y-77997400D01*
X170555350Y-77997400D01*
X170714100Y-77838650D01*
X170714100Y-77114400D01*
X170694100Y-77114400D01*
X170694100Y-76860400D01*
X170714100Y-76860400D01*
X170714100Y-76136150D01*
X170555350Y-75977400D01*
X170314791Y-75977400D01*
X170081402Y-76074073D01*
X170080202Y-76075273D01*
X169988865Y-76014243D01*
X169917795Y-76000106D01*
X169878501Y-75941299D01*
X168787374Y-74850172D01*
X168830143Y-74863140D01*
X169142243Y-74893840D01*
X169209300Y-74887227D01*
X169276357Y-74893840D01*
X169588457Y-74863140D01*
X169653096Y-74843541D01*
X169720316Y-74836913D01*
X170020515Y-74745813D01*
X170079940Y-74714041D01*
X170144429Y-74694488D01*
X170421029Y-74546688D01*
X170473212Y-74503874D01*
X170532740Y-74472058D01*
X170775240Y-74273058D01*
X170818110Y-74220824D01*
X170870335Y-74177940D01*
X171069235Y-73935440D01*
X171100953Y-73876060D01*
X171143667Y-73824029D01*
X171291567Y-73547429D01*
X171311196Y-73482755D01*
X171343043Y-73423146D01*
X171434043Y-73122946D01*
X171440630Y-73055936D01*
X171460189Y-72991503D01*
X171490989Y-72679403D01*
X171484376Y-72612130D01*
X171490989Y-72544857D01*
X171460189Y-72232757D01*
X171440630Y-72168324D01*
X171434043Y-72101314D01*
X171353500Y-71835611D01*
X171654161Y-72138499D01*
X171654161Y-72138499D01*
G37*
X171654161Y-72138499D02*
X171729076Y-76202351D01*
X171600798Y-76074073D01*
X171367409Y-75977400D01*
X171126850Y-75977400D01*
X170968100Y-76136150D01*
X170968100Y-76860400D01*
X170988100Y-76860400D01*
X170988100Y-77114400D01*
X170968100Y-77114400D01*
X170968100Y-77838650D01*
X171126850Y-77997400D01*
X171367409Y-77997400D01*
X171600798Y-77900727D01*
X171757497Y-77744029D01*
X171773183Y-78594970D01*
X171646510Y-78542500D01*
X171430950Y-78542500D01*
X171272200Y-78701250D01*
X171272200Y-79450500D01*
X171292200Y-79450500D01*
X171292200Y-79704500D01*
X171272200Y-79704500D01*
X171272200Y-79724500D01*
X171018200Y-79724500D01*
X171018200Y-79704500D01*
X170293950Y-79704500D01*
X170138126Y-79860324D01*
X169550240Y-79272438D01*
X169550240Y-79199800D01*
X169520681Y-79051191D01*
X170135200Y-79051191D01*
X170135200Y-79291750D01*
X170293950Y-79450500D01*
X171018200Y-79450500D01*
X171018200Y-78701250D01*
X170859450Y-78542500D01*
X170643890Y-78542500D01*
X170410501Y-78639173D01*
X170231873Y-78817802D01*
X170135200Y-79051191D01*
X169520681Y-79051191D01*
X169500957Y-78952035D01*
X169360609Y-78741991D01*
X169212800Y-78643227D01*
X169212800Y-78165502D01*
X169368462Y-78009840D01*
X169741100Y-78009840D01*
X169988865Y-77960557D01*
X170080202Y-77899527D01*
X170081402Y-77900727D01*
X170314791Y-77997400D01*
X170555350Y-77997400D01*
X170714100Y-77838650D01*
X170714100Y-77114400D01*
X170694100Y-77114400D01*
X170694100Y-76860400D01*
X170714100Y-76860400D01*
X170714100Y-76136150D01*
X170555350Y-75977400D01*
X170314791Y-75977400D01*
X170081402Y-76074073D01*
X170080202Y-76075273D01*
X169988865Y-76014243D01*
X169917795Y-76000106D01*
X169878501Y-75941299D01*
X168787374Y-74850172D01*
X168830143Y-74863140D01*
X169142243Y-74893840D01*
X169209300Y-74887227D01*
X169276357Y-74893840D01*
X169588457Y-74863140D01*
X169653096Y-74843541D01*
X169720316Y-74836913D01*
X170020515Y-74745813D01*
X170079940Y-74714041D01*
X170144429Y-74694488D01*
X170421029Y-74546688D01*
X170473212Y-74503874D01*
X170532740Y-74472058D01*
X170775240Y-74273058D01*
X170818110Y-74220824D01*
X170870335Y-74177940D01*
X171069235Y-73935440D01*
X171100953Y-73876060D01*
X171143667Y-73824029D01*
X171291567Y-73547429D01*
X171311196Y-73482755D01*
X171343043Y-73423146D01*
X171434043Y-73122946D01*
X171440630Y-73055936D01*
X171460189Y-72991503D01*
X171490989Y-72679403D01*
X171484376Y-72612130D01*
X171490989Y-72544857D01*
X171460189Y-72232757D01*
X171440630Y-72168324D01*
X171434043Y-72101314D01*
X171353500Y-71835611D01*
X171654161Y-72138499D01*
G36*
X157307900Y-71589902D02*
X157466648Y-71589902D01*
X157307900Y-71748650D01*
X157307900Y-71964210D01*
X157404573Y-72197599D01*
X157583202Y-72376227D01*
X157816591Y-72472900D01*
X158057150Y-72472900D01*
X158215898Y-72314152D01*
X158215898Y-72472900D01*
X158272500Y-72472900D01*
X158272500Y-74603222D01*
X158059735Y-74645543D01*
X157849691Y-74785891D01*
X157709343Y-74995935D01*
X157660060Y-75243700D01*
X157660060Y-75943700D01*
X157709343Y-76191465D01*
X157849691Y-76401509D01*
X158059735Y-76541857D01*
X158307500Y-76591140D01*
X159757500Y-76591140D01*
X160005265Y-76541857D01*
X160215309Y-76401509D01*
X160355657Y-76191465D01*
X160404940Y-75943700D01*
X160404940Y-75243700D01*
X160355657Y-74995935D01*
X160215309Y-74785891D01*
X160005265Y-74645543D01*
X159792500Y-74603222D01*
X159792500Y-72563102D01*
X159870262Y-72485340D01*
X160242900Y-72485340D01*
X160490665Y-72436057D01*
X160700709Y-72295709D01*
X160706929Y-72286400D01*
X162133727Y-72286400D01*
X162180300Y-72356100D01*
X162180300Y-74726500D01*
X162238152Y-75017339D01*
X162402899Y-75263901D01*
X162810060Y-75671062D01*
X162810060Y-75943700D01*
X162859343Y-76191465D01*
X162999691Y-76401509D01*
X163209735Y-76541857D01*
X163457500Y-76591140D01*
X164907500Y-76591140D01*
X165155265Y-76541857D01*
X165365309Y-76401509D01*
X165505657Y-76191465D01*
X165554940Y-75943700D01*
X165554940Y-75243700D01*
X165541542Y-75176344D01*
X165739678Y-75374480D01*
X165739638Y-75419967D01*
X165881683Y-75763743D01*
X166144473Y-76026992D01*
X166488001Y-76169638D01*
X166859967Y-76169962D01*
X167203743Y-76027917D01*
X167466992Y-75765127D01*
X167492147Y-75704549D01*
X168311302Y-76523704D01*
X168293660Y-76612400D01*
X168293660Y-76935038D01*
X167915399Y-77313299D01*
X167750652Y-77559861D01*
X167692800Y-77850700D01*
X167692800Y-78643227D01*
X167544991Y-78741991D01*
X167468612Y-78856300D01*
X167023159Y-78856300D01*
X166974509Y-78783491D01*
X166764465Y-78643143D01*
X166516700Y-78593860D01*
X165716700Y-78593860D01*
X165468935Y-78643143D01*
X165377598Y-78704173D01*
X165376398Y-78702973D01*
X165143009Y-78606300D01*
X164902450Y-78606300D01*
X164743700Y-78765050D01*
X164743700Y-79489300D01*
X164763700Y-79489300D01*
X164763700Y-79743300D01*
X164743700Y-79743300D01*
X164743700Y-79763300D01*
X164489700Y-79763300D01*
X164489700Y-79743300D01*
X164469700Y-79743300D01*
X164469700Y-79489300D01*
X164489700Y-79489300D01*
X164489700Y-78765050D01*
X164330950Y-78606300D01*
X164090391Y-78606300D01*
X163857002Y-78702973D01*
X163678373Y-78881601D01*
X163581700Y-79114990D01*
X163581700Y-79266898D01*
X162911101Y-78596299D01*
X162664539Y-78431552D01*
X162373700Y-78373700D01*
X160225526Y-78373700D01*
X160295827Y-78303399D01*
X160392500Y-78070010D01*
X160392500Y-77879450D01*
X162822500Y-77879450D01*
X162822500Y-78070010D01*
X162919173Y-78303399D01*
X163097802Y-78482027D01*
X163331191Y-78578700D01*
X163896750Y-78578700D01*
X164055500Y-78419950D01*
X164055500Y-77720700D01*
X164309500Y-77720700D01*
X164309500Y-78419950D01*
X164468250Y-78578700D01*
X165033809Y-78578700D01*
X165267198Y-78482027D01*
X165445827Y-78303399D01*
X165542500Y-78070010D01*
X165542500Y-77879450D01*
X165383750Y-77720700D01*
X164309500Y-77720700D01*
X164055500Y-77720700D01*
X162981250Y-77720700D01*
X162822500Y-77879450D01*
X160392500Y-77879450D01*
X160233750Y-77720700D01*
X159159500Y-77720700D01*
X159159500Y-77740700D01*
X158905500Y-77740700D01*
X158905500Y-77720700D01*
X157831250Y-77720700D01*
X157672500Y-77879450D01*
X157672500Y-78070010D01*
X157769173Y-78303399D01*
X157839474Y-78373700D01*
X155339715Y-78373700D01*
X155379040Y-78176000D01*
X155379040Y-77023500D01*
X156092037Y-77023500D01*
X156124173Y-77055692D01*
X156467701Y-77198338D01*
X156839667Y-77198662D01*
X157036360Y-77117390D01*
X157672500Y-77117390D01*
X157672500Y-77307950D01*
X157831250Y-77466700D01*
X158905500Y-77466700D01*
X158905500Y-76767450D01*
X159159500Y-76767450D01*
X159159500Y-77466700D01*
X160233750Y-77466700D01*
X160392500Y-77307950D01*
X160392500Y-77117390D01*
X162822500Y-77117390D01*
X162822500Y-77307950D01*
X162981250Y-77466700D01*
X164055500Y-77466700D01*
X164055500Y-76767450D01*
X164309500Y-76767450D01*
X164309500Y-77466700D01*
X165383750Y-77466700D01*
X165542500Y-77307950D01*
X165542500Y-77117390D01*
X165445827Y-76884001D01*
X165267198Y-76705373D01*
X165033809Y-76608700D01*
X164468250Y-76608700D01*
X164309500Y-76767450D01*
X164055500Y-76767450D01*
X163896750Y-76608700D01*
X163331191Y-76608700D01*
X163097802Y-76705373D01*
X162919173Y-76884001D01*
X162822500Y-77117390D01*
X160392500Y-77117390D01*
X160295827Y-76884001D01*
X160117198Y-76705373D01*
X159883809Y-76608700D01*
X159318250Y-76608700D01*
X159159500Y-76767450D01*
X158905500Y-76767450D01*
X158746750Y-76608700D01*
X158181191Y-76608700D01*
X157947802Y-76705373D01*
X157769173Y-76884001D01*
X157672500Y-77117390D01*
X157036360Y-77117390D01*
X157183443Y-77056617D01*
X157446692Y-76793827D01*
X157589338Y-76450299D01*
X157589662Y-76078333D01*
X157447617Y-75734557D01*
X157184827Y-75471308D01*
X156841299Y-75328662D01*
X156469333Y-75328338D01*
X156125557Y-75470383D01*
X156092382Y-75503500D01*
X155379040Y-75503500D01*
X155379040Y-71511399D01*
X157307900Y-71511399D01*
X157307900Y-71589902D01*
X157307900Y-71589902D01*
G37*
X157307900Y-71589902D02*
X157466648Y-71589902D01*
X157307900Y-71748650D01*
X157307900Y-71964210D01*
X157404573Y-72197599D01*
X157583202Y-72376227D01*
X157816591Y-72472900D01*
X158057150Y-72472900D01*
X158215898Y-72314152D01*
X158215898Y-72472900D01*
X158272500Y-72472900D01*
X158272500Y-74603222D01*
X158059735Y-74645543D01*
X157849691Y-74785891D01*
X157709343Y-74995935D01*
X157660060Y-75243700D01*
X157660060Y-75943700D01*
X157709343Y-76191465D01*
X157849691Y-76401509D01*
X158059735Y-76541857D01*
X158307500Y-76591140D01*
X159757500Y-76591140D01*
X160005265Y-76541857D01*
X160215309Y-76401509D01*
X160355657Y-76191465D01*
X160404940Y-75943700D01*
X160404940Y-75243700D01*
X160355657Y-74995935D01*
X160215309Y-74785891D01*
X160005265Y-74645543D01*
X159792500Y-74603222D01*
X159792500Y-72563102D01*
X159870262Y-72485340D01*
X160242900Y-72485340D01*
X160490665Y-72436057D01*
X160700709Y-72295709D01*
X160706929Y-72286400D01*
X162133727Y-72286400D01*
X162180300Y-72356100D01*
X162180300Y-74726500D01*
X162238152Y-75017339D01*
X162402899Y-75263901D01*
X162810060Y-75671062D01*
X162810060Y-75943700D01*
X162859343Y-76191465D01*
X162999691Y-76401509D01*
X163209735Y-76541857D01*
X163457500Y-76591140D01*
X164907500Y-76591140D01*
X165155265Y-76541857D01*
X165365309Y-76401509D01*
X165505657Y-76191465D01*
X165554940Y-75943700D01*
X165554940Y-75243700D01*
X165541542Y-75176344D01*
X165739678Y-75374480D01*
X165739638Y-75419967D01*
X165881683Y-75763743D01*
X166144473Y-76026992D01*
X166488001Y-76169638D01*
X166859967Y-76169962D01*
X167203743Y-76027917D01*
X167466992Y-75765127D01*
X167492147Y-75704549D01*
X168311302Y-76523704D01*
X168293660Y-76612400D01*
X168293660Y-76935038D01*
X167915399Y-77313299D01*
X167750652Y-77559861D01*
X167692800Y-77850700D01*
X167692800Y-78643227D01*
X167544991Y-78741991D01*
X167468612Y-78856300D01*
X167023159Y-78856300D01*
X166974509Y-78783491D01*
X166764465Y-78643143D01*
X166516700Y-78593860D01*
X165716700Y-78593860D01*
X165468935Y-78643143D01*
X165377598Y-78704173D01*
X165376398Y-78702973D01*
X165143009Y-78606300D01*
X164902450Y-78606300D01*
X164743700Y-78765050D01*
X164743700Y-79489300D01*
X164763700Y-79489300D01*
X164763700Y-79743300D01*
X164743700Y-79743300D01*
X164743700Y-79763300D01*
X164489700Y-79763300D01*
X164489700Y-79743300D01*
X164469700Y-79743300D01*
X164469700Y-79489300D01*
X164489700Y-79489300D01*
X164489700Y-78765050D01*
X164330950Y-78606300D01*
X164090391Y-78606300D01*
X163857002Y-78702973D01*
X163678373Y-78881601D01*
X163581700Y-79114990D01*
X163581700Y-79266898D01*
X162911101Y-78596299D01*
X162664539Y-78431552D01*
X162373700Y-78373700D01*
X160225526Y-78373700D01*
X160295827Y-78303399D01*
X160392500Y-78070010D01*
X160392500Y-77879450D01*
X162822500Y-77879450D01*
X162822500Y-78070010D01*
X162919173Y-78303399D01*
X163097802Y-78482027D01*
X163331191Y-78578700D01*
X163896750Y-78578700D01*
X164055500Y-78419950D01*
X164055500Y-77720700D01*
X164309500Y-77720700D01*
X164309500Y-78419950D01*
X164468250Y-78578700D01*
X165033809Y-78578700D01*
X165267198Y-78482027D01*
X165445827Y-78303399D01*
X165542500Y-78070010D01*
X165542500Y-77879450D01*
X165383750Y-77720700D01*
X164309500Y-77720700D01*
X164055500Y-77720700D01*
X162981250Y-77720700D01*
X162822500Y-77879450D01*
X160392500Y-77879450D01*
X160233750Y-77720700D01*
X159159500Y-77720700D01*
X159159500Y-77740700D01*
X158905500Y-77740700D01*
X158905500Y-77720700D01*
X157831250Y-77720700D01*
X157672500Y-77879450D01*
X157672500Y-78070010D01*
X157769173Y-78303399D01*
X157839474Y-78373700D01*
X155339715Y-78373700D01*
X155379040Y-78176000D01*
X155379040Y-77023500D01*
X156092037Y-77023500D01*
X156124173Y-77055692D01*
X156467701Y-77198338D01*
X156839667Y-77198662D01*
X157036360Y-77117390D01*
X157672500Y-77117390D01*
X157672500Y-77307950D01*
X157831250Y-77466700D01*
X158905500Y-77466700D01*
X158905500Y-76767450D01*
X159159500Y-76767450D01*
X159159500Y-77466700D01*
X160233750Y-77466700D01*
X160392500Y-77307950D01*
X160392500Y-77117390D01*
X162822500Y-77117390D01*
X162822500Y-77307950D01*
X162981250Y-77466700D01*
X164055500Y-77466700D01*
X164055500Y-76767450D01*
X164309500Y-76767450D01*
X164309500Y-77466700D01*
X165383750Y-77466700D01*
X165542500Y-77307950D01*
X165542500Y-77117390D01*
X165445827Y-76884001D01*
X165267198Y-76705373D01*
X165033809Y-76608700D01*
X164468250Y-76608700D01*
X164309500Y-76767450D01*
X164055500Y-76767450D01*
X163896750Y-76608700D01*
X163331191Y-76608700D01*
X163097802Y-76705373D01*
X162919173Y-76884001D01*
X162822500Y-77117390D01*
X160392500Y-77117390D01*
X160295827Y-76884001D01*
X160117198Y-76705373D01*
X159883809Y-76608700D01*
X159318250Y-76608700D01*
X159159500Y-76767450D01*
X158905500Y-76767450D01*
X158746750Y-76608700D01*
X158181191Y-76608700D01*
X157947802Y-76705373D01*
X157769173Y-76884001D01*
X157672500Y-77117390D01*
X157036360Y-77117390D01*
X157183443Y-77056617D01*
X157446692Y-76793827D01*
X157589338Y-76450299D01*
X157589662Y-76078333D01*
X157447617Y-75734557D01*
X157184827Y-75471308D01*
X156841299Y-75328662D01*
X156469333Y-75328338D01*
X156125557Y-75470383D01*
X156092382Y-75503500D01*
X155379040Y-75503500D01*
X155379040Y-71511399D01*
X157307900Y-71511399D01*
X157307900Y-71589902D01*
M02*
