G04 #@! TF.FileFunction,Paste,Top*
%FSLAX46Y46*%
G04 Gerber Fmt 4.6, Leading zero omitted, Abs format (unit mm)*
G04 Created by KiCad (PCBNEW 4.0.5-e0-6337~49~ubuntu16.04.1) date Tue Feb 21 22:51:04 2017*
%MOMM*%
%LPD*%
G01*
G04 APERTURE LIST*
%ADD10C,0.100000*%
%ADD11R,0.800000X0.750000*%
%ADD12R,0.750000X0.800000*%
%ADD13R,1.200000X1.200000*%
%ADD14R,2.500000X0.350000*%
%ADD15R,0.800000X0.900000*%
%ADD16R,0.900000X1.200000*%
%ADD17R,1.200000X0.900000*%
%ADD18R,0.700000X1.450000*%
%ADD19R,0.850000X0.300000*%
%ADD20R,0.300000X0.850000*%
%ADD21R,1.550000X0.600000*%
%ADD22R,1.800000X1.200000*%
%ADD23R,0.800000X1.800000*%
%ADD24R,0.780000X0.780000*%
%ADD25O,0.750000X0.300000*%
%ADD26O,0.300000X0.750000*%
%ADD27R,0.540000X0.540000*%
%ADD28R,0.600000X1.550000*%
%ADD29R,1.200000X1.800000*%
%ADD30R,0.508000X1.143000*%
%ADD31R,0.800000X0.500000*%
%ADD32R,0.800000X0.400000*%
%ADD33R,0.500000X0.800000*%
%ADD34R,0.400000X0.800000*%
%ADD35R,0.300000X0.800000*%
G04 APERTURE END LIST*
D10*
D11*
X102350000Y-85660000D03*
X100850000Y-85660000D03*
X137210000Y-106210000D03*
X135710000Y-106210000D03*
X133017960Y-90106500D03*
X131517960Y-90106500D03*
D12*
X128690000Y-101100000D03*
X128690000Y-102600000D03*
D11*
X128760000Y-96830000D03*
X130260000Y-96830000D03*
X127810000Y-91670000D03*
X126310000Y-91670000D03*
D12*
X138160000Y-100070000D03*
X138160000Y-101570000D03*
D11*
X134856920Y-95791020D03*
X133356920Y-95791020D03*
D13*
X115200000Y-79930000D03*
X113000000Y-79930000D03*
D14*
X111868780Y-100711280D03*
X111868780Y-101311280D03*
X111868780Y-101911280D03*
X111868780Y-102511280D03*
X111868780Y-103111280D03*
X111868780Y-103711280D03*
X111868780Y-104311280D03*
X111868780Y-104911280D03*
X111868780Y-105511280D03*
X111868780Y-106111280D03*
X111868780Y-106711280D03*
X111868780Y-107311280D03*
X111868780Y-107911280D03*
X111868780Y-108511280D03*
X111868780Y-109111280D03*
X111868780Y-100111280D03*
X111868780Y-99511280D03*
X111868780Y-98911280D03*
X111868780Y-98311280D03*
X111868780Y-97711280D03*
X111868780Y-97111280D03*
X111868780Y-96511280D03*
X111868780Y-95911280D03*
X111868780Y-95311280D03*
X111868780Y-94711280D03*
X111868780Y-94111280D03*
X111868780Y-93511280D03*
X111868780Y-92911280D03*
X111868780Y-92311280D03*
X111868780Y-91711280D03*
X107368780Y-100711280D03*
X107368780Y-101311280D03*
X107368780Y-101911280D03*
X107368780Y-102511280D03*
X107368780Y-103111280D03*
X107368780Y-103711280D03*
X107368780Y-104311280D03*
X107368780Y-104911280D03*
X107368780Y-105511280D03*
X107368780Y-106111280D03*
X107368780Y-106711280D03*
X107368780Y-107311280D03*
X107368780Y-108511280D03*
X107368780Y-109111280D03*
X107368780Y-107911280D03*
X107368780Y-100111280D03*
X107368780Y-99511280D03*
X107368780Y-97711280D03*
X107368780Y-98911280D03*
X107368780Y-98311280D03*
X107368780Y-97111280D03*
X107368780Y-94711280D03*
X107368780Y-95911280D03*
X107368780Y-96511280D03*
X107368780Y-95311280D03*
X107368780Y-92311280D03*
X107368780Y-93511280D03*
X107368780Y-92911280D03*
X107368780Y-91711280D03*
X107368780Y-94111280D03*
D15*
X120960000Y-87300000D03*
X122860000Y-87300000D03*
X121910000Y-85300000D03*
X109570000Y-85430000D03*
X111470000Y-85430000D03*
X110520000Y-83430000D03*
D16*
X118730000Y-104210000D03*
X118730000Y-106410000D03*
D17*
X102530000Y-82300000D03*
X100330000Y-82300000D03*
D16*
X125560000Y-85260000D03*
X125560000Y-87460000D03*
D17*
X135390000Y-108780000D03*
X137590000Y-108780000D03*
X115220000Y-77490000D03*
X113020000Y-77490000D03*
D16*
X118420000Y-87520000D03*
X118420000Y-85320000D03*
X114220000Y-83510000D03*
X114220000Y-85710000D03*
X106750000Y-85610000D03*
X106750000Y-83410000D03*
X117080000Y-99900000D03*
X117080000Y-97700000D03*
X118521480Y-90893720D03*
X118521480Y-93093720D03*
D17*
X130451680Y-77721460D03*
X132651680Y-77721460D03*
D18*
X135428480Y-111280580D03*
X135428480Y-116440580D03*
X137428480Y-116440580D03*
X137428480Y-111280580D03*
D19*
X120190000Y-111330000D03*
X120190000Y-111830000D03*
X120190000Y-112330000D03*
X120190000Y-112830000D03*
X120190000Y-113330000D03*
X120190000Y-113830000D03*
D20*
X120890000Y-114530000D03*
X121390000Y-114530000D03*
X121890000Y-114530000D03*
X122390000Y-114530000D03*
X122890000Y-114530000D03*
X123390000Y-114530000D03*
D19*
X124090000Y-113830000D03*
X124090000Y-113330000D03*
X124090000Y-112830000D03*
X124090000Y-112330000D03*
X124090000Y-111830000D03*
X124090000Y-111330000D03*
D20*
X123390000Y-110630000D03*
X122890000Y-110630000D03*
X122390000Y-110630000D03*
X121890000Y-110630000D03*
X121390000Y-110630000D03*
X120890000Y-110630000D03*
D21*
X95182500Y-106630000D03*
X95182500Y-105630000D03*
X95182500Y-104630000D03*
X95182500Y-103630000D03*
D22*
X92657500Y-107930000D03*
X92657500Y-102330000D03*
D21*
X95138360Y-115993040D03*
X95138360Y-114993040D03*
X95138360Y-113993040D03*
X95138360Y-112993040D03*
D22*
X92613360Y-117293040D03*
X92613360Y-111693040D03*
D23*
X99935000Y-78518000D03*
X101205000Y-78518000D03*
X102475000Y-78518000D03*
X103745000Y-78518000D03*
D19*
X121110000Y-97410000D03*
X121110000Y-97910000D03*
X121110000Y-98410000D03*
X121110000Y-98910000D03*
X121110000Y-99410000D03*
X121110000Y-99910000D03*
D20*
X121810000Y-100610000D03*
X122310000Y-100610000D03*
X122810000Y-100610000D03*
X123310000Y-100610000D03*
X123810000Y-100610000D03*
X124310000Y-100610000D03*
D19*
X125010000Y-99910000D03*
X125010000Y-99410000D03*
X125010000Y-98910000D03*
X125010000Y-98410000D03*
X125010000Y-97910000D03*
X125010000Y-97410000D03*
D20*
X124310000Y-96710000D03*
X123810000Y-96710000D03*
X123310000Y-96710000D03*
X122810000Y-96710000D03*
X122310000Y-96710000D03*
X121810000Y-96710000D03*
D24*
X123710000Y-99310000D03*
X123710000Y-98010000D03*
X122410000Y-99310000D03*
X122410000Y-98010000D03*
D25*
X132481640Y-99947880D03*
X132481640Y-100447880D03*
X132481640Y-100947880D03*
X132481640Y-101447880D03*
D26*
X133206640Y-102172880D03*
X133706640Y-102172880D03*
X134206640Y-102172880D03*
X134706640Y-102172880D03*
D25*
X135431640Y-101447880D03*
X135431640Y-100947880D03*
X135431640Y-100447880D03*
X135431640Y-99947880D03*
D26*
X134706640Y-99222880D03*
X134206640Y-99222880D03*
X133706640Y-99222880D03*
X133206640Y-99222880D03*
D27*
X134406640Y-101147880D03*
X134406640Y-100247880D03*
X133506640Y-101147880D03*
X133506640Y-100247880D03*
D28*
X102945060Y-120606700D03*
X101945060Y-120606700D03*
X100945060Y-120606700D03*
X99945060Y-120606700D03*
D29*
X104245060Y-123131700D03*
X98645060Y-123131700D03*
D28*
X111940000Y-120497500D03*
X110940000Y-120497500D03*
X109940000Y-120497500D03*
X108940000Y-120497500D03*
D29*
X113240000Y-123022500D03*
X107640000Y-123022500D03*
D28*
X130850000Y-120457500D03*
X129850000Y-120457500D03*
X128850000Y-120457500D03*
X127850000Y-120457500D03*
D29*
X132150000Y-122982500D03*
X126550000Y-122982500D03*
D28*
X121440000Y-120337500D03*
X120440000Y-120337500D03*
X119440000Y-120337500D03*
X118440000Y-120337500D03*
D29*
X122740000Y-122862500D03*
X117140000Y-122862500D03*
D21*
X95182500Y-97370000D03*
X95182500Y-96370000D03*
X95182500Y-95370000D03*
X95182500Y-94370000D03*
D22*
X92657500Y-98670000D03*
X92657500Y-93070000D03*
D21*
X95312500Y-88140000D03*
X95312500Y-87140000D03*
X95312500Y-86140000D03*
X95312500Y-85140000D03*
D22*
X92787500Y-89440000D03*
X92787500Y-83840000D03*
D30*
X129453640Y-80558640D03*
X130723640Y-80558640D03*
X131993640Y-80558640D03*
X133263640Y-80558640D03*
X133263640Y-86908640D03*
X131993640Y-86908640D03*
X130723640Y-86908640D03*
X129453640Y-86908640D03*
D31*
X102870000Y-114760000D03*
D32*
X102870000Y-113160000D03*
X102870000Y-113960000D03*
D31*
X102870000Y-112360000D03*
D32*
X101070000Y-113960000D03*
D31*
X101070000Y-114760000D03*
D32*
X101070000Y-113160000D03*
D31*
X101070000Y-112360000D03*
D33*
X112460000Y-115200000D03*
D34*
X110860000Y-115200000D03*
X111660000Y-115200000D03*
D33*
X110060000Y-115200000D03*
D34*
X111660000Y-117000000D03*
D33*
X112460000Y-117000000D03*
D34*
X110860000Y-117000000D03*
D33*
X110060000Y-117000000D03*
D35*
X128050000Y-109210000D03*
X128050000Y-107410000D03*
X131550000Y-109210000D03*
X131550000Y-107410000D03*
X128550000Y-109210000D03*
X129050000Y-109210000D03*
X129550000Y-109210000D03*
X130050000Y-109210000D03*
X130550000Y-109210000D03*
X131050000Y-109210000D03*
X128550000Y-107410000D03*
X129050000Y-107410000D03*
X129550000Y-107410000D03*
X130550000Y-107410000D03*
X130050000Y-107410000D03*
X131050000Y-107410000D03*
M02*
