G04 #@! TF.FileFunction,Copper,L2,Bot,Signal*
%FSLAX46Y46*%
G04 Gerber Fmt 4.6, Leading zero omitted, Abs format (unit mm)*
G04 Created by KiCad (PCBNEW 4.0.5-e0-6337~49~ubuntu16.04.1) date Tue Feb 21 22:51:04 2017*
%MOMM*%
%LPD*%
G01*
G04 APERTURE LIST*
%ADD10C,0.100000*%
%ADD11R,1.700000X1.700000*%
%ADD12O,1.700000X1.700000*%
%ADD13C,0.600000*%
%ADD14C,0.250000*%
%ADD15C,0.254000*%
G04 APERTURE END LIST*
D10*
D11*
X137807700Y-90124280D03*
D12*
X137807700Y-87584280D03*
X137807700Y-85044280D03*
D11*
X124165360Y-81559400D03*
D12*
X121625360Y-81559400D03*
X119085360Y-81559400D03*
D11*
X124068840Y-77604620D03*
D12*
X121528840Y-77604620D03*
X118988840Y-77604620D03*
D13*
X101940000Y-118420000D03*
X103480000Y-108010000D03*
X115570000Y-118680000D03*
X98260000Y-111030000D03*
X109990000Y-118440000D03*
X126310000Y-110240000D03*
X127120000Y-98160000D03*
X118540000Y-97760000D03*
X127560000Y-89200000D03*
X129460000Y-91200000D03*
X132530000Y-92230000D03*
X136770000Y-97850000D03*
X137180000Y-103230000D03*
X126370000Y-118310000D03*
X114940000Y-103310000D03*
X122680000Y-102570000D03*
X116110000Y-82184410D03*
X127665546Y-99589444D03*
X122147423Y-101973024D03*
X126950000Y-83640000D03*
X134970000Y-83820000D03*
X108248051Y-86894990D03*
X98080000Y-84230000D03*
X117850000Y-102060000D03*
X130750000Y-102140000D03*
X129720000Y-98080000D03*
X123790000Y-95400000D03*
X123780000Y-94040000D03*
X133360000Y-97170000D03*
X136800000Y-100920000D03*
X115060000Y-95800000D03*
X128800000Y-78820000D03*
X126820000Y-80160000D03*
X104670000Y-93540000D03*
X105550000Y-87520000D03*
X117810966Y-100913606D03*
X120750000Y-106430000D03*
X124700000Y-105850000D03*
X116910000Y-93060000D03*
X116930000Y-95959999D03*
X126140000Y-104500000D03*
X125520000Y-106530000D03*
X133217631Y-88570000D03*
X119140000Y-96710000D03*
X115010000Y-105530000D03*
X126220000Y-101790000D03*
X139450000Y-107200000D03*
X116800000Y-107570000D03*
X115170000Y-104400000D03*
X124430000Y-102070000D03*
X119000000Y-89250000D03*
X122590000Y-89180000D03*
X105176719Y-114134990D03*
X98160000Y-115630000D03*
X102100000Y-116780000D03*
X97800000Y-117010000D03*
X116260000Y-114649998D03*
X111630000Y-118540000D03*
X127125749Y-114455010D03*
X121790000Y-117550000D03*
X125850644Y-115803255D03*
X129860000Y-116430000D03*
X128168713Y-113265255D03*
X124060000Y-118100000D03*
X128260000Y-111460000D03*
X101320000Y-99460000D03*
X125840000Y-108420000D03*
X101470000Y-93480000D03*
X127030000Y-112640000D03*
X101380000Y-101840000D03*
X125510000Y-109270000D03*
X101440000Y-96750000D03*
X130800000Y-99360000D03*
X118940000Y-98860000D03*
D14*
X101940000Y-118420000D02*
X109970000Y-118420000D01*
X109970000Y-118420000D02*
X109990000Y-118440000D01*
X109990000Y-118440000D02*
X109690001Y-118140001D01*
X109690001Y-118140001D02*
X109690001Y-114220001D01*
X109690001Y-114220001D02*
X103779999Y-108309999D01*
X103779999Y-108309999D02*
X103480000Y-108010000D01*
X115570000Y-118680000D02*
X115570000Y-115976408D01*
X115570000Y-115976408D02*
X116271409Y-115274999D01*
X116271409Y-115274999D02*
X116560001Y-115274999D01*
X116560001Y-115274999D02*
X116885001Y-114949999D01*
X116885001Y-114949999D02*
X116885001Y-114349997D01*
X116885001Y-114349997D02*
X116560001Y-114024997D01*
X116560001Y-114024997D02*
X109494997Y-114024997D01*
X109494997Y-114024997D02*
X103480000Y-108010000D01*
X129460000Y-91200000D02*
X127560000Y-89300000D01*
X127560000Y-89300000D02*
X127560000Y-89200000D01*
X132530000Y-92230000D02*
X133161980Y-92230000D01*
X133161980Y-92230000D02*
X137807700Y-87584280D01*
X132530000Y-92230000D02*
X136770000Y-96470000D01*
X136770000Y-96470000D02*
X136770000Y-97850000D01*
X137739999Y-103529999D02*
X137880000Y-103670000D01*
X137180000Y-103230000D02*
X137479999Y-103529999D01*
X137479999Y-103529999D02*
X137739999Y-103529999D01*
X122680000Y-102570000D02*
X121940000Y-103310000D01*
X121940000Y-103310000D02*
X114940000Y-103310000D01*
X112958631Y-82184410D02*
X115685736Y-82184410D01*
X108248051Y-86894990D02*
X112958631Y-82184410D01*
X115685736Y-82184410D02*
X116110000Y-82184410D01*
X124531003Y-99589444D02*
X127665546Y-99589444D01*
X128169810Y-99589444D02*
X127665546Y-99589444D01*
X129720000Y-98080000D02*
X128220000Y-99580000D01*
X128179254Y-99580000D02*
X128169810Y-99589444D01*
X130750000Y-102140000D02*
X128190000Y-99580000D01*
X128220000Y-99580000D02*
X128179254Y-99580000D01*
X128190000Y-99580000D02*
X128179254Y-99580000D01*
X122147423Y-101973024D02*
X124531003Y-99589444D01*
X117850000Y-102060000D02*
X122060447Y-102060000D01*
X122060447Y-102060000D02*
X122147423Y-101973024D01*
X134970000Y-83820000D02*
X127130000Y-83820000D01*
X127130000Y-83820000D02*
X126950000Y-83640000D01*
X100744990Y-86894990D02*
X108248051Y-86894990D01*
X98080000Y-84230000D02*
X100744990Y-86894990D01*
X123780000Y-94040000D02*
X123780000Y-95390000D01*
X123780000Y-95390000D02*
X123790000Y-95400000D01*
X133360000Y-97904264D02*
X133360000Y-97170000D01*
X136800000Y-100920000D02*
X136375736Y-100920000D01*
X136375736Y-100920000D02*
X133360000Y-97904264D01*
X115060000Y-92060000D02*
X115060000Y-95800000D01*
X122075720Y-85044280D02*
X115060000Y-92060000D01*
X137807700Y-85044280D02*
X122075720Y-85044280D01*
X121625360Y-81559400D02*
X115664760Y-87520000D01*
X115664760Y-87520000D02*
X105550000Y-87520000D01*
X126820000Y-80160000D02*
X127460000Y-80160000D01*
X127460000Y-80160000D02*
X128800000Y-78820000D01*
X105550000Y-87520000D02*
X104670000Y-88400000D01*
X104670000Y-88400000D02*
X104670000Y-93540000D01*
X116930000Y-100032640D02*
X117810966Y-100913606D01*
X116930000Y-95959999D02*
X116930000Y-100032640D01*
X124700000Y-105850000D02*
X124120000Y-106430000D01*
X124120000Y-106430000D02*
X120750000Y-106430000D01*
X116930000Y-95959999D02*
X116930000Y-93080000D01*
X116930000Y-93080000D02*
X116910000Y-93060000D01*
X125520000Y-106530000D02*
X125520000Y-105120000D01*
X125520000Y-105120000D02*
X126140000Y-104500000D01*
X127280000Y-88570000D02*
X133217631Y-88570000D01*
X119140000Y-96710000D02*
X127280000Y-88570000D01*
X126220000Y-101790000D02*
X122480000Y-105530000D01*
X122480000Y-105530000D02*
X115010000Y-105530000D01*
X124625003Y-107869999D02*
X125295002Y-107200000D01*
X125295002Y-107200000D02*
X139450000Y-107200000D01*
X117099999Y-107869999D02*
X124625003Y-107869999D01*
X116800000Y-107570000D02*
X117099999Y-107869999D01*
X124430000Y-102070000D02*
X122100000Y-104400000D01*
X122100000Y-104400000D02*
X115170000Y-104400000D01*
X122590000Y-89180000D02*
X119070000Y-89180000D01*
X119070000Y-89180000D02*
X119000000Y-89250000D01*
X98160000Y-115630000D02*
X103681709Y-115630000D01*
X103681709Y-115630000D02*
X105176719Y-114134990D01*
X97800000Y-117010000D02*
X101870000Y-117010000D01*
X101870000Y-117010000D02*
X102100000Y-116780000D01*
X111630000Y-118540000D02*
X112369998Y-118540000D01*
X112369998Y-118540000D02*
X116260000Y-114649998D01*
X124884990Y-114455010D02*
X127125749Y-114455010D01*
X121790000Y-117550000D02*
X124884990Y-114455010D01*
X126477389Y-116430000D02*
X125850644Y-115803255D01*
X129860000Y-116430000D02*
X126477389Y-116430000D01*
X125600000Y-115130000D02*
X127375761Y-115130000D01*
X124060000Y-116670000D02*
X125600000Y-115130000D01*
X124060000Y-118100000D02*
X124060000Y-116670000D01*
X127375761Y-115130000D02*
X128168713Y-114337048D01*
X128168713Y-114337048D02*
X128168713Y-113265255D01*
X113320000Y-111460000D02*
X128260000Y-111460000D01*
X101320000Y-99460000D02*
X113320000Y-111460000D01*
X101470000Y-93480000D02*
X116410000Y-108420000D01*
X116410000Y-108420000D02*
X125840000Y-108420000D01*
X112180000Y-112640000D02*
X127030000Y-112640000D01*
X101380000Y-101840000D02*
X112180000Y-112640000D01*
X115045012Y-110355012D02*
X124424988Y-110355012D01*
X101440000Y-96750000D02*
X115045012Y-110355012D01*
X124424988Y-110355012D02*
X125510000Y-109270000D01*
X130120000Y-96840000D02*
X130800000Y-97520000D01*
X130800000Y-97520000D02*
X130800000Y-99360000D01*
X120960000Y-96840000D02*
X130120000Y-96840000D01*
X118940000Y-98860000D02*
X120960000Y-96840000D01*
D15*
G36*
X139643581Y-78324527D02*
X139898575Y-106373861D01*
X139636799Y-106265162D01*
X139264833Y-106264838D01*
X138921057Y-106406883D01*
X138887882Y-106440000D01*
X126455079Y-106440000D01*
X126455162Y-106344833D01*
X126313117Y-106001057D01*
X126280000Y-105967882D01*
X126280000Y-105435123D01*
X126325167Y-105435162D01*
X126668943Y-105293117D01*
X126932192Y-105030327D01*
X127074838Y-104686799D01*
X127075162Y-104314833D01*
X126933117Y-103971057D01*
X126670327Y-103707808D01*
X126326799Y-103565162D01*
X125954833Y-103564838D01*
X125611057Y-103706883D01*
X125347808Y-103969673D01*
X125205162Y-104313201D01*
X125205121Y-104360077D01*
X124982599Y-104582599D01*
X124817852Y-104829161D01*
X124800760Y-104915087D01*
X124514833Y-104914838D01*
X124171057Y-105056883D01*
X123907808Y-105319673D01*
X123765162Y-105663201D01*
X123765156Y-105670000D01*
X123414802Y-105670000D01*
X126359680Y-102725122D01*
X126405167Y-102725162D01*
X126748943Y-102583117D01*
X127012192Y-102320327D01*
X127154838Y-101976799D01*
X127155162Y-101604833D01*
X127013117Y-101261057D01*
X126750327Y-100997808D01*
X126406799Y-100855162D01*
X126034833Y-100854838D01*
X125691057Y-100996883D01*
X125427808Y-101259673D01*
X125285162Y-101603201D01*
X125285121Y-101650077D01*
X125273121Y-101662077D01*
X125223117Y-101541057D01*
X124960327Y-101277808D01*
X124616799Y-101135162D01*
X124244833Y-101134838D01*
X123930554Y-101264695D01*
X124845805Y-100349444D01*
X127103083Y-100349444D01*
X127135219Y-100381636D01*
X127478747Y-100524282D01*
X127850713Y-100524606D01*
X127998670Y-100463472D01*
X129814878Y-102279680D01*
X129814838Y-102325167D01*
X129956883Y-102668943D01*
X130219673Y-102932192D01*
X130563201Y-103074838D01*
X130935167Y-103075162D01*
X131278943Y-102933117D01*
X131542192Y-102670327D01*
X131684838Y-102326799D01*
X131685162Y-101954833D01*
X131543117Y-101611057D01*
X131280327Y-101347808D01*
X130936799Y-101205162D01*
X130889923Y-101205121D01*
X129279802Y-99595000D01*
X129859680Y-99015122D01*
X129905167Y-99015162D01*
X129936092Y-99002384D01*
X129865162Y-99173201D01*
X129864838Y-99545167D01*
X130006883Y-99888943D01*
X130269673Y-100152192D01*
X130613201Y-100294838D01*
X130985167Y-100295162D01*
X131328943Y-100153117D01*
X131592192Y-99890327D01*
X131734838Y-99546799D01*
X131735162Y-99174833D01*
X131593117Y-98831057D01*
X131560000Y-98797882D01*
X131560000Y-97520000D01*
X131527213Y-97355167D01*
X132424838Y-97355167D01*
X132566883Y-97698943D01*
X132600000Y-97732118D01*
X132600000Y-97904264D01*
X132657852Y-98195103D01*
X132822599Y-98441665D01*
X135838335Y-101457401D01*
X136084897Y-101622148D01*
X136203296Y-101645699D01*
X136269673Y-101712192D01*
X136613201Y-101854838D01*
X136985167Y-101855162D01*
X137328943Y-101713117D01*
X137592192Y-101450327D01*
X137734838Y-101106799D01*
X137735162Y-100734833D01*
X137593117Y-100391057D01*
X137330327Y-100127808D01*
X136986799Y-99985162D01*
X136614833Y-99984838D01*
X136544455Y-100013917D01*
X134175275Y-97644737D01*
X134294838Y-97356799D01*
X134295162Y-96984833D01*
X134153117Y-96641057D01*
X133890327Y-96377808D01*
X133546799Y-96235162D01*
X133174833Y-96234838D01*
X132831057Y-96376883D01*
X132567808Y-96639673D01*
X132425162Y-96983201D01*
X132424838Y-97355167D01*
X131527213Y-97355167D01*
X131512326Y-97280327D01*
X131502148Y-97229160D01*
X131337401Y-96982599D01*
X130657401Y-96302599D01*
X130410839Y-96137852D01*
X130120000Y-96080000D01*
X124432258Y-96080000D01*
X124582192Y-95930327D01*
X124724838Y-95586799D01*
X124725162Y-95214833D01*
X124583117Y-94871057D01*
X124540000Y-94827865D01*
X124540000Y-94602463D01*
X124572192Y-94570327D01*
X124714838Y-94226799D01*
X124715162Y-93854833D01*
X124573117Y-93511057D01*
X124310327Y-93247808D01*
X123966799Y-93105162D01*
X123819768Y-93105034D01*
X127594802Y-89330000D01*
X132655168Y-89330000D01*
X132687304Y-89362192D01*
X133030832Y-89504838D01*
X133402798Y-89505162D01*
X133746574Y-89363117D01*
X133835566Y-89274280D01*
X136310260Y-89274280D01*
X136310260Y-90974280D01*
X136354538Y-91209597D01*
X136493610Y-91425721D01*
X136705810Y-91570711D01*
X136957700Y-91621720D01*
X138657700Y-91621720D01*
X138893017Y-91577442D01*
X139109141Y-91438370D01*
X139254131Y-91226170D01*
X139305140Y-90974280D01*
X139305140Y-89274280D01*
X139260862Y-89038963D01*
X139121790Y-88822839D01*
X138909590Y-88677849D01*
X138801593Y-88655979D01*
X139079345Y-88351204D01*
X139249176Y-87941170D01*
X139127855Y-87711280D01*
X137934700Y-87711280D01*
X137934700Y-87731280D01*
X137680700Y-87731280D01*
X137680700Y-87711280D01*
X136487545Y-87711280D01*
X136366224Y-87941170D01*
X136536055Y-88351204D01*
X136812201Y-88654217D01*
X136722383Y-88671118D01*
X136506259Y-88810190D01*
X136361269Y-89022390D01*
X136310260Y-89274280D01*
X133835566Y-89274280D01*
X134009823Y-89100327D01*
X134152469Y-88756799D01*
X134152793Y-88384833D01*
X134010748Y-88041057D01*
X133747958Y-87777808D01*
X133404430Y-87635162D01*
X133032464Y-87634838D01*
X132688688Y-87776883D01*
X132655513Y-87810000D01*
X127280000Y-87810000D01*
X126989160Y-87867852D01*
X126742599Y-88032599D01*
X119000320Y-95774878D01*
X118954833Y-95774838D01*
X118611057Y-95916883D01*
X118347808Y-96179673D01*
X118205162Y-96523201D01*
X118204838Y-96895167D01*
X118346883Y-97238943D01*
X118609673Y-97502192D01*
X118953201Y-97644838D01*
X119080249Y-97644949D01*
X118800320Y-97924878D01*
X118754833Y-97924838D01*
X118411057Y-98066883D01*
X118147808Y-98329673D01*
X118005162Y-98673201D01*
X118004838Y-99045167D01*
X118146883Y-99388943D01*
X118409673Y-99652192D01*
X118753201Y-99794838D01*
X119125167Y-99795162D01*
X119468943Y-99653117D01*
X119732192Y-99390327D01*
X119874838Y-99046799D01*
X119874879Y-98999923D01*
X121274802Y-97600000D01*
X128906910Y-97600000D01*
X128785162Y-97893201D01*
X128785121Y-97940077D01*
X128006557Y-98718641D01*
X127852345Y-98654606D01*
X127480379Y-98654282D01*
X127136603Y-98796327D01*
X127103428Y-98829444D01*
X124531003Y-98829444D01*
X124240164Y-98887296D01*
X123993602Y-99052043D01*
X122007743Y-101037902D01*
X121962256Y-101037862D01*
X121618480Y-101179907D01*
X121498177Y-101300000D01*
X118662925Y-101300000D01*
X118745804Y-101100405D01*
X118746128Y-100728439D01*
X118604083Y-100384663D01*
X118341293Y-100121414D01*
X117997765Y-99978768D01*
X117950889Y-99978727D01*
X117690000Y-99717838D01*
X117690000Y-96522462D01*
X117722192Y-96490326D01*
X117864838Y-96146798D01*
X117865162Y-95774832D01*
X117723117Y-95431056D01*
X117690000Y-95397881D01*
X117690000Y-93602498D01*
X117702192Y-93590327D01*
X117844838Y-93246799D01*
X117845162Y-92874833D01*
X117703117Y-92531057D01*
X117440327Y-92267808D01*
X117096799Y-92125162D01*
X116724833Y-92124838D01*
X116381057Y-92266883D01*
X116117808Y-92529673D01*
X115975162Y-92873201D01*
X115974838Y-93245167D01*
X116116883Y-93588943D01*
X116170000Y-93642153D01*
X116170000Y-95397536D01*
X116137808Y-95429672D01*
X115995162Y-95773200D01*
X115994838Y-96145166D01*
X116136883Y-96488942D01*
X116170000Y-96522117D01*
X116170000Y-100032640D01*
X116227852Y-100323479D01*
X116392599Y-100570041D01*
X116875844Y-101053286D01*
X116875804Y-101098773D01*
X117017849Y-101442549D01*
X117081356Y-101506166D01*
X117057808Y-101529673D01*
X116915162Y-101873201D01*
X116914838Y-102245167D01*
X117056883Y-102588943D01*
X117319673Y-102852192D01*
X117663201Y-102994838D01*
X118035167Y-102995162D01*
X118378943Y-102853117D01*
X118412118Y-102820000D01*
X121749030Y-102820000D01*
X121960624Y-102907862D01*
X122332590Y-102908186D01*
X122646869Y-102778329D01*
X121785198Y-103640000D01*
X115732463Y-103640000D01*
X115700327Y-103607808D01*
X115356799Y-103465162D01*
X114984833Y-103464838D01*
X114641057Y-103606883D01*
X114377808Y-103869673D01*
X114235162Y-104213201D01*
X114234838Y-104585167D01*
X114351121Y-104866593D01*
X114217808Y-104999673D01*
X114172819Y-105108017D01*
X105049969Y-95985167D01*
X114124838Y-95985167D01*
X114266883Y-96328943D01*
X114529673Y-96592192D01*
X114873201Y-96734838D01*
X115245167Y-96735162D01*
X115588943Y-96593117D01*
X115852192Y-96330327D01*
X115994838Y-95986799D01*
X115995162Y-95614833D01*
X115853117Y-95271057D01*
X115820000Y-95237882D01*
X115820000Y-92374802D01*
X118311280Y-89883522D01*
X118469673Y-90042192D01*
X118813201Y-90184838D01*
X119185167Y-90185162D01*
X119528943Y-90043117D01*
X119632240Y-89940000D01*
X122027537Y-89940000D01*
X122059673Y-89972192D01*
X122403201Y-90114838D01*
X122775167Y-90115162D01*
X123118943Y-89973117D01*
X123382192Y-89710327D01*
X123524838Y-89366799D01*
X123525162Y-88994833D01*
X123383117Y-88651057D01*
X123120327Y-88387808D01*
X122776799Y-88245162D01*
X122404833Y-88244838D01*
X122061057Y-88386883D01*
X122027882Y-88420000D01*
X119774802Y-88420000D01*
X122390522Y-85804280D01*
X136534746Y-85804280D01*
X136728553Y-86094334D01*
X137069253Y-86321982D01*
X136926342Y-86389097D01*
X136536055Y-86817356D01*
X136366224Y-87227390D01*
X136487545Y-87457280D01*
X137680700Y-87457280D01*
X137680700Y-87437280D01*
X137934700Y-87437280D01*
X137934700Y-87457280D01*
X139127855Y-87457280D01*
X139249176Y-87227390D01*
X139079345Y-86817356D01*
X138689058Y-86389097D01*
X138546147Y-86321982D01*
X138886847Y-86094334D01*
X139208754Y-85612565D01*
X139321793Y-85044280D01*
X139208754Y-84475995D01*
X138886847Y-83994226D01*
X138405078Y-83672319D01*
X137836793Y-83559280D01*
X137778607Y-83559280D01*
X137210322Y-83672319D01*
X136728553Y-83994226D01*
X136534746Y-84284280D01*
X135789617Y-84284280D01*
X135904838Y-84006799D01*
X135905162Y-83634833D01*
X135763117Y-83291057D01*
X135500327Y-83027808D01*
X135156799Y-82885162D01*
X134784833Y-82884838D01*
X134441057Y-83026883D01*
X134407882Y-83060000D01*
X127692149Y-83060000D01*
X127480327Y-82847808D01*
X127136799Y-82705162D01*
X126764833Y-82704838D01*
X126421057Y-82846883D01*
X126157808Y-83109673D01*
X126015162Y-83453201D01*
X126014838Y-83825167D01*
X126156883Y-84168943D01*
X126272019Y-84284280D01*
X122075720Y-84284280D01*
X121784880Y-84342132D01*
X121538319Y-84506879D01*
X114522599Y-91522599D01*
X114357852Y-91769161D01*
X114300000Y-92060000D01*
X114300000Y-95237537D01*
X114267808Y-95269673D01*
X114125162Y-95613201D01*
X114124838Y-95985167D01*
X105049969Y-95985167D01*
X102405122Y-93340320D01*
X102405162Y-93294833D01*
X102263117Y-92951057D01*
X102000327Y-92687808D01*
X101656799Y-92545162D01*
X101284833Y-92544838D01*
X100941057Y-92686883D01*
X100677808Y-92949673D01*
X100535162Y-93293201D01*
X100534838Y-93665167D01*
X100676883Y-94008943D01*
X100939673Y-94272192D01*
X101283201Y-94414838D01*
X101330077Y-94414879D01*
X115872599Y-108957401D01*
X116119161Y-109122148D01*
X116410000Y-109180000D01*
X124525198Y-109180000D01*
X124110186Y-109595012D01*
X115359814Y-109595012D01*
X102375122Y-96610320D01*
X102375162Y-96564833D01*
X102233117Y-96221057D01*
X101970327Y-95957808D01*
X101626799Y-95815162D01*
X101254833Y-95814838D01*
X100911057Y-95956883D01*
X100647808Y-96219673D01*
X100505162Y-96563201D01*
X100504838Y-96935167D01*
X100646883Y-97278943D01*
X100909673Y-97542192D01*
X101253201Y-97684838D01*
X101300077Y-97684879D01*
X114315198Y-110700000D01*
X113634802Y-110700000D01*
X102255122Y-99320320D01*
X102255162Y-99274833D01*
X102113117Y-98931057D01*
X101850327Y-98667808D01*
X101506799Y-98525162D01*
X101134833Y-98524838D01*
X100791057Y-98666883D01*
X100527808Y-98929673D01*
X100385162Y-99273201D01*
X100384838Y-99645167D01*
X100526883Y-99988943D01*
X100789673Y-100252192D01*
X101133201Y-100394838D01*
X101180077Y-100394879D01*
X101778100Y-100992902D01*
X101566799Y-100905162D01*
X101194833Y-100904838D01*
X100851057Y-101046883D01*
X100587808Y-101309673D01*
X100445162Y-101653201D01*
X100444838Y-102025167D01*
X100586883Y-102368943D01*
X100849673Y-102632192D01*
X101193201Y-102774838D01*
X101240077Y-102774879D01*
X111642599Y-113177401D01*
X111889160Y-113342148D01*
X111937414Y-113351746D01*
X112180000Y-113400000D01*
X126467537Y-113400000D01*
X126499673Y-113432192D01*
X126825392Y-113567443D01*
X126596806Y-113661893D01*
X126563631Y-113695010D01*
X124884990Y-113695010D01*
X124594151Y-113752862D01*
X124347589Y-113917609D01*
X121650320Y-116614878D01*
X121604833Y-116614838D01*
X121261057Y-116756883D01*
X120997808Y-117019673D01*
X120855162Y-117363201D01*
X120854838Y-117735167D01*
X120996883Y-118078943D01*
X121259673Y-118342192D01*
X121603201Y-118484838D01*
X121975167Y-118485162D01*
X122318943Y-118343117D01*
X122582192Y-118080327D01*
X122724838Y-117736799D01*
X122724879Y-117689923D01*
X123300000Y-117114802D01*
X123300000Y-117537537D01*
X123267808Y-117569673D01*
X123125162Y-117913201D01*
X123124838Y-118285167D01*
X123266883Y-118628943D01*
X123529673Y-118892192D01*
X123873201Y-119034838D01*
X124245167Y-119035162D01*
X124588943Y-118893117D01*
X124852192Y-118630327D01*
X124994838Y-118286799D01*
X124995162Y-117914833D01*
X124853117Y-117571057D01*
X124820000Y-117537882D01*
X124820000Y-116984802D01*
X125264884Y-116539918D01*
X125320317Y-116595447D01*
X125663845Y-116738093D01*
X125710721Y-116738134D01*
X125939988Y-116967401D01*
X126186549Y-117132148D01*
X126477389Y-117190000D01*
X129297537Y-117190000D01*
X129329673Y-117222192D01*
X129673201Y-117364838D01*
X130045167Y-117365162D01*
X130388943Y-117223117D01*
X130652192Y-116960327D01*
X130794838Y-116616799D01*
X130795162Y-116244833D01*
X130653117Y-115901057D01*
X130390327Y-115637808D01*
X130046799Y-115495162D01*
X129674833Y-115494838D01*
X129331057Y-115636883D01*
X129297882Y-115670000D01*
X127909272Y-115670000D01*
X127913162Y-115667401D01*
X128706114Y-114874449D01*
X128870861Y-114627888D01*
X128903295Y-114464831D01*
X128928713Y-114337048D01*
X128928713Y-113827718D01*
X128960905Y-113795582D01*
X129103551Y-113452054D01*
X129103875Y-113080088D01*
X128961830Y-112736312D01*
X128699040Y-112473063D01*
X128478383Y-112381438D01*
X128788943Y-112253117D01*
X129052192Y-111990327D01*
X129194838Y-111646799D01*
X129195162Y-111274833D01*
X129053117Y-110931057D01*
X128790327Y-110667808D01*
X128446799Y-110525162D01*
X128074833Y-110524838D01*
X127731057Y-110666883D01*
X127697882Y-110700000D01*
X125154802Y-110700000D01*
X125649680Y-110205122D01*
X125695167Y-110205162D01*
X126038943Y-110063117D01*
X126302192Y-109800327D01*
X126444838Y-109456799D01*
X126445116Y-109137076D01*
X126632192Y-108950327D01*
X126774838Y-108606799D01*
X126775162Y-108234833D01*
X126661604Y-107960000D01*
X138887537Y-107960000D01*
X138919673Y-107992192D01*
X139263201Y-108134838D01*
X139635167Y-108135162D01*
X139913541Y-108020140D01*
X140032632Y-121120104D01*
X137802987Y-124268401D01*
X137629862Y-124320915D01*
X95489722Y-123883302D01*
X94516406Y-123412563D01*
X94674221Y-123428110D01*
X94741380Y-123421497D01*
X94808535Y-123428110D01*
X95120685Y-123397360D01*
X95185235Y-123377778D01*
X95252370Y-123371166D01*
X95552530Y-123280116D01*
X95612041Y-123248307D01*
X95676612Y-123228718D01*
X95953222Y-123080858D01*
X96005359Y-123038068D01*
X96064844Y-123006275D01*
X96307304Y-122807305D01*
X96350114Y-122755144D01*
X96402274Y-122712337D01*
X96601254Y-122469877D01*
X96633055Y-122410382D01*
X96675853Y-122358233D01*
X96823713Y-122081613D01*
X96843302Y-122017039D01*
X96875110Y-121957526D01*
X96966150Y-121657376D01*
X96972759Y-121590250D01*
X96992340Y-121525705D01*
X97023090Y-121213554D01*
X97016477Y-121146400D01*
X97023079Y-121079349D01*
X134459689Y-121079349D01*
X134466302Y-121146399D01*
X134459689Y-121213446D01*
X134490389Y-121525596D01*
X134509994Y-121590258D01*
X134516627Y-121657496D01*
X134607727Y-121957646D01*
X134639489Y-122017047D01*
X134659033Y-122081511D01*
X134806833Y-122358131D01*
X134849668Y-122410342D01*
X134881507Y-122469903D01*
X135080507Y-122712363D01*
X135132680Y-122755176D01*
X135175499Y-122807340D01*
X135417999Y-123006310D01*
X135477458Y-123038083D01*
X135529569Y-123080853D01*
X135806169Y-123228713D01*
X135870757Y-123248308D01*
X135930284Y-123280123D01*
X136230484Y-123371173D01*
X136297600Y-123377780D01*
X136362135Y-123397359D01*
X136674235Y-123428109D01*
X136741400Y-123421496D01*
X136808565Y-123428109D01*
X137120665Y-123397359D01*
X137185200Y-123377780D01*
X137252316Y-123371173D01*
X137552516Y-123280123D01*
X137612043Y-123248308D01*
X137676631Y-123228713D01*
X137953231Y-123080853D01*
X138005342Y-123038083D01*
X138064801Y-123006310D01*
X138307301Y-122807340D01*
X138350173Y-122755112D01*
X138402400Y-122712233D01*
X138601300Y-122469773D01*
X138633040Y-122410363D01*
X138675777Y-122358301D01*
X138823677Y-122081680D01*
X138843297Y-122017031D01*
X138875134Y-121957446D01*
X138966134Y-121657296D01*
X138972726Y-121590266D01*
X138992290Y-121525813D01*
X139023090Y-121213663D01*
X139016477Y-121146395D01*
X139023089Y-121079133D01*
X138992289Y-120767003D01*
X138972727Y-120702557D01*
X138966136Y-120635530D01*
X138875136Y-120335370D01*
X138843295Y-120275777D01*
X138823672Y-120211120D01*
X138675772Y-119934510D01*
X138633038Y-119882453D01*
X138601300Y-119823047D01*
X138402400Y-119580587D01*
X138350181Y-119537714D01*
X138307315Y-119485491D01*
X138064814Y-119286511D01*
X138005349Y-119254733D01*
X137953231Y-119211957D01*
X137676631Y-119064097D01*
X137612033Y-119044499D01*
X137552496Y-119012681D01*
X137252296Y-118921641D01*
X137185190Y-118915037D01*
X137120665Y-118895461D01*
X136808565Y-118864711D01*
X136741400Y-118871324D01*
X136674235Y-118864711D01*
X136362135Y-118895461D01*
X136297610Y-118915037D01*
X136230504Y-118921641D01*
X135930304Y-119012681D01*
X135870767Y-119044499D01*
X135806169Y-119064097D01*
X135529569Y-119211957D01*
X135477451Y-119254733D01*
X135417986Y-119286511D01*
X135175486Y-119485491D01*
X135132674Y-119537649D01*
X135080507Y-119580457D01*
X134881507Y-119822917D01*
X134849670Y-119882474D01*
X134806838Y-119934680D01*
X134659038Y-120211290D01*
X134639491Y-120275760D01*
X134607725Y-120335170D01*
X134516625Y-120635330D01*
X134509993Y-120702563D01*
X134490389Y-120767220D01*
X134459689Y-121079349D01*
X97023079Y-121079349D01*
X97023090Y-121079241D01*
X96992340Y-120767111D01*
X96972760Y-120702571D01*
X96966152Y-120635450D01*
X96875112Y-120335290D01*
X96843300Y-120275769D01*
X96823708Y-120211188D01*
X96675848Y-119934578D01*
X96633052Y-119882434D01*
X96601254Y-119822943D01*
X96402274Y-119580483D01*
X96350119Y-119537681D01*
X96307317Y-119485526D01*
X96064857Y-119286546D01*
X96005366Y-119254748D01*
X95953222Y-119211952D01*
X95676612Y-119064092D01*
X95612031Y-119044500D01*
X95552510Y-119012688D01*
X95252350Y-118921648D01*
X95185230Y-118915040D01*
X95120689Y-118895460D01*
X94808559Y-118864710D01*
X94741400Y-118871323D01*
X94674246Y-118864710D01*
X94362095Y-118895460D01*
X94297550Y-118915041D01*
X94230424Y-118921650D01*
X93930274Y-119012690D01*
X93870761Y-119044498D01*
X93806187Y-119064087D01*
X93529567Y-119211947D01*
X93477418Y-119254745D01*
X93417923Y-119286546D01*
X93175463Y-119485526D01*
X93132656Y-119537686D01*
X93080495Y-119580496D01*
X92881525Y-119822956D01*
X92849732Y-119882441D01*
X92806942Y-119934578D01*
X92659082Y-120211188D01*
X92639493Y-120275759D01*
X92607684Y-120335270D01*
X92516634Y-120635430D01*
X92510023Y-120702561D01*
X92490440Y-120767111D01*
X92459690Y-121079241D01*
X92466303Y-121146400D01*
X92459690Y-121213555D01*
X92490440Y-121525705D01*
X92510024Y-121590260D01*
X92516636Y-121657396D01*
X92607686Y-121957546D01*
X92639491Y-122017049D01*
X92659077Y-122081613D01*
X92806937Y-122358233D01*
X92849730Y-122410375D01*
X92881525Y-122469864D01*
X93080495Y-122712324D01*
X93097606Y-122726367D01*
X91549511Y-121977639D01*
X91493349Y-121792487D01*
X91441028Y-121261266D01*
X91884676Y-118974185D01*
X91886998Y-118950682D01*
X91888208Y-118725167D01*
X110694838Y-118725167D01*
X110836883Y-119068943D01*
X111099673Y-119332192D01*
X111443201Y-119474838D01*
X111815167Y-119475162D01*
X112158943Y-119333117D01*
X112192118Y-119300000D01*
X112369998Y-119300000D01*
X112660837Y-119242148D01*
X112907399Y-119077401D01*
X116399680Y-115585120D01*
X116445167Y-115585160D01*
X116788943Y-115443115D01*
X117052192Y-115180325D01*
X117194838Y-114836797D01*
X117195162Y-114464831D01*
X117053117Y-114121055D01*
X116790327Y-113857806D01*
X116446799Y-113715160D01*
X116074833Y-113714836D01*
X115731057Y-113856881D01*
X115467808Y-114119671D01*
X115325162Y-114463199D01*
X115325121Y-114510075D01*
X112108789Y-117726407D01*
X111816799Y-117605162D01*
X111444833Y-117604838D01*
X111101057Y-117746883D01*
X110837808Y-118009673D01*
X110695162Y-118353201D01*
X110694838Y-118725167D01*
X91888208Y-118725167D01*
X91896424Y-117195167D01*
X96864838Y-117195167D01*
X97006883Y-117538943D01*
X97269673Y-117802192D01*
X97613201Y-117944838D01*
X97985167Y-117945162D01*
X98328943Y-117803117D01*
X98362118Y-117770000D01*
X101870000Y-117770000D01*
X102146295Y-117715041D01*
X102285167Y-117715162D01*
X102628943Y-117573117D01*
X102892192Y-117310327D01*
X103034838Y-116966799D01*
X103035162Y-116594833D01*
X102950527Y-116390000D01*
X103681709Y-116390000D01*
X103972548Y-116332148D01*
X104219110Y-116167401D01*
X105316399Y-115070112D01*
X105361886Y-115070152D01*
X105705662Y-114928107D01*
X105968911Y-114665317D01*
X106111557Y-114321789D01*
X106111881Y-113949823D01*
X105969836Y-113606047D01*
X105707046Y-113342798D01*
X105363518Y-113200152D01*
X104991552Y-113199828D01*
X104647776Y-113341873D01*
X104384527Y-113604663D01*
X104241881Y-113948191D01*
X104241840Y-113995067D01*
X103366907Y-114870000D01*
X98722463Y-114870000D01*
X98690327Y-114837808D01*
X98346799Y-114695162D01*
X97974833Y-114694838D01*
X97631057Y-114836883D01*
X97367808Y-115099673D01*
X97225162Y-115443201D01*
X97224838Y-115815167D01*
X97366883Y-116158943D01*
X97379849Y-116171931D01*
X97271057Y-116216883D01*
X97007808Y-116479673D01*
X96865162Y-116823201D01*
X96864838Y-117195167D01*
X91896424Y-117195167D01*
X91925897Y-111706349D01*
X107133610Y-111706349D01*
X107283251Y-112068509D01*
X107560094Y-112345835D01*
X107921992Y-112496108D01*
X108313849Y-112496450D01*
X108676009Y-112346809D01*
X108953335Y-112069966D01*
X109103608Y-111708068D01*
X109103950Y-111316211D01*
X108954309Y-110954051D01*
X108677466Y-110676725D01*
X108315568Y-110526452D01*
X107923711Y-110526110D01*
X107561551Y-110675751D01*
X107284225Y-110952594D01*
X107133952Y-111314492D01*
X107133610Y-111706349D01*
X91925897Y-111706349D01*
X92072445Y-84415167D01*
X97144838Y-84415167D01*
X97286883Y-84758943D01*
X97549673Y-85022192D01*
X97893201Y-85164838D01*
X97940077Y-85164879D01*
X100207589Y-87432391D01*
X100454151Y-87597138D01*
X100744990Y-87654990D01*
X104340208Y-87654990D01*
X104132599Y-87862599D01*
X103967852Y-88109161D01*
X103910000Y-88400000D01*
X103910000Y-92977537D01*
X103877808Y-93009673D01*
X103735162Y-93353201D01*
X103734838Y-93725167D01*
X103876883Y-94068943D01*
X104139673Y-94332192D01*
X104483201Y-94474838D01*
X104855167Y-94475162D01*
X105198943Y-94333117D01*
X105462192Y-94070327D01*
X105604838Y-93726799D01*
X105605162Y-93354833D01*
X105463117Y-93011057D01*
X105430000Y-92977882D01*
X105430000Y-88714802D01*
X105689680Y-88455122D01*
X105735167Y-88455162D01*
X106078943Y-88313117D01*
X106112118Y-88280000D01*
X107511575Y-88280000D01*
X107448408Y-88306100D01*
X107114771Y-88639155D01*
X106933986Y-89074535D01*
X106933574Y-89545957D01*
X107113600Y-89981652D01*
X107446655Y-90315289D01*
X107882035Y-90496074D01*
X108353457Y-90496486D01*
X108789152Y-90316460D01*
X109122789Y-89983405D01*
X109303574Y-89548025D01*
X109303986Y-89076603D01*
X109123960Y-88640908D01*
X108790905Y-88307271D01*
X108725229Y-88280000D01*
X115664760Y-88280000D01*
X115955599Y-88222148D01*
X116202161Y-88057401D01*
X121258952Y-83000610D01*
X121625360Y-83073493D01*
X122193645Y-82960454D01*
X122675414Y-82638547D01*
X122703210Y-82596948D01*
X122712198Y-82644717D01*
X122851270Y-82860841D01*
X123063470Y-83005831D01*
X123315360Y-83056840D01*
X125015360Y-83056840D01*
X125250677Y-83012562D01*
X125466801Y-82873490D01*
X125611791Y-82661290D01*
X125662800Y-82409400D01*
X125662800Y-80709400D01*
X125618522Y-80474083D01*
X125535567Y-80345167D01*
X125884838Y-80345167D01*
X126026883Y-80688943D01*
X126289673Y-80952192D01*
X126633201Y-81094838D01*
X127005167Y-81095162D01*
X127348943Y-80953117D01*
X127382118Y-80920000D01*
X127460000Y-80920000D01*
X127750839Y-80862148D01*
X127997401Y-80697401D01*
X128939680Y-79755122D01*
X128985167Y-79755162D01*
X129328943Y-79613117D01*
X129592192Y-79350327D01*
X129704714Y-79079343D01*
X134459690Y-79079343D01*
X134466303Y-79146400D01*
X134459690Y-79213457D01*
X134490390Y-79525557D01*
X134509989Y-79590196D01*
X134516617Y-79657416D01*
X134607717Y-79957615D01*
X134639489Y-80017040D01*
X134659042Y-80081529D01*
X134806842Y-80358129D01*
X134849656Y-80410312D01*
X134881472Y-80469840D01*
X135080472Y-80712340D01*
X135132642Y-80755158D01*
X135175460Y-80807328D01*
X135417959Y-81006328D01*
X135477489Y-81038145D01*
X135529671Y-81080958D01*
X135806271Y-81228758D01*
X135870758Y-81248311D01*
X135930184Y-81280083D01*
X136230384Y-81371183D01*
X136297604Y-81377811D01*
X136362243Y-81397410D01*
X136674343Y-81428110D01*
X136741400Y-81421497D01*
X136808457Y-81428110D01*
X137120557Y-81397410D01*
X137185196Y-81377811D01*
X137252416Y-81371183D01*
X137552615Y-81280083D01*
X137612040Y-81248311D01*
X137676529Y-81228758D01*
X137953129Y-81080958D01*
X138005312Y-81038144D01*
X138064840Y-81006328D01*
X138307340Y-80807328D01*
X138350210Y-80755094D01*
X138402435Y-80712210D01*
X138601335Y-80469710D01*
X138633053Y-80410330D01*
X138675767Y-80358299D01*
X138823667Y-80081699D01*
X138843296Y-80017025D01*
X138875143Y-79957416D01*
X138966143Y-79657216D01*
X138972730Y-79590206D01*
X138992289Y-79525773D01*
X139023089Y-79213673D01*
X139016476Y-79146400D01*
X139023089Y-79079127D01*
X138992289Y-78767027D01*
X138972730Y-78702594D01*
X138966143Y-78635584D01*
X138875143Y-78335384D01*
X138843296Y-78275775D01*
X138823667Y-78211101D01*
X138675767Y-77934501D01*
X138633053Y-77882470D01*
X138601335Y-77823090D01*
X138402435Y-77580590D01*
X138350147Y-77537654D01*
X138307210Y-77485365D01*
X138064710Y-77286465D01*
X138005330Y-77254747D01*
X137953299Y-77212033D01*
X137676699Y-77064133D01*
X137612024Y-77044503D01*
X137552415Y-77012657D01*
X137252216Y-76921657D01*
X137185206Y-76915070D01*
X137120773Y-76895511D01*
X136808673Y-76864711D01*
X136741400Y-76871324D01*
X136674127Y-76864711D01*
X136362027Y-76895511D01*
X136297594Y-76915070D01*
X136230584Y-76921657D01*
X135930384Y-77012657D01*
X135870775Y-77044504D01*
X135806101Y-77064133D01*
X135529501Y-77212033D01*
X135477470Y-77254747D01*
X135418090Y-77286465D01*
X135175590Y-77485365D01*
X135132706Y-77537590D01*
X135080472Y-77580460D01*
X134881472Y-77822960D01*
X134849656Y-77882488D01*
X134806842Y-77934671D01*
X134659042Y-78211271D01*
X134639489Y-78275760D01*
X134607717Y-78335185D01*
X134516617Y-78635384D01*
X134509989Y-78702604D01*
X134490390Y-78767243D01*
X134459690Y-79079343D01*
X129704714Y-79079343D01*
X129734838Y-79006799D01*
X129735162Y-78634833D01*
X129593117Y-78291057D01*
X129330327Y-78027808D01*
X128986799Y-77885162D01*
X128614833Y-77884838D01*
X128271057Y-78026883D01*
X128007808Y-78289673D01*
X127865162Y-78633201D01*
X127865121Y-78680077D01*
X127228131Y-79317067D01*
X127006799Y-79225162D01*
X126634833Y-79224838D01*
X126291057Y-79366883D01*
X126027808Y-79629673D01*
X125885162Y-79973201D01*
X125884838Y-80345167D01*
X125535567Y-80345167D01*
X125479450Y-80257959D01*
X125267250Y-80112969D01*
X125015360Y-80061960D01*
X123315360Y-80061960D01*
X123080043Y-80106238D01*
X122863919Y-80245310D01*
X122718929Y-80457510D01*
X122705274Y-80524941D01*
X122675414Y-80480253D01*
X122193645Y-80158346D01*
X121625360Y-80045307D01*
X121057075Y-80158346D01*
X120575306Y-80480253D01*
X120347658Y-80820953D01*
X120280543Y-80678042D01*
X119852284Y-80287755D01*
X119442250Y-80117924D01*
X119212360Y-80239245D01*
X119212360Y-81432400D01*
X119232360Y-81432400D01*
X119232360Y-81686400D01*
X119212360Y-81686400D01*
X119212360Y-81706400D01*
X118958360Y-81706400D01*
X118958360Y-81686400D01*
X117764541Y-81686400D01*
X117643874Y-81916292D01*
X117890177Y-82440758D01*
X118318436Y-82831045D01*
X118728470Y-83000876D01*
X118958358Y-82879556D01*
X118958358Y-83044400D01*
X119065558Y-83044400D01*
X115349958Y-86760000D01*
X109457843Y-86760000D01*
X113273433Y-82944410D01*
X115547537Y-82944410D01*
X115579673Y-82976602D01*
X115923201Y-83119248D01*
X116295167Y-83119572D01*
X116638943Y-82977527D01*
X116902192Y-82714737D01*
X117044838Y-82371209D01*
X117045162Y-81999243D01*
X116903117Y-81655467D01*
X116640327Y-81392218D01*
X116296799Y-81249572D01*
X115924833Y-81249248D01*
X115581057Y-81391293D01*
X115547882Y-81424410D01*
X112958631Y-81424410D01*
X112667792Y-81482262D01*
X112421230Y-81647009D01*
X108108371Y-85959868D01*
X108062884Y-85959828D01*
X107719108Y-86101873D01*
X107685933Y-86134990D01*
X101059792Y-86134990D01*
X99015122Y-84090320D01*
X99015162Y-84044833D01*
X98873117Y-83701057D01*
X98610327Y-83437808D01*
X98266799Y-83295162D01*
X97894833Y-83294838D01*
X97551057Y-83436883D01*
X97287808Y-83699673D01*
X97145162Y-84043201D01*
X97144838Y-84415167D01*
X92072445Y-84415167D01*
X92101098Y-79079235D01*
X92459691Y-79079235D01*
X92466304Y-79146400D01*
X92459691Y-79213565D01*
X92490441Y-79525665D01*
X92510020Y-79590200D01*
X92516627Y-79657316D01*
X92607677Y-79957516D01*
X92639492Y-80017043D01*
X92659087Y-80081631D01*
X92806947Y-80358231D01*
X92849717Y-80410342D01*
X92881490Y-80469801D01*
X93080460Y-80712301D01*
X93132625Y-80755121D01*
X93175437Y-80807293D01*
X93417897Y-81006292D01*
X93477455Y-81038130D01*
X93529669Y-81080967D01*
X93806290Y-81228768D01*
X93870755Y-81248312D01*
X93930154Y-81280073D01*
X94230304Y-81371174D01*
X94297541Y-81377806D01*
X94362199Y-81397411D01*
X94674329Y-81428110D01*
X94741375Y-81421497D01*
X94808426Y-81428111D01*
X95120576Y-81397411D01*
X95185234Y-81377807D01*
X95252470Y-81371175D01*
X95552630Y-81280075D01*
X95612040Y-81248309D01*
X95676510Y-81228762D01*
X95725644Y-81202508D01*
X117643874Y-81202508D01*
X117764541Y-81432400D01*
X118958360Y-81432400D01*
X118958360Y-80239245D01*
X118728470Y-80117924D01*
X118318436Y-80287755D01*
X117890177Y-80678042D01*
X117643874Y-81202508D01*
X95725644Y-81202508D01*
X95953120Y-81080962D01*
X96005326Y-81038130D01*
X96064883Y-81006293D01*
X96307343Y-80807293D01*
X96350151Y-80755126D01*
X96402309Y-80712314D01*
X96601289Y-80469814D01*
X96633067Y-80410349D01*
X96675843Y-80358231D01*
X96823703Y-80081631D01*
X96843301Y-80017033D01*
X96875119Y-79957496D01*
X96966159Y-79657296D01*
X96972763Y-79590190D01*
X96992339Y-79525665D01*
X97023089Y-79213565D01*
X97016476Y-79146400D01*
X97023089Y-79079235D01*
X96992339Y-78767135D01*
X96972763Y-78702610D01*
X96966159Y-78635504D01*
X96875119Y-78335304D01*
X96843301Y-78275767D01*
X96823703Y-78211169D01*
X96690246Y-77961512D01*
X117547354Y-77961512D01*
X117793657Y-78485978D01*
X118221916Y-78876265D01*
X118631950Y-79046096D01*
X118861840Y-78924775D01*
X118861840Y-77731620D01*
X117668021Y-77731620D01*
X117547354Y-77961512D01*
X96690246Y-77961512D01*
X96675843Y-77934569D01*
X96633067Y-77882451D01*
X96601289Y-77822986D01*
X96402309Y-77580486D01*
X96350088Y-77537622D01*
X96307213Y-77485400D01*
X96064753Y-77286500D01*
X96005347Y-77254762D01*
X95996779Y-77247728D01*
X117547354Y-77247728D01*
X117668021Y-77477620D01*
X118861840Y-77477620D01*
X118861840Y-76284465D01*
X119115840Y-76284465D01*
X119115840Y-77477620D01*
X119135840Y-77477620D01*
X119135840Y-77731620D01*
X119115840Y-77731620D01*
X119115840Y-78924775D01*
X119345730Y-79046096D01*
X119755764Y-78876265D01*
X120184023Y-78485978D01*
X120251138Y-78343067D01*
X120478786Y-78683767D01*
X120960555Y-79005674D01*
X121528840Y-79118713D01*
X122097125Y-79005674D01*
X122578894Y-78683767D01*
X122606690Y-78642168D01*
X122615678Y-78689937D01*
X122754750Y-78906061D01*
X122966950Y-79051051D01*
X123218840Y-79102060D01*
X124918840Y-79102060D01*
X125154157Y-79057782D01*
X125370281Y-78918710D01*
X125515271Y-78706510D01*
X125566280Y-78454620D01*
X125566280Y-76754620D01*
X125522002Y-76519303D01*
X125382930Y-76303179D01*
X125170730Y-76158189D01*
X124918840Y-76107180D01*
X123218840Y-76107180D01*
X122983523Y-76151458D01*
X122767399Y-76290530D01*
X122622409Y-76502730D01*
X122608754Y-76570161D01*
X122578894Y-76525473D01*
X122097125Y-76203566D01*
X121528840Y-76090527D01*
X120960555Y-76203566D01*
X120478786Y-76525473D01*
X120251138Y-76866173D01*
X120184023Y-76723262D01*
X119755764Y-76332975D01*
X119345730Y-76163144D01*
X119115840Y-76284465D01*
X118861840Y-76284465D01*
X118631950Y-76163144D01*
X118221916Y-76332975D01*
X117793657Y-76723262D01*
X117547354Y-77247728D01*
X95996779Y-77247728D01*
X95953290Y-77212028D01*
X95676680Y-77064128D01*
X95612023Y-77044505D01*
X95552430Y-77012664D01*
X95252270Y-76921664D01*
X95185243Y-76915073D01*
X95120797Y-76895511D01*
X94808667Y-76864711D01*
X94741405Y-76871323D01*
X94674137Y-76864710D01*
X94361987Y-76895510D01*
X94297534Y-76915074D01*
X94230504Y-76921666D01*
X93930354Y-77012666D01*
X93870769Y-77044503D01*
X93806120Y-77064123D01*
X93529499Y-77212023D01*
X93477437Y-77254760D01*
X93418027Y-77286500D01*
X93175567Y-77485400D01*
X93132688Y-77537627D01*
X93080460Y-77580499D01*
X92881490Y-77822999D01*
X92849717Y-77882458D01*
X92806947Y-77934569D01*
X92659087Y-78211169D01*
X92639492Y-78275757D01*
X92607677Y-78335284D01*
X92516627Y-78635484D01*
X92510020Y-78702600D01*
X92490441Y-78767135D01*
X92459691Y-79079235D01*
X92101098Y-79079235D01*
X92106821Y-78013642D01*
X94160859Y-76056952D01*
X136518250Y-76017039D01*
X139643581Y-78324527D01*
X139643581Y-78324527D01*
G37*
X139643581Y-78324527D02*
X139898575Y-106373861D01*
X139636799Y-106265162D01*
X139264833Y-106264838D01*
X138921057Y-106406883D01*
X138887882Y-106440000D01*
X126455079Y-106440000D01*
X126455162Y-106344833D01*
X126313117Y-106001057D01*
X126280000Y-105967882D01*
X126280000Y-105435123D01*
X126325167Y-105435162D01*
X126668943Y-105293117D01*
X126932192Y-105030327D01*
X127074838Y-104686799D01*
X127075162Y-104314833D01*
X126933117Y-103971057D01*
X126670327Y-103707808D01*
X126326799Y-103565162D01*
X125954833Y-103564838D01*
X125611057Y-103706883D01*
X125347808Y-103969673D01*
X125205162Y-104313201D01*
X125205121Y-104360077D01*
X124982599Y-104582599D01*
X124817852Y-104829161D01*
X124800760Y-104915087D01*
X124514833Y-104914838D01*
X124171057Y-105056883D01*
X123907808Y-105319673D01*
X123765162Y-105663201D01*
X123765156Y-105670000D01*
X123414802Y-105670000D01*
X126359680Y-102725122D01*
X126405167Y-102725162D01*
X126748943Y-102583117D01*
X127012192Y-102320327D01*
X127154838Y-101976799D01*
X127155162Y-101604833D01*
X127013117Y-101261057D01*
X126750327Y-100997808D01*
X126406799Y-100855162D01*
X126034833Y-100854838D01*
X125691057Y-100996883D01*
X125427808Y-101259673D01*
X125285162Y-101603201D01*
X125285121Y-101650077D01*
X125273121Y-101662077D01*
X125223117Y-101541057D01*
X124960327Y-101277808D01*
X124616799Y-101135162D01*
X124244833Y-101134838D01*
X123930554Y-101264695D01*
X124845805Y-100349444D01*
X127103083Y-100349444D01*
X127135219Y-100381636D01*
X127478747Y-100524282D01*
X127850713Y-100524606D01*
X127998670Y-100463472D01*
X129814878Y-102279680D01*
X129814838Y-102325167D01*
X129956883Y-102668943D01*
X130219673Y-102932192D01*
X130563201Y-103074838D01*
X130935167Y-103075162D01*
X131278943Y-102933117D01*
X131542192Y-102670327D01*
X131684838Y-102326799D01*
X131685162Y-101954833D01*
X131543117Y-101611057D01*
X131280327Y-101347808D01*
X130936799Y-101205162D01*
X130889923Y-101205121D01*
X129279802Y-99595000D01*
X129859680Y-99015122D01*
X129905167Y-99015162D01*
X129936092Y-99002384D01*
X129865162Y-99173201D01*
X129864838Y-99545167D01*
X130006883Y-99888943D01*
X130269673Y-100152192D01*
X130613201Y-100294838D01*
X130985167Y-100295162D01*
X131328943Y-100153117D01*
X131592192Y-99890327D01*
X131734838Y-99546799D01*
X131735162Y-99174833D01*
X131593117Y-98831057D01*
X131560000Y-98797882D01*
X131560000Y-97520000D01*
X131527213Y-97355167D01*
X132424838Y-97355167D01*
X132566883Y-97698943D01*
X132600000Y-97732118D01*
X132600000Y-97904264D01*
X132657852Y-98195103D01*
X132822599Y-98441665D01*
X135838335Y-101457401D01*
X136084897Y-101622148D01*
X136203296Y-101645699D01*
X136269673Y-101712192D01*
X136613201Y-101854838D01*
X136985167Y-101855162D01*
X137328943Y-101713117D01*
X137592192Y-101450327D01*
X137734838Y-101106799D01*
X137735162Y-100734833D01*
X137593117Y-100391057D01*
X137330327Y-100127808D01*
X136986799Y-99985162D01*
X136614833Y-99984838D01*
X136544455Y-100013917D01*
X134175275Y-97644737D01*
X134294838Y-97356799D01*
X134295162Y-96984833D01*
X134153117Y-96641057D01*
X133890327Y-96377808D01*
X133546799Y-96235162D01*
X133174833Y-96234838D01*
X132831057Y-96376883D01*
X132567808Y-96639673D01*
X132425162Y-96983201D01*
X132424838Y-97355167D01*
X131527213Y-97355167D01*
X131512326Y-97280327D01*
X131502148Y-97229160D01*
X131337401Y-96982599D01*
X130657401Y-96302599D01*
X130410839Y-96137852D01*
X130120000Y-96080000D01*
X124432258Y-96080000D01*
X124582192Y-95930327D01*
X124724838Y-95586799D01*
X124725162Y-95214833D01*
X124583117Y-94871057D01*
X124540000Y-94827865D01*
X124540000Y-94602463D01*
X124572192Y-94570327D01*
X124714838Y-94226799D01*
X124715162Y-93854833D01*
X124573117Y-93511057D01*
X124310327Y-93247808D01*
X123966799Y-93105162D01*
X123819768Y-93105034D01*
X127594802Y-89330000D01*
X132655168Y-89330000D01*
X132687304Y-89362192D01*
X133030832Y-89504838D01*
X133402798Y-89505162D01*
X133746574Y-89363117D01*
X133835566Y-89274280D01*
X136310260Y-89274280D01*
X136310260Y-90974280D01*
X136354538Y-91209597D01*
X136493610Y-91425721D01*
X136705810Y-91570711D01*
X136957700Y-91621720D01*
X138657700Y-91621720D01*
X138893017Y-91577442D01*
X139109141Y-91438370D01*
X139254131Y-91226170D01*
X139305140Y-90974280D01*
X139305140Y-89274280D01*
X139260862Y-89038963D01*
X139121790Y-88822839D01*
X138909590Y-88677849D01*
X138801593Y-88655979D01*
X139079345Y-88351204D01*
X139249176Y-87941170D01*
X139127855Y-87711280D01*
X137934700Y-87711280D01*
X137934700Y-87731280D01*
X137680700Y-87731280D01*
X137680700Y-87711280D01*
X136487545Y-87711280D01*
X136366224Y-87941170D01*
X136536055Y-88351204D01*
X136812201Y-88654217D01*
X136722383Y-88671118D01*
X136506259Y-88810190D01*
X136361269Y-89022390D01*
X136310260Y-89274280D01*
X133835566Y-89274280D01*
X134009823Y-89100327D01*
X134152469Y-88756799D01*
X134152793Y-88384833D01*
X134010748Y-88041057D01*
X133747958Y-87777808D01*
X133404430Y-87635162D01*
X133032464Y-87634838D01*
X132688688Y-87776883D01*
X132655513Y-87810000D01*
X127280000Y-87810000D01*
X126989160Y-87867852D01*
X126742599Y-88032599D01*
X119000320Y-95774878D01*
X118954833Y-95774838D01*
X118611057Y-95916883D01*
X118347808Y-96179673D01*
X118205162Y-96523201D01*
X118204838Y-96895167D01*
X118346883Y-97238943D01*
X118609673Y-97502192D01*
X118953201Y-97644838D01*
X119080249Y-97644949D01*
X118800320Y-97924878D01*
X118754833Y-97924838D01*
X118411057Y-98066883D01*
X118147808Y-98329673D01*
X118005162Y-98673201D01*
X118004838Y-99045167D01*
X118146883Y-99388943D01*
X118409673Y-99652192D01*
X118753201Y-99794838D01*
X119125167Y-99795162D01*
X119468943Y-99653117D01*
X119732192Y-99390327D01*
X119874838Y-99046799D01*
X119874879Y-98999923D01*
X121274802Y-97600000D01*
X128906910Y-97600000D01*
X128785162Y-97893201D01*
X128785121Y-97940077D01*
X128006557Y-98718641D01*
X127852345Y-98654606D01*
X127480379Y-98654282D01*
X127136603Y-98796327D01*
X127103428Y-98829444D01*
X124531003Y-98829444D01*
X124240164Y-98887296D01*
X123993602Y-99052043D01*
X122007743Y-101037902D01*
X121962256Y-101037862D01*
X121618480Y-101179907D01*
X121498177Y-101300000D01*
X118662925Y-101300000D01*
X118745804Y-101100405D01*
X118746128Y-100728439D01*
X118604083Y-100384663D01*
X118341293Y-100121414D01*
X117997765Y-99978768D01*
X117950889Y-99978727D01*
X117690000Y-99717838D01*
X117690000Y-96522462D01*
X117722192Y-96490326D01*
X117864838Y-96146798D01*
X117865162Y-95774832D01*
X117723117Y-95431056D01*
X117690000Y-95397881D01*
X117690000Y-93602498D01*
X117702192Y-93590327D01*
X117844838Y-93246799D01*
X117845162Y-92874833D01*
X117703117Y-92531057D01*
X117440327Y-92267808D01*
X117096799Y-92125162D01*
X116724833Y-92124838D01*
X116381057Y-92266883D01*
X116117808Y-92529673D01*
X115975162Y-92873201D01*
X115974838Y-93245167D01*
X116116883Y-93588943D01*
X116170000Y-93642153D01*
X116170000Y-95397536D01*
X116137808Y-95429672D01*
X115995162Y-95773200D01*
X115994838Y-96145166D01*
X116136883Y-96488942D01*
X116170000Y-96522117D01*
X116170000Y-100032640D01*
X116227852Y-100323479D01*
X116392599Y-100570041D01*
X116875844Y-101053286D01*
X116875804Y-101098773D01*
X117017849Y-101442549D01*
X117081356Y-101506166D01*
X117057808Y-101529673D01*
X116915162Y-101873201D01*
X116914838Y-102245167D01*
X117056883Y-102588943D01*
X117319673Y-102852192D01*
X117663201Y-102994838D01*
X118035167Y-102995162D01*
X118378943Y-102853117D01*
X118412118Y-102820000D01*
X121749030Y-102820000D01*
X121960624Y-102907862D01*
X122332590Y-102908186D01*
X122646869Y-102778329D01*
X121785198Y-103640000D01*
X115732463Y-103640000D01*
X115700327Y-103607808D01*
X115356799Y-103465162D01*
X114984833Y-103464838D01*
X114641057Y-103606883D01*
X114377808Y-103869673D01*
X114235162Y-104213201D01*
X114234838Y-104585167D01*
X114351121Y-104866593D01*
X114217808Y-104999673D01*
X114172819Y-105108017D01*
X105049969Y-95985167D01*
X114124838Y-95985167D01*
X114266883Y-96328943D01*
X114529673Y-96592192D01*
X114873201Y-96734838D01*
X115245167Y-96735162D01*
X115588943Y-96593117D01*
X115852192Y-96330327D01*
X115994838Y-95986799D01*
X115995162Y-95614833D01*
X115853117Y-95271057D01*
X115820000Y-95237882D01*
X115820000Y-92374802D01*
X118311280Y-89883522D01*
X118469673Y-90042192D01*
X118813201Y-90184838D01*
X119185167Y-90185162D01*
X119528943Y-90043117D01*
X119632240Y-89940000D01*
X122027537Y-89940000D01*
X122059673Y-89972192D01*
X122403201Y-90114838D01*
X122775167Y-90115162D01*
X123118943Y-89973117D01*
X123382192Y-89710327D01*
X123524838Y-89366799D01*
X123525162Y-88994833D01*
X123383117Y-88651057D01*
X123120327Y-88387808D01*
X122776799Y-88245162D01*
X122404833Y-88244838D01*
X122061057Y-88386883D01*
X122027882Y-88420000D01*
X119774802Y-88420000D01*
X122390522Y-85804280D01*
X136534746Y-85804280D01*
X136728553Y-86094334D01*
X137069253Y-86321982D01*
X136926342Y-86389097D01*
X136536055Y-86817356D01*
X136366224Y-87227390D01*
X136487545Y-87457280D01*
X137680700Y-87457280D01*
X137680700Y-87437280D01*
X137934700Y-87437280D01*
X137934700Y-87457280D01*
X139127855Y-87457280D01*
X139249176Y-87227390D01*
X139079345Y-86817356D01*
X138689058Y-86389097D01*
X138546147Y-86321982D01*
X138886847Y-86094334D01*
X139208754Y-85612565D01*
X139321793Y-85044280D01*
X139208754Y-84475995D01*
X138886847Y-83994226D01*
X138405078Y-83672319D01*
X137836793Y-83559280D01*
X137778607Y-83559280D01*
X137210322Y-83672319D01*
X136728553Y-83994226D01*
X136534746Y-84284280D01*
X135789617Y-84284280D01*
X135904838Y-84006799D01*
X135905162Y-83634833D01*
X135763117Y-83291057D01*
X135500327Y-83027808D01*
X135156799Y-82885162D01*
X134784833Y-82884838D01*
X134441057Y-83026883D01*
X134407882Y-83060000D01*
X127692149Y-83060000D01*
X127480327Y-82847808D01*
X127136799Y-82705162D01*
X126764833Y-82704838D01*
X126421057Y-82846883D01*
X126157808Y-83109673D01*
X126015162Y-83453201D01*
X126014838Y-83825167D01*
X126156883Y-84168943D01*
X126272019Y-84284280D01*
X122075720Y-84284280D01*
X121784880Y-84342132D01*
X121538319Y-84506879D01*
X114522599Y-91522599D01*
X114357852Y-91769161D01*
X114300000Y-92060000D01*
X114300000Y-95237537D01*
X114267808Y-95269673D01*
X114125162Y-95613201D01*
X114124838Y-95985167D01*
X105049969Y-95985167D01*
X102405122Y-93340320D01*
X102405162Y-93294833D01*
X102263117Y-92951057D01*
X102000327Y-92687808D01*
X101656799Y-92545162D01*
X101284833Y-92544838D01*
X100941057Y-92686883D01*
X100677808Y-92949673D01*
X100535162Y-93293201D01*
X100534838Y-93665167D01*
X100676883Y-94008943D01*
X100939673Y-94272192D01*
X101283201Y-94414838D01*
X101330077Y-94414879D01*
X115872599Y-108957401D01*
X116119161Y-109122148D01*
X116410000Y-109180000D01*
X124525198Y-109180000D01*
X124110186Y-109595012D01*
X115359814Y-109595012D01*
X102375122Y-96610320D01*
X102375162Y-96564833D01*
X102233117Y-96221057D01*
X101970327Y-95957808D01*
X101626799Y-95815162D01*
X101254833Y-95814838D01*
X100911057Y-95956883D01*
X100647808Y-96219673D01*
X100505162Y-96563201D01*
X100504838Y-96935167D01*
X100646883Y-97278943D01*
X100909673Y-97542192D01*
X101253201Y-97684838D01*
X101300077Y-97684879D01*
X114315198Y-110700000D01*
X113634802Y-110700000D01*
X102255122Y-99320320D01*
X102255162Y-99274833D01*
X102113117Y-98931057D01*
X101850327Y-98667808D01*
X101506799Y-98525162D01*
X101134833Y-98524838D01*
X100791057Y-98666883D01*
X100527808Y-98929673D01*
X100385162Y-99273201D01*
X100384838Y-99645167D01*
X100526883Y-99988943D01*
X100789673Y-100252192D01*
X101133201Y-100394838D01*
X101180077Y-100394879D01*
X101778100Y-100992902D01*
X101566799Y-100905162D01*
X101194833Y-100904838D01*
X100851057Y-101046883D01*
X100587808Y-101309673D01*
X100445162Y-101653201D01*
X100444838Y-102025167D01*
X100586883Y-102368943D01*
X100849673Y-102632192D01*
X101193201Y-102774838D01*
X101240077Y-102774879D01*
X111642599Y-113177401D01*
X111889160Y-113342148D01*
X111937414Y-113351746D01*
X112180000Y-113400000D01*
X126467537Y-113400000D01*
X126499673Y-113432192D01*
X126825392Y-113567443D01*
X126596806Y-113661893D01*
X126563631Y-113695010D01*
X124884990Y-113695010D01*
X124594151Y-113752862D01*
X124347589Y-113917609D01*
X121650320Y-116614878D01*
X121604833Y-116614838D01*
X121261057Y-116756883D01*
X120997808Y-117019673D01*
X120855162Y-117363201D01*
X120854838Y-117735167D01*
X120996883Y-118078943D01*
X121259673Y-118342192D01*
X121603201Y-118484838D01*
X121975167Y-118485162D01*
X122318943Y-118343117D01*
X122582192Y-118080327D01*
X122724838Y-117736799D01*
X122724879Y-117689923D01*
X123300000Y-117114802D01*
X123300000Y-117537537D01*
X123267808Y-117569673D01*
X123125162Y-117913201D01*
X123124838Y-118285167D01*
X123266883Y-118628943D01*
X123529673Y-118892192D01*
X123873201Y-119034838D01*
X124245167Y-119035162D01*
X124588943Y-118893117D01*
X124852192Y-118630327D01*
X124994838Y-118286799D01*
X124995162Y-117914833D01*
X124853117Y-117571057D01*
X124820000Y-117537882D01*
X124820000Y-116984802D01*
X125264884Y-116539918D01*
X125320317Y-116595447D01*
X125663845Y-116738093D01*
X125710721Y-116738134D01*
X125939988Y-116967401D01*
X126186549Y-117132148D01*
X126477389Y-117190000D01*
X129297537Y-117190000D01*
X129329673Y-117222192D01*
X129673201Y-117364838D01*
X130045167Y-117365162D01*
X130388943Y-117223117D01*
X130652192Y-116960327D01*
X130794838Y-116616799D01*
X130795162Y-116244833D01*
X130653117Y-115901057D01*
X130390327Y-115637808D01*
X130046799Y-115495162D01*
X129674833Y-115494838D01*
X129331057Y-115636883D01*
X129297882Y-115670000D01*
X127909272Y-115670000D01*
X127913162Y-115667401D01*
X128706114Y-114874449D01*
X128870861Y-114627888D01*
X128903295Y-114464831D01*
X128928713Y-114337048D01*
X128928713Y-113827718D01*
X128960905Y-113795582D01*
X129103551Y-113452054D01*
X129103875Y-113080088D01*
X128961830Y-112736312D01*
X128699040Y-112473063D01*
X128478383Y-112381438D01*
X128788943Y-112253117D01*
X129052192Y-111990327D01*
X129194838Y-111646799D01*
X129195162Y-111274833D01*
X129053117Y-110931057D01*
X128790327Y-110667808D01*
X128446799Y-110525162D01*
X128074833Y-110524838D01*
X127731057Y-110666883D01*
X127697882Y-110700000D01*
X125154802Y-110700000D01*
X125649680Y-110205122D01*
X125695167Y-110205162D01*
X126038943Y-110063117D01*
X126302192Y-109800327D01*
X126444838Y-109456799D01*
X126445116Y-109137076D01*
X126632192Y-108950327D01*
X126774838Y-108606799D01*
X126775162Y-108234833D01*
X126661604Y-107960000D01*
X138887537Y-107960000D01*
X138919673Y-107992192D01*
X139263201Y-108134838D01*
X139635167Y-108135162D01*
X139913541Y-108020140D01*
X140032632Y-121120104D01*
X137802987Y-124268401D01*
X137629862Y-124320915D01*
X95489722Y-123883302D01*
X94516406Y-123412563D01*
X94674221Y-123428110D01*
X94741380Y-123421497D01*
X94808535Y-123428110D01*
X95120685Y-123397360D01*
X95185235Y-123377778D01*
X95252370Y-123371166D01*
X95552530Y-123280116D01*
X95612041Y-123248307D01*
X95676612Y-123228718D01*
X95953222Y-123080858D01*
X96005359Y-123038068D01*
X96064844Y-123006275D01*
X96307304Y-122807305D01*
X96350114Y-122755144D01*
X96402274Y-122712337D01*
X96601254Y-122469877D01*
X96633055Y-122410382D01*
X96675853Y-122358233D01*
X96823713Y-122081613D01*
X96843302Y-122017039D01*
X96875110Y-121957526D01*
X96966150Y-121657376D01*
X96972759Y-121590250D01*
X96992340Y-121525705D01*
X97023090Y-121213554D01*
X97016477Y-121146400D01*
X97023079Y-121079349D01*
X134459689Y-121079349D01*
X134466302Y-121146399D01*
X134459689Y-121213446D01*
X134490389Y-121525596D01*
X134509994Y-121590258D01*
X134516627Y-121657496D01*
X134607727Y-121957646D01*
X134639489Y-122017047D01*
X134659033Y-122081511D01*
X134806833Y-122358131D01*
X134849668Y-122410342D01*
X134881507Y-122469903D01*
X135080507Y-122712363D01*
X135132680Y-122755176D01*
X135175499Y-122807340D01*
X135417999Y-123006310D01*
X135477458Y-123038083D01*
X135529569Y-123080853D01*
X135806169Y-123228713D01*
X135870757Y-123248308D01*
X135930284Y-123280123D01*
X136230484Y-123371173D01*
X136297600Y-123377780D01*
X136362135Y-123397359D01*
X136674235Y-123428109D01*
X136741400Y-123421496D01*
X136808565Y-123428109D01*
X137120665Y-123397359D01*
X137185200Y-123377780D01*
X137252316Y-123371173D01*
X137552516Y-123280123D01*
X137612043Y-123248308D01*
X137676631Y-123228713D01*
X137953231Y-123080853D01*
X138005342Y-123038083D01*
X138064801Y-123006310D01*
X138307301Y-122807340D01*
X138350173Y-122755112D01*
X138402400Y-122712233D01*
X138601300Y-122469773D01*
X138633040Y-122410363D01*
X138675777Y-122358301D01*
X138823677Y-122081680D01*
X138843297Y-122017031D01*
X138875134Y-121957446D01*
X138966134Y-121657296D01*
X138972726Y-121590266D01*
X138992290Y-121525813D01*
X139023090Y-121213663D01*
X139016477Y-121146395D01*
X139023089Y-121079133D01*
X138992289Y-120767003D01*
X138972727Y-120702557D01*
X138966136Y-120635530D01*
X138875136Y-120335370D01*
X138843295Y-120275777D01*
X138823672Y-120211120D01*
X138675772Y-119934510D01*
X138633038Y-119882453D01*
X138601300Y-119823047D01*
X138402400Y-119580587D01*
X138350181Y-119537714D01*
X138307315Y-119485491D01*
X138064814Y-119286511D01*
X138005349Y-119254733D01*
X137953231Y-119211957D01*
X137676631Y-119064097D01*
X137612033Y-119044499D01*
X137552496Y-119012681D01*
X137252296Y-118921641D01*
X137185190Y-118915037D01*
X137120665Y-118895461D01*
X136808565Y-118864711D01*
X136741400Y-118871324D01*
X136674235Y-118864711D01*
X136362135Y-118895461D01*
X136297610Y-118915037D01*
X136230504Y-118921641D01*
X135930304Y-119012681D01*
X135870767Y-119044499D01*
X135806169Y-119064097D01*
X135529569Y-119211957D01*
X135477451Y-119254733D01*
X135417986Y-119286511D01*
X135175486Y-119485491D01*
X135132674Y-119537649D01*
X135080507Y-119580457D01*
X134881507Y-119822917D01*
X134849670Y-119882474D01*
X134806838Y-119934680D01*
X134659038Y-120211290D01*
X134639491Y-120275760D01*
X134607725Y-120335170D01*
X134516625Y-120635330D01*
X134509993Y-120702563D01*
X134490389Y-120767220D01*
X134459689Y-121079349D01*
X97023079Y-121079349D01*
X97023090Y-121079241D01*
X96992340Y-120767111D01*
X96972760Y-120702571D01*
X96966152Y-120635450D01*
X96875112Y-120335290D01*
X96843300Y-120275769D01*
X96823708Y-120211188D01*
X96675848Y-119934578D01*
X96633052Y-119882434D01*
X96601254Y-119822943D01*
X96402274Y-119580483D01*
X96350119Y-119537681D01*
X96307317Y-119485526D01*
X96064857Y-119286546D01*
X96005366Y-119254748D01*
X95953222Y-119211952D01*
X95676612Y-119064092D01*
X95612031Y-119044500D01*
X95552510Y-119012688D01*
X95252350Y-118921648D01*
X95185230Y-118915040D01*
X95120689Y-118895460D01*
X94808559Y-118864710D01*
X94741400Y-118871323D01*
X94674246Y-118864710D01*
X94362095Y-118895460D01*
X94297550Y-118915041D01*
X94230424Y-118921650D01*
X93930274Y-119012690D01*
X93870761Y-119044498D01*
X93806187Y-119064087D01*
X93529567Y-119211947D01*
X93477418Y-119254745D01*
X93417923Y-119286546D01*
X93175463Y-119485526D01*
X93132656Y-119537686D01*
X93080495Y-119580496D01*
X92881525Y-119822956D01*
X92849732Y-119882441D01*
X92806942Y-119934578D01*
X92659082Y-120211188D01*
X92639493Y-120275759D01*
X92607684Y-120335270D01*
X92516634Y-120635430D01*
X92510023Y-120702561D01*
X92490440Y-120767111D01*
X92459690Y-121079241D01*
X92466303Y-121146400D01*
X92459690Y-121213555D01*
X92490440Y-121525705D01*
X92510024Y-121590260D01*
X92516636Y-121657396D01*
X92607686Y-121957546D01*
X92639491Y-122017049D01*
X92659077Y-122081613D01*
X92806937Y-122358233D01*
X92849730Y-122410375D01*
X92881525Y-122469864D01*
X93080495Y-122712324D01*
X93097606Y-122726367D01*
X91549511Y-121977639D01*
X91493349Y-121792487D01*
X91441028Y-121261266D01*
X91884676Y-118974185D01*
X91886998Y-118950682D01*
X91888208Y-118725167D01*
X110694838Y-118725167D01*
X110836883Y-119068943D01*
X111099673Y-119332192D01*
X111443201Y-119474838D01*
X111815167Y-119475162D01*
X112158943Y-119333117D01*
X112192118Y-119300000D01*
X112369998Y-119300000D01*
X112660837Y-119242148D01*
X112907399Y-119077401D01*
X116399680Y-115585120D01*
X116445167Y-115585160D01*
X116788943Y-115443115D01*
X117052192Y-115180325D01*
X117194838Y-114836797D01*
X117195162Y-114464831D01*
X117053117Y-114121055D01*
X116790327Y-113857806D01*
X116446799Y-113715160D01*
X116074833Y-113714836D01*
X115731057Y-113856881D01*
X115467808Y-114119671D01*
X115325162Y-114463199D01*
X115325121Y-114510075D01*
X112108789Y-117726407D01*
X111816799Y-117605162D01*
X111444833Y-117604838D01*
X111101057Y-117746883D01*
X110837808Y-118009673D01*
X110695162Y-118353201D01*
X110694838Y-118725167D01*
X91888208Y-118725167D01*
X91896424Y-117195167D01*
X96864838Y-117195167D01*
X97006883Y-117538943D01*
X97269673Y-117802192D01*
X97613201Y-117944838D01*
X97985167Y-117945162D01*
X98328943Y-117803117D01*
X98362118Y-117770000D01*
X101870000Y-117770000D01*
X102146295Y-117715041D01*
X102285167Y-117715162D01*
X102628943Y-117573117D01*
X102892192Y-117310327D01*
X103034838Y-116966799D01*
X103035162Y-116594833D01*
X102950527Y-116390000D01*
X103681709Y-116390000D01*
X103972548Y-116332148D01*
X104219110Y-116167401D01*
X105316399Y-115070112D01*
X105361886Y-115070152D01*
X105705662Y-114928107D01*
X105968911Y-114665317D01*
X106111557Y-114321789D01*
X106111881Y-113949823D01*
X105969836Y-113606047D01*
X105707046Y-113342798D01*
X105363518Y-113200152D01*
X104991552Y-113199828D01*
X104647776Y-113341873D01*
X104384527Y-113604663D01*
X104241881Y-113948191D01*
X104241840Y-113995067D01*
X103366907Y-114870000D01*
X98722463Y-114870000D01*
X98690327Y-114837808D01*
X98346799Y-114695162D01*
X97974833Y-114694838D01*
X97631057Y-114836883D01*
X97367808Y-115099673D01*
X97225162Y-115443201D01*
X97224838Y-115815167D01*
X97366883Y-116158943D01*
X97379849Y-116171931D01*
X97271057Y-116216883D01*
X97007808Y-116479673D01*
X96865162Y-116823201D01*
X96864838Y-117195167D01*
X91896424Y-117195167D01*
X91925897Y-111706349D01*
X107133610Y-111706349D01*
X107283251Y-112068509D01*
X107560094Y-112345835D01*
X107921992Y-112496108D01*
X108313849Y-112496450D01*
X108676009Y-112346809D01*
X108953335Y-112069966D01*
X109103608Y-111708068D01*
X109103950Y-111316211D01*
X108954309Y-110954051D01*
X108677466Y-110676725D01*
X108315568Y-110526452D01*
X107923711Y-110526110D01*
X107561551Y-110675751D01*
X107284225Y-110952594D01*
X107133952Y-111314492D01*
X107133610Y-111706349D01*
X91925897Y-111706349D01*
X92072445Y-84415167D01*
X97144838Y-84415167D01*
X97286883Y-84758943D01*
X97549673Y-85022192D01*
X97893201Y-85164838D01*
X97940077Y-85164879D01*
X100207589Y-87432391D01*
X100454151Y-87597138D01*
X100744990Y-87654990D01*
X104340208Y-87654990D01*
X104132599Y-87862599D01*
X103967852Y-88109161D01*
X103910000Y-88400000D01*
X103910000Y-92977537D01*
X103877808Y-93009673D01*
X103735162Y-93353201D01*
X103734838Y-93725167D01*
X103876883Y-94068943D01*
X104139673Y-94332192D01*
X104483201Y-94474838D01*
X104855167Y-94475162D01*
X105198943Y-94333117D01*
X105462192Y-94070327D01*
X105604838Y-93726799D01*
X105605162Y-93354833D01*
X105463117Y-93011057D01*
X105430000Y-92977882D01*
X105430000Y-88714802D01*
X105689680Y-88455122D01*
X105735167Y-88455162D01*
X106078943Y-88313117D01*
X106112118Y-88280000D01*
X107511575Y-88280000D01*
X107448408Y-88306100D01*
X107114771Y-88639155D01*
X106933986Y-89074535D01*
X106933574Y-89545957D01*
X107113600Y-89981652D01*
X107446655Y-90315289D01*
X107882035Y-90496074D01*
X108353457Y-90496486D01*
X108789152Y-90316460D01*
X109122789Y-89983405D01*
X109303574Y-89548025D01*
X109303986Y-89076603D01*
X109123960Y-88640908D01*
X108790905Y-88307271D01*
X108725229Y-88280000D01*
X115664760Y-88280000D01*
X115955599Y-88222148D01*
X116202161Y-88057401D01*
X121258952Y-83000610D01*
X121625360Y-83073493D01*
X122193645Y-82960454D01*
X122675414Y-82638547D01*
X122703210Y-82596948D01*
X122712198Y-82644717D01*
X122851270Y-82860841D01*
X123063470Y-83005831D01*
X123315360Y-83056840D01*
X125015360Y-83056840D01*
X125250677Y-83012562D01*
X125466801Y-82873490D01*
X125611791Y-82661290D01*
X125662800Y-82409400D01*
X125662800Y-80709400D01*
X125618522Y-80474083D01*
X125535567Y-80345167D01*
X125884838Y-80345167D01*
X126026883Y-80688943D01*
X126289673Y-80952192D01*
X126633201Y-81094838D01*
X127005167Y-81095162D01*
X127348943Y-80953117D01*
X127382118Y-80920000D01*
X127460000Y-80920000D01*
X127750839Y-80862148D01*
X127997401Y-80697401D01*
X128939680Y-79755122D01*
X128985167Y-79755162D01*
X129328943Y-79613117D01*
X129592192Y-79350327D01*
X129704714Y-79079343D01*
X134459690Y-79079343D01*
X134466303Y-79146400D01*
X134459690Y-79213457D01*
X134490390Y-79525557D01*
X134509989Y-79590196D01*
X134516617Y-79657416D01*
X134607717Y-79957615D01*
X134639489Y-80017040D01*
X134659042Y-80081529D01*
X134806842Y-80358129D01*
X134849656Y-80410312D01*
X134881472Y-80469840D01*
X135080472Y-80712340D01*
X135132642Y-80755158D01*
X135175460Y-80807328D01*
X135417959Y-81006328D01*
X135477489Y-81038145D01*
X135529671Y-81080958D01*
X135806271Y-81228758D01*
X135870758Y-81248311D01*
X135930184Y-81280083D01*
X136230384Y-81371183D01*
X136297604Y-81377811D01*
X136362243Y-81397410D01*
X136674343Y-81428110D01*
X136741400Y-81421497D01*
X136808457Y-81428110D01*
X137120557Y-81397410D01*
X137185196Y-81377811D01*
X137252416Y-81371183D01*
X137552615Y-81280083D01*
X137612040Y-81248311D01*
X137676529Y-81228758D01*
X137953129Y-81080958D01*
X138005312Y-81038144D01*
X138064840Y-81006328D01*
X138307340Y-80807328D01*
X138350210Y-80755094D01*
X138402435Y-80712210D01*
X138601335Y-80469710D01*
X138633053Y-80410330D01*
X138675767Y-80358299D01*
X138823667Y-80081699D01*
X138843296Y-80017025D01*
X138875143Y-79957416D01*
X138966143Y-79657216D01*
X138972730Y-79590206D01*
X138992289Y-79525773D01*
X139023089Y-79213673D01*
X139016476Y-79146400D01*
X139023089Y-79079127D01*
X138992289Y-78767027D01*
X138972730Y-78702594D01*
X138966143Y-78635584D01*
X138875143Y-78335384D01*
X138843296Y-78275775D01*
X138823667Y-78211101D01*
X138675767Y-77934501D01*
X138633053Y-77882470D01*
X138601335Y-77823090D01*
X138402435Y-77580590D01*
X138350147Y-77537654D01*
X138307210Y-77485365D01*
X138064710Y-77286465D01*
X138005330Y-77254747D01*
X137953299Y-77212033D01*
X137676699Y-77064133D01*
X137612024Y-77044503D01*
X137552415Y-77012657D01*
X137252216Y-76921657D01*
X137185206Y-76915070D01*
X137120773Y-76895511D01*
X136808673Y-76864711D01*
X136741400Y-76871324D01*
X136674127Y-76864711D01*
X136362027Y-76895511D01*
X136297594Y-76915070D01*
X136230584Y-76921657D01*
X135930384Y-77012657D01*
X135870775Y-77044504D01*
X135806101Y-77064133D01*
X135529501Y-77212033D01*
X135477470Y-77254747D01*
X135418090Y-77286465D01*
X135175590Y-77485365D01*
X135132706Y-77537590D01*
X135080472Y-77580460D01*
X134881472Y-77822960D01*
X134849656Y-77882488D01*
X134806842Y-77934671D01*
X134659042Y-78211271D01*
X134639489Y-78275760D01*
X134607717Y-78335185D01*
X134516617Y-78635384D01*
X134509989Y-78702604D01*
X134490390Y-78767243D01*
X134459690Y-79079343D01*
X129704714Y-79079343D01*
X129734838Y-79006799D01*
X129735162Y-78634833D01*
X129593117Y-78291057D01*
X129330327Y-78027808D01*
X128986799Y-77885162D01*
X128614833Y-77884838D01*
X128271057Y-78026883D01*
X128007808Y-78289673D01*
X127865162Y-78633201D01*
X127865121Y-78680077D01*
X127228131Y-79317067D01*
X127006799Y-79225162D01*
X126634833Y-79224838D01*
X126291057Y-79366883D01*
X126027808Y-79629673D01*
X125885162Y-79973201D01*
X125884838Y-80345167D01*
X125535567Y-80345167D01*
X125479450Y-80257959D01*
X125267250Y-80112969D01*
X125015360Y-80061960D01*
X123315360Y-80061960D01*
X123080043Y-80106238D01*
X122863919Y-80245310D01*
X122718929Y-80457510D01*
X122705274Y-80524941D01*
X122675414Y-80480253D01*
X122193645Y-80158346D01*
X121625360Y-80045307D01*
X121057075Y-80158346D01*
X120575306Y-80480253D01*
X120347658Y-80820953D01*
X120280543Y-80678042D01*
X119852284Y-80287755D01*
X119442250Y-80117924D01*
X119212360Y-80239245D01*
X119212360Y-81432400D01*
X119232360Y-81432400D01*
X119232360Y-81686400D01*
X119212360Y-81686400D01*
X119212360Y-81706400D01*
X118958360Y-81706400D01*
X118958360Y-81686400D01*
X117764541Y-81686400D01*
X117643874Y-81916292D01*
X117890177Y-82440758D01*
X118318436Y-82831045D01*
X118728470Y-83000876D01*
X118958358Y-82879556D01*
X118958358Y-83044400D01*
X119065558Y-83044400D01*
X115349958Y-86760000D01*
X109457843Y-86760000D01*
X113273433Y-82944410D01*
X115547537Y-82944410D01*
X115579673Y-82976602D01*
X115923201Y-83119248D01*
X116295167Y-83119572D01*
X116638943Y-82977527D01*
X116902192Y-82714737D01*
X117044838Y-82371209D01*
X117045162Y-81999243D01*
X116903117Y-81655467D01*
X116640327Y-81392218D01*
X116296799Y-81249572D01*
X115924833Y-81249248D01*
X115581057Y-81391293D01*
X115547882Y-81424410D01*
X112958631Y-81424410D01*
X112667792Y-81482262D01*
X112421230Y-81647009D01*
X108108371Y-85959868D01*
X108062884Y-85959828D01*
X107719108Y-86101873D01*
X107685933Y-86134990D01*
X101059792Y-86134990D01*
X99015122Y-84090320D01*
X99015162Y-84044833D01*
X98873117Y-83701057D01*
X98610327Y-83437808D01*
X98266799Y-83295162D01*
X97894833Y-83294838D01*
X97551057Y-83436883D01*
X97287808Y-83699673D01*
X97145162Y-84043201D01*
X97144838Y-84415167D01*
X92072445Y-84415167D01*
X92101098Y-79079235D01*
X92459691Y-79079235D01*
X92466304Y-79146400D01*
X92459691Y-79213565D01*
X92490441Y-79525665D01*
X92510020Y-79590200D01*
X92516627Y-79657316D01*
X92607677Y-79957516D01*
X92639492Y-80017043D01*
X92659087Y-80081631D01*
X92806947Y-80358231D01*
X92849717Y-80410342D01*
X92881490Y-80469801D01*
X93080460Y-80712301D01*
X93132625Y-80755121D01*
X93175437Y-80807293D01*
X93417897Y-81006292D01*
X93477455Y-81038130D01*
X93529669Y-81080967D01*
X93806290Y-81228768D01*
X93870755Y-81248312D01*
X93930154Y-81280073D01*
X94230304Y-81371174D01*
X94297541Y-81377806D01*
X94362199Y-81397411D01*
X94674329Y-81428110D01*
X94741375Y-81421497D01*
X94808426Y-81428111D01*
X95120576Y-81397411D01*
X95185234Y-81377807D01*
X95252470Y-81371175D01*
X95552630Y-81280075D01*
X95612040Y-81248309D01*
X95676510Y-81228762D01*
X95725644Y-81202508D01*
X117643874Y-81202508D01*
X117764541Y-81432400D01*
X118958360Y-81432400D01*
X118958360Y-80239245D01*
X118728470Y-80117924D01*
X118318436Y-80287755D01*
X117890177Y-80678042D01*
X117643874Y-81202508D01*
X95725644Y-81202508D01*
X95953120Y-81080962D01*
X96005326Y-81038130D01*
X96064883Y-81006293D01*
X96307343Y-80807293D01*
X96350151Y-80755126D01*
X96402309Y-80712314D01*
X96601289Y-80469814D01*
X96633067Y-80410349D01*
X96675843Y-80358231D01*
X96823703Y-80081631D01*
X96843301Y-80017033D01*
X96875119Y-79957496D01*
X96966159Y-79657296D01*
X96972763Y-79590190D01*
X96992339Y-79525665D01*
X97023089Y-79213565D01*
X97016476Y-79146400D01*
X97023089Y-79079235D01*
X96992339Y-78767135D01*
X96972763Y-78702610D01*
X96966159Y-78635504D01*
X96875119Y-78335304D01*
X96843301Y-78275767D01*
X96823703Y-78211169D01*
X96690246Y-77961512D01*
X117547354Y-77961512D01*
X117793657Y-78485978D01*
X118221916Y-78876265D01*
X118631950Y-79046096D01*
X118861840Y-78924775D01*
X118861840Y-77731620D01*
X117668021Y-77731620D01*
X117547354Y-77961512D01*
X96690246Y-77961512D01*
X96675843Y-77934569D01*
X96633067Y-77882451D01*
X96601289Y-77822986D01*
X96402309Y-77580486D01*
X96350088Y-77537622D01*
X96307213Y-77485400D01*
X96064753Y-77286500D01*
X96005347Y-77254762D01*
X95996779Y-77247728D01*
X117547354Y-77247728D01*
X117668021Y-77477620D01*
X118861840Y-77477620D01*
X118861840Y-76284465D01*
X119115840Y-76284465D01*
X119115840Y-77477620D01*
X119135840Y-77477620D01*
X119135840Y-77731620D01*
X119115840Y-77731620D01*
X119115840Y-78924775D01*
X119345730Y-79046096D01*
X119755764Y-78876265D01*
X120184023Y-78485978D01*
X120251138Y-78343067D01*
X120478786Y-78683767D01*
X120960555Y-79005674D01*
X121528840Y-79118713D01*
X122097125Y-79005674D01*
X122578894Y-78683767D01*
X122606690Y-78642168D01*
X122615678Y-78689937D01*
X122754750Y-78906061D01*
X122966950Y-79051051D01*
X123218840Y-79102060D01*
X124918840Y-79102060D01*
X125154157Y-79057782D01*
X125370281Y-78918710D01*
X125515271Y-78706510D01*
X125566280Y-78454620D01*
X125566280Y-76754620D01*
X125522002Y-76519303D01*
X125382930Y-76303179D01*
X125170730Y-76158189D01*
X124918840Y-76107180D01*
X123218840Y-76107180D01*
X122983523Y-76151458D01*
X122767399Y-76290530D01*
X122622409Y-76502730D01*
X122608754Y-76570161D01*
X122578894Y-76525473D01*
X122097125Y-76203566D01*
X121528840Y-76090527D01*
X120960555Y-76203566D01*
X120478786Y-76525473D01*
X120251138Y-76866173D01*
X120184023Y-76723262D01*
X119755764Y-76332975D01*
X119345730Y-76163144D01*
X119115840Y-76284465D01*
X118861840Y-76284465D01*
X118631950Y-76163144D01*
X118221916Y-76332975D01*
X117793657Y-76723262D01*
X117547354Y-77247728D01*
X95996779Y-77247728D01*
X95953290Y-77212028D01*
X95676680Y-77064128D01*
X95612023Y-77044505D01*
X95552430Y-77012664D01*
X95252270Y-76921664D01*
X95185243Y-76915073D01*
X95120797Y-76895511D01*
X94808667Y-76864711D01*
X94741405Y-76871323D01*
X94674137Y-76864710D01*
X94361987Y-76895510D01*
X94297534Y-76915074D01*
X94230504Y-76921666D01*
X93930354Y-77012666D01*
X93870769Y-77044503D01*
X93806120Y-77064123D01*
X93529499Y-77212023D01*
X93477437Y-77254760D01*
X93418027Y-77286500D01*
X93175567Y-77485400D01*
X93132688Y-77537627D01*
X93080460Y-77580499D01*
X92881490Y-77822999D01*
X92849717Y-77882458D01*
X92806947Y-77934569D01*
X92659087Y-78211169D01*
X92639492Y-78275757D01*
X92607677Y-78335284D01*
X92516627Y-78635484D01*
X92510020Y-78702600D01*
X92490441Y-78767135D01*
X92459691Y-79079235D01*
X92101098Y-79079235D01*
X92106821Y-78013642D01*
X94160859Y-76056952D01*
X136518250Y-76017039D01*
X139643581Y-78324527D01*
M02*
