G04 #@! TF.GenerationSoftware,KiCad,Pcbnew,no-vcs-found-7722~57~ubuntu16.04.1*
G04 #@! TF.CreationDate,2017-02-25T10:09:19+01:00*
G04 #@! TF.ProjectId,GhostSensorboard,47686F737453656E736F72626F617264,rev?*
G04 #@! TF.FileFunction,Copper,L1,Top,Signal*
G04 #@! TF.FilePolarity,Positive*
%FSLAX46Y46*%
G04 Gerber Fmt 4.6, Leading zero omitted, Abs format (unit mm)*
G04 Created by KiCad (PCBNEW no-vcs-found-7722~57~ubuntu16.04.1) date Sat Feb 25 10:09:19 2017*
%MOMM*%
%LPD*%
G01*
G04 APERTURE LIST*
%ADD10C,0.100000*%
%ADD11R,0.750000X0.800000*%
%ADD12R,0.800000X0.750000*%
%ADD13R,1.200000X1.200000*%
%ADD14R,0.800000X0.900000*%
%ADD15R,1.200000X0.900000*%
%ADD16R,0.900000X1.200000*%
%ADD17R,1.450000X0.700000*%
%ADD18R,0.850000X0.300000*%
%ADD19R,0.300000X0.850000*%
%ADD20R,0.600000X1.550000*%
%ADD21R,1.200000X1.800000*%
%ADD22R,1.800000X0.800000*%
%ADD23R,1.300000X1.300000*%
%ADD24R,1.550000X0.600000*%
%ADD25R,1.800000X1.200000*%
%ADD26R,1.143000X0.508000*%
%ADD27R,0.500000X0.800000*%
%ADD28R,0.400000X0.800000*%
%ADD29R,0.800000X0.500000*%
%ADD30R,0.800000X0.400000*%
%ADD31R,0.300000X0.800000*%
%ADD32R,1.700000X1.700000*%
%ADD33O,1.700000X1.700000*%
%ADD34R,0.300000X0.450000*%
%ADD35R,0.450000X0.300000*%
%ADD36C,0.600000*%
%ADD37C,0.250000*%
G04 APERTURE END LIST*
D10*
D11*
X116464080Y-113329720D03*
X116464080Y-111829720D03*
D12*
X109434760Y-117899180D03*
X107934760Y-117899180D03*
D11*
X93893640Y-83064920D03*
X93893640Y-84564920D03*
D12*
X117735920Y-106725720D03*
X119235920Y-106725720D03*
X116684360Y-95239840D03*
X118184360Y-95239840D03*
X116770720Y-91892120D03*
X118270720Y-91892120D03*
X94870840Y-105369360D03*
X96370840Y-105369360D03*
X96868680Y-97790000D03*
X95368680Y-97790000D03*
D13*
X102473760Y-117584040D03*
X102473760Y-119784040D03*
D14*
X101371360Y-83654140D03*
X103271360Y-83654140D03*
X102321360Y-81654140D03*
X111318000Y-84050380D03*
X113218000Y-84050380D03*
X112268000Y-82050380D03*
D15*
X129237560Y-103449120D03*
X131437560Y-103449120D03*
X116156920Y-115763040D03*
X113956920Y-115763040D03*
D16*
X105410000Y-81737020D03*
X105410000Y-83937020D03*
X114226340Y-122425640D03*
X114226340Y-120225640D03*
D15*
X102532360Y-114655600D03*
X100332360Y-114655600D03*
D16*
X99049840Y-83865900D03*
X99049840Y-81665900D03*
X115559840Y-81792900D03*
X115559840Y-83992900D03*
X108935520Y-83901460D03*
X108935520Y-81701460D03*
X123261120Y-93830320D03*
X123261120Y-91630320D03*
X121005600Y-91493160D03*
X121005600Y-93693160D03*
D15*
X97218680Y-94147640D03*
X95018680Y-94147640D03*
D17*
X106038020Y-122452640D03*
X111198020Y-122452640D03*
X111198020Y-120452640D03*
X106038020Y-120452640D03*
D18*
X129905040Y-99675000D03*
X129905040Y-99175000D03*
X129905040Y-98675000D03*
X129905040Y-98175000D03*
X129905040Y-97675000D03*
X129905040Y-97175000D03*
D19*
X129205040Y-96475000D03*
X128705040Y-96475000D03*
X128205040Y-96475000D03*
X127705040Y-96475000D03*
X127205040Y-96475000D03*
X126705040Y-96475000D03*
D18*
X126005040Y-97175000D03*
X126005040Y-97675000D03*
X126005040Y-98175000D03*
X126005040Y-98675000D03*
X126005040Y-99175000D03*
X126005040Y-99675000D03*
D19*
X126705040Y-100375000D03*
X127205040Y-100375000D03*
X127705040Y-100375000D03*
X128205040Y-100375000D03*
X128705040Y-100375000D03*
X129205040Y-100375000D03*
D20*
X128469260Y-79695160D03*
X129469260Y-79695160D03*
X130469260Y-79695160D03*
X131469260Y-79695160D03*
D21*
X127169260Y-77170160D03*
X132769260Y-77170160D03*
D20*
X119680860Y-79695160D03*
X120680860Y-79695160D03*
X121680860Y-79695160D03*
X122680860Y-79695160D03*
D21*
X118380860Y-77170160D03*
X123980860Y-77170160D03*
D22*
X119451120Y-111328200D03*
X119451120Y-112598200D03*
X119451120Y-113868200D03*
X119451120Y-115138200D03*
D18*
X116769600Y-99156200D03*
X116769600Y-99656200D03*
X116769600Y-100156200D03*
X116769600Y-100656200D03*
X116769600Y-101156200D03*
X116769600Y-101656200D03*
D19*
X117469600Y-102356200D03*
X117969600Y-102356200D03*
X118469600Y-102356200D03*
X118969600Y-102356200D03*
X119469600Y-102356200D03*
X119969600Y-102356200D03*
D18*
X120669600Y-101656200D03*
X120669600Y-101156200D03*
X120669600Y-100656200D03*
X120669600Y-100156200D03*
X120669600Y-99656200D03*
X120669600Y-99156200D03*
D19*
X119969600Y-98456200D03*
X119469600Y-98456200D03*
X118969600Y-98456200D03*
X118469600Y-98456200D03*
X117969600Y-98456200D03*
X117469600Y-98456200D03*
D23*
X119369600Y-101056200D03*
X119369600Y-99756200D03*
X118069600Y-101056200D03*
X118069600Y-99756200D03*
D24*
X135696840Y-93117540D03*
X135696840Y-94117540D03*
X135696840Y-95117540D03*
X135696840Y-96117540D03*
D25*
X138221840Y-91817540D03*
X138221840Y-97417540D03*
D24*
X135696840Y-84834600D03*
X135696840Y-85834600D03*
X135696840Y-86834600D03*
X135696840Y-87834600D03*
D25*
X138221840Y-83534600D03*
X138221840Y-89134600D03*
D24*
X135752840Y-112186720D03*
X135752840Y-113186720D03*
X135752840Y-114186720D03*
X135752840Y-115186720D03*
D25*
X138277840Y-110886720D03*
X138277840Y-116486720D03*
D24*
X135714620Y-103234360D03*
X135714620Y-104234360D03*
X135714620Y-105234360D03*
X135714620Y-106234360D03*
D25*
X138239620Y-101934360D03*
X138239620Y-107534360D03*
D20*
X131045080Y-120487320D03*
X130045080Y-120487320D03*
X129045080Y-120487320D03*
X128045080Y-120487320D03*
D21*
X132345080Y-123012320D03*
X126745080Y-123012320D03*
D20*
X122762140Y-120566060D03*
X121762140Y-120566060D03*
X120762140Y-120566060D03*
X119762140Y-120566060D03*
D21*
X124062140Y-123091060D03*
X118462140Y-123091060D03*
D26*
X94117160Y-90982800D03*
X94117160Y-89712800D03*
X94117160Y-88442800D03*
X94117160Y-87172800D03*
X100467160Y-87172800D03*
X100467160Y-88442800D03*
X100467160Y-89712800D03*
X100467160Y-90982800D03*
D27*
X121489620Y-86762160D03*
D28*
X123089620Y-86762160D03*
X122289620Y-86762160D03*
D27*
X123889620Y-86762160D03*
D28*
X122289620Y-84962160D03*
D27*
X121489620Y-84962160D03*
D28*
X123089620Y-84962160D03*
D27*
X123889620Y-84962160D03*
D29*
X128792400Y-88213080D03*
D30*
X128792400Y-89813080D03*
X128792400Y-89013080D03*
D29*
X128792400Y-90613080D03*
D30*
X130592400Y-89013080D03*
D29*
X130592400Y-88213080D03*
D30*
X130592400Y-89813080D03*
D29*
X130592400Y-90613080D03*
D31*
X127901960Y-109677200D03*
X127901960Y-111477200D03*
X124401960Y-109677200D03*
X124401960Y-111477200D03*
X127401960Y-109677200D03*
X126901960Y-109677200D03*
X126401960Y-109677200D03*
X125901960Y-109677200D03*
X125401960Y-109677200D03*
X124901960Y-109677200D03*
X127401960Y-111477200D03*
X126901960Y-111477200D03*
X126401960Y-111477200D03*
X125401960Y-111477200D03*
X125901960Y-111477200D03*
X124901960Y-111477200D03*
D32*
X95001080Y-115402360D03*
D33*
X95001080Y-112862360D03*
X95001080Y-110322360D03*
D32*
X99664520Y-77767180D03*
D33*
X102204520Y-77767180D03*
X104744520Y-77767180D03*
D32*
X109816900Y-77701140D03*
D33*
X112356900Y-77701140D03*
X114896900Y-77701140D03*
D34*
X94957200Y-102844520D03*
X95457200Y-102844520D03*
X95957200Y-102844520D03*
X96457200Y-102844520D03*
D35*
X96982200Y-102319520D03*
X96982200Y-101819520D03*
X96982200Y-101319520D03*
X96982200Y-100819520D03*
D34*
X96457200Y-100294520D03*
X95957200Y-100294520D03*
X95457200Y-100294520D03*
X94957200Y-100294520D03*
D35*
X94432200Y-100819520D03*
X94432200Y-101319520D03*
X94432200Y-101819520D03*
X94432200Y-102319520D03*
D36*
X126690798Y-102936697D03*
X117596920Y-85369400D03*
X105023920Y-99263200D03*
X115463141Y-105083103D03*
X97774760Y-88844120D03*
X96565720Y-83992720D03*
X117811018Y-103864963D03*
X121859040Y-96438890D03*
X94066360Y-85973920D03*
X93974920Y-92537280D03*
X96771449Y-82080089D03*
X120165215Y-104838566D03*
X120975120Y-106807000D03*
X93446600Y-106497120D03*
X93253560Y-102707440D03*
X133736080Y-106923840D03*
X132024120Y-101092000D03*
X129595880Y-102031800D03*
X127645160Y-101711760D03*
X124644576Y-114516501D03*
X134203440Y-99293680D03*
X133898640Y-91023440D03*
X125887480Y-82458560D03*
X131485640Y-82214720D03*
X132212080Y-86715600D03*
X101396800Y-85719920D03*
X104421049Y-103539249D03*
X119598440Y-118008400D03*
X119395240Y-89489280D03*
X117510560Y-93761560D03*
X105003600Y-96225360D03*
X125489077Y-93128337D03*
X114655600Y-96301560D03*
X114726720Y-98059240D03*
X118672032Y-96208639D03*
X127543560Y-98221800D03*
X120685560Y-95813880D03*
X126270374Y-102171001D03*
X124765374Y-92765034D03*
X102877887Y-86317109D03*
X120766840Y-88620600D03*
X117877537Y-96114852D03*
X93309610Y-100180816D03*
X114073035Y-94586828D03*
X100848160Y-98415010D03*
X120283226Y-103579076D03*
X115356640Y-103306880D03*
X119278400Y-103946960D03*
X114030590Y-95385714D03*
X117535960Y-114985800D03*
X111465360Y-114432080D03*
X103129080Y-106669840D03*
X106034840Y-87238840D03*
X115026440Y-87833200D03*
X124794230Y-88554118D03*
X129580640Y-82737960D03*
X119781320Y-83753960D03*
X123072718Y-89128600D03*
X125648405Y-88524395D03*
X125846840Y-90241120D03*
X119684800Y-82621120D03*
X124169220Y-89333842D03*
X124998480Y-91221560D03*
X133344920Y-93781880D03*
X131429760Y-96824800D03*
X127904180Y-93702376D03*
X127061130Y-87751920D03*
X130006935Y-91450585D03*
X130134012Y-96206934D03*
X132521960Y-92816680D03*
X126289090Y-93128337D03*
X126435409Y-88668076D03*
X123146523Y-107779104D03*
X130581400Y-113238280D03*
X125595662Y-108022460D03*
X133380480Y-104648000D03*
X125928120Y-94848680D03*
X123895640Y-108059896D03*
X127591124Y-104535208D03*
X125226086Y-94465056D03*
X125229035Y-106584483D03*
X130330704Y-104022990D03*
X130042920Y-116453920D03*
X129976880Y-108183680D03*
X128999675Y-114023835D03*
X121762520Y-118247160D03*
X126163500Y-107458919D03*
X129905884Y-106898036D03*
X130977640Y-117190520D03*
X127575356Y-103735351D03*
X123667520Y-113385600D03*
X130139440Y-111363760D03*
X122433080Y-109098080D03*
X93878570Y-103811083D03*
X101132640Y-102656640D03*
X94793963Y-104044349D03*
X101122480Y-103936800D03*
D37*
X116156920Y-115763040D02*
X116156920Y-113636880D01*
X116156920Y-113636880D02*
X116464080Y-113329720D01*
X116464080Y-113329720D02*
X117089080Y-113329720D01*
X117820600Y-112598200D02*
X119451120Y-112598200D01*
X117089080Y-113329720D02*
X117820600Y-112598200D01*
X93220659Y-96900395D02*
X93220659Y-95996760D01*
X95457200Y-99136936D02*
X93220659Y-96900395D01*
X95457200Y-100294520D02*
X95457200Y-99136936D01*
X93220659Y-95996760D02*
X93220659Y-89021801D01*
X96868680Y-97790000D02*
X96868680Y-97165000D01*
X96868680Y-97165000D02*
X95700440Y-95996760D01*
X95700440Y-95996760D02*
X93220659Y-95996760D01*
X126005040Y-99675000D02*
X126005040Y-100075000D01*
X126266534Y-102936697D02*
X126690798Y-102936697D01*
X125645364Y-100434676D02*
X125645364Y-102816264D01*
X125765797Y-102936697D02*
X126266534Y-102936697D01*
X125645364Y-102816264D02*
X125765797Y-102936697D01*
X126005040Y-100075000D02*
X125645364Y-100434676D01*
X127115062Y-102936697D02*
X126690798Y-102936697D01*
X127743893Y-102936697D02*
X127115062Y-102936697D01*
X128605040Y-101050000D02*
X128605040Y-102075550D01*
X128205040Y-100650000D02*
X128605040Y-101050000D01*
X128205040Y-100375000D02*
X128205040Y-100650000D01*
X128605040Y-102075550D02*
X127743893Y-102936697D01*
X116770720Y-91892120D02*
X116770720Y-86195600D01*
X116770720Y-86195600D02*
X117596920Y-85369400D01*
X119451120Y-111328200D02*
X119451120Y-108415920D01*
X119451120Y-108415920D02*
X117760920Y-106725720D01*
X117760920Y-106725720D02*
X117735920Y-106725720D01*
X97957640Y-116117920D02*
X97957640Y-115818920D01*
X97957640Y-115818920D02*
X95001080Y-112862360D01*
X102473760Y-119784040D02*
X101623760Y-119784040D01*
X101623760Y-119784040D02*
X97957640Y-116117920D01*
X106038020Y-120452640D02*
X103142360Y-120452640D01*
X103142360Y-120452640D02*
X102473760Y-119784040D01*
X104723921Y-98963201D02*
X105023920Y-99263200D01*
X103550720Y-97790000D02*
X104723921Y-98963201D01*
X96868680Y-97790000D02*
X103550720Y-97790000D01*
X117710920Y-106725720D02*
X116068303Y-105083103D01*
X117735920Y-106725720D02*
X117710920Y-106725720D01*
X116068303Y-105083103D02*
X115463141Y-105083103D01*
X111198020Y-120452640D02*
X111198020Y-119637440D01*
X111198020Y-119637440D02*
X109459760Y-117899180D01*
X109459760Y-117899180D02*
X109434760Y-117899180D01*
X106038020Y-120452640D02*
X106038020Y-118435918D01*
X109409760Y-117899180D02*
X109434760Y-117899180D01*
X106038020Y-118435918D02*
X107274759Y-117199179D01*
X107274759Y-117199179D02*
X108709759Y-117199179D01*
X108709759Y-117199179D02*
X109409760Y-117899180D01*
X100467160Y-90982800D02*
X100467160Y-89712800D01*
X100467160Y-89712800D02*
X98643440Y-89712800D01*
X98643440Y-89712800D02*
X97774760Y-88844120D01*
X93893640Y-84564920D02*
X93893640Y-84589920D01*
X93893640Y-84589920D02*
X95013661Y-85709941D01*
X95013661Y-85709941D02*
X95013661Y-87863799D01*
X95013661Y-87863799D02*
X94434660Y-88442800D01*
X94434660Y-88442800D02*
X94117160Y-88442800D01*
X93893640Y-84564920D02*
X95993520Y-84564920D01*
X95993520Y-84564920D02*
X96565720Y-83992720D01*
X114896900Y-77701140D02*
X113721899Y-76526139D01*
X113721899Y-76526139D02*
X105985561Y-76526139D01*
X105985561Y-76526139D02*
X104744520Y-77767180D01*
X114896900Y-77701140D02*
X115746899Y-78551139D01*
X115746899Y-78551139D02*
X121561839Y-78551139D01*
X121561839Y-78551139D02*
X121680860Y-78670160D01*
X121680860Y-78670160D02*
X121680860Y-79695160D01*
X121680860Y-78670160D02*
X121755861Y-78595159D01*
X121755861Y-78595159D02*
X130394259Y-78595159D01*
X130394259Y-78595159D02*
X130469260Y-78670160D01*
X130469260Y-78670160D02*
X130469260Y-79695160D01*
X93220659Y-89021801D02*
X93799660Y-88442800D01*
X93799660Y-88442800D02*
X94117160Y-88442800D01*
X96457200Y-100294520D02*
X96457200Y-98201480D01*
X96457200Y-98201480D02*
X96868680Y-97790000D01*
X118111017Y-103564964D02*
X117811018Y-103864963D01*
X118469600Y-103167610D02*
X118111017Y-103526193D01*
X118469600Y-102356200D02*
X118469600Y-103167610D01*
X118111017Y-103526193D02*
X118111017Y-103564964D01*
X120669600Y-97628330D02*
X121859040Y-96438890D01*
X120669600Y-99156200D02*
X120669600Y-97628330D01*
X119451120Y-115138200D02*
X119951120Y-115138200D01*
X119951120Y-115138200D02*
X120676121Y-114413199D01*
X120676121Y-114413199D02*
X120676121Y-112053201D01*
X120676121Y-112053201D02*
X119951120Y-111328200D01*
X119951120Y-111328200D02*
X119451120Y-111328200D01*
X116464080Y-111829720D02*
X118949600Y-111829720D01*
X118949600Y-111829720D02*
X119451120Y-111328200D01*
X120762140Y-120566060D02*
X120762140Y-115949220D01*
X120762140Y-115949220D02*
X119951120Y-115138200D01*
X129045080Y-120487320D02*
X129045080Y-121512320D01*
X129045080Y-121512320D02*
X128891339Y-121666061D01*
X128891339Y-121666061D02*
X120837141Y-121666061D01*
X120837141Y-121666061D02*
X120762140Y-121591060D01*
X120762140Y-121591060D02*
X120762140Y-120566060D01*
X136852841Y-116374999D02*
X136852841Y-114261721D01*
X136852841Y-114261721D02*
X136777840Y-114186720D01*
X136777840Y-114186720D02*
X135752840Y-114186720D01*
X129045080Y-121512320D02*
X129120081Y-121587321D01*
X129120081Y-121587321D02*
X131640519Y-121587321D01*
X131640519Y-121587321D02*
X136852841Y-116374999D01*
X135696840Y-95117540D02*
X136721840Y-95117540D01*
X136814621Y-95210321D02*
X136814621Y-105159359D01*
X136721840Y-95117540D02*
X136814621Y-95210321D01*
X136814621Y-105159359D02*
X136739620Y-105234360D01*
X136739620Y-105234360D02*
X135714620Y-105234360D01*
X136721840Y-86834600D02*
X135696840Y-86834600D01*
X136721840Y-95117540D02*
X136796841Y-95042539D01*
X136796841Y-95042539D02*
X136796841Y-86909601D01*
X136796841Y-86909601D02*
X136721840Y-86834600D01*
X116770720Y-91892120D02*
X116770720Y-95153480D01*
X116770720Y-95153480D02*
X116684360Y-95239840D01*
X116684360Y-95239840D02*
X116684360Y-99070960D01*
X116684360Y-99070960D02*
X116769600Y-99156200D01*
X128705040Y-100375000D02*
X128205040Y-100375000D01*
X128205040Y-100375000D02*
X128205040Y-96475000D01*
X136739620Y-105234360D02*
X136852841Y-105347581D01*
X136852841Y-105347581D02*
X136852841Y-114111719D01*
X136852841Y-114111719D02*
X136777840Y-114186720D01*
X107934760Y-117899180D02*
X107934760Y-120930900D01*
X107934760Y-120930900D02*
X106413020Y-122452640D01*
X106413020Y-122452640D02*
X106038020Y-122452640D01*
X111198020Y-122452640D02*
X106038020Y-122452640D01*
X114226340Y-122425640D02*
X111225020Y-122425640D01*
X111225020Y-122425640D02*
X111198020Y-122452640D01*
X93193639Y-87070779D02*
X93193639Y-85882480D01*
X93193639Y-85882480D02*
X93193639Y-83789921D01*
X94066360Y-85973920D02*
X93285079Y-85973920D01*
X93285079Y-85973920D02*
X93193639Y-85882480D01*
X95018680Y-94147640D02*
X95018680Y-93581040D01*
X95018680Y-93581040D02*
X93974920Y-92537280D01*
X94117160Y-87172800D02*
X93295660Y-87172800D01*
X93193639Y-83789921D02*
X93893640Y-83089920D01*
X93295660Y-87172800D02*
X93193639Y-87070779D01*
X93893640Y-83089920D02*
X93893640Y-83064920D01*
X95786618Y-83064920D02*
X96771449Y-82080089D01*
X93893640Y-83064920D02*
X95786618Y-83064920D01*
X95018680Y-94147640D02*
X95018680Y-91566820D01*
X95018680Y-91566820D02*
X94434660Y-90982800D01*
X94434660Y-90982800D02*
X94117160Y-90982800D01*
X119245002Y-104838566D02*
X120165215Y-104838566D01*
X118653398Y-104246962D02*
X119245002Y-104838566D01*
X118969600Y-102356200D02*
X118969600Y-103304020D01*
X118969600Y-103304020D02*
X118653398Y-103620222D01*
X118653398Y-103620222D02*
X118653398Y-104246962D01*
X120975120Y-106807000D02*
X119317200Y-106807000D01*
X119317200Y-106807000D02*
X119235920Y-106725720D01*
X92684600Y-102138480D02*
X93253560Y-102707440D01*
X92684600Y-99033512D02*
X92684600Y-102138480D01*
X93046192Y-99033512D02*
X92684600Y-99033512D01*
X94432200Y-100419520D02*
X93046192Y-99033512D01*
X94432200Y-100819520D02*
X94432200Y-100419520D01*
X95530841Y-104669359D02*
X93445561Y-104669359D01*
X93253560Y-104477358D02*
X93253560Y-102707440D01*
X93445561Y-104669359D02*
X93253560Y-104477358D01*
X95530841Y-103393161D02*
X95530841Y-104669359D01*
X95457200Y-103319520D02*
X95530841Y-103393161D01*
X93446600Y-106921384D02*
X93446600Y-106497120D01*
X93446600Y-114947880D02*
X93446600Y-106921384D01*
X93901080Y-115402360D02*
X93446600Y-114947880D01*
X95001080Y-115402360D02*
X93901080Y-115402360D01*
X135714620Y-106234360D02*
X134425560Y-106234360D01*
X134425560Y-106234360D02*
X133736080Y-106923840D01*
X131084320Y-102031800D02*
X132024120Y-101092000D01*
X129595880Y-102031800D02*
X131084320Y-102031800D01*
X129595880Y-102031800D02*
X129595880Y-103090800D01*
X129595880Y-103090800D02*
X129237560Y-103449120D01*
X127705040Y-100375000D02*
X127705040Y-101651880D01*
X127705040Y-101651880D02*
X127645160Y-101711760D01*
X124901960Y-111477200D02*
X124901960Y-114259117D01*
X124901960Y-114259117D02*
X124644576Y-114516501D01*
X134203440Y-99293680D02*
X134203440Y-97135940D01*
X134203440Y-97135940D02*
X135221840Y-96117540D01*
X135221840Y-96117540D02*
X135696840Y-96117540D01*
X130592400Y-90613080D02*
X133488280Y-90613080D01*
X133488280Y-90613080D02*
X133898640Y-91023440D01*
X123889620Y-84962160D02*
X123889620Y-84812160D01*
X123889620Y-84812160D02*
X125887480Y-82814300D01*
X125887480Y-82814300D02*
X125887480Y-82458560D01*
X131485640Y-82214720D02*
X131485640Y-79711540D01*
X131485640Y-79711540D02*
X131469260Y-79695160D01*
X130592400Y-88213080D02*
X130714600Y-88213080D01*
X130714600Y-88213080D02*
X132212080Y-86715600D01*
X101396800Y-85719920D02*
X101396800Y-83679580D01*
X101396800Y-83679580D02*
X101371360Y-83654140D01*
X116214724Y-103239962D02*
X115656641Y-102681879D01*
X117511017Y-103239962D02*
X116214724Y-103239962D01*
X115656641Y-102681879D02*
X115097279Y-102681879D01*
X115097279Y-102681879D02*
X114239909Y-103539249D01*
X114239909Y-103539249D02*
X104845313Y-103539249D01*
X104845313Y-103539249D02*
X104421049Y-103539249D01*
X130592400Y-89813080D02*
X130592400Y-90613080D01*
X130592400Y-89013080D02*
X130592400Y-89813080D01*
X130592400Y-88213080D02*
X130592400Y-89013080D01*
X130592400Y-88213080D02*
X135318360Y-88213080D01*
X135318360Y-88213080D02*
X135696840Y-87834600D01*
X119762140Y-120566060D02*
X119762140Y-118172100D01*
X119762140Y-118172100D02*
X119598440Y-118008400D01*
X126901960Y-111477200D02*
X126563120Y-111477200D01*
X126563120Y-111477200D02*
X126401960Y-111477200D01*
X128045080Y-120487320D02*
X128045080Y-112220320D01*
X128045080Y-112220320D02*
X127301960Y-111477200D01*
X127301960Y-111477200D02*
X126563120Y-111477200D01*
X101371360Y-83654140D02*
X101371360Y-83604140D01*
X101371360Y-83604140D02*
X102096361Y-82879139D01*
X102096361Y-82879139D02*
X103567881Y-82879139D01*
X103567881Y-82879139D02*
X104710000Y-81737020D01*
X104710000Y-81737020D02*
X105410000Y-81737020D01*
X105410000Y-81737020D02*
X105410000Y-81887020D01*
X109891919Y-84826461D02*
X110668000Y-84050380D01*
X105410000Y-81887020D02*
X108349441Y-84826461D01*
X108349441Y-84826461D02*
X109891919Y-84826461D01*
X110668000Y-84050380D02*
X111318000Y-84050380D01*
X122289620Y-84962160D02*
X122289620Y-84312160D01*
X122289620Y-84312160D02*
X122680860Y-83920920D01*
X122680860Y-83920920D02*
X122680860Y-79695160D01*
X111318000Y-84050380D02*
X111318000Y-84000380D01*
X114859840Y-81792900D02*
X115559840Y-81792900D01*
X111318000Y-84000380D02*
X112043001Y-83275379D01*
X112043001Y-83275379D02*
X113377361Y-83275379D01*
X113377361Y-83275379D02*
X114859840Y-81792900D01*
X121489620Y-84962160D02*
X118579100Y-84962160D01*
X118579100Y-84962160D02*
X115559840Y-81942900D01*
X115559840Y-81942900D02*
X115559840Y-81792900D01*
X123089620Y-84962160D02*
X123889620Y-84962160D01*
X122289620Y-84962160D02*
X123089620Y-84962160D01*
X121489620Y-84962160D02*
X122289620Y-84962160D01*
X119395240Y-89489280D02*
X119695239Y-89189281D01*
X119695239Y-89189281D02*
X119695239Y-87406541D01*
X119695239Y-87406541D02*
X121489620Y-85612160D01*
X121489620Y-85612160D02*
X121489620Y-84962160D01*
X123261120Y-93830320D02*
X123261120Y-93680320D01*
X123261120Y-93680320D02*
X121073960Y-91493160D01*
X121073960Y-91493160D02*
X121005600Y-91493160D01*
X120465216Y-105463567D02*
X120908227Y-105020556D01*
X117186017Y-104159973D02*
X118489611Y-105463567D01*
X117511017Y-103239962D02*
X117186017Y-103564962D01*
X120908227Y-102294827D02*
X120669600Y-102056200D01*
X117760838Y-103239962D02*
X117511017Y-103239962D01*
X117186017Y-103564962D02*
X117186017Y-104159973D01*
X117969600Y-103031200D02*
X117760838Y-103239962D01*
X120669600Y-102056200D02*
X120669600Y-101656200D01*
X120908227Y-105020556D02*
X120908227Y-102294827D01*
X118489611Y-105463567D02*
X120465216Y-105463567D01*
X135752840Y-115186720D02*
X128861480Y-115186720D01*
X128861480Y-115186720D02*
X125401960Y-111727200D01*
X125401960Y-111727200D02*
X125401960Y-111477200D01*
X124901960Y-111477200D02*
X124401960Y-111477200D01*
X125401960Y-111477200D02*
X124901960Y-111477200D01*
X125901960Y-111477200D02*
X125401960Y-111477200D01*
X126401960Y-111477200D02*
X125901960Y-111477200D01*
X127401960Y-111477200D02*
X126901960Y-111477200D01*
X127901960Y-111477200D02*
X127401960Y-111477200D01*
X95457200Y-103319520D02*
X95457200Y-102844520D01*
X96457200Y-102844520D02*
X96457200Y-103319520D01*
X96457200Y-103319520D02*
X96382199Y-103394521D01*
X96382199Y-103394521D02*
X95532201Y-103394521D01*
X95532201Y-103394521D02*
X95457200Y-103319520D01*
X113956920Y-115763040D02*
X114106920Y-115763040D01*
X114106920Y-115763040D02*
X118909940Y-120566060D01*
X118909940Y-120566060D02*
X119762140Y-120566060D01*
X119395240Y-89489280D02*
X121005600Y-91099640D01*
X121005600Y-91099640D02*
X121005600Y-91493160D01*
X118184360Y-95239840D02*
X118184360Y-94435360D01*
X118184360Y-94435360D02*
X117510560Y-93761560D01*
X117969600Y-103031200D02*
X117969600Y-102356200D01*
X134991660Y-96117540D02*
X135696840Y-96117540D01*
X118270720Y-92517120D02*
X118270720Y-91892120D01*
X119469600Y-97858322D02*
X120055801Y-97272121D01*
X120055801Y-94302201D02*
X118270720Y-92517120D01*
X119469600Y-98456200D02*
X119469600Y-97858322D01*
X120055801Y-97272121D02*
X120055801Y-94302201D01*
X92232480Y-98838739D02*
X92931559Y-98139660D01*
X94870840Y-105369360D02*
X94220840Y-105369360D01*
X94957200Y-99419699D02*
X94957200Y-99819520D01*
X94220840Y-105369360D02*
X94187391Y-105402809D01*
X94187391Y-105402809D02*
X93005756Y-105402809D01*
X93005756Y-105402809D02*
X92232480Y-104629533D01*
X92232480Y-104629533D02*
X92232480Y-98838739D01*
X92931559Y-98139660D02*
X93677161Y-98139660D01*
X93677161Y-98139660D02*
X94957200Y-99419699D01*
X94957200Y-99819520D02*
X94957200Y-100294520D01*
X96370840Y-105369360D02*
X96395840Y-105369360D01*
X97532201Y-104232999D02*
X97532201Y-100894521D01*
X96395840Y-105369360D02*
X97532201Y-104232999D01*
X97532201Y-100894521D02*
X97457200Y-100819520D01*
X97457200Y-100819520D02*
X96982200Y-100819520D01*
X95957200Y-100294520D02*
X95957200Y-98378520D01*
X95957200Y-98378520D02*
X95368680Y-97790000D01*
X102473760Y-117584040D02*
X102473760Y-114714200D01*
X102473760Y-114714200D02*
X102532360Y-114655600D01*
X99664520Y-77767180D02*
X99664520Y-81051220D01*
X99664520Y-81051220D02*
X99049840Y-81665900D01*
X102321360Y-81654140D02*
X99061600Y-81654140D01*
X99061600Y-81654140D02*
X99049840Y-81665900D01*
X97218680Y-94147640D02*
X97218680Y-92496820D01*
X97218680Y-92496820D02*
X94434660Y-89712800D01*
X94434660Y-89712800D02*
X94117160Y-89712800D01*
X94117160Y-89712800D02*
X94938660Y-89712800D01*
X94938660Y-89712800D02*
X99049840Y-85601620D01*
X99049840Y-85601620D02*
X99049840Y-83865900D01*
X97444560Y-77617320D02*
X98469701Y-76592179D01*
X101029519Y-76592179D02*
X102204520Y-77767180D01*
X98469701Y-76592179D02*
X101029519Y-76592179D01*
X97444560Y-82110620D02*
X97444560Y-77617320D01*
X99049840Y-83715900D02*
X97444560Y-82110620D01*
X99049840Y-83865900D02*
X99049840Y-83715900D01*
X102204520Y-77767180D02*
X103379521Y-78942181D01*
X108935520Y-83751460D02*
X108935520Y-83901460D01*
X103379521Y-78942181D02*
X104126241Y-78942181D01*
X104126241Y-78942181D02*
X108935520Y-83751460D01*
X97218680Y-94147640D02*
X102925880Y-94147640D01*
X102925880Y-94147640D02*
X105003600Y-96225360D01*
X112268000Y-82050380D02*
X109284440Y-82050380D01*
X109284440Y-82050380D02*
X108935520Y-81701460D01*
X108935520Y-81701460D02*
X108935520Y-78582520D01*
X108935520Y-78582520D02*
X109816900Y-77701140D01*
X122793378Y-95813880D02*
X124151074Y-94456184D01*
X124739685Y-93390044D02*
X125188930Y-93390044D01*
X125450637Y-93128337D02*
X125489077Y-93128337D01*
X124151074Y-93978655D02*
X124739685Y-93390044D01*
X124151074Y-94456184D02*
X124151074Y-93978655D01*
X120685560Y-95813880D02*
X122793378Y-95813880D01*
X125188930Y-93390044D02*
X125450637Y-93128337D01*
X114955599Y-89865479D02*
X112791240Y-87701120D01*
X106771440Y-87701120D02*
X106029760Y-88442800D01*
X112791240Y-87701120D02*
X106771440Y-87701120D01*
X101288660Y-88442800D02*
X100467160Y-88442800D01*
X106029760Y-88442800D02*
X101288660Y-88442800D01*
X114655600Y-96301560D02*
X114955599Y-96001561D01*
X114955599Y-96001561D02*
X114955599Y-89865479D01*
X114726720Y-98059240D02*
X114726720Y-96372680D01*
X114726720Y-96372680D02*
X114655600Y-96301560D01*
X117969600Y-96911071D02*
X118672032Y-96208639D01*
X117969600Y-98456200D02*
X117969600Y-96911071D01*
X127205040Y-100375000D02*
X127205040Y-98560320D01*
X127205040Y-98560320D02*
X127543560Y-98221800D01*
X120685560Y-95813880D02*
X120685560Y-94013200D01*
X120685560Y-94013200D02*
X121005600Y-93693160D01*
X126705040Y-101736335D02*
X126570373Y-101871002D01*
X126570373Y-101871002D02*
X126270374Y-102171001D01*
X126705040Y-100375000D02*
X126705040Y-101736335D01*
X124245834Y-92765034D02*
X124341110Y-92765034D01*
X123261120Y-91780320D02*
X124245834Y-92765034D01*
X123261120Y-91630320D02*
X123261120Y-91780320D01*
X124341110Y-92765034D02*
X124765374Y-92765034D01*
X102577888Y-86617108D02*
X102877887Y-86317109D01*
X102022196Y-87172800D02*
X102577888Y-86617108D01*
X100467160Y-87172800D02*
X102022196Y-87172800D01*
X123261120Y-91630320D02*
X123261120Y-91480320D01*
X123261120Y-91480320D02*
X120766840Y-88986040D01*
X120766840Y-88986040D02*
X120766840Y-88620600D01*
X117469600Y-96522789D02*
X117877537Y-96114852D01*
X117469600Y-98456200D02*
X117469600Y-96522789D01*
X93309610Y-100605080D02*
X93309610Y-100180816D01*
X93309610Y-101171930D02*
X93309610Y-100605080D01*
X93957200Y-101819520D02*
X93309610Y-101171930D01*
X94432200Y-101819520D02*
X93957200Y-101819520D01*
X100848160Y-98415010D02*
X103108751Y-100675601D01*
X107706443Y-100675601D02*
X108072082Y-100309962D01*
X108072082Y-100309962D02*
X108072082Y-97142263D01*
X108072082Y-97142263D02*
X110627517Y-94586828D01*
X110627517Y-94586828D02*
X113648771Y-94586828D01*
X103108751Y-100675601D02*
X107706443Y-100675601D01*
X113648771Y-94586828D02*
X114073035Y-94586828D01*
X119969600Y-103031200D02*
X120283226Y-103344826D01*
X120283226Y-103344826D02*
X120283226Y-103579076D01*
X119969600Y-102356200D02*
X119969600Y-103031200D01*
X115356640Y-103306880D02*
X115356640Y-103731144D01*
X115356640Y-103731144D02*
X113031919Y-106055865D01*
X113031919Y-106055865D02*
X113031919Y-118181219D01*
X113031919Y-118181219D02*
X114226340Y-119375640D01*
X114226340Y-119375640D02*
X114226340Y-120225640D01*
X119469600Y-103755760D02*
X119278400Y-103946960D01*
X119469600Y-102356200D02*
X119469600Y-103755760D01*
X108070304Y-101346000D02*
X114030590Y-95385714D01*
X100782120Y-101346000D02*
X108070304Y-101346000D01*
X100332360Y-101795760D02*
X100782120Y-101346000D01*
X100332360Y-114655600D02*
X100332360Y-101795760D01*
X117535960Y-114985800D02*
X118653560Y-113868200D01*
X118653560Y-113868200D02*
X119451120Y-113868200D01*
X103129080Y-109220000D02*
X108341160Y-114432080D01*
X108341160Y-114432080D02*
X111465360Y-114432080D01*
X103129080Y-106669840D02*
X103129080Y-109220000D01*
X106034840Y-87238840D02*
X106034840Y-84561860D01*
X106034840Y-84561860D02*
X105410000Y-83937020D01*
X105410000Y-83937020D02*
X103554240Y-83937020D01*
X103554240Y-83937020D02*
X103271360Y-83654140D01*
X113218000Y-84050380D02*
X115502360Y-84050380D01*
X115502360Y-84050380D02*
X115559840Y-83992900D01*
X115026440Y-87833200D02*
X115026440Y-84526300D01*
X115026440Y-84526300D02*
X115559840Y-83992900D01*
X132649122Y-101537558D02*
X131437560Y-102749120D01*
X132649122Y-100791998D02*
X132649122Y-101537558D01*
X132232124Y-100375000D02*
X132649122Y-100791998D01*
X129205040Y-100375000D02*
X132232124Y-100375000D01*
X131437560Y-102749120D02*
X131437560Y-103449120D01*
X127920929Y-91727341D02*
X127012269Y-90818679D01*
X131267932Y-94231891D02*
X128763382Y-91727341D01*
X133404795Y-97684002D02*
X133404795Y-95715726D01*
X131920960Y-94231891D02*
X131267932Y-94231891D01*
X127012269Y-90818679D02*
X127012269Y-90503720D01*
X128763382Y-91727341D02*
X127920929Y-91727341D01*
X129905040Y-99675000D02*
X131413797Y-99675000D01*
X126124667Y-89616118D02*
X125856230Y-89616118D01*
X125094229Y-88854117D02*
X124794230Y-88554118D01*
X131413797Y-99675000D02*
X133404795Y-97684002D01*
X127012269Y-90503720D02*
X126124667Y-89616118D01*
X125856230Y-89616118D02*
X125094229Y-88854117D01*
X133404795Y-95715726D02*
X131920960Y-94231891D01*
X124369966Y-88554118D02*
X124794230Y-88554118D01*
X123089620Y-87412160D02*
X124231578Y-88554118D01*
X124231578Y-88554118D02*
X124369966Y-88554118D01*
X123089620Y-86762160D02*
X123089620Y-87412160D01*
X129580640Y-82737960D02*
X129580640Y-79806540D01*
X129580640Y-79806540D02*
X129469260Y-79695160D01*
X130895132Y-95131913D02*
X128390582Y-92627363D01*
X126720091Y-92053324D02*
X124625610Y-89958843D01*
X132504773Y-97311202D02*
X132504773Y-96135406D01*
X123902961Y-89958843D02*
X123372717Y-89428599D01*
X123372717Y-89428599D02*
X123072718Y-89128600D01*
X128390582Y-92627363D02*
X127349531Y-92627363D01*
X132504773Y-96135406D02*
X131501280Y-95131913D01*
X131140975Y-98675000D02*
X132504773Y-97311202D01*
X129905040Y-98675000D02*
X131140975Y-98675000D01*
X131501280Y-95131913D02*
X130895132Y-95131913D01*
X124625610Y-89958843D02*
X123902961Y-89958843D01*
X126775492Y-92053324D02*
X126720091Y-92053324D01*
X127349531Y-92627363D02*
X126775492Y-92053324D01*
X119781320Y-83753960D02*
X120680860Y-82854420D01*
X120680860Y-82854420D02*
X120680860Y-79695160D01*
X123072718Y-89128600D02*
X121489620Y-87545502D01*
X121489620Y-87412160D02*
X121489620Y-86762160D01*
X121489620Y-87545502D02*
X121489620Y-87412160D01*
X128576982Y-92177352D02*
X127734529Y-92177352D01*
X126146839Y-90589662D02*
X126146839Y-90541119D01*
X131711120Y-94681902D02*
X131081532Y-94681902D01*
X132954784Y-97497602D02*
X132954784Y-95925566D01*
X132954784Y-95925566D02*
X131711120Y-94681902D01*
X129905040Y-99175000D02*
X131277386Y-99175000D01*
X131081532Y-94681902D02*
X128576982Y-92177352D01*
X127734529Y-92177352D02*
X126146839Y-90589662D01*
X131277386Y-99175000D02*
X132954784Y-97497602D01*
X126146839Y-90541119D02*
X125846840Y-90241120D01*
X123889620Y-86762160D02*
X124389620Y-86762160D01*
X125648405Y-88100131D02*
X125648405Y-88524395D01*
X125648405Y-88020945D02*
X125648405Y-88100131D01*
X124389620Y-86762160D02*
X125648405Y-88020945D01*
X124389620Y-86762160D02*
X128469260Y-82682520D01*
X128469260Y-82682520D02*
X128469260Y-80720160D01*
X128469260Y-80720160D02*
X128469260Y-79695160D01*
X126589092Y-92503335D02*
X126280255Y-92503335D01*
X132054762Y-96340163D02*
X131296523Y-95581924D01*
X130708732Y-95581924D02*
X128204182Y-93077374D01*
X128204182Y-93077374D02*
X127163131Y-93077374D01*
X125298479Y-91521559D02*
X124998480Y-91221560D01*
X126280255Y-92503335D02*
X125298479Y-91521559D01*
X127163131Y-93077374D02*
X126589092Y-92503335D01*
X132054762Y-97124802D02*
X132054762Y-96340163D01*
X129905040Y-98175000D02*
X131004564Y-98175000D01*
X131296523Y-95581924D02*
X130708732Y-95581924D01*
X131004564Y-98175000D02*
X132054762Y-97124802D01*
X119684800Y-82621120D02*
X119684800Y-79699100D01*
X119684800Y-79699100D02*
X119680860Y-79695160D01*
X123869221Y-89033843D02*
X124169220Y-89333842D01*
X122289620Y-87454242D02*
X123869221Y-89033843D01*
X122289620Y-86762160D02*
X122289620Y-87454242D01*
X128792400Y-89813080D02*
X128142400Y-89813080D01*
X128067399Y-91123081D02*
X128221647Y-91277330D01*
X128221647Y-91277330D02*
X128949782Y-91277330D01*
X128949782Y-91277330D02*
X131454332Y-93781880D01*
X128067399Y-89888081D02*
X128067399Y-91123081D01*
X132920656Y-93781880D02*
X133344920Y-93781880D01*
X128142400Y-89813080D02*
X128067399Y-89888081D01*
X131454332Y-93781880D02*
X132920656Y-93781880D01*
X133344920Y-93781880D02*
X135361180Y-93781880D01*
X135361180Y-93781880D02*
X135696840Y-94117540D01*
X129905040Y-97675000D02*
X130579560Y-97675000D01*
X130579560Y-97675000D02*
X131429760Y-96824800D01*
X129205040Y-96475000D02*
X129205040Y-95003236D01*
X129205040Y-95003236D02*
X128204179Y-94002375D01*
X128204179Y-94002375D02*
X127904180Y-93702376D01*
X127061130Y-87751920D02*
X127061130Y-87327656D01*
X127061130Y-87327656D02*
X128554186Y-85834600D01*
X128554186Y-85834600D02*
X135696840Y-85834600D01*
X127361129Y-88051919D02*
X127061130Y-87751920D01*
X127522290Y-88213080D02*
X127361129Y-88051919D01*
X128792400Y-88213080D02*
X127522290Y-88213080D01*
X128942400Y-90613080D02*
X129779905Y-91450585D01*
X128792400Y-90613080D02*
X128942400Y-90613080D01*
X129779905Y-91450585D02*
X130006935Y-91450585D01*
X129905040Y-96435906D02*
X130134012Y-96206934D01*
X129905040Y-97175000D02*
X129905040Y-96435906D01*
X132521960Y-92816680D02*
X132822820Y-93117540D01*
X132822820Y-93117540D02*
X135696840Y-93117540D01*
X126446243Y-93128337D02*
X126289090Y-93128337D01*
X128705040Y-95387134D02*
X126446243Y-93128337D01*
X128705040Y-96475000D02*
X128705040Y-95387134D01*
X135696840Y-84834600D02*
X127219840Y-84834600D01*
X126435409Y-88232437D02*
X126435409Y-88243812D01*
X126436120Y-88231726D02*
X126435409Y-88232437D01*
X127219840Y-84834600D02*
X126435409Y-85619031D01*
X128792400Y-89013080D02*
X126780413Y-89013080D01*
X126735408Y-88968075D02*
X126435409Y-88668076D01*
X126435409Y-85619031D02*
X126435409Y-88243812D01*
X126780413Y-89013080D02*
X126735408Y-88968075D01*
X126435409Y-88243812D02*
X126435409Y-88668076D01*
X124901960Y-108890171D02*
X124520650Y-108508861D01*
X124131737Y-106793890D02*
X123446522Y-107479105D01*
X124541047Y-106803286D02*
X124531651Y-106793890D01*
X124541047Y-107515662D02*
X124541047Y-106803286D01*
X124601085Y-94165055D02*
X124601085Y-95026063D01*
X124520650Y-107536059D02*
X124541047Y-107515662D01*
X126434842Y-93753347D02*
X125462038Y-93753347D01*
X124520650Y-108508861D02*
X124520650Y-107536059D01*
X124901960Y-109677200D02*
X124901960Y-108890171D01*
X122846524Y-107479105D02*
X123146523Y-107779104D01*
X124601085Y-95026063D02*
X122846524Y-96780624D01*
X124926085Y-93840055D02*
X124601085Y-94165055D01*
X125375330Y-93840055D02*
X124926085Y-93840055D01*
X124531651Y-106793890D02*
X124131737Y-106793890D01*
X125462038Y-93753347D02*
X125375330Y-93840055D01*
X123446522Y-107479105D02*
X123146523Y-107779104D01*
X122846524Y-96780624D02*
X122846524Y-107479105D01*
X127705040Y-96475000D02*
X127705040Y-95023545D01*
X127705040Y-95023545D02*
X126434842Y-93753347D01*
X130581400Y-113238280D02*
X135701280Y-113238280D01*
X135701280Y-113238280D02*
X135752840Y-113186720D01*
X125901960Y-108328758D02*
X125895661Y-108322459D01*
X125901960Y-109677200D02*
X125901960Y-108328758D01*
X125895661Y-108322459D02*
X125595662Y-108022460D01*
X133380480Y-104648000D02*
X133794120Y-104234360D01*
X133794120Y-104234360D02*
X135714620Y-104234360D01*
X126705040Y-95625600D02*
X125928120Y-94848680D01*
X126705040Y-96475000D02*
X126705040Y-95625600D01*
X123895640Y-108520880D02*
X123895640Y-108484160D01*
X124401960Y-109677200D02*
X124401960Y-109027200D01*
X123895640Y-108484160D02*
X123895640Y-108059896D01*
X124401960Y-109027200D02*
X123895640Y-108520880D01*
X134727840Y-111278963D02*
X131107773Y-107658895D01*
X135277840Y-112186720D02*
X134727840Y-111636720D01*
X131107773Y-106277580D02*
X129365401Y-104535208D01*
X128015388Y-104535208D02*
X127591124Y-104535208D01*
X131107773Y-107658895D02*
X131107773Y-106277580D01*
X129365401Y-104535208D02*
X128015388Y-104535208D01*
X134727840Y-111636720D02*
X134727840Y-111278963D01*
X135752840Y-112186720D02*
X135277840Y-112186720D01*
X127205040Y-96475000D02*
X127205040Y-95159956D01*
X126248442Y-94203358D02*
X125648438Y-94203358D01*
X125648438Y-94203358D02*
X125386740Y-94465056D01*
X127205040Y-95159956D02*
X126248442Y-94203358D01*
X125386740Y-94465056D02*
X125226086Y-94465056D01*
X125229035Y-107008747D02*
X125229035Y-106584483D01*
X124970661Y-107722459D02*
X125229035Y-107464085D01*
X124970661Y-108322461D02*
X124970661Y-107722459D01*
X125229035Y-107464085D02*
X125229035Y-107008747D01*
X125401960Y-108753760D02*
X124970661Y-108322461D01*
X125401960Y-109677200D02*
X125401960Y-108753760D01*
X124799394Y-97175000D02*
X123369909Y-98604485D01*
X126005040Y-97175000D02*
X124799394Y-97175000D01*
X123369909Y-98604485D02*
X123369909Y-104725357D01*
X123369909Y-104725357D02*
X124929036Y-106284484D01*
X124929036Y-106284484D02*
X125229035Y-106584483D01*
X130630703Y-104322989D02*
X130330704Y-104022990D01*
X135714620Y-103234360D02*
X133188862Y-103234360D01*
X132100233Y-104322989D02*
X130630703Y-104322989D01*
X133188862Y-103234360D02*
X132100233Y-104322989D01*
X130042920Y-116453920D02*
X130042920Y-120485160D01*
X130042920Y-120485160D02*
X130045080Y-120487320D01*
X126901960Y-109677200D02*
X126901960Y-109027200D01*
X126901960Y-109027200D02*
X127745480Y-108183680D01*
X127745480Y-108183680D02*
X129976880Y-108183680D01*
X126005040Y-97675000D02*
X124935805Y-97675000D01*
X123819920Y-104226360D02*
X125826520Y-106232960D01*
X125826520Y-106232960D02*
X125826520Y-106238040D01*
X124935805Y-97675000D02*
X123819920Y-98790885D01*
X123819920Y-98790885D02*
X123819920Y-104226360D01*
X125826520Y-106238040D02*
X126901960Y-107313480D01*
X126901960Y-107313480D02*
X126901960Y-109677200D01*
X129408364Y-109677200D02*
X128301960Y-109677200D01*
X130601882Y-108483682D02*
X129408364Y-109677200D01*
X129354000Y-105160218D02*
X130601882Y-106408100D01*
X126716498Y-105160218D02*
X129354000Y-105160218D01*
X124745348Y-99138279D02*
X124745348Y-103189068D01*
X125208627Y-98675000D02*
X124745348Y-99138279D01*
X130601882Y-106408100D02*
X130601882Y-108483682D01*
X126005040Y-98675000D02*
X125208627Y-98675000D01*
X124745348Y-103189068D02*
X126716498Y-105160218D01*
X129377884Y-109677200D02*
X130764442Y-111063758D01*
X130764442Y-111063758D02*
X130764442Y-111808014D01*
X128301960Y-109677200D02*
X129377884Y-109677200D01*
X130764442Y-111808014D02*
X128999675Y-113572781D01*
X128999675Y-113599571D02*
X128999675Y-114023835D01*
X128999675Y-113572781D02*
X128999675Y-113599571D01*
X128301960Y-109677200D02*
X127901960Y-109677200D01*
X121762520Y-118247160D02*
X121762520Y-120565680D01*
X121762520Y-120565680D02*
X121762140Y-120566060D01*
X126401960Y-109677200D02*
X126401960Y-107697379D01*
X126401960Y-107697379D02*
X126163500Y-107458919D01*
X126580899Y-105661029D02*
X129218400Y-105661029D01*
X125072216Y-98175000D02*
X124295337Y-98951879D01*
X129218400Y-105661029D02*
X129905884Y-106348513D01*
X129905884Y-106473772D02*
X129905884Y-106898036D01*
X124295337Y-103375467D02*
X126580899Y-105661029D01*
X126005040Y-98175000D02*
X125072216Y-98175000D01*
X124295337Y-98951879D02*
X124295337Y-103375467D01*
X129905884Y-106348513D02*
X129905884Y-106473772D01*
X130977640Y-117190520D02*
X130977640Y-120419880D01*
X130977640Y-120419880D02*
X131045080Y-120487320D01*
X125928041Y-103735351D02*
X127151092Y-103735351D01*
X126005040Y-99175000D02*
X125345038Y-99175000D01*
X125195355Y-99324683D02*
X125195355Y-103002665D01*
X125195355Y-103002665D02*
X125928041Y-103735351D01*
X125345038Y-99175000D02*
X125195355Y-99324683D01*
X127151092Y-103735351D02*
X127575356Y-103735351D01*
X123667520Y-113385600D02*
X123667520Y-110332520D01*
X123667520Y-110332520D02*
X122433080Y-109098080D01*
X129177881Y-110402201D02*
X130139440Y-111363760D01*
X127401960Y-109677200D02*
X127401960Y-110327200D01*
X127401960Y-110327200D02*
X127476961Y-110402201D01*
X127476961Y-110402201D02*
X129177881Y-110402201D01*
X122762140Y-120566060D02*
X122762140Y-109427140D01*
X122762140Y-109427140D02*
X122433080Y-109098080D01*
X93878570Y-103386819D02*
X93878570Y-103811083D01*
X94432200Y-102319520D02*
X94432200Y-102719520D01*
X93878570Y-103273150D02*
X93878570Y-103386819D01*
X94432200Y-102719520D02*
X93878570Y-103273150D01*
X101883091Y-101906189D02*
X101132640Y-102656640D01*
X114559507Y-101906189D02*
X101883091Y-101906189D01*
X116769600Y-101656200D02*
X114809496Y-101656200D01*
X114809496Y-101656200D02*
X114559507Y-101906189D01*
X94957200Y-103881112D02*
X94793963Y-104044349D01*
X94957200Y-102844520D02*
X94957200Y-103881112D01*
X102703080Y-102356200D02*
X101122480Y-103936800D01*
X114745907Y-102356200D02*
X102703080Y-102356200D01*
X116945268Y-102231868D02*
X114870239Y-102231868D01*
X114870239Y-102231868D02*
X114745907Y-102356200D01*
X117069600Y-102356200D02*
X116945268Y-102231868D01*
X117469600Y-102356200D02*
X117069600Y-102356200D01*
M02*
