M48
;DRILL file {KiCad 4.0.5-e0-6337~49~ubuntu16.04.1} date Tue Feb 21 22:49:58 2017
;FORMAT={-:-/ absolute / metric / decimal}
FMAT,2
METRIC,TZ
T1C0.400
T2C1.000
%
G90
G05
M71
T1
X97.8Y-117.01
X98.08Y-84.23
X98.16Y-115.63
X98.26Y-111.03
X101.32Y-99.46
X101.38Y-101.84
X101.44Y-96.75
X101.47Y-93.48
X101.94Y-118.42
X102.1Y-116.78
X103.48Y-108.01
X104.67Y-93.54
X105.177Y-114.135
X105.55Y-87.52
X108.248Y-86.895
X109.99Y-118.44
X111.63Y-118.54
X114.94Y-103.31
X115.01Y-105.53
X115.06Y-95.8
X115.17Y-104.4
X115.57Y-118.68
X116.11Y-82.184
X116.26Y-114.65
X116.8Y-107.57
X116.91Y-93.06
X116.93Y-95.96
X117.811Y-100.914
X117.85Y-102.06
X118.54Y-97.76
X118.94Y-98.86
X119.Y-89.25
X119.14Y-96.71
X120.75Y-106.43
X121.79Y-117.55
X122.147Y-101.973
X122.59Y-89.18
X122.68Y-102.57
X123.78Y-94.04
X123.79Y-95.4
X124.06Y-118.1
X124.43Y-102.07
X124.7Y-105.85
X125.51Y-109.27
X125.52Y-106.53
X125.84Y-108.42
X125.851Y-115.803
X126.14Y-104.5
X126.22Y-101.79
X126.31Y-110.24
X126.37Y-118.31
X126.82Y-80.16
X126.95Y-83.64
X127.03Y-112.64
X127.12Y-98.16
X127.126Y-114.455
X127.56Y-89.2
X127.666Y-99.589
X128.169Y-113.265
X128.26Y-111.46
X128.8Y-78.82
X129.46Y-91.2
X129.72Y-98.08
X129.86Y-116.43
X130.75Y-102.14
X130.8Y-99.36
X132.53Y-92.23
X133.218Y-88.57
X133.36Y-97.17
X134.97Y-83.82
X136.77Y-97.85
X136.8Y-100.92
X137.18Y-103.23
X139.45Y-107.2
T2
X118.989Y-77.605
X119.085Y-81.559
X121.529Y-77.605
X121.625Y-81.559
X124.069Y-77.605
X124.165Y-81.559
X137.808Y-85.044
X137.808Y-87.584
X137.808Y-90.124
T0
M30
