G04 #@! TF.GenerationSoftware,KiCad,Pcbnew,no-vcs-found-7722~57~ubuntu16.04.1*
G04 #@! TF.CreationDate,2017-02-25T10:09:19+01:00*
G04 #@! TF.ProjectId,GhostSensorboard,47686F737453656E736F72626F617264,rev?*
G04 #@! TF.FileFunction,Paste,Top*
G04 #@! TF.FilePolarity,Positive*
%FSLAX46Y46*%
G04 Gerber Fmt 4.6, Leading zero omitted, Abs format (unit mm)*
G04 Created by KiCad (PCBNEW no-vcs-found-7722~57~ubuntu16.04.1) date Sat Feb 25 10:09:19 2017*
%MOMM*%
%LPD*%
G01*
G04 APERTURE LIST*
%ADD10C,0.100000*%
%ADD11R,0.750000X0.800000*%
%ADD12R,0.800000X0.750000*%
%ADD13R,1.200000X1.200000*%
%ADD14R,0.800000X0.900000*%
%ADD15R,1.200000X0.900000*%
%ADD16R,0.900000X1.200000*%
%ADD17R,1.450000X0.700000*%
%ADD18R,0.850000X0.300000*%
%ADD19R,0.300000X0.850000*%
%ADD20R,0.600000X1.550000*%
%ADD21R,1.200000X1.800000*%
%ADD22R,1.800000X0.800000*%
%ADD23R,0.780000X0.780000*%
%ADD24R,1.550000X0.600000*%
%ADD25R,1.800000X1.200000*%
%ADD26R,1.143000X0.508000*%
%ADD27R,0.500000X0.800000*%
%ADD28R,0.400000X0.800000*%
%ADD29R,0.800000X0.500000*%
%ADD30R,0.800000X0.400000*%
%ADD31R,0.300000X0.800000*%
%ADD32R,0.300000X0.450000*%
%ADD33R,0.450000X0.300000*%
G04 APERTURE END LIST*
D10*
D11*
X116464080Y-113329720D03*
X116464080Y-111829720D03*
D12*
X109434760Y-117899180D03*
X107934760Y-117899180D03*
D11*
X93893640Y-83064920D03*
X93893640Y-84564920D03*
D12*
X117735920Y-106725720D03*
X119235920Y-106725720D03*
X116684360Y-95239840D03*
X118184360Y-95239840D03*
X116770720Y-91892120D03*
X118270720Y-91892120D03*
X94870840Y-105369360D03*
X96370840Y-105369360D03*
X96868680Y-97790000D03*
X95368680Y-97790000D03*
D13*
X102473760Y-117584040D03*
X102473760Y-119784040D03*
D14*
X101371360Y-83654140D03*
X103271360Y-83654140D03*
X102321360Y-81654140D03*
X111318000Y-84050380D03*
X113218000Y-84050380D03*
X112268000Y-82050380D03*
D15*
X129237560Y-103449120D03*
X131437560Y-103449120D03*
X116156920Y-115763040D03*
X113956920Y-115763040D03*
D16*
X105410000Y-81737020D03*
X105410000Y-83937020D03*
X114226340Y-122425640D03*
X114226340Y-120225640D03*
D15*
X102532360Y-114655600D03*
X100332360Y-114655600D03*
D16*
X99049840Y-83865900D03*
X99049840Y-81665900D03*
X115559840Y-81792900D03*
X115559840Y-83992900D03*
X108935520Y-83901460D03*
X108935520Y-81701460D03*
X123261120Y-93830320D03*
X123261120Y-91630320D03*
X121005600Y-91493160D03*
X121005600Y-93693160D03*
D15*
X97218680Y-94147640D03*
X95018680Y-94147640D03*
D17*
X106038020Y-122452640D03*
X111198020Y-122452640D03*
X111198020Y-120452640D03*
X106038020Y-120452640D03*
D18*
X129905040Y-99675000D03*
X129905040Y-99175000D03*
X129905040Y-98675000D03*
X129905040Y-98175000D03*
X129905040Y-97675000D03*
X129905040Y-97175000D03*
D19*
X129205040Y-96475000D03*
X128705040Y-96475000D03*
X128205040Y-96475000D03*
X127705040Y-96475000D03*
X127205040Y-96475000D03*
X126705040Y-96475000D03*
D18*
X126005040Y-97175000D03*
X126005040Y-97675000D03*
X126005040Y-98175000D03*
X126005040Y-98675000D03*
X126005040Y-99175000D03*
X126005040Y-99675000D03*
D19*
X126705040Y-100375000D03*
X127205040Y-100375000D03*
X127705040Y-100375000D03*
X128205040Y-100375000D03*
X128705040Y-100375000D03*
X129205040Y-100375000D03*
D20*
X128469260Y-79695160D03*
X129469260Y-79695160D03*
X130469260Y-79695160D03*
X131469260Y-79695160D03*
D21*
X127169260Y-77170160D03*
X132769260Y-77170160D03*
D20*
X119680860Y-79695160D03*
X120680860Y-79695160D03*
X121680860Y-79695160D03*
X122680860Y-79695160D03*
D21*
X118380860Y-77170160D03*
X123980860Y-77170160D03*
D22*
X119451120Y-111328200D03*
X119451120Y-112598200D03*
X119451120Y-113868200D03*
X119451120Y-115138200D03*
D18*
X116769600Y-99156200D03*
X116769600Y-99656200D03*
X116769600Y-100156200D03*
X116769600Y-100656200D03*
X116769600Y-101156200D03*
X116769600Y-101656200D03*
D19*
X117469600Y-102356200D03*
X117969600Y-102356200D03*
X118469600Y-102356200D03*
X118969600Y-102356200D03*
X119469600Y-102356200D03*
X119969600Y-102356200D03*
D18*
X120669600Y-101656200D03*
X120669600Y-101156200D03*
X120669600Y-100656200D03*
X120669600Y-100156200D03*
X120669600Y-99656200D03*
X120669600Y-99156200D03*
D19*
X119969600Y-98456200D03*
X119469600Y-98456200D03*
X118969600Y-98456200D03*
X118469600Y-98456200D03*
X117969600Y-98456200D03*
X117469600Y-98456200D03*
D23*
X119369600Y-101056200D03*
X119369600Y-99756200D03*
X118069600Y-101056200D03*
X118069600Y-99756200D03*
D24*
X135696840Y-93117540D03*
X135696840Y-94117540D03*
X135696840Y-95117540D03*
X135696840Y-96117540D03*
D25*
X138221840Y-91817540D03*
X138221840Y-97417540D03*
D24*
X135696840Y-84834600D03*
X135696840Y-85834600D03*
X135696840Y-86834600D03*
X135696840Y-87834600D03*
D25*
X138221840Y-83534600D03*
X138221840Y-89134600D03*
D24*
X135752840Y-112186720D03*
X135752840Y-113186720D03*
X135752840Y-114186720D03*
X135752840Y-115186720D03*
D25*
X138277840Y-110886720D03*
X138277840Y-116486720D03*
D24*
X135714620Y-103234360D03*
X135714620Y-104234360D03*
X135714620Y-105234360D03*
X135714620Y-106234360D03*
D25*
X138239620Y-101934360D03*
X138239620Y-107534360D03*
D20*
X131045080Y-120487320D03*
X130045080Y-120487320D03*
X129045080Y-120487320D03*
X128045080Y-120487320D03*
D21*
X132345080Y-123012320D03*
X126745080Y-123012320D03*
D20*
X122762140Y-120566060D03*
X121762140Y-120566060D03*
X120762140Y-120566060D03*
X119762140Y-120566060D03*
D21*
X124062140Y-123091060D03*
X118462140Y-123091060D03*
D26*
X94117160Y-90982800D03*
X94117160Y-89712800D03*
X94117160Y-88442800D03*
X94117160Y-87172800D03*
X100467160Y-87172800D03*
X100467160Y-88442800D03*
X100467160Y-89712800D03*
X100467160Y-90982800D03*
D27*
X121489620Y-86762160D03*
D28*
X123089620Y-86762160D03*
X122289620Y-86762160D03*
D27*
X123889620Y-86762160D03*
D28*
X122289620Y-84962160D03*
D27*
X121489620Y-84962160D03*
D28*
X123089620Y-84962160D03*
D27*
X123889620Y-84962160D03*
D29*
X128792400Y-88213080D03*
D30*
X128792400Y-89813080D03*
X128792400Y-89013080D03*
D29*
X128792400Y-90613080D03*
D30*
X130592400Y-89013080D03*
D29*
X130592400Y-88213080D03*
D30*
X130592400Y-89813080D03*
D29*
X130592400Y-90613080D03*
D31*
X127901960Y-109677200D03*
X127901960Y-111477200D03*
X124401960Y-109677200D03*
X124401960Y-111477200D03*
X127401960Y-109677200D03*
X126901960Y-109677200D03*
X126401960Y-109677200D03*
X125901960Y-109677200D03*
X125401960Y-109677200D03*
X124901960Y-109677200D03*
X127401960Y-111477200D03*
X126901960Y-111477200D03*
X126401960Y-111477200D03*
X125401960Y-111477200D03*
X125901960Y-111477200D03*
X124901960Y-111477200D03*
D32*
X94957200Y-102844520D03*
X95457200Y-102844520D03*
X95957200Y-102844520D03*
X96457200Y-102844520D03*
D33*
X96982200Y-102319520D03*
X96982200Y-101819520D03*
X96982200Y-101319520D03*
X96982200Y-100819520D03*
D32*
X96457200Y-100294520D03*
X95957200Y-100294520D03*
X95457200Y-100294520D03*
X94957200Y-100294520D03*
D33*
X94432200Y-100819520D03*
X94432200Y-101319520D03*
X94432200Y-101819520D03*
X94432200Y-102319520D03*
M02*
