G04 #@! TF.GenerationSoftware,KiCad,Pcbnew,no-vcs-found-7722~57~ubuntu16.04.1*
G04 #@! TF.CreationDate,2017-02-25T10:09:19+01:00*
G04 #@! TF.ProjectId,GhostSensorboard,47686F737453656E736F72626F617264,rev?*
G04 #@! TF.FileFunction,Soldermask,Bot*
G04 #@! TF.FilePolarity,Negative*
%FSLAX46Y46*%
G04 Gerber Fmt 4.6, Leading zero omitted, Abs format (unit mm)*
G04 Created by KiCad (PCBNEW no-vcs-found-7722~57~ubuntu16.04.1) date Sat Feb 25 10:09:19 2017*
%MOMM*%
%LPD*%
G01*
G04 APERTURE LIST*
%ADD10C,0.100000*%
%ADD11R,2.100000X2.100000*%
%ADD12O,2.100000X2.100000*%
%ADD13R,2.900000X0.750000*%
%ADD14C,1.100000*%
%ADD15C,1.500000*%
G04 APERTURE END LIST*
D10*
D11*
X95001080Y-115402360D03*
D12*
X95001080Y-112862360D03*
X95001080Y-110322360D03*
D11*
X99664520Y-77767180D03*
D12*
X102204520Y-77767180D03*
X104744520Y-77767180D03*
D11*
X109816900Y-77701140D03*
D12*
X112356900Y-77701140D03*
X114896900Y-77701140D03*
D13*
X107368780Y-91711280D03*
X107368780Y-92311280D03*
X107368780Y-92911280D03*
X107368780Y-93511280D03*
X107368780Y-94111280D03*
X107368780Y-94711280D03*
X107368780Y-95311280D03*
X107368780Y-95911280D03*
X107368780Y-96511280D03*
X107368780Y-97111280D03*
X107368780Y-97711280D03*
X107368780Y-98311280D03*
X107368780Y-98911280D03*
X107368780Y-99511280D03*
X107368780Y-100111280D03*
X107368780Y-100711280D03*
X107368780Y-101311280D03*
X107368780Y-101911280D03*
X107368780Y-102511280D03*
X107368780Y-103111280D03*
X107368780Y-103711280D03*
X107368780Y-104311280D03*
X107368780Y-104911280D03*
X107368780Y-105511280D03*
X107368780Y-106111280D03*
X107368780Y-106711280D03*
X107368780Y-107311280D03*
X107368780Y-107911280D03*
X107368780Y-108511280D03*
X107368780Y-109111280D03*
X111868780Y-109111280D03*
X111868780Y-108511280D03*
X111868780Y-107911280D03*
X111868780Y-107311280D03*
X111868780Y-106711280D03*
X111868780Y-106111280D03*
X111868780Y-105511280D03*
X111868780Y-104911280D03*
X111868780Y-104311280D03*
X111868780Y-103711280D03*
X111868780Y-103111280D03*
X111868780Y-102511280D03*
X111868780Y-101911280D03*
X111868780Y-101311280D03*
X111868780Y-100711280D03*
X111868780Y-100111280D03*
X111868780Y-99511280D03*
X111868780Y-98911280D03*
X111868780Y-98311280D03*
X111868780Y-97711280D03*
X111868780Y-97111280D03*
X111868780Y-96511280D03*
X111868780Y-95911280D03*
X111868780Y-95311280D03*
X111868780Y-94711280D03*
X111868780Y-94111280D03*
X111868780Y-93511280D03*
X111868780Y-92911280D03*
X111868780Y-92311280D03*
X111868780Y-91711280D03*
D14*
X108118780Y-111511280D03*
D15*
X108118780Y-89311280D03*
M02*
