G04 #@! TF.FileFunction,Legend,Top*
%FSLAX46Y46*%
G04 Gerber Fmt 4.6, Leading zero omitted, Abs format (unit mm)*
G04 Created by KiCad (PCBNEW 4.0.5-e0-6337~49~ubuntu16.04.1) date Tue Feb 21 22:51:04 2017*
%MOMM*%
%LPD*%
G01*
G04 APERTURE LIST*
%ADD10C,0.100000*%
%ADD11C,0.300000*%
%ADD12C,0.200000*%
%ADD13C,0.120000*%
%ADD14C,0.150000*%
G04 APERTURE END LIST*
D10*
D11*
X134898572Y-90187143D02*
X136041429Y-90187143D01*
X135470000Y-90758571D02*
X135470000Y-89615714D01*
D12*
X116510000Y-80391904D02*
X116462381Y-80487142D01*
X116462381Y-80629999D01*
X116510000Y-80772857D01*
X116605238Y-80868095D01*
X116700476Y-80915714D01*
X116890952Y-80963333D01*
X117033810Y-80963333D01*
X117224286Y-80915714D01*
X117319524Y-80868095D01*
X117414762Y-80772857D01*
X117462381Y-80629999D01*
X117462381Y-80534761D01*
X117414762Y-80391904D01*
X117367143Y-80344285D01*
X117033810Y-80344285D01*
X117033810Y-80534761D01*
X117462381Y-79915714D02*
X116462381Y-79915714D01*
X117462381Y-79344285D01*
X116462381Y-79344285D01*
X117462381Y-78868095D02*
X116462381Y-78868095D01*
X116462381Y-78630000D01*
X116510000Y-78487142D01*
X116605238Y-78391904D01*
X116700476Y-78344285D01*
X116890952Y-78296666D01*
X117033810Y-78296666D01*
X117224286Y-78344285D01*
X117319524Y-78391904D01*
X117414762Y-78487142D01*
X117462381Y-78630000D01*
X117462381Y-78868095D01*
X129552315Y-85520000D02*
G75*
G03X129552315Y-85520000I-152315J0D01*
G01*
X120038924Y-96620000D02*
G75*
G03X120038924Y-96620000I-138924J0D01*
G01*
X131412127Y-98950000D02*
G75*
G03X131412127Y-98950000I-142127J0D01*
G01*
X118856301Y-110440000D02*
G75*
G03X118856301Y-110440000I-106301J0D01*
G01*
D13*
X101950000Y-86260000D02*
X101250000Y-86260000D01*
X101250000Y-85060000D02*
X101950000Y-85060000D01*
X136810000Y-106810000D02*
X136110000Y-106810000D01*
X136110000Y-105610000D02*
X136810000Y-105610000D01*
X132617960Y-90706500D02*
X131917960Y-90706500D01*
X131917960Y-89506500D02*
X132617960Y-89506500D01*
X129290000Y-101500000D02*
X129290000Y-102200000D01*
X128090000Y-102200000D02*
X128090000Y-101500000D01*
X129160000Y-96230000D02*
X129860000Y-96230000D01*
X129860000Y-97430000D02*
X129160000Y-97430000D01*
X127410000Y-92270000D02*
X126710000Y-92270000D01*
X126710000Y-91070000D02*
X127410000Y-91070000D01*
X138760000Y-100470000D02*
X138760000Y-101170000D01*
X137560000Y-101170000D02*
X137560000Y-100470000D01*
X134456920Y-96391020D02*
X133756920Y-96391020D01*
X133756920Y-95191020D02*
X134456920Y-95191020D01*
X112300000Y-79230000D02*
X112300000Y-80630000D01*
X112300000Y-80630000D02*
X115100000Y-80630000D01*
X112300000Y-79230000D02*
X115100000Y-79230000D01*
X139197700Y-88854280D02*
X139197700Y-83654280D01*
X139197700Y-83654280D02*
X136417700Y-83654280D01*
X136417700Y-83654280D02*
X136417700Y-88854280D01*
X136417700Y-88854280D02*
X139197700Y-88854280D01*
X139197700Y-90124280D02*
X139197700Y-91514280D01*
X139197700Y-91514280D02*
X137807700Y-91514280D01*
X122895360Y-80169400D02*
X117695360Y-80169400D01*
X117695360Y-80169400D02*
X117695360Y-82949400D01*
X117695360Y-82949400D02*
X122895360Y-82949400D01*
X122895360Y-82949400D02*
X122895360Y-80169400D01*
X124165360Y-80169400D02*
X125555360Y-80169400D01*
X125555360Y-80169400D02*
X125555360Y-81559400D01*
X122798840Y-76214620D02*
X117598840Y-76214620D01*
X117598840Y-76214620D02*
X117598840Y-78994620D01*
X117598840Y-78994620D02*
X122798840Y-78994620D01*
X122798840Y-78994620D02*
X122798840Y-76214620D01*
X124068840Y-76214620D02*
X125458840Y-76214620D01*
X125458840Y-76214620D02*
X125458840Y-77604620D01*
D14*
X109618780Y-100411280D02*
X109118780Y-100411280D01*
X109618780Y-100411280D02*
X110118780Y-100411280D01*
X109618780Y-100411280D02*
X109618780Y-99411280D01*
X109618780Y-100411280D02*
X109618780Y-101411280D01*
X112618780Y-87661280D02*
X107868780Y-87661280D01*
X106618780Y-88911280D02*
X107868780Y-87661280D01*
X106618780Y-88911280D02*
X106618780Y-90911280D01*
X112618780Y-90911280D02*
X112618780Y-87661280D01*
X106618780Y-113161280D02*
X106618780Y-109911280D01*
X112618780Y-113161280D02*
X106618780Y-113161280D01*
X112618780Y-109911280D02*
X112618780Y-113161280D01*
D13*
X123490000Y-85540000D02*
X122560000Y-85540000D01*
X120330000Y-85540000D02*
X121260000Y-85540000D01*
X120330000Y-85540000D02*
X120330000Y-87700000D01*
X123490000Y-85540000D02*
X123490000Y-87000000D01*
X112100000Y-83670000D02*
X111170000Y-83670000D01*
X108940000Y-83670000D02*
X109870000Y-83670000D01*
X108940000Y-83670000D02*
X108940000Y-85830000D01*
X112100000Y-83670000D02*
X112100000Y-85130000D01*
X118050000Y-105810000D02*
X118050000Y-104810000D01*
X119410000Y-104810000D02*
X119410000Y-105810000D01*
X100930000Y-81620000D02*
X101930000Y-81620000D01*
X101930000Y-82980000D02*
X100930000Y-82980000D01*
X124880000Y-86860000D02*
X124880000Y-85860000D01*
X126240000Y-85860000D02*
X126240000Y-86860000D01*
X136990000Y-109460000D02*
X135990000Y-109460000D01*
X135990000Y-108100000D02*
X136990000Y-108100000D01*
X113620000Y-76810000D02*
X114620000Y-76810000D01*
X114620000Y-78170000D02*
X113620000Y-78170000D01*
X119100000Y-85920000D02*
X119100000Y-86920000D01*
X117740000Y-86920000D02*
X117740000Y-85920000D01*
X113540000Y-85110000D02*
X113540000Y-84110000D01*
X114900000Y-84110000D02*
X114900000Y-85110000D01*
X107430000Y-84010000D02*
X107430000Y-85010000D01*
X106070000Y-85010000D02*
X106070000Y-84010000D01*
X117760000Y-98300000D02*
X117760000Y-99300000D01*
X116400000Y-99300000D02*
X116400000Y-98300000D01*
X117841480Y-92493720D02*
X117841480Y-91493720D01*
X119201480Y-91493720D02*
X119201480Y-92493720D01*
X132051680Y-78401460D02*
X131051680Y-78401460D01*
X131051680Y-77041460D02*
X132051680Y-77041460D01*
X134678480Y-111410580D02*
X134778480Y-111410580D01*
X138178480Y-111410580D02*
X138078480Y-111410580D01*
X138078480Y-116310580D02*
X138178480Y-116310580D01*
X134678480Y-116310580D02*
X134778480Y-116310580D01*
X136078480Y-116310580D02*
X136778480Y-116310580D01*
X136078480Y-111410580D02*
X136778480Y-111410580D01*
X134678480Y-111410580D02*
X134678480Y-116310580D01*
X138178480Y-116310580D02*
X138178480Y-111410580D01*
D14*
X124290000Y-110430000D02*
X124290000Y-110955000D01*
X119990000Y-114730000D02*
X119990000Y-114205000D01*
X124290000Y-114730000D02*
X124290000Y-114205000D01*
X119990000Y-110430000D02*
X120515000Y-110430000D01*
X119990000Y-114730000D02*
X120515000Y-114730000D01*
X124290000Y-114730000D02*
X123765000Y-114730000D01*
X124290000Y-110430000D02*
X123765000Y-110430000D01*
D13*
X95757500Y-107630000D02*
G75*
G03X95757500Y-107630000I-250000J0D01*
G01*
X91957500Y-107030000D02*
X91957500Y-103230000D01*
X93857500Y-108130000D02*
X94857500Y-108130000D01*
X94857500Y-108130000D02*
X94857500Y-107230000D01*
X94857500Y-107630000D02*
X93857500Y-107630000D01*
X93857500Y-107630000D02*
X93857500Y-107630000D01*
X93857500Y-107630000D02*
X94857500Y-107630000D01*
X94857500Y-107630000D02*
X94857500Y-107630000D01*
X94257500Y-107630000D02*
X94257500Y-107630000D01*
X94257500Y-107630000D02*
X94257500Y-108130000D01*
X94257500Y-108130000D02*
X94257500Y-108130000D01*
X94257500Y-108130000D02*
X94257500Y-107630000D01*
X93857500Y-102130000D02*
X94857500Y-102130000D01*
X94857500Y-102130000D02*
X94857500Y-103030000D01*
X94857500Y-102630000D02*
X93857500Y-102630000D01*
X93857500Y-102630000D02*
X93857500Y-102630000D01*
X93857500Y-102630000D02*
X94857500Y-102630000D01*
X94857500Y-102630000D02*
X94857500Y-102630000D01*
X94257500Y-102630000D02*
X94257500Y-102630000D01*
X94257500Y-102630000D02*
X94257500Y-102130000D01*
X94257500Y-102130000D02*
X94257500Y-102130000D01*
X94257500Y-102130000D02*
X94257500Y-102630000D01*
X92857500Y-107030000D02*
X92357500Y-107030000D01*
X92357500Y-107030000D02*
X92357500Y-103230000D01*
X92357500Y-103230000D02*
X92857500Y-103230000D01*
X93457500Y-107030000D02*
X94107500Y-107030000D01*
X94107500Y-107030000D02*
X94107500Y-103230000D01*
X94107500Y-103230000D02*
X93457500Y-103230000D01*
X92857500Y-106630000D02*
X93057500Y-106630000D01*
X92857500Y-105630000D02*
X93057500Y-105630000D01*
X92857500Y-104630000D02*
X93057500Y-104630000D01*
X92857500Y-103630000D02*
X93057500Y-103630000D01*
X95713360Y-116993040D02*
G75*
G03X95713360Y-116993040I-250000J0D01*
G01*
X91913360Y-116393040D02*
X91913360Y-112593040D01*
X93813360Y-117493040D02*
X94813360Y-117493040D01*
X94813360Y-117493040D02*
X94813360Y-116593040D01*
X94813360Y-116993040D02*
X93813360Y-116993040D01*
X93813360Y-116993040D02*
X93813360Y-116993040D01*
X93813360Y-116993040D02*
X94813360Y-116993040D01*
X94813360Y-116993040D02*
X94813360Y-116993040D01*
X94213360Y-116993040D02*
X94213360Y-116993040D01*
X94213360Y-116993040D02*
X94213360Y-117493040D01*
X94213360Y-117493040D02*
X94213360Y-117493040D01*
X94213360Y-117493040D02*
X94213360Y-116993040D01*
X93813360Y-111493040D02*
X94813360Y-111493040D01*
X94813360Y-111493040D02*
X94813360Y-112393040D01*
X94813360Y-111993040D02*
X93813360Y-111993040D01*
X93813360Y-111993040D02*
X93813360Y-111993040D01*
X93813360Y-111993040D02*
X94813360Y-111993040D01*
X94813360Y-111993040D02*
X94813360Y-111993040D01*
X94213360Y-111993040D02*
X94213360Y-111993040D01*
X94213360Y-111993040D02*
X94213360Y-111493040D01*
X94213360Y-111493040D02*
X94213360Y-111493040D01*
X94213360Y-111493040D02*
X94213360Y-111993040D01*
X92813360Y-116393040D02*
X92313360Y-116393040D01*
X92313360Y-116393040D02*
X92313360Y-112593040D01*
X92313360Y-112593040D02*
X92813360Y-112593040D01*
X93413360Y-116393040D02*
X94063360Y-116393040D01*
X94063360Y-116393040D02*
X94063360Y-112593040D01*
X94063360Y-112593040D02*
X93413360Y-112593040D01*
X92813360Y-115993040D02*
X93013360Y-115993040D01*
X92813360Y-114993040D02*
X93013360Y-114993040D01*
X92813360Y-113993040D02*
X93013360Y-113993040D01*
X92813360Y-112993040D02*
X93013360Y-112993040D01*
D14*
X104888000Y-79280000D02*
X101840000Y-79280000D01*
X104888000Y-76232000D02*
X104888000Y-79280000D01*
X98792000Y-76232000D02*
X104888000Y-76232000D01*
X98792000Y-79280000D02*
X98792000Y-76232000D01*
X101840000Y-79280000D02*
X98792000Y-79280000D01*
X98863842Y-79534000D02*
G75*
G03X98863842Y-79534000I-71842J0D01*
G01*
X125210000Y-96510000D02*
X125210000Y-97035000D01*
X120910000Y-100810000D02*
X120910000Y-100285000D01*
X125210000Y-100810000D02*
X125210000Y-100285000D01*
X120910000Y-96510000D02*
X121435000Y-96510000D01*
X120910000Y-100810000D02*
X121435000Y-100810000D01*
X125210000Y-100810000D02*
X124685000Y-100810000D01*
X125210000Y-96510000D02*
X124685000Y-96510000D01*
X135581640Y-99072880D02*
X135581640Y-99572880D01*
X132331640Y-102322880D02*
X132331640Y-101822880D01*
X135581640Y-102322880D02*
X135581640Y-101822880D01*
X132331640Y-99072880D02*
X132831640Y-99072880D01*
X132331640Y-102322880D02*
X132831640Y-102322880D01*
X135581640Y-102322880D02*
X135081640Y-102322880D01*
X135581640Y-99072880D02*
X135081640Y-99072880D01*
D13*
X104195060Y-120281700D02*
G75*
G03X104195060Y-120281700I-250000J0D01*
G01*
X103345060Y-123831700D02*
X99545060Y-123831700D01*
X104445060Y-121931700D02*
X104445060Y-120931700D01*
X104445060Y-120931700D02*
X103545060Y-120931700D01*
X103945060Y-120931700D02*
X103945060Y-121931700D01*
X103945060Y-121931700D02*
X103945060Y-121931700D01*
X103945060Y-121931700D02*
X103945060Y-120931700D01*
X103945060Y-120931700D02*
X103945060Y-120931700D01*
X103945060Y-121531700D02*
X103945060Y-121531700D01*
X103945060Y-121531700D02*
X104445060Y-121531700D01*
X104445060Y-121531700D02*
X104445060Y-121531700D01*
X104445060Y-121531700D02*
X103945060Y-121531700D01*
X98445060Y-121931700D02*
X98445060Y-120931700D01*
X98445060Y-120931700D02*
X99345060Y-120931700D01*
X98945060Y-120931700D02*
X98945060Y-121931700D01*
X98945060Y-121931700D02*
X98945060Y-121931700D01*
X98945060Y-121931700D02*
X98945060Y-120931700D01*
X98945060Y-120931700D02*
X98945060Y-120931700D01*
X98945060Y-121531700D02*
X98945060Y-121531700D01*
X98945060Y-121531700D02*
X98445060Y-121531700D01*
X98445060Y-121531700D02*
X98445060Y-121531700D01*
X98445060Y-121531700D02*
X98945060Y-121531700D01*
X103345060Y-122931700D02*
X103345060Y-123431700D01*
X103345060Y-123431700D02*
X99545060Y-123431700D01*
X99545060Y-123431700D02*
X99545060Y-122931700D01*
X103345060Y-122331700D02*
X103345060Y-121681700D01*
X103345060Y-121681700D02*
X99545060Y-121681700D01*
X99545060Y-121681700D02*
X99545060Y-122331700D01*
X102945060Y-122931700D02*
X102945060Y-122731700D01*
X101945060Y-122931700D02*
X101945060Y-122731700D01*
X100945060Y-122931700D02*
X100945060Y-122731700D01*
X99945060Y-122931700D02*
X99945060Y-122731700D01*
X113190000Y-120172500D02*
G75*
G03X113190000Y-120172500I-250000J0D01*
G01*
X112340000Y-123722500D02*
X108540000Y-123722500D01*
X113440000Y-121822500D02*
X113440000Y-120822500D01*
X113440000Y-120822500D02*
X112540000Y-120822500D01*
X112940000Y-120822500D02*
X112940000Y-121822500D01*
X112940000Y-121822500D02*
X112940000Y-121822500D01*
X112940000Y-121822500D02*
X112940000Y-120822500D01*
X112940000Y-120822500D02*
X112940000Y-120822500D01*
X112940000Y-121422500D02*
X112940000Y-121422500D01*
X112940000Y-121422500D02*
X113440000Y-121422500D01*
X113440000Y-121422500D02*
X113440000Y-121422500D01*
X113440000Y-121422500D02*
X112940000Y-121422500D01*
X107440000Y-121822500D02*
X107440000Y-120822500D01*
X107440000Y-120822500D02*
X108340000Y-120822500D01*
X107940000Y-120822500D02*
X107940000Y-121822500D01*
X107940000Y-121822500D02*
X107940000Y-121822500D01*
X107940000Y-121822500D02*
X107940000Y-120822500D01*
X107940000Y-120822500D02*
X107940000Y-120822500D01*
X107940000Y-121422500D02*
X107940000Y-121422500D01*
X107940000Y-121422500D02*
X107440000Y-121422500D01*
X107440000Y-121422500D02*
X107440000Y-121422500D01*
X107440000Y-121422500D02*
X107940000Y-121422500D01*
X112340000Y-122822500D02*
X112340000Y-123322500D01*
X112340000Y-123322500D02*
X108540000Y-123322500D01*
X108540000Y-123322500D02*
X108540000Y-122822500D01*
X112340000Y-122222500D02*
X112340000Y-121572500D01*
X112340000Y-121572500D02*
X108540000Y-121572500D01*
X108540000Y-121572500D02*
X108540000Y-122222500D01*
X111940000Y-122822500D02*
X111940000Y-122622500D01*
X110940000Y-122822500D02*
X110940000Y-122622500D01*
X109940000Y-122822500D02*
X109940000Y-122622500D01*
X108940000Y-122822500D02*
X108940000Y-122622500D01*
X132100000Y-120132500D02*
G75*
G03X132100000Y-120132500I-250000J0D01*
G01*
X131250000Y-123682500D02*
X127450000Y-123682500D01*
X132350000Y-121782500D02*
X132350000Y-120782500D01*
X132350000Y-120782500D02*
X131450000Y-120782500D01*
X131850000Y-120782500D02*
X131850000Y-121782500D01*
X131850000Y-121782500D02*
X131850000Y-121782500D01*
X131850000Y-121782500D02*
X131850000Y-120782500D01*
X131850000Y-120782500D02*
X131850000Y-120782500D01*
X131850000Y-121382500D02*
X131850000Y-121382500D01*
X131850000Y-121382500D02*
X132350000Y-121382500D01*
X132350000Y-121382500D02*
X132350000Y-121382500D01*
X132350000Y-121382500D02*
X131850000Y-121382500D01*
X126350000Y-121782500D02*
X126350000Y-120782500D01*
X126350000Y-120782500D02*
X127250000Y-120782500D01*
X126850000Y-120782500D02*
X126850000Y-121782500D01*
X126850000Y-121782500D02*
X126850000Y-121782500D01*
X126850000Y-121782500D02*
X126850000Y-120782500D01*
X126850000Y-120782500D02*
X126850000Y-120782500D01*
X126850000Y-121382500D02*
X126850000Y-121382500D01*
X126850000Y-121382500D02*
X126350000Y-121382500D01*
X126350000Y-121382500D02*
X126350000Y-121382500D01*
X126350000Y-121382500D02*
X126850000Y-121382500D01*
X131250000Y-122782500D02*
X131250000Y-123282500D01*
X131250000Y-123282500D02*
X127450000Y-123282500D01*
X127450000Y-123282500D02*
X127450000Y-122782500D01*
X131250000Y-122182500D02*
X131250000Y-121532500D01*
X131250000Y-121532500D02*
X127450000Y-121532500D01*
X127450000Y-121532500D02*
X127450000Y-122182500D01*
X130850000Y-122782500D02*
X130850000Y-122582500D01*
X129850000Y-122782500D02*
X129850000Y-122582500D01*
X128850000Y-122782500D02*
X128850000Y-122582500D01*
X127850000Y-122782500D02*
X127850000Y-122582500D01*
X122690000Y-120012500D02*
G75*
G03X122690000Y-120012500I-250000J0D01*
G01*
X121840000Y-123562500D02*
X118040000Y-123562500D01*
X122940000Y-121662500D02*
X122940000Y-120662500D01*
X122940000Y-120662500D02*
X122040000Y-120662500D01*
X122440000Y-120662500D02*
X122440000Y-121662500D01*
X122440000Y-121662500D02*
X122440000Y-121662500D01*
X122440000Y-121662500D02*
X122440000Y-120662500D01*
X122440000Y-120662500D02*
X122440000Y-120662500D01*
X122440000Y-121262500D02*
X122440000Y-121262500D01*
X122440000Y-121262500D02*
X122940000Y-121262500D01*
X122940000Y-121262500D02*
X122940000Y-121262500D01*
X122940000Y-121262500D02*
X122440000Y-121262500D01*
X116940000Y-121662500D02*
X116940000Y-120662500D01*
X116940000Y-120662500D02*
X117840000Y-120662500D01*
X117440000Y-120662500D02*
X117440000Y-121662500D01*
X117440000Y-121662500D02*
X117440000Y-121662500D01*
X117440000Y-121662500D02*
X117440000Y-120662500D01*
X117440000Y-120662500D02*
X117440000Y-120662500D01*
X117440000Y-121262500D02*
X117440000Y-121262500D01*
X117440000Y-121262500D02*
X116940000Y-121262500D01*
X116940000Y-121262500D02*
X116940000Y-121262500D01*
X116940000Y-121262500D02*
X117440000Y-121262500D01*
X121840000Y-122662500D02*
X121840000Y-123162500D01*
X121840000Y-123162500D02*
X118040000Y-123162500D01*
X118040000Y-123162500D02*
X118040000Y-122662500D01*
X121840000Y-122062500D02*
X121840000Y-121412500D01*
X121840000Y-121412500D02*
X118040000Y-121412500D01*
X118040000Y-121412500D02*
X118040000Y-122062500D01*
X121440000Y-122662500D02*
X121440000Y-122462500D01*
X120440000Y-122662500D02*
X120440000Y-122462500D01*
X119440000Y-122662500D02*
X119440000Y-122462500D01*
X118440000Y-122662500D02*
X118440000Y-122462500D01*
X95757500Y-98370000D02*
G75*
G03X95757500Y-98370000I-250000J0D01*
G01*
X91957500Y-97770000D02*
X91957500Y-93970000D01*
X93857500Y-98870000D02*
X94857500Y-98870000D01*
X94857500Y-98870000D02*
X94857500Y-97970000D01*
X94857500Y-98370000D02*
X93857500Y-98370000D01*
X93857500Y-98370000D02*
X93857500Y-98370000D01*
X93857500Y-98370000D02*
X94857500Y-98370000D01*
X94857500Y-98370000D02*
X94857500Y-98370000D01*
X94257500Y-98370000D02*
X94257500Y-98370000D01*
X94257500Y-98370000D02*
X94257500Y-98870000D01*
X94257500Y-98870000D02*
X94257500Y-98870000D01*
X94257500Y-98870000D02*
X94257500Y-98370000D01*
X93857500Y-92870000D02*
X94857500Y-92870000D01*
X94857500Y-92870000D02*
X94857500Y-93770000D01*
X94857500Y-93370000D02*
X93857500Y-93370000D01*
X93857500Y-93370000D02*
X93857500Y-93370000D01*
X93857500Y-93370000D02*
X94857500Y-93370000D01*
X94857500Y-93370000D02*
X94857500Y-93370000D01*
X94257500Y-93370000D02*
X94257500Y-93370000D01*
X94257500Y-93370000D02*
X94257500Y-92870000D01*
X94257500Y-92870000D02*
X94257500Y-92870000D01*
X94257500Y-92870000D02*
X94257500Y-93370000D01*
X92857500Y-97770000D02*
X92357500Y-97770000D01*
X92357500Y-97770000D02*
X92357500Y-93970000D01*
X92357500Y-93970000D02*
X92857500Y-93970000D01*
X93457500Y-97770000D02*
X94107500Y-97770000D01*
X94107500Y-97770000D02*
X94107500Y-93970000D01*
X94107500Y-93970000D02*
X93457500Y-93970000D01*
X92857500Y-97370000D02*
X93057500Y-97370000D01*
X92857500Y-96370000D02*
X93057500Y-96370000D01*
X92857500Y-95370000D02*
X93057500Y-95370000D01*
X92857500Y-94370000D02*
X93057500Y-94370000D01*
X95887500Y-89140000D02*
G75*
G03X95887500Y-89140000I-250000J0D01*
G01*
X92087500Y-88540000D02*
X92087500Y-84740000D01*
X93987500Y-89640000D02*
X94987500Y-89640000D01*
X94987500Y-89640000D02*
X94987500Y-88740000D01*
X94987500Y-89140000D02*
X93987500Y-89140000D01*
X93987500Y-89140000D02*
X93987500Y-89140000D01*
X93987500Y-89140000D02*
X94987500Y-89140000D01*
X94987500Y-89140000D02*
X94987500Y-89140000D01*
X94387500Y-89140000D02*
X94387500Y-89140000D01*
X94387500Y-89140000D02*
X94387500Y-89640000D01*
X94387500Y-89640000D02*
X94387500Y-89640000D01*
X94387500Y-89640000D02*
X94387500Y-89140000D01*
X93987500Y-83640000D02*
X94987500Y-83640000D01*
X94987500Y-83640000D02*
X94987500Y-84540000D01*
X94987500Y-84140000D02*
X93987500Y-84140000D01*
X93987500Y-84140000D02*
X93987500Y-84140000D01*
X93987500Y-84140000D02*
X94987500Y-84140000D01*
X94987500Y-84140000D02*
X94987500Y-84140000D01*
X94387500Y-84140000D02*
X94387500Y-84140000D01*
X94387500Y-84140000D02*
X94387500Y-83640000D01*
X94387500Y-83640000D02*
X94387500Y-83640000D01*
X94387500Y-83640000D02*
X94387500Y-84140000D01*
X92987500Y-88540000D02*
X92487500Y-88540000D01*
X92487500Y-88540000D02*
X92487500Y-84740000D01*
X92487500Y-84740000D02*
X92987500Y-84740000D01*
X93587500Y-88540000D02*
X94237500Y-88540000D01*
X94237500Y-88540000D02*
X94237500Y-84740000D01*
X94237500Y-84740000D02*
X93587500Y-84740000D01*
X92987500Y-88140000D02*
X93187500Y-88140000D01*
X92987500Y-87140000D02*
X93187500Y-87140000D01*
X92987500Y-86140000D02*
X93187500Y-86140000D01*
X92987500Y-85140000D02*
X93187500Y-85140000D01*
D14*
X128818640Y-81447640D02*
X133898640Y-81447640D01*
X133898640Y-81447640D02*
X133898640Y-86019640D01*
X133898640Y-86019640D02*
X128818640Y-86019640D01*
X128818640Y-86019640D02*
X128818640Y-81447640D01*
X128818640Y-82971640D02*
X129326640Y-82971640D01*
X129326640Y-82971640D02*
X129326640Y-84241640D01*
X129326640Y-84241640D02*
X128818640Y-84241640D01*
D13*
X101470000Y-111880000D02*
X102470000Y-111880000D01*
X101470000Y-115240000D02*
X102470000Y-115240000D01*
X109580000Y-116600000D02*
X109580000Y-115600000D01*
X112940000Y-116600000D02*
X112940000Y-115600000D01*
X131920000Y-107810000D02*
X131920000Y-108810000D01*
X127680000Y-107810000D02*
X127680000Y-108810000D01*
D14*
X101433334Y-87517143D02*
X101385715Y-87564762D01*
X101242858Y-87612381D01*
X101147620Y-87612381D01*
X101004762Y-87564762D01*
X100909524Y-87469524D01*
X100861905Y-87374286D01*
X100814286Y-87183810D01*
X100814286Y-87040952D01*
X100861905Y-86850476D01*
X100909524Y-86755238D01*
X101004762Y-86660000D01*
X101147620Y-86612381D01*
X101242858Y-86612381D01*
X101385715Y-86660000D01*
X101433334Y-86707619D01*
X102385715Y-87612381D02*
X101814286Y-87612381D01*
X102100000Y-87612381D02*
X102100000Y-86612381D01*
X102004762Y-86755238D01*
X101909524Y-86850476D01*
X101814286Y-86898095D01*
X133813334Y-106577143D02*
X133765715Y-106624762D01*
X133622858Y-106672381D01*
X133527620Y-106672381D01*
X133384762Y-106624762D01*
X133289524Y-106529524D01*
X133241905Y-106434286D01*
X133194286Y-106243810D01*
X133194286Y-106100952D01*
X133241905Y-105910476D01*
X133289524Y-105815238D01*
X133384762Y-105720000D01*
X133527620Y-105672381D01*
X133622858Y-105672381D01*
X133765715Y-105720000D01*
X133813334Y-105767619D01*
X134194286Y-105767619D02*
X134241905Y-105720000D01*
X134337143Y-105672381D01*
X134575239Y-105672381D01*
X134670477Y-105720000D01*
X134718096Y-105767619D01*
X134765715Y-105862857D01*
X134765715Y-105958095D01*
X134718096Y-106100952D01*
X134146667Y-106672381D01*
X134765715Y-106672381D01*
X132101294Y-91963643D02*
X132053675Y-92011262D01*
X131910818Y-92058881D01*
X131815580Y-92058881D01*
X131672722Y-92011262D01*
X131577484Y-91916024D01*
X131529865Y-91820786D01*
X131482246Y-91630310D01*
X131482246Y-91487452D01*
X131529865Y-91296976D01*
X131577484Y-91201738D01*
X131672722Y-91106500D01*
X131815580Y-91058881D01*
X131910818Y-91058881D01*
X132053675Y-91106500D01*
X132101294Y-91154119D01*
X132434627Y-91058881D02*
X133053675Y-91058881D01*
X132720341Y-91439833D01*
X132863199Y-91439833D01*
X132958437Y-91487452D01*
X133006056Y-91535071D01*
X133053675Y-91630310D01*
X133053675Y-91868405D01*
X133006056Y-91963643D01*
X132958437Y-92011262D01*
X132863199Y-92058881D01*
X132577484Y-92058881D01*
X132482246Y-92011262D01*
X132434627Y-91963643D01*
X130547143Y-102016666D02*
X130594762Y-102064285D01*
X130642381Y-102207142D01*
X130642381Y-102302380D01*
X130594762Y-102445238D01*
X130499524Y-102540476D01*
X130404286Y-102588095D01*
X130213810Y-102635714D01*
X130070952Y-102635714D01*
X129880476Y-102588095D01*
X129785238Y-102540476D01*
X129690000Y-102445238D01*
X129642381Y-102302380D01*
X129642381Y-102207142D01*
X129690000Y-102064285D01*
X129737619Y-102016666D01*
X129975714Y-101159523D02*
X130642381Y-101159523D01*
X129594762Y-101397619D02*
X130309048Y-101635714D01*
X130309048Y-101016666D01*
X129343334Y-95687143D02*
X129295715Y-95734762D01*
X129152858Y-95782381D01*
X129057620Y-95782381D01*
X128914762Y-95734762D01*
X128819524Y-95639524D01*
X128771905Y-95544286D01*
X128724286Y-95353810D01*
X128724286Y-95210952D01*
X128771905Y-95020476D01*
X128819524Y-94925238D01*
X128914762Y-94830000D01*
X129057620Y-94782381D01*
X129152858Y-94782381D01*
X129295715Y-94830000D01*
X129343334Y-94877619D01*
X130248096Y-94782381D02*
X129771905Y-94782381D01*
X129724286Y-95258571D01*
X129771905Y-95210952D01*
X129867143Y-95163333D01*
X130105239Y-95163333D01*
X130200477Y-95210952D01*
X130248096Y-95258571D01*
X130295715Y-95353810D01*
X130295715Y-95591905D01*
X130248096Y-95687143D01*
X130200477Y-95734762D01*
X130105239Y-95782381D01*
X129867143Y-95782381D01*
X129771905Y-95734762D01*
X129724286Y-95687143D01*
X126893334Y-93527143D02*
X126845715Y-93574762D01*
X126702858Y-93622381D01*
X126607620Y-93622381D01*
X126464762Y-93574762D01*
X126369524Y-93479524D01*
X126321905Y-93384286D01*
X126274286Y-93193810D01*
X126274286Y-93050952D01*
X126321905Y-92860476D01*
X126369524Y-92765238D01*
X126464762Y-92670000D01*
X126607620Y-92622381D01*
X126702858Y-92622381D01*
X126845715Y-92670000D01*
X126893334Y-92717619D01*
X127750477Y-92622381D02*
X127560000Y-92622381D01*
X127464762Y-92670000D01*
X127417143Y-92717619D01*
X127321905Y-92860476D01*
X127274286Y-93050952D01*
X127274286Y-93431905D01*
X127321905Y-93527143D01*
X127369524Y-93574762D01*
X127464762Y-93622381D01*
X127655239Y-93622381D01*
X127750477Y-93574762D01*
X127798096Y-93527143D01*
X127845715Y-93431905D01*
X127845715Y-93193810D01*
X127798096Y-93098571D01*
X127750477Y-93050952D01*
X127655239Y-93003333D01*
X127464762Y-93003333D01*
X127369524Y-93050952D01*
X127321905Y-93098571D01*
X127274286Y-93193810D01*
X140017143Y-100986666D02*
X140064762Y-101034285D01*
X140112381Y-101177142D01*
X140112381Y-101272380D01*
X140064762Y-101415238D01*
X139969524Y-101510476D01*
X139874286Y-101558095D01*
X139683810Y-101605714D01*
X139540952Y-101605714D01*
X139350476Y-101558095D01*
X139255238Y-101510476D01*
X139160000Y-101415238D01*
X139112381Y-101272380D01*
X139112381Y-101177142D01*
X139160000Y-101034285D01*
X139207619Y-100986666D01*
X139112381Y-100653333D02*
X139112381Y-99986666D01*
X140112381Y-100415238D01*
X136733334Y-96127143D02*
X136685715Y-96174762D01*
X136542858Y-96222381D01*
X136447620Y-96222381D01*
X136304762Y-96174762D01*
X136209524Y-96079524D01*
X136161905Y-95984286D01*
X136114286Y-95793810D01*
X136114286Y-95650952D01*
X136161905Y-95460476D01*
X136209524Y-95365238D01*
X136304762Y-95270000D01*
X136447620Y-95222381D01*
X136542858Y-95222381D01*
X136685715Y-95270000D01*
X136733334Y-95317619D01*
X137304762Y-95650952D02*
X137209524Y-95603333D01*
X137161905Y-95555714D01*
X137114286Y-95460476D01*
X137114286Y-95412857D01*
X137161905Y-95317619D01*
X137209524Y-95270000D01*
X137304762Y-95222381D01*
X137495239Y-95222381D01*
X137590477Y-95270000D01*
X137638096Y-95317619D01*
X137685715Y-95412857D01*
X137685715Y-95460476D01*
X137638096Y-95555714D01*
X137590477Y-95603333D01*
X137495239Y-95650952D01*
X137304762Y-95650952D01*
X137209524Y-95698571D01*
X137161905Y-95746190D01*
X137114286Y-95841429D01*
X137114286Y-96031905D01*
X137161905Y-96127143D01*
X137209524Y-96174762D01*
X137304762Y-96222381D01*
X137495239Y-96222381D01*
X137590477Y-96174762D01*
X137638096Y-96127143D01*
X137685715Y-96031905D01*
X137685715Y-95841429D01*
X137638096Y-95746190D01*
X137590477Y-95698571D01*
X137495239Y-95650952D01*
X110430785Y-80436321D02*
X110430785Y-79436321D01*
X110668880Y-79436321D01*
X110811738Y-79483940D01*
X110906976Y-79579178D01*
X110954595Y-79674416D01*
X111002214Y-79864892D01*
X111002214Y-80007750D01*
X110954595Y-80198226D01*
X110906976Y-80293464D01*
X110811738Y-80388702D01*
X110668880Y-80436321D01*
X110430785Y-80436321D01*
X111954595Y-80436321D02*
X111383166Y-80436321D01*
X111668880Y-80436321D02*
X111668880Y-79436321D01*
X111573642Y-79579178D01*
X111478404Y-79674416D01*
X111383166Y-79722035D01*
X135831509Y-92919042D02*
X135974366Y-92966661D01*
X136212462Y-92966661D01*
X136307700Y-92919042D01*
X136355319Y-92871423D01*
X136402938Y-92776185D01*
X136402938Y-92680947D01*
X136355319Y-92585709D01*
X136307700Y-92538090D01*
X136212462Y-92490470D01*
X136021985Y-92442851D01*
X135926747Y-92395232D01*
X135879128Y-92347613D01*
X135831509Y-92252375D01*
X135831509Y-92157137D01*
X135879128Y-92061899D01*
X135926747Y-92014280D01*
X136021985Y-91966661D01*
X136260081Y-91966661D01*
X136402938Y-92014280D01*
X136688652Y-91966661D02*
X137260081Y-91966661D01*
X136974366Y-92966661D02*
X136974366Y-91966661D01*
X137545795Y-92680947D02*
X138021986Y-92680947D01*
X137450557Y-92966661D02*
X137783890Y-91966661D01*
X138117224Y-92966661D01*
X139021986Y-92966661D02*
X138688652Y-92490470D01*
X138450557Y-92966661D02*
X138450557Y-91966661D01*
X138831510Y-91966661D01*
X138926748Y-92014280D01*
X138974367Y-92061899D01*
X139021986Y-92157137D01*
X139021986Y-92299994D01*
X138974367Y-92395232D01*
X138926748Y-92442851D01*
X138831510Y-92490470D01*
X138450557Y-92490470D01*
X139307700Y-91966661D02*
X139879129Y-91966661D01*
X139593414Y-92966661D02*
X139593414Y-91966661D01*
X118146667Y-84234762D02*
X118289524Y-84282381D01*
X118527620Y-84282381D01*
X118622858Y-84234762D01*
X118670477Y-84187143D01*
X118718096Y-84091905D01*
X118718096Y-83996667D01*
X118670477Y-83901429D01*
X118622858Y-83853810D01*
X118527620Y-83806190D01*
X118337143Y-83758571D01*
X118241905Y-83710952D01*
X118194286Y-83663333D01*
X118146667Y-83568095D01*
X118146667Y-83472857D01*
X118194286Y-83377619D01*
X118241905Y-83330000D01*
X118337143Y-83282381D01*
X118575239Y-83282381D01*
X118718096Y-83330000D01*
X119003810Y-83282381D02*
X119575239Y-83282381D01*
X119289524Y-84282381D02*
X119289524Y-83282381D01*
X119908572Y-83758571D02*
X120241906Y-83758571D01*
X120384763Y-84282381D02*
X119908572Y-84282381D01*
X119908572Y-83282381D01*
X120384763Y-83282381D01*
X120813334Y-83758571D02*
X121146668Y-83758571D01*
X121289525Y-84282381D02*
X120813334Y-84282381D01*
X120813334Y-83282381D01*
X121289525Y-83282381D01*
X122289525Y-84282381D02*
X121956191Y-83806190D01*
X121718096Y-84282381D02*
X121718096Y-83282381D01*
X122099049Y-83282381D01*
X122194287Y-83330000D01*
X122241906Y-83377619D01*
X122289525Y-83472857D01*
X122289525Y-83615714D01*
X122241906Y-83710952D01*
X122194287Y-83758571D01*
X122099049Y-83806190D01*
X121718096Y-83806190D01*
X122718096Y-84282381D02*
X122718096Y-83282381D01*
X123194286Y-84282381D02*
X123194286Y-83282381D01*
X123765715Y-84282381D01*
X123765715Y-83282381D01*
X124765715Y-83330000D02*
X124670477Y-83282381D01*
X124527620Y-83282381D01*
X124384762Y-83330000D01*
X124289524Y-83425238D01*
X124241905Y-83520476D01*
X124194286Y-83710952D01*
X124194286Y-83853810D01*
X124241905Y-84044286D01*
X124289524Y-84139524D01*
X124384762Y-84234762D01*
X124527620Y-84282381D01*
X124622858Y-84282381D01*
X124765715Y-84234762D01*
X124813334Y-84187143D01*
X124813334Y-83853810D01*
X124622858Y-83853810D01*
X119248095Y-79862381D02*
X119248095Y-78862381D01*
X119581429Y-79576667D01*
X119914762Y-78862381D01*
X119914762Y-79862381D01*
X120581428Y-78862381D02*
X120771905Y-78862381D01*
X120867143Y-78910000D01*
X120962381Y-79005238D01*
X121010000Y-79195714D01*
X121010000Y-79529048D01*
X120962381Y-79719524D01*
X120867143Y-79814762D01*
X120771905Y-79862381D01*
X120581428Y-79862381D01*
X120486190Y-79814762D01*
X120390952Y-79719524D01*
X120343333Y-79529048D01*
X120343333Y-79195714D01*
X120390952Y-79005238D01*
X120486190Y-78910000D01*
X120581428Y-78862381D01*
X121295714Y-78862381D02*
X121867143Y-78862381D01*
X121581428Y-79862381D02*
X121581428Y-78862381D01*
X122390952Y-78862381D02*
X122581429Y-78862381D01*
X122676667Y-78910000D01*
X122771905Y-79005238D01*
X122819524Y-79195714D01*
X122819524Y-79529048D01*
X122771905Y-79719524D01*
X122676667Y-79814762D01*
X122581429Y-79862381D01*
X122390952Y-79862381D01*
X122295714Y-79814762D01*
X122200476Y-79719524D01*
X122152857Y-79529048D01*
X122152857Y-79195714D01*
X122200476Y-79005238D01*
X122295714Y-78910000D01*
X122390952Y-78862381D01*
X123819524Y-79862381D02*
X123486190Y-79386190D01*
X123248095Y-79862381D02*
X123248095Y-78862381D01*
X123629048Y-78862381D01*
X123724286Y-78910000D01*
X123771905Y-78957619D01*
X123819524Y-79052857D01*
X123819524Y-79195714D01*
X123771905Y-79290952D01*
X123724286Y-79338571D01*
X123629048Y-79386190D01*
X123248095Y-79386190D01*
X115071161Y-101149375D02*
X114071161Y-101149375D01*
X114071161Y-100768422D01*
X114118780Y-100673184D01*
X114166399Y-100625565D01*
X114261637Y-100577946D01*
X114404494Y-100577946D01*
X114499732Y-100625565D01*
X114547351Y-100673184D01*
X114594970Y-100768422D01*
X114594970Y-101149375D01*
X114404494Y-99720803D02*
X115071161Y-99720803D01*
X114023542Y-99958899D02*
X114737828Y-100196994D01*
X114737828Y-99577946D01*
X121634762Y-89397619D02*
X121539524Y-89350000D01*
X121444286Y-89254762D01*
X121301429Y-89111905D01*
X121206190Y-89064286D01*
X121110952Y-89064286D01*
X121158571Y-89302381D02*
X121063333Y-89254762D01*
X120968095Y-89159524D01*
X120920476Y-88969048D01*
X120920476Y-88635714D01*
X120968095Y-88445238D01*
X121063333Y-88350000D01*
X121158571Y-88302381D01*
X121349048Y-88302381D01*
X121444286Y-88350000D01*
X121539524Y-88445238D01*
X121587143Y-88635714D01*
X121587143Y-88969048D01*
X121539524Y-89159524D01*
X121444286Y-89254762D01*
X121349048Y-89302381D01*
X121158571Y-89302381D01*
X122539524Y-89302381D02*
X121968095Y-89302381D01*
X122253809Y-89302381D02*
X122253809Y-88302381D01*
X122158571Y-88445238D01*
X122063333Y-88540476D01*
X121968095Y-88588095D01*
X110374762Y-82377619D02*
X110279524Y-82330000D01*
X110184286Y-82234762D01*
X110041429Y-82091905D01*
X109946190Y-82044286D01*
X109850952Y-82044286D01*
X109898571Y-82282381D02*
X109803333Y-82234762D01*
X109708095Y-82139524D01*
X109660476Y-81949048D01*
X109660476Y-81615714D01*
X109708095Y-81425238D01*
X109803333Y-81330000D01*
X109898571Y-81282381D01*
X110089048Y-81282381D01*
X110184286Y-81330000D01*
X110279524Y-81425238D01*
X110327143Y-81615714D01*
X110327143Y-81949048D01*
X110279524Y-82139524D01*
X110184286Y-82234762D01*
X110089048Y-82282381D01*
X109898571Y-82282381D01*
X110708095Y-81377619D02*
X110755714Y-81330000D01*
X110850952Y-81282381D01*
X111089048Y-81282381D01*
X111184286Y-81330000D01*
X111231905Y-81377619D01*
X111279524Y-81472857D01*
X111279524Y-81568095D01*
X111231905Y-81710952D01*
X110660476Y-82282381D01*
X111279524Y-82282381D01*
X120632381Y-105476666D02*
X120156190Y-105810000D01*
X120632381Y-106048095D02*
X119632381Y-106048095D01*
X119632381Y-105667142D01*
X119680000Y-105571904D01*
X119727619Y-105524285D01*
X119822857Y-105476666D01*
X119965714Y-105476666D01*
X120060952Y-105524285D01*
X120108571Y-105571904D01*
X120156190Y-105667142D01*
X120156190Y-106048095D01*
X120632381Y-104524285D02*
X120632381Y-105095714D01*
X120632381Y-104810000D02*
X119632381Y-104810000D01*
X119775238Y-104905238D01*
X119870476Y-105000476D01*
X119918095Y-105095714D01*
X101263334Y-84202381D02*
X100930000Y-83726190D01*
X100691905Y-84202381D02*
X100691905Y-83202381D01*
X101072858Y-83202381D01*
X101168096Y-83250000D01*
X101215715Y-83297619D01*
X101263334Y-83392857D01*
X101263334Y-83535714D01*
X101215715Y-83630952D01*
X101168096Y-83678571D01*
X101072858Y-83726190D01*
X100691905Y-83726190D01*
X101644286Y-83297619D02*
X101691905Y-83250000D01*
X101787143Y-83202381D01*
X102025239Y-83202381D01*
X102120477Y-83250000D01*
X102168096Y-83297619D01*
X102215715Y-83392857D01*
X102215715Y-83488095D01*
X102168096Y-83630952D01*
X101596667Y-84202381D01*
X102215715Y-84202381D01*
X127462381Y-86526666D02*
X126986190Y-86860000D01*
X127462381Y-87098095D02*
X126462381Y-87098095D01*
X126462381Y-86717142D01*
X126510000Y-86621904D01*
X126557619Y-86574285D01*
X126652857Y-86526666D01*
X126795714Y-86526666D01*
X126890952Y-86574285D01*
X126938571Y-86621904D01*
X126986190Y-86717142D01*
X126986190Y-87098095D01*
X126462381Y-86193333D02*
X126462381Y-85574285D01*
X126843333Y-85907619D01*
X126843333Y-85764761D01*
X126890952Y-85669523D01*
X126938571Y-85621904D01*
X127033810Y-85574285D01*
X127271905Y-85574285D01*
X127367143Y-85621904D01*
X127414762Y-85669523D01*
X127462381Y-85764761D01*
X127462381Y-86050476D01*
X127414762Y-86145714D01*
X127367143Y-86193333D01*
X133243334Y-109242381D02*
X132910000Y-108766190D01*
X132671905Y-109242381D02*
X132671905Y-108242381D01*
X133052858Y-108242381D01*
X133148096Y-108290000D01*
X133195715Y-108337619D01*
X133243334Y-108432857D01*
X133243334Y-108575714D01*
X133195715Y-108670952D01*
X133148096Y-108718571D01*
X133052858Y-108766190D01*
X132671905Y-108766190D01*
X134100477Y-108575714D02*
X134100477Y-109242381D01*
X133862381Y-108194762D02*
X133624286Y-108909048D01*
X134243334Y-108909048D01*
X110923334Y-78002381D02*
X110590000Y-77526190D01*
X110351905Y-78002381D02*
X110351905Y-77002381D01*
X110732858Y-77002381D01*
X110828096Y-77050000D01*
X110875715Y-77097619D01*
X110923334Y-77192857D01*
X110923334Y-77335714D01*
X110875715Y-77430952D01*
X110828096Y-77478571D01*
X110732858Y-77526190D01*
X110351905Y-77526190D01*
X111828096Y-77002381D02*
X111351905Y-77002381D01*
X111304286Y-77478571D01*
X111351905Y-77430952D01*
X111447143Y-77383333D01*
X111685239Y-77383333D01*
X111780477Y-77430952D01*
X111828096Y-77478571D01*
X111875715Y-77573810D01*
X111875715Y-77811905D01*
X111828096Y-77907143D01*
X111780477Y-77954762D01*
X111685239Y-78002381D01*
X111447143Y-78002381D01*
X111351905Y-77954762D01*
X111304286Y-77907143D01*
X117422381Y-86586666D02*
X116946190Y-86920000D01*
X117422381Y-87158095D02*
X116422381Y-87158095D01*
X116422381Y-86777142D01*
X116470000Y-86681904D01*
X116517619Y-86634285D01*
X116612857Y-86586666D01*
X116755714Y-86586666D01*
X116850952Y-86634285D01*
X116898571Y-86681904D01*
X116946190Y-86777142D01*
X116946190Y-87158095D01*
X116422381Y-85729523D02*
X116422381Y-85920000D01*
X116470000Y-86015238D01*
X116517619Y-86062857D01*
X116660476Y-86158095D01*
X116850952Y-86205714D01*
X117231905Y-86205714D01*
X117327143Y-86158095D01*
X117374762Y-86110476D01*
X117422381Y-86015238D01*
X117422381Y-85824761D01*
X117374762Y-85729523D01*
X117327143Y-85681904D01*
X117231905Y-85634285D01*
X116993810Y-85634285D01*
X116898571Y-85681904D01*
X116850952Y-85729523D01*
X116803333Y-85824761D01*
X116803333Y-86015238D01*
X116850952Y-86110476D01*
X116898571Y-86158095D01*
X116993810Y-86205714D01*
X116122381Y-84776666D02*
X115646190Y-85110000D01*
X116122381Y-85348095D02*
X115122381Y-85348095D01*
X115122381Y-84967142D01*
X115170000Y-84871904D01*
X115217619Y-84824285D01*
X115312857Y-84776666D01*
X115455714Y-84776666D01*
X115550952Y-84824285D01*
X115598571Y-84871904D01*
X115646190Y-84967142D01*
X115646190Y-85348095D01*
X115122381Y-84443333D02*
X115122381Y-83776666D01*
X116122381Y-84205238D01*
X105752381Y-84676666D02*
X105276190Y-85010000D01*
X105752381Y-85248095D02*
X104752381Y-85248095D01*
X104752381Y-84867142D01*
X104800000Y-84771904D01*
X104847619Y-84724285D01*
X104942857Y-84676666D01*
X105085714Y-84676666D01*
X105180952Y-84724285D01*
X105228571Y-84771904D01*
X105276190Y-84867142D01*
X105276190Y-85248095D01*
X105180952Y-84105238D02*
X105133333Y-84200476D01*
X105085714Y-84248095D01*
X104990476Y-84295714D01*
X104942857Y-84295714D01*
X104847619Y-84248095D01*
X104800000Y-84200476D01*
X104752381Y-84105238D01*
X104752381Y-83914761D01*
X104800000Y-83819523D01*
X104847619Y-83771904D01*
X104942857Y-83724285D01*
X104990476Y-83724285D01*
X105085714Y-83771904D01*
X105133333Y-83819523D01*
X105180952Y-83914761D01*
X105180952Y-84105238D01*
X105228571Y-84200476D01*
X105276190Y-84248095D01*
X105371429Y-84295714D01*
X105561905Y-84295714D01*
X105657143Y-84248095D01*
X105704762Y-84200476D01*
X105752381Y-84105238D01*
X105752381Y-83914761D01*
X105704762Y-83819523D01*
X105657143Y-83771904D01*
X105561905Y-83724285D01*
X105371429Y-83724285D01*
X105276190Y-83771904D01*
X105228571Y-83819523D01*
X105180952Y-83914761D01*
X116993334Y-96512381D02*
X116660000Y-96036190D01*
X116421905Y-96512381D02*
X116421905Y-95512381D01*
X116802858Y-95512381D01*
X116898096Y-95560000D01*
X116945715Y-95607619D01*
X116993334Y-95702857D01*
X116993334Y-95845714D01*
X116945715Y-95940952D01*
X116898096Y-95988571D01*
X116802858Y-96036190D01*
X116421905Y-96036190D01*
X117469524Y-96512381D02*
X117660000Y-96512381D01*
X117755239Y-96464762D01*
X117802858Y-96417143D01*
X117898096Y-96274286D01*
X117945715Y-96083810D01*
X117945715Y-95702857D01*
X117898096Y-95607619D01*
X117850477Y-95560000D01*
X117755239Y-95512381D01*
X117564762Y-95512381D01*
X117469524Y-95560000D01*
X117421905Y-95607619D01*
X117374286Y-95702857D01*
X117374286Y-95940952D01*
X117421905Y-96036190D01*
X117469524Y-96083810D01*
X117564762Y-96131429D01*
X117755239Y-96131429D01*
X117850477Y-96083810D01*
X117898096Y-96036190D01*
X117945715Y-95940952D01*
X120423861Y-92636577D02*
X119947670Y-92969911D01*
X120423861Y-93208006D02*
X119423861Y-93208006D01*
X119423861Y-92827053D01*
X119471480Y-92731815D01*
X119519099Y-92684196D01*
X119614337Y-92636577D01*
X119757194Y-92636577D01*
X119852432Y-92684196D01*
X119900051Y-92731815D01*
X119947670Y-92827053D01*
X119947670Y-93208006D01*
X120423861Y-91684196D02*
X120423861Y-92255625D01*
X120423861Y-91969911D02*
X119423861Y-91969911D01*
X119566718Y-92065149D01*
X119661956Y-92160387D01*
X119709575Y-92255625D01*
X119423861Y-91065149D02*
X119423861Y-90969910D01*
X119471480Y-90874672D01*
X119519099Y-90827053D01*
X119614337Y-90779434D01*
X119804813Y-90731815D01*
X120042909Y-90731815D01*
X120233385Y-90779434D01*
X120328623Y-90827053D01*
X120376242Y-90874672D01*
X120423861Y-90969910D01*
X120423861Y-91065149D01*
X120376242Y-91160387D01*
X120328623Y-91208006D01*
X120233385Y-91255625D01*
X120042909Y-91303244D01*
X119804813Y-91303244D01*
X119614337Y-91255625D01*
X119519099Y-91208006D01*
X119471480Y-91160387D01*
X119423861Y-91065149D01*
X130908823Y-76723841D02*
X130575489Y-76247650D01*
X130337394Y-76723841D02*
X130337394Y-75723841D01*
X130718347Y-75723841D01*
X130813585Y-75771460D01*
X130861204Y-75819079D01*
X130908823Y-75914317D01*
X130908823Y-76057174D01*
X130861204Y-76152412D01*
X130813585Y-76200031D01*
X130718347Y-76247650D01*
X130337394Y-76247650D01*
X131861204Y-76723841D02*
X131289775Y-76723841D01*
X131575489Y-76723841D02*
X131575489Y-75723841D01*
X131480251Y-75866698D01*
X131385013Y-75961936D01*
X131289775Y-76009555D01*
X132813585Y-76723841D02*
X132242156Y-76723841D01*
X132527870Y-76723841D02*
X132527870Y-75723841D01*
X132432632Y-75866698D01*
X132337394Y-75961936D01*
X132242156Y-76009555D01*
X134083242Y-115193913D02*
X134130861Y-115051056D01*
X134130861Y-114812960D01*
X134083242Y-114717722D01*
X134035623Y-114670103D01*
X133940385Y-114622484D01*
X133845147Y-114622484D01*
X133749909Y-114670103D01*
X133702290Y-114717722D01*
X133654670Y-114812960D01*
X133607051Y-115003437D01*
X133559432Y-115098675D01*
X133511813Y-115146294D01*
X133416575Y-115193913D01*
X133321337Y-115193913D01*
X133226099Y-115146294D01*
X133178480Y-115098675D01*
X133130861Y-115003437D01*
X133130861Y-114765341D01*
X133178480Y-114622484D01*
X133130861Y-114289151D02*
X134130861Y-114051056D01*
X133416575Y-113860579D01*
X134130861Y-113670103D01*
X133130861Y-113432008D01*
X134130861Y-112527246D02*
X134130861Y-113098675D01*
X134130861Y-112812961D02*
X133130861Y-112812961D01*
X133273718Y-112908199D01*
X133368956Y-113003437D01*
X133416575Y-113098675D01*
X121378095Y-108657381D02*
X121378095Y-109466905D01*
X121425714Y-109562143D01*
X121473333Y-109609762D01*
X121568571Y-109657381D01*
X121759048Y-109657381D01*
X121854286Y-109609762D01*
X121901905Y-109562143D01*
X121949524Y-109466905D01*
X121949524Y-108657381D01*
X122949524Y-109657381D02*
X122378095Y-109657381D01*
X122663809Y-109657381D02*
X122663809Y-108657381D01*
X122568571Y-108800238D01*
X122473333Y-108895476D01*
X122378095Y-108943095D01*
X96792381Y-105901905D02*
X97601905Y-105901905D01*
X97697143Y-105854286D01*
X97744762Y-105806667D01*
X97792381Y-105711429D01*
X97792381Y-105520952D01*
X97744762Y-105425714D01*
X97697143Y-105378095D01*
X97601905Y-105330476D01*
X96792381Y-105330476D01*
X96887619Y-104901905D02*
X96840000Y-104854286D01*
X96792381Y-104759048D01*
X96792381Y-104520952D01*
X96840000Y-104425714D01*
X96887619Y-104378095D01*
X96982857Y-104330476D01*
X97078095Y-104330476D01*
X97220952Y-104378095D01*
X97792381Y-104949524D01*
X97792381Y-104330476D01*
X96692381Y-115171905D02*
X97501905Y-115171905D01*
X97597143Y-115124286D01*
X97644762Y-115076667D01*
X97692381Y-114981429D01*
X97692381Y-114790952D01*
X97644762Y-114695714D01*
X97597143Y-114648095D01*
X97501905Y-114600476D01*
X96692381Y-114600476D01*
X96692381Y-114219524D02*
X96692381Y-113600476D01*
X97073333Y-113933810D01*
X97073333Y-113790952D01*
X97120952Y-113695714D01*
X97168571Y-113648095D01*
X97263810Y-113600476D01*
X97501905Y-113600476D01*
X97597143Y-113648095D01*
X97644762Y-113695714D01*
X97692381Y-113790952D01*
X97692381Y-114076667D01*
X97644762Y-114171905D01*
X97597143Y-114219524D01*
X101078095Y-80002381D02*
X101078095Y-80811905D01*
X101125714Y-80907143D01*
X101173333Y-80954762D01*
X101268571Y-81002381D01*
X101459048Y-81002381D01*
X101554286Y-80954762D01*
X101601905Y-80907143D01*
X101649524Y-80811905D01*
X101649524Y-80002381D01*
X102554286Y-80335714D02*
X102554286Y-81002381D01*
X102316190Y-79954762D02*
X102078095Y-80669048D01*
X102697143Y-80669048D01*
X122298095Y-94737381D02*
X122298095Y-95546905D01*
X122345714Y-95642143D01*
X122393333Y-95689762D01*
X122488571Y-95737381D01*
X122679048Y-95737381D01*
X122774286Y-95689762D01*
X122821905Y-95642143D01*
X122869524Y-95546905D01*
X122869524Y-94737381D01*
X123821905Y-94737381D02*
X123345714Y-94737381D01*
X123298095Y-95213571D01*
X123345714Y-95165952D01*
X123440952Y-95118333D01*
X123679048Y-95118333D01*
X123774286Y-95165952D01*
X123821905Y-95213571D01*
X123869524Y-95308810D01*
X123869524Y-95546905D01*
X123821905Y-95642143D01*
X123774286Y-95689762D01*
X123679048Y-95737381D01*
X123440952Y-95737381D01*
X123345714Y-95689762D01*
X123298095Y-95642143D01*
X133194735Y-97300261D02*
X133194735Y-98109785D01*
X133242354Y-98205023D01*
X133289973Y-98252642D01*
X133385211Y-98300261D01*
X133575688Y-98300261D01*
X133670926Y-98252642D01*
X133718545Y-98205023D01*
X133766164Y-98109785D01*
X133766164Y-97300261D01*
X134670926Y-97300261D02*
X134480449Y-97300261D01*
X134385211Y-97347880D01*
X134337592Y-97395499D01*
X134242354Y-97538356D01*
X134194735Y-97728832D01*
X134194735Y-98109785D01*
X134242354Y-98205023D01*
X134289973Y-98252642D01*
X134385211Y-98300261D01*
X134575688Y-98300261D01*
X134670926Y-98252642D01*
X134718545Y-98205023D01*
X134766164Y-98109785D01*
X134766164Y-97871690D01*
X134718545Y-97776451D01*
X134670926Y-97728832D01*
X134575688Y-97681213D01*
X134385211Y-97681213D01*
X134289973Y-97728832D01*
X134242354Y-97776451D01*
X134194735Y-97871690D01*
X100758095Y-118142381D02*
X100758095Y-118951905D01*
X100805714Y-119047143D01*
X100853333Y-119094762D01*
X100948571Y-119142381D01*
X101139048Y-119142381D01*
X101234286Y-119094762D01*
X101281905Y-119047143D01*
X101329524Y-118951905D01*
X101329524Y-118142381D01*
X101710476Y-118142381D02*
X102377143Y-118142381D01*
X101948571Y-119142381D01*
X106678095Y-117912381D02*
X106678095Y-118721905D01*
X106725714Y-118817143D01*
X106773333Y-118864762D01*
X106868571Y-118912381D01*
X107059048Y-118912381D01*
X107154286Y-118864762D01*
X107201905Y-118817143D01*
X107249524Y-118721905D01*
X107249524Y-117912381D01*
X107868571Y-118340952D02*
X107773333Y-118293333D01*
X107725714Y-118245714D01*
X107678095Y-118150476D01*
X107678095Y-118102857D01*
X107725714Y-118007619D01*
X107773333Y-117960000D01*
X107868571Y-117912381D01*
X108059048Y-117912381D01*
X108154286Y-117960000D01*
X108201905Y-118007619D01*
X108249524Y-118102857D01*
X108249524Y-118150476D01*
X108201905Y-118245714D01*
X108154286Y-118293333D01*
X108059048Y-118340952D01*
X107868571Y-118340952D01*
X107773333Y-118388571D01*
X107725714Y-118436190D01*
X107678095Y-118531429D01*
X107678095Y-118721905D01*
X107725714Y-118817143D01*
X107773333Y-118864762D01*
X107868571Y-118912381D01*
X108059048Y-118912381D01*
X108154286Y-118864762D01*
X108201905Y-118817143D01*
X108249524Y-118721905D01*
X108249524Y-118531429D01*
X108201905Y-118436190D01*
X108154286Y-118388571D01*
X108059048Y-118340952D01*
X128438095Y-117782381D02*
X128438095Y-118591905D01*
X128485714Y-118687143D01*
X128533333Y-118734762D01*
X128628571Y-118782381D01*
X128819048Y-118782381D01*
X128914286Y-118734762D01*
X128961905Y-118687143D01*
X129009524Y-118591905D01*
X129009524Y-117782381D01*
X129533333Y-118782381D02*
X129723809Y-118782381D01*
X129819048Y-118734762D01*
X129866667Y-118687143D01*
X129961905Y-118544286D01*
X130009524Y-118353810D01*
X130009524Y-117972857D01*
X129961905Y-117877619D01*
X129914286Y-117830000D01*
X129819048Y-117782381D01*
X129628571Y-117782381D01*
X129533333Y-117830000D01*
X129485714Y-117877619D01*
X129438095Y-117972857D01*
X129438095Y-118210952D01*
X129485714Y-118306190D01*
X129533333Y-118353810D01*
X129628571Y-118401429D01*
X129819048Y-118401429D01*
X129914286Y-118353810D01*
X129961905Y-118306190D01*
X130009524Y-118210952D01*
X118631905Y-117852381D02*
X118631905Y-118661905D01*
X118679524Y-118757143D01*
X118727143Y-118804762D01*
X118822381Y-118852381D01*
X119012858Y-118852381D01*
X119108096Y-118804762D01*
X119155715Y-118757143D01*
X119203334Y-118661905D01*
X119203334Y-117852381D01*
X120203334Y-118852381D02*
X119631905Y-118852381D01*
X119917619Y-118852381D02*
X119917619Y-117852381D01*
X119822381Y-117995238D01*
X119727143Y-118090476D01*
X119631905Y-118138095D01*
X120822381Y-117852381D02*
X120917620Y-117852381D01*
X121012858Y-117900000D01*
X121060477Y-117947619D01*
X121108096Y-118042857D01*
X121155715Y-118233333D01*
X121155715Y-118471429D01*
X121108096Y-118661905D01*
X121060477Y-118757143D01*
X121012858Y-118804762D01*
X120917620Y-118852381D01*
X120822381Y-118852381D01*
X120727143Y-118804762D01*
X120679524Y-118757143D01*
X120631905Y-118661905D01*
X120584286Y-118471429D01*
X120584286Y-118233333D01*
X120631905Y-118042857D01*
X120679524Y-117947619D01*
X120727143Y-117900000D01*
X120822381Y-117852381D01*
X96792381Y-97488095D02*
X97601905Y-97488095D01*
X97697143Y-97440476D01*
X97744762Y-97392857D01*
X97792381Y-97297619D01*
X97792381Y-97107142D01*
X97744762Y-97011904D01*
X97697143Y-96964285D01*
X97601905Y-96916666D01*
X96792381Y-96916666D01*
X97792381Y-95916666D02*
X97792381Y-96488095D01*
X97792381Y-96202381D02*
X96792381Y-96202381D01*
X96935238Y-96297619D01*
X97030476Y-96392857D01*
X97078095Y-96488095D01*
X97792381Y-94964285D02*
X97792381Y-95535714D01*
X97792381Y-95250000D02*
X96792381Y-95250000D01*
X96935238Y-95345238D01*
X97030476Y-95440476D01*
X97078095Y-95535714D01*
X96912381Y-87898095D02*
X97721905Y-87898095D01*
X97817143Y-87850476D01*
X97864762Y-87802857D01*
X97912381Y-87707619D01*
X97912381Y-87517142D01*
X97864762Y-87421904D01*
X97817143Y-87374285D01*
X97721905Y-87326666D01*
X96912381Y-87326666D01*
X97912381Y-86326666D02*
X97912381Y-86898095D01*
X97912381Y-86612381D02*
X96912381Y-86612381D01*
X97055238Y-86707619D01*
X97150476Y-86802857D01*
X97198095Y-86898095D01*
X97007619Y-85945714D02*
X96960000Y-85898095D01*
X96912381Y-85802857D01*
X96912381Y-85564761D01*
X96960000Y-85469523D01*
X97007619Y-85421904D01*
X97102857Y-85374285D01*
X97198095Y-85374285D01*
X97340952Y-85421904D01*
X97912381Y-85993333D01*
X97912381Y-85374285D01*
X130120545Y-81916021D02*
X130120545Y-82725545D01*
X130168164Y-82820783D01*
X130215783Y-82868402D01*
X130311021Y-82916021D01*
X130501498Y-82916021D01*
X130596736Y-82868402D01*
X130644355Y-82820783D01*
X130691974Y-82725545D01*
X130691974Y-81916021D01*
X131691974Y-82916021D02*
X131120545Y-82916021D01*
X131406259Y-82916021D02*
X131406259Y-81916021D01*
X131311021Y-82058878D01*
X131215783Y-82154116D01*
X131120545Y-82201735D01*
X132025307Y-81916021D02*
X132644355Y-81916021D01*
X132311021Y-82296973D01*
X132453879Y-82296973D01*
X132549117Y-82344592D01*
X132596736Y-82392211D01*
X132644355Y-82487450D01*
X132644355Y-82725545D01*
X132596736Y-82820783D01*
X132549117Y-82868402D01*
X132453879Y-82916021D01*
X132168164Y-82916021D01*
X132072926Y-82868402D01*
X132025307Y-82820783D01*
X101279524Y-116812381D02*
X100946190Y-116336190D01*
X100708095Y-116812381D02*
X100708095Y-115812381D01*
X101089048Y-115812381D01*
X101184286Y-115860000D01*
X101231905Y-115907619D01*
X101279524Y-116002857D01*
X101279524Y-116145714D01*
X101231905Y-116240952D01*
X101184286Y-116288571D01*
X101089048Y-116336190D01*
X100708095Y-116336190D01*
X101708095Y-116812381D02*
X101708095Y-115812381D01*
X102279524Y-116812381D01*
X102279524Y-115812381D01*
X103279524Y-116812381D02*
X102708095Y-116812381D01*
X102993809Y-116812381D02*
X102993809Y-115812381D01*
X102898571Y-115955238D01*
X102803333Y-116050476D01*
X102708095Y-116098095D01*
X114512381Y-116790476D02*
X114036190Y-117123810D01*
X114512381Y-117361905D02*
X113512381Y-117361905D01*
X113512381Y-116980952D01*
X113560000Y-116885714D01*
X113607619Y-116838095D01*
X113702857Y-116790476D01*
X113845714Y-116790476D01*
X113940952Y-116838095D01*
X113988571Y-116885714D01*
X114036190Y-116980952D01*
X114036190Y-117361905D01*
X114512381Y-116361905D02*
X113512381Y-116361905D01*
X114512381Y-115790476D01*
X113512381Y-115790476D01*
X113607619Y-115361905D02*
X113560000Y-115314286D01*
X113512381Y-115219048D01*
X113512381Y-114980952D01*
X113560000Y-114885714D01*
X113607619Y-114838095D01*
X113702857Y-114790476D01*
X113798095Y-114790476D01*
X113940952Y-114838095D01*
X114512381Y-115409524D01*
X114512381Y-114790476D01*
X127252381Y-109000476D02*
X126776190Y-109333810D01*
X127252381Y-109571905D02*
X126252381Y-109571905D01*
X126252381Y-109190952D01*
X126300000Y-109095714D01*
X126347619Y-109048095D01*
X126442857Y-109000476D01*
X126585714Y-109000476D01*
X126680952Y-109048095D01*
X126728571Y-109095714D01*
X126776190Y-109190952D01*
X126776190Y-109571905D01*
X127252381Y-108571905D02*
X126252381Y-108571905D01*
X127252381Y-108000476D01*
X126252381Y-108000476D01*
X126252381Y-107048095D02*
X126252381Y-107524286D01*
X126728571Y-107571905D01*
X126680952Y-107524286D01*
X126633333Y-107429048D01*
X126633333Y-107190952D01*
X126680952Y-107095714D01*
X126728571Y-107048095D01*
X126823810Y-107000476D01*
X127061905Y-107000476D01*
X127157143Y-107048095D01*
X127204762Y-107095714D01*
X127252381Y-107190952D01*
X127252381Y-107429048D01*
X127204762Y-107524286D01*
X127157143Y-107571905D01*
M02*
