G04 #@! TF.FileFunction,Legend,Bot*
%FSLAX46Y46*%
G04 Gerber Fmt 4.6, Leading zero omitted, Abs format (unit mm)*
G04 Created by KiCad (PCBNEW 4.0.5-e0-6337~49~ubuntu16.04.1) date Tue Feb 21 22:51:04 2017*
%MOMM*%
%LPD*%
G01*
G04 APERTURE LIST*
%ADD10C,0.100000*%
%ADD11C,0.300000*%
G04 APERTURE END LIST*
D10*
D11*
X131985713Y-102427857D02*
X132485713Y-102427857D01*
X132485713Y-103213571D02*
X132485713Y-101713571D01*
X131771427Y-101713571D01*
X131199999Y-103213571D02*
X131199999Y-102213571D01*
X131199999Y-102499286D02*
X131128571Y-102356429D01*
X131057142Y-102285000D01*
X130914285Y-102213571D01*
X130771428Y-102213571D01*
X130057142Y-103213571D02*
X130200000Y-103142143D01*
X130271428Y-103070714D01*
X130342857Y-102927857D01*
X130342857Y-102499286D01*
X130271428Y-102356429D01*
X130200000Y-102285000D01*
X130057142Y-102213571D01*
X129842857Y-102213571D01*
X129700000Y-102285000D01*
X129628571Y-102356429D01*
X129557142Y-102499286D01*
X129557142Y-102927857D01*
X129628571Y-103070714D01*
X129700000Y-103142143D01*
X129842857Y-103213571D01*
X130057142Y-103213571D01*
X128271428Y-103213571D02*
X128271428Y-101713571D01*
X128271428Y-103142143D02*
X128414285Y-103213571D01*
X128699999Y-103213571D01*
X128842857Y-103142143D01*
X128914285Y-103070714D01*
X128985714Y-102927857D01*
X128985714Y-102499286D01*
X128914285Y-102356429D01*
X128842857Y-102285000D01*
X128699999Y-102213571D01*
X128414285Y-102213571D01*
X128271428Y-102285000D01*
X126985714Y-103142143D02*
X127128571Y-103213571D01*
X127414285Y-103213571D01*
X127557142Y-103142143D01*
X127628571Y-102999286D01*
X127628571Y-102427857D01*
X127557142Y-102285000D01*
X127414285Y-102213571D01*
X127128571Y-102213571D01*
X126985714Y-102285000D01*
X126914285Y-102427857D01*
X126914285Y-102570714D01*
X127628571Y-102713571D01*
X124414285Y-103213571D02*
X125128571Y-103213571D01*
X125128571Y-101713571D01*
X123914285Y-103213571D02*
X123914285Y-102213571D01*
X123914285Y-101713571D02*
X123985714Y-101785000D01*
X123914285Y-101856429D01*
X123842857Y-101785000D01*
X123914285Y-101713571D01*
X123914285Y-101856429D01*
X122985713Y-103213571D02*
X123128571Y-103142143D01*
X123199999Y-102999286D01*
X123199999Y-101713571D01*
X122199999Y-103213571D02*
X122342857Y-103142143D01*
X122414285Y-102999286D01*
X122414285Y-101713571D01*
X121057143Y-103142143D02*
X121200000Y-103213571D01*
X121485714Y-103213571D01*
X121628571Y-103142143D01*
X121700000Y-102999286D01*
X121700000Y-102427857D01*
X121628571Y-102285000D01*
X121485714Y-102213571D01*
X121200000Y-102213571D01*
X121057143Y-102285000D01*
X120985714Y-102427857D01*
X120985714Y-102570714D01*
X121700000Y-102713571D01*
X120342857Y-103213571D02*
X120342857Y-102213571D01*
X120342857Y-102499286D02*
X120271429Y-102356429D01*
X120200000Y-102285000D01*
X120057143Y-102213571D01*
X119914286Y-102213571D01*
X118771429Y-102213571D02*
X118771429Y-103213571D01*
X119414286Y-102213571D02*
X119414286Y-102999286D01*
X119342858Y-103142143D01*
X119200000Y-103213571D01*
X118985715Y-103213571D01*
X118842858Y-103142143D01*
X118771429Y-103070714D01*
X117414286Y-103213571D02*
X117414286Y-101713571D01*
X117414286Y-103142143D02*
X117557143Y-103213571D01*
X117842857Y-103213571D01*
X117985715Y-103142143D01*
X118057143Y-103070714D01*
X118128572Y-102927857D01*
X118128572Y-102499286D01*
X118057143Y-102356429D01*
X117985715Y-102285000D01*
X117842857Y-102213571D01*
X117557143Y-102213571D01*
X117414286Y-102285000D01*
X131628570Y-104406429D02*
X131557141Y-104335000D01*
X131414284Y-104263571D01*
X131057141Y-104263571D01*
X130914284Y-104335000D01*
X130842855Y-104406429D01*
X130771427Y-104549286D01*
X130771427Y-104692143D01*
X130842855Y-104906429D01*
X131699998Y-105763571D01*
X130771427Y-105763571D01*
X129342856Y-105763571D02*
X130199999Y-105763571D01*
X129771427Y-105763571D02*
X129771427Y-104263571D01*
X129914284Y-104477857D01*
X130057142Y-104620714D01*
X130199999Y-104692143D01*
X128699999Y-105620714D02*
X128628571Y-105692143D01*
X128699999Y-105763571D01*
X128771428Y-105692143D01*
X128699999Y-105620714D01*
X128699999Y-105763571D01*
X128199999Y-104763571D02*
X127628570Y-104763571D01*
X127985713Y-105763571D02*
X127985713Y-104477857D01*
X127914285Y-104335000D01*
X127771427Y-104263571D01*
X127628570Y-104263571D01*
X126557142Y-105692143D02*
X126699999Y-105763571D01*
X126985713Y-105763571D01*
X127128570Y-105692143D01*
X127199999Y-105549286D01*
X127199999Y-104977857D01*
X127128570Y-104835000D01*
X126985713Y-104763571D01*
X126699999Y-104763571D01*
X126557142Y-104835000D01*
X126485713Y-104977857D01*
X126485713Y-105120714D01*
X127199999Y-105263571D01*
X125842856Y-105763571D02*
X125842856Y-104263571D01*
X125842856Y-104835000D02*
X125699999Y-104763571D01*
X125414285Y-104763571D01*
X125271428Y-104835000D01*
X125199999Y-104906429D01*
X125128570Y-105049286D01*
X125128570Y-105477857D01*
X125199999Y-105620714D01*
X125271428Y-105692143D01*
X125414285Y-105763571D01*
X125699999Y-105763571D01*
X125842856Y-105692143D01*
X123414285Y-104406429D02*
X123342856Y-104335000D01*
X123199999Y-104263571D01*
X122842856Y-104263571D01*
X122699999Y-104335000D01*
X122628570Y-104406429D01*
X122557142Y-104549286D01*
X122557142Y-104692143D01*
X122628570Y-104906429D01*
X123485713Y-105763571D01*
X122557142Y-105763571D01*
X121628571Y-104263571D02*
X121485714Y-104263571D01*
X121342857Y-104335000D01*
X121271428Y-104406429D01*
X121199999Y-104549286D01*
X121128571Y-104835000D01*
X121128571Y-105192143D01*
X121199999Y-105477857D01*
X121271428Y-105620714D01*
X121342857Y-105692143D01*
X121485714Y-105763571D01*
X121628571Y-105763571D01*
X121771428Y-105692143D01*
X121842857Y-105620714D01*
X121914285Y-105477857D01*
X121985714Y-105192143D01*
X121985714Y-104835000D01*
X121914285Y-104549286D01*
X121842857Y-104406429D01*
X121771428Y-104335000D01*
X121628571Y-104263571D01*
X119700000Y-105763571D02*
X120557143Y-105763571D01*
X120128571Y-105763571D02*
X120128571Y-104263571D01*
X120271428Y-104477857D01*
X120414286Y-104620714D01*
X120557143Y-104692143D01*
X119200000Y-104263571D02*
X118200000Y-104263571D01*
X118842857Y-105763571D01*
M02*
