G04 #@! TF.FileFunction,Copper,L1,Top,Signal*
%FSLAX46Y46*%
G04 Gerber Fmt 4.6, Leading zero omitted, Abs format (unit mm)*
G04 Created by KiCad (PCBNEW 4.0.5-e0-6337~49~ubuntu16.04.1) date Tue Feb 21 22:51:04 2017*
%MOMM*%
%LPD*%
G01*
G04 APERTURE LIST*
%ADD10C,0.100000*%
%ADD11R,0.800000X0.750000*%
%ADD12R,0.750000X0.800000*%
%ADD13R,1.200000X1.200000*%
%ADD14R,1.700000X1.700000*%
%ADD15O,1.700000X1.700000*%
%ADD16R,2.500000X0.350000*%
%ADD17R,0.800000X0.900000*%
%ADD18R,0.900000X1.200000*%
%ADD19R,1.200000X0.900000*%
%ADD20R,0.700000X1.450000*%
%ADD21R,0.850000X0.300000*%
%ADD22R,0.300000X0.850000*%
%ADD23R,1.550000X0.600000*%
%ADD24R,1.800000X1.200000*%
%ADD25R,0.800000X1.800000*%
%ADD26R,1.300000X1.300000*%
%ADD27O,0.750000X0.300000*%
%ADD28O,0.300000X0.750000*%
%ADD29R,0.900000X0.900000*%
%ADD30R,0.600000X1.550000*%
%ADD31R,1.200000X1.800000*%
%ADD32R,0.508000X1.143000*%
%ADD33R,0.800000X0.500000*%
%ADD34R,0.800000X0.400000*%
%ADD35R,0.500000X0.800000*%
%ADD36R,0.400000X0.800000*%
%ADD37R,0.300000X0.800000*%
%ADD38C,0.600000*%
%ADD39C,0.250000*%
%ADD40C,0.254000*%
G04 APERTURE END LIST*
D10*
D11*
X102350000Y-85660000D03*
X100850000Y-85660000D03*
X137210000Y-106210000D03*
X135710000Y-106210000D03*
X133017960Y-90106500D03*
X131517960Y-90106500D03*
D12*
X128690000Y-101100000D03*
X128690000Y-102600000D03*
D11*
X128760000Y-96830000D03*
X130260000Y-96830000D03*
X127810000Y-91670000D03*
X126310000Y-91670000D03*
D12*
X138160000Y-100070000D03*
X138160000Y-101570000D03*
D11*
X134856920Y-95791020D03*
X133356920Y-95791020D03*
D13*
X115200000Y-79930000D03*
X113000000Y-79930000D03*
D14*
X137807700Y-90124280D03*
D15*
X137807700Y-87584280D03*
X137807700Y-85044280D03*
D14*
X124165360Y-81559400D03*
D15*
X121625360Y-81559400D03*
X119085360Y-81559400D03*
D14*
X124068840Y-77604620D03*
D15*
X121528840Y-77604620D03*
X118988840Y-77604620D03*
D16*
X111868780Y-100711280D03*
X111868780Y-101311280D03*
X111868780Y-101911280D03*
X111868780Y-102511280D03*
X111868780Y-103111280D03*
X111868780Y-103711280D03*
X111868780Y-104311280D03*
X111868780Y-104911280D03*
X111868780Y-105511280D03*
X111868780Y-106111280D03*
X111868780Y-106711280D03*
X111868780Y-107311280D03*
X111868780Y-107911280D03*
X111868780Y-108511280D03*
X111868780Y-109111280D03*
X111868780Y-100111280D03*
X111868780Y-99511280D03*
X111868780Y-98911280D03*
X111868780Y-98311280D03*
X111868780Y-97711280D03*
X111868780Y-97111280D03*
X111868780Y-96511280D03*
X111868780Y-95911280D03*
X111868780Y-95311280D03*
X111868780Y-94711280D03*
X111868780Y-94111280D03*
X111868780Y-93511280D03*
X111868780Y-92911280D03*
X111868780Y-92311280D03*
X111868780Y-91711280D03*
X107368780Y-100711280D03*
X107368780Y-101311280D03*
X107368780Y-101911280D03*
X107368780Y-102511280D03*
X107368780Y-103111280D03*
X107368780Y-103711280D03*
X107368780Y-104311280D03*
X107368780Y-104911280D03*
X107368780Y-105511280D03*
X107368780Y-106111280D03*
X107368780Y-106711280D03*
X107368780Y-107311280D03*
X107368780Y-108511280D03*
X107368780Y-109111280D03*
X107368780Y-107911280D03*
X107368780Y-100111280D03*
X107368780Y-99511280D03*
X107368780Y-97711280D03*
X107368780Y-98911280D03*
X107368780Y-98311280D03*
X107368780Y-97111280D03*
X107368780Y-94711280D03*
X107368780Y-95911280D03*
X107368780Y-96511280D03*
X107368780Y-95311280D03*
X107368780Y-92311280D03*
X107368780Y-93511280D03*
X107368780Y-92911280D03*
X107368780Y-91711280D03*
X107368780Y-94111280D03*
D17*
X120960000Y-87300000D03*
X122860000Y-87300000D03*
X121910000Y-85300000D03*
X109570000Y-85430000D03*
X111470000Y-85430000D03*
X110520000Y-83430000D03*
D18*
X118730000Y-104210000D03*
X118730000Y-106410000D03*
D19*
X102530000Y-82300000D03*
X100330000Y-82300000D03*
D18*
X125560000Y-85260000D03*
X125560000Y-87460000D03*
D19*
X135390000Y-108780000D03*
X137590000Y-108780000D03*
X115220000Y-77490000D03*
X113020000Y-77490000D03*
D18*
X118420000Y-87520000D03*
X118420000Y-85320000D03*
X114220000Y-83510000D03*
X114220000Y-85710000D03*
X106750000Y-85610000D03*
X106750000Y-83410000D03*
X117080000Y-99900000D03*
X117080000Y-97700000D03*
X118521480Y-90893720D03*
X118521480Y-93093720D03*
D19*
X130451680Y-77721460D03*
X132651680Y-77721460D03*
D20*
X135428480Y-111280580D03*
X135428480Y-116440580D03*
X137428480Y-116440580D03*
X137428480Y-111280580D03*
D21*
X120190000Y-111330000D03*
X120190000Y-111830000D03*
X120190000Y-112330000D03*
X120190000Y-112830000D03*
X120190000Y-113330000D03*
X120190000Y-113830000D03*
D22*
X120890000Y-114530000D03*
X121390000Y-114530000D03*
X121890000Y-114530000D03*
X122390000Y-114530000D03*
X122890000Y-114530000D03*
X123390000Y-114530000D03*
D21*
X124090000Y-113830000D03*
X124090000Y-113330000D03*
X124090000Y-112830000D03*
X124090000Y-112330000D03*
X124090000Y-111830000D03*
X124090000Y-111330000D03*
D22*
X123390000Y-110630000D03*
X122890000Y-110630000D03*
X122390000Y-110630000D03*
X121890000Y-110630000D03*
X121390000Y-110630000D03*
X120890000Y-110630000D03*
D23*
X95182500Y-106630000D03*
X95182500Y-105630000D03*
X95182500Y-104630000D03*
X95182500Y-103630000D03*
D24*
X92657500Y-107930000D03*
X92657500Y-102330000D03*
D23*
X95138360Y-115993040D03*
X95138360Y-114993040D03*
X95138360Y-113993040D03*
X95138360Y-112993040D03*
D24*
X92613360Y-117293040D03*
X92613360Y-111693040D03*
D25*
X99935000Y-78518000D03*
X101205000Y-78518000D03*
X102475000Y-78518000D03*
X103745000Y-78518000D03*
D21*
X121110000Y-97410000D03*
X121110000Y-97910000D03*
X121110000Y-98410000D03*
X121110000Y-98910000D03*
X121110000Y-99410000D03*
X121110000Y-99910000D03*
D22*
X121810000Y-100610000D03*
X122310000Y-100610000D03*
X122810000Y-100610000D03*
X123310000Y-100610000D03*
X123810000Y-100610000D03*
X124310000Y-100610000D03*
D21*
X125010000Y-99910000D03*
X125010000Y-99410000D03*
X125010000Y-98910000D03*
X125010000Y-98410000D03*
X125010000Y-97910000D03*
X125010000Y-97410000D03*
D22*
X124310000Y-96710000D03*
X123810000Y-96710000D03*
X123310000Y-96710000D03*
X122810000Y-96710000D03*
X122310000Y-96710000D03*
X121810000Y-96710000D03*
D26*
X123710000Y-99310000D03*
X123710000Y-98010000D03*
X122410000Y-99310000D03*
X122410000Y-98010000D03*
D27*
X132481640Y-99947880D03*
X132481640Y-100447880D03*
X132481640Y-100947880D03*
X132481640Y-101447880D03*
D28*
X133206640Y-102172880D03*
X133706640Y-102172880D03*
X134206640Y-102172880D03*
X134706640Y-102172880D03*
D27*
X135431640Y-101447880D03*
X135431640Y-100947880D03*
X135431640Y-100447880D03*
X135431640Y-99947880D03*
D28*
X134706640Y-99222880D03*
X134206640Y-99222880D03*
X133706640Y-99222880D03*
X133206640Y-99222880D03*
D29*
X134406640Y-101147880D03*
X134406640Y-100247880D03*
X133506640Y-101147880D03*
X133506640Y-100247880D03*
D30*
X102945060Y-120606700D03*
X101945060Y-120606700D03*
X100945060Y-120606700D03*
X99945060Y-120606700D03*
D31*
X104245060Y-123131700D03*
X98645060Y-123131700D03*
D30*
X111940000Y-120497500D03*
X110940000Y-120497500D03*
X109940000Y-120497500D03*
X108940000Y-120497500D03*
D31*
X113240000Y-123022500D03*
X107640000Y-123022500D03*
D30*
X130850000Y-120457500D03*
X129850000Y-120457500D03*
X128850000Y-120457500D03*
X127850000Y-120457500D03*
D31*
X132150000Y-122982500D03*
X126550000Y-122982500D03*
D30*
X121440000Y-120337500D03*
X120440000Y-120337500D03*
X119440000Y-120337500D03*
X118440000Y-120337500D03*
D31*
X122740000Y-122862500D03*
X117140000Y-122862500D03*
D23*
X95182500Y-97370000D03*
X95182500Y-96370000D03*
X95182500Y-95370000D03*
X95182500Y-94370000D03*
D24*
X92657500Y-98670000D03*
X92657500Y-93070000D03*
D23*
X95312500Y-88140000D03*
X95312500Y-87140000D03*
X95312500Y-86140000D03*
X95312500Y-85140000D03*
D24*
X92787500Y-89440000D03*
X92787500Y-83840000D03*
D32*
X129453640Y-80558640D03*
X130723640Y-80558640D03*
X131993640Y-80558640D03*
X133263640Y-80558640D03*
X133263640Y-86908640D03*
X131993640Y-86908640D03*
X130723640Y-86908640D03*
X129453640Y-86908640D03*
D33*
X102870000Y-114760000D03*
D34*
X102870000Y-113160000D03*
X102870000Y-113960000D03*
D33*
X102870000Y-112360000D03*
D34*
X101070000Y-113960000D03*
D33*
X101070000Y-114760000D03*
D34*
X101070000Y-113160000D03*
D33*
X101070000Y-112360000D03*
D35*
X112460000Y-115200000D03*
D36*
X110860000Y-115200000D03*
X111660000Y-115200000D03*
D35*
X110060000Y-115200000D03*
D36*
X111660000Y-117000000D03*
D35*
X112460000Y-117000000D03*
D36*
X110860000Y-117000000D03*
D35*
X110060000Y-117000000D03*
D37*
X128050000Y-109210000D03*
X128050000Y-107410000D03*
X131550000Y-109210000D03*
X131550000Y-107410000D03*
X128550000Y-109210000D03*
X129050000Y-109210000D03*
X129550000Y-109210000D03*
X130050000Y-109210000D03*
X130550000Y-109210000D03*
X131050000Y-109210000D03*
X128550000Y-107410000D03*
X129050000Y-107410000D03*
X129550000Y-107410000D03*
X130550000Y-107410000D03*
X130050000Y-107410000D03*
X131050000Y-107410000D03*
D38*
X101940000Y-118420000D03*
X103480000Y-108010000D03*
X115570000Y-118680000D03*
X98260000Y-111030000D03*
X109990000Y-118440000D03*
X126310000Y-110240000D03*
X127120000Y-98160000D03*
X118540000Y-97760000D03*
X127560000Y-89200000D03*
X129460000Y-91200000D03*
X132530000Y-92230000D03*
X136770000Y-97850000D03*
X137180000Y-103230000D03*
X126370000Y-118310000D03*
X114940000Y-103310000D03*
X122680000Y-102570000D03*
X116110000Y-82184410D03*
X127665546Y-99589444D03*
X122147423Y-101973024D03*
X126950000Y-83640000D03*
X134970000Y-83820000D03*
X108248051Y-86894990D03*
X98080000Y-84230000D03*
X117850000Y-102060000D03*
X130750000Y-102140000D03*
X129720000Y-98080000D03*
X123790000Y-95400000D03*
X123780000Y-94040000D03*
X133360000Y-97170000D03*
X136800000Y-100920000D03*
X115060000Y-95800000D03*
X128800000Y-78820000D03*
X126820000Y-80160000D03*
X104670000Y-93540000D03*
X105550000Y-87520000D03*
X117810966Y-100913606D03*
X120750000Y-106430000D03*
X124700000Y-105850000D03*
X116910000Y-93060000D03*
X116930000Y-95959999D03*
X126140000Y-104500000D03*
X125520000Y-106530000D03*
X133217631Y-88570000D03*
X119140000Y-96710000D03*
X115010000Y-105530000D03*
X126220000Y-101790000D03*
X139450000Y-107200000D03*
X116800000Y-107570000D03*
X115170000Y-104400000D03*
X124430000Y-102070000D03*
X119000000Y-89250000D03*
X122590000Y-89180000D03*
X105176719Y-114134990D03*
X98160000Y-115630000D03*
X102100000Y-116780000D03*
X97800000Y-117010000D03*
X116260000Y-114649998D03*
X111630000Y-118540000D03*
X127125749Y-114455010D03*
X121790000Y-117550000D03*
X125850644Y-115803255D03*
X129860000Y-116430000D03*
X128168713Y-113265255D03*
X124060000Y-118100000D03*
X128260000Y-111460000D03*
X101320000Y-99460000D03*
X125840000Y-108420000D03*
X101470000Y-93480000D03*
X127030000Y-112640000D03*
X101380000Y-101840000D03*
X125510000Y-109270000D03*
X101440000Y-96750000D03*
X130800000Y-99360000D03*
X118940000Y-98860000D03*
D39*
X101205000Y-80301590D02*
X102530000Y-81626590D01*
X101205000Y-78518000D02*
X101205000Y-80301590D01*
X102530000Y-81626590D02*
X102530000Y-82300000D01*
X102530000Y-82300000D02*
X102530000Y-85480000D01*
X102530000Y-85480000D02*
X102350000Y-85660000D01*
X113000000Y-79930000D02*
X113000000Y-80780000D01*
X113000000Y-80780000D02*
X113779400Y-81559400D01*
X113779400Y-81559400D02*
X117883279Y-81559400D01*
X117883279Y-81559400D02*
X119085360Y-81559400D01*
X100945060Y-120606700D02*
X100945060Y-119414940D01*
X100945060Y-119414940D02*
X101940000Y-118420000D01*
X109940000Y-120497500D02*
X109940000Y-118490000D01*
X109940000Y-118490000D02*
X109990000Y-118440000D01*
X95182500Y-104630000D02*
X100100000Y-104630000D01*
X100100000Y-104630000D02*
X103381280Y-107911280D01*
X105868780Y-107911280D02*
X107368780Y-107911280D01*
X103381280Y-107911280D02*
X105868780Y-107911280D01*
X103480000Y-108010000D02*
X107270060Y-108010000D01*
X107270060Y-108010000D02*
X107368780Y-107911280D01*
X121890000Y-114530000D02*
X121890000Y-115326413D01*
X121890000Y-115326413D02*
X118536413Y-118680000D01*
X118536413Y-118680000D02*
X115570000Y-118680000D01*
X121390000Y-110630000D02*
X121390000Y-111305000D01*
X121390000Y-111305000D02*
X121890000Y-111805000D01*
X121890000Y-111805000D02*
X121890000Y-114530000D01*
X111868780Y-106111280D02*
X110368780Y-106111280D01*
X110368780Y-106111280D02*
X110293779Y-106036279D01*
X110293779Y-106036279D02*
X110293779Y-104986281D01*
X110293779Y-104986281D02*
X110368780Y-104911280D01*
X110368780Y-104911280D02*
X111868780Y-104911280D01*
X110368780Y-104911280D02*
X110293779Y-104836279D01*
X110293779Y-104836279D02*
X110293779Y-103786281D01*
X110293779Y-103786281D02*
X110368780Y-103711280D01*
X110368780Y-103711280D02*
X111868780Y-103711280D01*
X111868780Y-103711280D02*
X111868780Y-103111280D01*
X95138360Y-113993040D02*
X96163360Y-113993040D01*
X96163360Y-113993040D02*
X98260000Y-111896400D01*
X98260000Y-111896400D02*
X98260000Y-111030000D01*
X121390000Y-110630000D02*
X121390000Y-109955000D01*
X121390000Y-109955000D02*
X120815000Y-109380000D01*
X121890000Y-110630000D02*
X121390000Y-110630000D01*
X124090000Y-111330000D02*
X125220000Y-111330000D01*
X125220000Y-111330000D02*
X126310000Y-110240000D01*
X128690000Y-99730000D02*
X127120000Y-98160000D01*
X128690000Y-101100000D02*
X128690000Y-99730000D01*
X125010000Y-97410000D02*
X126370000Y-97410000D01*
X126370000Y-97410000D02*
X127120000Y-98160000D01*
X118890000Y-97410000D02*
X118540000Y-97760000D01*
X121110000Y-97410000D02*
X118890000Y-97410000D01*
X127560000Y-89200000D02*
X129453640Y-87306360D01*
X129453640Y-87306360D02*
X129453640Y-86908640D01*
X127810000Y-91670000D02*
X128990000Y-91670000D01*
X128990000Y-91670000D02*
X129460000Y-91200000D01*
X101255001Y-84629999D02*
X101255001Y-80988001D01*
X100850000Y-85660000D02*
X100850000Y-85035000D01*
X100850000Y-85035000D02*
X101255001Y-84629999D01*
X101255001Y-80988001D02*
X99935000Y-79668000D01*
X99935000Y-79668000D02*
X99935000Y-78518000D01*
X127810000Y-91670000D02*
X130579460Y-91670000D01*
X130579460Y-91670000D02*
X131517960Y-90731500D01*
X131517960Y-90731500D02*
X131517960Y-90106500D01*
X131517960Y-90106500D02*
X131517960Y-91217960D01*
X131517960Y-91217960D02*
X132530000Y-92230000D01*
X136770000Y-99734520D02*
X136770000Y-97850000D01*
X135431640Y-100447880D02*
X136056640Y-100447880D01*
X136056640Y-100447880D02*
X136770000Y-99734520D01*
X135431640Y-101447880D02*
X135656640Y-101447880D01*
X137180000Y-102971240D02*
X137180000Y-103230000D01*
X135656640Y-101447880D02*
X137180000Y-102971240D01*
X121387498Y-122130000D02*
X120207500Y-122130000D01*
X120207500Y-122130000D02*
X119440000Y-121362500D01*
X119440000Y-121362500D02*
X119440000Y-120337500D01*
X125207498Y-118310000D02*
X121387498Y-122130000D01*
X126370000Y-118310000D02*
X125207498Y-118310000D01*
X119440000Y-117655000D02*
X119440000Y-120337500D01*
X121890000Y-114530000D02*
X121890000Y-115205000D01*
X121890000Y-115205000D02*
X119440000Y-117655000D01*
X128850000Y-120457500D02*
X128850000Y-119432500D01*
X128850000Y-119432500D02*
X127727500Y-118310000D01*
X127727500Y-118310000D02*
X126370000Y-118310000D01*
X109710000Y-106440000D02*
X109438720Y-106711280D01*
X109438720Y-106711280D02*
X107368780Y-106711280D01*
X110040060Y-106440000D02*
X109710000Y-106440000D01*
X110368780Y-106111280D02*
X110040060Y-106440000D01*
X107368780Y-106711280D02*
X107368780Y-107311280D01*
X107368780Y-98311280D02*
X107368780Y-97711280D01*
X107368780Y-98911280D02*
X107368780Y-98311280D01*
X107368780Y-99511280D02*
X107368780Y-98911280D01*
X107368780Y-100111280D02*
X107368780Y-99511280D01*
X107368780Y-100711280D02*
X107368780Y-100111280D01*
X111868780Y-103111280D02*
X110368780Y-103111280D01*
X110368780Y-103111280D02*
X108943781Y-101686281D01*
X108943781Y-101686281D02*
X108943781Y-100786281D01*
X108943781Y-100786281D02*
X108868780Y-100711280D01*
X108868780Y-100711280D02*
X107368780Y-100711280D01*
X114940000Y-103310000D02*
X112067500Y-103310000D01*
X112067500Y-103310000D02*
X111868780Y-103111280D01*
X122810000Y-100610000D02*
X122810000Y-102440000D01*
X122810000Y-102440000D02*
X122680000Y-102570000D01*
X135390000Y-108780000D02*
X135390000Y-106530000D01*
X135390000Y-106530000D02*
X135710000Y-106210000D01*
X135428480Y-111280580D02*
X135428480Y-108818480D01*
X135428480Y-108818480D02*
X135390000Y-108780000D01*
X135428480Y-116440580D02*
X135428480Y-111280580D01*
X133017960Y-90106500D02*
X133042960Y-90106500D01*
X133042960Y-90106500D02*
X133842641Y-89306819D01*
X133842641Y-89306819D02*
X133842641Y-81959141D01*
X133842641Y-81959141D02*
X133263640Y-81380140D01*
X133263640Y-81380140D02*
X133263640Y-80558640D01*
X133263640Y-80558640D02*
X133263640Y-78333420D01*
X133263640Y-78333420D02*
X132651680Y-77721460D01*
X132651680Y-77721460D02*
X132651680Y-77021460D01*
X132651680Y-77021460D02*
X132576679Y-76946459D01*
X132576679Y-76946459D02*
X129003783Y-76946459D01*
X129003783Y-76946459D02*
X127170621Y-78779621D01*
X121528840Y-77604620D02*
X122703841Y-78779621D01*
X122703841Y-78779621D02*
X127170621Y-78779621D01*
X127170621Y-78779621D02*
X128949640Y-80558640D01*
X128949640Y-80558640D02*
X129453640Y-80558640D01*
X123310000Y-101875004D02*
X123310000Y-100610000D01*
X124730002Y-102695002D02*
X124129998Y-102695002D01*
X124825004Y-102600000D02*
X124730002Y-102695002D01*
X124129998Y-102695002D02*
X123310000Y-101875004D01*
X128690000Y-102600000D02*
X124825004Y-102600000D01*
X116110000Y-82320000D02*
X116110000Y-82184410D01*
X114220000Y-83510000D02*
X114920000Y-83510000D01*
X114920000Y-83510000D02*
X116110000Y-82320000D01*
X107368780Y-93511280D02*
X107368780Y-92911280D01*
X125010000Y-99910000D02*
X127344990Y-99910000D01*
X127344990Y-99910000D02*
X127665546Y-99589444D01*
X118440000Y-121362500D02*
X118440000Y-120337500D01*
X121165001Y-124087501D02*
X118440000Y-121362500D01*
X123600001Y-124087501D02*
X121165001Y-124087501D01*
X124434647Y-123252855D02*
X123600001Y-124087501D01*
X124434647Y-120457500D02*
X124434647Y-123252855D01*
X125459647Y-119432500D02*
X124434647Y-120457500D01*
X127300000Y-119432500D02*
X125459647Y-119432500D01*
X127850000Y-119982500D02*
X127300000Y-119432500D01*
X127850000Y-120457500D02*
X127850000Y-119982500D01*
X122310000Y-100610000D02*
X122310000Y-101810447D01*
X122310000Y-101810447D02*
X122147423Y-101973024D01*
X117080000Y-101290000D02*
X117080000Y-99900000D01*
X117850000Y-102060000D02*
X117080000Y-101290000D01*
X127650000Y-107410000D02*
X128050000Y-107410000D01*
X124399998Y-105224998D02*
X125464998Y-105224998D01*
X122390000Y-107234996D02*
X124399998Y-105224998D01*
X122390000Y-110630000D02*
X122390000Y-107234996D01*
X125464998Y-105224998D02*
X127650000Y-107410000D01*
X126950000Y-83640000D02*
X126950000Y-83870000D01*
X126950000Y-83870000D02*
X125560000Y-85260000D01*
X136707700Y-90124280D02*
X134970000Y-88386580D01*
X134970000Y-88386580D02*
X134970000Y-83820000D01*
X100936960Y-112993040D02*
X101070000Y-112860000D01*
X101070000Y-112860000D02*
X101070000Y-112360000D01*
X95182500Y-94370000D02*
X94707500Y-94370000D01*
X94707500Y-94370000D02*
X94212499Y-93874999D01*
X94212499Y-93874999D02*
X94212499Y-85215001D01*
X94212499Y-85215001D02*
X94287500Y-85140000D01*
X94287500Y-85140000D02*
X95312500Y-85140000D01*
X95182500Y-103630000D02*
X95182500Y-99109998D01*
X95182500Y-99109998D02*
X94082499Y-98009997D01*
X94082499Y-98009997D02*
X94082499Y-94445001D01*
X94082499Y-94445001D02*
X94157500Y-94370000D01*
X94157500Y-94370000D02*
X95182500Y-94370000D01*
X101070000Y-113160000D02*
X101070000Y-112360000D01*
X101070000Y-113960000D02*
X101070000Y-113160000D01*
X101070000Y-114760000D02*
X101070000Y-113960000D01*
X95182500Y-103630000D02*
X94157500Y-103630000D01*
X94157500Y-103630000D02*
X94082499Y-103705001D01*
X94082499Y-103705001D02*
X94082499Y-111387179D01*
X94082499Y-111387179D02*
X95138360Y-112443040D01*
X95138360Y-112443040D02*
X95138360Y-112993040D01*
X95138360Y-112993040D02*
X94113360Y-112993040D01*
X94113360Y-112993040D02*
X94038359Y-113068041D01*
X94038359Y-113068041D02*
X94038359Y-116553041D01*
X94038359Y-116553041D02*
X98092018Y-120606700D01*
X98092018Y-120606700D02*
X99945060Y-120606700D01*
X99945060Y-120606700D02*
X99945060Y-121631700D01*
X99945060Y-121631700D02*
X100020061Y-121706701D01*
X100020061Y-121706701D02*
X107180799Y-121706701D01*
X108390000Y-120497500D02*
X108940000Y-120497500D01*
X107180799Y-121706701D02*
X108390000Y-120497500D01*
X99945060Y-120606700D02*
X99945060Y-115734940D01*
X99945060Y-115734940D02*
X100920000Y-114760000D01*
X100920000Y-114760000D02*
X101070000Y-114760000D01*
X108940000Y-120497500D02*
X108940000Y-121522500D01*
X108940000Y-121522500D02*
X109015001Y-121597501D01*
X109015001Y-121597501D02*
X116629999Y-121597501D01*
X116629999Y-121597501D02*
X117890000Y-120337500D01*
X117890000Y-120337500D02*
X118440000Y-120337500D01*
X111660000Y-117000000D02*
X112460000Y-117000000D01*
X110860000Y-117000000D02*
X111660000Y-117000000D01*
X110060000Y-117000000D02*
X110860000Y-117000000D01*
X108940000Y-120497500D02*
X108940000Y-117620000D01*
X108940000Y-117620000D02*
X109560000Y-117000000D01*
X109560000Y-117000000D02*
X110060000Y-117000000D01*
X131050000Y-107410000D02*
X131550000Y-107410000D01*
X130550000Y-107410000D02*
X131050000Y-107410000D01*
X130050000Y-107410000D02*
X130550000Y-107410000D01*
X129550000Y-107410000D02*
X130050000Y-107410000D01*
X129050000Y-107410000D02*
X129550000Y-107410000D01*
X128550000Y-107410000D02*
X129050000Y-107410000D01*
X128050000Y-107410000D02*
X128550000Y-107410000D01*
X108248051Y-86801949D02*
X108248051Y-86894990D01*
X109570000Y-85430000D02*
X109570000Y-85480000D01*
X109570000Y-85480000D02*
X108248051Y-86801949D01*
X98080000Y-84230000D02*
X98080000Y-83805736D01*
X98080000Y-83805736D02*
X97602500Y-83328236D01*
X97602500Y-83328236D02*
X97602500Y-82300000D01*
X137807700Y-90124280D02*
X136707700Y-90124280D01*
X136707700Y-90124280D02*
X130260000Y-96571980D01*
X130260000Y-96571980D02*
X130260000Y-96830000D01*
X120960000Y-87300000D02*
X120310000Y-87300000D01*
X120310000Y-87300000D02*
X119164999Y-88445001D01*
X119164999Y-88445001D02*
X117709999Y-88445001D01*
X117709999Y-88445001D02*
X114995001Y-85730003D01*
X114995001Y-85730003D02*
X114995001Y-84435001D01*
X114995001Y-84435001D02*
X114220000Y-83660000D01*
X114220000Y-83660000D02*
X114220000Y-83510000D01*
X120960000Y-87300000D02*
X120960000Y-87250000D01*
X121685001Y-86524999D02*
X123595001Y-86524999D01*
X120960000Y-87250000D02*
X121685001Y-86524999D01*
X123595001Y-86524999D02*
X124860000Y-85260000D01*
X124860000Y-85260000D02*
X125560000Y-85260000D01*
X118521480Y-90893720D02*
X119221480Y-90893720D01*
X119221480Y-90893720D02*
X120960000Y-89155200D01*
X120960000Y-89155200D02*
X120960000Y-87300000D01*
X117850000Y-102060000D02*
X118730000Y-102940000D01*
X118730000Y-102940000D02*
X118730000Y-104210000D01*
X131550000Y-102154520D02*
X130764520Y-102154520D01*
X130764520Y-102154520D02*
X130750000Y-102140000D01*
X130260000Y-96830000D02*
X130260000Y-97540000D01*
X130260000Y-97540000D02*
X129720000Y-98080000D01*
X133948749Y-97839989D02*
X131919989Y-97839989D01*
X134706640Y-98597880D02*
X133948749Y-97839989D01*
X130910000Y-96830000D02*
X130260000Y-96830000D01*
X134706640Y-99222880D02*
X134706640Y-98597880D01*
X131919989Y-97839989D02*
X130910000Y-96830000D01*
X131993050Y-100447880D02*
X132481640Y-100447880D01*
X131781630Y-100659300D02*
X131993050Y-100447880D01*
X131856640Y-101447880D02*
X131781630Y-101372870D01*
X132481640Y-101447880D02*
X131856640Y-101447880D01*
X131781630Y-101372870D02*
X131781630Y-100659300D01*
X131550000Y-107410000D02*
X131550000Y-102154520D01*
X131550000Y-102154520D02*
X132256640Y-101447880D01*
X132256640Y-101447880D02*
X132481640Y-101447880D01*
X107368780Y-94111280D02*
X107368780Y-93511280D01*
X107368780Y-92311280D02*
X107368780Y-92911280D01*
X109570000Y-85430000D02*
X109570000Y-91610060D01*
X109570000Y-91610060D02*
X108868780Y-92311280D01*
X108868780Y-92311280D02*
X107368780Y-92311280D01*
X100330000Y-82300000D02*
X97602500Y-82300000D01*
X97602500Y-82300000D02*
X95312500Y-84590000D01*
X95312500Y-84590000D02*
X95312500Y-85140000D01*
X123790000Y-95400000D02*
X123790000Y-96690000D01*
X123790000Y-96690000D02*
X123810000Y-96710000D01*
X126310000Y-91670000D02*
X126285000Y-91670000D01*
X126285000Y-91670000D02*
X123915000Y-94040000D01*
X123915000Y-94040000D02*
X123780000Y-94040000D01*
X135431640Y-98203356D02*
X135431640Y-99947880D01*
X136409998Y-97224998D02*
X135431640Y-98203356D01*
X137070002Y-97224998D02*
X136409998Y-97224998D01*
X138160000Y-98314996D02*
X137070002Y-97224998D01*
X138160000Y-100070000D02*
X138160000Y-98314996D01*
X135106640Y-102172880D02*
X134706640Y-102172880D01*
X136788762Y-103855002D02*
X135106640Y-102172880D01*
X137480002Y-103855002D02*
X136788762Y-103855002D01*
X138160000Y-101570000D02*
X138160000Y-103175004D01*
X138160000Y-103175004D02*
X137480002Y-103855002D01*
X133360000Y-97170000D02*
X133360000Y-95794100D01*
X133360000Y-95794100D02*
X133356920Y-95791020D01*
X135431640Y-100947880D02*
X136772120Y-100947880D01*
X136772120Y-100947880D02*
X136800000Y-100920000D01*
X115200000Y-79930000D02*
X115200000Y-77510000D01*
X115200000Y-77510000D02*
X115220000Y-77490000D01*
X115060000Y-95800000D02*
X114635736Y-95800000D01*
X114635736Y-95800000D02*
X114524456Y-95911280D01*
X114524456Y-95911280D02*
X111868780Y-95911280D01*
X121910000Y-85300000D02*
X122560000Y-85300000D01*
X122560000Y-85300000D02*
X124165360Y-83694640D01*
X124165360Y-83694640D02*
X124165360Y-81559400D01*
X118420000Y-85320000D02*
X121890000Y-85320000D01*
X121890000Y-85320000D02*
X121910000Y-85300000D01*
X107368780Y-103111280D02*
X105868780Y-103111280D01*
X105868780Y-103111280D02*
X105793779Y-103036279D01*
X105793779Y-96411281D02*
X106293780Y-95911280D01*
X105793779Y-103036279D02*
X105793779Y-96411281D01*
X106293780Y-95911280D02*
X107368780Y-95911280D01*
X107368780Y-103711280D02*
X107368780Y-103111280D01*
X107368780Y-104311280D02*
X107368780Y-103711280D01*
X107368780Y-104911280D02*
X107368780Y-104311280D01*
X107368780Y-105511280D02*
X107368780Y-104911280D01*
X128800000Y-78820000D02*
X130053140Y-78820000D01*
X130053140Y-78820000D02*
X130451680Y-78421460D01*
X130451680Y-78421460D02*
X130451680Y-77721460D01*
X121625360Y-81559400D02*
X123114760Y-80070000D01*
X123114760Y-80070000D02*
X126730000Y-80070000D01*
X126730000Y-80070000D02*
X126820000Y-80160000D01*
X130723640Y-80558640D02*
X130723640Y-77993420D01*
X130723640Y-77993420D02*
X130451680Y-77721460D01*
X118420000Y-87520000D02*
X117720000Y-87520000D01*
X117644999Y-87444999D02*
X117644999Y-84459999D01*
X117720000Y-87520000D02*
X117644999Y-87444999D01*
X117644999Y-84459999D02*
X119370597Y-82734401D01*
X119370597Y-82734401D02*
X120450359Y-82734401D01*
X120450359Y-82734401D02*
X121625360Y-81559400D01*
X107368780Y-95911280D02*
X107368780Y-96511280D01*
X107368780Y-95311280D02*
X107368780Y-95911280D01*
X104670000Y-93540000D02*
X104670000Y-94112500D01*
X104670000Y-94112500D02*
X105868780Y-95311280D01*
X105868780Y-95311280D02*
X107368780Y-95311280D01*
X106750000Y-85610000D02*
X106750000Y-86320000D01*
X106750000Y-86320000D02*
X105550000Y-87520000D01*
X110520000Y-83430000D02*
X106770000Y-83430000D01*
X106770000Y-83430000D02*
X106750000Y-83410000D01*
X124068840Y-77604620D02*
X124068840Y-76504620D01*
X124068840Y-76504620D02*
X123993839Y-76429619D01*
X123993839Y-76429619D02*
X112445379Y-76429619D01*
X112445379Y-76429619D02*
X110520000Y-78354998D01*
X110520000Y-78354998D02*
X110520000Y-83430000D01*
X120750000Y-103852640D02*
X117810966Y-100913606D01*
X120750000Y-106430000D02*
X120750000Y-103852640D01*
X122890000Y-110630000D02*
X122890000Y-107660000D01*
X122890000Y-107660000D02*
X124700000Y-105850000D01*
X131993640Y-86908640D02*
X131993640Y-87226140D01*
X131993640Y-87226140D02*
X128249781Y-90969999D01*
X128249781Y-90969999D02*
X121345201Y-90969999D01*
X121345201Y-90969999D02*
X119221480Y-93093720D01*
X119221480Y-93093720D02*
X118521480Y-93093720D01*
X116378719Y-96511280D02*
X116930000Y-95959999D01*
X111868780Y-96511280D02*
X116378719Y-96511280D01*
X116910000Y-93060000D02*
X118487760Y-93060000D01*
X118487760Y-93060000D02*
X118521480Y-93093720D01*
X116930000Y-95959999D02*
X122234999Y-95959999D01*
X122234999Y-95959999D02*
X122310000Y-96035000D01*
X122310000Y-96035000D02*
X122310000Y-96710000D01*
X117920000Y-96710000D02*
X119140000Y-96710000D01*
X117080000Y-97550000D02*
X117920000Y-96710000D01*
X117080000Y-97700000D02*
X117080000Y-97550000D01*
X117080000Y-97850000D02*
X117080000Y-97700000D01*
X117855001Y-100065001D02*
X117855001Y-98625001D01*
X121980000Y-104190000D02*
X117855001Y-100065001D01*
X117855001Y-98625001D02*
X117080000Y-97850000D01*
X125830000Y-104190000D02*
X121980000Y-104190000D01*
X126140000Y-104500000D02*
X125830000Y-104190000D01*
X123390000Y-110630000D02*
X123390000Y-108660000D01*
X123390000Y-108660000D02*
X125520000Y-106530000D01*
X133263640Y-88523991D02*
X133217631Y-88570000D01*
X133263640Y-86908640D02*
X133263640Y-88523991D01*
X119140000Y-96710000D02*
X121810000Y-96710000D01*
X117080000Y-97700000D02*
X116380000Y-97700000D01*
X116380000Y-97700000D02*
X115791280Y-97111280D01*
X115791280Y-97111280D02*
X111868780Y-97111280D01*
X113368780Y-92911280D02*
X111868780Y-92911280D01*
X115527502Y-95070002D02*
X113368780Y-92911280D01*
X123134996Y-95070002D02*
X115527502Y-95070002D01*
X125344997Y-94774999D02*
X123429999Y-94774999D01*
X130020002Y-98705002D02*
X129275000Y-98705002D01*
X130435004Y-98290000D02*
X130020002Y-98705002D01*
X133398760Y-98290000D02*
X130435004Y-98290000D01*
X133706640Y-98597880D02*
X133398760Y-98290000D01*
X133706640Y-99222880D02*
X133706640Y-98597880D01*
X123429999Y-94774999D02*
X123134996Y-95070002D01*
X129275000Y-98705002D02*
X125344997Y-94774999D01*
X115010000Y-105530000D02*
X111887500Y-105530000D01*
X111887500Y-105530000D02*
X111868780Y-105511280D01*
X124310000Y-100610000D02*
X125040000Y-100610000D01*
X125040000Y-100610000D02*
X126220000Y-101790000D01*
X139450000Y-107200000D02*
X137870000Y-108780000D01*
X137870000Y-108780000D02*
X137590000Y-108780000D01*
X111868780Y-98911280D02*
X113368780Y-98911280D01*
X113368780Y-98911280D02*
X116800000Y-102342500D01*
X116800000Y-102342500D02*
X116800000Y-107570000D01*
X115170000Y-104400000D02*
X111957500Y-104400000D01*
X111957500Y-104400000D02*
X111868780Y-104311280D01*
X123810000Y-101450000D02*
X124430000Y-102070000D01*
X123810000Y-100610000D02*
X123810000Y-101450000D01*
X113020000Y-77490000D02*
X113020000Y-78190000D01*
X110744999Y-84719999D02*
X110744999Y-85929997D01*
X113020000Y-78190000D02*
X112074999Y-79135001D01*
X110744999Y-85929997D02*
X110040000Y-86634996D01*
X110368780Y-93511280D02*
X111868780Y-93511280D01*
X112074999Y-79135001D02*
X112074999Y-84599997D01*
X112074999Y-84599997D02*
X112019997Y-84654999D01*
X110040000Y-86634996D02*
X110040000Y-91022500D01*
X112019997Y-84654999D02*
X110809999Y-84654999D01*
X110809999Y-84654999D02*
X110744999Y-84719999D01*
X110040000Y-91022500D02*
X110293779Y-91276279D01*
X110293779Y-91276279D02*
X110293779Y-93436279D01*
X110293779Y-93436279D02*
X110368780Y-93511280D01*
X107368780Y-91711280D02*
X107368780Y-91286280D01*
X107368780Y-91286280D02*
X103455001Y-87372501D01*
X103455001Y-87372501D02*
X103455001Y-81589999D01*
X102475000Y-80609998D02*
X102475000Y-78518000D01*
X103455001Y-81589999D02*
X102475000Y-80609998D01*
X119000000Y-89250000D02*
X118530198Y-89250000D01*
X118530198Y-89250000D02*
X115468918Y-92311280D01*
X115468918Y-92311280D02*
X111868780Y-92311280D01*
X122860000Y-87300000D02*
X122860000Y-88910000D01*
X122860000Y-88910000D02*
X122590000Y-89180000D01*
X125560000Y-87460000D02*
X123020000Y-87460000D01*
X123020000Y-87460000D02*
X122860000Y-87300000D01*
X111470000Y-85430000D02*
X113940000Y-85430000D01*
X113940000Y-85430000D02*
X114220000Y-85710000D01*
X111470000Y-85430000D02*
X111470000Y-91312500D01*
X111470000Y-91312500D02*
X111868780Y-91711280D01*
X118730000Y-106410000D02*
X118730000Y-108870000D01*
X120490000Y-110630000D02*
X120890000Y-110630000D01*
X118730000Y-108870000D02*
X120490000Y-110630000D01*
X120190000Y-111330000D02*
X119515000Y-111330000D01*
X119515000Y-111330000D02*
X119021279Y-110836279D01*
X119021279Y-110836279D02*
X105043721Y-110836279D01*
X105043721Y-110836279D02*
X103520000Y-112360000D01*
X103520000Y-112360000D02*
X102870000Y-112360000D01*
X102870000Y-111860000D02*
X96640000Y-105630000D01*
X102870000Y-112360000D02*
X102870000Y-111860000D01*
X96640000Y-105630000D02*
X95182500Y-105630000D01*
X105701698Y-113610011D02*
X105176719Y-114134990D01*
X120190000Y-112330000D02*
X108935473Y-112330000D01*
X108935473Y-112330000D02*
X107655462Y-113610011D01*
X107655462Y-113610011D02*
X105701698Y-113610011D01*
X105001729Y-113960000D02*
X105176719Y-114134990D01*
X102870000Y-113960000D02*
X105001729Y-113960000D01*
X95138360Y-114993040D02*
X97523040Y-114993040D01*
X97523040Y-114993040D02*
X98160000Y-115630000D01*
X120190000Y-111830000D02*
X108799062Y-111830000D01*
X108799062Y-111830000D02*
X107469062Y-113160000D01*
X107469062Y-113160000D02*
X102870000Y-113160000D01*
X102220000Y-113160000D02*
X102870000Y-113160000D01*
X102144999Y-113084999D02*
X102220000Y-113160000D01*
X102144999Y-111771409D02*
X102144999Y-113084999D01*
X97003590Y-106630000D02*
X102144999Y-111771409D01*
X95182500Y-106630000D02*
X97003590Y-106630000D01*
X106960000Y-114760000D02*
X102870000Y-114760000D01*
X109071884Y-112830000D02*
X107841862Y-114060022D01*
X120190000Y-112830000D02*
X109071884Y-112830000D01*
X107659978Y-114060022D02*
X106960000Y-114760000D01*
X107841862Y-114060022D02*
X107659978Y-114060022D01*
X102100000Y-116780000D02*
X102100000Y-115530000D01*
X102100000Y-115530000D02*
X102870000Y-114760000D01*
X95138360Y-115993040D02*
X96783040Y-115993040D01*
X96783040Y-115993040D02*
X97800000Y-117010000D01*
X120190000Y-113330000D02*
X116602824Y-113330000D01*
X116357847Y-113574977D02*
X111035023Y-113574977D01*
X110060000Y-114550000D02*
X110060000Y-115200000D01*
X116602824Y-113330000D02*
X116357847Y-113574977D01*
X111035023Y-113574977D02*
X110060000Y-114550000D01*
X101945060Y-119581700D02*
X101945060Y-120606700D01*
X107156411Y-115200000D02*
X105816400Y-116540011D01*
X110060000Y-115200000D02*
X107156411Y-115200000D01*
X104986749Y-116540011D02*
X101945060Y-119581700D01*
X105816400Y-116540011D02*
X104986749Y-116540011D01*
X116859263Y-114474999D02*
X116684264Y-114649998D01*
X115835736Y-114649998D02*
X116260000Y-114649998D01*
X115660737Y-114474999D02*
X115835736Y-114649998D01*
X116684264Y-114649998D02*
X116260000Y-114649998D01*
X111735001Y-114474999D02*
X115660737Y-114474999D01*
X111660000Y-114550000D02*
X111735001Y-114474999D01*
X120490000Y-114530000D02*
X120434999Y-114474999D01*
X120434999Y-114474999D02*
X116859263Y-114474999D01*
X120890000Y-114530000D02*
X120490000Y-114530000D01*
X111660000Y-115200000D02*
X111660000Y-114550000D01*
X110940000Y-120497500D02*
X110940000Y-119230000D01*
X110940000Y-119230000D02*
X111630000Y-118540000D01*
X110860000Y-114550000D02*
X110860000Y-115200000D01*
X111385012Y-114024988D02*
X110860000Y-114550000D01*
X116544247Y-114024988D02*
X111385012Y-114024988D01*
X120190000Y-113830000D02*
X116739235Y-113830000D01*
X116739235Y-113830000D02*
X116544247Y-114024988D01*
X102945060Y-120606700D02*
X103495060Y-120606700D01*
X103495060Y-120606700D02*
X108176759Y-115925001D01*
X108176759Y-115925001D02*
X110784999Y-115925001D01*
X110784999Y-115925001D02*
X110860000Y-115850000D01*
X110860000Y-115850000D02*
X110860000Y-115200000D01*
X121390000Y-115068590D02*
X121390000Y-114530000D01*
X121178589Y-115280001D02*
X121390000Y-115068590D01*
X112960000Y-115200000D02*
X113040001Y-115280001D01*
X112460000Y-115200000D02*
X112960000Y-115200000D01*
X113040001Y-115280001D02*
X121178589Y-115280001D01*
X111940000Y-120497500D02*
X112490000Y-120497500D01*
X112490000Y-120497500D02*
X113035001Y-119952499D01*
X113035001Y-119952499D02*
X113035001Y-116425001D01*
X113035001Y-116425001D02*
X112460000Y-115850000D01*
X112460000Y-115850000D02*
X112460000Y-115200000D01*
X122390000Y-115341410D02*
X122390000Y-114530000D01*
X126191743Y-116428257D02*
X123476847Y-116428257D01*
X126500000Y-116120000D02*
X126191743Y-116428257D01*
X123476847Y-116428257D02*
X122390000Y-115341410D01*
X128067826Y-116120000D02*
X126500000Y-116120000D01*
X131550000Y-112637826D02*
X128067826Y-116120000D01*
X131550000Y-109210000D02*
X131550000Y-112637826D01*
X129850000Y-120457500D02*
X129850000Y-119432500D01*
X129850000Y-119432500D02*
X126537500Y-116120000D01*
X126537500Y-116120000D02*
X126500000Y-116120000D01*
X130550000Y-112365004D02*
X128459994Y-114455010D01*
X127050759Y-114530000D02*
X127125749Y-114455010D01*
X130550000Y-109210000D02*
X130550000Y-112365004D01*
X128459994Y-114455010D02*
X127125749Y-114455010D01*
X123390000Y-114530000D02*
X127050759Y-114530000D01*
X120440000Y-120337500D02*
X120440000Y-118900000D01*
X120440000Y-118900000D02*
X121790000Y-117550000D01*
X126173886Y-115480013D02*
X125850644Y-115803255D01*
X128071402Y-115480013D02*
X126173886Y-115480013D01*
X131050000Y-112501415D02*
X128071402Y-115480013D01*
X125327390Y-115280001D02*
X125850644Y-115803255D01*
X122965001Y-115280001D02*
X125327390Y-115280001D01*
X131050000Y-109210000D02*
X131050000Y-112501415D01*
X130850000Y-120457500D02*
X130850000Y-117420000D01*
X130850000Y-117420000D02*
X129860000Y-116430000D01*
X122890000Y-114530000D02*
X122890000Y-115205000D01*
X122890000Y-115205000D02*
X122965001Y-115280001D01*
X122965001Y-115280001D02*
X122890000Y-114530000D01*
X127890000Y-113830000D02*
X127868714Y-113808714D01*
X127868714Y-113808714D02*
X127868714Y-113565254D01*
X127868714Y-113565254D02*
X128168713Y-113265255D01*
X130050000Y-111670000D02*
X130050000Y-109210000D01*
X127890000Y-113830000D02*
X130050000Y-111670000D01*
X126471624Y-113832609D02*
X126474233Y-113830000D01*
X124090000Y-113830000D02*
X124765000Y-113830000D01*
X124767609Y-113832609D02*
X126471624Y-113832609D01*
X124765000Y-113830000D02*
X124767609Y-113832609D01*
X126474233Y-113830000D02*
X127890000Y-113830000D01*
X124060000Y-118100000D02*
X121822500Y-120337500D01*
X121822500Y-120337500D02*
X121440000Y-120337500D01*
X121440000Y-120337500D02*
X121440000Y-119862500D01*
X127635001Y-112890001D02*
X129395002Y-111130000D01*
X129395002Y-111130000D02*
X129550000Y-110975002D01*
X128260000Y-111460000D02*
X128559999Y-111160001D01*
X128559999Y-111160001D02*
X129365001Y-111160001D01*
X129365001Y-111160001D02*
X129395002Y-111130000D01*
X124090000Y-113330000D02*
X127245002Y-113330000D01*
X129550000Y-110975002D02*
X129550000Y-109210000D01*
X127245002Y-113330000D02*
X127635001Y-112940001D01*
X127635001Y-112940001D02*
X127635001Y-112890001D01*
X95182500Y-96370000D02*
X98230000Y-96370000D01*
X98230000Y-96370000D02*
X101320000Y-99460000D01*
X124114999Y-113305001D02*
X124090000Y-113330000D01*
X128550000Y-109845002D02*
X128550000Y-109210000D01*
X124628589Y-112330000D02*
X124703542Y-112255048D01*
X124090000Y-112330000D02*
X124628589Y-112330000D01*
X128176414Y-109935001D02*
X128460001Y-109935001D01*
X128460001Y-109935001D02*
X128550000Y-109845002D01*
X124703542Y-112255048D02*
X125856367Y-112255048D01*
X125856367Y-112255048D02*
X128176414Y-109935001D01*
X125840000Y-108420000D02*
X128410000Y-108420000D01*
X128410000Y-108420000D02*
X128550000Y-108560000D01*
X128550000Y-108560000D02*
X128550000Y-109210000D01*
X95312500Y-87140000D02*
X96337500Y-87140000D01*
X96337500Y-87140000D02*
X101470000Y-92272500D01*
X101470000Y-92272500D02*
X101470000Y-93480000D01*
X124114999Y-112305001D02*
X124090000Y-112330000D01*
X129050000Y-109981412D02*
X129050000Y-109210000D01*
X125427765Y-112705055D02*
X126042771Y-112705055D01*
X128646401Y-110385012D02*
X129050000Y-109981412D01*
X128362814Y-110385012D02*
X128646401Y-110385012D01*
X126042771Y-112705055D02*
X128362814Y-110385012D01*
X127030000Y-112640000D02*
X126605736Y-112640000D01*
X126605736Y-112640000D02*
X126540681Y-112705055D01*
X126540681Y-112705055D02*
X125427765Y-112705055D01*
X95182500Y-97370000D02*
X96910000Y-97370000D01*
X96910000Y-97370000D02*
X101380000Y-101840000D01*
X124789996Y-112805001D02*
X124889942Y-112705055D01*
X124889942Y-112705055D02*
X125427765Y-112705055D01*
X124090000Y-112830000D02*
X124114999Y-112805001D01*
X124114999Y-112805001D02*
X124789996Y-112805001D01*
X127361407Y-110113597D02*
X127361407Y-109210000D01*
X124114963Y-111805037D02*
X125669967Y-111805037D01*
X125669967Y-111805037D02*
X127361407Y-110113597D01*
X124090000Y-111830000D02*
X124114963Y-111805037D01*
X125510000Y-109270000D02*
X125934264Y-109270000D01*
X125934264Y-109270000D02*
X125994264Y-109210000D01*
X125994264Y-109210000D02*
X127361407Y-109210000D01*
X95312500Y-88140000D02*
X95312500Y-90622500D01*
X95312500Y-90622500D02*
X101440000Y-96750000D01*
X127361407Y-109210000D02*
X128050000Y-109210000D01*
X124114999Y-111805001D02*
X124090000Y-111830000D01*
X130800000Y-99360000D02*
X133069520Y-99360000D01*
X133069520Y-99360000D02*
X133206640Y-99222880D01*
X121110000Y-99910000D02*
X119990000Y-99910000D01*
X119990000Y-99910000D02*
X118940000Y-98860000D01*
X121810000Y-100885000D02*
X121810000Y-100610000D01*
X122509997Y-103325001D02*
X121410000Y-102225004D01*
X129325001Y-103325001D02*
X122509997Y-103325001D01*
X129390001Y-102414519D02*
X129390001Y-103260001D01*
X129390001Y-103260001D02*
X129325001Y-103325001D01*
X131856640Y-99947880D02*
X129390001Y-102414519D01*
X121410000Y-101285000D02*
X121810000Y-100885000D01*
X132481640Y-99947880D02*
X131856640Y-99947880D01*
X121410000Y-102225004D02*
X121410000Y-101285000D01*
D40*
G36*
X137612975Y-77044792D02*
X137612024Y-77044503D01*
X137552415Y-77012657D01*
X137252216Y-76921657D01*
X137185206Y-76915070D01*
X137120773Y-76895511D01*
X136808673Y-76864711D01*
X136741400Y-76871324D01*
X136674127Y-76864711D01*
X136362027Y-76895511D01*
X136297594Y-76915070D01*
X136230584Y-76921657D01*
X135930384Y-77012657D01*
X135870775Y-77044504D01*
X135806101Y-77064133D01*
X135529501Y-77212033D01*
X135477470Y-77254747D01*
X135418090Y-77286465D01*
X135175590Y-77485365D01*
X135132706Y-77537590D01*
X135080472Y-77580460D01*
X134881472Y-77822960D01*
X134849656Y-77882488D01*
X134806842Y-77934671D01*
X134659042Y-78211271D01*
X134639489Y-78275760D01*
X134607717Y-78335185D01*
X134516617Y-78635384D01*
X134509989Y-78702604D01*
X134490390Y-78767243D01*
X134459690Y-79079343D01*
X134466303Y-79146400D01*
X134459690Y-79213457D01*
X134490390Y-79525557D01*
X134509989Y-79590196D01*
X134516617Y-79657416D01*
X134607717Y-79957615D01*
X134639489Y-80017040D01*
X134659042Y-80081529D01*
X134806842Y-80358129D01*
X134849656Y-80410312D01*
X134881472Y-80469840D01*
X135080472Y-80712340D01*
X135132642Y-80755158D01*
X135175460Y-80807328D01*
X135417959Y-81006328D01*
X135477489Y-81038145D01*
X135529671Y-81080958D01*
X135806271Y-81228758D01*
X135870758Y-81248311D01*
X135930184Y-81280083D01*
X136230384Y-81371183D01*
X136297604Y-81377811D01*
X136362243Y-81397410D01*
X136674343Y-81428110D01*
X136741400Y-81421497D01*
X136808457Y-81428110D01*
X137120557Y-81397410D01*
X137185196Y-81377811D01*
X137252416Y-81371183D01*
X137552615Y-81280083D01*
X137612040Y-81248311D01*
X137676529Y-81228758D01*
X137953129Y-81080958D01*
X138005312Y-81038144D01*
X138064840Y-81006328D01*
X138307340Y-80807328D01*
X138350210Y-80755094D01*
X138402435Y-80712210D01*
X138601335Y-80469710D01*
X138633053Y-80410330D01*
X138675767Y-80358299D01*
X138823667Y-80081699D01*
X138843296Y-80017025D01*
X138875143Y-79957416D01*
X138966143Y-79657216D01*
X138972730Y-79590206D01*
X138992289Y-79525773D01*
X139023089Y-79213673D01*
X139016476Y-79146400D01*
X139023089Y-79079127D01*
X138992289Y-78767027D01*
X138972730Y-78702594D01*
X138966143Y-78635584D01*
X138875143Y-78335384D01*
X138843296Y-78275775D01*
X138823667Y-78211101D01*
X138675767Y-77934501D01*
X138633053Y-77882470D01*
X138601335Y-77823090D01*
X138580453Y-77797630D01*
X139293905Y-78352800D01*
X139702359Y-106292385D01*
X139636799Y-106265162D01*
X139264833Y-106264838D01*
X138921057Y-106406883D01*
X138657808Y-106669673D01*
X138515162Y-107013201D01*
X138515121Y-107060077D01*
X137892638Y-107682560D01*
X136990000Y-107682560D01*
X136754683Y-107726838D01*
X136538559Y-107865910D01*
X136490866Y-107935711D01*
X136454090Y-107878559D01*
X136241890Y-107733569D01*
X136150000Y-107714961D01*
X136150000Y-107224913D01*
X136345317Y-107188162D01*
X136448646Y-107121671D01*
X136450302Y-107123327D01*
X136683691Y-107220000D01*
X136924250Y-107220000D01*
X137083000Y-107061250D01*
X137083000Y-106337000D01*
X137337000Y-106337000D01*
X137337000Y-107061250D01*
X137495750Y-107220000D01*
X137736309Y-107220000D01*
X137969698Y-107123327D01*
X138148327Y-106944699D01*
X138245000Y-106711310D01*
X138245000Y-106495750D01*
X138086250Y-106337000D01*
X137337000Y-106337000D01*
X137083000Y-106337000D01*
X137063000Y-106337000D01*
X137063000Y-106083000D01*
X137083000Y-106083000D01*
X137083000Y-105358750D01*
X137337000Y-105358750D01*
X137337000Y-106083000D01*
X138086250Y-106083000D01*
X138245000Y-105924250D01*
X138245000Y-105708690D01*
X138148327Y-105475301D01*
X137969698Y-105296673D01*
X137736309Y-105200000D01*
X137495750Y-105200000D01*
X137337000Y-105358750D01*
X137083000Y-105358750D01*
X136924250Y-105200000D01*
X136683691Y-105200000D01*
X136450302Y-105296673D01*
X136448932Y-105298043D01*
X136361890Y-105238569D01*
X136110000Y-105187560D01*
X135310000Y-105187560D01*
X135074683Y-105231838D01*
X134858559Y-105370910D01*
X134713569Y-105583110D01*
X134662560Y-105835000D01*
X134662560Y-106366311D01*
X134630000Y-106530000D01*
X134630000Y-107712666D01*
X134554683Y-107726838D01*
X134338559Y-107865910D01*
X134193569Y-108078110D01*
X134142560Y-108330000D01*
X134142560Y-109230000D01*
X134186838Y-109465317D01*
X134325910Y-109681441D01*
X134538110Y-109826431D01*
X134668480Y-109852832D01*
X134668480Y-110064823D01*
X134627039Y-110091490D01*
X134482049Y-110303690D01*
X134431040Y-110555580D01*
X134431040Y-112005580D01*
X134475318Y-112240897D01*
X134614390Y-112457021D01*
X134668480Y-112493979D01*
X134668480Y-115224823D01*
X134627039Y-115251490D01*
X134482049Y-115463690D01*
X134431040Y-115715580D01*
X134431040Y-117165580D01*
X134475318Y-117400897D01*
X134614390Y-117617021D01*
X134826590Y-117762011D01*
X135078480Y-117813020D01*
X135778480Y-117813020D01*
X136013797Y-117768742D01*
X136229921Y-117629670D01*
X136374911Y-117417470D01*
X136425920Y-117165580D01*
X136425920Y-116726330D01*
X136443480Y-116726330D01*
X136443480Y-117291889D01*
X136540153Y-117525278D01*
X136718781Y-117703907D01*
X136952170Y-117800580D01*
X137142730Y-117800580D01*
X137301480Y-117641830D01*
X137301480Y-116567580D01*
X137555480Y-116567580D01*
X137555480Y-117641830D01*
X137714230Y-117800580D01*
X137904790Y-117800580D01*
X138138179Y-117703907D01*
X138316807Y-117525278D01*
X138413480Y-117291889D01*
X138413480Y-116726330D01*
X138254730Y-116567580D01*
X137555480Y-116567580D01*
X137301480Y-116567580D01*
X136602230Y-116567580D01*
X136443480Y-116726330D01*
X136425920Y-116726330D01*
X136425920Y-115715580D01*
X136402154Y-115589271D01*
X136443480Y-115589271D01*
X136443480Y-116154830D01*
X136602230Y-116313580D01*
X137301480Y-116313580D01*
X137301480Y-115239330D01*
X137555480Y-115239330D01*
X137555480Y-116313580D01*
X138254730Y-116313580D01*
X138413480Y-116154830D01*
X138413480Y-115589271D01*
X138316807Y-115355882D01*
X138138179Y-115177253D01*
X137904790Y-115080580D01*
X137714230Y-115080580D01*
X137555480Y-115239330D01*
X137301480Y-115239330D01*
X137142730Y-115080580D01*
X136952170Y-115080580D01*
X136718781Y-115177253D01*
X136540153Y-115355882D01*
X136443480Y-115589271D01*
X136402154Y-115589271D01*
X136381642Y-115480263D01*
X136242570Y-115264139D01*
X136188480Y-115227181D01*
X136188480Y-112496337D01*
X136229921Y-112469670D01*
X136374911Y-112257470D01*
X136425920Y-112005580D01*
X136425920Y-111566330D01*
X136443480Y-111566330D01*
X136443480Y-112131889D01*
X136540153Y-112365278D01*
X136718781Y-112543907D01*
X136952170Y-112640580D01*
X137142730Y-112640580D01*
X137301480Y-112481830D01*
X137301480Y-111407580D01*
X137555480Y-111407580D01*
X137555480Y-112481830D01*
X137714230Y-112640580D01*
X137904790Y-112640580D01*
X138138179Y-112543907D01*
X138316807Y-112365278D01*
X138413480Y-112131889D01*
X138413480Y-111566330D01*
X138254730Y-111407580D01*
X137555480Y-111407580D01*
X137301480Y-111407580D01*
X136602230Y-111407580D01*
X136443480Y-111566330D01*
X136425920Y-111566330D01*
X136425920Y-110555580D01*
X136402154Y-110429271D01*
X136443480Y-110429271D01*
X136443480Y-110994830D01*
X136602230Y-111153580D01*
X137301480Y-111153580D01*
X137301480Y-110079330D01*
X137555480Y-110079330D01*
X137555480Y-111153580D01*
X138254730Y-111153580D01*
X138413480Y-110994830D01*
X138413480Y-110429271D01*
X138316807Y-110195882D01*
X138138179Y-110017253D01*
X137904790Y-109920580D01*
X137714230Y-109920580D01*
X137555480Y-110079330D01*
X137301480Y-110079330D01*
X137142730Y-109920580D01*
X136952170Y-109920580D01*
X136718781Y-110017253D01*
X136540153Y-110195882D01*
X136443480Y-110429271D01*
X136402154Y-110429271D01*
X136381642Y-110320263D01*
X136242570Y-110104139D01*
X136188480Y-110067181D01*
X136188480Y-109840093D01*
X136225317Y-109833162D01*
X136441441Y-109694090D01*
X136489134Y-109624289D01*
X136525910Y-109681441D01*
X136738110Y-109826431D01*
X136990000Y-109877440D01*
X138190000Y-109877440D01*
X138425317Y-109833162D01*
X138641441Y-109694090D01*
X138786431Y-109481890D01*
X138837440Y-109230000D01*
X138837440Y-108887362D01*
X139589680Y-108135122D01*
X139635167Y-108135162D01*
X139728734Y-108096501D01*
X139912447Y-120663048D01*
X137561743Y-124262257D01*
X133290482Y-124216275D01*
X133346431Y-124134390D01*
X133397440Y-123882500D01*
X133397440Y-122082500D01*
X133353162Y-121847183D01*
X133214090Y-121631059D01*
X133001890Y-121486069D01*
X132750000Y-121435060D01*
X131756421Y-121435060D01*
X131797440Y-121232500D01*
X131797440Y-121079349D01*
X134459689Y-121079349D01*
X134466302Y-121146399D01*
X134459689Y-121213446D01*
X134490389Y-121525596D01*
X134509994Y-121590258D01*
X134516627Y-121657496D01*
X134607727Y-121957646D01*
X134639489Y-122017047D01*
X134659033Y-122081511D01*
X134806833Y-122358131D01*
X134849668Y-122410342D01*
X134881507Y-122469903D01*
X135080507Y-122712363D01*
X135132680Y-122755176D01*
X135175499Y-122807340D01*
X135417999Y-123006310D01*
X135477458Y-123038083D01*
X135529569Y-123080853D01*
X135806169Y-123228713D01*
X135870757Y-123248308D01*
X135930284Y-123280123D01*
X136230484Y-123371173D01*
X136297600Y-123377780D01*
X136362135Y-123397359D01*
X136674235Y-123428109D01*
X136741400Y-123421496D01*
X136808565Y-123428109D01*
X137120665Y-123397359D01*
X137185200Y-123377780D01*
X137252316Y-123371173D01*
X137552516Y-123280123D01*
X137612043Y-123248308D01*
X137676631Y-123228713D01*
X137953231Y-123080853D01*
X138005342Y-123038083D01*
X138064801Y-123006310D01*
X138307301Y-122807340D01*
X138350173Y-122755112D01*
X138402400Y-122712233D01*
X138601300Y-122469773D01*
X138633040Y-122410363D01*
X138675777Y-122358301D01*
X138823677Y-122081680D01*
X138843297Y-122017031D01*
X138875134Y-121957446D01*
X138966134Y-121657296D01*
X138972726Y-121590266D01*
X138992290Y-121525813D01*
X139023090Y-121213663D01*
X139016477Y-121146395D01*
X139023089Y-121079133D01*
X138992289Y-120767003D01*
X138972727Y-120702557D01*
X138966136Y-120635530D01*
X138875136Y-120335370D01*
X138843295Y-120275777D01*
X138823672Y-120211120D01*
X138675772Y-119934510D01*
X138633038Y-119882453D01*
X138601300Y-119823047D01*
X138402400Y-119580587D01*
X138350181Y-119537714D01*
X138307315Y-119485491D01*
X138064814Y-119286511D01*
X138005349Y-119254733D01*
X137953231Y-119211957D01*
X137676631Y-119064097D01*
X137612033Y-119044499D01*
X137552496Y-119012681D01*
X137252296Y-118921641D01*
X137185190Y-118915037D01*
X137120665Y-118895461D01*
X136808565Y-118864711D01*
X136741400Y-118871324D01*
X136674235Y-118864711D01*
X136362135Y-118895461D01*
X136297610Y-118915037D01*
X136230504Y-118921641D01*
X135930304Y-119012681D01*
X135870767Y-119044499D01*
X135806169Y-119064097D01*
X135529569Y-119211957D01*
X135477451Y-119254733D01*
X135417986Y-119286511D01*
X135175486Y-119485491D01*
X135132674Y-119537649D01*
X135080507Y-119580457D01*
X134881507Y-119822917D01*
X134849670Y-119882474D01*
X134806838Y-119934680D01*
X134659038Y-120211290D01*
X134639491Y-120275760D01*
X134607725Y-120335170D01*
X134516625Y-120635330D01*
X134509993Y-120702563D01*
X134490389Y-120767220D01*
X134459689Y-121079349D01*
X131797440Y-121079349D01*
X131797440Y-119682500D01*
X131753162Y-119447183D01*
X131614090Y-119231059D01*
X131610000Y-119228264D01*
X131610000Y-117420000D01*
X131554847Y-117142728D01*
X131552148Y-117129160D01*
X131387401Y-116882599D01*
X130795122Y-116290320D01*
X130795162Y-116244833D01*
X130653117Y-115901057D01*
X130390327Y-115637808D01*
X130046799Y-115495162D01*
X129767709Y-115494919D01*
X132087401Y-113175227D01*
X132252148Y-112928665D01*
X132310000Y-112637826D01*
X132310000Y-109794884D01*
X132347440Y-109610000D01*
X132347440Y-108810000D01*
X132303162Y-108574683D01*
X132164090Y-108358559D01*
X132094289Y-108310866D01*
X132151441Y-108274090D01*
X132296431Y-108061890D01*
X132347440Y-107810000D01*
X132347440Y-107010000D01*
X132310000Y-106811024D01*
X132310000Y-102469322D01*
X132421640Y-102357682D01*
X132421640Y-102417667D01*
X132481395Y-102718073D01*
X132651561Y-102972746D01*
X132906234Y-103142912D01*
X133206640Y-103202667D01*
X133456640Y-103152938D01*
X133706640Y-103202667D01*
X133956640Y-103152938D01*
X134206640Y-103202667D01*
X134456640Y-103152938D01*
X134706640Y-103202667D01*
X135002729Y-103143771D01*
X136251361Y-104392403D01*
X136497923Y-104557150D01*
X136788762Y-104615002D01*
X137480002Y-104615002D01*
X137770841Y-104557150D01*
X138017403Y-104392403D01*
X138697401Y-103712405D01*
X138862148Y-103465844D01*
X138920000Y-103175004D01*
X138920000Y-102476844D01*
X138986441Y-102434090D01*
X139131431Y-102221890D01*
X139182440Y-101970000D01*
X139182440Y-101170000D01*
X139138162Y-100934683D01*
X139064380Y-100820022D01*
X139131431Y-100721890D01*
X139182440Y-100470000D01*
X139182440Y-99670000D01*
X139138162Y-99434683D01*
X138999090Y-99218559D01*
X138920000Y-99164519D01*
X138920000Y-98314996D01*
X138862148Y-98024157D01*
X138697401Y-97777595D01*
X137607403Y-96687597D01*
X137360841Y-96522850D01*
X137070002Y-96464998D01*
X136409998Y-96464998D01*
X136119159Y-96522850D01*
X135872597Y-96687597D01*
X134894239Y-97665955D01*
X134876326Y-97692764D01*
X134486150Y-97302588D01*
X134294996Y-97174864D01*
X134295162Y-96984833D01*
X134196209Y-96745349D01*
X134330611Y-96801020D01*
X134571170Y-96801020D01*
X134729920Y-96642270D01*
X134729920Y-95918020D01*
X134983920Y-95918020D01*
X134983920Y-96642270D01*
X135142670Y-96801020D01*
X135383229Y-96801020D01*
X135616618Y-96704347D01*
X135795247Y-96525719D01*
X135891920Y-96292330D01*
X135891920Y-96076770D01*
X135733170Y-95918020D01*
X134983920Y-95918020D01*
X134729920Y-95918020D01*
X134709920Y-95918020D01*
X134709920Y-95664020D01*
X134729920Y-95664020D01*
X134729920Y-94939770D01*
X134983920Y-94939770D01*
X134983920Y-95664020D01*
X135733170Y-95664020D01*
X135891920Y-95505270D01*
X135891920Y-95289710D01*
X135795247Y-95056321D01*
X135616618Y-94877693D01*
X135383229Y-94781020D01*
X135142670Y-94781020D01*
X134983920Y-94939770D01*
X134729920Y-94939770D01*
X134571170Y-94781020D01*
X134330611Y-94781020D01*
X134097222Y-94877693D01*
X134095852Y-94879063D01*
X134008810Y-94819589D01*
X133756920Y-94768580D01*
X133138202Y-94768580D01*
X136488697Y-91418085D01*
X136493610Y-91425721D01*
X136705810Y-91570711D01*
X136957700Y-91621720D01*
X138657700Y-91621720D01*
X138893017Y-91577442D01*
X139109141Y-91438370D01*
X139254131Y-91226170D01*
X139305140Y-90974280D01*
X139305140Y-89274280D01*
X139260862Y-89038963D01*
X139121790Y-88822839D01*
X138909590Y-88677849D01*
X138801593Y-88655979D01*
X139079345Y-88351204D01*
X139249176Y-87941170D01*
X139127855Y-87711280D01*
X137934700Y-87711280D01*
X137934700Y-87731280D01*
X137680700Y-87731280D01*
X137680700Y-87711280D01*
X136487545Y-87711280D01*
X136366224Y-87941170D01*
X136536055Y-88351204D01*
X136812201Y-88654217D01*
X136722383Y-88671118D01*
X136506259Y-88810190D01*
X136490896Y-88832674D01*
X135730000Y-88071778D01*
X135730000Y-85044280D01*
X136293607Y-85044280D01*
X136406646Y-85612565D01*
X136728553Y-86094334D01*
X137069253Y-86321982D01*
X136926342Y-86389097D01*
X136536055Y-86817356D01*
X136366224Y-87227390D01*
X136487545Y-87457280D01*
X137680700Y-87457280D01*
X137680700Y-87437280D01*
X137934700Y-87437280D01*
X137934700Y-87457280D01*
X139127855Y-87457280D01*
X139249176Y-87227390D01*
X139079345Y-86817356D01*
X138689058Y-86389097D01*
X138546147Y-86321982D01*
X138886847Y-86094334D01*
X139208754Y-85612565D01*
X139321793Y-85044280D01*
X139208754Y-84475995D01*
X138886847Y-83994226D01*
X138405078Y-83672319D01*
X137836793Y-83559280D01*
X137778607Y-83559280D01*
X137210322Y-83672319D01*
X136728553Y-83994226D01*
X136406646Y-84475995D01*
X136293607Y-85044280D01*
X135730000Y-85044280D01*
X135730000Y-84382463D01*
X135762192Y-84350327D01*
X135904838Y-84006799D01*
X135905162Y-83634833D01*
X135763117Y-83291057D01*
X135500327Y-83027808D01*
X135156799Y-82885162D01*
X134784833Y-82884838D01*
X134602641Y-82960118D01*
X134602641Y-81959141D01*
X134544789Y-81668302D01*
X134380042Y-81421740D01*
X134152174Y-81193872D01*
X134165080Y-81130140D01*
X134165080Y-79987140D01*
X134120802Y-79751823D01*
X134023640Y-79600829D01*
X134023640Y-78333420D01*
X133965788Y-78042581D01*
X133899120Y-77942805D01*
X133899120Y-77271460D01*
X133854842Y-77036143D01*
X133715770Y-76820019D01*
X133503570Y-76675029D01*
X133287439Y-76631261D01*
X133189081Y-76484059D01*
X133114080Y-76409058D01*
X132867518Y-76244311D01*
X132576679Y-76186459D01*
X129003783Y-76186459D01*
X128712944Y-76244311D01*
X128466382Y-76409058D01*
X126855819Y-78019621D01*
X125566280Y-78019621D01*
X125566280Y-76754620D01*
X125522002Y-76519303D01*
X125382930Y-76303179D01*
X125170730Y-76158189D01*
X124918840Y-76107180D01*
X124699760Y-76107180D01*
X124672913Y-76067000D01*
X136356409Y-76067000D01*
X137612975Y-77044792D01*
X137612975Y-77044792D01*
G37*
X137612975Y-77044792D02*
X137612024Y-77044503D01*
X137552415Y-77012657D01*
X137252216Y-76921657D01*
X137185206Y-76915070D01*
X137120773Y-76895511D01*
X136808673Y-76864711D01*
X136741400Y-76871324D01*
X136674127Y-76864711D01*
X136362027Y-76895511D01*
X136297594Y-76915070D01*
X136230584Y-76921657D01*
X135930384Y-77012657D01*
X135870775Y-77044504D01*
X135806101Y-77064133D01*
X135529501Y-77212033D01*
X135477470Y-77254747D01*
X135418090Y-77286465D01*
X135175590Y-77485365D01*
X135132706Y-77537590D01*
X135080472Y-77580460D01*
X134881472Y-77822960D01*
X134849656Y-77882488D01*
X134806842Y-77934671D01*
X134659042Y-78211271D01*
X134639489Y-78275760D01*
X134607717Y-78335185D01*
X134516617Y-78635384D01*
X134509989Y-78702604D01*
X134490390Y-78767243D01*
X134459690Y-79079343D01*
X134466303Y-79146400D01*
X134459690Y-79213457D01*
X134490390Y-79525557D01*
X134509989Y-79590196D01*
X134516617Y-79657416D01*
X134607717Y-79957615D01*
X134639489Y-80017040D01*
X134659042Y-80081529D01*
X134806842Y-80358129D01*
X134849656Y-80410312D01*
X134881472Y-80469840D01*
X135080472Y-80712340D01*
X135132642Y-80755158D01*
X135175460Y-80807328D01*
X135417959Y-81006328D01*
X135477489Y-81038145D01*
X135529671Y-81080958D01*
X135806271Y-81228758D01*
X135870758Y-81248311D01*
X135930184Y-81280083D01*
X136230384Y-81371183D01*
X136297604Y-81377811D01*
X136362243Y-81397410D01*
X136674343Y-81428110D01*
X136741400Y-81421497D01*
X136808457Y-81428110D01*
X137120557Y-81397410D01*
X137185196Y-81377811D01*
X137252416Y-81371183D01*
X137552615Y-81280083D01*
X137612040Y-81248311D01*
X137676529Y-81228758D01*
X137953129Y-81080958D01*
X138005312Y-81038144D01*
X138064840Y-81006328D01*
X138307340Y-80807328D01*
X138350210Y-80755094D01*
X138402435Y-80712210D01*
X138601335Y-80469710D01*
X138633053Y-80410330D01*
X138675767Y-80358299D01*
X138823667Y-80081699D01*
X138843296Y-80017025D01*
X138875143Y-79957416D01*
X138966143Y-79657216D01*
X138972730Y-79590206D01*
X138992289Y-79525773D01*
X139023089Y-79213673D01*
X139016476Y-79146400D01*
X139023089Y-79079127D01*
X138992289Y-78767027D01*
X138972730Y-78702594D01*
X138966143Y-78635584D01*
X138875143Y-78335384D01*
X138843296Y-78275775D01*
X138823667Y-78211101D01*
X138675767Y-77934501D01*
X138633053Y-77882470D01*
X138601335Y-77823090D01*
X138580453Y-77797630D01*
X139293905Y-78352800D01*
X139702359Y-106292385D01*
X139636799Y-106265162D01*
X139264833Y-106264838D01*
X138921057Y-106406883D01*
X138657808Y-106669673D01*
X138515162Y-107013201D01*
X138515121Y-107060077D01*
X137892638Y-107682560D01*
X136990000Y-107682560D01*
X136754683Y-107726838D01*
X136538559Y-107865910D01*
X136490866Y-107935711D01*
X136454090Y-107878559D01*
X136241890Y-107733569D01*
X136150000Y-107714961D01*
X136150000Y-107224913D01*
X136345317Y-107188162D01*
X136448646Y-107121671D01*
X136450302Y-107123327D01*
X136683691Y-107220000D01*
X136924250Y-107220000D01*
X137083000Y-107061250D01*
X137083000Y-106337000D01*
X137337000Y-106337000D01*
X137337000Y-107061250D01*
X137495750Y-107220000D01*
X137736309Y-107220000D01*
X137969698Y-107123327D01*
X138148327Y-106944699D01*
X138245000Y-106711310D01*
X138245000Y-106495750D01*
X138086250Y-106337000D01*
X137337000Y-106337000D01*
X137083000Y-106337000D01*
X137063000Y-106337000D01*
X137063000Y-106083000D01*
X137083000Y-106083000D01*
X137083000Y-105358750D01*
X137337000Y-105358750D01*
X137337000Y-106083000D01*
X138086250Y-106083000D01*
X138245000Y-105924250D01*
X138245000Y-105708690D01*
X138148327Y-105475301D01*
X137969698Y-105296673D01*
X137736309Y-105200000D01*
X137495750Y-105200000D01*
X137337000Y-105358750D01*
X137083000Y-105358750D01*
X136924250Y-105200000D01*
X136683691Y-105200000D01*
X136450302Y-105296673D01*
X136448932Y-105298043D01*
X136361890Y-105238569D01*
X136110000Y-105187560D01*
X135310000Y-105187560D01*
X135074683Y-105231838D01*
X134858559Y-105370910D01*
X134713569Y-105583110D01*
X134662560Y-105835000D01*
X134662560Y-106366311D01*
X134630000Y-106530000D01*
X134630000Y-107712666D01*
X134554683Y-107726838D01*
X134338559Y-107865910D01*
X134193569Y-108078110D01*
X134142560Y-108330000D01*
X134142560Y-109230000D01*
X134186838Y-109465317D01*
X134325910Y-109681441D01*
X134538110Y-109826431D01*
X134668480Y-109852832D01*
X134668480Y-110064823D01*
X134627039Y-110091490D01*
X134482049Y-110303690D01*
X134431040Y-110555580D01*
X134431040Y-112005580D01*
X134475318Y-112240897D01*
X134614390Y-112457021D01*
X134668480Y-112493979D01*
X134668480Y-115224823D01*
X134627039Y-115251490D01*
X134482049Y-115463690D01*
X134431040Y-115715580D01*
X134431040Y-117165580D01*
X134475318Y-117400897D01*
X134614390Y-117617021D01*
X134826590Y-117762011D01*
X135078480Y-117813020D01*
X135778480Y-117813020D01*
X136013797Y-117768742D01*
X136229921Y-117629670D01*
X136374911Y-117417470D01*
X136425920Y-117165580D01*
X136425920Y-116726330D01*
X136443480Y-116726330D01*
X136443480Y-117291889D01*
X136540153Y-117525278D01*
X136718781Y-117703907D01*
X136952170Y-117800580D01*
X137142730Y-117800580D01*
X137301480Y-117641830D01*
X137301480Y-116567580D01*
X137555480Y-116567580D01*
X137555480Y-117641830D01*
X137714230Y-117800580D01*
X137904790Y-117800580D01*
X138138179Y-117703907D01*
X138316807Y-117525278D01*
X138413480Y-117291889D01*
X138413480Y-116726330D01*
X138254730Y-116567580D01*
X137555480Y-116567580D01*
X137301480Y-116567580D01*
X136602230Y-116567580D01*
X136443480Y-116726330D01*
X136425920Y-116726330D01*
X136425920Y-115715580D01*
X136402154Y-115589271D01*
X136443480Y-115589271D01*
X136443480Y-116154830D01*
X136602230Y-116313580D01*
X137301480Y-116313580D01*
X137301480Y-115239330D01*
X137555480Y-115239330D01*
X137555480Y-116313580D01*
X138254730Y-116313580D01*
X138413480Y-116154830D01*
X138413480Y-115589271D01*
X138316807Y-115355882D01*
X138138179Y-115177253D01*
X137904790Y-115080580D01*
X137714230Y-115080580D01*
X137555480Y-115239330D01*
X137301480Y-115239330D01*
X137142730Y-115080580D01*
X136952170Y-115080580D01*
X136718781Y-115177253D01*
X136540153Y-115355882D01*
X136443480Y-115589271D01*
X136402154Y-115589271D01*
X136381642Y-115480263D01*
X136242570Y-115264139D01*
X136188480Y-115227181D01*
X136188480Y-112496337D01*
X136229921Y-112469670D01*
X136374911Y-112257470D01*
X136425920Y-112005580D01*
X136425920Y-111566330D01*
X136443480Y-111566330D01*
X136443480Y-112131889D01*
X136540153Y-112365278D01*
X136718781Y-112543907D01*
X136952170Y-112640580D01*
X137142730Y-112640580D01*
X137301480Y-112481830D01*
X137301480Y-111407580D01*
X137555480Y-111407580D01*
X137555480Y-112481830D01*
X137714230Y-112640580D01*
X137904790Y-112640580D01*
X138138179Y-112543907D01*
X138316807Y-112365278D01*
X138413480Y-112131889D01*
X138413480Y-111566330D01*
X138254730Y-111407580D01*
X137555480Y-111407580D01*
X137301480Y-111407580D01*
X136602230Y-111407580D01*
X136443480Y-111566330D01*
X136425920Y-111566330D01*
X136425920Y-110555580D01*
X136402154Y-110429271D01*
X136443480Y-110429271D01*
X136443480Y-110994830D01*
X136602230Y-111153580D01*
X137301480Y-111153580D01*
X137301480Y-110079330D01*
X137555480Y-110079330D01*
X137555480Y-111153580D01*
X138254730Y-111153580D01*
X138413480Y-110994830D01*
X138413480Y-110429271D01*
X138316807Y-110195882D01*
X138138179Y-110017253D01*
X137904790Y-109920580D01*
X137714230Y-109920580D01*
X137555480Y-110079330D01*
X137301480Y-110079330D01*
X137142730Y-109920580D01*
X136952170Y-109920580D01*
X136718781Y-110017253D01*
X136540153Y-110195882D01*
X136443480Y-110429271D01*
X136402154Y-110429271D01*
X136381642Y-110320263D01*
X136242570Y-110104139D01*
X136188480Y-110067181D01*
X136188480Y-109840093D01*
X136225317Y-109833162D01*
X136441441Y-109694090D01*
X136489134Y-109624289D01*
X136525910Y-109681441D01*
X136738110Y-109826431D01*
X136990000Y-109877440D01*
X138190000Y-109877440D01*
X138425317Y-109833162D01*
X138641441Y-109694090D01*
X138786431Y-109481890D01*
X138837440Y-109230000D01*
X138837440Y-108887362D01*
X139589680Y-108135122D01*
X139635167Y-108135162D01*
X139728734Y-108096501D01*
X139912447Y-120663048D01*
X137561743Y-124262257D01*
X133290482Y-124216275D01*
X133346431Y-124134390D01*
X133397440Y-123882500D01*
X133397440Y-122082500D01*
X133353162Y-121847183D01*
X133214090Y-121631059D01*
X133001890Y-121486069D01*
X132750000Y-121435060D01*
X131756421Y-121435060D01*
X131797440Y-121232500D01*
X131797440Y-121079349D01*
X134459689Y-121079349D01*
X134466302Y-121146399D01*
X134459689Y-121213446D01*
X134490389Y-121525596D01*
X134509994Y-121590258D01*
X134516627Y-121657496D01*
X134607727Y-121957646D01*
X134639489Y-122017047D01*
X134659033Y-122081511D01*
X134806833Y-122358131D01*
X134849668Y-122410342D01*
X134881507Y-122469903D01*
X135080507Y-122712363D01*
X135132680Y-122755176D01*
X135175499Y-122807340D01*
X135417999Y-123006310D01*
X135477458Y-123038083D01*
X135529569Y-123080853D01*
X135806169Y-123228713D01*
X135870757Y-123248308D01*
X135930284Y-123280123D01*
X136230484Y-123371173D01*
X136297600Y-123377780D01*
X136362135Y-123397359D01*
X136674235Y-123428109D01*
X136741400Y-123421496D01*
X136808565Y-123428109D01*
X137120665Y-123397359D01*
X137185200Y-123377780D01*
X137252316Y-123371173D01*
X137552516Y-123280123D01*
X137612043Y-123248308D01*
X137676631Y-123228713D01*
X137953231Y-123080853D01*
X138005342Y-123038083D01*
X138064801Y-123006310D01*
X138307301Y-122807340D01*
X138350173Y-122755112D01*
X138402400Y-122712233D01*
X138601300Y-122469773D01*
X138633040Y-122410363D01*
X138675777Y-122358301D01*
X138823677Y-122081680D01*
X138843297Y-122017031D01*
X138875134Y-121957446D01*
X138966134Y-121657296D01*
X138972726Y-121590266D01*
X138992290Y-121525813D01*
X139023090Y-121213663D01*
X139016477Y-121146395D01*
X139023089Y-121079133D01*
X138992289Y-120767003D01*
X138972727Y-120702557D01*
X138966136Y-120635530D01*
X138875136Y-120335370D01*
X138843295Y-120275777D01*
X138823672Y-120211120D01*
X138675772Y-119934510D01*
X138633038Y-119882453D01*
X138601300Y-119823047D01*
X138402400Y-119580587D01*
X138350181Y-119537714D01*
X138307315Y-119485491D01*
X138064814Y-119286511D01*
X138005349Y-119254733D01*
X137953231Y-119211957D01*
X137676631Y-119064097D01*
X137612033Y-119044499D01*
X137552496Y-119012681D01*
X137252296Y-118921641D01*
X137185190Y-118915037D01*
X137120665Y-118895461D01*
X136808565Y-118864711D01*
X136741400Y-118871324D01*
X136674235Y-118864711D01*
X136362135Y-118895461D01*
X136297610Y-118915037D01*
X136230504Y-118921641D01*
X135930304Y-119012681D01*
X135870767Y-119044499D01*
X135806169Y-119064097D01*
X135529569Y-119211957D01*
X135477451Y-119254733D01*
X135417986Y-119286511D01*
X135175486Y-119485491D01*
X135132674Y-119537649D01*
X135080507Y-119580457D01*
X134881507Y-119822917D01*
X134849670Y-119882474D01*
X134806838Y-119934680D01*
X134659038Y-120211290D01*
X134639491Y-120275760D01*
X134607725Y-120335170D01*
X134516625Y-120635330D01*
X134509993Y-120702563D01*
X134490389Y-120767220D01*
X134459689Y-121079349D01*
X131797440Y-121079349D01*
X131797440Y-119682500D01*
X131753162Y-119447183D01*
X131614090Y-119231059D01*
X131610000Y-119228264D01*
X131610000Y-117420000D01*
X131554847Y-117142728D01*
X131552148Y-117129160D01*
X131387401Y-116882599D01*
X130795122Y-116290320D01*
X130795162Y-116244833D01*
X130653117Y-115901057D01*
X130390327Y-115637808D01*
X130046799Y-115495162D01*
X129767709Y-115494919D01*
X132087401Y-113175227D01*
X132252148Y-112928665D01*
X132310000Y-112637826D01*
X132310000Y-109794884D01*
X132347440Y-109610000D01*
X132347440Y-108810000D01*
X132303162Y-108574683D01*
X132164090Y-108358559D01*
X132094289Y-108310866D01*
X132151441Y-108274090D01*
X132296431Y-108061890D01*
X132347440Y-107810000D01*
X132347440Y-107010000D01*
X132310000Y-106811024D01*
X132310000Y-102469322D01*
X132421640Y-102357682D01*
X132421640Y-102417667D01*
X132481395Y-102718073D01*
X132651561Y-102972746D01*
X132906234Y-103142912D01*
X133206640Y-103202667D01*
X133456640Y-103152938D01*
X133706640Y-103202667D01*
X133956640Y-103152938D01*
X134206640Y-103202667D01*
X134456640Y-103152938D01*
X134706640Y-103202667D01*
X135002729Y-103143771D01*
X136251361Y-104392403D01*
X136497923Y-104557150D01*
X136788762Y-104615002D01*
X137480002Y-104615002D01*
X137770841Y-104557150D01*
X138017403Y-104392403D01*
X138697401Y-103712405D01*
X138862148Y-103465844D01*
X138920000Y-103175004D01*
X138920000Y-102476844D01*
X138986441Y-102434090D01*
X139131431Y-102221890D01*
X139182440Y-101970000D01*
X139182440Y-101170000D01*
X139138162Y-100934683D01*
X139064380Y-100820022D01*
X139131431Y-100721890D01*
X139182440Y-100470000D01*
X139182440Y-99670000D01*
X139138162Y-99434683D01*
X138999090Y-99218559D01*
X138920000Y-99164519D01*
X138920000Y-98314996D01*
X138862148Y-98024157D01*
X138697401Y-97777595D01*
X137607403Y-96687597D01*
X137360841Y-96522850D01*
X137070002Y-96464998D01*
X136409998Y-96464998D01*
X136119159Y-96522850D01*
X135872597Y-96687597D01*
X134894239Y-97665955D01*
X134876326Y-97692764D01*
X134486150Y-97302588D01*
X134294996Y-97174864D01*
X134295162Y-96984833D01*
X134196209Y-96745349D01*
X134330611Y-96801020D01*
X134571170Y-96801020D01*
X134729920Y-96642270D01*
X134729920Y-95918020D01*
X134983920Y-95918020D01*
X134983920Y-96642270D01*
X135142670Y-96801020D01*
X135383229Y-96801020D01*
X135616618Y-96704347D01*
X135795247Y-96525719D01*
X135891920Y-96292330D01*
X135891920Y-96076770D01*
X135733170Y-95918020D01*
X134983920Y-95918020D01*
X134729920Y-95918020D01*
X134709920Y-95918020D01*
X134709920Y-95664020D01*
X134729920Y-95664020D01*
X134729920Y-94939770D01*
X134983920Y-94939770D01*
X134983920Y-95664020D01*
X135733170Y-95664020D01*
X135891920Y-95505270D01*
X135891920Y-95289710D01*
X135795247Y-95056321D01*
X135616618Y-94877693D01*
X135383229Y-94781020D01*
X135142670Y-94781020D01*
X134983920Y-94939770D01*
X134729920Y-94939770D01*
X134571170Y-94781020D01*
X134330611Y-94781020D01*
X134097222Y-94877693D01*
X134095852Y-94879063D01*
X134008810Y-94819589D01*
X133756920Y-94768580D01*
X133138202Y-94768580D01*
X136488697Y-91418085D01*
X136493610Y-91425721D01*
X136705810Y-91570711D01*
X136957700Y-91621720D01*
X138657700Y-91621720D01*
X138893017Y-91577442D01*
X139109141Y-91438370D01*
X139254131Y-91226170D01*
X139305140Y-90974280D01*
X139305140Y-89274280D01*
X139260862Y-89038963D01*
X139121790Y-88822839D01*
X138909590Y-88677849D01*
X138801593Y-88655979D01*
X139079345Y-88351204D01*
X139249176Y-87941170D01*
X139127855Y-87711280D01*
X137934700Y-87711280D01*
X137934700Y-87731280D01*
X137680700Y-87731280D01*
X137680700Y-87711280D01*
X136487545Y-87711280D01*
X136366224Y-87941170D01*
X136536055Y-88351204D01*
X136812201Y-88654217D01*
X136722383Y-88671118D01*
X136506259Y-88810190D01*
X136490896Y-88832674D01*
X135730000Y-88071778D01*
X135730000Y-85044280D01*
X136293607Y-85044280D01*
X136406646Y-85612565D01*
X136728553Y-86094334D01*
X137069253Y-86321982D01*
X136926342Y-86389097D01*
X136536055Y-86817356D01*
X136366224Y-87227390D01*
X136487545Y-87457280D01*
X137680700Y-87457280D01*
X137680700Y-87437280D01*
X137934700Y-87437280D01*
X137934700Y-87457280D01*
X139127855Y-87457280D01*
X139249176Y-87227390D01*
X139079345Y-86817356D01*
X138689058Y-86389097D01*
X138546147Y-86321982D01*
X138886847Y-86094334D01*
X139208754Y-85612565D01*
X139321793Y-85044280D01*
X139208754Y-84475995D01*
X138886847Y-83994226D01*
X138405078Y-83672319D01*
X137836793Y-83559280D01*
X137778607Y-83559280D01*
X137210322Y-83672319D01*
X136728553Y-83994226D01*
X136406646Y-84475995D01*
X136293607Y-85044280D01*
X135730000Y-85044280D01*
X135730000Y-84382463D01*
X135762192Y-84350327D01*
X135904838Y-84006799D01*
X135905162Y-83634833D01*
X135763117Y-83291057D01*
X135500327Y-83027808D01*
X135156799Y-82885162D01*
X134784833Y-82884838D01*
X134602641Y-82960118D01*
X134602641Y-81959141D01*
X134544789Y-81668302D01*
X134380042Y-81421740D01*
X134152174Y-81193872D01*
X134165080Y-81130140D01*
X134165080Y-79987140D01*
X134120802Y-79751823D01*
X134023640Y-79600829D01*
X134023640Y-78333420D01*
X133965788Y-78042581D01*
X133899120Y-77942805D01*
X133899120Y-77271460D01*
X133854842Y-77036143D01*
X133715770Y-76820019D01*
X133503570Y-76675029D01*
X133287439Y-76631261D01*
X133189081Y-76484059D01*
X133114080Y-76409058D01*
X132867518Y-76244311D01*
X132576679Y-76186459D01*
X129003783Y-76186459D01*
X128712944Y-76244311D01*
X128466382Y-76409058D01*
X126855819Y-78019621D01*
X125566280Y-78019621D01*
X125566280Y-76754620D01*
X125522002Y-76519303D01*
X125382930Y-76303179D01*
X125170730Y-76158189D01*
X124918840Y-76107180D01*
X124699760Y-76107180D01*
X124672913Y-76067000D01*
X136356409Y-76067000D01*
X137612975Y-77044792D01*
G36*
X128902560Y-121232500D02*
X128946838Y-121467817D01*
X128977000Y-121514690D01*
X128977000Y-121708750D01*
X129135750Y-121867500D01*
X129276309Y-121867500D01*
X129346007Y-121838630D01*
X129550000Y-121879940D01*
X130150000Y-121879940D01*
X130357342Y-121840926D01*
X130550000Y-121879940D01*
X130943579Y-121879940D01*
X130902560Y-122082500D01*
X130902560Y-123882500D01*
X130946838Y-124117817D01*
X130994287Y-124191555D01*
X127731373Y-124156428D01*
X127746431Y-124134390D01*
X127797440Y-123882500D01*
X127797440Y-122082500D01*
X127759326Y-121879940D01*
X128150000Y-121879940D01*
X128358850Y-121840642D01*
X128423691Y-121867500D01*
X128564250Y-121867500D01*
X128723000Y-121708750D01*
X128723000Y-121518682D01*
X128746431Y-121484390D01*
X128797440Y-121232500D01*
X128797440Y-120310500D01*
X128902560Y-120310500D01*
X128902560Y-121232500D01*
X128902560Y-121232500D01*
G37*
X128902560Y-121232500D02*
X128946838Y-121467817D01*
X128977000Y-121514690D01*
X128977000Y-121708750D01*
X129135750Y-121867500D01*
X129276309Y-121867500D01*
X129346007Y-121838630D01*
X129550000Y-121879940D01*
X130150000Y-121879940D01*
X130357342Y-121840926D01*
X130550000Y-121879940D01*
X130943579Y-121879940D01*
X130902560Y-122082500D01*
X130902560Y-123882500D01*
X130946838Y-124117817D01*
X130994287Y-124191555D01*
X127731373Y-124156428D01*
X127746431Y-124134390D01*
X127797440Y-123882500D01*
X127797440Y-122082500D01*
X127759326Y-121879940D01*
X128150000Y-121879940D01*
X128358850Y-121840642D01*
X128423691Y-121867500D01*
X128564250Y-121867500D01*
X128723000Y-121708750D01*
X128723000Y-121518682D01*
X128746431Y-121484390D01*
X128797440Y-121232500D01*
X128797440Y-120310500D01*
X128902560Y-120310500D01*
X128902560Y-121232500D01*
G36*
X120140000Y-121759940D02*
X120740000Y-121759940D01*
X120947342Y-121720926D01*
X121140000Y-121759940D01*
X121533579Y-121759940D01*
X121492560Y-121962500D01*
X121492560Y-123327501D01*
X121479803Y-123327501D01*
X119889992Y-121737690D01*
X119936007Y-121718630D01*
X120140000Y-121759940D01*
X120140000Y-121759940D01*
G37*
X120140000Y-121759940D02*
X120740000Y-121759940D01*
X120947342Y-121720926D01*
X121140000Y-121759940D01*
X121533579Y-121759940D01*
X121492560Y-121962500D01*
X121492560Y-123327501D01*
X121479803Y-123327501D01*
X119889992Y-121737690D01*
X119936007Y-121718630D01*
X120140000Y-121759940D01*
G36*
X128400008Y-119057310D02*
X128353993Y-119076370D01*
X128150000Y-119035060D01*
X127977362Y-119035060D01*
X127837401Y-118895099D01*
X127590839Y-118730352D01*
X127300000Y-118672500D01*
X125459647Y-118672500D01*
X125168808Y-118730352D01*
X124922246Y-118895099D01*
X123897246Y-119920099D01*
X123732499Y-120166661D01*
X123674647Y-120457500D01*
X123674647Y-121422614D01*
X123591890Y-121366069D01*
X123340000Y-121315060D01*
X122346421Y-121315060D01*
X122387440Y-121112500D01*
X122387440Y-120847362D01*
X124199680Y-119035122D01*
X124245167Y-119035162D01*
X124588943Y-118893117D01*
X124852192Y-118630327D01*
X124994838Y-118286799D01*
X124995162Y-117914833D01*
X124853117Y-117571057D01*
X124590327Y-117307808D01*
X124302418Y-117188257D01*
X126191743Y-117188257D01*
X126474676Y-117131978D01*
X128400008Y-119057310D01*
X128400008Y-119057310D01*
G37*
X128400008Y-119057310D02*
X128353993Y-119076370D01*
X128150000Y-119035060D01*
X127977362Y-119035060D01*
X127837401Y-118895099D01*
X127590839Y-118730352D01*
X127300000Y-118672500D01*
X125459647Y-118672500D01*
X125168808Y-118730352D01*
X124922246Y-118895099D01*
X123897246Y-119920099D01*
X123732499Y-120166661D01*
X123674647Y-120457500D01*
X123674647Y-121422614D01*
X123591890Y-121366069D01*
X123340000Y-121315060D01*
X122346421Y-121315060D01*
X122387440Y-121112500D01*
X122387440Y-120847362D01*
X124199680Y-119035122D01*
X124245167Y-119035162D01*
X124588943Y-118893117D01*
X124852192Y-118630327D01*
X124994838Y-118286799D01*
X124995162Y-117914833D01*
X124853117Y-117571057D01*
X124590327Y-117307808D01*
X124302418Y-117188257D01*
X126191743Y-117188257D01*
X126474676Y-117131978D01*
X128400008Y-119057310D01*
G36*
X121852599Y-115878811D02*
X122939446Y-116965658D01*
X123186008Y-117130405D01*
X123476847Y-117188257D01*
X123818155Y-117188257D01*
X123531057Y-117306883D01*
X123267808Y-117569673D01*
X123125162Y-117913201D01*
X123125121Y-117960077D01*
X122067480Y-119017718D01*
X121991890Y-118966069D01*
X121740000Y-118915060D01*
X121499742Y-118915060D01*
X121929680Y-118485122D01*
X121975167Y-118485162D01*
X122318943Y-118343117D01*
X122582192Y-118080327D01*
X122724838Y-117736799D01*
X122725162Y-117364833D01*
X122583117Y-117021057D01*
X122320327Y-116757808D01*
X121976799Y-116615162D01*
X121604833Y-116614838D01*
X121261057Y-116756883D01*
X120997808Y-117019673D01*
X120855162Y-117363201D01*
X120855121Y-117410077D01*
X119902599Y-118362599D01*
X119737852Y-118609161D01*
X119680000Y-118900000D01*
X119680000Y-118973250D01*
X119567000Y-119086250D01*
X119567000Y-119276318D01*
X119543569Y-119310610D01*
X119492560Y-119562500D01*
X119492560Y-120484500D01*
X119387440Y-120484500D01*
X119387440Y-119562500D01*
X119343162Y-119327183D01*
X119313000Y-119280310D01*
X119313000Y-119086250D01*
X119154250Y-118927500D01*
X119013691Y-118927500D01*
X118943993Y-118956370D01*
X118740000Y-118915060D01*
X118140000Y-118915060D01*
X117904683Y-118959338D01*
X117688559Y-119098410D01*
X117543569Y-119310610D01*
X117492560Y-119562500D01*
X117492560Y-119706580D01*
X117352599Y-119800098D01*
X116315197Y-120837501D01*
X113224801Y-120837501D01*
X113572402Y-120489900D01*
X113737149Y-120243338D01*
X113795001Y-119952499D01*
X113795001Y-116425001D01*
X113778224Y-116340656D01*
X113737149Y-116134161D01*
X113674233Y-116040001D01*
X121178589Y-116040001D01*
X121469428Y-115982149D01*
X121715990Y-115817402D01*
X121773284Y-115760108D01*
X121852599Y-115878811D01*
X121852599Y-115878811D01*
G37*
X121852599Y-115878811D02*
X122939446Y-116965658D01*
X123186008Y-117130405D01*
X123476847Y-117188257D01*
X123818155Y-117188257D01*
X123531057Y-117306883D01*
X123267808Y-117569673D01*
X123125162Y-117913201D01*
X123125121Y-117960077D01*
X122067480Y-119017718D01*
X121991890Y-118966069D01*
X121740000Y-118915060D01*
X121499742Y-118915060D01*
X121929680Y-118485122D01*
X121975167Y-118485162D01*
X122318943Y-118343117D01*
X122582192Y-118080327D01*
X122724838Y-117736799D01*
X122725162Y-117364833D01*
X122583117Y-117021057D01*
X122320327Y-116757808D01*
X121976799Y-116615162D01*
X121604833Y-116614838D01*
X121261057Y-116756883D01*
X120997808Y-117019673D01*
X120855162Y-117363201D01*
X120855121Y-117410077D01*
X119902599Y-118362599D01*
X119737852Y-118609161D01*
X119680000Y-118900000D01*
X119680000Y-118973250D01*
X119567000Y-119086250D01*
X119567000Y-119276318D01*
X119543569Y-119310610D01*
X119492560Y-119562500D01*
X119492560Y-120484500D01*
X119387440Y-120484500D01*
X119387440Y-119562500D01*
X119343162Y-119327183D01*
X119313000Y-119280310D01*
X119313000Y-119086250D01*
X119154250Y-118927500D01*
X119013691Y-118927500D01*
X118943993Y-118956370D01*
X118740000Y-118915060D01*
X118140000Y-118915060D01*
X117904683Y-118959338D01*
X117688559Y-119098410D01*
X117543569Y-119310610D01*
X117492560Y-119562500D01*
X117492560Y-119706580D01*
X117352599Y-119800098D01*
X116315197Y-120837501D01*
X113224801Y-120837501D01*
X113572402Y-120489900D01*
X113737149Y-120243338D01*
X113795001Y-119952499D01*
X113795001Y-116425001D01*
X113778224Y-116340656D01*
X113737149Y-116134161D01*
X113674233Y-116040001D01*
X121178589Y-116040001D01*
X121469428Y-115982149D01*
X121715990Y-115817402D01*
X121773284Y-115760108D01*
X121852599Y-115878811D01*
G36*
X105501598Y-115780011D02*
X104986749Y-115780011D01*
X104695910Y-115837863D01*
X104449348Y-116002610D01*
X101407659Y-119044299D01*
X101305828Y-119196700D01*
X101230810Y-119196700D01*
X101072060Y-119355450D01*
X101072060Y-119545518D01*
X101048629Y-119579810D01*
X100997620Y-119831700D01*
X100997620Y-120753700D01*
X100892500Y-120753700D01*
X100892500Y-119831700D01*
X100848222Y-119596383D01*
X100818060Y-119549510D01*
X100818060Y-119355450D01*
X100705060Y-119242450D01*
X100705060Y-116049742D01*
X101097362Y-115657440D01*
X101340000Y-115657440D01*
X101340000Y-116217537D01*
X101307808Y-116249673D01*
X101165162Y-116593201D01*
X101164838Y-116965167D01*
X101306883Y-117308943D01*
X101569673Y-117572192D01*
X101913201Y-117714838D01*
X102285167Y-117715162D01*
X102628943Y-117573117D01*
X102892192Y-117310327D01*
X103034838Y-116966799D01*
X103035162Y-116594833D01*
X102893117Y-116251057D01*
X102860000Y-116217882D01*
X102860000Y-115844802D01*
X103047362Y-115657440D01*
X103270000Y-115657440D01*
X103505317Y-115613162D01*
X103650095Y-115520000D01*
X105761609Y-115520000D01*
X105501598Y-115780011D01*
X105501598Y-115780011D01*
G37*
X105501598Y-115780011D02*
X104986749Y-115780011D01*
X104695910Y-115837863D01*
X104449348Y-116002610D01*
X101407659Y-119044299D01*
X101305828Y-119196700D01*
X101230810Y-119196700D01*
X101072060Y-119355450D01*
X101072060Y-119545518D01*
X101048629Y-119579810D01*
X100997620Y-119831700D01*
X100997620Y-120753700D01*
X100892500Y-120753700D01*
X100892500Y-119831700D01*
X100848222Y-119596383D01*
X100818060Y-119549510D01*
X100818060Y-119355450D01*
X100705060Y-119242450D01*
X100705060Y-116049742D01*
X101097362Y-115657440D01*
X101340000Y-115657440D01*
X101340000Y-116217537D01*
X101307808Y-116249673D01*
X101165162Y-116593201D01*
X101164838Y-116965167D01*
X101306883Y-117308943D01*
X101569673Y-117572192D01*
X101913201Y-117714838D01*
X102285167Y-117715162D01*
X102628943Y-117573117D01*
X102892192Y-117310327D01*
X103034838Y-116966799D01*
X103035162Y-116594833D01*
X102893117Y-116251057D01*
X102860000Y-116217882D01*
X102860000Y-115844802D01*
X103047362Y-115657440D01*
X103270000Y-115657440D01*
X103505317Y-115613162D01*
X103650095Y-115520000D01*
X105761609Y-115520000D01*
X105501598Y-115780011D01*
G36*
X110660000Y-118047440D02*
X110822126Y-118047440D01*
X110695162Y-118353201D01*
X110695121Y-118400077D01*
X110402599Y-118692599D01*
X110237852Y-118939161D01*
X110204024Y-119109226D01*
X110067000Y-119246250D01*
X110067000Y-119436318D01*
X110043569Y-119470610D01*
X109992560Y-119722500D01*
X109992560Y-120644500D01*
X109887440Y-120644500D01*
X109887440Y-119722500D01*
X109843162Y-119487183D01*
X109813000Y-119440310D01*
X109813000Y-119246250D01*
X109700000Y-119133250D01*
X109700000Y-118025164D01*
X109810000Y-118047440D01*
X110310000Y-118047440D01*
X110491424Y-118013303D01*
X110660000Y-118047440D01*
X110660000Y-118047440D01*
G37*
X110660000Y-118047440D02*
X110822126Y-118047440D01*
X110695162Y-118353201D01*
X110695121Y-118400077D01*
X110402599Y-118692599D01*
X110237852Y-118939161D01*
X110204024Y-119109226D01*
X110067000Y-119246250D01*
X110067000Y-119436318D01*
X110043569Y-119470610D01*
X109992560Y-119722500D01*
X109992560Y-120644500D01*
X109887440Y-120644500D01*
X109887440Y-119722500D01*
X109843162Y-119487183D01*
X109813000Y-119440310D01*
X109813000Y-119246250D01*
X109700000Y-119133250D01*
X109700000Y-118025164D01*
X109810000Y-118047440D01*
X110310000Y-118047440D01*
X110491424Y-118013303D01*
X110660000Y-118047440D01*
G36*
X100761348Y-111462560D02*
X100670000Y-111462560D01*
X100434683Y-111506838D01*
X100218559Y-111645910D01*
X100073569Y-111858110D01*
X100022560Y-112110000D01*
X100022560Y-112610000D01*
X100056697Y-112791424D01*
X100022560Y-112960000D01*
X100022560Y-113360000D01*
X100061574Y-113567342D01*
X100022560Y-113760000D01*
X100022560Y-114160000D01*
X100056697Y-114341424D01*
X100022560Y-114510000D01*
X100022560Y-114582638D01*
X99407659Y-115197539D01*
X99242912Y-115444101D01*
X99185060Y-115734940D01*
X99185060Y-119380137D01*
X99048629Y-119579810D01*
X98997620Y-119831700D01*
X98997620Y-119846700D01*
X98406820Y-119846700D01*
X95500600Y-116940480D01*
X95913360Y-116940480D01*
X96148677Y-116896202D01*
X96364801Y-116757130D01*
X96367596Y-116753040D01*
X96468238Y-116753040D01*
X96864878Y-117149680D01*
X96864838Y-117195167D01*
X97006883Y-117538943D01*
X97269673Y-117802192D01*
X97613201Y-117944838D01*
X97985167Y-117945162D01*
X98328943Y-117803117D01*
X98592192Y-117540327D01*
X98734838Y-117196799D01*
X98735162Y-116824833D01*
X98593117Y-116481057D01*
X98580151Y-116468069D01*
X98688943Y-116423117D01*
X98952192Y-116160327D01*
X99094838Y-115816799D01*
X99095162Y-115444833D01*
X98953117Y-115101057D01*
X98690327Y-114837808D01*
X98346799Y-114695162D01*
X98299923Y-114695121D01*
X98060441Y-114455639D01*
X97813879Y-114290892D01*
X97523040Y-114233040D01*
X96502610Y-114233040D01*
X96389610Y-114120040D01*
X96199542Y-114120040D01*
X96165250Y-114096609D01*
X95913360Y-114045600D01*
X94991360Y-114045600D01*
X94991360Y-113940480D01*
X95913360Y-113940480D01*
X96148677Y-113896202D01*
X96195550Y-113866040D01*
X96389610Y-113866040D01*
X96548360Y-113707290D01*
X96548360Y-113566731D01*
X96519490Y-113497033D01*
X96560800Y-113293040D01*
X96560800Y-112693040D01*
X96516522Y-112457723D01*
X96377450Y-112241599D01*
X96165250Y-112096609D01*
X95913360Y-112045600D01*
X95769280Y-112045600D01*
X95675761Y-111905639D01*
X94842499Y-111072377D01*
X94842499Y-107577440D01*
X95957500Y-107577440D01*
X96192817Y-107533162D01*
X96408941Y-107394090D01*
X96411736Y-107390000D01*
X96688788Y-107390000D01*
X100761348Y-111462560D01*
X100761348Y-111462560D01*
G37*
X100761348Y-111462560D02*
X100670000Y-111462560D01*
X100434683Y-111506838D01*
X100218559Y-111645910D01*
X100073569Y-111858110D01*
X100022560Y-112110000D01*
X100022560Y-112610000D01*
X100056697Y-112791424D01*
X100022560Y-112960000D01*
X100022560Y-113360000D01*
X100061574Y-113567342D01*
X100022560Y-113760000D01*
X100022560Y-114160000D01*
X100056697Y-114341424D01*
X100022560Y-114510000D01*
X100022560Y-114582638D01*
X99407659Y-115197539D01*
X99242912Y-115444101D01*
X99185060Y-115734940D01*
X99185060Y-119380137D01*
X99048629Y-119579810D01*
X98997620Y-119831700D01*
X98997620Y-119846700D01*
X98406820Y-119846700D01*
X95500600Y-116940480D01*
X95913360Y-116940480D01*
X96148677Y-116896202D01*
X96364801Y-116757130D01*
X96367596Y-116753040D01*
X96468238Y-116753040D01*
X96864878Y-117149680D01*
X96864838Y-117195167D01*
X97006883Y-117538943D01*
X97269673Y-117802192D01*
X97613201Y-117944838D01*
X97985167Y-117945162D01*
X98328943Y-117803117D01*
X98592192Y-117540327D01*
X98734838Y-117196799D01*
X98735162Y-116824833D01*
X98593117Y-116481057D01*
X98580151Y-116468069D01*
X98688943Y-116423117D01*
X98952192Y-116160327D01*
X99094838Y-115816799D01*
X99095162Y-115444833D01*
X98953117Y-115101057D01*
X98690327Y-114837808D01*
X98346799Y-114695162D01*
X98299923Y-114695121D01*
X98060441Y-114455639D01*
X97813879Y-114290892D01*
X97523040Y-114233040D01*
X96502610Y-114233040D01*
X96389610Y-114120040D01*
X96199542Y-114120040D01*
X96165250Y-114096609D01*
X95913360Y-114045600D01*
X94991360Y-114045600D01*
X94991360Y-113940480D01*
X95913360Y-113940480D01*
X96148677Y-113896202D01*
X96195550Y-113866040D01*
X96389610Y-113866040D01*
X96548360Y-113707290D01*
X96548360Y-113566731D01*
X96519490Y-113497033D01*
X96560800Y-113293040D01*
X96560800Y-112693040D01*
X96516522Y-112457723D01*
X96377450Y-112241599D01*
X96165250Y-112096609D01*
X95913360Y-112045600D01*
X95769280Y-112045600D01*
X95675761Y-111905639D01*
X94842499Y-111072377D01*
X94842499Y-107577440D01*
X95957500Y-107577440D01*
X96192817Y-107533162D01*
X96408941Y-107394090D01*
X96411736Y-107390000D01*
X96688788Y-107390000D01*
X100761348Y-111462560D01*
G36*
X121380301Y-111593327D02*
X121613690Y-111690000D01*
X121666310Y-111690000D01*
X121899699Y-111593327D01*
X121901068Y-111591958D01*
X121988110Y-111651431D01*
X122109830Y-111676080D01*
X122123750Y-111690000D01*
X122166310Y-111690000D01*
X122170335Y-111688333D01*
X122240000Y-111702440D01*
X122540000Y-111702440D01*
X122643671Y-111682933D01*
X122740000Y-111702440D01*
X123017560Y-111702440D01*
X123017560Y-111980000D01*
X123037067Y-112083671D01*
X123017560Y-112180000D01*
X123017560Y-112480000D01*
X123037067Y-112583671D01*
X123017560Y-112680000D01*
X123017560Y-112980000D01*
X123037067Y-113083671D01*
X123017560Y-113180000D01*
X123017560Y-113457560D01*
X122740000Y-113457560D01*
X122636329Y-113477067D01*
X122540000Y-113457560D01*
X122240000Y-113457560D01*
X122168677Y-113470980D01*
X122166310Y-113470000D01*
X122123750Y-113470000D01*
X122112129Y-113481621D01*
X122004683Y-113501838D01*
X121890022Y-113575620D01*
X121791890Y-113508569D01*
X121670170Y-113483920D01*
X121656250Y-113470000D01*
X121613690Y-113470000D01*
X121609665Y-113471667D01*
X121540000Y-113457560D01*
X121262440Y-113457560D01*
X121262440Y-113180000D01*
X121242933Y-113076329D01*
X121262440Y-112980000D01*
X121262440Y-112680000D01*
X121242933Y-112576329D01*
X121262440Y-112480000D01*
X121262440Y-112180000D01*
X121242933Y-112076329D01*
X121262440Y-111980000D01*
X121262440Y-111680000D01*
X121258912Y-111661249D01*
X121275317Y-111658162D01*
X121378646Y-111591672D01*
X121380301Y-111593327D01*
X121380301Y-111593327D01*
G37*
X121380301Y-111593327D02*
X121613690Y-111690000D01*
X121666310Y-111690000D01*
X121899699Y-111593327D01*
X121901068Y-111591958D01*
X121988110Y-111651431D01*
X122109830Y-111676080D01*
X122123750Y-111690000D01*
X122166310Y-111690000D01*
X122170335Y-111688333D01*
X122240000Y-111702440D01*
X122540000Y-111702440D01*
X122643671Y-111682933D01*
X122740000Y-111702440D01*
X123017560Y-111702440D01*
X123017560Y-111980000D01*
X123037067Y-112083671D01*
X123017560Y-112180000D01*
X123017560Y-112480000D01*
X123037067Y-112583671D01*
X123017560Y-112680000D01*
X123017560Y-112980000D01*
X123037067Y-113083671D01*
X123017560Y-113180000D01*
X123017560Y-113457560D01*
X122740000Y-113457560D01*
X122636329Y-113477067D01*
X122540000Y-113457560D01*
X122240000Y-113457560D01*
X122168677Y-113470980D01*
X122166310Y-113470000D01*
X122123750Y-113470000D01*
X122112129Y-113481621D01*
X122004683Y-113501838D01*
X121890022Y-113575620D01*
X121791890Y-113508569D01*
X121670170Y-113483920D01*
X121656250Y-113470000D01*
X121613690Y-113470000D01*
X121609665Y-113471667D01*
X121540000Y-113457560D01*
X121262440Y-113457560D01*
X121262440Y-113180000D01*
X121242933Y-113076329D01*
X121262440Y-112980000D01*
X121262440Y-112680000D01*
X121242933Y-112576329D01*
X121262440Y-112480000D01*
X121262440Y-112180000D01*
X121242933Y-112076329D01*
X121262440Y-111980000D01*
X121262440Y-111680000D01*
X121258912Y-111661249D01*
X121275317Y-111658162D01*
X121378646Y-111591672D01*
X121380301Y-111593327D01*
G36*
X99265910Y-83201441D02*
X99478110Y-83346431D01*
X99730000Y-83397440D01*
X100930000Y-83397440D01*
X101165317Y-83353162D01*
X101381441Y-83214090D01*
X101429134Y-83144289D01*
X101465910Y-83201441D01*
X101678110Y-83346431D01*
X101770000Y-83365039D01*
X101770000Y-84671429D01*
X101714683Y-84681838D01*
X101611354Y-84748329D01*
X101609698Y-84746673D01*
X101376309Y-84650000D01*
X101135750Y-84650000D01*
X100977000Y-84808750D01*
X100977000Y-85533000D01*
X100997000Y-85533000D01*
X100997000Y-85787000D01*
X100977000Y-85787000D01*
X100977000Y-86511250D01*
X101135750Y-86670000D01*
X101376309Y-86670000D01*
X101609698Y-86573327D01*
X101611068Y-86571957D01*
X101698110Y-86631431D01*
X101950000Y-86682440D01*
X102695001Y-86682440D01*
X102695001Y-87372501D01*
X102752853Y-87663340D01*
X102917600Y-87909902D01*
X105931733Y-90924035D01*
X105883463Y-90933118D01*
X105667339Y-91072190D01*
X105522349Y-91284390D01*
X105471340Y-91536280D01*
X105471340Y-91886280D01*
X105495724Y-92015869D01*
X105471340Y-92136280D01*
X105471340Y-92486280D01*
X105495724Y-92615869D01*
X105471340Y-92736280D01*
X105471340Y-93030958D01*
X105463117Y-93011057D01*
X105200327Y-92747808D01*
X104856799Y-92605162D01*
X104484833Y-92604838D01*
X104141057Y-92746883D01*
X103877808Y-93009673D01*
X103735162Y-93353201D01*
X103734838Y-93725167D01*
X103876883Y-94068943D01*
X103910000Y-94102118D01*
X103910000Y-94112500D01*
X103967852Y-94403339D01*
X104132599Y-94649901D01*
X105306478Y-95823780D01*
X105256378Y-95873880D01*
X105091631Y-96120442D01*
X105033779Y-96411281D01*
X105033779Y-103036279D01*
X105091631Y-103327118D01*
X105256378Y-103573680D01*
X105331379Y-103648681D01*
X105471340Y-103742200D01*
X105471340Y-103886280D01*
X105495724Y-104015869D01*
X105471340Y-104136280D01*
X105471340Y-104486280D01*
X105495724Y-104615869D01*
X105471340Y-104736280D01*
X105471340Y-105086280D01*
X105495724Y-105215869D01*
X105471340Y-105336280D01*
X105471340Y-105686280D01*
X105495724Y-105815869D01*
X105471340Y-105936280D01*
X105471340Y-106286280D01*
X105491230Y-106391985D01*
X105483780Y-106409971D01*
X105483780Y-106465030D01*
X105509886Y-106491136D01*
X105515618Y-106521597D01*
X105640839Y-106716196D01*
X105580453Y-106776582D01*
X105520861Y-106920449D01*
X105483780Y-106957530D01*
X105483780Y-107065030D01*
X105520861Y-107102111D01*
X105580453Y-107245978D01*
X105645755Y-107311280D01*
X105580453Y-107376582D01*
X105520861Y-107520449D01*
X105483780Y-107557530D01*
X105483780Y-107665030D01*
X105520861Y-107702111D01*
X105580453Y-107845978D01*
X105645755Y-107911280D01*
X105580453Y-107976582D01*
X105520861Y-108120449D01*
X105483780Y-108157530D01*
X105483780Y-108265030D01*
X105520861Y-108302111D01*
X105580453Y-108445978D01*
X105645755Y-108511280D01*
X105580453Y-108576582D01*
X105520861Y-108720449D01*
X105483780Y-108757530D01*
X105483780Y-108865030D01*
X105520861Y-108902111D01*
X105580453Y-109045978D01*
X105733254Y-109198780D01*
X105642530Y-109198780D01*
X105483780Y-109357530D01*
X105483780Y-109412589D01*
X105580453Y-109645978D01*
X105759081Y-109824607D01*
X105992470Y-109921280D01*
X107083030Y-109921280D01*
X107241780Y-109762530D01*
X107241780Y-109198780D01*
X107205530Y-109198780D01*
X107241780Y-109162530D01*
X107241780Y-107164280D01*
X107495780Y-107164280D01*
X107495780Y-109162530D01*
X107532030Y-109198780D01*
X107495780Y-109198780D01*
X107495780Y-109762530D01*
X107654530Y-109921280D01*
X108745090Y-109921280D01*
X108978479Y-109824607D01*
X109157107Y-109645978D01*
X109253780Y-109412589D01*
X109253780Y-109357530D01*
X109095030Y-109198780D01*
X109004306Y-109198780D01*
X109157107Y-109045978D01*
X109216699Y-108902111D01*
X109253780Y-108865030D01*
X109253780Y-108757530D01*
X109216699Y-108720449D01*
X109157107Y-108576582D01*
X109091805Y-108511280D01*
X109157107Y-108445978D01*
X109216699Y-108302111D01*
X109253780Y-108265030D01*
X109253780Y-108157530D01*
X109216699Y-108120449D01*
X109157107Y-107976582D01*
X109091805Y-107911280D01*
X109157107Y-107845978D01*
X109216699Y-107702111D01*
X109253780Y-107665030D01*
X109253780Y-107557530D01*
X109216699Y-107520449D01*
X109157107Y-107376582D01*
X109091805Y-107311280D01*
X109157107Y-107245978D01*
X109216699Y-107102111D01*
X109253780Y-107065030D01*
X109253780Y-106957530D01*
X109216699Y-106920449D01*
X109157107Y-106776582D01*
X109094850Y-106714324D01*
X109215211Y-106538170D01*
X109223989Y-106494821D01*
X109253780Y-106465030D01*
X109253780Y-106409971D01*
X109245312Y-106389527D01*
X109266220Y-106286280D01*
X109266220Y-105936280D01*
X109241836Y-105806691D01*
X109266220Y-105686280D01*
X109266220Y-105336280D01*
X109241836Y-105206691D01*
X109266220Y-105086280D01*
X109266220Y-104736280D01*
X109241836Y-104606691D01*
X109266220Y-104486280D01*
X109266220Y-104136280D01*
X109241836Y-104006691D01*
X109266220Y-103886280D01*
X109266220Y-103536280D01*
X109241836Y-103406691D01*
X109266220Y-103286280D01*
X109266220Y-102936280D01*
X109241836Y-102806691D01*
X109266220Y-102686280D01*
X109266220Y-102336280D01*
X109241836Y-102206691D01*
X109266220Y-102086280D01*
X109266220Y-101736280D01*
X109241836Y-101606691D01*
X109266220Y-101486280D01*
X109266220Y-101136280D01*
X109246330Y-101030575D01*
X109253780Y-101012589D01*
X109253780Y-100957530D01*
X109227674Y-100931424D01*
X109221942Y-100900963D01*
X109096721Y-100706364D01*
X109157107Y-100645978D01*
X109216699Y-100502111D01*
X109253780Y-100465030D01*
X109253780Y-100357530D01*
X109216699Y-100320449D01*
X109157107Y-100176582D01*
X109091805Y-100111280D01*
X109157107Y-100045978D01*
X109216699Y-99902111D01*
X109253780Y-99865030D01*
X109253780Y-99757530D01*
X109216699Y-99720449D01*
X109157107Y-99576582D01*
X109091805Y-99511280D01*
X109157107Y-99445978D01*
X109216699Y-99302111D01*
X109253780Y-99265030D01*
X109253780Y-99157530D01*
X109216699Y-99120449D01*
X109157107Y-98976582D01*
X109091805Y-98911280D01*
X109157107Y-98845978D01*
X109216699Y-98702111D01*
X109253780Y-98665030D01*
X109253780Y-98557530D01*
X109216699Y-98520449D01*
X109157107Y-98376582D01*
X109091805Y-98311280D01*
X109157107Y-98245978D01*
X109216699Y-98102111D01*
X109253780Y-98065030D01*
X109253780Y-97957530D01*
X109216699Y-97920449D01*
X109157107Y-97776582D01*
X109094850Y-97714324D01*
X109215211Y-97538170D01*
X109223989Y-97494821D01*
X109253780Y-97465030D01*
X109253780Y-97409971D01*
X109245312Y-97389527D01*
X109266220Y-97286280D01*
X109266220Y-96936280D01*
X109241836Y-96806691D01*
X109266220Y-96686280D01*
X109266220Y-96336280D01*
X109241836Y-96206691D01*
X109266220Y-96086280D01*
X109266220Y-95736280D01*
X109241836Y-95606691D01*
X109266220Y-95486280D01*
X109266220Y-95136280D01*
X109241836Y-95006691D01*
X109266220Y-94886280D01*
X109266220Y-94536280D01*
X109241836Y-94406691D01*
X109266220Y-94286280D01*
X109266220Y-93936280D01*
X109241836Y-93806691D01*
X109266220Y-93686280D01*
X109266220Y-93336280D01*
X109241836Y-93206691D01*
X109266220Y-93086280D01*
X109266220Y-92942200D01*
X109406181Y-92848681D01*
X109533779Y-92721083D01*
X109533779Y-93436279D01*
X109591631Y-93727118D01*
X109756378Y-93973680D01*
X109831379Y-94048681D01*
X109971340Y-94142200D01*
X109971340Y-94286280D01*
X109995724Y-94415869D01*
X109971340Y-94536280D01*
X109971340Y-94886280D01*
X109995724Y-95015869D01*
X109971340Y-95136280D01*
X109971340Y-95486280D01*
X109995724Y-95615869D01*
X109971340Y-95736280D01*
X109971340Y-96086280D01*
X109995724Y-96215869D01*
X109971340Y-96336280D01*
X109971340Y-96686280D01*
X109995724Y-96815869D01*
X109971340Y-96936280D01*
X109971340Y-97286280D01*
X109995724Y-97415869D01*
X109971340Y-97536280D01*
X109971340Y-97886280D01*
X109995724Y-98015869D01*
X109971340Y-98136280D01*
X109971340Y-98486280D01*
X109995724Y-98615869D01*
X109971340Y-98736280D01*
X109971340Y-99086280D01*
X109995724Y-99215869D01*
X109971340Y-99336280D01*
X109971340Y-99686280D01*
X109995724Y-99815869D01*
X109971340Y-99936280D01*
X109971340Y-100286280D01*
X109995724Y-100415869D01*
X109971340Y-100536280D01*
X109971340Y-100886280D01*
X109995724Y-101015869D01*
X109971340Y-101136280D01*
X109971340Y-101486280D01*
X109995724Y-101615869D01*
X109971340Y-101736280D01*
X109971340Y-102086280D01*
X109995724Y-102215869D01*
X109971340Y-102336280D01*
X109971340Y-102686280D01*
X109991230Y-102791985D01*
X109983780Y-102809971D01*
X109983780Y-102865030D01*
X110009886Y-102891136D01*
X110015618Y-102921597D01*
X110140839Y-103116196D01*
X110080453Y-103176582D01*
X110020861Y-103320449D01*
X109983780Y-103357530D01*
X109983780Y-103465030D01*
X110020861Y-103502111D01*
X110080453Y-103645978D01*
X110142710Y-103708236D01*
X110022349Y-103884390D01*
X110013571Y-103927739D01*
X109983780Y-103957530D01*
X109983780Y-104012589D01*
X109992248Y-104033033D01*
X109971340Y-104136280D01*
X109971340Y-104486280D01*
X109991230Y-104591985D01*
X109983780Y-104609971D01*
X109983780Y-104665030D01*
X110009886Y-104691136D01*
X110015618Y-104721597D01*
X110139109Y-104913507D01*
X110022349Y-105084390D01*
X110013571Y-105127739D01*
X109983780Y-105157530D01*
X109983780Y-105212589D01*
X109992248Y-105233033D01*
X109971340Y-105336280D01*
X109971340Y-105686280D01*
X109991230Y-105791985D01*
X109983780Y-105809971D01*
X109983780Y-105865030D01*
X110009886Y-105891136D01*
X110015618Y-105921597D01*
X110139109Y-106113507D01*
X110022349Y-106284390D01*
X110013571Y-106327739D01*
X109983780Y-106357530D01*
X109983780Y-106412589D01*
X109992248Y-106433033D01*
X109971340Y-106536280D01*
X109971340Y-106886280D01*
X109995724Y-107015869D01*
X109971340Y-107136280D01*
X109971340Y-107486280D01*
X109995724Y-107615869D01*
X109971340Y-107736280D01*
X109971340Y-108086280D01*
X109995724Y-108215869D01*
X109971340Y-108336280D01*
X109971340Y-108686280D01*
X109995724Y-108815869D01*
X109971340Y-108936280D01*
X109971340Y-109286280D01*
X110015618Y-109521597D01*
X110154690Y-109737721D01*
X110366890Y-109882711D01*
X110618780Y-109933720D01*
X113118780Y-109933720D01*
X113354097Y-109889442D01*
X113570221Y-109750370D01*
X113715211Y-109538170D01*
X113766220Y-109286280D01*
X113766220Y-108936280D01*
X113741836Y-108806691D01*
X113766220Y-108686280D01*
X113766220Y-108336280D01*
X113741836Y-108206691D01*
X113766220Y-108086280D01*
X113766220Y-107736280D01*
X113741836Y-107606691D01*
X113766220Y-107486280D01*
X113766220Y-107136280D01*
X113741836Y-107006691D01*
X113766220Y-106886280D01*
X113766220Y-106536280D01*
X113746330Y-106430575D01*
X113753780Y-106412589D01*
X113753780Y-106357530D01*
X113727674Y-106331424D01*
X113721942Y-106300963D01*
X113714888Y-106290000D01*
X114447537Y-106290000D01*
X114479673Y-106322192D01*
X114823201Y-106464838D01*
X115195167Y-106465162D01*
X115538943Y-106323117D01*
X115802192Y-106060327D01*
X115944838Y-105716799D01*
X115945162Y-105344833D01*
X115828879Y-105063407D01*
X115962192Y-104930327D01*
X116040000Y-104742945D01*
X116040000Y-107007537D01*
X116007808Y-107039673D01*
X115865162Y-107383201D01*
X115864838Y-107755167D01*
X116006883Y-108098943D01*
X116269673Y-108362192D01*
X116613201Y-108504838D01*
X116985167Y-108505162D01*
X117328943Y-108363117D01*
X117592192Y-108100327D01*
X117734838Y-107756799D01*
X117735162Y-107384833D01*
X117678731Y-107248258D01*
X117815910Y-107461441D01*
X117970000Y-107566726D01*
X117970000Y-108870000D01*
X118027852Y-109160839D01*
X118192599Y-109407401D01*
X118861477Y-110076279D01*
X105043721Y-110076279D01*
X104752882Y-110134131D01*
X104506320Y-110298878D01*
X103437521Y-111367677D01*
X103407401Y-111322598D01*
X97177401Y-105092599D01*
X96930839Y-104927852D01*
X96640000Y-104870000D01*
X96546750Y-104870000D01*
X96433750Y-104757000D01*
X96243682Y-104757000D01*
X96209390Y-104733569D01*
X95957500Y-104682560D01*
X95035500Y-104682560D01*
X95035500Y-104577440D01*
X95957500Y-104577440D01*
X96192817Y-104533162D01*
X96239690Y-104503000D01*
X96433750Y-104503000D01*
X96592500Y-104344250D01*
X96592500Y-104203691D01*
X96563630Y-104133993D01*
X96604940Y-103930000D01*
X96604940Y-103330000D01*
X96560662Y-103094683D01*
X96421590Y-102878559D01*
X96209390Y-102733569D01*
X95957500Y-102682560D01*
X95942500Y-102682560D01*
X95942500Y-99109998D01*
X95901823Y-98905504D01*
X95884648Y-98819158D01*
X95719901Y-98572597D01*
X95464744Y-98317440D01*
X95957500Y-98317440D01*
X96192817Y-98273162D01*
X96408941Y-98134090D01*
X96411736Y-98130000D01*
X96595198Y-98130000D01*
X100444878Y-101979680D01*
X100444838Y-102025167D01*
X100586883Y-102368943D01*
X100849673Y-102632192D01*
X101193201Y-102774838D01*
X101565167Y-102775162D01*
X101908943Y-102633117D01*
X102172192Y-102370327D01*
X102314838Y-102026799D01*
X102315162Y-101654833D01*
X102173117Y-101311057D01*
X101910327Y-101047808D01*
X101566799Y-100905162D01*
X101519923Y-100905121D01*
X100921900Y-100307098D01*
X101133201Y-100394838D01*
X101505167Y-100395162D01*
X101848943Y-100253117D01*
X102112192Y-99990327D01*
X102254838Y-99646799D01*
X102255162Y-99274833D01*
X102113117Y-98931057D01*
X101850327Y-98667808D01*
X101506799Y-98525162D01*
X101459923Y-98525121D01*
X98767401Y-95832599D01*
X98520839Y-95667852D01*
X98230000Y-95610000D01*
X96546750Y-95610000D01*
X96433750Y-95497000D01*
X96243682Y-95497000D01*
X96209390Y-95473569D01*
X95957500Y-95422560D01*
X95035500Y-95422560D01*
X95035500Y-95317440D01*
X95957500Y-95317440D01*
X96192817Y-95273162D01*
X96239690Y-95243000D01*
X96433750Y-95243000D01*
X96592500Y-95084250D01*
X96592500Y-94943691D01*
X96563630Y-94873993D01*
X96604940Y-94670000D01*
X96604940Y-94070000D01*
X96560662Y-93834683D01*
X96421590Y-93618559D01*
X96209390Y-93473569D01*
X95957500Y-93422560D01*
X94972499Y-93422560D01*
X94972499Y-91357301D01*
X100504878Y-96889680D01*
X100504838Y-96935167D01*
X100646883Y-97278943D01*
X100909673Y-97542192D01*
X101253201Y-97684838D01*
X101625167Y-97685162D01*
X101968943Y-97543117D01*
X102232192Y-97280327D01*
X102374838Y-96936799D01*
X102375162Y-96564833D01*
X102233117Y-96221057D01*
X101970327Y-95957808D01*
X101626799Y-95815162D01*
X101579923Y-95815121D01*
X96072500Y-90307698D01*
X96072500Y-89087440D01*
X96087500Y-89087440D01*
X96322817Y-89043162D01*
X96538941Y-88904090D01*
X96683931Y-88691890D01*
X96705934Y-88583236D01*
X100710000Y-92587302D01*
X100710000Y-92917537D01*
X100677808Y-92949673D01*
X100535162Y-93293201D01*
X100534838Y-93665167D01*
X100676883Y-94008943D01*
X100939673Y-94272192D01*
X101283201Y-94414838D01*
X101655167Y-94415162D01*
X101998943Y-94273117D01*
X102262192Y-94010327D01*
X102404838Y-93666799D01*
X102405162Y-93294833D01*
X102263117Y-92951057D01*
X102230000Y-92917882D01*
X102230000Y-92272500D01*
X102172148Y-91981661D01*
X102007401Y-91735099D01*
X96874901Y-86602599D01*
X96722500Y-86500768D01*
X96722500Y-86425750D01*
X96563750Y-86267000D01*
X96373682Y-86267000D01*
X96339390Y-86243569D01*
X96087500Y-86192560D01*
X95165500Y-86192560D01*
X95165500Y-86087440D01*
X96087500Y-86087440D01*
X96322817Y-86043162D01*
X96369690Y-86013000D01*
X96563750Y-86013000D01*
X96631000Y-85945750D01*
X99815000Y-85945750D01*
X99815000Y-86161310D01*
X99911673Y-86394699D01*
X100090302Y-86573327D01*
X100323691Y-86670000D01*
X100564250Y-86670000D01*
X100723000Y-86511250D01*
X100723000Y-85787000D01*
X99973750Y-85787000D01*
X99815000Y-85945750D01*
X96631000Y-85945750D01*
X96722500Y-85854250D01*
X96722500Y-85713691D01*
X96693630Y-85643993D01*
X96734940Y-85440000D01*
X96734940Y-84840000D01*
X96690662Y-84604683D01*
X96566137Y-84411165D01*
X97088382Y-83888920D01*
X97173769Y-83974307D01*
X97145162Y-84043201D01*
X97144838Y-84415167D01*
X97286883Y-84758943D01*
X97549673Y-85022192D01*
X97893201Y-85164838D01*
X98265167Y-85165162D01*
X98280830Y-85158690D01*
X99815000Y-85158690D01*
X99815000Y-85374250D01*
X99973750Y-85533000D01*
X100723000Y-85533000D01*
X100723000Y-84808750D01*
X100564250Y-84650000D01*
X100323691Y-84650000D01*
X100090302Y-84746673D01*
X99911673Y-84925301D01*
X99815000Y-85158690D01*
X98280830Y-85158690D01*
X98608943Y-85023117D01*
X98872192Y-84760327D01*
X99014838Y-84416799D01*
X99015162Y-84044833D01*
X98873117Y-83701057D01*
X98805755Y-83633578D01*
X98782148Y-83514897D01*
X98617401Y-83268335D01*
X98409066Y-83060000D01*
X99174895Y-83060000D01*
X99265910Y-83201441D01*
X99265910Y-83201441D01*
G37*
X99265910Y-83201441D02*
X99478110Y-83346431D01*
X99730000Y-83397440D01*
X100930000Y-83397440D01*
X101165317Y-83353162D01*
X101381441Y-83214090D01*
X101429134Y-83144289D01*
X101465910Y-83201441D01*
X101678110Y-83346431D01*
X101770000Y-83365039D01*
X101770000Y-84671429D01*
X101714683Y-84681838D01*
X101611354Y-84748329D01*
X101609698Y-84746673D01*
X101376309Y-84650000D01*
X101135750Y-84650000D01*
X100977000Y-84808750D01*
X100977000Y-85533000D01*
X100997000Y-85533000D01*
X100997000Y-85787000D01*
X100977000Y-85787000D01*
X100977000Y-86511250D01*
X101135750Y-86670000D01*
X101376309Y-86670000D01*
X101609698Y-86573327D01*
X101611068Y-86571957D01*
X101698110Y-86631431D01*
X101950000Y-86682440D01*
X102695001Y-86682440D01*
X102695001Y-87372501D01*
X102752853Y-87663340D01*
X102917600Y-87909902D01*
X105931733Y-90924035D01*
X105883463Y-90933118D01*
X105667339Y-91072190D01*
X105522349Y-91284390D01*
X105471340Y-91536280D01*
X105471340Y-91886280D01*
X105495724Y-92015869D01*
X105471340Y-92136280D01*
X105471340Y-92486280D01*
X105495724Y-92615869D01*
X105471340Y-92736280D01*
X105471340Y-93030958D01*
X105463117Y-93011057D01*
X105200327Y-92747808D01*
X104856799Y-92605162D01*
X104484833Y-92604838D01*
X104141057Y-92746883D01*
X103877808Y-93009673D01*
X103735162Y-93353201D01*
X103734838Y-93725167D01*
X103876883Y-94068943D01*
X103910000Y-94102118D01*
X103910000Y-94112500D01*
X103967852Y-94403339D01*
X104132599Y-94649901D01*
X105306478Y-95823780D01*
X105256378Y-95873880D01*
X105091631Y-96120442D01*
X105033779Y-96411281D01*
X105033779Y-103036279D01*
X105091631Y-103327118D01*
X105256378Y-103573680D01*
X105331379Y-103648681D01*
X105471340Y-103742200D01*
X105471340Y-103886280D01*
X105495724Y-104015869D01*
X105471340Y-104136280D01*
X105471340Y-104486280D01*
X105495724Y-104615869D01*
X105471340Y-104736280D01*
X105471340Y-105086280D01*
X105495724Y-105215869D01*
X105471340Y-105336280D01*
X105471340Y-105686280D01*
X105495724Y-105815869D01*
X105471340Y-105936280D01*
X105471340Y-106286280D01*
X105491230Y-106391985D01*
X105483780Y-106409971D01*
X105483780Y-106465030D01*
X105509886Y-106491136D01*
X105515618Y-106521597D01*
X105640839Y-106716196D01*
X105580453Y-106776582D01*
X105520861Y-106920449D01*
X105483780Y-106957530D01*
X105483780Y-107065030D01*
X105520861Y-107102111D01*
X105580453Y-107245978D01*
X105645755Y-107311280D01*
X105580453Y-107376582D01*
X105520861Y-107520449D01*
X105483780Y-107557530D01*
X105483780Y-107665030D01*
X105520861Y-107702111D01*
X105580453Y-107845978D01*
X105645755Y-107911280D01*
X105580453Y-107976582D01*
X105520861Y-108120449D01*
X105483780Y-108157530D01*
X105483780Y-108265030D01*
X105520861Y-108302111D01*
X105580453Y-108445978D01*
X105645755Y-108511280D01*
X105580453Y-108576582D01*
X105520861Y-108720449D01*
X105483780Y-108757530D01*
X105483780Y-108865030D01*
X105520861Y-108902111D01*
X105580453Y-109045978D01*
X105733254Y-109198780D01*
X105642530Y-109198780D01*
X105483780Y-109357530D01*
X105483780Y-109412589D01*
X105580453Y-109645978D01*
X105759081Y-109824607D01*
X105992470Y-109921280D01*
X107083030Y-109921280D01*
X107241780Y-109762530D01*
X107241780Y-109198780D01*
X107205530Y-109198780D01*
X107241780Y-109162530D01*
X107241780Y-107164280D01*
X107495780Y-107164280D01*
X107495780Y-109162530D01*
X107532030Y-109198780D01*
X107495780Y-109198780D01*
X107495780Y-109762530D01*
X107654530Y-109921280D01*
X108745090Y-109921280D01*
X108978479Y-109824607D01*
X109157107Y-109645978D01*
X109253780Y-109412589D01*
X109253780Y-109357530D01*
X109095030Y-109198780D01*
X109004306Y-109198780D01*
X109157107Y-109045978D01*
X109216699Y-108902111D01*
X109253780Y-108865030D01*
X109253780Y-108757530D01*
X109216699Y-108720449D01*
X109157107Y-108576582D01*
X109091805Y-108511280D01*
X109157107Y-108445978D01*
X109216699Y-108302111D01*
X109253780Y-108265030D01*
X109253780Y-108157530D01*
X109216699Y-108120449D01*
X109157107Y-107976582D01*
X109091805Y-107911280D01*
X109157107Y-107845978D01*
X109216699Y-107702111D01*
X109253780Y-107665030D01*
X109253780Y-107557530D01*
X109216699Y-107520449D01*
X109157107Y-107376582D01*
X109091805Y-107311280D01*
X109157107Y-107245978D01*
X109216699Y-107102111D01*
X109253780Y-107065030D01*
X109253780Y-106957530D01*
X109216699Y-106920449D01*
X109157107Y-106776582D01*
X109094850Y-106714324D01*
X109215211Y-106538170D01*
X109223989Y-106494821D01*
X109253780Y-106465030D01*
X109253780Y-106409971D01*
X109245312Y-106389527D01*
X109266220Y-106286280D01*
X109266220Y-105936280D01*
X109241836Y-105806691D01*
X109266220Y-105686280D01*
X109266220Y-105336280D01*
X109241836Y-105206691D01*
X109266220Y-105086280D01*
X109266220Y-104736280D01*
X109241836Y-104606691D01*
X109266220Y-104486280D01*
X109266220Y-104136280D01*
X109241836Y-104006691D01*
X109266220Y-103886280D01*
X109266220Y-103536280D01*
X109241836Y-103406691D01*
X109266220Y-103286280D01*
X109266220Y-102936280D01*
X109241836Y-102806691D01*
X109266220Y-102686280D01*
X109266220Y-102336280D01*
X109241836Y-102206691D01*
X109266220Y-102086280D01*
X109266220Y-101736280D01*
X109241836Y-101606691D01*
X109266220Y-101486280D01*
X109266220Y-101136280D01*
X109246330Y-101030575D01*
X109253780Y-101012589D01*
X109253780Y-100957530D01*
X109227674Y-100931424D01*
X109221942Y-100900963D01*
X109096721Y-100706364D01*
X109157107Y-100645978D01*
X109216699Y-100502111D01*
X109253780Y-100465030D01*
X109253780Y-100357530D01*
X109216699Y-100320449D01*
X109157107Y-100176582D01*
X109091805Y-100111280D01*
X109157107Y-100045978D01*
X109216699Y-99902111D01*
X109253780Y-99865030D01*
X109253780Y-99757530D01*
X109216699Y-99720449D01*
X109157107Y-99576582D01*
X109091805Y-99511280D01*
X109157107Y-99445978D01*
X109216699Y-99302111D01*
X109253780Y-99265030D01*
X109253780Y-99157530D01*
X109216699Y-99120449D01*
X109157107Y-98976582D01*
X109091805Y-98911280D01*
X109157107Y-98845978D01*
X109216699Y-98702111D01*
X109253780Y-98665030D01*
X109253780Y-98557530D01*
X109216699Y-98520449D01*
X109157107Y-98376582D01*
X109091805Y-98311280D01*
X109157107Y-98245978D01*
X109216699Y-98102111D01*
X109253780Y-98065030D01*
X109253780Y-97957530D01*
X109216699Y-97920449D01*
X109157107Y-97776582D01*
X109094850Y-97714324D01*
X109215211Y-97538170D01*
X109223989Y-97494821D01*
X109253780Y-97465030D01*
X109253780Y-97409971D01*
X109245312Y-97389527D01*
X109266220Y-97286280D01*
X109266220Y-96936280D01*
X109241836Y-96806691D01*
X109266220Y-96686280D01*
X109266220Y-96336280D01*
X109241836Y-96206691D01*
X109266220Y-96086280D01*
X109266220Y-95736280D01*
X109241836Y-95606691D01*
X109266220Y-95486280D01*
X109266220Y-95136280D01*
X109241836Y-95006691D01*
X109266220Y-94886280D01*
X109266220Y-94536280D01*
X109241836Y-94406691D01*
X109266220Y-94286280D01*
X109266220Y-93936280D01*
X109241836Y-93806691D01*
X109266220Y-93686280D01*
X109266220Y-93336280D01*
X109241836Y-93206691D01*
X109266220Y-93086280D01*
X109266220Y-92942200D01*
X109406181Y-92848681D01*
X109533779Y-92721083D01*
X109533779Y-93436279D01*
X109591631Y-93727118D01*
X109756378Y-93973680D01*
X109831379Y-94048681D01*
X109971340Y-94142200D01*
X109971340Y-94286280D01*
X109995724Y-94415869D01*
X109971340Y-94536280D01*
X109971340Y-94886280D01*
X109995724Y-95015869D01*
X109971340Y-95136280D01*
X109971340Y-95486280D01*
X109995724Y-95615869D01*
X109971340Y-95736280D01*
X109971340Y-96086280D01*
X109995724Y-96215869D01*
X109971340Y-96336280D01*
X109971340Y-96686280D01*
X109995724Y-96815869D01*
X109971340Y-96936280D01*
X109971340Y-97286280D01*
X109995724Y-97415869D01*
X109971340Y-97536280D01*
X109971340Y-97886280D01*
X109995724Y-98015869D01*
X109971340Y-98136280D01*
X109971340Y-98486280D01*
X109995724Y-98615869D01*
X109971340Y-98736280D01*
X109971340Y-99086280D01*
X109995724Y-99215869D01*
X109971340Y-99336280D01*
X109971340Y-99686280D01*
X109995724Y-99815869D01*
X109971340Y-99936280D01*
X109971340Y-100286280D01*
X109995724Y-100415869D01*
X109971340Y-100536280D01*
X109971340Y-100886280D01*
X109995724Y-101015869D01*
X109971340Y-101136280D01*
X109971340Y-101486280D01*
X109995724Y-101615869D01*
X109971340Y-101736280D01*
X109971340Y-102086280D01*
X109995724Y-102215869D01*
X109971340Y-102336280D01*
X109971340Y-102686280D01*
X109991230Y-102791985D01*
X109983780Y-102809971D01*
X109983780Y-102865030D01*
X110009886Y-102891136D01*
X110015618Y-102921597D01*
X110140839Y-103116196D01*
X110080453Y-103176582D01*
X110020861Y-103320449D01*
X109983780Y-103357530D01*
X109983780Y-103465030D01*
X110020861Y-103502111D01*
X110080453Y-103645978D01*
X110142710Y-103708236D01*
X110022349Y-103884390D01*
X110013571Y-103927739D01*
X109983780Y-103957530D01*
X109983780Y-104012589D01*
X109992248Y-104033033D01*
X109971340Y-104136280D01*
X109971340Y-104486280D01*
X109991230Y-104591985D01*
X109983780Y-104609971D01*
X109983780Y-104665030D01*
X110009886Y-104691136D01*
X110015618Y-104721597D01*
X110139109Y-104913507D01*
X110022349Y-105084390D01*
X110013571Y-105127739D01*
X109983780Y-105157530D01*
X109983780Y-105212589D01*
X109992248Y-105233033D01*
X109971340Y-105336280D01*
X109971340Y-105686280D01*
X109991230Y-105791985D01*
X109983780Y-105809971D01*
X109983780Y-105865030D01*
X110009886Y-105891136D01*
X110015618Y-105921597D01*
X110139109Y-106113507D01*
X110022349Y-106284390D01*
X110013571Y-106327739D01*
X109983780Y-106357530D01*
X109983780Y-106412589D01*
X109992248Y-106433033D01*
X109971340Y-106536280D01*
X109971340Y-106886280D01*
X109995724Y-107015869D01*
X109971340Y-107136280D01*
X109971340Y-107486280D01*
X109995724Y-107615869D01*
X109971340Y-107736280D01*
X109971340Y-108086280D01*
X109995724Y-108215869D01*
X109971340Y-108336280D01*
X109971340Y-108686280D01*
X109995724Y-108815869D01*
X109971340Y-108936280D01*
X109971340Y-109286280D01*
X110015618Y-109521597D01*
X110154690Y-109737721D01*
X110366890Y-109882711D01*
X110618780Y-109933720D01*
X113118780Y-109933720D01*
X113354097Y-109889442D01*
X113570221Y-109750370D01*
X113715211Y-109538170D01*
X113766220Y-109286280D01*
X113766220Y-108936280D01*
X113741836Y-108806691D01*
X113766220Y-108686280D01*
X113766220Y-108336280D01*
X113741836Y-108206691D01*
X113766220Y-108086280D01*
X113766220Y-107736280D01*
X113741836Y-107606691D01*
X113766220Y-107486280D01*
X113766220Y-107136280D01*
X113741836Y-107006691D01*
X113766220Y-106886280D01*
X113766220Y-106536280D01*
X113746330Y-106430575D01*
X113753780Y-106412589D01*
X113753780Y-106357530D01*
X113727674Y-106331424D01*
X113721942Y-106300963D01*
X113714888Y-106290000D01*
X114447537Y-106290000D01*
X114479673Y-106322192D01*
X114823201Y-106464838D01*
X115195167Y-106465162D01*
X115538943Y-106323117D01*
X115802192Y-106060327D01*
X115944838Y-105716799D01*
X115945162Y-105344833D01*
X115828879Y-105063407D01*
X115962192Y-104930327D01*
X116040000Y-104742945D01*
X116040000Y-107007537D01*
X116007808Y-107039673D01*
X115865162Y-107383201D01*
X115864838Y-107755167D01*
X116006883Y-108098943D01*
X116269673Y-108362192D01*
X116613201Y-108504838D01*
X116985167Y-108505162D01*
X117328943Y-108363117D01*
X117592192Y-108100327D01*
X117734838Y-107756799D01*
X117735162Y-107384833D01*
X117678731Y-107248258D01*
X117815910Y-107461441D01*
X117970000Y-107566726D01*
X117970000Y-108870000D01*
X118027852Y-109160839D01*
X118192599Y-109407401D01*
X118861477Y-110076279D01*
X105043721Y-110076279D01*
X104752882Y-110134131D01*
X104506320Y-110298878D01*
X103437521Y-111367677D01*
X103407401Y-111322598D01*
X97177401Y-105092599D01*
X96930839Y-104927852D01*
X96640000Y-104870000D01*
X96546750Y-104870000D01*
X96433750Y-104757000D01*
X96243682Y-104757000D01*
X96209390Y-104733569D01*
X95957500Y-104682560D01*
X95035500Y-104682560D01*
X95035500Y-104577440D01*
X95957500Y-104577440D01*
X96192817Y-104533162D01*
X96239690Y-104503000D01*
X96433750Y-104503000D01*
X96592500Y-104344250D01*
X96592500Y-104203691D01*
X96563630Y-104133993D01*
X96604940Y-103930000D01*
X96604940Y-103330000D01*
X96560662Y-103094683D01*
X96421590Y-102878559D01*
X96209390Y-102733569D01*
X95957500Y-102682560D01*
X95942500Y-102682560D01*
X95942500Y-99109998D01*
X95901823Y-98905504D01*
X95884648Y-98819158D01*
X95719901Y-98572597D01*
X95464744Y-98317440D01*
X95957500Y-98317440D01*
X96192817Y-98273162D01*
X96408941Y-98134090D01*
X96411736Y-98130000D01*
X96595198Y-98130000D01*
X100444878Y-101979680D01*
X100444838Y-102025167D01*
X100586883Y-102368943D01*
X100849673Y-102632192D01*
X101193201Y-102774838D01*
X101565167Y-102775162D01*
X101908943Y-102633117D01*
X102172192Y-102370327D01*
X102314838Y-102026799D01*
X102315162Y-101654833D01*
X102173117Y-101311057D01*
X101910327Y-101047808D01*
X101566799Y-100905162D01*
X101519923Y-100905121D01*
X100921900Y-100307098D01*
X101133201Y-100394838D01*
X101505167Y-100395162D01*
X101848943Y-100253117D01*
X102112192Y-99990327D01*
X102254838Y-99646799D01*
X102255162Y-99274833D01*
X102113117Y-98931057D01*
X101850327Y-98667808D01*
X101506799Y-98525162D01*
X101459923Y-98525121D01*
X98767401Y-95832599D01*
X98520839Y-95667852D01*
X98230000Y-95610000D01*
X96546750Y-95610000D01*
X96433750Y-95497000D01*
X96243682Y-95497000D01*
X96209390Y-95473569D01*
X95957500Y-95422560D01*
X95035500Y-95422560D01*
X95035500Y-95317440D01*
X95957500Y-95317440D01*
X96192817Y-95273162D01*
X96239690Y-95243000D01*
X96433750Y-95243000D01*
X96592500Y-95084250D01*
X96592500Y-94943691D01*
X96563630Y-94873993D01*
X96604940Y-94670000D01*
X96604940Y-94070000D01*
X96560662Y-93834683D01*
X96421590Y-93618559D01*
X96209390Y-93473569D01*
X95957500Y-93422560D01*
X94972499Y-93422560D01*
X94972499Y-91357301D01*
X100504878Y-96889680D01*
X100504838Y-96935167D01*
X100646883Y-97278943D01*
X100909673Y-97542192D01*
X101253201Y-97684838D01*
X101625167Y-97685162D01*
X101968943Y-97543117D01*
X102232192Y-97280327D01*
X102374838Y-96936799D01*
X102375162Y-96564833D01*
X102233117Y-96221057D01*
X101970327Y-95957808D01*
X101626799Y-95815162D01*
X101579923Y-95815121D01*
X96072500Y-90307698D01*
X96072500Y-89087440D01*
X96087500Y-89087440D01*
X96322817Y-89043162D01*
X96538941Y-88904090D01*
X96683931Y-88691890D01*
X96705934Y-88583236D01*
X100710000Y-92587302D01*
X100710000Y-92917537D01*
X100677808Y-92949673D01*
X100535162Y-93293201D01*
X100534838Y-93665167D01*
X100676883Y-94008943D01*
X100939673Y-94272192D01*
X101283201Y-94414838D01*
X101655167Y-94415162D01*
X101998943Y-94273117D01*
X102262192Y-94010327D01*
X102404838Y-93666799D01*
X102405162Y-93294833D01*
X102263117Y-92951057D01*
X102230000Y-92917882D01*
X102230000Y-92272500D01*
X102172148Y-91981661D01*
X102007401Y-91735099D01*
X96874901Y-86602599D01*
X96722500Y-86500768D01*
X96722500Y-86425750D01*
X96563750Y-86267000D01*
X96373682Y-86267000D01*
X96339390Y-86243569D01*
X96087500Y-86192560D01*
X95165500Y-86192560D01*
X95165500Y-86087440D01*
X96087500Y-86087440D01*
X96322817Y-86043162D01*
X96369690Y-86013000D01*
X96563750Y-86013000D01*
X96631000Y-85945750D01*
X99815000Y-85945750D01*
X99815000Y-86161310D01*
X99911673Y-86394699D01*
X100090302Y-86573327D01*
X100323691Y-86670000D01*
X100564250Y-86670000D01*
X100723000Y-86511250D01*
X100723000Y-85787000D01*
X99973750Y-85787000D01*
X99815000Y-85945750D01*
X96631000Y-85945750D01*
X96722500Y-85854250D01*
X96722500Y-85713691D01*
X96693630Y-85643993D01*
X96734940Y-85440000D01*
X96734940Y-84840000D01*
X96690662Y-84604683D01*
X96566137Y-84411165D01*
X97088382Y-83888920D01*
X97173769Y-83974307D01*
X97145162Y-84043201D01*
X97144838Y-84415167D01*
X97286883Y-84758943D01*
X97549673Y-85022192D01*
X97893201Y-85164838D01*
X98265167Y-85165162D01*
X98280830Y-85158690D01*
X99815000Y-85158690D01*
X99815000Y-85374250D01*
X99973750Y-85533000D01*
X100723000Y-85533000D01*
X100723000Y-84808750D01*
X100564250Y-84650000D01*
X100323691Y-84650000D01*
X100090302Y-84746673D01*
X99911673Y-84925301D01*
X99815000Y-85158690D01*
X98280830Y-85158690D01*
X98608943Y-85023117D01*
X98872192Y-84760327D01*
X99014838Y-84416799D01*
X99015162Y-84044833D01*
X98873117Y-83701057D01*
X98805755Y-83633578D01*
X98782148Y-83514897D01*
X98617401Y-83268335D01*
X98409066Y-83060000D01*
X99174895Y-83060000D01*
X99265910Y-83201441D01*
G36*
X121689161Y-104892148D02*
X121980000Y-104950000D01*
X123600194Y-104950000D01*
X121852599Y-106697595D01*
X121687852Y-106944157D01*
X121630000Y-107234996D01*
X121630000Y-109570000D01*
X121613690Y-109570000D01*
X121380301Y-109666673D01*
X121378932Y-109668042D01*
X121291890Y-109608569D01*
X121170170Y-109583920D01*
X121156250Y-109570000D01*
X121113690Y-109570000D01*
X121109665Y-109571667D01*
X121040000Y-109557560D01*
X120740000Y-109557560D01*
X120531579Y-109596777D01*
X119490000Y-108555198D01*
X119490000Y-107565105D01*
X119631441Y-107474090D01*
X119776431Y-107261890D01*
X119827440Y-107010000D01*
X119827440Y-106645666D01*
X119956883Y-106958943D01*
X120219673Y-107222192D01*
X120563201Y-107364838D01*
X120935167Y-107365162D01*
X121278943Y-107223117D01*
X121542192Y-106960327D01*
X121684838Y-106616799D01*
X121685162Y-106244833D01*
X121543117Y-105901057D01*
X121510000Y-105867882D01*
X121510000Y-104772437D01*
X121689161Y-104892148D01*
X121689161Y-104892148D01*
G37*
X121689161Y-104892148D02*
X121980000Y-104950000D01*
X123600194Y-104950000D01*
X121852599Y-106697595D01*
X121687852Y-106944157D01*
X121630000Y-107234996D01*
X121630000Y-109570000D01*
X121613690Y-109570000D01*
X121380301Y-109666673D01*
X121378932Y-109668042D01*
X121291890Y-109608569D01*
X121170170Y-109583920D01*
X121156250Y-109570000D01*
X121113690Y-109570000D01*
X121109665Y-109571667D01*
X121040000Y-109557560D01*
X120740000Y-109557560D01*
X120531579Y-109596777D01*
X119490000Y-108555198D01*
X119490000Y-107565105D01*
X119631441Y-107474090D01*
X119776431Y-107261890D01*
X119827440Y-107010000D01*
X119827440Y-106645666D01*
X119956883Y-106958943D01*
X120219673Y-107222192D01*
X120563201Y-107364838D01*
X120935167Y-107365162D01*
X121278943Y-107223117D01*
X121542192Y-106960327D01*
X121684838Y-106616799D01*
X121685162Y-106244833D01*
X121543117Y-105901057D01*
X121510000Y-105867882D01*
X121510000Y-104772437D01*
X121689161Y-104892148D01*
G36*
X116040000Y-102657302D02*
X116040000Y-104057129D01*
X115963117Y-103871057D01*
X115700327Y-103607808D01*
X115356799Y-103465162D01*
X114984833Y-103464838D01*
X114641057Y-103606883D01*
X114607882Y-103640000D01*
X113753780Y-103640000D01*
X113753780Y-103584278D01*
X113682664Y-103584278D01*
X113716699Y-103502111D01*
X113753780Y-103465030D01*
X113753780Y-103357530D01*
X113716699Y-103320449D01*
X113657107Y-103176582D01*
X113594850Y-103114324D01*
X113715211Y-102938170D01*
X113723989Y-102894821D01*
X113753780Y-102865030D01*
X113753780Y-102809971D01*
X113745312Y-102789527D01*
X113766220Y-102686280D01*
X113766220Y-102336280D01*
X113741836Y-102206691D01*
X113766220Y-102086280D01*
X113766220Y-101736280D01*
X113741836Y-101606691D01*
X113766220Y-101486280D01*
X113766220Y-101136280D01*
X113741836Y-101006691D01*
X113766220Y-100886280D01*
X113766220Y-100536280D01*
X113741836Y-100406691D01*
X113749844Y-100367146D01*
X116040000Y-102657302D01*
X116040000Y-102657302D01*
G37*
X116040000Y-102657302D02*
X116040000Y-104057129D01*
X115963117Y-103871057D01*
X115700327Y-103607808D01*
X115356799Y-103465162D01*
X114984833Y-103464838D01*
X114641057Y-103606883D01*
X114607882Y-103640000D01*
X113753780Y-103640000D01*
X113753780Y-103584278D01*
X113682664Y-103584278D01*
X113716699Y-103502111D01*
X113753780Y-103465030D01*
X113753780Y-103357530D01*
X113716699Y-103320449D01*
X113657107Y-103176582D01*
X113594850Y-103114324D01*
X113715211Y-102938170D01*
X113723989Y-102894821D01*
X113753780Y-102865030D01*
X113753780Y-102809971D01*
X113745312Y-102789527D01*
X113766220Y-102686280D01*
X113766220Y-102336280D01*
X113741836Y-102206691D01*
X113766220Y-102086280D01*
X113766220Y-101736280D01*
X113741836Y-101606691D01*
X113766220Y-101486280D01*
X113766220Y-101136280D01*
X113741836Y-101006691D01*
X113766220Y-100886280D01*
X113766220Y-100536280D01*
X113741836Y-100406691D01*
X113749844Y-100367146D01*
X116040000Y-102657302D01*
G36*
X136613201Y-101854838D02*
X136985167Y-101855162D01*
X137137560Y-101792195D01*
X137137560Y-101970000D01*
X137181838Y-102205317D01*
X137320910Y-102421441D01*
X137400000Y-102475481D01*
X137400000Y-102860202D01*
X137165200Y-103095002D01*
X137103564Y-103095002D01*
X136101588Y-102093026D01*
X136240485Y-101993204D01*
X136385005Y-101760082D01*
X136613201Y-101854838D01*
X136613201Y-101854838D01*
G37*
X136613201Y-101854838D02*
X136985167Y-101855162D01*
X137137560Y-101792195D01*
X137137560Y-101970000D01*
X137181838Y-102205317D01*
X137320910Y-102421441D01*
X137400000Y-102475481D01*
X137400000Y-102860202D01*
X137165200Y-103095002D01*
X137103564Y-103095002D01*
X136101588Y-102093026D01*
X136240485Y-101993204D01*
X136385005Y-101760082D01*
X136613201Y-101854838D01*
G36*
X128737599Y-99242403D02*
X128984161Y-99407150D01*
X129275000Y-99465002D01*
X129864908Y-99465002D01*
X129864838Y-99545167D01*
X130006883Y-99888943D01*
X130269673Y-100152192D01*
X130487200Y-100242518D01*
X129700000Y-101029718D01*
X129700000Y-100972998D01*
X129541252Y-100972998D01*
X129700000Y-100814250D01*
X129700000Y-100573691D01*
X129603327Y-100340302D01*
X129424699Y-100161673D01*
X129191310Y-100065000D01*
X128975750Y-100065000D01*
X128817000Y-100223750D01*
X128817000Y-100973000D01*
X128837000Y-100973000D01*
X128837000Y-101227000D01*
X128817000Y-101227000D01*
X128817000Y-101247000D01*
X128563000Y-101247000D01*
X128563000Y-101227000D01*
X127838750Y-101227000D01*
X127680000Y-101385750D01*
X127680000Y-101626309D01*
X127768514Y-101840000D01*
X127154957Y-101840000D01*
X127155162Y-101604833D01*
X127013117Y-101261057D01*
X126750327Y-100997808D01*
X126406799Y-100855162D01*
X126359923Y-100855121D01*
X126174802Y-100670000D01*
X127344990Y-100670000D01*
X127635829Y-100612148D01*
X127680000Y-100582634D01*
X127680000Y-100814250D01*
X127838750Y-100973000D01*
X128563000Y-100973000D01*
X128563000Y-100223750D01*
X128458114Y-100118864D01*
X128600384Y-99776243D01*
X128600708Y-99404277D01*
X128458663Y-99060501D01*
X128195873Y-98797252D01*
X127852345Y-98654606D01*
X127480379Y-98654282D01*
X127136603Y-98796327D01*
X126873354Y-99059117D01*
X126835616Y-99150000D01*
X126064215Y-99150000D01*
X126082440Y-99060000D01*
X126082440Y-98760000D01*
X126062933Y-98656329D01*
X126082440Y-98560000D01*
X126082440Y-98260000D01*
X126062933Y-98156329D01*
X126082440Y-98060000D01*
X126082440Y-97760000D01*
X126069020Y-97688677D01*
X126070000Y-97686310D01*
X126070000Y-97643750D01*
X126058379Y-97632129D01*
X126038162Y-97524683D01*
X125914204Y-97332046D01*
X126070000Y-97176250D01*
X126070000Y-97133690D01*
X125973327Y-96900301D01*
X125794698Y-96721673D01*
X125561309Y-96625000D01*
X125295750Y-96625000D01*
X125137002Y-96783748D01*
X125137002Y-96625000D01*
X125107440Y-96625000D01*
X125107440Y-96285000D01*
X125063162Y-96049683D01*
X124924090Y-95833559D01*
X124711890Y-95688569D01*
X124684853Y-95683094D01*
X124724838Y-95586799D01*
X124724883Y-95534999D01*
X125030195Y-95534999D01*
X128737599Y-99242403D01*
X128737599Y-99242403D01*
G37*
X128737599Y-99242403D02*
X128984161Y-99407150D01*
X129275000Y-99465002D01*
X129864908Y-99465002D01*
X129864838Y-99545167D01*
X130006883Y-99888943D01*
X130269673Y-100152192D01*
X130487200Y-100242518D01*
X129700000Y-101029718D01*
X129700000Y-100972998D01*
X129541252Y-100972998D01*
X129700000Y-100814250D01*
X129700000Y-100573691D01*
X129603327Y-100340302D01*
X129424699Y-100161673D01*
X129191310Y-100065000D01*
X128975750Y-100065000D01*
X128817000Y-100223750D01*
X128817000Y-100973000D01*
X128837000Y-100973000D01*
X128837000Y-101227000D01*
X128817000Y-101227000D01*
X128817000Y-101247000D01*
X128563000Y-101247000D01*
X128563000Y-101227000D01*
X127838750Y-101227000D01*
X127680000Y-101385750D01*
X127680000Y-101626309D01*
X127768514Y-101840000D01*
X127154957Y-101840000D01*
X127155162Y-101604833D01*
X127013117Y-101261057D01*
X126750327Y-100997808D01*
X126406799Y-100855162D01*
X126359923Y-100855121D01*
X126174802Y-100670000D01*
X127344990Y-100670000D01*
X127635829Y-100612148D01*
X127680000Y-100582634D01*
X127680000Y-100814250D01*
X127838750Y-100973000D01*
X128563000Y-100973000D01*
X128563000Y-100223750D01*
X128458114Y-100118864D01*
X128600384Y-99776243D01*
X128600708Y-99404277D01*
X128458663Y-99060501D01*
X128195873Y-98797252D01*
X127852345Y-98654606D01*
X127480379Y-98654282D01*
X127136603Y-98796327D01*
X126873354Y-99059117D01*
X126835616Y-99150000D01*
X126064215Y-99150000D01*
X126082440Y-99060000D01*
X126082440Y-98760000D01*
X126062933Y-98656329D01*
X126082440Y-98560000D01*
X126082440Y-98260000D01*
X126062933Y-98156329D01*
X126082440Y-98060000D01*
X126082440Y-97760000D01*
X126069020Y-97688677D01*
X126070000Y-97686310D01*
X126070000Y-97643750D01*
X126058379Y-97632129D01*
X126038162Y-97524683D01*
X125914204Y-97332046D01*
X126070000Y-97176250D01*
X126070000Y-97133690D01*
X125973327Y-96900301D01*
X125794698Y-96721673D01*
X125561309Y-96625000D01*
X125295750Y-96625000D01*
X125137002Y-96783748D01*
X125137002Y-96625000D01*
X125107440Y-96625000D01*
X125107440Y-96285000D01*
X125063162Y-96049683D01*
X124924090Y-95833559D01*
X124711890Y-95688569D01*
X124684853Y-95683094D01*
X124724838Y-95586799D01*
X124724883Y-95534999D01*
X125030195Y-95534999D01*
X128737599Y-99242403D01*
G36*
X107495780Y-100258280D02*
X107241780Y-100258280D01*
X107241780Y-98164280D01*
X107495780Y-98164280D01*
X107495780Y-100258280D01*
X107495780Y-100258280D01*
G37*
X107495780Y-100258280D02*
X107241780Y-100258280D01*
X107241780Y-98164280D01*
X107495780Y-98164280D01*
X107495780Y-100258280D01*
G36*
X137400000Y-98629798D02*
X137400000Y-99163156D01*
X137333559Y-99205910D01*
X137188569Y-99418110D01*
X137137560Y-99670000D01*
X137137560Y-100047764D01*
X136986799Y-99985162D01*
X136614833Y-99984838D01*
X136439680Y-100057210D01*
X136461427Y-99947880D01*
X136401672Y-99647474D01*
X136231506Y-99392801D01*
X136191640Y-99366164D01*
X136191640Y-98518158D01*
X136724800Y-97984998D01*
X136755200Y-97984998D01*
X137400000Y-98629798D01*
X137400000Y-98629798D01*
G37*
X137400000Y-98629798D02*
X137400000Y-99163156D01*
X137333559Y-99205910D01*
X137188569Y-99418110D01*
X137137560Y-99670000D01*
X137137560Y-100047764D01*
X136986799Y-99985162D01*
X136614833Y-99984838D01*
X136439680Y-100057210D01*
X136461427Y-99947880D01*
X136401672Y-99647474D01*
X136231506Y-99392801D01*
X136191640Y-99366164D01*
X136191640Y-98518158D01*
X136724800Y-97984998D01*
X136755200Y-97984998D01*
X137400000Y-98629798D01*
G36*
X118609673Y-97502192D02*
X118953201Y-97644838D01*
X119325167Y-97645162D01*
X119668943Y-97503117D01*
X119702118Y-97470000D01*
X120050000Y-97470000D01*
X120050000Y-97537002D01*
X120082718Y-97537002D01*
X120063920Y-97629830D01*
X120050000Y-97643750D01*
X120050000Y-97686310D01*
X120051667Y-97690335D01*
X120037560Y-97760000D01*
X120037560Y-98060000D01*
X120057067Y-98163671D01*
X120037560Y-98260000D01*
X120037560Y-98560000D01*
X120057067Y-98663671D01*
X120037560Y-98760000D01*
X120037560Y-98882758D01*
X119875122Y-98720320D01*
X119875162Y-98674833D01*
X119733117Y-98331057D01*
X119470327Y-98067808D01*
X119126799Y-97925162D01*
X118754833Y-97924838D01*
X118411057Y-98066883D01*
X118391354Y-98086552D01*
X118177440Y-97872638D01*
X118177440Y-97527362D01*
X118234802Y-97470000D01*
X118577537Y-97470000D01*
X118609673Y-97502192D01*
X118609673Y-97502192D01*
G37*
X118609673Y-97502192D02*
X118953201Y-97644838D01*
X119325167Y-97645162D01*
X119668943Y-97503117D01*
X119702118Y-97470000D01*
X120050000Y-97470000D01*
X120050000Y-97537002D01*
X120082718Y-97537002D01*
X120063920Y-97629830D01*
X120050000Y-97643750D01*
X120050000Y-97686310D01*
X120051667Y-97690335D01*
X120037560Y-97760000D01*
X120037560Y-98060000D01*
X120057067Y-98163671D01*
X120037560Y-98260000D01*
X120037560Y-98560000D01*
X120057067Y-98663671D01*
X120037560Y-98760000D01*
X120037560Y-98882758D01*
X119875122Y-98720320D01*
X119875162Y-98674833D01*
X119733117Y-98331057D01*
X119470327Y-98067808D01*
X119126799Y-97925162D01*
X118754833Y-97924838D01*
X118411057Y-98066883D01*
X118391354Y-98086552D01*
X118177440Y-97872638D01*
X118177440Y-97527362D01*
X118234802Y-97470000D01*
X118577537Y-97470000D01*
X118609673Y-97502192D01*
G36*
X132282793Y-88383201D02*
X132282469Y-88755167D01*
X132424514Y-89098943D01*
X132442596Y-89117057D01*
X132382643Y-89128338D01*
X132279314Y-89194829D01*
X132277658Y-89193173D01*
X132044269Y-89096500D01*
X131803710Y-89096500D01*
X131644960Y-89255250D01*
X131644960Y-89979500D01*
X131664960Y-89979500D01*
X131664960Y-90233500D01*
X131644960Y-90233500D01*
X131644960Y-90957750D01*
X131803710Y-91116500D01*
X132044269Y-91116500D01*
X132277658Y-91019827D01*
X132279028Y-91018457D01*
X132366070Y-91077931D01*
X132617960Y-91128940D01*
X133417960Y-91128940D01*
X133653277Y-91084662D01*
X133869401Y-90945590D01*
X134014391Y-90733390D01*
X134065400Y-90481500D01*
X134065400Y-90158862D01*
X134380042Y-89844220D01*
X134544789Y-89597658D01*
X134602641Y-89306819D01*
X134602641Y-89094023D01*
X135632898Y-90124280D01*
X129949618Y-95807560D01*
X129860000Y-95807560D01*
X129624683Y-95851838D01*
X129521354Y-95918329D01*
X129519698Y-95916673D01*
X129286309Y-95820000D01*
X129045750Y-95820000D01*
X128887000Y-95978750D01*
X128887000Y-96703000D01*
X128907000Y-96703000D01*
X128907000Y-96957000D01*
X128887000Y-96957000D01*
X128887000Y-96977000D01*
X128633000Y-96977000D01*
X128633000Y-96957000D01*
X128613000Y-96957000D01*
X128613000Y-96703000D01*
X128633000Y-96703000D01*
X128633000Y-95978750D01*
X128474250Y-95820000D01*
X128233691Y-95820000D01*
X128000302Y-95916673D01*
X127821673Y-96095301D01*
X127797781Y-96152981D01*
X125882398Y-94237598D01*
X125635836Y-94072851D01*
X125344997Y-94014999D01*
X125014803Y-94014999D01*
X126337362Y-92692440D01*
X126710000Y-92692440D01*
X126945317Y-92648162D01*
X127048646Y-92581671D01*
X127050302Y-92583327D01*
X127283691Y-92680000D01*
X127524250Y-92680000D01*
X127683000Y-92521250D01*
X127683000Y-91797000D01*
X127937000Y-91797000D01*
X127937000Y-92521250D01*
X128095750Y-92680000D01*
X128336309Y-92680000D01*
X128569698Y-92583327D01*
X128748327Y-92404699D01*
X128845000Y-92171310D01*
X128845000Y-91955750D01*
X128686250Y-91797000D01*
X127937000Y-91797000D01*
X127683000Y-91797000D01*
X127663000Y-91797000D01*
X127663000Y-91729999D01*
X128249781Y-91729999D01*
X128540620Y-91672147D01*
X128787182Y-91507400D01*
X129902332Y-90392250D01*
X130482960Y-90392250D01*
X130482960Y-90607810D01*
X130579633Y-90841199D01*
X130758262Y-91019827D01*
X130991651Y-91116500D01*
X131232210Y-91116500D01*
X131390960Y-90957750D01*
X131390960Y-90233500D01*
X130641710Y-90233500D01*
X130482960Y-90392250D01*
X129902332Y-90392250D01*
X130482960Y-89811622D01*
X130482960Y-89820750D01*
X130641710Y-89979500D01*
X131390960Y-89979500D01*
X131390960Y-89255250D01*
X131232210Y-89096500D01*
X131198082Y-89096500D01*
X132167002Y-88127580D01*
X132247640Y-88127580D01*
X132400912Y-88098740D01*
X132282793Y-88383201D01*
X132282793Y-88383201D01*
G37*
X132282793Y-88383201D02*
X132282469Y-88755167D01*
X132424514Y-89098943D01*
X132442596Y-89117057D01*
X132382643Y-89128338D01*
X132279314Y-89194829D01*
X132277658Y-89193173D01*
X132044269Y-89096500D01*
X131803710Y-89096500D01*
X131644960Y-89255250D01*
X131644960Y-89979500D01*
X131664960Y-89979500D01*
X131664960Y-90233500D01*
X131644960Y-90233500D01*
X131644960Y-90957750D01*
X131803710Y-91116500D01*
X132044269Y-91116500D01*
X132277658Y-91019827D01*
X132279028Y-91018457D01*
X132366070Y-91077931D01*
X132617960Y-91128940D01*
X133417960Y-91128940D01*
X133653277Y-91084662D01*
X133869401Y-90945590D01*
X134014391Y-90733390D01*
X134065400Y-90481500D01*
X134065400Y-90158862D01*
X134380042Y-89844220D01*
X134544789Y-89597658D01*
X134602641Y-89306819D01*
X134602641Y-89094023D01*
X135632898Y-90124280D01*
X129949618Y-95807560D01*
X129860000Y-95807560D01*
X129624683Y-95851838D01*
X129521354Y-95918329D01*
X129519698Y-95916673D01*
X129286309Y-95820000D01*
X129045750Y-95820000D01*
X128887000Y-95978750D01*
X128887000Y-96703000D01*
X128907000Y-96703000D01*
X128907000Y-96957000D01*
X128887000Y-96957000D01*
X128887000Y-96977000D01*
X128633000Y-96977000D01*
X128633000Y-96957000D01*
X128613000Y-96957000D01*
X128613000Y-96703000D01*
X128633000Y-96703000D01*
X128633000Y-95978750D01*
X128474250Y-95820000D01*
X128233691Y-95820000D01*
X128000302Y-95916673D01*
X127821673Y-96095301D01*
X127797781Y-96152981D01*
X125882398Y-94237598D01*
X125635836Y-94072851D01*
X125344997Y-94014999D01*
X125014803Y-94014999D01*
X126337362Y-92692440D01*
X126710000Y-92692440D01*
X126945317Y-92648162D01*
X127048646Y-92581671D01*
X127050302Y-92583327D01*
X127283691Y-92680000D01*
X127524250Y-92680000D01*
X127683000Y-92521250D01*
X127683000Y-91797000D01*
X127937000Y-91797000D01*
X127937000Y-92521250D01*
X128095750Y-92680000D01*
X128336309Y-92680000D01*
X128569698Y-92583327D01*
X128748327Y-92404699D01*
X128845000Y-92171310D01*
X128845000Y-91955750D01*
X128686250Y-91797000D01*
X127937000Y-91797000D01*
X127683000Y-91797000D01*
X127663000Y-91797000D01*
X127663000Y-91729999D01*
X128249781Y-91729999D01*
X128540620Y-91672147D01*
X128787182Y-91507400D01*
X129902332Y-90392250D01*
X130482960Y-90392250D01*
X130482960Y-90607810D01*
X130579633Y-90841199D01*
X130758262Y-91019827D01*
X130991651Y-91116500D01*
X131232210Y-91116500D01*
X131390960Y-90957750D01*
X131390960Y-90233500D01*
X130641710Y-90233500D01*
X130482960Y-90392250D01*
X129902332Y-90392250D01*
X130482960Y-89811622D01*
X130482960Y-89820750D01*
X130641710Y-89979500D01*
X131390960Y-89979500D01*
X131390960Y-89255250D01*
X131232210Y-89096500D01*
X131198082Y-89096500D01*
X132167002Y-88127580D01*
X132247640Y-88127580D01*
X132400912Y-88098740D01*
X132282793Y-88383201D01*
G36*
X131587590Y-78622901D02*
X131799790Y-78767891D01*
X132051680Y-78818900D01*
X132503640Y-78818900D01*
X132503640Y-79405860D01*
X132373949Y-79352140D01*
X132279390Y-79352140D01*
X132120640Y-79510890D01*
X132120640Y-80431640D01*
X132140640Y-80431640D01*
X132140640Y-80685640D01*
X132120640Y-80685640D01*
X132120640Y-81606390D01*
X132279390Y-81765140D01*
X132373949Y-81765140D01*
X132570116Y-81683885D01*
X132726239Y-81917541D01*
X133082641Y-82273943D01*
X133082641Y-85689700D01*
X133009640Y-85689700D01*
X132774323Y-85733978D01*
X132627733Y-85828306D01*
X132499530Y-85740709D01*
X132247640Y-85689700D01*
X131739640Y-85689700D01*
X131504323Y-85733978D01*
X131363269Y-85824744D01*
X131337338Y-85798813D01*
X131103949Y-85702140D01*
X131009390Y-85702140D01*
X130850640Y-85860890D01*
X130850640Y-86781640D01*
X130870640Y-86781640D01*
X130870640Y-87035640D01*
X130850640Y-87035640D01*
X130850640Y-87055640D01*
X130596640Y-87055640D01*
X130596640Y-87035640D01*
X129580640Y-87035640D01*
X129580640Y-87956390D01*
X129739390Y-88115140D01*
X129833949Y-88115140D01*
X130067338Y-88018467D01*
X130088640Y-87997165D01*
X130109942Y-88018467D01*
X130121658Y-88023320D01*
X127934979Y-90209999D01*
X121345201Y-90209999D01*
X121054362Y-90267851D01*
X120807800Y-90432598D01*
X119586479Y-91653919D01*
X119611679Y-91529478D01*
X119758881Y-91431121D01*
X121497401Y-89692601D01*
X121662148Y-89446039D01*
X121670631Y-89403390D01*
X121796883Y-89708943D01*
X122059673Y-89972192D01*
X122403201Y-90114838D01*
X122775167Y-90115162D01*
X123118943Y-89973117D01*
X123382192Y-89710327D01*
X123524838Y-89366799D01*
X123524934Y-89256534D01*
X123562148Y-89200839D01*
X123620000Y-88910000D01*
X123620000Y-88272931D01*
X123702257Y-88220000D01*
X124492666Y-88220000D01*
X124506838Y-88295317D01*
X124645910Y-88511441D01*
X124858110Y-88656431D01*
X125110000Y-88707440D01*
X126010000Y-88707440D01*
X126245317Y-88663162D01*
X126461441Y-88524090D01*
X126606431Y-88311890D01*
X126657440Y-88060000D01*
X126657440Y-87194390D01*
X128564640Y-87194390D01*
X128564640Y-87606450D01*
X128661313Y-87839839D01*
X128839942Y-88018467D01*
X129073331Y-88115140D01*
X129167890Y-88115140D01*
X129326640Y-87956390D01*
X129326640Y-87035640D01*
X128723390Y-87035640D01*
X128564640Y-87194390D01*
X126657440Y-87194390D01*
X126657440Y-86860000D01*
X126613162Y-86624683D01*
X126474090Y-86408559D01*
X126404289Y-86360866D01*
X126461441Y-86324090D01*
X126538828Y-86210830D01*
X128564640Y-86210830D01*
X128564640Y-86622890D01*
X128723390Y-86781640D01*
X129326640Y-86781640D01*
X129326640Y-85860890D01*
X129580640Y-85860890D01*
X129580640Y-86781640D01*
X130596640Y-86781640D01*
X130596640Y-85860890D01*
X130437890Y-85702140D01*
X130343331Y-85702140D01*
X130109942Y-85798813D01*
X130088640Y-85820115D01*
X130067338Y-85798813D01*
X129833949Y-85702140D01*
X129739390Y-85702140D01*
X129580640Y-85860890D01*
X129326640Y-85860890D01*
X129167890Y-85702140D01*
X129073331Y-85702140D01*
X128839942Y-85798813D01*
X128661313Y-85977441D01*
X128564640Y-86210830D01*
X126538828Y-86210830D01*
X126606431Y-86111890D01*
X126657440Y-85860000D01*
X126657440Y-85237362D01*
X127449533Y-84445269D01*
X127478943Y-84433117D01*
X127742192Y-84170327D01*
X127884838Y-83826799D01*
X127885162Y-83454833D01*
X127743117Y-83111057D01*
X127480327Y-82847808D01*
X127136799Y-82705162D01*
X126764833Y-82704838D01*
X126421057Y-82846883D01*
X126157808Y-83109673D01*
X126015162Y-83453201D01*
X126014921Y-83730277D01*
X125732638Y-84012560D01*
X125110000Y-84012560D01*
X124874683Y-84056838D01*
X124778452Y-84118761D01*
X124867508Y-83985479D01*
X124925360Y-83694640D01*
X124925360Y-83056840D01*
X125015360Y-83056840D01*
X125250677Y-83012562D01*
X125466801Y-82873490D01*
X125611791Y-82661290D01*
X125662800Y-82409400D01*
X125662800Y-80830000D01*
X126167694Y-80830000D01*
X126289673Y-80952192D01*
X126633201Y-81094838D01*
X127005167Y-81095162D01*
X127348943Y-80953117D01*
X127612192Y-80690327D01*
X127727891Y-80411693D01*
X128412239Y-81096041D01*
X128564988Y-81198105D01*
X128596478Y-81365457D01*
X128735550Y-81581581D01*
X128947750Y-81726571D01*
X129199640Y-81777580D01*
X129707640Y-81777580D01*
X129942957Y-81733302D01*
X130089547Y-81638974D01*
X130217750Y-81726571D01*
X130469640Y-81777580D01*
X130977640Y-81777580D01*
X131212957Y-81733302D01*
X131354011Y-81642536D01*
X131379942Y-81668467D01*
X131613331Y-81765140D01*
X131707890Y-81765140D01*
X131866640Y-81606390D01*
X131866640Y-80685640D01*
X131846640Y-80685640D01*
X131846640Y-80431640D01*
X131866640Y-80431640D01*
X131866640Y-79510890D01*
X131707890Y-79352140D01*
X131613331Y-79352140D01*
X131483640Y-79405860D01*
X131483640Y-78648086D01*
X131503121Y-78635550D01*
X131550814Y-78565749D01*
X131587590Y-78622901D01*
X131587590Y-78622901D01*
G37*
X131587590Y-78622901D02*
X131799790Y-78767891D01*
X132051680Y-78818900D01*
X132503640Y-78818900D01*
X132503640Y-79405860D01*
X132373949Y-79352140D01*
X132279390Y-79352140D01*
X132120640Y-79510890D01*
X132120640Y-80431640D01*
X132140640Y-80431640D01*
X132140640Y-80685640D01*
X132120640Y-80685640D01*
X132120640Y-81606390D01*
X132279390Y-81765140D01*
X132373949Y-81765140D01*
X132570116Y-81683885D01*
X132726239Y-81917541D01*
X133082641Y-82273943D01*
X133082641Y-85689700D01*
X133009640Y-85689700D01*
X132774323Y-85733978D01*
X132627733Y-85828306D01*
X132499530Y-85740709D01*
X132247640Y-85689700D01*
X131739640Y-85689700D01*
X131504323Y-85733978D01*
X131363269Y-85824744D01*
X131337338Y-85798813D01*
X131103949Y-85702140D01*
X131009390Y-85702140D01*
X130850640Y-85860890D01*
X130850640Y-86781640D01*
X130870640Y-86781640D01*
X130870640Y-87035640D01*
X130850640Y-87035640D01*
X130850640Y-87055640D01*
X130596640Y-87055640D01*
X130596640Y-87035640D01*
X129580640Y-87035640D01*
X129580640Y-87956390D01*
X129739390Y-88115140D01*
X129833949Y-88115140D01*
X130067338Y-88018467D01*
X130088640Y-87997165D01*
X130109942Y-88018467D01*
X130121658Y-88023320D01*
X127934979Y-90209999D01*
X121345201Y-90209999D01*
X121054362Y-90267851D01*
X120807800Y-90432598D01*
X119586479Y-91653919D01*
X119611679Y-91529478D01*
X119758881Y-91431121D01*
X121497401Y-89692601D01*
X121662148Y-89446039D01*
X121670631Y-89403390D01*
X121796883Y-89708943D01*
X122059673Y-89972192D01*
X122403201Y-90114838D01*
X122775167Y-90115162D01*
X123118943Y-89973117D01*
X123382192Y-89710327D01*
X123524838Y-89366799D01*
X123524934Y-89256534D01*
X123562148Y-89200839D01*
X123620000Y-88910000D01*
X123620000Y-88272931D01*
X123702257Y-88220000D01*
X124492666Y-88220000D01*
X124506838Y-88295317D01*
X124645910Y-88511441D01*
X124858110Y-88656431D01*
X125110000Y-88707440D01*
X126010000Y-88707440D01*
X126245317Y-88663162D01*
X126461441Y-88524090D01*
X126606431Y-88311890D01*
X126657440Y-88060000D01*
X126657440Y-87194390D01*
X128564640Y-87194390D01*
X128564640Y-87606450D01*
X128661313Y-87839839D01*
X128839942Y-88018467D01*
X129073331Y-88115140D01*
X129167890Y-88115140D01*
X129326640Y-87956390D01*
X129326640Y-87035640D01*
X128723390Y-87035640D01*
X128564640Y-87194390D01*
X126657440Y-87194390D01*
X126657440Y-86860000D01*
X126613162Y-86624683D01*
X126474090Y-86408559D01*
X126404289Y-86360866D01*
X126461441Y-86324090D01*
X126538828Y-86210830D01*
X128564640Y-86210830D01*
X128564640Y-86622890D01*
X128723390Y-86781640D01*
X129326640Y-86781640D01*
X129326640Y-85860890D01*
X129580640Y-85860890D01*
X129580640Y-86781640D01*
X130596640Y-86781640D01*
X130596640Y-85860890D01*
X130437890Y-85702140D01*
X130343331Y-85702140D01*
X130109942Y-85798813D01*
X130088640Y-85820115D01*
X130067338Y-85798813D01*
X129833949Y-85702140D01*
X129739390Y-85702140D01*
X129580640Y-85860890D01*
X129326640Y-85860890D01*
X129167890Y-85702140D01*
X129073331Y-85702140D01*
X128839942Y-85798813D01*
X128661313Y-85977441D01*
X128564640Y-86210830D01*
X126538828Y-86210830D01*
X126606431Y-86111890D01*
X126657440Y-85860000D01*
X126657440Y-85237362D01*
X127449533Y-84445269D01*
X127478943Y-84433117D01*
X127742192Y-84170327D01*
X127884838Y-83826799D01*
X127885162Y-83454833D01*
X127743117Y-83111057D01*
X127480327Y-82847808D01*
X127136799Y-82705162D01*
X126764833Y-82704838D01*
X126421057Y-82846883D01*
X126157808Y-83109673D01*
X126015162Y-83453201D01*
X126014921Y-83730277D01*
X125732638Y-84012560D01*
X125110000Y-84012560D01*
X124874683Y-84056838D01*
X124778452Y-84118761D01*
X124867508Y-83985479D01*
X124925360Y-83694640D01*
X124925360Y-83056840D01*
X125015360Y-83056840D01*
X125250677Y-83012562D01*
X125466801Y-82873490D01*
X125611791Y-82661290D01*
X125662800Y-82409400D01*
X125662800Y-80830000D01*
X126167694Y-80830000D01*
X126289673Y-80952192D01*
X126633201Y-81094838D01*
X127005167Y-81095162D01*
X127348943Y-80953117D01*
X127612192Y-80690327D01*
X127727891Y-80411693D01*
X128412239Y-81096041D01*
X128564988Y-81198105D01*
X128596478Y-81365457D01*
X128735550Y-81581581D01*
X128947750Y-81726571D01*
X129199640Y-81777580D01*
X129707640Y-81777580D01*
X129942957Y-81733302D01*
X130089547Y-81638974D01*
X130217750Y-81726571D01*
X130469640Y-81777580D01*
X130977640Y-81777580D01*
X131212957Y-81733302D01*
X131354011Y-81642536D01*
X131379942Y-81668467D01*
X131613331Y-81765140D01*
X131707890Y-81765140D01*
X131866640Y-81606390D01*
X131866640Y-80685640D01*
X131846640Y-80685640D01*
X131846640Y-80431640D01*
X131866640Y-80431640D01*
X131866640Y-79510890D01*
X131707890Y-79352140D01*
X131613331Y-79352140D01*
X131483640Y-79405860D01*
X131483640Y-78648086D01*
X131503121Y-78635550D01*
X131550814Y-78565749D01*
X131587590Y-78622901D01*
G36*
X109982599Y-77817597D02*
X109817852Y-78064159D01*
X109760000Y-78354998D01*
X109760000Y-82457069D01*
X109668559Y-82515910D01*
X109563274Y-82670000D01*
X107821097Y-82670000D01*
X107803162Y-82574683D01*
X107664090Y-82358559D01*
X107451890Y-82213569D01*
X107200000Y-82162560D01*
X106300000Y-82162560D01*
X106064683Y-82206838D01*
X105848559Y-82345910D01*
X105703569Y-82558110D01*
X105652560Y-82810000D01*
X105652560Y-84010000D01*
X105696838Y-84245317D01*
X105835910Y-84461441D01*
X105905711Y-84509134D01*
X105848559Y-84545910D01*
X105703569Y-84758110D01*
X105652560Y-85010000D01*
X105652560Y-86210000D01*
X105673565Y-86321633D01*
X105410320Y-86584878D01*
X105364833Y-86584838D01*
X105021057Y-86726883D01*
X104757808Y-86989673D01*
X104615162Y-87333201D01*
X104615054Y-87457752D01*
X104215001Y-87057699D01*
X104215001Y-81589999D01*
X104157149Y-81299160D01*
X103992402Y-81052598D01*
X103235000Y-80295196D01*
X103235000Y-80053000D01*
X103459250Y-80053000D01*
X103618000Y-79894250D01*
X103618000Y-78645000D01*
X103872000Y-78645000D01*
X103872000Y-79894250D01*
X104030750Y-80053000D01*
X104271309Y-80053000D01*
X104504698Y-79956327D01*
X104683327Y-79777699D01*
X104780000Y-79544310D01*
X104780000Y-78803750D01*
X104621250Y-78645000D01*
X103872000Y-78645000D01*
X103618000Y-78645000D01*
X103598000Y-78645000D01*
X103598000Y-78391000D01*
X103618000Y-78391000D01*
X103618000Y-77141750D01*
X103872000Y-77141750D01*
X103872000Y-78391000D01*
X104621250Y-78391000D01*
X104780000Y-78232250D01*
X104780000Y-77491690D01*
X104683327Y-77258301D01*
X104504698Y-77079673D01*
X104271309Y-76983000D01*
X104030750Y-76983000D01*
X103872000Y-77141750D01*
X103618000Y-77141750D01*
X103459250Y-76983000D01*
X103218691Y-76983000D01*
X103126008Y-77021390D01*
X102875000Y-76970560D01*
X102075000Y-76970560D01*
X101839683Y-77014838D01*
X101835845Y-77017307D01*
X101605000Y-76970560D01*
X100805000Y-76970560D01*
X100569683Y-77014838D01*
X100557343Y-77022779D01*
X100461309Y-76983000D01*
X100220750Y-76983000D01*
X100062000Y-77141750D01*
X100062000Y-78391000D01*
X100082000Y-78391000D01*
X100082000Y-78645000D01*
X100062000Y-78645000D01*
X100062000Y-79894250D01*
X100220750Y-80053000D01*
X100445000Y-80053000D01*
X100445000Y-80301590D01*
X100502852Y-80592429D01*
X100667599Y-80838991D01*
X101056857Y-81228249D01*
X100930000Y-81202560D01*
X99730000Y-81202560D01*
X99494683Y-81246838D01*
X99278559Y-81385910D01*
X99173274Y-81540000D01*
X97602500Y-81540000D01*
X97311661Y-81597852D01*
X97065099Y-81762599D01*
X94775099Y-84052599D01*
X94681580Y-84192560D01*
X94537500Y-84192560D01*
X94334940Y-84230674D01*
X94334940Y-83240000D01*
X94290662Y-83004683D01*
X94151590Y-82788559D01*
X93939390Y-82643569D01*
X93687500Y-82592560D01*
X92101622Y-82592560D01*
X92143536Y-79079235D01*
X92459691Y-79079235D01*
X92466304Y-79146400D01*
X92459691Y-79213565D01*
X92490441Y-79525665D01*
X92510020Y-79590200D01*
X92516627Y-79657316D01*
X92607677Y-79957516D01*
X92639492Y-80017043D01*
X92659087Y-80081631D01*
X92806947Y-80358231D01*
X92849717Y-80410342D01*
X92881490Y-80469801D01*
X93080460Y-80712301D01*
X93132625Y-80755121D01*
X93175437Y-80807293D01*
X93417897Y-81006292D01*
X93477455Y-81038130D01*
X93529669Y-81080967D01*
X93806290Y-81228768D01*
X93870755Y-81248312D01*
X93930154Y-81280073D01*
X94230304Y-81371174D01*
X94297541Y-81377806D01*
X94362199Y-81397411D01*
X94674329Y-81428110D01*
X94741375Y-81421497D01*
X94808426Y-81428111D01*
X95120576Y-81397411D01*
X95185234Y-81377807D01*
X95252470Y-81371175D01*
X95552630Y-81280075D01*
X95612040Y-81248309D01*
X95676510Y-81228762D01*
X95953120Y-81080962D01*
X96005326Y-81038130D01*
X96064883Y-81006293D01*
X96307343Y-80807293D01*
X96350151Y-80755126D01*
X96402309Y-80712314D01*
X96601289Y-80469814D01*
X96633067Y-80410349D01*
X96675843Y-80358231D01*
X96823703Y-80081631D01*
X96843301Y-80017033D01*
X96875119Y-79957496D01*
X96966159Y-79657296D01*
X96972763Y-79590190D01*
X96992339Y-79525665D01*
X97023089Y-79213565D01*
X97016476Y-79146400D01*
X97023089Y-79079235D01*
X96995947Y-78803750D01*
X98900000Y-78803750D01*
X98900000Y-79544310D01*
X98996673Y-79777699D01*
X99175302Y-79956327D01*
X99408691Y-80053000D01*
X99649250Y-80053000D01*
X99808000Y-79894250D01*
X99808000Y-78645000D01*
X99058750Y-78645000D01*
X98900000Y-78803750D01*
X96995947Y-78803750D01*
X96992339Y-78767135D01*
X96972763Y-78702610D01*
X96966159Y-78635504D01*
X96875119Y-78335304D01*
X96843301Y-78275767D01*
X96823703Y-78211169D01*
X96675843Y-77934569D01*
X96633067Y-77882451D01*
X96601289Y-77822986D01*
X96402309Y-77580486D01*
X96350088Y-77537622D01*
X96312378Y-77491690D01*
X98900000Y-77491690D01*
X98900000Y-78232250D01*
X99058750Y-78391000D01*
X99808000Y-78391000D01*
X99808000Y-77141750D01*
X99649250Y-76983000D01*
X99408691Y-76983000D01*
X99175302Y-77079673D01*
X98996673Y-77258301D01*
X98900000Y-77491690D01*
X96312378Y-77491690D01*
X96307213Y-77485400D01*
X96064753Y-77286500D01*
X96005347Y-77254762D01*
X95953290Y-77212028D01*
X95676680Y-77064128D01*
X95612023Y-77044505D01*
X95552430Y-77012664D01*
X95252270Y-76921664D01*
X95185243Y-76915073D01*
X95120797Y-76895511D01*
X94808667Y-76864711D01*
X94741405Y-76871323D01*
X94674137Y-76864710D01*
X94361987Y-76895510D01*
X94297534Y-76915074D01*
X94230504Y-76921666D01*
X93930354Y-77012666D01*
X93870769Y-77044503D01*
X93806120Y-77064123D01*
X93529499Y-77212023D01*
X93477437Y-77254760D01*
X93418027Y-77286500D01*
X93175567Y-77485400D01*
X93132688Y-77537627D01*
X93080460Y-77580499D01*
X92881490Y-77822999D01*
X92849717Y-77882458D01*
X92806947Y-77934569D01*
X92659087Y-78211169D01*
X92639492Y-78275757D01*
X92607677Y-78335284D01*
X92516627Y-78635484D01*
X92510020Y-78702600D01*
X92490441Y-78767135D01*
X92459691Y-79079235D01*
X92143536Y-79079235D01*
X92156374Y-78003232D01*
X94092606Y-76067000D01*
X111733196Y-76067000D01*
X109982599Y-77817597D01*
X109982599Y-77817597D01*
G37*
X109982599Y-77817597D02*
X109817852Y-78064159D01*
X109760000Y-78354998D01*
X109760000Y-82457069D01*
X109668559Y-82515910D01*
X109563274Y-82670000D01*
X107821097Y-82670000D01*
X107803162Y-82574683D01*
X107664090Y-82358559D01*
X107451890Y-82213569D01*
X107200000Y-82162560D01*
X106300000Y-82162560D01*
X106064683Y-82206838D01*
X105848559Y-82345910D01*
X105703569Y-82558110D01*
X105652560Y-82810000D01*
X105652560Y-84010000D01*
X105696838Y-84245317D01*
X105835910Y-84461441D01*
X105905711Y-84509134D01*
X105848559Y-84545910D01*
X105703569Y-84758110D01*
X105652560Y-85010000D01*
X105652560Y-86210000D01*
X105673565Y-86321633D01*
X105410320Y-86584878D01*
X105364833Y-86584838D01*
X105021057Y-86726883D01*
X104757808Y-86989673D01*
X104615162Y-87333201D01*
X104615054Y-87457752D01*
X104215001Y-87057699D01*
X104215001Y-81589999D01*
X104157149Y-81299160D01*
X103992402Y-81052598D01*
X103235000Y-80295196D01*
X103235000Y-80053000D01*
X103459250Y-80053000D01*
X103618000Y-79894250D01*
X103618000Y-78645000D01*
X103872000Y-78645000D01*
X103872000Y-79894250D01*
X104030750Y-80053000D01*
X104271309Y-80053000D01*
X104504698Y-79956327D01*
X104683327Y-79777699D01*
X104780000Y-79544310D01*
X104780000Y-78803750D01*
X104621250Y-78645000D01*
X103872000Y-78645000D01*
X103618000Y-78645000D01*
X103598000Y-78645000D01*
X103598000Y-78391000D01*
X103618000Y-78391000D01*
X103618000Y-77141750D01*
X103872000Y-77141750D01*
X103872000Y-78391000D01*
X104621250Y-78391000D01*
X104780000Y-78232250D01*
X104780000Y-77491690D01*
X104683327Y-77258301D01*
X104504698Y-77079673D01*
X104271309Y-76983000D01*
X104030750Y-76983000D01*
X103872000Y-77141750D01*
X103618000Y-77141750D01*
X103459250Y-76983000D01*
X103218691Y-76983000D01*
X103126008Y-77021390D01*
X102875000Y-76970560D01*
X102075000Y-76970560D01*
X101839683Y-77014838D01*
X101835845Y-77017307D01*
X101605000Y-76970560D01*
X100805000Y-76970560D01*
X100569683Y-77014838D01*
X100557343Y-77022779D01*
X100461309Y-76983000D01*
X100220750Y-76983000D01*
X100062000Y-77141750D01*
X100062000Y-78391000D01*
X100082000Y-78391000D01*
X100082000Y-78645000D01*
X100062000Y-78645000D01*
X100062000Y-79894250D01*
X100220750Y-80053000D01*
X100445000Y-80053000D01*
X100445000Y-80301590D01*
X100502852Y-80592429D01*
X100667599Y-80838991D01*
X101056857Y-81228249D01*
X100930000Y-81202560D01*
X99730000Y-81202560D01*
X99494683Y-81246838D01*
X99278559Y-81385910D01*
X99173274Y-81540000D01*
X97602500Y-81540000D01*
X97311661Y-81597852D01*
X97065099Y-81762599D01*
X94775099Y-84052599D01*
X94681580Y-84192560D01*
X94537500Y-84192560D01*
X94334940Y-84230674D01*
X94334940Y-83240000D01*
X94290662Y-83004683D01*
X94151590Y-82788559D01*
X93939390Y-82643569D01*
X93687500Y-82592560D01*
X92101622Y-82592560D01*
X92143536Y-79079235D01*
X92459691Y-79079235D01*
X92466304Y-79146400D01*
X92459691Y-79213565D01*
X92490441Y-79525665D01*
X92510020Y-79590200D01*
X92516627Y-79657316D01*
X92607677Y-79957516D01*
X92639492Y-80017043D01*
X92659087Y-80081631D01*
X92806947Y-80358231D01*
X92849717Y-80410342D01*
X92881490Y-80469801D01*
X93080460Y-80712301D01*
X93132625Y-80755121D01*
X93175437Y-80807293D01*
X93417897Y-81006292D01*
X93477455Y-81038130D01*
X93529669Y-81080967D01*
X93806290Y-81228768D01*
X93870755Y-81248312D01*
X93930154Y-81280073D01*
X94230304Y-81371174D01*
X94297541Y-81377806D01*
X94362199Y-81397411D01*
X94674329Y-81428110D01*
X94741375Y-81421497D01*
X94808426Y-81428111D01*
X95120576Y-81397411D01*
X95185234Y-81377807D01*
X95252470Y-81371175D01*
X95552630Y-81280075D01*
X95612040Y-81248309D01*
X95676510Y-81228762D01*
X95953120Y-81080962D01*
X96005326Y-81038130D01*
X96064883Y-81006293D01*
X96307343Y-80807293D01*
X96350151Y-80755126D01*
X96402309Y-80712314D01*
X96601289Y-80469814D01*
X96633067Y-80410349D01*
X96675843Y-80358231D01*
X96823703Y-80081631D01*
X96843301Y-80017033D01*
X96875119Y-79957496D01*
X96966159Y-79657296D01*
X96972763Y-79590190D01*
X96992339Y-79525665D01*
X97023089Y-79213565D01*
X97016476Y-79146400D01*
X97023089Y-79079235D01*
X96995947Y-78803750D01*
X98900000Y-78803750D01*
X98900000Y-79544310D01*
X98996673Y-79777699D01*
X99175302Y-79956327D01*
X99408691Y-80053000D01*
X99649250Y-80053000D01*
X99808000Y-79894250D01*
X99808000Y-78645000D01*
X99058750Y-78645000D01*
X98900000Y-78803750D01*
X96995947Y-78803750D01*
X96992339Y-78767135D01*
X96972763Y-78702610D01*
X96966159Y-78635504D01*
X96875119Y-78335304D01*
X96843301Y-78275767D01*
X96823703Y-78211169D01*
X96675843Y-77934569D01*
X96633067Y-77882451D01*
X96601289Y-77822986D01*
X96402309Y-77580486D01*
X96350088Y-77537622D01*
X96312378Y-77491690D01*
X98900000Y-77491690D01*
X98900000Y-78232250D01*
X99058750Y-78391000D01*
X99808000Y-78391000D01*
X99808000Y-77141750D01*
X99649250Y-76983000D01*
X99408691Y-76983000D01*
X99175302Y-77079673D01*
X98996673Y-77258301D01*
X98900000Y-77491690D01*
X96312378Y-77491690D01*
X96307213Y-77485400D01*
X96064753Y-77286500D01*
X96005347Y-77254762D01*
X95953290Y-77212028D01*
X95676680Y-77064128D01*
X95612023Y-77044505D01*
X95552430Y-77012664D01*
X95252270Y-76921664D01*
X95185243Y-76915073D01*
X95120797Y-76895511D01*
X94808667Y-76864711D01*
X94741405Y-76871323D01*
X94674137Y-76864710D01*
X94361987Y-76895510D01*
X94297534Y-76915074D01*
X94230504Y-76921666D01*
X93930354Y-77012666D01*
X93870769Y-77044503D01*
X93806120Y-77064123D01*
X93529499Y-77212023D01*
X93477437Y-77254760D01*
X93418027Y-77286500D01*
X93175567Y-77485400D01*
X93132688Y-77537627D01*
X93080460Y-77580499D01*
X92881490Y-77822999D01*
X92849717Y-77882458D01*
X92806947Y-77934569D01*
X92659087Y-78211169D01*
X92639492Y-78275757D01*
X92607677Y-78335284D01*
X92516627Y-78635484D01*
X92510020Y-78702600D01*
X92490441Y-78767135D01*
X92459691Y-79079235D01*
X92143536Y-79079235D01*
X92156374Y-78003232D01*
X94092606Y-76067000D01*
X111733196Y-76067000D01*
X109982599Y-77817597D01*
G36*
X117547354Y-77247728D02*
X117668021Y-77477620D01*
X118861840Y-77477620D01*
X118861840Y-77457620D01*
X119115840Y-77457620D01*
X119115840Y-77477620D01*
X119135840Y-77477620D01*
X119135840Y-77731620D01*
X119115840Y-77731620D01*
X119115840Y-78924775D01*
X119345730Y-79046096D01*
X119755764Y-78876265D01*
X120184023Y-78485978D01*
X120251138Y-78343067D01*
X120478786Y-78683767D01*
X120960555Y-79005674D01*
X121528840Y-79118713D01*
X121895248Y-79045830D01*
X122166440Y-79317022D01*
X122413001Y-79481769D01*
X122598276Y-79518623D01*
X122577359Y-79532599D01*
X121991768Y-80118190D01*
X121625360Y-80045307D01*
X121057075Y-80158346D01*
X120575306Y-80480253D01*
X120347658Y-80820953D01*
X120280543Y-80678042D01*
X119852284Y-80287755D01*
X119442250Y-80117924D01*
X119212360Y-80239245D01*
X119212360Y-81432400D01*
X119232360Y-81432400D01*
X119232360Y-81686400D01*
X119212360Y-81686400D01*
X119212360Y-81706400D01*
X118958360Y-81706400D01*
X118958360Y-81686400D01*
X117764541Y-81686400D01*
X117643874Y-81916292D01*
X117890177Y-82440758D01*
X118256027Y-82774169D01*
X117107598Y-83922598D01*
X116942851Y-84169160D01*
X116884999Y-84459999D01*
X116884999Y-86545199D01*
X115755001Y-85415201D01*
X115755001Y-84435001D01*
X115697149Y-84144162D01*
X115562363Y-83942439D01*
X116448646Y-83056156D01*
X116638943Y-82977527D01*
X116902192Y-82714737D01*
X117044838Y-82371209D01*
X117045162Y-81999243D01*
X116903117Y-81655467D01*
X116640327Y-81392218D01*
X116296799Y-81249572D01*
X115924833Y-81249248D01*
X115581057Y-81391293D01*
X115317808Y-81654083D01*
X115175162Y-81997611D01*
X115175003Y-82180195D01*
X114993025Y-82362173D01*
X114921890Y-82313569D01*
X114670000Y-82262560D01*
X113770000Y-82262560D01*
X113534683Y-82306838D01*
X113318559Y-82445910D01*
X113173569Y-82658110D01*
X113122560Y-82910000D01*
X113122560Y-84110000D01*
X113166838Y-84345317D01*
X113305910Y-84561441D01*
X113375711Y-84609134D01*
X113318559Y-84645910D01*
X113302099Y-84670000D01*
X112821074Y-84670000D01*
X112834999Y-84599997D01*
X112834999Y-81202508D01*
X117643874Y-81202508D01*
X117764541Y-81432400D01*
X118958360Y-81432400D01*
X118958360Y-80239245D01*
X118728470Y-80117924D01*
X118318436Y-80287755D01*
X117890177Y-80678042D01*
X117643874Y-81202508D01*
X112834999Y-81202508D01*
X112834999Y-81044251D01*
X112873000Y-81006250D01*
X112873000Y-80057000D01*
X112853000Y-80057000D01*
X112853000Y-79803000D01*
X112873000Y-79803000D01*
X112873000Y-79783000D01*
X113127000Y-79783000D01*
X113127000Y-79803000D01*
X113147000Y-79803000D01*
X113147000Y-80057000D01*
X113127000Y-80057000D01*
X113127000Y-81006250D01*
X113285750Y-81165000D01*
X113726309Y-81165000D01*
X113959698Y-81068327D01*
X114100936Y-80927090D01*
X114135910Y-80981441D01*
X114348110Y-81126431D01*
X114600000Y-81177440D01*
X115800000Y-81177440D01*
X116035317Y-81133162D01*
X116251441Y-80994090D01*
X116396431Y-80781890D01*
X116447440Y-80530000D01*
X116447440Y-79330000D01*
X116403162Y-79094683D01*
X116264090Y-78878559D01*
X116051890Y-78733569D01*
X115960000Y-78714961D01*
X115960000Y-78561097D01*
X116055317Y-78543162D01*
X116271441Y-78404090D01*
X116416431Y-78191890D01*
X116463083Y-77961512D01*
X117547354Y-77961512D01*
X117793657Y-78485978D01*
X118221916Y-78876265D01*
X118631950Y-79046096D01*
X118861840Y-78924775D01*
X118861840Y-77731620D01*
X117668021Y-77731620D01*
X117547354Y-77961512D01*
X116463083Y-77961512D01*
X116467440Y-77940000D01*
X116467440Y-77189619D01*
X117574644Y-77189619D01*
X117547354Y-77247728D01*
X117547354Y-77247728D01*
G37*
X117547354Y-77247728D02*
X117668021Y-77477620D01*
X118861840Y-77477620D01*
X118861840Y-77457620D01*
X119115840Y-77457620D01*
X119115840Y-77477620D01*
X119135840Y-77477620D01*
X119135840Y-77731620D01*
X119115840Y-77731620D01*
X119115840Y-78924775D01*
X119345730Y-79046096D01*
X119755764Y-78876265D01*
X120184023Y-78485978D01*
X120251138Y-78343067D01*
X120478786Y-78683767D01*
X120960555Y-79005674D01*
X121528840Y-79118713D01*
X121895248Y-79045830D01*
X122166440Y-79317022D01*
X122413001Y-79481769D01*
X122598276Y-79518623D01*
X122577359Y-79532599D01*
X121991768Y-80118190D01*
X121625360Y-80045307D01*
X121057075Y-80158346D01*
X120575306Y-80480253D01*
X120347658Y-80820953D01*
X120280543Y-80678042D01*
X119852284Y-80287755D01*
X119442250Y-80117924D01*
X119212360Y-80239245D01*
X119212360Y-81432400D01*
X119232360Y-81432400D01*
X119232360Y-81686400D01*
X119212360Y-81686400D01*
X119212360Y-81706400D01*
X118958360Y-81706400D01*
X118958360Y-81686400D01*
X117764541Y-81686400D01*
X117643874Y-81916292D01*
X117890177Y-82440758D01*
X118256027Y-82774169D01*
X117107598Y-83922598D01*
X116942851Y-84169160D01*
X116884999Y-84459999D01*
X116884999Y-86545199D01*
X115755001Y-85415201D01*
X115755001Y-84435001D01*
X115697149Y-84144162D01*
X115562363Y-83942439D01*
X116448646Y-83056156D01*
X116638943Y-82977527D01*
X116902192Y-82714737D01*
X117044838Y-82371209D01*
X117045162Y-81999243D01*
X116903117Y-81655467D01*
X116640327Y-81392218D01*
X116296799Y-81249572D01*
X115924833Y-81249248D01*
X115581057Y-81391293D01*
X115317808Y-81654083D01*
X115175162Y-81997611D01*
X115175003Y-82180195D01*
X114993025Y-82362173D01*
X114921890Y-82313569D01*
X114670000Y-82262560D01*
X113770000Y-82262560D01*
X113534683Y-82306838D01*
X113318559Y-82445910D01*
X113173569Y-82658110D01*
X113122560Y-82910000D01*
X113122560Y-84110000D01*
X113166838Y-84345317D01*
X113305910Y-84561441D01*
X113375711Y-84609134D01*
X113318559Y-84645910D01*
X113302099Y-84670000D01*
X112821074Y-84670000D01*
X112834999Y-84599997D01*
X112834999Y-81202508D01*
X117643874Y-81202508D01*
X117764541Y-81432400D01*
X118958360Y-81432400D01*
X118958360Y-80239245D01*
X118728470Y-80117924D01*
X118318436Y-80287755D01*
X117890177Y-80678042D01*
X117643874Y-81202508D01*
X112834999Y-81202508D01*
X112834999Y-81044251D01*
X112873000Y-81006250D01*
X112873000Y-80057000D01*
X112853000Y-80057000D01*
X112853000Y-79803000D01*
X112873000Y-79803000D01*
X112873000Y-79783000D01*
X113127000Y-79783000D01*
X113127000Y-79803000D01*
X113147000Y-79803000D01*
X113147000Y-80057000D01*
X113127000Y-80057000D01*
X113127000Y-81006250D01*
X113285750Y-81165000D01*
X113726309Y-81165000D01*
X113959698Y-81068327D01*
X114100936Y-80927090D01*
X114135910Y-80981441D01*
X114348110Y-81126431D01*
X114600000Y-81177440D01*
X115800000Y-81177440D01*
X116035317Y-81133162D01*
X116251441Y-80994090D01*
X116396431Y-80781890D01*
X116447440Y-80530000D01*
X116447440Y-79330000D01*
X116403162Y-79094683D01*
X116264090Y-78878559D01*
X116051890Y-78733569D01*
X115960000Y-78714961D01*
X115960000Y-78561097D01*
X116055317Y-78543162D01*
X116271441Y-78404090D01*
X116416431Y-78191890D01*
X116463083Y-77961512D01*
X117547354Y-77961512D01*
X117793657Y-78485978D01*
X118221916Y-78876265D01*
X118631950Y-79046096D01*
X118861840Y-78924775D01*
X118861840Y-77731620D01*
X117668021Y-77731620D01*
X117547354Y-77961512D01*
X116463083Y-77961512D01*
X116467440Y-77940000D01*
X116467440Y-77189619D01*
X117574644Y-77189619D01*
X117547354Y-77247728D01*
M02*
