M48
;DRILL file {KiCad no-vcs-found-7722~57~ubuntu16.04.1} date Sat Feb 25 10:09:23 2017
;FORMAT={-:-/ absolute / metric / decimal}
FMAT,2
METRIC,TZ
T1C0.400
T2C1.000
%
G90
G05
M71
T1
X93.254Y-102.707
X93.31Y-100.181
X93.447Y-106.497
X93.879Y-103.811
X93.975Y-92.537
X94.066Y-85.974
X94.794Y-104.044
X96.566Y-83.993
X96.771Y-82.08
X97.775Y-88.844
X100.848Y-98.415
X101.122Y-103.937
X101.133Y-102.657
X101.397Y-85.72
X102.878Y-86.317
X103.129Y-106.67
X104.421Y-103.539
X105.004Y-96.225
X105.024Y-99.263
X106.035Y-87.239
X111.465Y-114.432
X114.031Y-95.386
X114.073Y-94.587
X114.656Y-96.302
X114.727Y-98.059
X115.026Y-87.833
X115.357Y-103.307
X115.463Y-105.083
X117.511Y-93.762
X117.536Y-114.986
X117.597Y-85.369
X117.811Y-103.865
X117.878Y-96.115
X118.672Y-96.209
X119.278Y-103.947
X119.395Y-89.489
X119.598Y-118.008
X119.685Y-82.621
X119.781Y-83.754
X120.165Y-104.839
X120.283Y-103.579
X120.686Y-95.814
X120.767Y-88.621
X120.975Y-106.807
X121.763Y-118.247
X121.859Y-96.439
X122.433Y-109.098
X123.073Y-89.129
X123.147Y-107.779
X123.668Y-113.386
X123.896Y-108.06
X124.169Y-89.334
X124.645Y-114.517
X124.765Y-92.765
X124.794Y-88.554
X124.998Y-91.222
X125.226Y-94.465
X125.229Y-106.584
X125.489Y-93.128
X125.596Y-108.022
X125.648Y-88.524
X125.847Y-90.241
X125.887Y-82.459
X125.928Y-94.849
X126.163Y-107.459
X126.27Y-102.171
X126.289Y-93.128
X126.435Y-88.668
X126.691Y-102.937
X127.061Y-87.752
X127.544Y-98.222
X127.575Y-103.735
X127.591Y-104.535
X127.645Y-101.712
X127.904Y-93.702
X129.Y-114.024
X129.581Y-82.738
X129.596Y-102.032
X129.906Y-106.898
X129.977Y-108.184
X130.007Y-91.451
X130.043Y-116.454
X130.134Y-96.207
X130.139Y-111.364
X130.331Y-104.023
X130.581Y-113.238
X130.978Y-117.191
X131.43Y-96.825
X131.486Y-82.215
X132.024Y-101.092
X132.212Y-86.716
X132.522Y-92.817
X133.345Y-93.782
X133.38Y-104.648
X133.736Y-106.924
X133.899Y-91.023
X134.203Y-99.294
T2
X95.001Y-110.322
X95.001Y-112.862
X95.001Y-115.402
X99.665Y-77.767
X102.205Y-77.767
X104.745Y-77.767
X109.817Y-77.701
X112.357Y-77.701
X114.897Y-77.701
T0
M30
