M48
;DRILL file {KiCad no-vcs-found-ecdfa40~58~ubuntu16.04.1} date Mon Mar 20 23:26:09 2017
;FORMAT={-:-/ absolute / metric / decimal}
FMAT,2
METRIC,TZ
T1C0.400
T2C1.000
%
G90
G05
M71
T1
X74.68Y-92.17
X75.26Y-100.62
X75.65Y-85.05
X75.9Y-105.44
X76.63Y-87.388
X77.6Y-103.37
X78.09Y-84.07
X79.27Y-91.31
X79.42Y-83.41
X79.72Y-97.19
X79.81Y-95.
X80.08Y-106.39
X80.699Y-90.789
X81.352Y-103.28
X81.583Y-104.73
X81.665Y-91.047
X81.992Y-101.735
X82.29Y-106.61
X82.748Y-90.353
X82.751Y-99.945
X83.09Y-84.41
X83.67Y-90.74
X84.07Y-99.62
X84.683Y-90.463
X85.4Y-94.67
X85.57Y-84.88
X86.29Y-107.3
X86.336Y-90.754
X86.508Y-99.391
X86.7Y-88.293
X87.4Y-111.62
X88.038Y-91.66
X88.11Y-105.12
X88.27Y-103.16
X88.31Y-100.27
X88.75Y-92.46
X88.95Y-88.41
X89.34Y-84.
X90.03Y-87.824
X91.95Y-84.62
X92.907Y-90.635
X93.03Y-98.42
X93.09Y-85.66
X93.29Y-92.48
X93.39Y-103.23
X94.21Y-93.43
X95.58Y-84.85
X96.07Y-112.22
X98.42Y-109.2
X99.88Y-99.14
X100.508Y-103.492
X101.22Y-82.8
X101.34Y-80.69
X102.2Y-102.1
X103.73Y-86.72
X105.7Y-108.79
X105.73Y-98.26
X106.17Y-95.12
X106.32Y-94.06
X106.88Y-103.51
X107.49Y-91.11
X108.33Y-95.33
X108.93Y-107.83
X109.47Y-90.19
X109.94Y-101.84
X110.63Y-79.65
X110.654Y-103.829
X110.74Y-86.62
X110.9Y-89.5
X111.42Y-101.66
X111.919Y-89.52
X112.26Y-94.26
X112.27Y-85.95
X112.91Y-107.95
X113.96Y-82.59
X114.24Y-97.97
X114.37Y-84.8
X114.39Y-86.086
X114.644Y-87.875
X114.67Y-106.87
X114.76Y-83.36
X115.819Y-95.966
X116.094Y-87.15
X116.366Y-98.32
X117.357Y-93.076
X117.677Y-97.423
X117.68Y-103.239
X117.79Y-99.07
X118.13Y-104.682
X118.455Y-107.788
X118.91Y-79.83
X118.997Y-90.934
X119.012Y-89.934
X119.8Y-86.75
X119.88Y-108.04
X120.99Y-99.29
X121.373Y-98.187
X126.56Y-86.67
T2
X77.033Y-93.091
X77.033Y-95.631
X77.033Y-98.171
X96.002Y-106.365
X98.542Y-106.365
X101.082Y-106.365
X103.622Y-106.365
X121.122Y-90.764
X121.122Y-93.304
X121.122Y-95.844
X121.224Y-100.894
X121.224Y-103.434
X121.224Y-105.974
T0
M30
