G04 #@! TF.GenerationSoftware,KiCad,Pcbnew,no-vcs-found-ecdfa40~58~ubuntu16.04.1*
G04 #@! TF.CreationDate,2017-03-20T23:24:32+01:00*
G04 #@! TF.ProjectId,GhostSensorboard,47686F737453656E736F72626F617264,rev?*
G04 #@! TF.FileFunction,Soldermask,Bot*
G04 #@! TF.FilePolarity,Negative*
%FSLAX46Y46*%
G04 Gerber Fmt 4.6, Leading zero omitted, Abs format (unit mm)*
G04 Created by KiCad (PCBNEW no-vcs-found-ecdfa40~58~ubuntu16.04.1) date Mon Mar 20 23:24:32 2017*
%MOMM*%
%LPD*%
G01*
G04 APERTURE LIST*
%ADD10C,0.100000*%
%ADD11R,2.500000X0.350000*%
%ADD12C,0.700000*%
%ADD13C,1.100000*%
%ADD14O,1.700000X1.700000*%
%ADD15R,1.700000X1.700000*%
G04 APERTURE END LIST*
D10*
D11*
X97302380Y-89134580D03*
X97302380Y-89734580D03*
X97302380Y-90334580D03*
X97302380Y-90934580D03*
X97302380Y-91534580D03*
X97302380Y-92134580D03*
X97302380Y-92734580D03*
X97302380Y-93334580D03*
X97302380Y-93934580D03*
X97302380Y-94534580D03*
X97302380Y-95134580D03*
X97302380Y-95734580D03*
X97302380Y-96334580D03*
X97302380Y-96934580D03*
X97302380Y-97534580D03*
X97302380Y-98134580D03*
X97302380Y-98734580D03*
X97302380Y-99334580D03*
X97302380Y-99934580D03*
X97302380Y-100534580D03*
X102552380Y-100534580D03*
X102552380Y-99934580D03*
X102552380Y-99334580D03*
X102552380Y-98734580D03*
X102552380Y-98134580D03*
X102552380Y-97534580D03*
X102552380Y-96934580D03*
X102552380Y-96334580D03*
X102552380Y-95734580D03*
X102552380Y-95134580D03*
X102552380Y-94534580D03*
X102552380Y-93934580D03*
X102552380Y-93334580D03*
X102552380Y-92734580D03*
X102552380Y-92134580D03*
X102552380Y-91534580D03*
X102552380Y-90934580D03*
X102552380Y-90334580D03*
X102552380Y-89734580D03*
X102552380Y-89134580D03*
D12*
X98052380Y-102884580D03*
D13*
X98052380Y-86734580D03*
D14*
X77033120Y-93091000D03*
X77033120Y-95631000D03*
D15*
X77033120Y-98171000D03*
X121224040Y-100893880D03*
D14*
X121224040Y-103433880D03*
X121224040Y-105973880D03*
X121122440Y-95844360D03*
X121122440Y-93304360D03*
D15*
X121122440Y-90764360D03*
D14*
X103621840Y-106365040D03*
X101081840Y-106365040D03*
X98541840Y-106365040D03*
D15*
X96001840Y-106365040D03*
M02*
