  0
SECTION
  2
BLOCKS
  0
ENDSEC
  0
SECTION
  2
ENTITIES
  0
LINE
  8
0
 10
-33.952
 20
-28.3107
 11
-33.7027
 21
-28.2792
  0
LINE
  8
0
 10
-33.7027
 20
-28.2792
 11
-33.4559
 21
-28.2321
  0
LINE
  8
0
 10
-33.4559
 20
-28.2321
 11
-33.2125
 21
-28.1696
  0
LINE
  8
0
 10
-33.2125
 20
-28.1696
 11
-32.9735
 21
-28.0919
  0
LINE
  8
0
 10
-32.9735
 20
-28.0919
 11
-32.7398
 21
-27.9994
  0
LINE
  8
0
 10
-32.7398
 20
-27.9994
 11
-32.5125
 21
-27.8924
  0
LINE
  8
0
 10
-32.5125
 20
-27.8924
 11
-32.297
 21
-27.774
  0
LINE
  8
0
 10
-32.297
 20
-27.774
 11
-32.2071
 21
-27.864
  0
LINE
  8
0
 10
-32.2071
 20
-27.864
 11
-25.8431
 21
-21.5
  0
LINE
  8
0
 10
-25.8431
 20
-21.5
 11
25.8431
 21
-21.5
  0
LINE
  8
0
 10
25.8431
 20
-21.5
 11
32.2071
 21
-27.864
  0
LINE
  8
0
 10
32.2071
 20
-27.864
 11
32.297
 21
-27.774
  0
LINE
  8
0
 10
32.297
 20
-27.774
 11
32.5125
 21
-27.8924
  0
LINE
  8
0
 10
32.5125
 20
-27.8924
 11
32.7398
 21
-27.9994
  0
LINE
  8
0
 10
32.7398
 20
-27.9994
 11
32.9735
 21
-28.0919
  0
LINE
  8
0
 10
32.9735
 20
-28.0919
 11
33.2125
 21
-28.1696
  0
LINE
  8
0
 10
33.2125
 20
-28.1696
 11
33.4559
 21
-28.2321
  0
LINE
  8
0
 10
33.4559
 20
-28.2321
 11
33.7027
 21
-28.2792
  0
LINE
  8
0
 10
33.7027
 20
-28.2792
 11
33.952
 21
-28.3107
  0
LINE
  8
0
 10
33.952
 20
-28.3107
 11
34.2028
 21
-28.3264
  0
LINE
  8
0
 10
34.2028
 20
-28.3264
 11
34.4541
 21
-28.3264
  0
LINE
  8
0
 10
34.4541
 20
-28.3264
 11
34.7048
 21
-28.3107
  0
LINE
  8
0
 10
34.7048
 20
-28.3107
 11
34.9542
 21
-28.2792
  0
LINE
  8
0
 10
34.9542
 20
-28.2792
 11
35.201
 21
-28.2321
  0
LINE
  8
0
 10
35.201
 20
-28.2321
 11
35.4444
 21
-28.1696
  0
LINE
  8
0
 10
35.4444
 20
-28.1696
 11
35.6834
 21
-28.0919
  0
LINE
  8
0
 10
35.6834
 20
-28.0919
 11
35.917
 21
-27.9994
  0
LINE
  8
0
 10
35.917
 20
-27.9994
 11
36.1444
 21
-27.8924
  0
LINE
  8
0
 10
36.1444
 20
-27.8924
 11
36.3646
 21
-27.7714
  0
LINE
  8
0
 10
36.3646
 20
-27.7714
 11
36.5768
 21
-27.6367
  0
LINE
  8
0
 10
36.5768
 20
-27.6367
 11
36.78
 21
-27.489
  0
LINE
  8
0
 10
36.78
 20
-27.489
 11
36.9737
 21
-27.3289
  0
LINE
  8
0
 10
36.9737
 20
-27.3289
 11
37.1568
 21
-27.1568
  0
LINE
  8
0
 10
37.1568
 20
-27.1568
 11
37.3289
 21
-26.9737
  0
LINE
  8
0
 10
37.3289
 20
-26.9737
 11
37.489
 21
-26.78
  0
LINE
  8
0
 10
37.489
 20
-26.78
 11
37.6367
 21
-26.5768
  0
LINE
  8
0
 10
37.6367
 20
-26.5768
 11
37.7714
 21
-26.3646
  0
LINE
  8
0
 10
37.7714
 20
-26.3646
 11
37.8924
 21
-26.1444
  0
LINE
  8
0
 10
37.8924
 20
-26.1444
 11
37.9994
 21
-25.917
  0
LINE
  8
0
 10
37.9994
 20
-25.917
 11
38.0919
 21
-25.6834
  0
LINE
  8
0
 10
38.0919
 20
-25.6834
 11
38.1696
 21
-25.4444
  0
LINE
  8
0
 10
38.1696
 20
-25.4444
 11
38.2321
 21
-25.201
  0
LINE
  8
0
 10
38.2321
 20
-25.201
 11
38.2792
 21
-24.9542
  0
LINE
  8
0
 10
38.2792
 20
-24.9542
 11
38.3107
 21
-24.7048
  0
LINE
  8
0
 10
38.3107
 20
-24.7048
 11
38.3264
 21
-24.4541
  0
LINE
  8
0
 10
38.3264
 20
-24.4541
 11
38.3264
 21
-24.2028
  0
LINE
  8
0
 10
38.3264
 20
-24.2028
 11
38.3107
 21
-23.952
  0
LINE
  8
0
 10
38.3107
 20
-23.952
 11
38.2792
 21
-23.7027
  0
LINE
  8
0
 10
38.2792
 20
-23.7027
 11
38.2321
 21
-23.4558
  0
LINE
  8
0
 10
38.2321
 20
-23.4558
 11
38.1696
 21
-23.2125
  0
LINE
  8
0
 10
38.1696
 20
-23.2125
 11
38.0919
 21
-22.9735
  0
LINE
  8
0
 10
38.0919
 20
-22.9735
 11
37.9994
 21
-22.7398
  0
LINE
  8
0
 10
37.9994
 20
-22.7398
 11
37.8924
 21
-22.5125
  0
LINE
  8
0
 10
37.8924
 20
-22.5125
 11
37.774
 21
-22.297
  0
LINE
  8
0
 10
37.774
 20
-22.297
 11
37.864
 21
-22.2071
  0
LINE
  8
0
 10
37.864
 20
-22.2071
 11
31.5
 21
-15.8431
  0
LINE
  8
0
 10
31.5
 20
-15.8431
 11
31.5
 21
15.8431
  0
LINE
  8
0
 10
31.5
 20
15.8431
 11
37.864
 21
22.2071
  0
LINE
  8
0
 10
37.864
 20
22.2071
 11
37.774
 21
22.297
  0
LINE
  8
0
 10
37.774
 20
22.297
 11
37.8924
 21
22.5125
  0
LINE
  8
0
 10
37.8924
 20
22.5125
 11
37.9994
 21
22.7398
  0
LINE
  8
0
 10
37.9994
 20
22.7398
 11
38.0919
 21
22.9735
  0
LINE
  8
0
 10
38.0919
 20
22.9735
 11
38.1696
 21
23.2125
  0
LINE
  8
0
 10
38.1696
 20
23.2125
 11
38.2321
 21
23.4558
  0
LINE
  8
0
 10
38.2321
 20
23.4558
 11
38.2792
 21
23.7027
  0
LINE
  8
0
 10
38.2792
 20
23.7027
 11
38.3107
 21
23.952
  0
LINE
  8
0
 10
38.3107
 20
23.952
 11
38.3264
 21
24.2028
  0
LINE
  8
0
 10
38.3264
 20
24.2028
 11
38.3264
 21
24.4541
  0
LINE
  8
0
 10
38.3264
 20
24.4541
 11
38.3107
 21
24.7048
  0
LINE
  8
0
 10
38.3107
 20
24.7048
 11
38.2792
 21
24.9542
  0
LINE
  8
0
 10
38.2792
 20
24.9542
 11
38.2321
 21
25.201
  0
LINE
  8
0
 10
38.2321
 20
25.201
 11
38.1696
 21
25.4444
  0
LINE
  8
0
 10
38.1696
 20
25.4444
 11
38.0919
 21
25.6834
  0
LINE
  8
0
 10
38.0919
 20
25.6834
 11
37.9994
 21
25.917
  0
LINE
  8
0
 10
37.9994
 20
25.917
 11
37.8924
 21
26.1444
  0
LINE
  8
0
 10
37.8924
 20
26.1444
 11
37.7714
 21
26.3646
  0
LINE
  8
0
 10
37.7714
 20
26.3646
 11
37.6367
 21
26.5768
  0
LINE
  8
0
 10
37.6367
 20
26.5768
 11
37.489
 21
26.78
  0
LINE
  8
0
 10
37.489
 20
26.78
 11
37.3289
 21
26.9737
  0
LINE
  8
0
 10
37.3289
 20
26.9737
 11
37.1568
 21
27.1568
  0
LINE
  8
0
 10
37.1568
 20
27.1568
 11
36.9737
 21
27.3289
  0
LINE
  8
0
 10
36.9737
 20
27.3289
 11
36.78
 21
27.489
  0
LINE
  8
0
 10
36.78
 20
27.489
 11
36.5768
 21
27.6367
  0
LINE
  8
0
 10
36.5768
 20
27.6367
 11
36.3646
 21
27.7714
  0
LINE
  8
0
 10
36.3646
 20
27.7714
 11
36.1444
 21
27.8924
  0
LINE
  8
0
 10
36.1444
 20
27.8924
 11
35.917
 21
27.9994
  0
LINE
  8
0
 10
35.917
 20
27.9994
 11
35.6834
 21
28.0919
  0
LINE
  8
0
 10
35.6834
 20
28.0919
 11
35.4444
 21
28.1696
  0
LINE
  8
0
 10
35.4444
 20
28.1696
 11
35.201
 21
28.2321
  0
LINE
  8
0
 10
35.201
 20
28.2321
 11
34.9542
 21
28.2792
  0
LINE
  8
0
 10
34.9542
 20
28.2792
 11
34.7048
 21
28.3107
  0
LINE
  8
0
 10
34.7048
 20
28.3107
 11
34.4541
 21
28.3264
  0
LINE
  8
0
 10
34.4541
 20
28.3264
 11
34.2028
 21
28.3264
  0
LINE
  8
0
 10
34.2028
 20
28.3264
 11
33.952
 21
28.3107
  0
LINE
  8
0
 10
33.952
 20
28.3107
 11
33.7027
 21
28.2792
  0
LINE
  8
0
 10
33.7027
 20
28.2792
 11
33.4559
 21
28.2321
  0
LINE
  8
0
 10
33.4559
 20
28.2321
 11
33.2125
 21
28.1696
  0
LINE
  8
0
 10
33.2125
 20
28.1696
 11
32.9735
 21
28.0919
  0
LINE
  8
0
 10
32.9735
 20
28.0919
 11
32.7398
 21
27.9994
  0
LINE
  8
0
 10
32.7398
 20
27.9994
 11
32.5125
 21
27.8924
  0
LINE
  8
0
 10
32.5125
 20
27.8924
 11
32.297
 21
27.774
  0
LINE
  8
0
 10
32.297
 20
27.774
 11
32.2071
 21
27.864
  0
LINE
  8
0
 10
32.2071
 20
27.864
 11
25.8431
 21
21.5
  0
LINE
  8
0
 10
25.8431
 20
21.5
 11
-25.8431
 21
21.5
  0
LINE
  8
0
 10
-25.8431
 20
21.5
 11
-32.2071
 21
27.864
  0
LINE
  8
0
 10
-32.2071
 20
27.864
 11
-32.297
 21
27.774
  0
LINE
  8
0
 10
-32.297
 20
27.774
 11
-32.5125
 21
27.8924
  0
LINE
  8
0
 10
-32.5125
 20
27.8924
 11
-32.7398
 21
27.9994
  0
LINE
  8
0
 10
-32.7398
 20
27.9994
 11
-32.9735
 21
28.0919
  0
LINE
  8
0
 10
-32.9735
 20
28.0919
 11
-33.2125
 21
28.1696
  0
LINE
  8
0
 10
-33.2125
 20
28.1696
 11
-33.4559
 21
28.2321
  0
LINE
  8
0
 10
-33.4559
 20
28.2321
 11
-33.7027
 21
28.2792
  0
LINE
  8
0
 10
-33.7027
 20
28.2792
 11
-33.952
 21
28.3107
  0
LINE
  8
0
 10
-33.952
 20
28.3107
 11
-34.2028
 21
28.3264
  0
LINE
  8
0
 10
-34.2028
 20
28.3264
 11
-34.4541
 21
28.3264
  0
LINE
  8
0
 10
-34.4541
 20
28.3264
 11
-34.7048
 21
28.3107
  0
LINE
  8
0
 10
-34.7048
 20
28.3107
 11
-34.9542
 21
28.2792
  0
LINE
  8
0
 10
-34.9542
 20
28.2792
 11
-35.201
 21
28.2321
  0
LINE
  8
0
 10
-35.201
 20
28.2321
 11
-35.4444
 21
28.1696
  0
LINE
  8
0
 10
-35.4444
 20
28.1696
 11
-35.6834
 21
28.0919
  0
LINE
  8
0
 10
-35.6834
 20
28.0919
 11
-35.917
 21
27.9994
  0
LINE
  8
0
 10
-35.917
 20
27.9994
 11
-36.1444
 21
27.8924
  0
LINE
  8
0
 10
-36.1444
 20
27.8924
 11
-36.3646
 21
27.7714
  0
LINE
  8
0
 10
-36.3646
 20
27.7714
 11
-36.5768
 21
27.6367
  0
LINE
  8
0
 10
-36.5768
 20
27.6367
 11
-36.78
 21
27.489
  0
LINE
  8
0
 10
-36.78
 20
27.489
 11
-36.9737
 21
27.3289
  0
LINE
  8
0
 10
-36.9737
 20
27.3289
 11
-37.1568
 21
27.1568
  0
LINE
  8
0
 10
-37.1568
 20
27.1568
 11
-37.3289
 21
26.9737
  0
LINE
  8
0
 10
-37.3289
 20
26.9737
 11
-37.489
 21
26.78
  0
LINE
  8
0
 10
-37.489
 20
26.78
 11
-37.6367
 21
26.5768
  0
LINE
  8
0
 10
-37.6367
 20
26.5768
 11
-37.7714
 21
26.3646
  0
LINE
  8
0
 10
-37.7714
 20
26.3646
 11
-37.8924
 21
26.1444
  0
LINE
  8
0
 10
-37.8924
 20
26.1444
 11
-37.9994
 21
25.917
  0
LINE
  8
0
 10
-37.9994
 20
25.917
 11
-38.0919
 21
25.6834
  0
LINE
  8
0
 10
-38.0919
 20
25.6834
 11
-38.1696
 21
25.4444
  0
LINE
  8
0
 10
-38.1696
 20
25.4444
 11
-38.2321
 21
25.201
  0
LINE
  8
0
 10
-38.2321
 20
25.201
 11
-38.2792
 21
24.9542
  0
LINE
  8
0
 10
-38.2792
 20
24.9542
 11
-38.3107
 21
24.7048
  0
LINE
  8
0
 10
-38.3107
 20
24.7048
 11
-38.3264
 21
24.4541
  0
LINE
  8
0
 10
-38.3264
 20
24.4541
 11
-38.3264
 21
24.2028
  0
LINE
  8
0
 10
-38.3264
 20
24.2028
 11
-38.3107
 21
23.952
  0
LINE
  8
0
 10
-38.3107
 20
23.952
 11
-38.2792
 21
23.7027
  0
LINE
  8
0
 10
-38.2792
 20
23.7027
 11
-38.2321
 21
23.4558
  0
LINE
  8
0
 10
-38.2321
 20
23.4558
 11
-38.1696
 21
23.2125
  0
LINE
  8
0
 10
-38.1696
 20
23.2125
 11
-38.0919
 21
22.9735
  0
LINE
  8
0
 10
-38.0919
 20
22.9735
 11
-37.9994
 21
22.7398
  0
LINE
  8
0
 10
-37.9994
 20
22.7398
 11
-37.8924
 21
22.5125
  0
LINE
  8
0
 10
-37.8924
 20
22.5125
 11
-37.774
 21
22.297
  0
LINE
  8
0
 10
-37.774
 20
22.297
 11
-37.864
 21
22.2071
  0
LINE
  8
0
 10
-37.864
 20
22.2071
 11
-31.5
 21
15.8431
  0
LINE
  8
0
 10
-31.5
 20
15.8431
 11
-31.5
 21
-15.8431
  0
LINE
  8
0
 10
-31.5
 20
-15.8431
 11
-37.864
 21
-22.2071
  0
LINE
  8
0
 10
-37.864
 20
-22.2071
 11
-37.774
 21
-22.297
  0
LINE
  8
0
 10
-37.774
 20
-22.297
 11
-37.8924
 21
-22.5125
  0
LINE
  8
0
 10
-37.8924
 20
-22.5125
 11
-37.9994
 21
-22.7398
  0
LINE
  8
0
 10
-37.9994
 20
-22.7398
 11
-38.0919
 21
-22.9735
  0
LINE
  8
0
 10
-38.0919
 20
-22.9735
 11
-38.1696
 21
-23.2125
  0
LINE
  8
0
 10
-38.1696
 20
-23.2125
 11
-38.2321
 21
-23.4558
  0
LINE
  8
0
 10
-38.2321
 20
-23.4558
 11
-38.2792
 21
-23.7027
  0
LINE
  8
0
 10
-38.2792
 20
-23.7027
 11
-38.3107
 21
-23.952
  0
LINE
  8
0
 10
-38.3107
 20
-23.952
 11
-38.3264
 21
-24.2028
  0
LINE
  8
0
 10
-38.3264
 20
-24.2028
 11
-38.3264
 21
-24.4541
  0
LINE
  8
0
 10
-38.3264
 20
-24.4541
 11
-38.3107
 21
-24.7048
  0
LINE
  8
0
 10
-38.3107
 20
-24.7048
 11
-38.2792
 21
-24.9542
  0
LINE
  8
0
 10
-38.2792
 20
-24.9542
 11
-38.2321
 21
-25.201
  0
LINE
  8
0
 10
-38.2321
 20
-25.201
 11
-38.1696
 21
-25.4444
  0
LINE
  8
0
 10
-38.1696
 20
-25.4444
 11
-38.0919
 21
-25.6834
  0
LINE
  8
0
 10
-38.0919
 20
-25.6834
 11
-37.9994
 21
-25.917
  0
LINE
  8
0
 10
-37.9994
 20
-25.917
 11
-37.8924
 21
-26.1444
  0
LINE
  8
0
 10
-37.8924
 20
-26.1444
 11
-37.7714
 21
-26.3646
  0
LINE
  8
0
 10
-37.7714
 20
-26.3646
 11
-37.6367
 21
-26.5768
  0
LINE
  8
0
 10
-37.6367
 20
-26.5768
 11
-37.489
 21
-26.78
  0
LINE
  8
0
 10
-37.489
 20
-26.78
 11
-37.3289
 21
-26.9737
  0
LINE
  8
0
 10
-37.3289
 20
-26.9737
 11
-37.1568
 21
-27.1568
  0
LINE
  8
0
 10
-37.1568
 20
-27.1568
 11
-36.9737
 21
-27.3289
  0
LINE
  8
0
 10
-36.9737
 20
-27.3289
 11
-36.78
 21
-27.489
  0
LINE
  8
0
 10
-36.78
 20
-27.489
 11
-36.5768
 21
-27.6367
  0
LINE
  8
0
 10
-36.5768
 20
-27.6367
 11
-36.3646
 21
-27.7714
  0
LINE
  8
0
 10
-36.3646
 20
-27.7714
 11
-36.1444
 21
-27.8924
  0
LINE
  8
0
 10
-36.1444
 20
-27.8924
 11
-35.917
 21
-27.9994
  0
LINE
  8
0
 10
-35.917
 20
-27.9994
 11
-35.6834
 21
-28.0919
  0
LINE
  8
0
 10
-35.6834
 20
-28.0919
 11
-35.4444
 21
-28.1696
  0
LINE
  8
0
 10
-35.4444
 20
-28.1696
 11
-35.201
 21
-28.2321
  0
LINE
  8
0
 10
-35.201
 20
-28.2321
 11
-34.9542
 21
-28.2792
  0
LINE
  8
0
 10
-34.9542
 20
-28.2792
 11
-34.7048
 21
-28.3107
  0
LINE
  8
0
 10
-34.7048
 20
-28.3107
 11
-34.4541
 21
-28.3264
  0
LINE
  8
0
 10
-34.4541
 20
-28.3264
 11
-34.2028
 21
-28.3264
  0
LINE
  8
0
 10
-34.2028
 20
-28.3264
 11
-33.952
 21
-28.3107
  0
ENDSEC
  0
SECTION
  2
OBJECTS
  0
DICTIONARY
  0
ENDSEC
  0
EOF
