G04 #@! TF.FileFunction,Soldermask,Bot*
%FSLAX46Y46*%
G04 Gerber Fmt 4.6, Leading zero omitted, Abs format (unit mm)*
G04 Created by KiCad (PCBNEW 4.0.2-stable) date 20.06.2016 22.34.35*
%MOMM*%
G01*
G04 APERTURE LIST*
%ADD10C,0.100000*%
%ADD11R,2.127200X2.432000*%
%ADD12O,2.127200X2.432000*%
%ADD13R,2.432000X2.127200*%
%ADD14O,2.432000X2.127200*%
%ADD15C,2.300000*%
%ADD16C,4.400000*%
G04 APERTURE END LIST*
D10*
D11*
X141224000Y-128778000D03*
D12*
X143764000Y-128778000D03*
X146304000Y-128778000D03*
D11*
X157480000Y-128905000D03*
D12*
X154940000Y-128905000D03*
X152400000Y-128905000D03*
D13*
X164719000Y-128905000D03*
D14*
X164719000Y-126365000D03*
X164719000Y-123825000D03*
D11*
X150876000Y-81153000D03*
D12*
X153416000Y-81153000D03*
X155956000Y-81153000D03*
D11*
X153543000Y-74803000D03*
D12*
X156083000Y-74803000D03*
X158623000Y-74803000D03*
D15*
X126619000Y-111887000D03*
X129159000Y-111887000D03*
X131699000Y-111887000D03*
X134239000Y-111887000D03*
X136779000Y-111887000D03*
X139319000Y-111887000D03*
X141859000Y-111887000D03*
X144399000Y-111887000D03*
X146939000Y-111887000D03*
X149479000Y-111887000D03*
X152019000Y-111887000D03*
X154559000Y-111887000D03*
X157099000Y-111887000D03*
X157099000Y-96647000D03*
X154559000Y-96647000D03*
X152019000Y-96647000D03*
X149479000Y-96647000D03*
X146939000Y-96647000D03*
X144399000Y-96647000D03*
X141859000Y-96647000D03*
X139319000Y-96647000D03*
X136779000Y-96647000D03*
X134239000Y-96647000D03*
X131699000Y-96647000D03*
X129159000Y-96647000D03*
X126619000Y-96647000D03*
X124079000Y-96647000D03*
X124079000Y-111887000D03*
X157099000Y-99187000D03*
X157099000Y-101727000D03*
X157099000Y-104267000D03*
X157099000Y-106807000D03*
X157099000Y-109347000D03*
X126619000Y-99187000D03*
X131699000Y-99187000D03*
X134239000Y-99187000D03*
X136779000Y-99187000D03*
D13*
X143510000Y-74930000D03*
D14*
X143510000Y-77470000D03*
X143510000Y-80010000D03*
X143510000Y-82550000D03*
D16*
X111252000Y-103632000D03*
X180975000Y-130048000D03*
X180975000Y-74676000D03*
X163576000Y-99314000D03*
X163830000Y-108585000D03*
M02*
