G04 #@! TF.GenerationSoftware,KiCad,Pcbnew,no-vcs-found-aeac415~59~ubuntu16.04.1*
G04 #@! TF.CreationDate,2017-08-23T23:17:54+02:00*
G04 #@! TF.ProjectId,GhostESP32,47686F737445535033322E6B69636164,rev?*
G04 #@! TF.SameCoordinates,Original*
G04 #@! TF.FileFunction,Legend,Bot*
G04 #@! TF.FilePolarity,Positive*
%FSLAX46Y46*%
G04 Gerber Fmt 4.6, Leading zero omitted, Abs format (unit mm)*
G04 Created by KiCad (PCBNEW no-vcs-found-aeac415~59~ubuntu16.04.1) date Wed Aug 23 23:17:54 2017*
%MOMM*%
%LPD*%
G01*
G04 APERTURE LIST*
%ADD10C,0.300000*%
G04 APERTURE END LIST*
D10*
X167900000Y-89457142D02*
X167828571Y-89314285D01*
X167828571Y-89100000D01*
X167900000Y-88885714D01*
X168042857Y-88742857D01*
X168185714Y-88671428D01*
X168471428Y-88600000D01*
X168685714Y-88600000D01*
X168971428Y-88671428D01*
X169114285Y-88742857D01*
X169257142Y-88885714D01*
X169328571Y-89100000D01*
X169328571Y-89242857D01*
X169257142Y-89457142D01*
X169185714Y-89528571D01*
X168685714Y-89528571D01*
X168685714Y-89242857D01*
X169328571Y-90171428D02*
X167828571Y-90171428D01*
X169328571Y-91028571D01*
X167828571Y-91028571D01*
X169328571Y-91742857D02*
X167828571Y-91742857D01*
X167828571Y-92100000D01*
X167900000Y-92314285D01*
X168042857Y-92457142D01*
X168185714Y-92528571D01*
X168471428Y-92600000D01*
X168685714Y-92600000D01*
X168971428Y-92528571D01*
X169114285Y-92457142D01*
X169257142Y-92314285D01*
X169328571Y-92100000D01*
X169328571Y-91742857D01*
X166778571Y-88621428D02*
X165278571Y-88621428D01*
X165278571Y-89192857D02*
X165278571Y-90121428D01*
X165850000Y-89621428D01*
X165850000Y-89835714D01*
X165921428Y-89978571D01*
X165992857Y-90050000D01*
X166135714Y-90121428D01*
X166492857Y-90121428D01*
X166635714Y-90050000D01*
X166707142Y-89978571D01*
X166778571Y-89835714D01*
X166778571Y-89407142D01*
X166707142Y-89264285D01*
X166635714Y-89192857D01*
X165278571Y-91407142D02*
X165278571Y-91121428D01*
X165350000Y-90978571D01*
X165421428Y-90907142D01*
X165635714Y-90764285D01*
X165921428Y-90692857D01*
X166492857Y-90692857D01*
X166635714Y-90764285D01*
X166707142Y-90835714D01*
X166778571Y-90978571D01*
X166778571Y-91264285D01*
X166707142Y-91407142D01*
X166635714Y-91478571D01*
X166492857Y-91550000D01*
X166135714Y-91550000D01*
X165992857Y-91478571D01*
X165921428Y-91407142D01*
X165850000Y-91264285D01*
X165850000Y-90978571D01*
X165921428Y-90835714D01*
X165992857Y-90764285D01*
X166135714Y-90692857D01*
X164128571Y-88621428D02*
X162628571Y-88621428D01*
X162628571Y-89192857D02*
X162628571Y-90121428D01*
X163200000Y-89621428D01*
X163200000Y-89835714D01*
X163271428Y-89978571D01*
X163342857Y-90050000D01*
X163485714Y-90121428D01*
X163842857Y-90121428D01*
X163985714Y-90050000D01*
X164057142Y-89978571D01*
X164128571Y-89835714D01*
X164128571Y-89407142D01*
X164057142Y-89264285D01*
X163985714Y-89192857D01*
X164128571Y-90835714D02*
X164128571Y-91121428D01*
X164057142Y-91264285D01*
X163985714Y-91335714D01*
X163771428Y-91478571D01*
X163485714Y-91550000D01*
X162914285Y-91550000D01*
X162771428Y-91478571D01*
X162700000Y-91407142D01*
X162628571Y-91264285D01*
X162628571Y-90978571D01*
X162700000Y-90835714D01*
X162771428Y-90764285D01*
X162914285Y-90692857D01*
X163271428Y-90692857D01*
X163414285Y-90764285D01*
X163485714Y-90835714D01*
X163557142Y-90978571D01*
X163557142Y-91264285D01*
X163485714Y-91407142D01*
X163414285Y-91478571D01*
X163271428Y-91550000D01*
X161678571Y-88621428D02*
X160178571Y-88621428D01*
X160178571Y-89192857D02*
X160178571Y-90121428D01*
X160750000Y-89621428D01*
X160750000Y-89835714D01*
X160821428Y-89978571D01*
X160892857Y-90050000D01*
X161035714Y-90121428D01*
X161392857Y-90121428D01*
X161535714Y-90050000D01*
X161607142Y-89978571D01*
X161678571Y-89835714D01*
X161678571Y-89407142D01*
X161607142Y-89264285D01*
X161535714Y-89192857D01*
X160678571Y-91407142D02*
X161678571Y-91407142D01*
X160107142Y-91050000D02*
X161178571Y-90692857D01*
X161178571Y-91621428D01*
X159078571Y-88635714D02*
X157578571Y-88635714D01*
X157578571Y-89635714D02*
X157578571Y-89921428D01*
X157650000Y-90064285D01*
X157792857Y-90207142D01*
X158078571Y-90278571D01*
X158578571Y-90278571D01*
X158864285Y-90207142D01*
X159007142Y-90064285D01*
X159078571Y-89921428D01*
X159078571Y-89635714D01*
X159007142Y-89492857D01*
X158864285Y-89350000D01*
X158578571Y-89278571D01*
X158078571Y-89278571D01*
X157792857Y-89350000D01*
X157650000Y-89492857D01*
X157578571Y-89635714D01*
X157721428Y-90850000D02*
X157650000Y-90921428D01*
X157578571Y-91064285D01*
X157578571Y-91421428D01*
X157650000Y-91564285D01*
X157721428Y-91635714D01*
X157864285Y-91707142D01*
X158007142Y-91707142D01*
X158221428Y-91635714D01*
X159078571Y-90778571D01*
X159078571Y-91707142D01*
X157578571Y-93064285D02*
X157578571Y-92350000D01*
X158292857Y-92278571D01*
X158221428Y-92350000D01*
X158150000Y-92492857D01*
X158150000Y-92850000D01*
X158221428Y-92992857D01*
X158292857Y-93064285D01*
X158435714Y-93135714D01*
X158792857Y-93135714D01*
X158935714Y-93064285D01*
X159007142Y-92992857D01*
X159078571Y-92850000D01*
X159078571Y-92492857D01*
X159007142Y-92350000D01*
X158935714Y-92278571D01*
X156528571Y-88635714D02*
X155028571Y-88635714D01*
X155028571Y-89635714D02*
X155028571Y-89921428D01*
X155100000Y-90064285D01*
X155242857Y-90207142D01*
X155528571Y-90278571D01*
X156028571Y-90278571D01*
X156314285Y-90207142D01*
X156457142Y-90064285D01*
X156528571Y-89921428D01*
X156528571Y-89635714D01*
X156457142Y-89492857D01*
X156314285Y-89350000D01*
X156028571Y-89278571D01*
X155528571Y-89278571D01*
X155242857Y-89350000D01*
X155100000Y-89492857D01*
X155028571Y-89635714D01*
X156528571Y-91707142D02*
X156528571Y-90850000D01*
X156528571Y-91278571D02*
X155028571Y-91278571D01*
X155242857Y-91135714D01*
X155385714Y-90992857D01*
X155457142Y-90850000D01*
X155528571Y-92992857D02*
X156528571Y-92992857D01*
X154957142Y-92635714D02*
X156028571Y-92278571D01*
X156028571Y-93207142D01*
X154028571Y-88635714D02*
X152528571Y-88635714D01*
X152528571Y-89635714D02*
X152528571Y-89921428D01*
X152600000Y-90064285D01*
X152742857Y-90207142D01*
X153028571Y-90278571D01*
X153528571Y-90278571D01*
X153814285Y-90207142D01*
X153957142Y-90064285D01*
X154028571Y-89921428D01*
X154028571Y-89635714D01*
X153957142Y-89492857D01*
X153814285Y-89350000D01*
X153528571Y-89278571D01*
X153028571Y-89278571D01*
X152742857Y-89350000D01*
X152600000Y-89492857D01*
X152528571Y-89635714D01*
X154028571Y-91707142D02*
X154028571Y-90850000D01*
X154028571Y-91278571D02*
X152528571Y-91278571D01*
X152742857Y-91135714D01*
X152885714Y-90992857D01*
X152957142Y-90850000D01*
X152528571Y-92207142D02*
X152528571Y-93135714D01*
X153100000Y-92635714D01*
X153100000Y-92850000D01*
X153171428Y-92992857D01*
X153242857Y-93064285D01*
X153385714Y-93135714D01*
X153742857Y-93135714D01*
X153885714Y-93064285D01*
X153957142Y-92992857D01*
X154028571Y-92850000D01*
X154028571Y-92421428D01*
X153957142Y-92278571D01*
X153885714Y-92207142D01*
X151307142Y-88707142D02*
X151378571Y-88921428D01*
X151378571Y-89278571D01*
X151307142Y-89421428D01*
X151235714Y-89492857D01*
X151092857Y-89564285D01*
X150950000Y-89564285D01*
X150807142Y-89492857D01*
X150735714Y-89421428D01*
X150664285Y-89278571D01*
X150592857Y-88992857D01*
X150521428Y-88850000D01*
X150450000Y-88778571D01*
X150307142Y-88707142D01*
X150164285Y-88707142D01*
X150021428Y-88778571D01*
X149950000Y-88850000D01*
X149878571Y-88992857D01*
X149878571Y-89350000D01*
X149950000Y-89564285D01*
X151235714Y-91064285D02*
X151307142Y-90992857D01*
X151378571Y-90778571D01*
X151378571Y-90635714D01*
X151307142Y-90421428D01*
X151164285Y-90278571D01*
X151021428Y-90207142D01*
X150735714Y-90135714D01*
X150521428Y-90135714D01*
X150235714Y-90207142D01*
X150092857Y-90278571D01*
X149950000Y-90421428D01*
X149878571Y-90635714D01*
X149878571Y-90778571D01*
X149950000Y-90992857D01*
X150021428Y-91064285D01*
X151378571Y-92421428D02*
X151378571Y-91707142D01*
X149878571Y-91707142D01*
X149807142Y-93992857D02*
X151735714Y-92707142D01*
X151378571Y-94492857D02*
X149878571Y-94492857D01*
X149878571Y-95492857D02*
X149878571Y-95778571D01*
X149950000Y-95921428D01*
X150092857Y-96064285D01*
X150378571Y-96135714D01*
X150878571Y-96135714D01*
X151164285Y-96064285D01*
X151307142Y-95921428D01*
X151378571Y-95778571D01*
X151378571Y-95492857D01*
X151307142Y-95350000D01*
X151164285Y-95207142D01*
X150878571Y-95135714D01*
X150378571Y-95135714D01*
X150092857Y-95207142D01*
X149950000Y-95350000D01*
X149878571Y-95492857D01*
X149878571Y-96635714D02*
X149878571Y-97564285D01*
X150450000Y-97064285D01*
X150450000Y-97278571D01*
X150521428Y-97421428D01*
X150592857Y-97492857D01*
X150735714Y-97564285D01*
X151092857Y-97564285D01*
X151235714Y-97492857D01*
X151307142Y-97421428D01*
X151378571Y-97278571D01*
X151378571Y-96850000D01*
X151307142Y-96707142D01*
X151235714Y-96635714D01*
X150021428Y-98135714D02*
X149950000Y-98207142D01*
X149878571Y-98350000D01*
X149878571Y-98707142D01*
X149950000Y-98850000D01*
X150021428Y-98921428D01*
X150164285Y-98992857D01*
X150307142Y-98992857D01*
X150521428Y-98921428D01*
X151378571Y-98064285D01*
X151378571Y-98992857D01*
X148807142Y-88721428D02*
X148878571Y-88935714D01*
X148878571Y-89292857D01*
X148807142Y-89435714D01*
X148735714Y-89507142D01*
X148592857Y-89578571D01*
X148450000Y-89578571D01*
X148307142Y-89507142D01*
X148235714Y-89435714D01*
X148164285Y-89292857D01*
X148092857Y-89007142D01*
X148021428Y-88864285D01*
X147950000Y-88792857D01*
X147807142Y-88721428D01*
X147664285Y-88721428D01*
X147521428Y-88792857D01*
X147450000Y-88864285D01*
X147378571Y-89007142D01*
X147378571Y-89364285D01*
X147450000Y-89578571D01*
X148878571Y-90221428D02*
X147378571Y-90221428D01*
X147378571Y-90578571D01*
X147450000Y-90792857D01*
X147592857Y-90935714D01*
X147735714Y-91007142D01*
X148021428Y-91078571D01*
X148235714Y-91078571D01*
X148521428Y-91007142D01*
X148664285Y-90935714D01*
X148807142Y-90792857D01*
X148878571Y-90578571D01*
X148878571Y-90221428D01*
X148450000Y-91650000D02*
X148450000Y-92364285D01*
X148878571Y-91507142D02*
X147378571Y-92007142D01*
X148878571Y-92507142D01*
X147307142Y-94078571D02*
X149235714Y-92792857D01*
X148878571Y-94578571D02*
X147378571Y-94578571D01*
X147378571Y-95578571D02*
X147378571Y-95864285D01*
X147450000Y-96007142D01*
X147592857Y-96150000D01*
X147878571Y-96221428D01*
X148378571Y-96221428D01*
X148664285Y-96150000D01*
X148807142Y-96007142D01*
X148878571Y-95864285D01*
X148878571Y-95578571D01*
X148807142Y-95435714D01*
X148664285Y-95292857D01*
X148378571Y-95221428D01*
X147878571Y-95221428D01*
X147592857Y-95292857D01*
X147450000Y-95435714D01*
X147378571Y-95578571D01*
X147378571Y-96721428D02*
X147378571Y-97650000D01*
X147950000Y-97150000D01*
X147950000Y-97364285D01*
X148021428Y-97507142D01*
X148092857Y-97578571D01*
X148235714Y-97650000D01*
X148592857Y-97650000D01*
X148735714Y-97578571D01*
X148807142Y-97507142D01*
X148878571Y-97364285D01*
X148878571Y-96935714D01*
X148807142Y-96792857D01*
X148735714Y-96721428D01*
X147378571Y-98150000D02*
X147378571Y-99078571D01*
X147950000Y-98578571D01*
X147950000Y-98792857D01*
X148021428Y-98935714D01*
X148092857Y-99007142D01*
X148235714Y-99078571D01*
X148592857Y-99078571D01*
X148735714Y-99007142D01*
X148807142Y-98935714D01*
X148878571Y-98792857D01*
X148878571Y-98364285D01*
X148807142Y-98221428D01*
X148735714Y-98150000D01*
X146378571Y-88635714D02*
X144878571Y-88635714D01*
X144878571Y-89635714D02*
X144878571Y-89921428D01*
X144950000Y-90064285D01*
X145092857Y-90207142D01*
X145378571Y-90278571D01*
X145878571Y-90278571D01*
X146164285Y-90207142D01*
X146307142Y-90064285D01*
X146378571Y-89921428D01*
X146378571Y-89635714D01*
X146307142Y-89492857D01*
X146164285Y-89350000D01*
X145878571Y-89278571D01*
X145378571Y-89278571D01*
X145092857Y-89350000D01*
X144950000Y-89492857D01*
X144878571Y-89635714D01*
X145021428Y-90850000D02*
X144950000Y-90921428D01*
X144878571Y-91064285D01*
X144878571Y-91421428D01*
X144950000Y-91564285D01*
X145021428Y-91635714D01*
X145164285Y-91707142D01*
X145307142Y-91707142D01*
X145521428Y-91635714D01*
X146378571Y-90778571D01*
X146378571Y-91707142D01*
X144878571Y-92992857D02*
X144878571Y-92707142D01*
X144950000Y-92564285D01*
X145021428Y-92492857D01*
X145235714Y-92350000D01*
X145521428Y-92278571D01*
X146092857Y-92278571D01*
X146235714Y-92350000D01*
X146307142Y-92421428D01*
X146378571Y-92564285D01*
X146378571Y-92850000D01*
X146307142Y-92992857D01*
X146235714Y-93064285D01*
X146092857Y-93135714D01*
X145735714Y-93135714D01*
X145592857Y-93064285D01*
X145521428Y-92992857D01*
X145450000Y-92850000D01*
X145450000Y-92564285D01*
X145521428Y-92421428D01*
X145592857Y-92350000D01*
X145735714Y-92278571D01*
X143878571Y-88635714D02*
X142378571Y-88635714D01*
X142378571Y-89635714D02*
X142378571Y-89921428D01*
X142450000Y-90064285D01*
X142592857Y-90207142D01*
X142878571Y-90278571D01*
X143378571Y-90278571D01*
X143664285Y-90207142D01*
X143807142Y-90064285D01*
X143878571Y-89921428D01*
X143878571Y-89635714D01*
X143807142Y-89492857D01*
X143664285Y-89350000D01*
X143378571Y-89278571D01*
X142878571Y-89278571D01*
X142592857Y-89350000D01*
X142450000Y-89492857D01*
X142378571Y-89635714D01*
X142521428Y-90850000D02*
X142450000Y-90921428D01*
X142378571Y-91064285D01*
X142378571Y-91421428D01*
X142450000Y-91564285D01*
X142521428Y-91635714D01*
X142664285Y-91707142D01*
X142807142Y-91707142D01*
X143021428Y-91635714D01*
X143878571Y-90778571D01*
X143878571Y-91707142D01*
X142378571Y-92207142D02*
X142378571Y-93207142D01*
X143878571Y-92564285D01*
X139778571Y-88742857D02*
X139778571Y-89671428D01*
X140350000Y-89171428D01*
X140350000Y-89385714D01*
X140421428Y-89528571D01*
X140492857Y-89600000D01*
X140635714Y-89671428D01*
X140992857Y-89671428D01*
X141135714Y-89600000D01*
X141207142Y-89528571D01*
X141278571Y-89385714D01*
X141278571Y-88957142D01*
X141207142Y-88814285D01*
X141135714Y-88742857D01*
X139778571Y-90100000D02*
X141278571Y-90600000D01*
X139778571Y-91100000D01*
X139778571Y-91457142D02*
X139778571Y-92385714D01*
X140350000Y-91885714D01*
X140350000Y-92100000D01*
X140421428Y-92242857D01*
X140492857Y-92314285D01*
X140635714Y-92385714D01*
X140992857Y-92385714D01*
X141135714Y-92314285D01*
X141207142Y-92242857D01*
X141278571Y-92100000D01*
X141278571Y-91671428D01*
X141207142Y-91528571D01*
X141135714Y-91457142D01*
X128350000Y-89707142D02*
X128278571Y-89564285D01*
X128278571Y-89350000D01*
X128350000Y-89135714D01*
X128492857Y-88992857D01*
X128635714Y-88921428D01*
X128921428Y-88850000D01*
X129135714Y-88850000D01*
X129421428Y-88921428D01*
X129564285Y-88992857D01*
X129707142Y-89135714D01*
X129778571Y-89350000D01*
X129778571Y-89492857D01*
X129707142Y-89707142D01*
X129635714Y-89778571D01*
X129135714Y-89778571D01*
X129135714Y-89492857D01*
X129778571Y-90421428D02*
X128278571Y-90421428D01*
X129778571Y-91278571D01*
X128278571Y-91278571D01*
X129778571Y-91992857D02*
X128278571Y-91992857D01*
X128278571Y-92350000D01*
X128350000Y-92564285D01*
X128492857Y-92707142D01*
X128635714Y-92778571D01*
X128921428Y-92850000D01*
X129135714Y-92850000D01*
X129421428Y-92778571D01*
X129564285Y-92707142D01*
X129707142Y-92564285D01*
X129778571Y-92350000D01*
X129778571Y-91992857D01*
X126607142Y-88857142D02*
X126607142Y-90000000D01*
X127178571Y-89428571D02*
X126035714Y-89428571D01*
X125678571Y-91428571D02*
X125678571Y-90714285D01*
X126392857Y-90642857D01*
X126321428Y-90714285D01*
X126250000Y-90857142D01*
X126250000Y-91214285D01*
X126321428Y-91357142D01*
X126392857Y-91428571D01*
X126535714Y-91500000D01*
X126892857Y-91500000D01*
X127035714Y-91428571D01*
X127107142Y-91357142D01*
X127178571Y-91214285D01*
X127178571Y-90857142D01*
X127107142Y-90714285D01*
X127035714Y-90642857D01*
X125678571Y-91928571D02*
X127178571Y-92428571D01*
X125678571Y-92928571D01*
X126392857Y-94571428D02*
X126392857Y-95071428D01*
X127178571Y-95285714D02*
X127178571Y-94571428D01*
X125678571Y-94571428D01*
X125678571Y-95285714D01*
X127107142Y-95857142D02*
X127178571Y-96071428D01*
X127178571Y-96428571D01*
X127107142Y-96571428D01*
X127035714Y-96642857D01*
X126892857Y-96714285D01*
X126750000Y-96714285D01*
X126607142Y-96642857D01*
X126535714Y-96571428D01*
X126464285Y-96428571D01*
X126392857Y-96142857D01*
X126321428Y-96000000D01*
X126250000Y-95928571D01*
X126107142Y-95857142D01*
X125964285Y-95857142D01*
X125821428Y-95928571D01*
X125750000Y-96000000D01*
X125678571Y-96142857D01*
X125678571Y-96500000D01*
X125750000Y-96714285D01*
X127035714Y-98214285D02*
X127107142Y-98142857D01*
X127178571Y-97928571D01*
X127178571Y-97785714D01*
X127107142Y-97571428D01*
X126964285Y-97428571D01*
X126821428Y-97357142D01*
X126535714Y-97285714D01*
X126321428Y-97285714D01*
X126035714Y-97357142D01*
X125892857Y-97428571D01*
X125750000Y-97571428D01*
X125678571Y-97785714D01*
X125678571Y-97928571D01*
X125750000Y-98142857D01*
X125821428Y-98214285D01*
X124728571Y-88871428D02*
X123228571Y-88871428D01*
X124300000Y-89371428D01*
X123228571Y-89871428D01*
X124728571Y-89871428D01*
X123228571Y-90871428D02*
X123228571Y-91157142D01*
X123300000Y-91300000D01*
X123442857Y-91442857D01*
X123728571Y-91514285D01*
X124228571Y-91514285D01*
X124514285Y-91442857D01*
X124657142Y-91300000D01*
X124728571Y-91157142D01*
X124728571Y-90871428D01*
X124657142Y-90728571D01*
X124514285Y-90585714D01*
X124228571Y-90514285D01*
X123728571Y-90514285D01*
X123442857Y-90585714D01*
X123300000Y-90728571D01*
X123228571Y-90871428D01*
X123228571Y-91942857D02*
X123228571Y-92800000D01*
X124728571Y-92371428D02*
X123228571Y-92371428D01*
X123228571Y-93585714D02*
X123228571Y-93871428D01*
X123300000Y-94014285D01*
X123442857Y-94157142D01*
X123728571Y-94228571D01*
X124228571Y-94228571D01*
X124514285Y-94157142D01*
X124657142Y-94014285D01*
X124728571Y-93871428D01*
X124728571Y-93585714D01*
X124657142Y-93442857D01*
X124514285Y-93300000D01*
X124228571Y-93228571D01*
X123728571Y-93228571D01*
X123442857Y-93300000D01*
X123300000Y-93442857D01*
X123228571Y-93585714D01*
X124728571Y-95728571D02*
X124014285Y-95228571D01*
X124728571Y-94871428D02*
X123228571Y-94871428D01*
X123228571Y-95442857D01*
X123300000Y-95585714D01*
X123371428Y-95657142D01*
X123514285Y-95728571D01*
X123728571Y-95728571D01*
X123871428Y-95657142D01*
X123942857Y-95585714D01*
X124014285Y-95442857D01*
X124014285Y-94871428D01*
X124728571Y-97514285D02*
X123228571Y-97514285D01*
X123228571Y-98085714D01*
X123300000Y-98228571D01*
X123371428Y-98300000D01*
X123514285Y-98371428D01*
X123728571Y-98371428D01*
X123871428Y-98300000D01*
X123942857Y-98228571D01*
X124014285Y-98085714D01*
X124014285Y-97514285D01*
X123228571Y-98871428D02*
X124728571Y-99228571D01*
X123657142Y-99514285D01*
X124728571Y-99800000D01*
X123228571Y-100157142D01*
X124728571Y-100728571D02*
X123228571Y-100728571D01*
X124300000Y-101228571D01*
X123228571Y-101728571D01*
X124728571Y-101728571D01*
X126107142Y-106514285D02*
X126178571Y-106728571D01*
X126178571Y-107085714D01*
X126107142Y-107228571D01*
X126035714Y-107300000D01*
X125892857Y-107371428D01*
X125750000Y-107371428D01*
X125607142Y-107300000D01*
X125535714Y-107228571D01*
X125464285Y-107085714D01*
X125392857Y-106800000D01*
X125321428Y-106657142D01*
X125250000Y-106585714D01*
X125107142Y-106514285D01*
X124964285Y-106514285D01*
X124821428Y-106585714D01*
X124750000Y-106657142D01*
X124678571Y-106800000D01*
X124678571Y-107157142D01*
X124750000Y-107371428D01*
X124678571Y-107800000D02*
X124678571Y-108657142D01*
X126178571Y-108228571D02*
X124678571Y-108228571D01*
X125392857Y-109157142D02*
X125392857Y-109657142D01*
X126178571Y-109871428D02*
X126178571Y-109157142D01*
X124678571Y-109157142D01*
X124678571Y-109871428D01*
X125392857Y-110514285D02*
X125392857Y-111014285D01*
X126178571Y-111228571D02*
X126178571Y-110514285D01*
X124678571Y-110514285D01*
X124678571Y-111228571D01*
X126178571Y-112728571D02*
X125464285Y-112228571D01*
X126178571Y-111871428D02*
X124678571Y-111871428D01*
X124678571Y-112442857D01*
X124750000Y-112585714D01*
X124821428Y-112657142D01*
X124964285Y-112728571D01*
X125178571Y-112728571D01*
X125321428Y-112657142D01*
X125392857Y-112585714D01*
X125464285Y-112442857D01*
X125464285Y-111871428D01*
X126178571Y-113371428D02*
X124678571Y-113371428D01*
X126178571Y-114085714D02*
X124678571Y-114085714D01*
X126178571Y-114942857D01*
X124678571Y-114942857D01*
X124750000Y-116442857D02*
X124678571Y-116300000D01*
X124678571Y-116085714D01*
X124750000Y-115871428D01*
X124892857Y-115728571D01*
X125035714Y-115657142D01*
X125321428Y-115585714D01*
X125535714Y-115585714D01*
X125821428Y-115657142D01*
X125964285Y-115728571D01*
X126107142Y-115871428D01*
X126178571Y-116085714D01*
X126178571Y-116228571D01*
X126107142Y-116442857D01*
X126035714Y-116514285D01*
X125535714Y-116514285D01*
X125535714Y-116228571D01*
X126178571Y-118300000D02*
X124678571Y-118300000D01*
X124678571Y-118871428D01*
X124750000Y-119014285D01*
X124821428Y-119085714D01*
X124964285Y-119157142D01*
X125178571Y-119157142D01*
X125321428Y-119085714D01*
X125392857Y-119014285D01*
X125464285Y-118871428D01*
X125464285Y-118300000D01*
X124678571Y-119657142D02*
X126178571Y-120014285D01*
X125107142Y-120300000D01*
X126178571Y-120585714D01*
X124678571Y-120942857D01*
X126178571Y-121514285D02*
X124678571Y-121514285D01*
X125750000Y-122014285D01*
X124678571Y-122514285D01*
X126178571Y-122514285D01*
X128407142Y-118521428D02*
X128407142Y-119664285D01*
X128978571Y-119092857D02*
X127835714Y-119092857D01*
X127478571Y-121092857D02*
X127478571Y-120378571D01*
X128192857Y-120307142D01*
X128121428Y-120378571D01*
X128050000Y-120521428D01*
X128050000Y-120878571D01*
X128121428Y-121021428D01*
X128192857Y-121092857D01*
X128335714Y-121164285D01*
X128692857Y-121164285D01*
X128835714Y-121092857D01*
X128907142Y-121021428D01*
X128978571Y-120878571D01*
X128978571Y-120521428D01*
X128907142Y-120378571D01*
X128835714Y-120307142D01*
X127478571Y-121592857D02*
X128978571Y-122092857D01*
X127478571Y-122592857D01*
X130000000Y-119257142D02*
X129928571Y-119114285D01*
X129928571Y-118900000D01*
X130000000Y-118685714D01*
X130142857Y-118542857D01*
X130285714Y-118471428D01*
X130571428Y-118400000D01*
X130785714Y-118400000D01*
X131071428Y-118471428D01*
X131214285Y-118542857D01*
X131357142Y-118685714D01*
X131428571Y-118900000D01*
X131428571Y-119042857D01*
X131357142Y-119257142D01*
X131285714Y-119328571D01*
X130785714Y-119328571D01*
X130785714Y-119042857D01*
X131428571Y-119971428D02*
X129928571Y-119971428D01*
X131428571Y-120828571D01*
X129928571Y-120828571D01*
X131428571Y-121542857D02*
X129928571Y-121542857D01*
X129928571Y-121900000D01*
X130000000Y-122114285D01*
X130142857Y-122257142D01*
X130285714Y-122328571D01*
X130571428Y-122400000D01*
X130785714Y-122400000D01*
X131071428Y-122328571D01*
X131214285Y-122257142D01*
X131357142Y-122114285D01*
X131428571Y-121900000D01*
X131428571Y-121542857D01*
X167550000Y-118657142D02*
X167478571Y-118514285D01*
X167478571Y-118300000D01*
X167550000Y-118085714D01*
X167692857Y-117942857D01*
X167835714Y-117871428D01*
X168121428Y-117800000D01*
X168335714Y-117800000D01*
X168621428Y-117871428D01*
X168764285Y-117942857D01*
X168907142Y-118085714D01*
X168978571Y-118300000D01*
X168978571Y-118442857D01*
X168907142Y-118657142D01*
X168835714Y-118728571D01*
X168335714Y-118728571D01*
X168335714Y-118442857D01*
X168978571Y-119371428D02*
X167478571Y-119371428D01*
X168978571Y-120228571D01*
X167478571Y-120228571D01*
X168978571Y-120942857D02*
X167478571Y-120942857D01*
X167478571Y-121300000D01*
X167550000Y-121514285D01*
X167692857Y-121657142D01*
X167835714Y-121728571D01*
X168121428Y-121800000D01*
X168335714Y-121800000D01*
X168621428Y-121728571D01*
X168764285Y-121657142D01*
X168907142Y-121514285D01*
X168978571Y-121300000D01*
X168978571Y-120942857D01*
X166278571Y-118635714D02*
X166278571Y-117921428D01*
X164778571Y-117921428D01*
X165492857Y-119135714D02*
X165492857Y-119635714D01*
X166278571Y-119850000D02*
X166278571Y-119135714D01*
X164778571Y-119135714D01*
X164778571Y-119850000D01*
X166278571Y-120492857D02*
X164778571Y-120492857D01*
X164778571Y-120850000D01*
X164850000Y-121064285D01*
X164992857Y-121207142D01*
X165135714Y-121278571D01*
X165421428Y-121350000D01*
X165635714Y-121350000D01*
X165921428Y-121278571D01*
X166064285Y-121207142D01*
X166207142Y-121064285D01*
X166278571Y-120850000D01*
X166278571Y-120492857D01*
X163778571Y-117885714D02*
X162278571Y-117885714D01*
X162278571Y-118885714D02*
X162278571Y-119171428D01*
X162350000Y-119314285D01*
X162492857Y-119457142D01*
X162778571Y-119528571D01*
X163278571Y-119528571D01*
X163564285Y-119457142D01*
X163707142Y-119314285D01*
X163778571Y-119171428D01*
X163778571Y-118885714D01*
X163707142Y-118742857D01*
X163564285Y-118600000D01*
X163278571Y-118528571D01*
X162778571Y-118528571D01*
X162492857Y-118600000D01*
X162350000Y-118742857D01*
X162278571Y-118885714D01*
X162421428Y-120100000D02*
X162350000Y-120171428D01*
X162278571Y-120314285D01*
X162278571Y-120671428D01*
X162350000Y-120814285D01*
X162421428Y-120885714D01*
X162564285Y-120957142D01*
X162707142Y-120957142D01*
X162921428Y-120885714D01*
X163778571Y-120028571D01*
X163778571Y-120957142D01*
X162421428Y-121528571D02*
X162350000Y-121600000D01*
X162278571Y-121742857D01*
X162278571Y-122100000D01*
X162350000Y-122242857D01*
X162421428Y-122314285D01*
X162564285Y-122385714D01*
X162707142Y-122385714D01*
X162921428Y-122314285D01*
X163778571Y-121457142D01*
X163778571Y-122385714D01*
X161378571Y-117885714D02*
X159878571Y-117885714D01*
X159878571Y-118885714D02*
X159878571Y-119171428D01*
X159950000Y-119314285D01*
X160092857Y-119457142D01*
X160378571Y-119528571D01*
X160878571Y-119528571D01*
X161164285Y-119457142D01*
X161307142Y-119314285D01*
X161378571Y-119171428D01*
X161378571Y-118885714D01*
X161307142Y-118742857D01*
X161164285Y-118600000D01*
X160878571Y-118528571D01*
X160378571Y-118528571D01*
X160092857Y-118600000D01*
X159950000Y-118742857D01*
X159878571Y-118885714D01*
X160021428Y-120100000D02*
X159950000Y-120171428D01*
X159878571Y-120314285D01*
X159878571Y-120671428D01*
X159950000Y-120814285D01*
X160021428Y-120885714D01*
X160164285Y-120957142D01*
X160307142Y-120957142D01*
X160521428Y-120885714D01*
X161378571Y-120028571D01*
X161378571Y-120957142D01*
X161378571Y-122385714D02*
X161378571Y-121528571D01*
X161378571Y-121957142D02*
X159878571Y-121957142D01*
X160092857Y-121814285D01*
X160235714Y-121671428D01*
X160307142Y-121528571D01*
X158878571Y-117885714D02*
X157378571Y-117885714D01*
X157378571Y-118885714D02*
X157378571Y-119171428D01*
X157450000Y-119314285D01*
X157592857Y-119457142D01*
X157878571Y-119528571D01*
X158378571Y-119528571D01*
X158664285Y-119457142D01*
X158807142Y-119314285D01*
X158878571Y-119171428D01*
X158878571Y-118885714D01*
X158807142Y-118742857D01*
X158664285Y-118600000D01*
X158378571Y-118528571D01*
X157878571Y-118528571D01*
X157592857Y-118600000D01*
X157450000Y-118742857D01*
X157378571Y-118885714D01*
X158878571Y-120957142D02*
X158878571Y-120100000D01*
X158878571Y-120528571D02*
X157378571Y-120528571D01*
X157592857Y-120385714D01*
X157735714Y-120242857D01*
X157807142Y-120100000D01*
X158878571Y-121671428D02*
X158878571Y-121957142D01*
X158807142Y-122100000D01*
X158735714Y-122171428D01*
X158521428Y-122314285D01*
X158235714Y-122385714D01*
X157664285Y-122385714D01*
X157521428Y-122314285D01*
X157450000Y-122242857D01*
X157378571Y-122100000D01*
X157378571Y-121814285D01*
X157450000Y-121671428D01*
X157521428Y-121600000D01*
X157664285Y-121528571D01*
X158021428Y-121528571D01*
X158164285Y-121600000D01*
X158235714Y-121671428D01*
X158307142Y-121814285D01*
X158307142Y-122100000D01*
X158235714Y-122242857D01*
X158164285Y-122314285D01*
X158021428Y-122385714D01*
X156478571Y-117885714D02*
X154978571Y-117885714D01*
X154978571Y-118885714D02*
X154978571Y-119171428D01*
X155050000Y-119314285D01*
X155192857Y-119457142D01*
X155478571Y-119528571D01*
X155978571Y-119528571D01*
X156264285Y-119457142D01*
X156407142Y-119314285D01*
X156478571Y-119171428D01*
X156478571Y-118885714D01*
X156407142Y-118742857D01*
X156264285Y-118600000D01*
X155978571Y-118528571D01*
X155478571Y-118528571D01*
X155192857Y-118600000D01*
X155050000Y-118742857D01*
X154978571Y-118885714D01*
X156478571Y-120957142D02*
X156478571Y-120100000D01*
X156478571Y-120528571D02*
X154978571Y-120528571D01*
X155192857Y-120385714D01*
X155335714Y-120242857D01*
X155407142Y-120100000D01*
X155621428Y-121814285D02*
X155550000Y-121671428D01*
X155478571Y-121600000D01*
X155335714Y-121528571D01*
X155264285Y-121528571D01*
X155121428Y-121600000D01*
X155050000Y-121671428D01*
X154978571Y-121814285D01*
X154978571Y-122100000D01*
X155050000Y-122242857D01*
X155121428Y-122314285D01*
X155264285Y-122385714D01*
X155335714Y-122385714D01*
X155478571Y-122314285D01*
X155550000Y-122242857D01*
X155621428Y-122100000D01*
X155621428Y-121814285D01*
X155692857Y-121671428D01*
X155764285Y-121600000D01*
X155907142Y-121528571D01*
X156192857Y-121528571D01*
X156335714Y-121600000D01*
X156407142Y-121671428D01*
X156478571Y-121814285D01*
X156478571Y-122100000D01*
X156407142Y-122242857D01*
X156335714Y-122314285D01*
X156192857Y-122385714D01*
X155907142Y-122385714D01*
X155764285Y-122314285D01*
X155692857Y-122242857D01*
X155621428Y-122100000D01*
X153878571Y-117885714D02*
X152378571Y-117885714D01*
X152378571Y-118885714D02*
X152378571Y-119171428D01*
X152450000Y-119314285D01*
X152592857Y-119457142D01*
X152878571Y-119528571D01*
X153378571Y-119528571D01*
X153664285Y-119457142D01*
X153807142Y-119314285D01*
X153878571Y-119171428D01*
X153878571Y-118885714D01*
X153807142Y-118742857D01*
X153664285Y-118600000D01*
X153378571Y-118528571D01*
X152878571Y-118528571D01*
X152592857Y-118600000D01*
X152450000Y-118742857D01*
X152378571Y-118885714D01*
X153878571Y-120957142D02*
X153878571Y-120100000D01*
X153878571Y-120528571D02*
X152378571Y-120528571D01*
X152592857Y-120385714D01*
X152735714Y-120242857D01*
X152807142Y-120100000D01*
X152378571Y-121457142D02*
X152378571Y-122457142D01*
X153878571Y-121814285D01*
X151278571Y-117885714D02*
X149778571Y-117885714D01*
X149778571Y-118885714D02*
X149778571Y-119171428D01*
X149850000Y-119314285D01*
X149992857Y-119457142D01*
X150278571Y-119528571D01*
X150778571Y-119528571D01*
X151064285Y-119457142D01*
X151207142Y-119314285D01*
X151278571Y-119171428D01*
X151278571Y-118885714D01*
X151207142Y-118742857D01*
X151064285Y-118600000D01*
X150778571Y-118528571D01*
X150278571Y-118528571D01*
X149992857Y-118600000D01*
X149850000Y-118742857D01*
X149778571Y-118885714D01*
X151278571Y-120957142D02*
X151278571Y-120100000D01*
X151278571Y-120528571D02*
X149778571Y-120528571D01*
X149992857Y-120385714D01*
X150135714Y-120242857D01*
X150207142Y-120100000D01*
X149778571Y-122242857D02*
X149778571Y-121957142D01*
X149850000Y-121814285D01*
X149921428Y-121742857D01*
X150135714Y-121600000D01*
X150421428Y-121528571D01*
X150992857Y-121528571D01*
X151135714Y-121600000D01*
X151207142Y-121671428D01*
X151278571Y-121814285D01*
X151278571Y-122100000D01*
X151207142Y-122242857D01*
X151135714Y-122314285D01*
X150992857Y-122385714D01*
X150635714Y-122385714D01*
X150492857Y-122314285D01*
X150421428Y-122242857D01*
X150350000Y-122100000D01*
X150350000Y-121814285D01*
X150421428Y-121671428D01*
X150492857Y-121600000D01*
X150635714Y-121528571D01*
X148678571Y-117900000D02*
X147178571Y-117900000D01*
X147178571Y-118900000D02*
X147178571Y-119185714D01*
X147250000Y-119328571D01*
X147392857Y-119471428D01*
X147678571Y-119542857D01*
X148178571Y-119542857D01*
X148464285Y-119471428D01*
X148607142Y-119328571D01*
X148678571Y-119185714D01*
X148678571Y-118900000D01*
X148607142Y-118757142D01*
X148464285Y-118614285D01*
X148178571Y-118542857D01*
X147678571Y-118542857D01*
X147392857Y-118614285D01*
X147250000Y-118757142D01*
X147178571Y-118900000D01*
X147678571Y-120828571D02*
X148678571Y-120828571D01*
X147107142Y-120471428D02*
X148178571Y-120114285D01*
X148178571Y-121042857D01*
X144650000Y-118607142D02*
X144578571Y-118464285D01*
X144578571Y-118250000D01*
X144650000Y-118035714D01*
X144792857Y-117892857D01*
X144935714Y-117821428D01*
X145221428Y-117750000D01*
X145435714Y-117750000D01*
X145721428Y-117821428D01*
X145864285Y-117892857D01*
X146007142Y-118035714D01*
X146078571Y-118250000D01*
X146078571Y-118392857D01*
X146007142Y-118607142D01*
X145935714Y-118678571D01*
X145435714Y-118678571D01*
X145435714Y-118392857D01*
X146078571Y-119321428D02*
X144578571Y-119321428D01*
X146078571Y-120178571D01*
X144578571Y-120178571D01*
X146078571Y-120892857D02*
X144578571Y-120892857D01*
X144578571Y-121250000D01*
X144650000Y-121464285D01*
X144792857Y-121607142D01*
X144935714Y-121678571D01*
X145221428Y-121750000D01*
X145435714Y-121750000D01*
X145721428Y-121678571D01*
X145864285Y-121607142D01*
X146007142Y-121464285D01*
X146078571Y-121250000D01*
X146078571Y-120892857D01*
X142028571Y-118714285D02*
X142028571Y-118000000D01*
X142742857Y-117928571D01*
X142671428Y-118000000D01*
X142600000Y-118142857D01*
X142600000Y-118500000D01*
X142671428Y-118642857D01*
X142742857Y-118714285D01*
X142885714Y-118785714D01*
X143242857Y-118785714D01*
X143385714Y-118714285D01*
X143457142Y-118642857D01*
X143528571Y-118500000D01*
X143528571Y-118142857D01*
X143457142Y-118000000D01*
X143385714Y-117928571D01*
X142028571Y-119214285D02*
X143528571Y-119714285D01*
X142028571Y-120214285D01*
X139728571Y-117992857D02*
X139728571Y-118921428D01*
X140300000Y-118421428D01*
X140300000Y-118635714D01*
X140371428Y-118778571D01*
X140442857Y-118850000D01*
X140585714Y-118921428D01*
X140942857Y-118921428D01*
X141085714Y-118850000D01*
X141157142Y-118778571D01*
X141228571Y-118635714D01*
X141228571Y-118207142D01*
X141157142Y-118064285D01*
X141085714Y-117992857D01*
X139728571Y-119350000D02*
X141228571Y-119850000D01*
X139728571Y-120350000D01*
X139728571Y-120707142D02*
X139728571Y-121635714D01*
X140300000Y-121135714D01*
X140300000Y-121350000D01*
X140371428Y-121492857D01*
X140442857Y-121564285D01*
X140585714Y-121635714D01*
X140942857Y-121635714D01*
X141085714Y-121564285D01*
X141157142Y-121492857D01*
X141228571Y-121350000D01*
X141228571Y-120921428D01*
X141157142Y-120778571D01*
X141085714Y-120707142D01*
X165650000Y-99050000D02*
X165578571Y-98907142D01*
X165578571Y-98692857D01*
X165650000Y-98478571D01*
X165792857Y-98335714D01*
X165935714Y-98264285D01*
X166221428Y-98192857D01*
X166435714Y-98192857D01*
X166721428Y-98264285D01*
X166864285Y-98335714D01*
X167007142Y-98478571D01*
X167078571Y-98692857D01*
X167078571Y-98835714D01*
X167007142Y-99050000D01*
X166935714Y-99121428D01*
X166435714Y-99121428D01*
X166435714Y-98835714D01*
X167078571Y-99764285D02*
X165578571Y-99764285D01*
X167078571Y-100407142D02*
X166292857Y-100407142D01*
X166150000Y-100335714D01*
X166078571Y-100192857D01*
X166078571Y-99978571D01*
X166150000Y-99835714D01*
X166221428Y-99764285D01*
X167078571Y-101335714D02*
X167007142Y-101192857D01*
X166935714Y-101121428D01*
X166792857Y-101050000D01*
X166364285Y-101050000D01*
X166221428Y-101121428D01*
X166150000Y-101192857D01*
X166078571Y-101335714D01*
X166078571Y-101550000D01*
X166150000Y-101692857D01*
X166221428Y-101764285D01*
X166364285Y-101835714D01*
X166792857Y-101835714D01*
X166935714Y-101764285D01*
X167007142Y-101692857D01*
X167078571Y-101550000D01*
X167078571Y-101335714D01*
X167007142Y-102407142D02*
X167078571Y-102550000D01*
X167078571Y-102835714D01*
X167007142Y-102978571D01*
X166864285Y-103050000D01*
X166792857Y-103050000D01*
X166650000Y-102978571D01*
X166578571Y-102835714D01*
X166578571Y-102621428D01*
X166507142Y-102478571D01*
X166364285Y-102407142D01*
X166292857Y-102407142D01*
X166150000Y-102478571D01*
X166078571Y-102621428D01*
X166078571Y-102835714D01*
X166150000Y-102978571D01*
X166078571Y-103478571D02*
X166078571Y-104050000D01*
X165578571Y-103692857D02*
X166864285Y-103692857D01*
X167007142Y-103764285D01*
X167078571Y-103907142D01*
X167078571Y-104050000D01*
X165578571Y-104407142D02*
X165578571Y-105335714D01*
X166150000Y-104835714D01*
X166150000Y-105050000D01*
X166221428Y-105192857D01*
X166292857Y-105264285D01*
X166435714Y-105335714D01*
X166792857Y-105335714D01*
X166935714Y-105264285D01*
X167007142Y-105192857D01*
X167078571Y-105050000D01*
X167078571Y-104621428D01*
X167007142Y-104478571D01*
X166935714Y-104407142D01*
X165721428Y-105907142D02*
X165650000Y-105978571D01*
X165578571Y-106121428D01*
X165578571Y-106478571D01*
X165650000Y-106621428D01*
X165721428Y-106692857D01*
X165864285Y-106764285D01*
X166007142Y-106764285D01*
X166221428Y-106692857D01*
X167078571Y-105835714D01*
X167078571Y-106764285D01*
X167078571Y-109407142D02*
X166364285Y-108907142D01*
X167078571Y-108550000D02*
X165578571Y-108550000D01*
X165578571Y-109121428D01*
X165650000Y-109264285D01*
X165721428Y-109335714D01*
X165864285Y-109407142D01*
X166078571Y-109407142D01*
X166221428Y-109335714D01*
X166292857Y-109264285D01*
X166364285Y-109121428D01*
X166364285Y-108550000D01*
X167007142Y-110621428D02*
X167078571Y-110478571D01*
X167078571Y-110192857D01*
X167007142Y-110050000D01*
X166864285Y-109978571D01*
X166292857Y-109978571D01*
X166150000Y-110050000D01*
X166078571Y-110192857D01*
X166078571Y-110478571D01*
X166150000Y-110621428D01*
X166292857Y-110692857D01*
X166435714Y-110692857D01*
X166578571Y-109978571D01*
X166078571Y-111192857D02*
X167078571Y-111550000D01*
X166078571Y-111907142D01*
X166078571Y-114264285D02*
X167078571Y-114264285D01*
X165507142Y-113907142D02*
X166578571Y-113550000D01*
X166578571Y-114478571D01*
X168842857Y-99264285D02*
X168842857Y-98764285D01*
X169628571Y-98764285D02*
X168128571Y-98764285D01*
X168128571Y-99478571D01*
X169628571Y-100050000D02*
X168628571Y-100050000D01*
X168914285Y-100050000D02*
X168771428Y-100121428D01*
X168700000Y-100192857D01*
X168628571Y-100335714D01*
X168628571Y-100478571D01*
X169628571Y-101192857D02*
X169557142Y-101050000D01*
X169485714Y-100978571D01*
X169342857Y-100907142D01*
X168914285Y-100907142D01*
X168771428Y-100978571D01*
X168700000Y-101050000D01*
X168628571Y-101192857D01*
X168628571Y-101407142D01*
X168700000Y-101550000D01*
X168771428Y-101621428D01*
X168914285Y-101692857D01*
X169342857Y-101692857D01*
X169485714Y-101621428D01*
X169557142Y-101550000D01*
X169628571Y-101407142D01*
X169628571Y-101192857D01*
X169628571Y-102978571D02*
X168128571Y-102978571D01*
X169557142Y-102978571D02*
X169628571Y-102835714D01*
X169628571Y-102550000D01*
X169557142Y-102407142D01*
X169485714Y-102335714D01*
X169342857Y-102264285D01*
X168914285Y-102264285D01*
X168771428Y-102335714D01*
X168700000Y-102407142D01*
X168628571Y-102550000D01*
X168628571Y-102835714D01*
X168700000Y-102978571D01*
X169557142Y-104264285D02*
X169628571Y-104121428D01*
X169628571Y-103835714D01*
X169557142Y-103692857D01*
X169414285Y-103621428D01*
X168842857Y-103621428D01*
X168700000Y-103692857D01*
X168628571Y-103835714D01*
X168628571Y-104121428D01*
X168700000Y-104264285D01*
X168842857Y-104335714D01*
X168985714Y-104335714D01*
X169128571Y-103621428D01*
X169628571Y-106835714D02*
X169628571Y-106121428D01*
X168128571Y-106121428D01*
X169628571Y-107335714D02*
X168628571Y-107335714D01*
X168128571Y-107335714D02*
X168200000Y-107264285D01*
X168271428Y-107335714D01*
X168200000Y-107407142D01*
X168128571Y-107335714D01*
X168271428Y-107335714D01*
X169628571Y-108264285D02*
X169557142Y-108121428D01*
X169414285Y-108050000D01*
X168128571Y-108050000D01*
X169628571Y-109050000D02*
X169557142Y-108907142D01*
X169414285Y-108835714D01*
X168128571Y-108835714D01*
X169557142Y-110192857D02*
X169628571Y-110050000D01*
X169628571Y-109764285D01*
X169557142Y-109621428D01*
X169414285Y-109550000D01*
X168842857Y-109550000D01*
X168700000Y-109621428D01*
X168628571Y-109764285D01*
X168628571Y-110050000D01*
X168700000Y-110192857D01*
X168842857Y-110264285D01*
X168985714Y-110264285D01*
X169128571Y-109550000D01*
X169628571Y-110907142D02*
X168628571Y-110907142D01*
X168914285Y-110907142D02*
X168771428Y-110978571D01*
X168700000Y-111050000D01*
X168628571Y-111192857D01*
X168628571Y-111335714D01*
X168628571Y-112478571D02*
X169628571Y-112478571D01*
X168628571Y-111835714D02*
X169414285Y-111835714D01*
X169557142Y-111907142D01*
X169628571Y-112050000D01*
X169628571Y-112264285D01*
X169557142Y-112407142D01*
X169485714Y-112478571D01*
X169628571Y-113835714D02*
X168128571Y-113835714D01*
X169557142Y-113835714D02*
X169628571Y-113692857D01*
X169628571Y-113407142D01*
X169557142Y-113264285D01*
X169485714Y-113192857D01*
X169342857Y-113121428D01*
X168914285Y-113121428D01*
X168771428Y-113192857D01*
X168700000Y-113264285D01*
X168628571Y-113407142D01*
X168628571Y-113692857D01*
X168700000Y-113835714D01*
X170821428Y-99335714D02*
X170750000Y-99407142D01*
X170678571Y-99550000D01*
X170678571Y-99907142D01*
X170750000Y-100050000D01*
X170821428Y-100121428D01*
X170964285Y-100192857D01*
X171107142Y-100192857D01*
X171321428Y-100121428D01*
X172178571Y-99264285D01*
X172178571Y-100192857D01*
X170678571Y-100692857D02*
X170678571Y-101621428D01*
X171250000Y-101121428D01*
X171250000Y-101335714D01*
X171321428Y-101478571D01*
X171392857Y-101550000D01*
X171535714Y-101621428D01*
X171892857Y-101621428D01*
X172035714Y-101550000D01*
X172107142Y-101478571D01*
X172178571Y-101335714D01*
X172178571Y-100907142D01*
X172107142Y-100764285D01*
X172035714Y-100692857D01*
X172035714Y-102264285D02*
X172107142Y-102335714D01*
X172178571Y-102264285D01*
X172107142Y-102192857D01*
X172035714Y-102264285D01*
X172178571Y-102264285D01*
X172178571Y-103621428D02*
X171392857Y-103621428D01*
X171250000Y-103550000D01*
X171178571Y-103407142D01*
X171178571Y-103121428D01*
X171250000Y-102978571D01*
X172107142Y-103621428D02*
X172178571Y-103478571D01*
X172178571Y-103121428D01*
X172107142Y-102978571D01*
X171964285Y-102907142D01*
X171821428Y-102907142D01*
X171678571Y-102978571D01*
X171607142Y-103121428D01*
X171607142Y-103478571D01*
X171535714Y-103621428D01*
X171178571Y-104978571D02*
X172178571Y-104978571D01*
X171178571Y-104335714D02*
X171964285Y-104335714D01*
X172107142Y-104407142D01*
X172178571Y-104550000D01*
X172178571Y-104764285D01*
X172107142Y-104907142D01*
X172035714Y-104978571D01*
X171178571Y-106335714D02*
X172392857Y-106335714D01*
X172535714Y-106264285D01*
X172607142Y-106192857D01*
X172678571Y-106050000D01*
X172678571Y-105835714D01*
X172607142Y-105692857D01*
X172107142Y-106335714D02*
X172178571Y-106192857D01*
X172178571Y-105907142D01*
X172107142Y-105764285D01*
X172035714Y-105692857D01*
X171892857Y-105621428D01*
X171464285Y-105621428D01*
X171321428Y-105692857D01*
X171250000Y-105764285D01*
X171178571Y-105907142D01*
X171178571Y-106192857D01*
X171250000Y-106335714D01*
X170821428Y-108121428D02*
X170750000Y-108192857D01*
X170678571Y-108335714D01*
X170678571Y-108692857D01*
X170750000Y-108835714D01*
X170821428Y-108907142D01*
X170964285Y-108978571D01*
X171107142Y-108978571D01*
X171321428Y-108907142D01*
X172178571Y-108050000D01*
X172178571Y-108978571D01*
X170678571Y-109907142D02*
X170678571Y-110050000D01*
X170750000Y-110192857D01*
X170821428Y-110264285D01*
X170964285Y-110335714D01*
X171250000Y-110407142D01*
X171607142Y-110407142D01*
X171892857Y-110335714D01*
X172035714Y-110264285D01*
X172107142Y-110192857D01*
X172178571Y-110050000D01*
X172178571Y-109907142D01*
X172107142Y-109764285D01*
X172035714Y-109692857D01*
X171892857Y-109621428D01*
X171607142Y-109550000D01*
X171250000Y-109550000D01*
X170964285Y-109621428D01*
X170821428Y-109692857D01*
X170750000Y-109764285D01*
X170678571Y-109907142D01*
X172178571Y-111835714D02*
X172178571Y-110978571D01*
X172178571Y-111407142D02*
X170678571Y-111407142D01*
X170892857Y-111264285D01*
X171035714Y-111121428D01*
X171107142Y-110978571D01*
X170678571Y-112335714D02*
X170678571Y-113335714D01*
X172178571Y-112692857D01*
M02*
