G04 #@! TF.GenerationSoftware,KiCad,Pcbnew,no-vcs-found-aeac415~59~ubuntu16.04.1*
G04 #@! TF.CreationDate,2017-08-23T23:17:48+02:00*
G04 #@! TF.ProjectId,GhostESP32,47686F737445535033322E6B69636164,rev?*
G04 #@! TF.SameCoordinates,Original*
G04 #@! TF.FileFunction,Soldermask,Top*
G04 #@! TF.FilePolarity,Negative*
%FSLAX46Y46*%
G04 Gerber Fmt 4.6, Leading zero omitted, Abs format (unit mm)*
G04 Created by KiCad (PCBNEW no-vcs-found-aeac415~59~ubuntu16.04.1) date Wed Aug 23 23:17:48 2017*
%MOMM*%
%LPD*%
G01*
G04 APERTURE LIST*
%ADD10R,2.100000X2.100000*%
%ADD11O,2.100000X2.100000*%
%ADD12R,2.900000X2.200000*%
%ADD13R,0.800000X1.000000*%
%ADD14R,1.400000X1.000000*%
%ADD15R,1.000000X0.900000*%
%ADD16R,0.900000X1.000000*%
%ADD17O,1.950000X1.400000*%
%ADD18O,1.350000X1.650000*%
%ADD19R,1.750000X0.800000*%
%ADD20R,1.000000X1.200000*%
%ADD21R,1.200000X1.000000*%
%ADD22R,1.275000X1.200000*%
%ADD23R,0.600000X0.950000*%
%ADD24R,0.950000X0.600000*%
%ADD25R,2.075000X2.075000*%
%ADD26O,0.700000X1.250000*%
%ADD27O,1.250000X0.700000*%
%ADD28O,1.300000X2.900000*%
%ADD29O,2.900000X1.300000*%
%ADD30R,6.400000X6.400000*%
%ADD31R,1.700000X1.400000*%
%ADD32C,1.400000*%
%ADD33R,1.500000X1.400000*%
%ADD34R,1.000000X0.800000*%
%ADD35R,2.400000X1.900000*%
%ADD36R,2.400000X4.200000*%
%ADD37R,1.300000X1.200000*%
%ADD38R,1.460000X1.050000*%
G04 APERTURE END LIST*
D10*
X125600000Y-125000000D03*
D11*
X128140000Y-125000000D03*
X130680000Y-125000000D03*
D12*
X125500000Y-93800000D03*
X121500000Y-93800000D03*
D13*
X128550000Y-93000000D03*
X129450000Y-93000000D03*
D14*
X112360000Y-131250000D03*
X112400000Y-129750000D03*
X114600000Y-129750000D03*
X114600000Y-131250000D03*
X114100000Y-81250000D03*
X114100000Y-79750000D03*
X111900000Y-79750000D03*
X111860000Y-81250000D03*
D15*
X143950000Y-117400000D03*
X145050000Y-117400000D03*
X154050000Y-98500000D03*
X152950000Y-98500000D03*
X148450000Y-108500000D03*
X147350000Y-108500000D03*
X150300000Y-98500000D03*
X149200000Y-98500000D03*
X176450000Y-91000000D03*
X177550000Y-91000000D03*
X177550000Y-88500000D03*
X176450000Y-88500000D03*
D16*
X138400000Y-114850000D03*
X138400000Y-115950000D03*
X139900000Y-115950000D03*
X139900000Y-114850000D03*
X136900000Y-114850000D03*
X136900000Y-115950000D03*
X135200000Y-115950000D03*
X135200000Y-114850000D03*
D15*
X148350000Y-93400000D03*
X149450000Y-93400000D03*
X133950000Y-98000000D03*
X135050000Y-98000000D03*
D17*
X117950000Y-108100000D03*
X117950000Y-101100000D03*
D18*
X120650000Y-107100000D03*
X120650000Y-102100000D03*
D19*
X120650000Y-105900000D03*
X120650000Y-105250000D03*
X120650000Y-104600000D03*
X120650000Y-103950000D03*
X120650000Y-103300000D03*
D20*
X130750000Y-98100000D03*
X129050000Y-98100000D03*
D21*
X128500000Y-108350000D03*
X128500000Y-106650000D03*
X126500000Y-108350000D03*
X126500000Y-106650000D03*
D20*
X125550000Y-90400000D03*
X123850000Y-90400000D03*
X174850000Y-120000000D03*
X173150000Y-120000000D03*
D12*
X125500000Y-98000000D03*
X121500000Y-98000000D03*
D22*
X150630000Y-103900000D03*
X150630000Y-104700000D03*
X151500000Y-103900000D03*
X151500000Y-104700000D03*
D23*
X150065000Y-102800000D03*
X150465000Y-102800000D03*
X150865000Y-102800000D03*
X151265000Y-102800000D03*
X151665000Y-102800000D03*
X152065000Y-102800000D03*
D24*
X152565000Y-103300000D03*
X152565000Y-103700000D03*
X152565000Y-104100000D03*
X152565000Y-104500000D03*
X152565000Y-104900000D03*
X152565000Y-105300000D03*
D23*
X152065000Y-105800000D03*
X151665000Y-105800000D03*
X151265000Y-105800000D03*
X150865000Y-105800000D03*
X150465000Y-105800000D03*
X150065000Y-105800000D03*
D24*
X149565000Y-105300000D03*
X149565000Y-104900000D03*
X149565000Y-104500000D03*
X149565000Y-104100000D03*
X149565000Y-103700000D03*
X149565000Y-103300000D03*
D25*
X138662500Y-108662500D03*
X138662500Y-110337500D03*
X140337500Y-108662500D03*
X140337500Y-110337500D03*
D26*
X138000000Y-107050000D03*
X138500000Y-107050000D03*
X139000000Y-107050000D03*
X139500000Y-107050000D03*
X140000000Y-107050000D03*
X140500000Y-107050000D03*
X141000000Y-107050000D03*
D27*
X141950000Y-108000000D03*
X141950000Y-108500000D03*
X141950000Y-109000000D03*
X141950000Y-109500000D03*
X141950000Y-110000000D03*
X141950000Y-110500000D03*
X141950000Y-111000000D03*
D26*
X141000000Y-111950000D03*
X140500000Y-111950000D03*
X140000000Y-111950000D03*
X139500000Y-111950000D03*
X139000000Y-111950000D03*
X138500000Y-111950000D03*
X138000000Y-111950000D03*
D27*
X137050000Y-111000000D03*
X137050000Y-110500000D03*
X137050000Y-110000000D03*
X137050000Y-109500000D03*
X137050000Y-109000000D03*
X137050000Y-108500000D03*
X137050000Y-108000000D03*
D28*
X178150000Y-114000000D03*
X176880000Y-114000000D03*
X175610000Y-114000000D03*
X174340000Y-114000000D03*
X173070000Y-114000000D03*
X171800000Y-114000000D03*
X170530000Y-114000000D03*
X169260000Y-114000000D03*
X167990000Y-114000000D03*
X166720000Y-114000000D03*
X165450000Y-114000000D03*
X164180000Y-114000000D03*
X162910000Y-114000000D03*
X161640000Y-114000000D03*
D29*
X160150000Y-110715000D03*
X160150000Y-109445000D03*
X160150000Y-108175000D03*
X160150000Y-106905000D03*
X160150000Y-105635000D03*
X160150000Y-104365000D03*
X160150000Y-103095000D03*
X160150000Y-101825000D03*
X160150000Y-100555000D03*
X160150000Y-99285000D03*
D28*
X161640000Y-96000000D03*
X162910000Y-96000000D03*
X164180000Y-96000000D03*
X165450000Y-96000000D03*
X166720000Y-96000000D03*
X167990000Y-96000000D03*
X169260000Y-96000000D03*
X170530000Y-96000000D03*
X171800000Y-96000000D03*
X173070000Y-96000000D03*
X174340000Y-96000000D03*
X175610000Y-96000000D03*
X176880000Y-96000000D03*
X178150000Y-96000000D03*
D30*
X170450000Y-104700000D03*
D31*
X121500000Y-112750000D03*
X121500000Y-115750000D03*
X121500000Y-117250000D03*
X121500000Y-120250000D03*
D32*
X119000000Y-119500000D03*
X119000000Y-113500000D03*
D33*
X120500000Y-110700000D03*
X117500000Y-110700000D03*
X120500000Y-122300000D03*
X117500000Y-122300000D03*
D11*
X128980000Y-86700000D03*
X126440000Y-86700000D03*
D10*
X123900000Y-86700000D03*
X140300000Y-124700000D03*
D11*
X142840000Y-124700000D03*
X145380000Y-124700000D03*
X147920000Y-124700000D03*
X150460000Y-124700000D03*
X153000000Y-124700000D03*
X155540000Y-124700000D03*
X158080000Y-124700000D03*
X160620000Y-124700000D03*
X163160000Y-124700000D03*
X165700000Y-124700000D03*
X168240000Y-124700000D03*
X168460000Y-86800000D03*
X165920000Y-86800000D03*
X163380000Y-86800000D03*
X160840000Y-86800000D03*
X158300000Y-86800000D03*
X155760000Y-86800000D03*
X153220000Y-86800000D03*
X150680000Y-86800000D03*
X148140000Y-86800000D03*
X145600000Y-86800000D03*
X143060000Y-86800000D03*
D10*
X140520000Y-86800000D03*
D13*
X129450000Y-90400000D03*
X128550000Y-90400000D03*
X144850000Y-119000000D03*
X143950000Y-119000000D03*
D34*
X152700000Y-93350000D03*
X152700000Y-94250000D03*
D13*
X126750000Y-116700000D03*
X127650000Y-116700000D03*
X127650000Y-118500000D03*
X126750000Y-118500000D03*
D34*
X130800000Y-107350000D03*
X130800000Y-108250000D03*
D13*
X126550000Y-103500000D03*
X127450000Y-103500000D03*
X120950000Y-90400000D03*
X121850000Y-90400000D03*
X174050000Y-88500000D03*
X174950000Y-88500000D03*
X139900000Y-102500000D03*
X139000000Y-102500000D03*
X132000000Y-122000000D03*
X131100000Y-122000000D03*
D34*
X125700000Y-121650000D03*
X125700000Y-120750000D03*
X155400000Y-94150000D03*
X155400000Y-93250000D03*
X178000000Y-119550000D03*
X178000000Y-120450000D03*
D35*
X138950000Y-93200000D03*
X138950000Y-97800000D03*
X138950000Y-95500000D03*
D36*
X145250000Y-95500000D03*
D37*
X129500000Y-112500000D03*
X127500000Y-113450000D03*
X127500000Y-111550000D03*
X175000000Y-124450000D03*
X175000000Y-122550000D03*
X173000000Y-123500000D03*
X132000000Y-117500000D03*
X130000000Y-118450000D03*
X130000000Y-116550000D03*
X132800000Y-90650000D03*
X132800000Y-92550000D03*
X134800000Y-91600000D03*
X136500000Y-123000000D03*
X134500000Y-123950000D03*
X134500000Y-122050000D03*
D38*
X153900000Y-114500000D03*
X153900000Y-113550000D03*
X153900000Y-115450000D03*
X151700000Y-115450000D03*
X151700000Y-114500000D03*
X151700000Y-113550000D03*
M02*
