G04 #@! TF.GenerationSoftware,KiCad,Pcbnew,no-vcs-found-aeac415~59~ubuntu16.04.1*
G04 #@! TF.CreationDate,2017-08-23T23:17:48+02:00*
G04 #@! TF.ProjectId,GhostESP32,47686F737445535033322E6B69636164,rev?*
G04 #@! TF.SameCoordinates,Original*
G04 #@! TF.FileFunction,Copper,L2,Bot,Signal*
G04 #@! TF.FilePolarity,Positive*
%FSLAX46Y46*%
G04 Gerber Fmt 4.6, Leading zero omitted, Abs format (unit mm)*
G04 Created by KiCad (PCBNEW no-vcs-found-aeac415~59~ubuntu16.04.1) date Wed Aug 23 23:17:48 2017*
%MOMM*%
%LPD*%
G01*
G04 APERTURE LIST*
%ADD10R,1.700000X1.700000*%
%ADD11O,1.700000X1.700000*%
%ADD12O,1.550000X1.000000*%
%ADD13O,0.950000X1.250000*%
%ADD14C,0.800000*%
%ADD15C,0.500000*%
%ADD16C,0.250000*%
%ADD17C,0.180000*%
%ADD18C,0.150000*%
%ADD19C,0.254000*%
G04 APERTURE END LIST*
D10*
X125600000Y-125000000D03*
D11*
X128140000Y-125000000D03*
X130680000Y-125000000D03*
D12*
X117950000Y-108100000D03*
X117950000Y-101100000D03*
D13*
X120650000Y-107100000D03*
X120650000Y-102100000D03*
D11*
X128980000Y-86700000D03*
X126440000Y-86700000D03*
D10*
X123900000Y-86700000D03*
X140300000Y-124700000D03*
D11*
X142840000Y-124700000D03*
X145380000Y-124700000D03*
X147920000Y-124700000D03*
X150460000Y-124700000D03*
X153000000Y-124700000D03*
X155540000Y-124700000D03*
X158080000Y-124700000D03*
X160620000Y-124700000D03*
X163160000Y-124700000D03*
X165700000Y-124700000D03*
X168240000Y-124700000D03*
X168460000Y-86800000D03*
X165920000Y-86800000D03*
X163380000Y-86800000D03*
X160840000Y-86800000D03*
X158300000Y-86800000D03*
X155760000Y-86800000D03*
X153220000Y-86800000D03*
X150680000Y-86800000D03*
X148140000Y-86800000D03*
X145600000Y-86800000D03*
X143060000Y-86800000D03*
D10*
X140520000Y-86800000D03*
D14*
X156000000Y-115125010D03*
X145400000Y-100500000D03*
X147400000Y-103000000D03*
X129300000Y-122100000D03*
X146500000Y-118800000D03*
X152700000Y-110600000D03*
X148400000Y-100600000D03*
X168000000Y-98700000D03*
X155400000Y-111700000D03*
X137200000Y-118400000D03*
X138700000Y-117500000D03*
X135900000Y-117200000D03*
X140600000Y-117100000D03*
X137167335Y-116815156D03*
X119800000Y-99900000D03*
X121900000Y-100400000D03*
X147800000Y-112000000D03*
X148100000Y-109900000D03*
X127100000Y-90200000D03*
X142700000Y-116600000D03*
X127400000Y-105000000D03*
X176300000Y-120900000D03*
X178000000Y-117500000D03*
X155500000Y-99800000D03*
X153600000Y-102400000D03*
X163600000Y-98700000D03*
X164100000Y-100300000D03*
X151100000Y-96900000D03*
X150700000Y-93900000D03*
X133000000Y-100700000D03*
X133300000Y-104700000D03*
X152340010Y-108066399D03*
X149800000Y-101000000D03*
X169300000Y-98500000D03*
X157000000Y-111700000D03*
X138000000Y-121200000D03*
X150000000Y-91400000D03*
X162300000Y-91600000D03*
X130000000Y-120300000D03*
X132600000Y-94700000D03*
X150900000Y-92500000D03*
X163600000Y-92900000D03*
X140674979Y-118471168D03*
X174774990Y-93300000D03*
X133700000Y-117700000D03*
X146600000Y-113600000D03*
X132800000Y-120100000D03*
X140600000Y-104400000D03*
X132574990Y-103500000D03*
X131100000Y-111400000D03*
X136770891Y-119850012D03*
X144654990Y-120802532D03*
X148800000Y-121200000D03*
X139300000Y-119700000D03*
X133500000Y-113500000D03*
X127200000Y-115100000D03*
X124800000Y-119400000D03*
X119300000Y-116200000D03*
X171941015Y-116873665D03*
X144300000Y-114400000D03*
X175500000Y-118100000D03*
X174600000Y-91200000D03*
X131200000Y-106500000D03*
X133200000Y-108600000D03*
X120600000Y-91700000D03*
X143550010Y-115600000D03*
X170600000Y-118000000D03*
X167400000Y-92900000D03*
X155500000Y-104600000D03*
X140200000Y-113500000D03*
X135600000Y-113400000D03*
X128700000Y-109700000D03*
X129500000Y-102000000D03*
X116900000Y-88300000D03*
X112900000Y-127600000D03*
D15*
X141524989Y-104375011D02*
X141524989Y-122125011D01*
X145400000Y-100500000D02*
X141524989Y-104375011D01*
X141524989Y-122125011D02*
X140300000Y-123350000D01*
X140300000Y-123350000D02*
X140300000Y-124700000D01*
D16*
X152325010Y-118800000D02*
X155600001Y-115525009D01*
X155600001Y-115525009D02*
X156000000Y-115125010D01*
X146500000Y-118800000D02*
X152325010Y-118800000D01*
D17*
X147400000Y-103000000D02*
X145400000Y-101000000D01*
X145400000Y-101000000D02*
X145400000Y-100500000D01*
D16*
X129300000Y-122100000D02*
X138800000Y-122100000D01*
X138800000Y-122100000D02*
X140300000Y-123600000D01*
X140300000Y-123600000D02*
X140300000Y-124700000D01*
X157600000Y-109500000D02*
X168000000Y-99100000D01*
X155400000Y-111700000D02*
X157600000Y-109500000D01*
D17*
X157600000Y-109500000D02*
X153800000Y-109500000D01*
X153800000Y-109500000D02*
X152700000Y-110600000D01*
X148400000Y-100600000D02*
X148400000Y-87060000D01*
X148400000Y-87060000D02*
X148140000Y-86800000D01*
D16*
X168000000Y-99100000D02*
X168000000Y-98700000D01*
X138700000Y-117500000D02*
X138100000Y-117500000D01*
X138100000Y-117500000D02*
X137200000Y-118400000D01*
X135900000Y-117200000D02*
X140500000Y-117200000D01*
X140500000Y-117200000D02*
X140600000Y-117100000D01*
X137167335Y-116815156D02*
X140315156Y-116815156D01*
X140315156Y-116815156D02*
X140600000Y-117100000D01*
X121900000Y-100400000D02*
X120300000Y-100400000D01*
X120300000Y-100400000D02*
X119800000Y-99900000D01*
X148100000Y-109900000D02*
X148100000Y-111700000D01*
X148100000Y-111700000D02*
X147800000Y-112000000D01*
X127100000Y-90200000D02*
X128980000Y-88320000D01*
X128980000Y-88320000D02*
X128980000Y-86700000D01*
X142700000Y-122020000D02*
X145380000Y-124700000D01*
X142700000Y-116600000D02*
X142700000Y-122020000D01*
X127400000Y-105000000D02*
X122600000Y-105000000D01*
X122600000Y-105000000D02*
X120650000Y-106950000D01*
X120650000Y-106950000D02*
X120650000Y-107100000D01*
X178000000Y-117500000D02*
X176300000Y-119200000D01*
X176300000Y-119200000D02*
X176300000Y-120900000D01*
D18*
X153600000Y-102400000D02*
X155500000Y-100500000D01*
X155500000Y-100500000D02*
X155500000Y-99800000D01*
D16*
X164100000Y-99200000D02*
X163600000Y-98700000D01*
X164100000Y-100300000D02*
X164100000Y-99200000D01*
X150700000Y-93900000D02*
X151100000Y-94300000D01*
X151100000Y-94300000D02*
X151100000Y-96900000D01*
X133300000Y-101000000D02*
X133000000Y-100700000D01*
X133300000Y-104700000D02*
X133300000Y-101000000D01*
D17*
X149800000Y-105526389D02*
X151940011Y-107666400D01*
X149800000Y-101000000D02*
X149800000Y-105526389D01*
X151940011Y-107666400D02*
X152340010Y-108066399D01*
D18*
X149830001Y-87649999D02*
X150680000Y-86800000D01*
X149324998Y-88155002D02*
X149830001Y-87649999D01*
X149324998Y-100524998D02*
X149324998Y-88155002D01*
X149800000Y-101000000D02*
X149324998Y-100524998D01*
D16*
X157000000Y-111700000D02*
X169300000Y-99400000D01*
X169300000Y-99400000D02*
X169300000Y-98500000D01*
X138000000Y-121200000D02*
X128300000Y-121200000D01*
X128300000Y-121200000D02*
X125600000Y-123900000D01*
X125600000Y-123900000D02*
X125600000Y-125000000D01*
X162300000Y-91600000D02*
X150200000Y-91600000D01*
X150200000Y-91600000D02*
X150000000Y-91400000D01*
X134225002Y-98174998D02*
X144750001Y-87649999D01*
X144750001Y-87649999D02*
X145600000Y-86800000D01*
X130000000Y-118073004D02*
X134225002Y-113848002D01*
X130000000Y-120300000D02*
X130000000Y-118073004D01*
X134225002Y-113848002D02*
X134225002Y-98174998D01*
X143060000Y-86800000D02*
X135160000Y-94700000D01*
X135160000Y-94700000D02*
X132600000Y-94700000D01*
X163600000Y-92900000D02*
X163200000Y-92500000D01*
X163200000Y-92500000D02*
X150900000Y-92500000D01*
X140109294Y-118471168D02*
X140674979Y-118471168D01*
X138201836Y-118471168D02*
X140109294Y-118471168D01*
X133700000Y-117700000D02*
X135125002Y-119125002D01*
X137548002Y-119125002D02*
X138201836Y-118471168D01*
X135125002Y-119125002D02*
X137548002Y-119125002D01*
X168026996Y-93300000D02*
X174209305Y-93300000D01*
X153064281Y-108162715D02*
X163251998Y-97974998D01*
X147878681Y-113600000D02*
X153064281Y-108414400D01*
X163251998Y-97974998D02*
X163351998Y-97974998D01*
X153064281Y-108414400D02*
X153064281Y-108162715D01*
X163351998Y-97974998D02*
X168026996Y-93300000D01*
X146600000Y-113600000D02*
X147878681Y-113600000D01*
X174209305Y-93300000D02*
X174774990Y-93300000D01*
X132800000Y-115909415D02*
X132800000Y-119534315D01*
X134874999Y-113834416D02*
X132800000Y-115909415D01*
X134874999Y-110125001D02*
X134874999Y-113834416D01*
X132800000Y-119534315D02*
X132800000Y-120100000D01*
X140600000Y-104400000D02*
X134874999Y-110125001D01*
X132174991Y-103899999D02*
X132574990Y-103500000D01*
X129800000Y-106274990D02*
X132174991Y-103899999D01*
X129800000Y-110100000D02*
X129800000Y-106274990D01*
X131100000Y-111400000D02*
X129800000Y-110100000D01*
X136920903Y-119700000D02*
X136770891Y-119850012D01*
X139300000Y-119700000D02*
X136920903Y-119700000D01*
X145052458Y-121200000D02*
X144654990Y-120802532D01*
X148800000Y-121200000D02*
X145052458Y-121200000D01*
X127200000Y-115100000D02*
X128800000Y-113500000D01*
X128800000Y-113500000D02*
X133500000Y-113500000D01*
X119300000Y-116200000D02*
X122500000Y-119400000D01*
X122500000Y-119400000D02*
X124800000Y-119400000D01*
X171541016Y-116473666D02*
X171941015Y-116873665D01*
X169467350Y-114400000D02*
X171541016Y-116473666D01*
X144300000Y-114400000D02*
X169467350Y-114400000D01*
X175500000Y-92100000D02*
X175500000Y-118100000D01*
X174600000Y-91200000D02*
X175500000Y-92100000D01*
X133200000Y-108600000D02*
X131200000Y-106600000D01*
X131200000Y-106600000D02*
X131200000Y-106500000D01*
X120600000Y-91700000D02*
X121440000Y-91700000D01*
X121440000Y-91700000D02*
X126440000Y-86700000D01*
X143550010Y-116165685D02*
X143550010Y-115600000D01*
X169074999Y-119525001D02*
X146151999Y-119525001D01*
X170600000Y-118000000D02*
X169074999Y-119525001D01*
X146151999Y-119525001D02*
X143550010Y-116923012D01*
X143550010Y-116923012D02*
X143550010Y-116165685D01*
D17*
X155500000Y-104600000D02*
X167200000Y-92900000D01*
X167200000Y-92900000D02*
X167400000Y-92900000D01*
D16*
X135600000Y-113400000D02*
X140100000Y-113400000D01*
X140100000Y-113400000D02*
X140200000Y-113500000D01*
X129500000Y-102000000D02*
X128700000Y-102800000D01*
X128700000Y-102800000D02*
X128700000Y-109700000D01*
X112900000Y-127600000D02*
X117200000Y-123300000D01*
X117200000Y-107408260D02*
X117200000Y-101791740D01*
X117200000Y-123300000D02*
X117200000Y-108791740D01*
X117200000Y-108791740D02*
X116849990Y-108441730D01*
X116849990Y-108441730D02*
X116849990Y-107758270D01*
X116849990Y-107758270D02*
X117200000Y-107408260D01*
X117200000Y-101791740D02*
X116849990Y-101441730D01*
X117200000Y-100408260D02*
X117200000Y-89399998D01*
X116849990Y-101441730D02*
X116849990Y-100758270D01*
X116849990Y-100758270D02*
X117200000Y-100408260D01*
X117200000Y-89399998D02*
X116500001Y-88699999D01*
X116500001Y-88699999D02*
X116900000Y-88300000D01*
D19*
G36*
X178573171Y-88358063D02*
X178672858Y-122151977D01*
X174842671Y-126473214D01*
X151430477Y-126560900D01*
X122130500Y-126560900D01*
X121868362Y-126613043D01*
X121780202Y-126671950D01*
X121545127Y-126672830D01*
X118461669Y-124150000D01*
X124102560Y-124150000D01*
X124102560Y-125850000D01*
X124151843Y-126097765D01*
X124292191Y-126307809D01*
X124502235Y-126448157D01*
X124750000Y-126497440D01*
X126450000Y-126497440D01*
X126697765Y-126448157D01*
X126907809Y-126307809D01*
X127048157Y-126097765D01*
X127060597Y-126035223D01*
X127089946Y-126079147D01*
X127571715Y-126401054D01*
X128140000Y-126514093D01*
X128708285Y-126401054D01*
X129190054Y-126079147D01*
X129417702Y-125738447D01*
X129484817Y-125881358D01*
X129913076Y-126271645D01*
X130323110Y-126441476D01*
X130553000Y-126320155D01*
X130553000Y-125127000D01*
X130807000Y-125127000D01*
X130807000Y-126320155D01*
X131036890Y-126441476D01*
X131446924Y-126271645D01*
X131875183Y-125881358D01*
X132121486Y-125356892D01*
X132000819Y-125127000D01*
X130807000Y-125127000D01*
X130553000Y-125127000D01*
X130533000Y-125127000D01*
X130533000Y-124873000D01*
X130553000Y-124873000D01*
X130553000Y-123679845D01*
X130807000Y-123679845D01*
X130807000Y-124873000D01*
X132000819Y-124873000D01*
X132121486Y-124643108D01*
X131875183Y-124118642D01*
X131446924Y-123728355D01*
X131036890Y-123558524D01*
X130807000Y-123679845D01*
X130553000Y-123679845D01*
X130323110Y-123558524D01*
X129913076Y-123728355D01*
X129484817Y-124118642D01*
X129417702Y-124261553D01*
X129190054Y-123920853D01*
X128708285Y-123598946D01*
X128140000Y-123485907D01*
X127571715Y-123598946D01*
X127089946Y-123920853D01*
X127060597Y-123964777D01*
X127048157Y-123902235D01*
X126907809Y-123692191D01*
X126892704Y-123682098D01*
X128266286Y-122308516D01*
X128422058Y-122685515D01*
X128712954Y-122976919D01*
X129093223Y-123134820D01*
X129504971Y-123135179D01*
X129885515Y-122977942D01*
X130003663Y-122860000D01*
X138485198Y-122860000D01*
X139007296Y-123382098D01*
X138992191Y-123392191D01*
X138851843Y-123602235D01*
X138802560Y-123850000D01*
X138802560Y-125550000D01*
X138851843Y-125797765D01*
X138992191Y-126007809D01*
X139202235Y-126148157D01*
X139450000Y-126197440D01*
X141150000Y-126197440D01*
X141397765Y-126148157D01*
X141607809Y-126007809D01*
X141748157Y-125797765D01*
X141760597Y-125735223D01*
X141789946Y-125779147D01*
X142271715Y-126101054D01*
X142840000Y-126214093D01*
X143408285Y-126101054D01*
X143890054Y-125779147D01*
X144117702Y-125438447D01*
X144184817Y-125581358D01*
X144613076Y-125971645D01*
X145023110Y-126141476D01*
X145253000Y-126020155D01*
X145253000Y-124827000D01*
X145233000Y-124827000D01*
X145233000Y-124573000D01*
X145253000Y-124573000D01*
X145253000Y-123379845D01*
X145507000Y-123379845D01*
X145507000Y-124573000D01*
X145527000Y-124573000D01*
X145527000Y-124827000D01*
X145507000Y-124827000D01*
X145507000Y-126020155D01*
X145736890Y-126141476D01*
X146146924Y-125971645D01*
X146575183Y-125581358D01*
X146642298Y-125438447D01*
X146869946Y-125779147D01*
X147351715Y-126101054D01*
X147920000Y-126214093D01*
X148488285Y-126101054D01*
X148970054Y-125779147D01*
X149190000Y-125449974D01*
X149409946Y-125779147D01*
X149891715Y-126101054D01*
X150460000Y-126214093D01*
X151028285Y-126101054D01*
X151510054Y-125779147D01*
X151730000Y-125449974D01*
X151949946Y-125779147D01*
X152431715Y-126101054D01*
X153000000Y-126214093D01*
X153568285Y-126101054D01*
X154050054Y-125779147D01*
X154270000Y-125449974D01*
X154489946Y-125779147D01*
X154971715Y-126101054D01*
X155540000Y-126214093D01*
X156108285Y-126101054D01*
X156590054Y-125779147D01*
X156810000Y-125449974D01*
X157029946Y-125779147D01*
X157511715Y-126101054D01*
X158080000Y-126214093D01*
X158648285Y-126101054D01*
X159130054Y-125779147D01*
X159350000Y-125449974D01*
X159569946Y-125779147D01*
X160051715Y-126101054D01*
X160620000Y-126214093D01*
X161188285Y-126101054D01*
X161670054Y-125779147D01*
X161890000Y-125449974D01*
X162109946Y-125779147D01*
X162591715Y-126101054D01*
X163160000Y-126214093D01*
X163728285Y-126101054D01*
X164210054Y-125779147D01*
X164430000Y-125449974D01*
X164649946Y-125779147D01*
X165131715Y-126101054D01*
X165700000Y-126214093D01*
X166268285Y-126101054D01*
X166750054Y-125779147D01*
X166977702Y-125438447D01*
X167044817Y-125581358D01*
X167473076Y-125971645D01*
X167883110Y-126141476D01*
X168113000Y-126020155D01*
X168113000Y-124827000D01*
X168367000Y-124827000D01*
X168367000Y-126020155D01*
X168596890Y-126141476D01*
X169006924Y-125971645D01*
X169435183Y-125581358D01*
X169681486Y-125056892D01*
X169560819Y-124827000D01*
X168367000Y-124827000D01*
X168113000Y-124827000D01*
X168093000Y-124827000D01*
X168093000Y-124573000D01*
X168113000Y-124573000D01*
X168113000Y-123379845D01*
X168367000Y-123379845D01*
X168367000Y-124573000D01*
X169560819Y-124573000D01*
X169681486Y-124343108D01*
X169435183Y-123818642D01*
X169006924Y-123428355D01*
X168596890Y-123258524D01*
X168367000Y-123379845D01*
X168113000Y-123379845D01*
X167883110Y-123258524D01*
X167473076Y-123428355D01*
X167044817Y-123818642D01*
X166977702Y-123961553D01*
X166750054Y-123620853D01*
X166268285Y-123298946D01*
X165700000Y-123185907D01*
X165131715Y-123298946D01*
X164649946Y-123620853D01*
X164430000Y-123950026D01*
X164210054Y-123620853D01*
X163728285Y-123298946D01*
X163160000Y-123185907D01*
X162591715Y-123298946D01*
X162109946Y-123620853D01*
X161890000Y-123950026D01*
X161670054Y-123620853D01*
X161188285Y-123298946D01*
X160620000Y-123185907D01*
X160051715Y-123298946D01*
X159569946Y-123620853D01*
X159350000Y-123950026D01*
X159130054Y-123620853D01*
X158648285Y-123298946D01*
X158080000Y-123185907D01*
X157511715Y-123298946D01*
X157029946Y-123620853D01*
X156810000Y-123950026D01*
X156590054Y-123620853D01*
X156108285Y-123298946D01*
X155540000Y-123185907D01*
X154971715Y-123298946D01*
X154489946Y-123620853D01*
X154270000Y-123950026D01*
X154050054Y-123620853D01*
X153568285Y-123298946D01*
X153000000Y-123185907D01*
X152431715Y-123298946D01*
X151949946Y-123620853D01*
X151730000Y-123950026D01*
X151510054Y-123620853D01*
X151028285Y-123298946D01*
X150460000Y-123185907D01*
X149891715Y-123298946D01*
X149409946Y-123620853D01*
X149190000Y-123950026D01*
X148970054Y-123620853D01*
X148488285Y-123298946D01*
X147920000Y-123185907D01*
X147351715Y-123298946D01*
X146869946Y-123620853D01*
X146642298Y-123961553D01*
X146575183Y-123818642D01*
X146146924Y-123428355D01*
X145736890Y-123258524D01*
X145507000Y-123379845D01*
X145253000Y-123379845D01*
X145023110Y-123258524D01*
X144613076Y-123428355D01*
X144184817Y-123818642D01*
X144117702Y-123961553D01*
X143890054Y-123620853D01*
X143408285Y-123298946D01*
X142840000Y-123185907D01*
X142271715Y-123298946D01*
X141789946Y-123620853D01*
X141760597Y-123664777D01*
X141748157Y-123602235D01*
X141607809Y-123392191D01*
X141548810Y-123352769D01*
X142150776Y-122750803D01*
X142150779Y-122750801D01*
X142342622Y-122463686D01*
X142357112Y-122390839D01*
X142409990Y-122125011D01*
X142409989Y-122125006D01*
X142409989Y-104741591D01*
X145263138Y-101888442D01*
X146365008Y-102990313D01*
X146364821Y-103204971D01*
X146522058Y-103585515D01*
X146812954Y-103876919D01*
X147193223Y-104034820D01*
X147604971Y-104035179D01*
X147985515Y-103877942D01*
X148276919Y-103587046D01*
X148434820Y-103206777D01*
X148435179Y-102795029D01*
X148277942Y-102414485D01*
X147987046Y-102123081D01*
X147606777Y-101965180D01*
X147390296Y-101964991D01*
X146345995Y-100920691D01*
X146434820Y-100706777D01*
X146435179Y-100295029D01*
X146277942Y-99914485D01*
X145987046Y-99623081D01*
X145606777Y-99465180D01*
X145195029Y-99464821D01*
X144814485Y-99622058D01*
X144523081Y-99912954D01*
X144372268Y-100276153D01*
X141143444Y-103504976D01*
X140806777Y-103365180D01*
X140395029Y-103364821D01*
X140014485Y-103522058D01*
X139723081Y-103812954D01*
X139565180Y-104193223D01*
X139565034Y-104360164D01*
X134985002Y-108940196D01*
X134985002Y-98489800D01*
X145233592Y-88241210D01*
X145600000Y-88314093D01*
X146168285Y-88201054D01*
X146650054Y-87879147D01*
X146870000Y-87549974D01*
X147089946Y-87879147D01*
X147571715Y-88201054D01*
X147675000Y-88221599D01*
X147675000Y-99861300D01*
X147523081Y-100012954D01*
X147365180Y-100393223D01*
X147364821Y-100804971D01*
X147522058Y-101185515D01*
X147812954Y-101476919D01*
X148193223Y-101634820D01*
X148604971Y-101635179D01*
X148893346Y-101516025D01*
X148922058Y-101585515D01*
X149075000Y-101738724D01*
X149075000Y-105526389D01*
X149096640Y-105635179D01*
X149130187Y-105803835D01*
X149287348Y-106039041D01*
X151305018Y-108056712D01*
X151304831Y-108271370D01*
X151462068Y-108651914D01*
X151606890Y-108796989D01*
X147563879Y-112840000D01*
X147303761Y-112840000D01*
X147187046Y-112723081D01*
X146806777Y-112565180D01*
X146395029Y-112564821D01*
X146014485Y-112722058D01*
X145723081Y-113012954D01*
X145565180Y-113393223D01*
X145564965Y-113640000D01*
X145003761Y-113640000D01*
X144887046Y-113523081D01*
X144506777Y-113365180D01*
X144095029Y-113364821D01*
X143714485Y-113522058D01*
X143423081Y-113812954D01*
X143265180Y-114193223D01*
X143264827Y-114597964D01*
X142964495Y-114722058D01*
X142673091Y-115012954D01*
X142515190Y-115393223D01*
X142514831Y-115804971D01*
X142672068Y-116185515D01*
X142790010Y-116303663D01*
X142790010Y-116923012D01*
X142847862Y-117213851D01*
X143012609Y-117460413D01*
X145614598Y-120062402D01*
X145861160Y-120227149D01*
X146151999Y-120285001D01*
X148304170Y-120285001D01*
X148214485Y-120322058D01*
X148096337Y-120440000D01*
X145625066Y-120440000D01*
X145532932Y-120217017D01*
X145242036Y-119925613D01*
X144861767Y-119767712D01*
X144450019Y-119767353D01*
X144069475Y-119924590D01*
X143778071Y-120215486D01*
X143620170Y-120595755D01*
X143619811Y-121007503D01*
X143777048Y-121388047D01*
X144067944Y-121679451D01*
X144448213Y-121837352D01*
X144664927Y-121837541D01*
X144761619Y-121902148D01*
X145052458Y-121960000D01*
X148096239Y-121960000D01*
X148212954Y-122076919D01*
X148593223Y-122234820D01*
X149004971Y-122235179D01*
X149385515Y-122077942D01*
X149676919Y-121787046D01*
X149834820Y-121406777D01*
X149835179Y-120995029D01*
X149677942Y-120614485D01*
X149387046Y-120323081D01*
X149295339Y-120285001D01*
X169074999Y-120285001D01*
X169365838Y-120227149D01*
X169612400Y-120062402D01*
X170639767Y-119035035D01*
X170804971Y-119035179D01*
X171185515Y-118877942D01*
X171476919Y-118587046D01*
X171634820Y-118206777D01*
X171635116Y-117867326D01*
X171734238Y-117908485D01*
X172145986Y-117908844D01*
X172526530Y-117751607D01*
X172817934Y-117460711D01*
X172975835Y-117080442D01*
X172976194Y-116668694D01*
X172818957Y-116288150D01*
X172528061Y-115996746D01*
X172147792Y-115838845D01*
X171980851Y-115838699D01*
X170004751Y-113862599D01*
X169758189Y-113697852D01*
X169467350Y-113640000D01*
X148913483Y-113640000D01*
X151689291Y-110864192D01*
X151822058Y-111185515D01*
X152112954Y-111476919D01*
X152493223Y-111634820D01*
X152904971Y-111635179D01*
X153285515Y-111477942D01*
X153576919Y-111187046D01*
X153734820Y-110806777D01*
X153735009Y-110590295D01*
X154100304Y-110225000D01*
X155800198Y-110225000D01*
X155360233Y-110664965D01*
X155195029Y-110664821D01*
X154814485Y-110822058D01*
X154523081Y-111112954D01*
X154365180Y-111493223D01*
X154364821Y-111904971D01*
X154522058Y-112285515D01*
X154812954Y-112576919D01*
X155193223Y-112734820D01*
X155604971Y-112735179D01*
X155985515Y-112577942D01*
X156200119Y-112363712D01*
X156412954Y-112576919D01*
X156793223Y-112734820D01*
X157204971Y-112735179D01*
X157585515Y-112577942D01*
X157876919Y-112287046D01*
X158034820Y-111906777D01*
X158034966Y-111739836D01*
X169837401Y-99937401D01*
X170002148Y-99690839D01*
X170060000Y-99400000D01*
X170060000Y-99203761D01*
X170176919Y-99087046D01*
X170334820Y-98706777D01*
X170335179Y-98295029D01*
X170177942Y-97914485D01*
X169887046Y-97623081D01*
X169506777Y-97465180D01*
X169095029Y-97464821D01*
X168714485Y-97622058D01*
X168534831Y-97801399D01*
X168206777Y-97665180D01*
X167795029Y-97664821D01*
X167414485Y-97822058D01*
X167123081Y-98112954D01*
X166965180Y-98493223D01*
X166964821Y-98904971D01*
X167010259Y-99014939D01*
X157250198Y-108775000D01*
X153800000Y-108775000D01*
X153707526Y-108793394D01*
X153766429Y-108705239D01*
X153808609Y-108493189D01*
X163620137Y-98681661D01*
X163642837Y-98677146D01*
X163889399Y-98512399D01*
X168341798Y-94060000D01*
X174071229Y-94060000D01*
X174187944Y-94176919D01*
X174568213Y-94334820D01*
X174740000Y-94334970D01*
X174740000Y-117396239D01*
X174623081Y-117512954D01*
X174465180Y-117893223D01*
X174464821Y-118304971D01*
X174622058Y-118685515D01*
X174912954Y-118976919D01*
X175293223Y-119134820D01*
X175704971Y-119135179D01*
X176085515Y-118977942D01*
X176376919Y-118687046D01*
X176534820Y-118306777D01*
X176535179Y-117895029D01*
X176377942Y-117514485D01*
X176260000Y-117396337D01*
X176260000Y-92100000D01*
X176227657Y-91937401D01*
X176202148Y-91809160D01*
X176037401Y-91562599D01*
X175635035Y-91160233D01*
X175635179Y-90995029D01*
X175477942Y-90614485D01*
X175187046Y-90323081D01*
X174806777Y-90165180D01*
X174395029Y-90164821D01*
X174014485Y-90322058D01*
X173723081Y-90612954D01*
X173565180Y-90993223D01*
X173564821Y-91404971D01*
X173722058Y-91785515D01*
X174012954Y-92076919D01*
X174393223Y-92234820D01*
X174560164Y-92234966D01*
X174590036Y-92264838D01*
X174570019Y-92264821D01*
X174189475Y-92422058D01*
X174071327Y-92540000D01*
X168371123Y-92540000D01*
X168277942Y-92314485D01*
X167987046Y-92023081D01*
X167606777Y-91865180D01*
X167195029Y-91864821D01*
X166814485Y-92022058D01*
X166523081Y-92312954D01*
X166365180Y-92693223D01*
X166365166Y-92709529D01*
X155509688Y-103565008D01*
X155295029Y-103564821D01*
X154914485Y-103722058D01*
X154623081Y-104012954D01*
X154465180Y-104393223D01*
X154464821Y-104804971D01*
X154622058Y-105185515D01*
X154794218Y-105357976D01*
X152944869Y-107207325D01*
X152927056Y-107189480D01*
X152546787Y-107031579D01*
X152330306Y-107031390D01*
X150525000Y-105226085D01*
X150525000Y-101738700D01*
X150676919Y-101587046D01*
X150834820Y-101206777D01*
X150835179Y-100795029D01*
X150677942Y-100414485D01*
X150387046Y-100123081D01*
X150034998Y-99976898D01*
X150034998Y-93098478D01*
X150312954Y-93376919D01*
X150693223Y-93534820D01*
X151104971Y-93535179D01*
X151485515Y-93377942D01*
X151603663Y-93260000D01*
X162628877Y-93260000D01*
X162722058Y-93485515D01*
X163012954Y-93776919D01*
X163393223Y-93934820D01*
X163804971Y-93935179D01*
X164185515Y-93777942D01*
X164476919Y-93487046D01*
X164634820Y-93106777D01*
X164635179Y-92695029D01*
X164477942Y-92314485D01*
X164187046Y-92023081D01*
X163806777Y-91865180D01*
X163591322Y-91864992D01*
X163490839Y-91797852D01*
X163334855Y-91766825D01*
X163335179Y-91395029D01*
X163177942Y-91014485D01*
X162887046Y-90723081D01*
X162506777Y-90565180D01*
X162095029Y-90564821D01*
X161714485Y-90722058D01*
X161596337Y-90840000D01*
X150888485Y-90840000D01*
X150877942Y-90814485D01*
X150587046Y-90523081D01*
X150206777Y-90365180D01*
X150034998Y-90365030D01*
X150034998Y-88449094D01*
X150254614Y-88229478D01*
X150680000Y-88314093D01*
X151248285Y-88201054D01*
X151730054Y-87879147D01*
X151950000Y-87549974D01*
X152169946Y-87879147D01*
X152651715Y-88201054D01*
X153220000Y-88314093D01*
X153788285Y-88201054D01*
X154270054Y-87879147D01*
X154490000Y-87549974D01*
X154709946Y-87879147D01*
X155191715Y-88201054D01*
X155760000Y-88314093D01*
X156328285Y-88201054D01*
X156810054Y-87879147D01*
X157030000Y-87549974D01*
X157249946Y-87879147D01*
X157731715Y-88201054D01*
X158300000Y-88314093D01*
X158868285Y-88201054D01*
X159350054Y-87879147D01*
X159570000Y-87549974D01*
X159789946Y-87879147D01*
X160271715Y-88201054D01*
X160840000Y-88314093D01*
X161408285Y-88201054D01*
X161890054Y-87879147D01*
X162110000Y-87549974D01*
X162329946Y-87879147D01*
X162811715Y-88201054D01*
X163380000Y-88314093D01*
X163948285Y-88201054D01*
X164430054Y-87879147D01*
X164650000Y-87549974D01*
X164869946Y-87879147D01*
X165351715Y-88201054D01*
X165920000Y-88314093D01*
X166488285Y-88201054D01*
X166970054Y-87879147D01*
X167197702Y-87538447D01*
X167264817Y-87681358D01*
X167693076Y-88071645D01*
X168103110Y-88241476D01*
X168333000Y-88120155D01*
X168333000Y-86927000D01*
X168587000Y-86927000D01*
X168587000Y-88120155D01*
X168816890Y-88241476D01*
X169226924Y-88071645D01*
X169655183Y-87681358D01*
X169901486Y-87156892D01*
X169780819Y-86927000D01*
X168587000Y-86927000D01*
X168333000Y-86927000D01*
X168313000Y-86927000D01*
X168313000Y-86673000D01*
X168333000Y-86673000D01*
X168333000Y-85479845D01*
X168587000Y-85479845D01*
X168587000Y-86673000D01*
X169780819Y-86673000D01*
X169901486Y-86443108D01*
X169655183Y-85918642D01*
X169226924Y-85528355D01*
X168816890Y-85358524D01*
X168587000Y-85479845D01*
X168333000Y-85479845D01*
X168103110Y-85358524D01*
X167693076Y-85528355D01*
X167264817Y-85918642D01*
X167197702Y-86061553D01*
X166970054Y-85720853D01*
X166488285Y-85398946D01*
X165920000Y-85285907D01*
X165351715Y-85398946D01*
X164869946Y-85720853D01*
X164650000Y-86050026D01*
X164430054Y-85720853D01*
X163948285Y-85398946D01*
X163380000Y-85285907D01*
X162811715Y-85398946D01*
X162329946Y-85720853D01*
X162110000Y-86050026D01*
X161890054Y-85720853D01*
X161408285Y-85398946D01*
X160840000Y-85285907D01*
X160271715Y-85398946D01*
X159789946Y-85720853D01*
X159570000Y-86050026D01*
X159350054Y-85720853D01*
X158868285Y-85398946D01*
X158300000Y-85285907D01*
X157731715Y-85398946D01*
X157249946Y-85720853D01*
X157030000Y-86050026D01*
X156810054Y-85720853D01*
X156328285Y-85398946D01*
X155760000Y-85285907D01*
X155191715Y-85398946D01*
X154709946Y-85720853D01*
X154490000Y-86050026D01*
X154270054Y-85720853D01*
X153788285Y-85398946D01*
X153220000Y-85285907D01*
X152651715Y-85398946D01*
X152169946Y-85720853D01*
X151950000Y-86050026D01*
X151730054Y-85720853D01*
X151248285Y-85398946D01*
X150680000Y-85285907D01*
X150111715Y-85398946D01*
X149629946Y-85720853D01*
X149410000Y-86050026D01*
X149190054Y-85720853D01*
X148708285Y-85398946D01*
X148140000Y-85285907D01*
X147571715Y-85398946D01*
X147089946Y-85720853D01*
X146870000Y-86050026D01*
X146650054Y-85720853D01*
X146168285Y-85398946D01*
X145600000Y-85285907D01*
X145031715Y-85398946D01*
X144549946Y-85720853D01*
X144330000Y-86050026D01*
X144110054Y-85720853D01*
X143628285Y-85398946D01*
X143060000Y-85285907D01*
X142491715Y-85398946D01*
X142009946Y-85720853D01*
X141980597Y-85764777D01*
X141968157Y-85702235D01*
X141827809Y-85492191D01*
X141617765Y-85351843D01*
X141370000Y-85302560D01*
X139670000Y-85302560D01*
X139422235Y-85351843D01*
X139212191Y-85492191D01*
X139071843Y-85702235D01*
X139022560Y-85950000D01*
X139022560Y-87650000D01*
X139071843Y-87897765D01*
X139212191Y-88107809D01*
X139422235Y-88248157D01*
X139670000Y-88297440D01*
X140487758Y-88297440D01*
X134845198Y-93940000D01*
X133303761Y-93940000D01*
X133187046Y-93823081D01*
X132806777Y-93665180D01*
X132395029Y-93664821D01*
X132014485Y-93822058D01*
X131723081Y-94112954D01*
X131565180Y-94493223D01*
X131564821Y-94904971D01*
X131722058Y-95285515D01*
X132012954Y-95576919D01*
X132393223Y-95734820D01*
X132804971Y-95735179D01*
X133185515Y-95577942D01*
X133303663Y-95460000D01*
X135160000Y-95460000D01*
X135450839Y-95402148D01*
X135697401Y-95237401D01*
X142693592Y-88241210D01*
X143019217Y-88305981D01*
X133687601Y-97637597D01*
X133522854Y-97884159D01*
X133465002Y-98174998D01*
X133465002Y-102943697D01*
X133452932Y-102914485D01*
X133162036Y-102623081D01*
X132781767Y-102465180D01*
X132370019Y-102464821D01*
X131989475Y-102622058D01*
X131698071Y-102912954D01*
X131540170Y-103293223D01*
X131540024Y-103460164D01*
X129460000Y-105540188D01*
X129460000Y-103114802D01*
X129539767Y-103035035D01*
X129704971Y-103035179D01*
X130085515Y-102877942D01*
X130376919Y-102587046D01*
X130534820Y-102206777D01*
X130535179Y-101795029D01*
X130377942Y-101414485D01*
X130087046Y-101123081D01*
X129706777Y-100965180D01*
X129295029Y-100964821D01*
X128914485Y-101122058D01*
X128623081Y-101412954D01*
X128465180Y-101793223D01*
X128465034Y-101960164D01*
X128162599Y-102262599D01*
X127997852Y-102509161D01*
X127940000Y-102800000D01*
X127940000Y-108996239D01*
X127823081Y-109112954D01*
X127665180Y-109493223D01*
X127664821Y-109904971D01*
X127822058Y-110285515D01*
X128112954Y-110576919D01*
X128493223Y-110734820D01*
X128904971Y-110735179D01*
X129236423Y-110598226D01*
X129262599Y-110637401D01*
X130064965Y-111439767D01*
X130064821Y-111604971D01*
X130222058Y-111985515D01*
X130512954Y-112276919D01*
X130893223Y-112434820D01*
X131304971Y-112435179D01*
X131685515Y-112277942D01*
X131976919Y-111987046D01*
X132134820Y-111606777D01*
X132135179Y-111195029D01*
X131977942Y-110814485D01*
X131687046Y-110523081D01*
X131306777Y-110365180D01*
X131139836Y-110365034D01*
X130560000Y-109785198D01*
X130560000Y-107323873D01*
X130612954Y-107376919D01*
X130993223Y-107534820D01*
X131060076Y-107534878D01*
X132164965Y-108639767D01*
X132164821Y-108804971D01*
X132322058Y-109185515D01*
X132612954Y-109476919D01*
X132993223Y-109634820D01*
X133404971Y-109635179D01*
X133465002Y-109610375D01*
X133465002Y-112464969D01*
X133295029Y-112464821D01*
X132914485Y-112622058D01*
X132796337Y-112740000D01*
X128800000Y-112740000D01*
X128509161Y-112797852D01*
X128262599Y-112962599D01*
X127160233Y-114064965D01*
X126995029Y-114064821D01*
X126614485Y-114222058D01*
X126323081Y-114512954D01*
X126165180Y-114893223D01*
X126164821Y-115304971D01*
X126322058Y-115685515D01*
X126612954Y-115976919D01*
X126993223Y-116134820D01*
X127404971Y-116135179D01*
X127785515Y-115977942D01*
X128076919Y-115687046D01*
X128234820Y-115306777D01*
X128234966Y-115139836D01*
X129114802Y-114260000D01*
X132738202Y-114260000D01*
X129462599Y-117535603D01*
X129297852Y-117782165D01*
X129240000Y-118073004D01*
X129240000Y-119596239D01*
X129123081Y-119712954D01*
X128965180Y-120093223D01*
X128964878Y-120440000D01*
X128300000Y-120440000D01*
X128009161Y-120497852D01*
X127762599Y-120662599D01*
X125062599Y-123362599D01*
X124969080Y-123502560D01*
X124750000Y-123502560D01*
X124502235Y-123551843D01*
X124292191Y-123692191D01*
X124151843Y-123902235D01*
X124102560Y-124150000D01*
X118461669Y-124150000D01*
X117858355Y-123656380D01*
X117902148Y-123590840D01*
X117960000Y-123300000D01*
X117960000Y-119955169D01*
X118037233Y-120142086D01*
X118356235Y-120461645D01*
X118773244Y-120634803D01*
X119224775Y-120635197D01*
X119642086Y-120462767D01*
X119961645Y-120143765D01*
X120134803Y-119726756D01*
X120135197Y-119275225D01*
X119962767Y-118857914D01*
X119643765Y-118538355D01*
X119226756Y-118365197D01*
X118775225Y-118364803D01*
X118357914Y-118537233D01*
X118038355Y-118856235D01*
X117960000Y-119044934D01*
X117960000Y-116404971D01*
X118264821Y-116404971D01*
X118422058Y-116785515D01*
X118712954Y-117076919D01*
X119093223Y-117234820D01*
X119260164Y-117234966D01*
X121962599Y-119937401D01*
X122209160Y-120102148D01*
X122500000Y-120160000D01*
X124096239Y-120160000D01*
X124212954Y-120276919D01*
X124593223Y-120434820D01*
X125004971Y-120435179D01*
X125385515Y-120277942D01*
X125676919Y-119987046D01*
X125834820Y-119606777D01*
X125835179Y-119195029D01*
X125677942Y-118814485D01*
X125387046Y-118523081D01*
X125006777Y-118365180D01*
X124595029Y-118364821D01*
X124214485Y-118522058D01*
X124096337Y-118640000D01*
X122814802Y-118640000D01*
X120335035Y-116160233D01*
X120335179Y-115995029D01*
X120177942Y-115614485D01*
X119887046Y-115323081D01*
X119506777Y-115165180D01*
X119095029Y-115164821D01*
X118714485Y-115322058D01*
X118423081Y-115612954D01*
X118265180Y-115993223D01*
X118264821Y-116404971D01*
X117960000Y-116404971D01*
X117960000Y-113955169D01*
X118037233Y-114142086D01*
X118356235Y-114461645D01*
X118773244Y-114634803D01*
X119224775Y-114635197D01*
X119642086Y-114462767D01*
X119961645Y-114143765D01*
X120134803Y-113726756D01*
X120135197Y-113275225D01*
X119962767Y-112857914D01*
X119643765Y-112538355D01*
X119226756Y-112365197D01*
X118775225Y-112364803D01*
X118357914Y-112537233D01*
X118038355Y-112856235D01*
X117960000Y-113044934D01*
X117960000Y-109235000D01*
X118352000Y-109235000D01*
X118776678Y-109100002D01*
X119117368Y-108812763D01*
X119319119Y-108401874D01*
X119192954Y-108227000D01*
X118077000Y-108227000D01*
X118077000Y-108247000D01*
X117823000Y-108247000D01*
X117823000Y-108227000D01*
X117803000Y-108227000D01*
X117803000Y-107973000D01*
X117823000Y-107973000D01*
X117823000Y-107953000D01*
X118077000Y-107953000D01*
X118077000Y-107973000D01*
X119192954Y-107973000D01*
X119319119Y-107798126D01*
X119124191Y-107401131D01*
X119548771Y-107401131D01*
X119690432Y-107811049D01*
X119978179Y-108135552D01*
X120352062Y-108319268D01*
X120523000Y-108192734D01*
X120523000Y-107227000D01*
X120777000Y-107227000D01*
X120777000Y-108192734D01*
X120947938Y-108319268D01*
X121321821Y-108135552D01*
X121609568Y-107811049D01*
X121751229Y-107401131D01*
X121602563Y-107227000D01*
X120777000Y-107227000D01*
X120523000Y-107227000D01*
X119697437Y-107227000D01*
X119548771Y-107401131D01*
X119124191Y-107401131D01*
X119117368Y-107387237D01*
X118776678Y-107099998D01*
X118352000Y-106965000D01*
X117960000Y-106965000D01*
X117960000Y-106798869D01*
X119548771Y-106798869D01*
X119697437Y-106973000D01*
X120523000Y-106973000D01*
X120523000Y-106007266D01*
X120777000Y-106007266D01*
X120777000Y-106973000D01*
X121602563Y-106973000D01*
X121751229Y-106798869D01*
X121609568Y-106388951D01*
X121321821Y-106064448D01*
X120947938Y-105880732D01*
X120777000Y-106007266D01*
X120523000Y-106007266D01*
X120352062Y-105880732D01*
X119978179Y-106064448D01*
X119690432Y-106388951D01*
X119548771Y-106798869D01*
X117960000Y-106798869D01*
X117960000Y-102401131D01*
X119548771Y-102401131D01*
X119690432Y-102811049D01*
X119978179Y-103135552D01*
X120352062Y-103319268D01*
X120523000Y-103192734D01*
X120523000Y-102227000D01*
X120777000Y-102227000D01*
X120777000Y-103192734D01*
X120947938Y-103319268D01*
X121321821Y-103135552D01*
X121609568Y-102811049D01*
X121751229Y-102401131D01*
X121602563Y-102227000D01*
X120777000Y-102227000D01*
X120523000Y-102227000D01*
X119697437Y-102227000D01*
X119548771Y-102401131D01*
X117960000Y-102401131D01*
X117960000Y-102235000D01*
X118352000Y-102235000D01*
X118776678Y-102100002D01*
X119117368Y-101812763D01*
X119124190Y-101798869D01*
X119548771Y-101798869D01*
X119697437Y-101973000D01*
X120523000Y-101973000D01*
X120523000Y-101007266D01*
X120777000Y-101007266D01*
X120777000Y-101973000D01*
X121602563Y-101973000D01*
X121751229Y-101798869D01*
X121609568Y-101388951D01*
X121321821Y-101064448D01*
X120947938Y-100880732D01*
X120777000Y-101007266D01*
X120523000Y-101007266D01*
X120352062Y-100880732D01*
X119978179Y-101064448D01*
X119690432Y-101388951D01*
X119548771Y-101798869D01*
X119124190Y-101798869D01*
X119319119Y-101401874D01*
X119192954Y-101227000D01*
X118077000Y-101227000D01*
X118077000Y-101247000D01*
X117823000Y-101247000D01*
X117823000Y-101227000D01*
X117803000Y-101227000D01*
X117803000Y-100973000D01*
X117823000Y-100973000D01*
X117823000Y-100953000D01*
X118077000Y-100953000D01*
X118077000Y-100973000D01*
X119192954Y-100973000D01*
X119319119Y-100798126D01*
X119117368Y-100387237D01*
X118776678Y-100099998D01*
X118352000Y-99965000D01*
X117960000Y-99965000D01*
X117960000Y-89399998D01*
X117902148Y-89109159D01*
X117763013Y-88900928D01*
X117776919Y-88887046D01*
X117898240Y-88594872D01*
X120757814Y-85326787D01*
X122700804Y-85319617D01*
X122592191Y-85392191D01*
X122451843Y-85602235D01*
X122402560Y-85850000D01*
X122402560Y-87550000D01*
X122451843Y-87797765D01*
X122592191Y-88007809D01*
X122802235Y-88148157D01*
X123050000Y-88197440D01*
X123867758Y-88197440D01*
X121214557Y-90850641D01*
X121187046Y-90823081D01*
X120806777Y-90665180D01*
X120395029Y-90664821D01*
X120014485Y-90822058D01*
X119723081Y-91112954D01*
X119565180Y-91493223D01*
X119564821Y-91904971D01*
X119722058Y-92285515D01*
X120012954Y-92576919D01*
X120393223Y-92734820D01*
X120804971Y-92735179D01*
X121185515Y-92577942D01*
X121303663Y-92460000D01*
X121440000Y-92460000D01*
X121730839Y-92402148D01*
X121977401Y-92237401D01*
X126073592Y-88141210D01*
X126440000Y-88214093D01*
X127008285Y-88101054D01*
X127490054Y-87779147D01*
X127717702Y-87438447D01*
X127784817Y-87581358D01*
X128213076Y-87971645D01*
X128623110Y-88141476D01*
X128853000Y-88020155D01*
X128853000Y-86827000D01*
X129107000Y-86827000D01*
X129107000Y-88020155D01*
X129336890Y-88141476D01*
X129746924Y-87971645D01*
X130175183Y-87581358D01*
X130421486Y-87056892D01*
X130300819Y-86827000D01*
X129107000Y-86827000D01*
X128853000Y-86827000D01*
X128833000Y-86827000D01*
X128833000Y-86573000D01*
X128853000Y-86573000D01*
X128853000Y-86553000D01*
X129107000Y-86553000D01*
X129107000Y-86573000D01*
X130300819Y-86573000D01*
X130421486Y-86343108D01*
X130175183Y-85818642D01*
X129746924Y-85428355D01*
X129424490Y-85294807D01*
X174852754Y-85127175D01*
X178573171Y-88358063D01*
X178573171Y-88358063D01*
G37*
X178573171Y-88358063D02*
X178672858Y-122151977D01*
X174842671Y-126473214D01*
X151430477Y-126560900D01*
X122130500Y-126560900D01*
X121868362Y-126613043D01*
X121780202Y-126671950D01*
X121545127Y-126672830D01*
X118461669Y-124150000D01*
X124102560Y-124150000D01*
X124102560Y-125850000D01*
X124151843Y-126097765D01*
X124292191Y-126307809D01*
X124502235Y-126448157D01*
X124750000Y-126497440D01*
X126450000Y-126497440D01*
X126697765Y-126448157D01*
X126907809Y-126307809D01*
X127048157Y-126097765D01*
X127060597Y-126035223D01*
X127089946Y-126079147D01*
X127571715Y-126401054D01*
X128140000Y-126514093D01*
X128708285Y-126401054D01*
X129190054Y-126079147D01*
X129417702Y-125738447D01*
X129484817Y-125881358D01*
X129913076Y-126271645D01*
X130323110Y-126441476D01*
X130553000Y-126320155D01*
X130553000Y-125127000D01*
X130807000Y-125127000D01*
X130807000Y-126320155D01*
X131036890Y-126441476D01*
X131446924Y-126271645D01*
X131875183Y-125881358D01*
X132121486Y-125356892D01*
X132000819Y-125127000D01*
X130807000Y-125127000D01*
X130553000Y-125127000D01*
X130533000Y-125127000D01*
X130533000Y-124873000D01*
X130553000Y-124873000D01*
X130553000Y-123679845D01*
X130807000Y-123679845D01*
X130807000Y-124873000D01*
X132000819Y-124873000D01*
X132121486Y-124643108D01*
X131875183Y-124118642D01*
X131446924Y-123728355D01*
X131036890Y-123558524D01*
X130807000Y-123679845D01*
X130553000Y-123679845D01*
X130323110Y-123558524D01*
X129913076Y-123728355D01*
X129484817Y-124118642D01*
X129417702Y-124261553D01*
X129190054Y-123920853D01*
X128708285Y-123598946D01*
X128140000Y-123485907D01*
X127571715Y-123598946D01*
X127089946Y-123920853D01*
X127060597Y-123964777D01*
X127048157Y-123902235D01*
X126907809Y-123692191D01*
X126892704Y-123682098D01*
X128266286Y-122308516D01*
X128422058Y-122685515D01*
X128712954Y-122976919D01*
X129093223Y-123134820D01*
X129504971Y-123135179D01*
X129885515Y-122977942D01*
X130003663Y-122860000D01*
X138485198Y-122860000D01*
X139007296Y-123382098D01*
X138992191Y-123392191D01*
X138851843Y-123602235D01*
X138802560Y-123850000D01*
X138802560Y-125550000D01*
X138851843Y-125797765D01*
X138992191Y-126007809D01*
X139202235Y-126148157D01*
X139450000Y-126197440D01*
X141150000Y-126197440D01*
X141397765Y-126148157D01*
X141607809Y-126007809D01*
X141748157Y-125797765D01*
X141760597Y-125735223D01*
X141789946Y-125779147D01*
X142271715Y-126101054D01*
X142840000Y-126214093D01*
X143408285Y-126101054D01*
X143890054Y-125779147D01*
X144117702Y-125438447D01*
X144184817Y-125581358D01*
X144613076Y-125971645D01*
X145023110Y-126141476D01*
X145253000Y-126020155D01*
X145253000Y-124827000D01*
X145233000Y-124827000D01*
X145233000Y-124573000D01*
X145253000Y-124573000D01*
X145253000Y-123379845D01*
X145507000Y-123379845D01*
X145507000Y-124573000D01*
X145527000Y-124573000D01*
X145527000Y-124827000D01*
X145507000Y-124827000D01*
X145507000Y-126020155D01*
X145736890Y-126141476D01*
X146146924Y-125971645D01*
X146575183Y-125581358D01*
X146642298Y-125438447D01*
X146869946Y-125779147D01*
X147351715Y-126101054D01*
X147920000Y-126214093D01*
X148488285Y-126101054D01*
X148970054Y-125779147D01*
X149190000Y-125449974D01*
X149409946Y-125779147D01*
X149891715Y-126101054D01*
X150460000Y-126214093D01*
X151028285Y-126101054D01*
X151510054Y-125779147D01*
X151730000Y-125449974D01*
X151949946Y-125779147D01*
X152431715Y-126101054D01*
X153000000Y-126214093D01*
X153568285Y-126101054D01*
X154050054Y-125779147D01*
X154270000Y-125449974D01*
X154489946Y-125779147D01*
X154971715Y-126101054D01*
X155540000Y-126214093D01*
X156108285Y-126101054D01*
X156590054Y-125779147D01*
X156810000Y-125449974D01*
X157029946Y-125779147D01*
X157511715Y-126101054D01*
X158080000Y-126214093D01*
X158648285Y-126101054D01*
X159130054Y-125779147D01*
X159350000Y-125449974D01*
X159569946Y-125779147D01*
X160051715Y-126101054D01*
X160620000Y-126214093D01*
X161188285Y-126101054D01*
X161670054Y-125779147D01*
X161890000Y-125449974D01*
X162109946Y-125779147D01*
X162591715Y-126101054D01*
X163160000Y-126214093D01*
X163728285Y-126101054D01*
X164210054Y-125779147D01*
X164430000Y-125449974D01*
X164649946Y-125779147D01*
X165131715Y-126101054D01*
X165700000Y-126214093D01*
X166268285Y-126101054D01*
X166750054Y-125779147D01*
X166977702Y-125438447D01*
X167044817Y-125581358D01*
X167473076Y-125971645D01*
X167883110Y-126141476D01*
X168113000Y-126020155D01*
X168113000Y-124827000D01*
X168367000Y-124827000D01*
X168367000Y-126020155D01*
X168596890Y-126141476D01*
X169006924Y-125971645D01*
X169435183Y-125581358D01*
X169681486Y-125056892D01*
X169560819Y-124827000D01*
X168367000Y-124827000D01*
X168113000Y-124827000D01*
X168093000Y-124827000D01*
X168093000Y-124573000D01*
X168113000Y-124573000D01*
X168113000Y-123379845D01*
X168367000Y-123379845D01*
X168367000Y-124573000D01*
X169560819Y-124573000D01*
X169681486Y-124343108D01*
X169435183Y-123818642D01*
X169006924Y-123428355D01*
X168596890Y-123258524D01*
X168367000Y-123379845D01*
X168113000Y-123379845D01*
X167883110Y-123258524D01*
X167473076Y-123428355D01*
X167044817Y-123818642D01*
X166977702Y-123961553D01*
X166750054Y-123620853D01*
X166268285Y-123298946D01*
X165700000Y-123185907D01*
X165131715Y-123298946D01*
X164649946Y-123620853D01*
X164430000Y-123950026D01*
X164210054Y-123620853D01*
X163728285Y-123298946D01*
X163160000Y-123185907D01*
X162591715Y-123298946D01*
X162109946Y-123620853D01*
X161890000Y-123950026D01*
X161670054Y-123620853D01*
X161188285Y-123298946D01*
X160620000Y-123185907D01*
X160051715Y-123298946D01*
X159569946Y-123620853D01*
X159350000Y-123950026D01*
X159130054Y-123620853D01*
X158648285Y-123298946D01*
X158080000Y-123185907D01*
X157511715Y-123298946D01*
X157029946Y-123620853D01*
X156810000Y-123950026D01*
X156590054Y-123620853D01*
X156108285Y-123298946D01*
X155540000Y-123185907D01*
X154971715Y-123298946D01*
X154489946Y-123620853D01*
X154270000Y-123950026D01*
X154050054Y-123620853D01*
X153568285Y-123298946D01*
X153000000Y-123185907D01*
X152431715Y-123298946D01*
X151949946Y-123620853D01*
X151730000Y-123950026D01*
X151510054Y-123620853D01*
X151028285Y-123298946D01*
X150460000Y-123185907D01*
X149891715Y-123298946D01*
X149409946Y-123620853D01*
X149190000Y-123950026D01*
X148970054Y-123620853D01*
X148488285Y-123298946D01*
X147920000Y-123185907D01*
X147351715Y-123298946D01*
X146869946Y-123620853D01*
X146642298Y-123961553D01*
X146575183Y-123818642D01*
X146146924Y-123428355D01*
X145736890Y-123258524D01*
X145507000Y-123379845D01*
X145253000Y-123379845D01*
X145023110Y-123258524D01*
X144613076Y-123428355D01*
X144184817Y-123818642D01*
X144117702Y-123961553D01*
X143890054Y-123620853D01*
X143408285Y-123298946D01*
X142840000Y-123185907D01*
X142271715Y-123298946D01*
X141789946Y-123620853D01*
X141760597Y-123664777D01*
X141748157Y-123602235D01*
X141607809Y-123392191D01*
X141548810Y-123352769D01*
X142150776Y-122750803D01*
X142150779Y-122750801D01*
X142342622Y-122463686D01*
X142357112Y-122390839D01*
X142409990Y-122125011D01*
X142409989Y-122125006D01*
X142409989Y-104741591D01*
X145263138Y-101888442D01*
X146365008Y-102990313D01*
X146364821Y-103204971D01*
X146522058Y-103585515D01*
X146812954Y-103876919D01*
X147193223Y-104034820D01*
X147604971Y-104035179D01*
X147985515Y-103877942D01*
X148276919Y-103587046D01*
X148434820Y-103206777D01*
X148435179Y-102795029D01*
X148277942Y-102414485D01*
X147987046Y-102123081D01*
X147606777Y-101965180D01*
X147390296Y-101964991D01*
X146345995Y-100920691D01*
X146434820Y-100706777D01*
X146435179Y-100295029D01*
X146277942Y-99914485D01*
X145987046Y-99623081D01*
X145606777Y-99465180D01*
X145195029Y-99464821D01*
X144814485Y-99622058D01*
X144523081Y-99912954D01*
X144372268Y-100276153D01*
X141143444Y-103504976D01*
X140806777Y-103365180D01*
X140395029Y-103364821D01*
X140014485Y-103522058D01*
X139723081Y-103812954D01*
X139565180Y-104193223D01*
X139565034Y-104360164D01*
X134985002Y-108940196D01*
X134985002Y-98489800D01*
X145233592Y-88241210D01*
X145600000Y-88314093D01*
X146168285Y-88201054D01*
X146650054Y-87879147D01*
X146870000Y-87549974D01*
X147089946Y-87879147D01*
X147571715Y-88201054D01*
X147675000Y-88221599D01*
X147675000Y-99861300D01*
X147523081Y-100012954D01*
X147365180Y-100393223D01*
X147364821Y-100804971D01*
X147522058Y-101185515D01*
X147812954Y-101476919D01*
X148193223Y-101634820D01*
X148604971Y-101635179D01*
X148893346Y-101516025D01*
X148922058Y-101585515D01*
X149075000Y-101738724D01*
X149075000Y-105526389D01*
X149096640Y-105635179D01*
X149130187Y-105803835D01*
X149287348Y-106039041D01*
X151305018Y-108056712D01*
X151304831Y-108271370D01*
X151462068Y-108651914D01*
X151606890Y-108796989D01*
X147563879Y-112840000D01*
X147303761Y-112840000D01*
X147187046Y-112723081D01*
X146806777Y-112565180D01*
X146395029Y-112564821D01*
X146014485Y-112722058D01*
X145723081Y-113012954D01*
X145565180Y-113393223D01*
X145564965Y-113640000D01*
X145003761Y-113640000D01*
X144887046Y-113523081D01*
X144506777Y-113365180D01*
X144095029Y-113364821D01*
X143714485Y-113522058D01*
X143423081Y-113812954D01*
X143265180Y-114193223D01*
X143264827Y-114597964D01*
X142964495Y-114722058D01*
X142673091Y-115012954D01*
X142515190Y-115393223D01*
X142514831Y-115804971D01*
X142672068Y-116185515D01*
X142790010Y-116303663D01*
X142790010Y-116923012D01*
X142847862Y-117213851D01*
X143012609Y-117460413D01*
X145614598Y-120062402D01*
X145861160Y-120227149D01*
X146151999Y-120285001D01*
X148304170Y-120285001D01*
X148214485Y-120322058D01*
X148096337Y-120440000D01*
X145625066Y-120440000D01*
X145532932Y-120217017D01*
X145242036Y-119925613D01*
X144861767Y-119767712D01*
X144450019Y-119767353D01*
X144069475Y-119924590D01*
X143778071Y-120215486D01*
X143620170Y-120595755D01*
X143619811Y-121007503D01*
X143777048Y-121388047D01*
X144067944Y-121679451D01*
X144448213Y-121837352D01*
X144664927Y-121837541D01*
X144761619Y-121902148D01*
X145052458Y-121960000D01*
X148096239Y-121960000D01*
X148212954Y-122076919D01*
X148593223Y-122234820D01*
X149004971Y-122235179D01*
X149385515Y-122077942D01*
X149676919Y-121787046D01*
X149834820Y-121406777D01*
X149835179Y-120995029D01*
X149677942Y-120614485D01*
X149387046Y-120323081D01*
X149295339Y-120285001D01*
X169074999Y-120285001D01*
X169365838Y-120227149D01*
X169612400Y-120062402D01*
X170639767Y-119035035D01*
X170804971Y-119035179D01*
X171185515Y-118877942D01*
X171476919Y-118587046D01*
X171634820Y-118206777D01*
X171635116Y-117867326D01*
X171734238Y-117908485D01*
X172145986Y-117908844D01*
X172526530Y-117751607D01*
X172817934Y-117460711D01*
X172975835Y-117080442D01*
X172976194Y-116668694D01*
X172818957Y-116288150D01*
X172528061Y-115996746D01*
X172147792Y-115838845D01*
X171980851Y-115838699D01*
X170004751Y-113862599D01*
X169758189Y-113697852D01*
X169467350Y-113640000D01*
X148913483Y-113640000D01*
X151689291Y-110864192D01*
X151822058Y-111185515D01*
X152112954Y-111476919D01*
X152493223Y-111634820D01*
X152904971Y-111635179D01*
X153285515Y-111477942D01*
X153576919Y-111187046D01*
X153734820Y-110806777D01*
X153735009Y-110590295D01*
X154100304Y-110225000D01*
X155800198Y-110225000D01*
X155360233Y-110664965D01*
X155195029Y-110664821D01*
X154814485Y-110822058D01*
X154523081Y-111112954D01*
X154365180Y-111493223D01*
X154364821Y-111904971D01*
X154522058Y-112285515D01*
X154812954Y-112576919D01*
X155193223Y-112734820D01*
X155604971Y-112735179D01*
X155985515Y-112577942D01*
X156200119Y-112363712D01*
X156412954Y-112576919D01*
X156793223Y-112734820D01*
X157204971Y-112735179D01*
X157585515Y-112577942D01*
X157876919Y-112287046D01*
X158034820Y-111906777D01*
X158034966Y-111739836D01*
X169837401Y-99937401D01*
X170002148Y-99690839D01*
X170060000Y-99400000D01*
X170060000Y-99203761D01*
X170176919Y-99087046D01*
X170334820Y-98706777D01*
X170335179Y-98295029D01*
X170177942Y-97914485D01*
X169887046Y-97623081D01*
X169506777Y-97465180D01*
X169095029Y-97464821D01*
X168714485Y-97622058D01*
X168534831Y-97801399D01*
X168206777Y-97665180D01*
X167795029Y-97664821D01*
X167414485Y-97822058D01*
X167123081Y-98112954D01*
X166965180Y-98493223D01*
X166964821Y-98904971D01*
X167010259Y-99014939D01*
X157250198Y-108775000D01*
X153800000Y-108775000D01*
X153707526Y-108793394D01*
X153766429Y-108705239D01*
X153808609Y-108493189D01*
X163620137Y-98681661D01*
X163642837Y-98677146D01*
X163889399Y-98512399D01*
X168341798Y-94060000D01*
X174071229Y-94060000D01*
X174187944Y-94176919D01*
X174568213Y-94334820D01*
X174740000Y-94334970D01*
X174740000Y-117396239D01*
X174623081Y-117512954D01*
X174465180Y-117893223D01*
X174464821Y-118304971D01*
X174622058Y-118685515D01*
X174912954Y-118976919D01*
X175293223Y-119134820D01*
X175704971Y-119135179D01*
X176085515Y-118977942D01*
X176376919Y-118687046D01*
X176534820Y-118306777D01*
X176535179Y-117895029D01*
X176377942Y-117514485D01*
X176260000Y-117396337D01*
X176260000Y-92100000D01*
X176227657Y-91937401D01*
X176202148Y-91809160D01*
X176037401Y-91562599D01*
X175635035Y-91160233D01*
X175635179Y-90995029D01*
X175477942Y-90614485D01*
X175187046Y-90323081D01*
X174806777Y-90165180D01*
X174395029Y-90164821D01*
X174014485Y-90322058D01*
X173723081Y-90612954D01*
X173565180Y-90993223D01*
X173564821Y-91404971D01*
X173722058Y-91785515D01*
X174012954Y-92076919D01*
X174393223Y-92234820D01*
X174560164Y-92234966D01*
X174590036Y-92264838D01*
X174570019Y-92264821D01*
X174189475Y-92422058D01*
X174071327Y-92540000D01*
X168371123Y-92540000D01*
X168277942Y-92314485D01*
X167987046Y-92023081D01*
X167606777Y-91865180D01*
X167195029Y-91864821D01*
X166814485Y-92022058D01*
X166523081Y-92312954D01*
X166365180Y-92693223D01*
X166365166Y-92709529D01*
X155509688Y-103565008D01*
X155295029Y-103564821D01*
X154914485Y-103722058D01*
X154623081Y-104012954D01*
X154465180Y-104393223D01*
X154464821Y-104804971D01*
X154622058Y-105185515D01*
X154794218Y-105357976D01*
X152944869Y-107207325D01*
X152927056Y-107189480D01*
X152546787Y-107031579D01*
X152330306Y-107031390D01*
X150525000Y-105226085D01*
X150525000Y-101738700D01*
X150676919Y-101587046D01*
X150834820Y-101206777D01*
X150835179Y-100795029D01*
X150677942Y-100414485D01*
X150387046Y-100123081D01*
X150034998Y-99976898D01*
X150034998Y-93098478D01*
X150312954Y-93376919D01*
X150693223Y-93534820D01*
X151104971Y-93535179D01*
X151485515Y-93377942D01*
X151603663Y-93260000D01*
X162628877Y-93260000D01*
X162722058Y-93485515D01*
X163012954Y-93776919D01*
X163393223Y-93934820D01*
X163804971Y-93935179D01*
X164185515Y-93777942D01*
X164476919Y-93487046D01*
X164634820Y-93106777D01*
X164635179Y-92695029D01*
X164477942Y-92314485D01*
X164187046Y-92023081D01*
X163806777Y-91865180D01*
X163591322Y-91864992D01*
X163490839Y-91797852D01*
X163334855Y-91766825D01*
X163335179Y-91395029D01*
X163177942Y-91014485D01*
X162887046Y-90723081D01*
X162506777Y-90565180D01*
X162095029Y-90564821D01*
X161714485Y-90722058D01*
X161596337Y-90840000D01*
X150888485Y-90840000D01*
X150877942Y-90814485D01*
X150587046Y-90523081D01*
X150206777Y-90365180D01*
X150034998Y-90365030D01*
X150034998Y-88449094D01*
X150254614Y-88229478D01*
X150680000Y-88314093D01*
X151248285Y-88201054D01*
X151730054Y-87879147D01*
X151950000Y-87549974D01*
X152169946Y-87879147D01*
X152651715Y-88201054D01*
X153220000Y-88314093D01*
X153788285Y-88201054D01*
X154270054Y-87879147D01*
X154490000Y-87549974D01*
X154709946Y-87879147D01*
X155191715Y-88201054D01*
X155760000Y-88314093D01*
X156328285Y-88201054D01*
X156810054Y-87879147D01*
X157030000Y-87549974D01*
X157249946Y-87879147D01*
X157731715Y-88201054D01*
X158300000Y-88314093D01*
X158868285Y-88201054D01*
X159350054Y-87879147D01*
X159570000Y-87549974D01*
X159789946Y-87879147D01*
X160271715Y-88201054D01*
X160840000Y-88314093D01*
X161408285Y-88201054D01*
X161890054Y-87879147D01*
X162110000Y-87549974D01*
X162329946Y-87879147D01*
X162811715Y-88201054D01*
X163380000Y-88314093D01*
X163948285Y-88201054D01*
X164430054Y-87879147D01*
X164650000Y-87549974D01*
X164869946Y-87879147D01*
X165351715Y-88201054D01*
X165920000Y-88314093D01*
X166488285Y-88201054D01*
X166970054Y-87879147D01*
X167197702Y-87538447D01*
X167264817Y-87681358D01*
X167693076Y-88071645D01*
X168103110Y-88241476D01*
X168333000Y-88120155D01*
X168333000Y-86927000D01*
X168587000Y-86927000D01*
X168587000Y-88120155D01*
X168816890Y-88241476D01*
X169226924Y-88071645D01*
X169655183Y-87681358D01*
X169901486Y-87156892D01*
X169780819Y-86927000D01*
X168587000Y-86927000D01*
X168333000Y-86927000D01*
X168313000Y-86927000D01*
X168313000Y-86673000D01*
X168333000Y-86673000D01*
X168333000Y-85479845D01*
X168587000Y-85479845D01*
X168587000Y-86673000D01*
X169780819Y-86673000D01*
X169901486Y-86443108D01*
X169655183Y-85918642D01*
X169226924Y-85528355D01*
X168816890Y-85358524D01*
X168587000Y-85479845D01*
X168333000Y-85479845D01*
X168103110Y-85358524D01*
X167693076Y-85528355D01*
X167264817Y-85918642D01*
X167197702Y-86061553D01*
X166970054Y-85720853D01*
X166488285Y-85398946D01*
X165920000Y-85285907D01*
X165351715Y-85398946D01*
X164869946Y-85720853D01*
X164650000Y-86050026D01*
X164430054Y-85720853D01*
X163948285Y-85398946D01*
X163380000Y-85285907D01*
X162811715Y-85398946D01*
X162329946Y-85720853D01*
X162110000Y-86050026D01*
X161890054Y-85720853D01*
X161408285Y-85398946D01*
X160840000Y-85285907D01*
X160271715Y-85398946D01*
X159789946Y-85720853D01*
X159570000Y-86050026D01*
X159350054Y-85720853D01*
X158868285Y-85398946D01*
X158300000Y-85285907D01*
X157731715Y-85398946D01*
X157249946Y-85720853D01*
X157030000Y-86050026D01*
X156810054Y-85720853D01*
X156328285Y-85398946D01*
X155760000Y-85285907D01*
X155191715Y-85398946D01*
X154709946Y-85720853D01*
X154490000Y-86050026D01*
X154270054Y-85720853D01*
X153788285Y-85398946D01*
X153220000Y-85285907D01*
X152651715Y-85398946D01*
X152169946Y-85720853D01*
X151950000Y-86050026D01*
X151730054Y-85720853D01*
X151248285Y-85398946D01*
X150680000Y-85285907D01*
X150111715Y-85398946D01*
X149629946Y-85720853D01*
X149410000Y-86050026D01*
X149190054Y-85720853D01*
X148708285Y-85398946D01*
X148140000Y-85285907D01*
X147571715Y-85398946D01*
X147089946Y-85720853D01*
X146870000Y-86050026D01*
X146650054Y-85720853D01*
X146168285Y-85398946D01*
X145600000Y-85285907D01*
X145031715Y-85398946D01*
X144549946Y-85720853D01*
X144330000Y-86050026D01*
X144110054Y-85720853D01*
X143628285Y-85398946D01*
X143060000Y-85285907D01*
X142491715Y-85398946D01*
X142009946Y-85720853D01*
X141980597Y-85764777D01*
X141968157Y-85702235D01*
X141827809Y-85492191D01*
X141617765Y-85351843D01*
X141370000Y-85302560D01*
X139670000Y-85302560D01*
X139422235Y-85351843D01*
X139212191Y-85492191D01*
X139071843Y-85702235D01*
X139022560Y-85950000D01*
X139022560Y-87650000D01*
X139071843Y-87897765D01*
X139212191Y-88107809D01*
X139422235Y-88248157D01*
X139670000Y-88297440D01*
X140487758Y-88297440D01*
X134845198Y-93940000D01*
X133303761Y-93940000D01*
X133187046Y-93823081D01*
X132806777Y-93665180D01*
X132395029Y-93664821D01*
X132014485Y-93822058D01*
X131723081Y-94112954D01*
X131565180Y-94493223D01*
X131564821Y-94904971D01*
X131722058Y-95285515D01*
X132012954Y-95576919D01*
X132393223Y-95734820D01*
X132804971Y-95735179D01*
X133185515Y-95577942D01*
X133303663Y-95460000D01*
X135160000Y-95460000D01*
X135450839Y-95402148D01*
X135697401Y-95237401D01*
X142693592Y-88241210D01*
X143019217Y-88305981D01*
X133687601Y-97637597D01*
X133522854Y-97884159D01*
X133465002Y-98174998D01*
X133465002Y-102943697D01*
X133452932Y-102914485D01*
X133162036Y-102623081D01*
X132781767Y-102465180D01*
X132370019Y-102464821D01*
X131989475Y-102622058D01*
X131698071Y-102912954D01*
X131540170Y-103293223D01*
X131540024Y-103460164D01*
X129460000Y-105540188D01*
X129460000Y-103114802D01*
X129539767Y-103035035D01*
X129704971Y-103035179D01*
X130085515Y-102877942D01*
X130376919Y-102587046D01*
X130534820Y-102206777D01*
X130535179Y-101795029D01*
X130377942Y-101414485D01*
X130087046Y-101123081D01*
X129706777Y-100965180D01*
X129295029Y-100964821D01*
X128914485Y-101122058D01*
X128623081Y-101412954D01*
X128465180Y-101793223D01*
X128465034Y-101960164D01*
X128162599Y-102262599D01*
X127997852Y-102509161D01*
X127940000Y-102800000D01*
X127940000Y-108996239D01*
X127823081Y-109112954D01*
X127665180Y-109493223D01*
X127664821Y-109904971D01*
X127822058Y-110285515D01*
X128112954Y-110576919D01*
X128493223Y-110734820D01*
X128904971Y-110735179D01*
X129236423Y-110598226D01*
X129262599Y-110637401D01*
X130064965Y-111439767D01*
X130064821Y-111604971D01*
X130222058Y-111985515D01*
X130512954Y-112276919D01*
X130893223Y-112434820D01*
X131304971Y-112435179D01*
X131685515Y-112277942D01*
X131976919Y-111987046D01*
X132134820Y-111606777D01*
X132135179Y-111195029D01*
X131977942Y-110814485D01*
X131687046Y-110523081D01*
X131306777Y-110365180D01*
X131139836Y-110365034D01*
X130560000Y-109785198D01*
X130560000Y-107323873D01*
X130612954Y-107376919D01*
X130993223Y-107534820D01*
X131060076Y-107534878D01*
X132164965Y-108639767D01*
X132164821Y-108804971D01*
X132322058Y-109185515D01*
X132612954Y-109476919D01*
X132993223Y-109634820D01*
X133404971Y-109635179D01*
X133465002Y-109610375D01*
X133465002Y-112464969D01*
X133295029Y-112464821D01*
X132914485Y-112622058D01*
X132796337Y-112740000D01*
X128800000Y-112740000D01*
X128509161Y-112797852D01*
X128262599Y-112962599D01*
X127160233Y-114064965D01*
X126995029Y-114064821D01*
X126614485Y-114222058D01*
X126323081Y-114512954D01*
X126165180Y-114893223D01*
X126164821Y-115304971D01*
X126322058Y-115685515D01*
X126612954Y-115976919D01*
X126993223Y-116134820D01*
X127404971Y-116135179D01*
X127785515Y-115977942D01*
X128076919Y-115687046D01*
X128234820Y-115306777D01*
X128234966Y-115139836D01*
X129114802Y-114260000D01*
X132738202Y-114260000D01*
X129462599Y-117535603D01*
X129297852Y-117782165D01*
X129240000Y-118073004D01*
X129240000Y-119596239D01*
X129123081Y-119712954D01*
X128965180Y-120093223D01*
X128964878Y-120440000D01*
X128300000Y-120440000D01*
X128009161Y-120497852D01*
X127762599Y-120662599D01*
X125062599Y-123362599D01*
X124969080Y-123502560D01*
X124750000Y-123502560D01*
X124502235Y-123551843D01*
X124292191Y-123692191D01*
X124151843Y-123902235D01*
X124102560Y-124150000D01*
X118461669Y-124150000D01*
X117858355Y-123656380D01*
X117902148Y-123590840D01*
X117960000Y-123300000D01*
X117960000Y-119955169D01*
X118037233Y-120142086D01*
X118356235Y-120461645D01*
X118773244Y-120634803D01*
X119224775Y-120635197D01*
X119642086Y-120462767D01*
X119961645Y-120143765D01*
X120134803Y-119726756D01*
X120135197Y-119275225D01*
X119962767Y-118857914D01*
X119643765Y-118538355D01*
X119226756Y-118365197D01*
X118775225Y-118364803D01*
X118357914Y-118537233D01*
X118038355Y-118856235D01*
X117960000Y-119044934D01*
X117960000Y-116404971D01*
X118264821Y-116404971D01*
X118422058Y-116785515D01*
X118712954Y-117076919D01*
X119093223Y-117234820D01*
X119260164Y-117234966D01*
X121962599Y-119937401D01*
X122209160Y-120102148D01*
X122500000Y-120160000D01*
X124096239Y-120160000D01*
X124212954Y-120276919D01*
X124593223Y-120434820D01*
X125004971Y-120435179D01*
X125385515Y-120277942D01*
X125676919Y-119987046D01*
X125834820Y-119606777D01*
X125835179Y-119195029D01*
X125677942Y-118814485D01*
X125387046Y-118523081D01*
X125006777Y-118365180D01*
X124595029Y-118364821D01*
X124214485Y-118522058D01*
X124096337Y-118640000D01*
X122814802Y-118640000D01*
X120335035Y-116160233D01*
X120335179Y-115995029D01*
X120177942Y-115614485D01*
X119887046Y-115323081D01*
X119506777Y-115165180D01*
X119095029Y-115164821D01*
X118714485Y-115322058D01*
X118423081Y-115612954D01*
X118265180Y-115993223D01*
X118264821Y-116404971D01*
X117960000Y-116404971D01*
X117960000Y-113955169D01*
X118037233Y-114142086D01*
X118356235Y-114461645D01*
X118773244Y-114634803D01*
X119224775Y-114635197D01*
X119642086Y-114462767D01*
X119961645Y-114143765D01*
X120134803Y-113726756D01*
X120135197Y-113275225D01*
X119962767Y-112857914D01*
X119643765Y-112538355D01*
X119226756Y-112365197D01*
X118775225Y-112364803D01*
X118357914Y-112537233D01*
X118038355Y-112856235D01*
X117960000Y-113044934D01*
X117960000Y-109235000D01*
X118352000Y-109235000D01*
X118776678Y-109100002D01*
X119117368Y-108812763D01*
X119319119Y-108401874D01*
X119192954Y-108227000D01*
X118077000Y-108227000D01*
X118077000Y-108247000D01*
X117823000Y-108247000D01*
X117823000Y-108227000D01*
X117803000Y-108227000D01*
X117803000Y-107973000D01*
X117823000Y-107973000D01*
X117823000Y-107953000D01*
X118077000Y-107953000D01*
X118077000Y-107973000D01*
X119192954Y-107973000D01*
X119319119Y-107798126D01*
X119124191Y-107401131D01*
X119548771Y-107401131D01*
X119690432Y-107811049D01*
X119978179Y-108135552D01*
X120352062Y-108319268D01*
X120523000Y-108192734D01*
X120523000Y-107227000D01*
X120777000Y-107227000D01*
X120777000Y-108192734D01*
X120947938Y-108319268D01*
X121321821Y-108135552D01*
X121609568Y-107811049D01*
X121751229Y-107401131D01*
X121602563Y-107227000D01*
X120777000Y-107227000D01*
X120523000Y-107227000D01*
X119697437Y-107227000D01*
X119548771Y-107401131D01*
X119124191Y-107401131D01*
X119117368Y-107387237D01*
X118776678Y-107099998D01*
X118352000Y-106965000D01*
X117960000Y-106965000D01*
X117960000Y-106798869D01*
X119548771Y-106798869D01*
X119697437Y-106973000D01*
X120523000Y-106973000D01*
X120523000Y-106007266D01*
X120777000Y-106007266D01*
X120777000Y-106973000D01*
X121602563Y-106973000D01*
X121751229Y-106798869D01*
X121609568Y-106388951D01*
X121321821Y-106064448D01*
X120947938Y-105880732D01*
X120777000Y-106007266D01*
X120523000Y-106007266D01*
X120352062Y-105880732D01*
X119978179Y-106064448D01*
X119690432Y-106388951D01*
X119548771Y-106798869D01*
X117960000Y-106798869D01*
X117960000Y-102401131D01*
X119548771Y-102401131D01*
X119690432Y-102811049D01*
X119978179Y-103135552D01*
X120352062Y-103319268D01*
X120523000Y-103192734D01*
X120523000Y-102227000D01*
X120777000Y-102227000D01*
X120777000Y-103192734D01*
X120947938Y-103319268D01*
X121321821Y-103135552D01*
X121609568Y-102811049D01*
X121751229Y-102401131D01*
X121602563Y-102227000D01*
X120777000Y-102227000D01*
X120523000Y-102227000D01*
X119697437Y-102227000D01*
X119548771Y-102401131D01*
X117960000Y-102401131D01*
X117960000Y-102235000D01*
X118352000Y-102235000D01*
X118776678Y-102100002D01*
X119117368Y-101812763D01*
X119124190Y-101798869D01*
X119548771Y-101798869D01*
X119697437Y-101973000D01*
X120523000Y-101973000D01*
X120523000Y-101007266D01*
X120777000Y-101007266D01*
X120777000Y-101973000D01*
X121602563Y-101973000D01*
X121751229Y-101798869D01*
X121609568Y-101388951D01*
X121321821Y-101064448D01*
X120947938Y-100880732D01*
X120777000Y-101007266D01*
X120523000Y-101007266D01*
X120352062Y-100880732D01*
X119978179Y-101064448D01*
X119690432Y-101388951D01*
X119548771Y-101798869D01*
X119124190Y-101798869D01*
X119319119Y-101401874D01*
X119192954Y-101227000D01*
X118077000Y-101227000D01*
X118077000Y-101247000D01*
X117823000Y-101247000D01*
X117823000Y-101227000D01*
X117803000Y-101227000D01*
X117803000Y-100973000D01*
X117823000Y-100973000D01*
X117823000Y-100953000D01*
X118077000Y-100953000D01*
X118077000Y-100973000D01*
X119192954Y-100973000D01*
X119319119Y-100798126D01*
X119117368Y-100387237D01*
X118776678Y-100099998D01*
X118352000Y-99965000D01*
X117960000Y-99965000D01*
X117960000Y-89399998D01*
X117902148Y-89109159D01*
X117763013Y-88900928D01*
X117776919Y-88887046D01*
X117898240Y-88594872D01*
X120757814Y-85326787D01*
X122700804Y-85319617D01*
X122592191Y-85392191D01*
X122451843Y-85602235D01*
X122402560Y-85850000D01*
X122402560Y-87550000D01*
X122451843Y-87797765D01*
X122592191Y-88007809D01*
X122802235Y-88148157D01*
X123050000Y-88197440D01*
X123867758Y-88197440D01*
X121214557Y-90850641D01*
X121187046Y-90823081D01*
X120806777Y-90665180D01*
X120395029Y-90664821D01*
X120014485Y-90822058D01*
X119723081Y-91112954D01*
X119565180Y-91493223D01*
X119564821Y-91904971D01*
X119722058Y-92285515D01*
X120012954Y-92576919D01*
X120393223Y-92734820D01*
X120804971Y-92735179D01*
X121185515Y-92577942D01*
X121303663Y-92460000D01*
X121440000Y-92460000D01*
X121730839Y-92402148D01*
X121977401Y-92237401D01*
X126073592Y-88141210D01*
X126440000Y-88214093D01*
X127008285Y-88101054D01*
X127490054Y-87779147D01*
X127717702Y-87438447D01*
X127784817Y-87581358D01*
X128213076Y-87971645D01*
X128623110Y-88141476D01*
X128853000Y-88020155D01*
X128853000Y-86827000D01*
X129107000Y-86827000D01*
X129107000Y-88020155D01*
X129336890Y-88141476D01*
X129746924Y-87971645D01*
X130175183Y-87581358D01*
X130421486Y-87056892D01*
X130300819Y-86827000D01*
X129107000Y-86827000D01*
X128853000Y-86827000D01*
X128833000Y-86827000D01*
X128833000Y-86573000D01*
X128853000Y-86573000D01*
X128853000Y-86553000D01*
X129107000Y-86553000D01*
X129107000Y-86573000D01*
X130300819Y-86573000D01*
X130421486Y-86343108D01*
X130175183Y-85818642D01*
X129746924Y-85428355D01*
X129424490Y-85294807D01*
X174852754Y-85127175D01*
X178573171Y-88358063D01*
G36*
X139612954Y-114376919D02*
X139993223Y-114534820D01*
X140404971Y-114535179D01*
X140639989Y-114438072D01*
X140639989Y-117436137D01*
X140470008Y-117435989D01*
X140089464Y-117593226D01*
X139971316Y-117711168D01*
X138201836Y-117711168D01*
X137910997Y-117769020D01*
X137664435Y-117933767D01*
X137233200Y-118365002D01*
X135439804Y-118365002D01*
X134735035Y-117660233D01*
X134735179Y-117495029D01*
X134577942Y-117114485D01*
X134287046Y-116823081D01*
X133906777Y-116665180D01*
X133560000Y-116664878D01*
X133560000Y-116224217D01*
X135362256Y-114421961D01*
X135393223Y-114434820D01*
X135804971Y-114435179D01*
X136185515Y-114277942D01*
X136303663Y-114160000D01*
X139396413Y-114160000D01*
X139612954Y-114376919D01*
X139612954Y-114376919D01*
G37*
X139612954Y-114376919D02*
X139993223Y-114534820D01*
X140404971Y-114535179D01*
X140639989Y-114438072D01*
X140639989Y-117436137D01*
X140470008Y-117435989D01*
X140089464Y-117593226D01*
X139971316Y-117711168D01*
X138201836Y-117711168D01*
X137910997Y-117769020D01*
X137664435Y-117933767D01*
X137233200Y-118365002D01*
X135439804Y-118365002D01*
X134735035Y-117660233D01*
X134735179Y-117495029D01*
X134577942Y-117114485D01*
X134287046Y-116823081D01*
X133906777Y-116665180D01*
X133560000Y-116664878D01*
X133560000Y-116224217D01*
X135362256Y-114421961D01*
X135393223Y-114434820D01*
X135804971Y-114435179D01*
X136185515Y-114277942D01*
X136303663Y-114160000D01*
X139396413Y-114160000D01*
X139612954Y-114376919D01*
G36*
X133465002Y-107589357D02*
X133406777Y-107565180D01*
X133239836Y-107565034D01*
X132234948Y-106560146D01*
X132235179Y-106295029D01*
X132077942Y-105914485D01*
X131787046Y-105623081D01*
X131603094Y-105546698D01*
X132614757Y-104535035D01*
X132779961Y-104535179D01*
X133160505Y-104377942D01*
X133451909Y-104087046D01*
X133465002Y-104055514D01*
X133465002Y-107589357D01*
X133465002Y-107589357D01*
G37*
X133465002Y-107589357D02*
X133406777Y-107565180D01*
X133239836Y-107565034D01*
X132234948Y-106560146D01*
X132235179Y-106295029D01*
X132077942Y-105914485D01*
X131787046Y-105623081D01*
X131603094Y-105546698D01*
X132614757Y-104535035D01*
X132779961Y-104535179D01*
X133160505Y-104377942D01*
X133451909Y-104087046D01*
X133465002Y-104055514D01*
X133465002Y-107589357D01*
M02*
