M48
;DRILL file {KiCad no-vcs-found-aeac415~59~ubuntu16.04.1} date Wed Aug 23 23:18:32 2017
;FORMAT={-:-/ absolute / metric / decimal}
FMAT,2
METRIC,TZ
T1C0.400
T2C0.500
T3C0.550
T4C1.000
%
G90
G05
M71
T1
X112.9Y-127.6
X116.9Y-88.3
X119.3Y-116.2
X119.8Y-99.9
X120.6Y-91.7
X121.9Y-100.4
X124.8Y-119.4
X127.1Y-90.2
X127.2Y-115.1
X127.4Y-105.
X128.7Y-109.7
X129.3Y-122.1
X129.5Y-102.
X130.Y-120.3
X131.1Y-111.4
X131.2Y-106.5
X132.575Y-103.5
X132.6Y-94.7
X132.8Y-120.1
X133.Y-100.7
X133.2Y-108.6
X133.3Y-104.7
X133.5Y-113.5
X133.7Y-117.7
X135.6Y-113.4
X135.9Y-117.2
X136.771Y-119.85
X137.167Y-116.815
X137.2Y-118.4
X138.Y-121.2
X138.7Y-117.5
X139.3Y-119.7
X140.2Y-113.5
X140.6Y-104.4
X140.6Y-117.1
X140.675Y-118.471
X142.7Y-116.6
X143.55Y-115.6
X144.3Y-114.4
X144.655Y-120.803
X145.4Y-100.5
X146.5Y-118.8
X146.6Y-113.6
X147.4Y-103.
X147.8Y-112.
X148.1Y-109.9
X148.4Y-100.6
X148.8Y-121.2
X149.8Y-101.
X150.Y-91.4
X150.7Y-93.9
X150.9Y-92.5
X151.1Y-96.9
X152.34Y-108.066
X152.7Y-110.6
X153.6Y-102.4
X155.4Y-111.7
X155.5Y-99.8
X155.5Y-104.6
X156.Y-115.125
X157.Y-111.7
X162.3Y-91.6
X163.6Y-92.9
X163.6Y-98.7
X164.1Y-100.3
X167.4Y-92.9
X168.Y-98.7
X169.3Y-98.5
X170.6Y-118.
X171.941Y-116.874
X174.6Y-91.2
X174.775Y-93.3
X175.5Y-118.1
X176.3Y-120.9
X178.Y-117.5
T4
X123.9Y-86.7
X126.44Y-86.7
X128.98Y-86.7
X140.52Y-86.8
X143.06Y-86.8
X145.6Y-86.8
X148.14Y-86.8
X150.68Y-86.8
X153.22Y-86.8
X155.76Y-86.8
X158.3Y-86.8
X160.84Y-86.8
X163.38Y-86.8
X165.92Y-86.8
X168.46Y-86.8
X140.3Y-124.7
X142.84Y-124.7
X145.38Y-124.7
X147.92Y-124.7
X150.46Y-124.7
X153.Y-124.7
X155.54Y-124.7
X158.08Y-124.7
X160.62Y-124.7
X163.16Y-124.7
X165.7Y-124.7
X168.24Y-124.7
X125.6Y-125.
X128.14Y-125.
X130.68Y-125.
T2
X117.625Y-101.1G85X118.275Y-101.1
G05
X117.625Y-108.1G85X118.275Y-108.1
G05
T3
X120.65Y-101.95G85X120.65Y-102.25
G05
X120.65Y-106.95G85X120.65Y-107.25
G05
T0
M30
