G04 #@! TF.GenerationSoftware,KiCad,Pcbnew,no-vcs-found-aeac415~59~ubuntu16.04.1*
G04 #@! TF.CreationDate,2017-08-23T23:17:48+02:00*
G04 #@! TF.ProjectId,GhostESP32,47686F737445535033322E6B69636164,rev?*
G04 #@! TF.SameCoordinates,Original*
G04 #@! TF.FileFunction,Profile,NP*
%FSLAX46Y46*%
G04 Gerber Fmt 4.6, Leading zero omitted, Abs format (unit mm)*
G04 Created by KiCad (PCBNEW no-vcs-found-aeac415~59~ubuntu16.04.1) date Wed Aug 23 23:17:48 2017*
%MOMM*%
%LPD*%
G01*
G04 APERTURE LIST*
%ADD10C,0.200000*%
%ADD11C,0.100000*%
G04 APERTURE END LIST*
D10*
X180500000Y-126700000D02*
G75*
G03X180500000Y-126700000I-1600000J0D01*
G01*
X118300000Y-127200000D02*
G75*
G03X118300000Y-127200000I-1600000J0D01*
G01*
X117900000Y-84300000D02*
G75*
G03X117900000Y-84300000I-1600000J0D01*
G01*
X181700000Y-83700000D02*
G75*
G03X181700000Y-83700000I-1600000J0D01*
G01*
D11*
X186284300Y-130450700D02*
X186300000Y-130200000D01*
X109881700Y-82772400D02*
X109974200Y-83006100D01*
X109804000Y-82533400D02*
X109881700Y-82772400D01*
X109741500Y-82290100D02*
X109804000Y-82533400D01*
X184753600Y-133234900D02*
X184947300Y-133074800D01*
X179473600Y-121589000D02*
X179473600Y-89902800D01*
X180180700Y-77881900D02*
X173816700Y-84245900D01*
X180270600Y-77971900D02*
X180180700Y-77881900D01*
X180486100Y-77853500D02*
X180270600Y-77971900D01*
X180713400Y-77746500D02*
X180486100Y-77853500D01*
X110081200Y-79601500D02*
X109974200Y-79828900D01*
X110202200Y-79381300D02*
X110081200Y-79601500D01*
X179473600Y-89902800D02*
X185837600Y-83538800D01*
X115766500Y-133609900D02*
X122130500Y-127245900D01*
X182678400Y-134056600D02*
X182927800Y-134025100D01*
X186143200Y-128958400D02*
X186065500Y-128719400D01*
X184753600Y-78256900D02*
X184550400Y-78109200D01*
X185973000Y-131662900D02*
X186065500Y-131429300D01*
X115676600Y-133519900D02*
X115766500Y-133609900D01*
X116473600Y-121589000D02*
X110109600Y-127953000D01*
X116473600Y-89902800D02*
X116473600Y-121589000D01*
X110109600Y-83538800D02*
X116473600Y-89902800D01*
X186143200Y-82533400D02*
X186205700Y-82290100D01*
X186065500Y-82772400D02*
X186143200Y-82533400D01*
X122130500Y-127245900D02*
X173816700Y-127245900D01*
X184550400Y-78109200D02*
X184338200Y-77974500D01*
X185866000Y-83233400D02*
X185973000Y-83006100D01*
X185302500Y-132719600D02*
X185462600Y-132525900D01*
X186252800Y-82043200D02*
X186284300Y-81793900D01*
X185610300Y-132322700D02*
X185745000Y-132110500D01*
X114270900Y-77466700D02*
X114021600Y-77435200D01*
X114517700Y-77513800D02*
X114270900Y-77466700D01*
X184118000Y-77853500D02*
X183890600Y-77746500D01*
X186284300Y-81041100D02*
X186252800Y-80791700D01*
X184118000Y-133638300D02*
X184338200Y-133517300D01*
X185130400Y-132902700D02*
X185302500Y-132719600D01*
X186065500Y-131429300D02*
X186143200Y-131190300D01*
X180486100Y-133638300D02*
X180713400Y-133745300D01*
X185302500Y-78772200D02*
X185130400Y-78589100D01*
X109804000Y-131190300D02*
X109881700Y-131429300D01*
X109741500Y-130946900D02*
X109804000Y-131190300D01*
X109694400Y-130700100D02*
X109741500Y-130946900D01*
X110081200Y-131890300D02*
X110202200Y-132110500D01*
X109974200Y-131662900D02*
X110081200Y-131890300D01*
X109881700Y-131429300D02*
X109974200Y-131662900D01*
X110999900Y-133074800D02*
X111193600Y-133234900D01*
X110816800Y-132902700D02*
X110999900Y-133074800D01*
X110644700Y-132719600D02*
X110816800Y-132902700D01*
X113770800Y-77419500D02*
X113519500Y-77419500D01*
X114021600Y-77435200D02*
X113770800Y-77419500D01*
X111609000Y-133517300D02*
X111829200Y-133638300D01*
X111396800Y-133382600D02*
X111609000Y-133517300D01*
X111193600Y-133234900D02*
X111396800Y-133382600D01*
X181429500Y-77513800D02*
X181186100Y-77576300D01*
X181676300Y-77466700D02*
X181429500Y-77513800D01*
X110336900Y-79169100D02*
X110202200Y-79381300D01*
X110484600Y-78965900D02*
X110336900Y-79169100D01*
X115461100Y-133638300D02*
X115676600Y-133519900D01*
X185973000Y-79828900D02*
X185866000Y-79601500D01*
X183657000Y-133837800D02*
X183890600Y-133745300D01*
X114021600Y-134056600D02*
X114270900Y-134025100D01*
X183418000Y-77576300D02*
X183174600Y-77513800D01*
X183657000Y-77654000D02*
X183418000Y-77576300D01*
X109647200Y-81291800D02*
X109647200Y-81543100D01*
X109662900Y-81041100D02*
X109647200Y-81291800D01*
X109694400Y-80791700D02*
X109662900Y-81041100D01*
X109662900Y-129697900D02*
X109647200Y-129948700D01*
X109694400Y-129448600D02*
X109662900Y-129697900D01*
X109741500Y-129201700D02*
X109694400Y-129448600D01*
X186300000Y-129948700D02*
X186284300Y-129697900D01*
X180180700Y-133609900D02*
X180270600Y-133519900D01*
X186284300Y-129697900D02*
X186252800Y-129448600D01*
X173816700Y-127245900D02*
X180180700Y-133609900D01*
X186300000Y-81291800D02*
X186284300Y-81041100D01*
X113770800Y-134072300D02*
X114021600Y-134056600D01*
X113519500Y-134072300D02*
X113770800Y-134072300D01*
X113268800Y-134056600D02*
X113519500Y-134072300D01*
X180947100Y-77654000D02*
X180713400Y-77746500D01*
X181186100Y-77576300D02*
X180947100Y-77654000D01*
X122130500Y-84245900D02*
X115766500Y-77881900D01*
X173816700Y-84245900D02*
X122130500Y-84245900D01*
X186143200Y-131190300D02*
X186205700Y-130946900D01*
X111396800Y-78109200D02*
X111193600Y-78256900D01*
X111609000Y-77974500D02*
X111396800Y-78109200D01*
X115676600Y-77971900D02*
X115461100Y-77853500D01*
X115766500Y-77881900D02*
X115676600Y-77971900D01*
X185837600Y-83538800D02*
X185747600Y-83448900D01*
X109741500Y-80544900D02*
X109694400Y-80791700D01*
X109804000Y-80301500D02*
X109741500Y-80544900D01*
X186300000Y-81543100D02*
X186300000Y-81291800D01*
X182927800Y-134025100D02*
X183174600Y-133978000D01*
X186065500Y-128719400D02*
X185973000Y-128485700D01*
X185973000Y-83006100D02*
X186065500Y-82772400D01*
X114761100Y-133915500D02*
X115000100Y-133837800D01*
X186143200Y-80301500D02*
X186065500Y-80062500D01*
X185973000Y-128485700D02*
X185866000Y-128258400D01*
X184947300Y-133074800D02*
X185130400Y-132902700D01*
X109881700Y-80062500D02*
X109804000Y-80301500D01*
X109974200Y-79828900D02*
X109881700Y-80062500D01*
X185745000Y-79381300D02*
X185610300Y-79169100D01*
X111829200Y-77853500D02*
X111609000Y-77974500D01*
X112056600Y-77746500D02*
X111829200Y-77853500D01*
X183890600Y-133745300D02*
X184118000Y-133638300D01*
X113268800Y-77435200D02*
X113019400Y-77466700D01*
X113519500Y-77419500D02*
X113268800Y-77435200D01*
X185745000Y-132110500D02*
X185866000Y-131890300D01*
X181925600Y-134056600D02*
X182176400Y-134072300D01*
X113019400Y-134025100D02*
X113268800Y-134056600D01*
X112772600Y-133978000D02*
X113019400Y-134025100D01*
X112529200Y-133915500D02*
X112772600Y-133978000D01*
X112772600Y-77513800D02*
X112529200Y-77576300D01*
X113019400Y-77466700D02*
X112772600Y-77513800D01*
X110644700Y-78772200D02*
X110484600Y-78965900D01*
X110816800Y-78589100D02*
X110644700Y-78772200D01*
X186284300Y-81793900D02*
X186300000Y-81543100D01*
X183418000Y-133915500D02*
X183657000Y-133837800D01*
X181676300Y-134025100D02*
X181925600Y-134056600D01*
X185837600Y-127953000D02*
X179473600Y-121589000D01*
X109694400Y-82043200D02*
X109741500Y-82290100D01*
X109662900Y-81793900D02*
X109694400Y-82043200D01*
X109647200Y-81543100D02*
X109662900Y-81793900D01*
X182927800Y-77466700D02*
X182678400Y-77435200D01*
X183174600Y-77513800D02*
X182927800Y-77466700D01*
X181925600Y-77435200D02*
X181676300Y-77466700D01*
X182176400Y-77419500D02*
X181925600Y-77435200D01*
X114517700Y-133978000D02*
X114761100Y-133915500D01*
X180947100Y-133837800D02*
X181186100Y-133915500D01*
X183890600Y-77746500D02*
X183657000Y-77654000D01*
X115233800Y-133745300D02*
X115461100Y-133638300D01*
X109662900Y-130450700D02*
X109694400Y-130700100D01*
X109647200Y-130200000D02*
X109662900Y-130450700D01*
X109647200Y-129948700D02*
X109647200Y-130200000D01*
X186205700Y-129201700D02*
X186143200Y-128958400D01*
X112290200Y-77654000D02*
X112056600Y-77746500D01*
X112529200Y-77576300D02*
X112290200Y-77654000D01*
X184338200Y-133517300D02*
X184550400Y-133382600D01*
X112290200Y-133837800D02*
X112529200Y-133915500D01*
X112056600Y-133745300D02*
X112290200Y-133837800D01*
X111829200Y-133638300D02*
X112056600Y-133745300D01*
X185866000Y-79601500D02*
X185745000Y-79381300D01*
X186252800Y-129448600D02*
X186205700Y-129201700D01*
X186205700Y-82290100D02*
X186252800Y-82043200D01*
X114270900Y-134025100D02*
X114517700Y-133978000D01*
X183174600Y-133978000D02*
X183418000Y-133915500D01*
X181429500Y-133978000D02*
X181676300Y-134025100D01*
X186252800Y-80791700D02*
X186205700Y-80544900D01*
X181186100Y-133915500D02*
X181429500Y-133978000D01*
X185130400Y-78589100D02*
X184947300Y-78417000D01*
X185462600Y-132525900D02*
X185610300Y-132322700D01*
X186252800Y-130700100D02*
X186284300Y-130450700D01*
X185747600Y-128042900D02*
X185837600Y-127953000D01*
X184338200Y-77974500D02*
X184118000Y-77853500D01*
X110199600Y-83448900D02*
X110109600Y-83538800D01*
X110081200Y-83233400D02*
X110199600Y-83448900D01*
X109974200Y-83006100D02*
X110081200Y-83233400D01*
X115233800Y-77746500D02*
X115000100Y-77654000D01*
X115461100Y-77853500D02*
X115233800Y-77746500D01*
X110484600Y-132525900D02*
X110644700Y-132719600D01*
X110336900Y-132322700D02*
X110484600Y-132525900D01*
X110202200Y-132110500D02*
X110336900Y-132322700D01*
X182176400Y-134072300D02*
X182427700Y-134072300D01*
X109804000Y-128958400D02*
X109741500Y-129201700D01*
X109881700Y-128719400D02*
X109804000Y-128958400D01*
X109974200Y-128485700D02*
X109881700Y-128719400D01*
X186205700Y-130946900D02*
X186252800Y-130700100D01*
X115000100Y-133837800D02*
X115233800Y-133745300D01*
X185610300Y-79169100D02*
X185462600Y-78965900D01*
X185866000Y-131890300D02*
X185973000Y-131662900D01*
X184947300Y-78417000D02*
X184753600Y-78256900D01*
X186205700Y-80544900D02*
X186143200Y-80301500D01*
X110999900Y-78417000D02*
X110816800Y-78589100D01*
X111193600Y-78256900D02*
X110999900Y-78417000D01*
X184550400Y-133382600D02*
X184753600Y-133234900D01*
X110081200Y-128258400D02*
X109974200Y-128485700D01*
X110199600Y-128042900D02*
X110081200Y-128258400D01*
X110109600Y-127953000D02*
X110199600Y-128042900D01*
X186065500Y-80062500D02*
X185973000Y-79828900D01*
X114761100Y-77576300D02*
X114517700Y-77513800D01*
X115000100Y-77654000D02*
X114761100Y-77576300D01*
X182427700Y-134072300D02*
X182678400Y-134056600D01*
X185866000Y-128258400D02*
X185747600Y-128042900D01*
X180713400Y-133745300D02*
X180947100Y-133837800D01*
X185747600Y-83448900D02*
X185866000Y-83233400D01*
X185462600Y-78965900D02*
X185302500Y-78772200D01*
X180270600Y-133519900D02*
X180486100Y-133638300D01*
X182427700Y-77419500D02*
X182176400Y-77419500D01*
X182678400Y-77435200D02*
X182427700Y-77419500D01*
X186300000Y-130200000D02*
X186300000Y-129948700D01*
M02*
