G04 #@! TF.GenerationSoftware,KiCad,Pcbnew,5.0.0-rc2-dev-unknown-e0e0687~62~ubuntu16.04.1*
G04 #@! TF.CreationDate,2018-03-18T12:22:30+01:00*
G04 #@! TF.ProjectId,GhostSensorBoard,47686F737453656E736F72426F617264,rev?*
G04 #@! TF.SameCoordinates,Original*
G04 #@! TF.FileFunction,Paste,Top*
G04 #@! TF.FilePolarity,Positive*
%FSLAX46Y46*%
G04 Gerber Fmt 4.6, Leading zero omitted, Abs format (unit mm)*
G04 Created by KiCad (PCBNEW 5.0.0-rc2-dev-unknown-e0e0687~62~ubuntu16.04.1) date Sun Mar 18 12:22:30 2018*
%MOMM*%
%LPD*%
G01*
G04 APERTURE LIST*
%ADD10R,1.000000X0.670000*%
%ADD11R,0.670000X1.000000*%
%ADD12R,0.575000X0.650000*%
%ADD13R,0.650000X0.575000*%
%ADD14R,1.450000X0.700000*%
%ADD15R,1.100000X0.400000*%
%ADD16R,1.200000X1.800000*%
%ADD17R,0.600000X1.550000*%
%ADD18R,1.550000X0.600000*%
%ADD19R,1.800000X1.200000*%
%ADD20R,1.060000X0.650000*%
%ADD21R,0.650000X1.060000*%
G04 APERTURE END LIST*
D10*
X172200000Y-93600000D03*
X172200000Y-91850000D03*
D11*
X135875000Y-98400000D03*
X137625000Y-98400000D03*
X128275000Y-117450000D03*
X126525000Y-117450000D03*
X126200000Y-85050000D03*
X127950000Y-85050000D03*
X180375000Y-114500000D03*
X178625000Y-114500000D03*
X179525000Y-85400000D03*
X181275000Y-85400000D03*
D12*
X145900000Y-95950000D03*
X146675000Y-95950000D03*
D13*
X133200000Y-85762500D03*
X133200000Y-86537500D03*
X131250000Y-86487500D03*
X131250000Y-85712500D03*
D12*
X126625000Y-93050000D03*
X127400000Y-93050000D03*
X127400000Y-94450000D03*
X126625000Y-94450000D03*
X128387500Y-100050000D03*
X127612500Y-100050000D03*
X127662500Y-102250000D03*
X128437500Y-102250000D03*
X126950000Y-109200000D03*
X126175000Y-109200000D03*
X126200000Y-110550000D03*
X126975000Y-110550000D03*
X181087500Y-108450000D03*
X180312500Y-108450000D03*
X180375000Y-106900000D03*
X181150000Y-106900000D03*
X180650000Y-100450000D03*
X179875000Y-100450000D03*
X179875000Y-98550000D03*
X180650000Y-98550000D03*
X180900000Y-91400000D03*
X180125000Y-91400000D03*
X180212500Y-89800000D03*
X180987500Y-89800000D03*
D13*
X142250000Y-85262500D03*
X142250000Y-86037500D03*
X140800000Y-86025000D03*
X140800000Y-85250000D03*
D12*
X131512500Y-117500000D03*
X132287500Y-117500000D03*
X127137500Y-81550000D03*
X126362500Y-81550000D03*
X178512500Y-112700000D03*
X179287500Y-112700000D03*
X183412500Y-85600000D03*
X184187500Y-85600000D03*
X166025000Y-88300000D03*
X165250000Y-88300000D03*
D13*
X151300000Y-114787500D03*
X151300000Y-114012500D03*
X156300000Y-114625000D03*
X156300000Y-113850000D03*
D14*
X168180000Y-91600000D03*
X163020000Y-91600000D03*
X163020000Y-93600000D03*
X168180000Y-93600000D03*
D15*
X150050000Y-95175000D03*
X150050000Y-95825000D03*
X150050000Y-96475000D03*
X150050000Y-97125000D03*
X150050000Y-97775000D03*
X150050000Y-98425000D03*
X150050000Y-99075000D03*
X150050000Y-99725000D03*
X150050000Y-100375000D03*
X150050000Y-101025000D03*
X150050000Y-101675000D03*
X150050000Y-102325000D03*
X155750000Y-102325000D03*
X155750000Y-101675000D03*
X155750000Y-101025000D03*
X155750000Y-100375000D03*
X155750000Y-99725000D03*
X155750000Y-99075000D03*
X155750000Y-98425000D03*
X155750000Y-97775000D03*
X155750000Y-97125000D03*
X155750000Y-96475000D03*
X155750000Y-95825000D03*
X155750000Y-95175000D03*
D16*
X135600000Y-80150000D03*
X130000000Y-80150000D03*
D17*
X134300000Y-82675000D03*
X133300000Y-82675000D03*
X132300000Y-82675000D03*
X131300000Y-82675000D03*
D18*
X123225000Y-94000000D03*
X123225000Y-93000000D03*
X123225000Y-92000000D03*
X123225000Y-91000000D03*
D19*
X120700000Y-95300000D03*
X120700000Y-89700000D03*
X120750000Y-98100000D03*
X120750000Y-103700000D03*
D18*
X123275000Y-99400000D03*
X123275000Y-100400000D03*
X123275000Y-101400000D03*
X123275000Y-102400000D03*
X123275000Y-110550000D03*
X123275000Y-109550000D03*
X123275000Y-108550000D03*
X123275000Y-107550000D03*
D19*
X120750000Y-111850000D03*
X120750000Y-106250000D03*
X187150000Y-111200000D03*
X187150000Y-105600000D03*
D18*
X184625000Y-109900000D03*
X184625000Y-108900000D03*
X184625000Y-107900000D03*
X184625000Y-106900000D03*
X184425000Y-98450000D03*
X184425000Y-99450000D03*
X184425000Y-100450000D03*
X184425000Y-101450000D03*
D19*
X186950000Y-97150000D03*
X186950000Y-102750000D03*
X186950000Y-94100000D03*
X186950000Y-88500000D03*
D18*
X184425000Y-92800000D03*
X184425000Y-91800000D03*
X184425000Y-90800000D03*
X184425000Y-89800000D03*
D17*
X140800000Y-82625000D03*
X141800000Y-82625000D03*
X142800000Y-82625000D03*
X143800000Y-82625000D03*
D16*
X139500000Y-80100000D03*
X145100000Y-80100000D03*
D20*
X135750000Y-102000000D03*
X135750000Y-102950000D03*
X135750000Y-103900000D03*
X137950000Y-103900000D03*
X137950000Y-102000000D03*
D21*
X166350000Y-104100000D03*
X167300000Y-104100000D03*
X168250000Y-104100000D03*
X168250000Y-101900000D03*
X166350000Y-101900000D03*
X167300000Y-101900000D03*
M02*
