M48
;DRILL file {KiCad 5.0.0-rc2-dev-unknown-e0e0687~62~ubuntu16.04.1} date Sun Mar 18 12:22:33 2018
;FORMAT={-:-/ absolute / metric / decimal}
FMAT,2
METRIC,TZ
T1C0.400
T2C1.000
T3C1.250
%
G90
G05
M71
T1
X125.3Y-99.6
X125.35Y-92.05
X126.2Y-114.75
X126.3Y-87.1
X128.95Y-111.95
X129.Y-107.85
X131.2Y-100.25
X131.95Y-93.5
X133.3Y-104.6
X134.15Y-88.05
X135.15Y-84.9
X140.35Y-99.5
X140.5Y-102.1
X143.55Y-84.4
X143.65Y-86.3
X143.7Y-103.6
X145.3Y-90.05
X145.361Y-85.685
X145.6Y-108.15
X146.95Y-93.1
X150.85Y-91.9
X151.75Y-96.9
X158.1Y-97.95
X159.5Y-98.75
X159.5Y-100.1
X162.15Y-101.85
X163.35Y-103.15
X163.837Y-105.713
X164.Y-107.7
X167.35Y-110.35
X169.6Y-99.125
X169.8Y-114.
X171.2Y-96.35
X172.6Y-100.675
X173.243Y-96.132
X173.412Y-113.062
X173.95Y-104.1
X177.05Y-87.6
X178.Y-88.75
X178.1Y-99.75
X178.55Y-92.35
X178.65Y-110.85
X179.1Y-108.3
X179.2Y-103.5
X180.8Y-95.65
X182.05Y-109.4
X183.7Y-87.25
X186.7Y-100.65
T2
X151.01Y-119.
X153.55Y-119.
X156.09Y-119.
X158.63Y-119.
X161.17Y-119.
X163.71Y-119.
X166.25Y-119.
X168.79Y-119.
X171.33Y-119.
X173.87Y-119.
X176.41Y-119.
X178.95Y-119.
X150.97Y-88.1
X153.51Y-88.1
X156.05Y-88.1
X151.2Y-110.2
X153.74Y-110.2
X156.28Y-110.2
X158.82Y-110.2
X142.06Y-119.05
X144.6Y-119.05
X151.01Y-80.4
X153.55Y-80.4
X156.09Y-80.4
X158.63Y-80.4
X161.17Y-80.4
X163.71Y-80.4
X166.25Y-80.4
X168.79Y-80.4
X171.33Y-80.4
X173.87Y-80.4
X176.41Y-80.4
X178.95Y-80.4
T3
X131.9Y-110.7
X136.5Y-110.7
X141.1Y-110.7
T0
M30
