G04 #@! TF.GenerationSoftware,KiCad,Pcbnew,5.0.0-rc2-dev-unknown-e0e0687~62~ubuntu16.04.1*
G04 #@! TF.CreationDate,2018-03-18T12:22:30+01:00*
G04 #@! TF.ProjectId,GhostSensorBoard,47686F737453656E736F72426F617264,rev?*
G04 #@! TF.SameCoordinates,Original*
G04 #@! TF.FileFunction,Copper,L1,Top,Signal*
G04 #@! TF.FilePolarity,Positive*
%FSLAX46Y46*%
G04 Gerber Fmt 4.6, Leading zero omitted, Abs format (unit mm)*
G04 Created by KiCad (PCBNEW 5.0.0-rc2-dev-unknown-e0e0687~62~ubuntu16.04.1) date Sun Mar 18 12:22:30 2018*
%MOMM*%
%LPD*%
G01*
G04 APERTURE LIST*
%ADD10R,1.000000X0.670000*%
%ADD11R,0.670000X1.000000*%
%ADD12R,1.700000X1.700000*%
%ADD13O,1.700000X1.700000*%
%ADD14R,0.575000X0.650000*%
%ADD15R,0.650000X0.575000*%
%ADD16R,1.450000X0.700000*%
%ADD17C,2.000000*%
%ADD18R,1.100000X0.400000*%
%ADD19R,1.200000X1.800000*%
%ADD20R,0.600000X1.550000*%
%ADD21R,1.550000X0.600000*%
%ADD22R,1.800000X1.200000*%
%ADD23R,1.060000X0.650000*%
%ADD24R,0.650000X1.060000*%
%ADD25C,0.800000*%
%ADD26C,0.250000*%
%ADD27C,0.350000*%
%ADD28C,1.000000*%
%ADD29C,0.254000*%
G04 APERTURE END LIST*
D10*
X172200000Y-93600000D03*
X172200000Y-91850000D03*
D11*
X135875000Y-98400000D03*
X137625000Y-98400000D03*
X128275000Y-117450000D03*
X126525000Y-117450000D03*
X126200000Y-85050000D03*
X127950000Y-85050000D03*
X180375000Y-114500000D03*
X178625000Y-114500000D03*
X179525000Y-85400000D03*
X181275000Y-85400000D03*
D12*
X144600000Y-119050000D03*
D13*
X142060000Y-119050000D03*
D12*
X150970000Y-88100000D03*
D13*
X153510000Y-88100000D03*
X156050000Y-88100000D03*
D12*
X151010000Y-80400000D03*
D13*
X153550000Y-80400000D03*
X156090000Y-80400000D03*
X158630000Y-80400000D03*
X161170000Y-80400000D03*
X163710000Y-80400000D03*
X166250000Y-80400000D03*
X168790000Y-80400000D03*
X171330000Y-80400000D03*
X173870000Y-80400000D03*
X176410000Y-80400000D03*
X178950000Y-80400000D03*
X178950000Y-119000000D03*
X176410000Y-119000000D03*
X173870000Y-119000000D03*
X171330000Y-119000000D03*
X168790000Y-119000000D03*
X166250000Y-119000000D03*
X163710000Y-119000000D03*
X161170000Y-119000000D03*
X158630000Y-119000000D03*
X156090000Y-119000000D03*
X153550000Y-119000000D03*
D12*
X151010000Y-119000000D03*
D14*
X145900000Y-95950000D03*
X146675000Y-95950000D03*
D15*
X133200000Y-85762500D03*
X133200000Y-86537500D03*
X131250000Y-86487500D03*
X131250000Y-85712500D03*
D14*
X126625000Y-93050000D03*
X127400000Y-93050000D03*
X127400000Y-94450000D03*
X126625000Y-94450000D03*
X128387500Y-100050000D03*
X127612500Y-100050000D03*
X127662500Y-102250000D03*
X128437500Y-102250000D03*
X126950000Y-109200000D03*
X126175000Y-109200000D03*
X126200000Y-110550000D03*
X126975000Y-110550000D03*
X181087500Y-108450000D03*
X180312500Y-108450000D03*
X180375000Y-106900000D03*
X181150000Y-106900000D03*
X180650000Y-100450000D03*
X179875000Y-100450000D03*
X179875000Y-98550000D03*
X180650000Y-98550000D03*
X180900000Y-91400000D03*
X180125000Y-91400000D03*
X180212500Y-89800000D03*
X180987500Y-89800000D03*
D15*
X142250000Y-85262500D03*
X142250000Y-86037500D03*
X140800000Y-86025000D03*
X140800000Y-85250000D03*
D14*
X131512500Y-117500000D03*
X132287500Y-117500000D03*
X127137500Y-81550000D03*
X126362500Y-81550000D03*
X178512500Y-112700000D03*
X179287500Y-112700000D03*
X183412500Y-85600000D03*
X184187500Y-85600000D03*
X166025000Y-88300000D03*
X165250000Y-88300000D03*
D15*
X151300000Y-114787500D03*
X151300000Y-114012500D03*
X156300000Y-114625000D03*
X156300000Y-113850000D03*
D16*
X168180000Y-91600000D03*
X163020000Y-91600000D03*
X163020000Y-93600000D03*
X168180000Y-93600000D03*
D17*
X131900000Y-110700000D03*
X136500000Y-110700000D03*
X141100000Y-110700000D03*
D18*
X150050000Y-95175000D03*
X150050000Y-95825000D03*
X150050000Y-96475000D03*
X150050000Y-97125000D03*
X150050000Y-97775000D03*
X150050000Y-98425000D03*
X150050000Y-99075000D03*
X150050000Y-99725000D03*
X150050000Y-100375000D03*
X150050000Y-101025000D03*
X150050000Y-101675000D03*
X150050000Y-102325000D03*
X155750000Y-102325000D03*
X155750000Y-101675000D03*
X155750000Y-101025000D03*
X155750000Y-100375000D03*
X155750000Y-99725000D03*
X155750000Y-99075000D03*
X155750000Y-98425000D03*
X155750000Y-97775000D03*
X155750000Y-97125000D03*
X155750000Y-96475000D03*
X155750000Y-95825000D03*
X155750000Y-95175000D03*
D19*
X135600000Y-80150000D03*
X130000000Y-80150000D03*
D20*
X134300000Y-82675000D03*
X133300000Y-82675000D03*
X132300000Y-82675000D03*
X131300000Y-82675000D03*
D21*
X123225000Y-94000000D03*
X123225000Y-93000000D03*
X123225000Y-92000000D03*
X123225000Y-91000000D03*
D22*
X120700000Y-95300000D03*
X120700000Y-89700000D03*
X120750000Y-98100000D03*
X120750000Y-103700000D03*
D21*
X123275000Y-99400000D03*
X123275000Y-100400000D03*
X123275000Y-101400000D03*
X123275000Y-102400000D03*
X123275000Y-110550000D03*
X123275000Y-109550000D03*
X123275000Y-108550000D03*
X123275000Y-107550000D03*
D22*
X120750000Y-111850000D03*
X120750000Y-106250000D03*
X187150000Y-111200000D03*
X187150000Y-105600000D03*
D21*
X184625000Y-109900000D03*
X184625000Y-108900000D03*
X184625000Y-107900000D03*
X184625000Y-106900000D03*
X184425000Y-98450000D03*
X184425000Y-99450000D03*
X184425000Y-100450000D03*
X184425000Y-101450000D03*
D22*
X186950000Y-97150000D03*
X186950000Y-102750000D03*
X186950000Y-94100000D03*
X186950000Y-88500000D03*
D21*
X184425000Y-92800000D03*
X184425000Y-91800000D03*
X184425000Y-90800000D03*
X184425000Y-89800000D03*
D20*
X140800000Y-82625000D03*
X141800000Y-82625000D03*
X142800000Y-82625000D03*
X143800000Y-82625000D03*
D19*
X139500000Y-80100000D03*
X145100000Y-80100000D03*
D12*
X151200000Y-110200000D03*
D13*
X153740000Y-110200000D03*
X156280000Y-110200000D03*
X158820000Y-110200000D03*
D23*
X135750000Y-102000000D03*
X135750000Y-102950000D03*
X135750000Y-103900000D03*
X137950000Y-103900000D03*
X137950000Y-102000000D03*
D24*
X166350000Y-104100000D03*
X167300000Y-104100000D03*
X168250000Y-104100000D03*
X168250000Y-101900000D03*
X166350000Y-101900000D03*
X167300000Y-101900000D03*
D25*
X135150000Y-84900000D03*
X143550000Y-84400000D03*
X125300000Y-99600000D03*
X125350000Y-92050000D03*
X182050000Y-109400000D03*
X164000000Y-107700000D03*
X151750000Y-96900000D03*
X186700000Y-100650000D03*
X143700000Y-103600000D03*
X140350000Y-99500000D03*
X140500000Y-102100000D03*
X145600000Y-108150000D03*
X173412340Y-113062340D03*
X177050000Y-87600000D03*
X126300000Y-87100000D03*
X126200000Y-114750000D03*
X150850000Y-91900000D03*
X128950000Y-111950000D03*
X129000000Y-107850000D03*
X131200000Y-100250000D03*
X146950000Y-93100000D03*
X183700000Y-87250000D03*
X178550000Y-92350000D03*
X180800000Y-95650000D03*
X179200000Y-103500000D03*
X178100000Y-99750000D03*
X178650000Y-110850000D03*
X179100000Y-108300000D03*
X131950000Y-93500000D03*
X134150000Y-88050000D03*
X143650000Y-86300000D03*
X173950000Y-104100000D03*
X163837340Y-105712660D03*
X167350000Y-110350000D03*
X169800000Y-114000000D03*
X163350000Y-103150000D03*
X178000000Y-88750000D03*
X172600000Y-100674990D03*
X162150000Y-101850000D03*
X169600000Y-99125021D03*
X159500000Y-100100000D03*
X173243251Y-96132068D03*
X159500000Y-98750000D03*
X158100000Y-97950000D03*
X171200000Y-96350000D03*
X145360548Y-85685483D03*
X145300000Y-90050000D03*
X133300000Y-104600000D03*
D26*
X135150000Y-84900000D02*
X134750001Y-84500001D01*
X134750001Y-84500001D02*
X134100001Y-84500001D01*
X133300000Y-83700000D02*
X133300000Y-82675000D01*
X134100001Y-84500001D02*
X133300000Y-83700000D01*
X142800000Y-82625000D02*
X142800000Y-83650000D01*
X142800000Y-83650000D02*
X143550000Y-84400000D01*
X125300000Y-99600000D02*
X124500000Y-100400000D01*
X124500000Y-100400000D02*
X123275000Y-100400000D01*
X123225000Y-92000000D02*
X125300000Y-92000000D01*
X125300000Y-92000000D02*
X125350000Y-92050000D01*
X184625000Y-108900000D02*
X182550000Y-108900000D01*
X182550000Y-108900000D02*
X182050000Y-109400000D01*
X150050000Y-95175000D02*
X150050000Y-95825000D01*
X164480000Y-107700000D02*
X164000000Y-107700000D01*
X167300000Y-104100000D02*
X167300000Y-104880000D01*
X167300000Y-104880000D02*
X164480000Y-107700000D01*
X155750000Y-97125000D02*
X154950000Y-97125000D01*
X150124998Y-91485002D02*
X152660001Y-88949999D01*
X150124998Y-92299998D02*
X150124998Y-91485002D01*
X152660001Y-88949999D02*
X153510000Y-88100000D01*
X154950000Y-97125000D02*
X150124998Y-92299998D01*
X150050000Y-95825000D02*
X150675000Y-95825000D01*
X150675000Y-95825000D02*
X151750000Y-96900000D01*
X186700000Y-100650000D02*
X184625000Y-100650000D01*
X184625000Y-100650000D02*
X184425000Y-100450000D01*
X184425000Y-100450000D02*
X185450000Y-100450000D01*
X185450000Y-100450000D02*
X185525001Y-100374999D01*
X185525001Y-100374999D02*
X185525001Y-91875001D01*
X185525001Y-91875001D02*
X185450000Y-91800000D01*
X185450000Y-91800000D02*
X184425000Y-91800000D01*
X168180000Y-93600000D02*
X163020000Y-93600000D01*
X172200000Y-93600000D02*
X168180000Y-93600000D01*
X135750000Y-102950000D02*
X143050000Y-102950000D01*
X143050000Y-102950000D02*
X143700000Y-103600000D01*
X168180000Y-91600000D02*
X171950000Y-91600000D01*
X171950000Y-91600000D02*
X172200000Y-91850000D01*
X168180000Y-91600000D02*
X167205000Y-91600000D01*
X167205000Y-91600000D02*
X163020000Y-91600000D01*
X163020000Y-91600000D02*
X163020000Y-89992500D01*
X163020000Y-89992500D02*
X164712500Y-88300000D01*
X164712500Y-88300000D02*
X165250000Y-88300000D01*
D27*
X137625000Y-98400000D02*
X139250000Y-98400000D01*
X139250000Y-98400000D02*
X140350000Y-99500000D01*
X140500000Y-102100000D02*
X138050000Y-102100000D01*
X138050000Y-102100000D02*
X137950000Y-102000000D01*
X151300000Y-114787500D02*
X150625000Y-114787500D01*
X150625000Y-114787500D02*
X145600000Y-109762500D01*
X145600000Y-109762500D02*
X145600000Y-108150000D01*
X153550000Y-119000000D02*
X151300000Y-116750000D01*
X151300000Y-116750000D02*
X151300000Y-114787500D01*
X153550000Y-119000000D02*
X156300000Y-116250000D01*
X156300000Y-116250000D02*
X156300000Y-114625000D01*
D26*
X131512500Y-117500000D02*
X128325000Y-117500000D01*
X128325000Y-117500000D02*
X128275000Y-117450000D01*
X174850000Y-114500000D02*
X173812339Y-113462339D01*
X173812339Y-113462339D02*
X173412340Y-113062340D01*
X178625000Y-114500000D02*
X174850000Y-114500000D01*
X177050000Y-87600000D02*
X179250000Y-85400000D01*
X179250000Y-85400000D02*
X179525000Y-85400000D01*
X126300000Y-87100000D02*
X126300000Y-85150000D01*
X126300000Y-85150000D02*
X126200000Y-85050000D01*
X126200000Y-114750000D02*
X126200000Y-117125000D01*
X126200000Y-117125000D02*
X126525000Y-117450000D01*
X176410000Y-119000000D02*
X176410000Y-116130000D01*
X176410000Y-116130000D02*
X178040000Y-114500000D01*
X178040000Y-114500000D02*
X178625000Y-114500000D01*
X127950000Y-85050000D02*
X127950000Y-84885000D01*
X127950000Y-84885000D02*
X126362500Y-83297500D01*
X126362500Y-83297500D02*
X126362500Y-82125000D01*
X126362500Y-82125000D02*
X126362500Y-81550000D01*
X180375000Y-113500000D02*
X180375000Y-114500000D01*
X179825000Y-112700000D02*
X180375000Y-113250000D01*
X179287500Y-112700000D02*
X179825000Y-112700000D01*
X180375000Y-113250000D02*
X180375000Y-113500000D01*
X183412500Y-85600000D02*
X181475000Y-85600000D01*
X181475000Y-85600000D02*
X181275000Y-85400000D01*
D28*
X141850000Y-114450000D02*
X140250000Y-114450000D01*
X140250000Y-114450000D02*
X136500000Y-110700000D01*
X144600000Y-119050000D02*
X144600000Y-117200000D01*
X144600000Y-117200000D02*
X141850000Y-114450000D01*
D26*
X156050000Y-88100000D02*
X163710000Y-80440000D01*
X163710000Y-80440000D02*
X163710000Y-80400000D01*
X178512500Y-112125000D02*
X180512498Y-110125002D01*
X178512500Y-112700000D02*
X178512500Y-112125000D01*
X180512498Y-110125002D02*
X183374998Y-110125002D01*
X183374998Y-110125002D02*
X183600000Y-109900000D01*
X183600000Y-109900000D02*
X184625000Y-109900000D01*
D27*
X155750000Y-95175000D02*
X154125000Y-95175000D01*
X154125000Y-95175000D02*
X150850000Y-91900000D01*
X148160000Y-120650000D02*
X136075000Y-120650000D01*
X136075000Y-120650000D02*
X132925000Y-117500000D01*
X149810000Y-119000000D02*
X148160000Y-120650000D01*
X151010000Y-119000000D02*
X149810000Y-119000000D01*
X132925000Y-117500000D02*
X132287500Y-117500000D01*
X132287500Y-117500000D02*
X132287500Y-115287500D01*
X132287500Y-115287500D02*
X128950000Y-111950000D01*
X126950000Y-109200000D02*
X127650000Y-109200000D01*
X127650000Y-109200000D02*
X129000000Y-107850000D01*
X128387500Y-100050000D02*
X131000000Y-100050000D01*
X131000000Y-100050000D02*
X131200000Y-100250000D01*
X145900000Y-95950000D02*
X145900000Y-94150000D01*
X145900000Y-94150000D02*
X146950000Y-93100000D01*
X183700000Y-87250000D02*
X184187500Y-86762500D01*
X184187500Y-86762500D02*
X184187500Y-85600000D01*
X180125000Y-91400000D02*
X179500000Y-91400000D01*
X179500000Y-91400000D02*
X178550000Y-92350000D01*
X184425000Y-92800000D02*
X183950000Y-92800000D01*
X183950000Y-92800000D02*
X181100000Y-95650000D01*
X181100000Y-95650000D02*
X180800000Y-95650000D01*
X180500000Y-101900000D02*
X183975000Y-101900000D01*
X180500000Y-102765685D02*
X180500000Y-101900000D01*
X168250000Y-101900000D02*
X180500000Y-101900000D01*
X179200000Y-103500000D02*
X179765685Y-103500000D01*
X179765685Y-103500000D02*
X180500000Y-102765685D01*
X179875000Y-100450000D02*
X178800000Y-100450000D01*
X178800000Y-100450000D02*
X178100000Y-99750000D01*
X178650000Y-110850000D02*
X178512500Y-110987500D01*
X178512500Y-110987500D02*
X178512500Y-112700000D01*
X180312500Y-108450000D02*
X179250000Y-108450000D01*
X179250000Y-108450000D02*
X179100000Y-108300000D01*
X184625000Y-109900000D02*
X185750000Y-109900000D01*
X185775001Y-103750003D02*
X184425000Y-102400002D01*
X185750000Y-109900000D02*
X185775001Y-109874999D01*
X185775001Y-109874999D02*
X185775001Y-103750003D01*
X184425000Y-102400002D02*
X184425000Y-102100000D01*
X184425000Y-102100000D02*
X184425000Y-101450000D01*
X183975000Y-101900000D02*
X184425000Y-101450000D01*
X123275000Y-107550000D02*
X123275000Y-106900000D01*
X122124999Y-99425001D02*
X122150000Y-99400000D01*
X123275000Y-106900000D02*
X122124999Y-105749999D01*
X122124999Y-105749999D02*
X122124999Y-99425001D01*
X122150000Y-99400000D02*
X123275000Y-99400000D01*
X123275000Y-99400000D02*
X123275000Y-98750000D01*
X123275000Y-98750000D02*
X122074999Y-97549999D01*
X122074999Y-97549999D02*
X122074999Y-91025001D01*
X122074999Y-91025001D02*
X122100000Y-91000000D01*
X122100000Y-91000000D02*
X123225000Y-91000000D01*
X123225000Y-91000000D02*
X123225000Y-86514998D01*
X125699999Y-84039999D02*
X125699999Y-80924999D01*
X125699999Y-80924999D02*
X125774999Y-80849999D01*
X123225000Y-86514998D02*
X125699999Y-84039999D01*
X127112499Y-80849999D02*
X127137500Y-80875000D01*
X125774999Y-80849999D02*
X127112499Y-80849999D01*
X127137500Y-80875000D02*
X127137500Y-81550000D01*
X127400000Y-93050000D02*
X131500000Y-93050000D01*
X131500000Y-93050000D02*
X131950000Y-93500000D01*
X134300000Y-82675000D02*
X134300000Y-81550000D01*
X127775000Y-81550000D02*
X127137500Y-81550000D01*
X134300000Y-81550000D02*
X134274999Y-81524999D01*
X134274999Y-81524999D02*
X127800001Y-81524999D01*
X127800001Y-81524999D02*
X127775000Y-81550000D01*
X134300000Y-82675000D02*
X134950000Y-82675000D01*
X136150001Y-81474999D02*
X143774999Y-81474999D01*
X134950000Y-82675000D02*
X136150001Y-81474999D01*
X143774999Y-81474999D02*
X143800000Y-81500000D01*
X143800000Y-81500000D02*
X143800000Y-82625000D01*
X133200000Y-86537500D02*
X133200000Y-87100000D01*
X133200000Y-87100000D02*
X134150000Y-88050000D01*
X151010000Y-80400000D02*
X149810000Y-80400000D01*
X144450000Y-82625000D02*
X143800000Y-82625000D01*
X149810000Y-80400000D02*
X147585000Y-82625000D01*
X147585000Y-82625000D02*
X144450000Y-82625000D01*
X142250000Y-86037500D02*
X143387500Y-86037500D01*
X143387500Y-86037500D02*
X143650000Y-86300000D01*
D26*
X180125000Y-91400000D02*
X180125000Y-89887500D01*
X180125000Y-89887500D02*
X180212500Y-89800000D01*
X179875000Y-100450000D02*
X179875000Y-98550000D01*
X180312500Y-108450000D02*
X180312500Y-106962500D01*
X180312500Y-106962500D02*
X180375000Y-106900000D01*
X167300000Y-101900000D02*
X168250000Y-101900000D01*
X155750000Y-95175000D02*
X161355000Y-95175000D01*
X161355000Y-95175000D02*
X167300000Y-101120000D01*
X167300000Y-101120000D02*
X167300000Y-101900000D01*
X140800000Y-86025000D02*
X142237500Y-86025000D01*
X142237500Y-86025000D02*
X142250000Y-86037500D01*
X126975000Y-110550000D02*
X126975000Y-109225000D01*
X126975000Y-109225000D02*
X126950000Y-109200000D01*
X128437500Y-102250000D02*
X128437500Y-100100000D01*
X128437500Y-100100000D02*
X128387500Y-100050000D01*
X127400000Y-93050000D02*
X127400000Y-94450000D01*
X131250000Y-86487500D02*
X133150000Y-86487500D01*
X133150000Y-86487500D02*
X133200000Y-86537500D01*
X168250000Y-104100000D02*
X173950000Y-104100000D01*
X165450000Y-104100000D02*
X164237339Y-105312661D01*
X164237339Y-105312661D02*
X163837340Y-105712660D01*
X166350000Y-104100000D02*
X165450000Y-104100000D01*
X155750000Y-96475000D02*
X158930000Y-96475000D01*
X162624998Y-102801998D02*
X162624998Y-103498002D01*
X158930000Y-96475000D02*
X163001998Y-100546998D01*
X165775000Y-104100000D02*
X166350000Y-104100000D01*
X163001998Y-102424998D02*
X162624998Y-102801998D01*
X163001998Y-100546998D02*
X163001998Y-102424998D01*
X163226996Y-104100000D02*
X165775000Y-104100000D01*
X162624998Y-103498002D02*
X163226996Y-104100000D01*
X173870000Y-119000000D02*
X173870000Y-116870000D01*
X173870000Y-116870000D02*
X167350000Y-110350000D01*
X169800000Y-114000000D02*
X169800000Y-117470000D01*
X169800000Y-117470000D02*
X171330000Y-119000000D01*
X164600000Y-101900000D02*
X163350000Y-103150000D01*
X166350000Y-101900000D02*
X164600000Y-101900000D01*
X166350000Y-101900000D02*
X166350000Y-101120000D01*
X166350000Y-101120000D02*
X161055000Y-95825000D01*
X161055000Y-95825000D02*
X156550000Y-95825000D01*
X156550000Y-95825000D02*
X155750000Y-95825000D01*
X168790000Y-119000000D02*
X163640000Y-113850000D01*
X163640000Y-113850000D02*
X156300000Y-113850000D01*
X156280000Y-110200000D02*
X156280000Y-113830000D01*
X156280000Y-113830000D02*
X156300000Y-113850000D01*
X178000000Y-88750000D02*
X166475000Y-88750000D01*
X166475000Y-88750000D02*
X166025000Y-88300000D01*
X150050000Y-96475000D02*
X147200000Y-96475000D01*
X147200000Y-96475000D02*
X146675000Y-95950000D01*
X133200000Y-85762500D02*
X133200000Y-85225000D01*
X133200000Y-85225000D02*
X132300000Y-84325000D01*
X132300000Y-84325000D02*
X132300000Y-83700000D01*
X132300000Y-83700000D02*
X132300000Y-82675000D01*
X133622502Y-85762500D02*
X144985002Y-97125000D01*
X133200000Y-85762500D02*
X133622502Y-85762500D01*
X149250000Y-97125000D02*
X150050000Y-97125000D01*
X144985002Y-97125000D02*
X149250000Y-97125000D01*
X130599999Y-85787501D02*
X130675000Y-85712500D01*
X144873559Y-97649967D02*
X136321094Y-89097502D01*
X130599999Y-88249999D02*
X130599999Y-85787501D01*
X136321094Y-89097502D02*
X131447502Y-89097502D01*
X149124967Y-97649967D02*
X144873559Y-97649967D01*
X130675000Y-85712500D02*
X131250000Y-85712500D01*
X150050000Y-97775000D02*
X149250000Y-97775000D01*
X149250000Y-97775000D02*
X149124967Y-97649967D01*
X131447502Y-89097502D02*
X130599999Y-88249999D01*
X131250000Y-85712500D02*
X131250000Y-82725000D01*
X131250000Y-82725000D02*
X131300000Y-82675000D01*
X138387182Y-91800000D02*
X144687160Y-98099978D01*
X126625000Y-93050000D02*
X126625000Y-92475000D01*
X148924978Y-98099978D02*
X149250000Y-98425000D01*
X149250000Y-98425000D02*
X150050000Y-98425000D01*
X144687160Y-98099978D02*
X148924978Y-98099978D01*
X126625000Y-92475000D02*
X127300000Y-91800000D01*
X127300000Y-91800000D02*
X138387182Y-91800000D01*
X123225000Y-93000000D02*
X126575000Y-93000000D01*
X126575000Y-93000000D02*
X126625000Y-93050000D01*
X149236411Y-99075000D02*
X148711400Y-98549989D01*
X150050000Y-99075000D02*
X149236411Y-99075000D01*
X140157111Y-98549989D02*
X136707123Y-95100001D01*
X136707123Y-95100001D02*
X126700001Y-95100001D01*
X148711400Y-98549989D02*
X140157111Y-98549989D01*
X126700001Y-95100001D02*
X126625000Y-95025000D01*
X126625000Y-95025000D02*
X126625000Y-94450000D01*
X126625000Y-94450000D02*
X123675000Y-94450000D01*
X123675000Y-94450000D02*
X123225000Y-94000000D01*
X149250000Y-99725000D02*
X150050000Y-99725000D01*
X127755380Y-99332120D02*
X139109116Y-99332120D01*
X139109116Y-99332120D02*
X140001998Y-100225002D01*
X148749998Y-100225002D02*
X149250000Y-99725000D01*
X127612500Y-99475000D02*
X127755380Y-99332120D01*
X127612500Y-100050000D02*
X127612500Y-99475000D01*
X140001998Y-100225002D02*
X148749998Y-100225002D01*
X127612500Y-100050000D02*
X127075000Y-100050000D01*
X127075000Y-100050000D02*
X125725000Y-101400000D01*
X125725000Y-101400000D02*
X124300000Y-101400000D01*
X124300000Y-101400000D02*
X123275000Y-101400000D01*
X148461399Y-101150012D02*
X131350000Y-101150012D01*
X127662500Y-102250000D02*
X127662500Y-102825000D01*
X127662500Y-102825000D02*
X127737501Y-102900001D01*
X127737501Y-102900001D02*
X129600011Y-102900001D01*
X129600011Y-102900001D02*
X131350000Y-101150012D01*
X149236410Y-100375000D02*
X148461399Y-101150012D01*
X150050000Y-100375000D02*
X149236410Y-100375000D01*
X127662500Y-102250000D02*
X123425000Y-102250000D01*
X123425000Y-102250000D02*
X123275000Y-102400000D01*
X128400000Y-106400000D02*
X143875000Y-106400000D01*
X126175000Y-108625000D02*
X128400000Y-106400000D01*
X143875000Y-106400000D02*
X149250000Y-101025000D01*
X126175000Y-109200000D02*
X126175000Y-108625000D01*
X149250000Y-101025000D02*
X150050000Y-101025000D01*
X123275000Y-109550000D02*
X125825000Y-109550000D01*
X125825000Y-109550000D02*
X126175000Y-109200000D01*
X130738999Y-109899999D02*
X128950000Y-109899999D01*
X126200000Y-110550000D02*
X126200000Y-111125000D01*
X126200000Y-111125000D02*
X126275001Y-111200001D01*
X126275001Y-111200001D02*
X127649998Y-111200001D01*
X127649998Y-111200001D02*
X128950000Y-109899999D01*
X126200000Y-110550000D02*
X125662500Y-110550000D01*
X125662500Y-110550000D02*
X123275000Y-110550000D01*
X150050000Y-101675000D02*
X149250000Y-101675000D01*
X141550001Y-109374999D02*
X131263999Y-109374999D01*
X149250000Y-101675000D02*
X141550001Y-109374999D01*
X131263999Y-109374999D02*
X130738999Y-109899999D01*
X181087500Y-108450000D02*
X181625000Y-108450000D01*
X181625000Y-108450000D02*
X182175000Y-107900000D01*
X182175000Y-107900000D02*
X183600000Y-107900000D01*
X183600000Y-107900000D02*
X184625000Y-107900000D01*
X155750000Y-102325000D02*
X155750000Y-102775000D01*
X155750000Y-102775000D02*
X162075001Y-109100001D01*
X162075001Y-109100001D02*
X181012499Y-109100001D01*
X181012499Y-109100001D02*
X181087500Y-109025000D01*
X181087500Y-109025000D02*
X181087500Y-108450000D01*
X181074999Y-106249999D02*
X181150000Y-106325000D01*
X155750000Y-101675000D02*
X156901996Y-101675000D01*
X164548002Y-108425002D02*
X166723005Y-106249999D01*
X181150000Y-106325000D02*
X181150000Y-106900000D01*
X163651998Y-108425002D02*
X164548002Y-108425002D01*
X156901996Y-101675000D02*
X163651998Y-108425002D01*
X166723005Y-106249999D02*
X181074999Y-106249999D01*
X181150000Y-106900000D02*
X181687500Y-106900000D01*
X181687500Y-106900000D02*
X184625000Y-106900000D01*
X173025011Y-101100001D02*
X172999999Y-101074989D01*
X180650000Y-101025000D02*
X180574999Y-101100001D01*
X172999999Y-101074989D02*
X172600000Y-100674990D01*
X180574999Y-101100001D02*
X173025011Y-101100001D01*
X180650000Y-100450000D02*
X180650000Y-101025000D01*
X180650000Y-100450000D02*
X181187500Y-100450000D01*
X181187500Y-100450000D02*
X182187500Y-99450000D01*
X183400000Y-99450000D02*
X184425000Y-99450000D01*
X182187500Y-99450000D02*
X183400000Y-99450000D01*
X155750000Y-101025000D02*
X161325000Y-101025000D01*
X161325000Y-101025000D02*
X162150000Y-101850000D01*
X180650000Y-97975000D02*
X180574999Y-97899999D01*
X180574999Y-97899999D02*
X170825022Y-97899999D01*
X169999999Y-98725022D02*
X169600000Y-99125021D01*
X180650000Y-98550000D02*
X180650000Y-97975000D01*
X170825022Y-97899999D02*
X169999999Y-98725022D01*
X159500000Y-100100000D02*
X158934315Y-100100000D01*
X158934315Y-100100000D02*
X158659315Y-100375000D01*
X158659315Y-100375000D02*
X156550000Y-100375000D01*
X156550000Y-100375000D02*
X155750000Y-100375000D01*
X180650000Y-98550000D02*
X184325000Y-98550000D01*
X184325000Y-98550000D02*
X184425000Y-98450000D01*
X180900000Y-91975000D02*
X176742932Y-96132068D01*
X176742932Y-96132068D02*
X173808936Y-96132068D01*
X173808936Y-96132068D02*
X173243251Y-96132068D01*
X180900000Y-91400000D02*
X180900000Y-91975000D01*
X184425000Y-90800000D02*
X181462500Y-90800000D01*
X181462500Y-90800000D02*
X180900000Y-91362500D01*
X180900000Y-91362500D02*
X180900000Y-91400000D01*
X155750000Y-99725000D02*
X158525000Y-99725000D01*
X158525000Y-99725000D02*
X159500000Y-98750000D01*
X178965686Y-89149999D02*
X171765685Y-96350000D01*
X180987500Y-89800000D02*
X180987500Y-89225000D01*
X180987500Y-89225000D02*
X180912499Y-89149999D01*
X180912499Y-89149999D02*
X178965686Y-89149999D01*
X171765685Y-96350000D02*
X171200000Y-96350000D01*
X158100000Y-97950000D02*
X156975000Y-99075000D01*
X156975000Y-99075000D02*
X155750000Y-99075000D01*
X180987500Y-89800000D02*
X184425000Y-89800000D01*
X144937565Y-85262500D02*
X144960549Y-85285484D01*
X144960549Y-85285484D02*
X145360548Y-85685483D01*
X142250000Y-85262500D02*
X144937565Y-85262500D01*
X142250000Y-85262500D02*
X142250000Y-84725000D01*
X142250000Y-84725000D02*
X141800000Y-84275000D01*
X141800000Y-84275000D02*
X141800000Y-83650000D01*
X141800000Y-83650000D02*
X141800000Y-82625000D01*
X155750000Y-98425000D02*
X154635002Y-98425000D01*
X146260002Y-90050000D02*
X145300000Y-90050000D01*
X154635002Y-98425000D02*
X146260002Y-90050000D01*
X143998002Y-87025002D02*
X140602500Y-87025002D01*
X155750000Y-97775000D02*
X154748000Y-97775000D01*
X154748000Y-97775000D02*
X143998002Y-87025002D01*
X140149999Y-85325001D02*
X140225000Y-85250000D01*
X140602500Y-87025002D02*
X140149999Y-86572501D01*
X140225000Y-85250000D02*
X140800000Y-85250000D01*
X140149999Y-86572501D02*
X140149999Y-85325001D01*
X140800000Y-85250000D02*
X140800000Y-82625000D01*
X151300000Y-114012500D02*
X151300000Y-110300000D01*
X151300000Y-110300000D02*
X151200000Y-110200000D01*
D27*
X135750000Y-102000000D02*
X134870000Y-102000000D01*
X134870000Y-102000000D02*
X134844999Y-102025001D01*
X134844999Y-102025001D02*
X134844999Y-103874999D01*
X134844999Y-103874999D02*
X134870000Y-103900000D01*
X134870000Y-103900000D02*
X135750000Y-103900000D01*
X133300000Y-104600000D02*
X135050000Y-104600000D01*
X135050000Y-104600000D02*
X135750000Y-103900000D01*
D26*
X150970000Y-88100000D02*
X150970000Y-85520000D01*
X150970000Y-85520000D02*
X156090000Y-80400000D01*
D29*
G36*
X156217000Y-118873000D02*
X156237000Y-118873000D01*
X156237000Y-119127000D01*
X156217000Y-119127000D01*
X156217000Y-120320155D01*
X156446890Y-120441476D01*
X156856924Y-120271645D01*
X157285183Y-119881358D01*
X157346157Y-119751522D01*
X157559375Y-120070625D01*
X158050582Y-120398839D01*
X158483744Y-120485000D01*
X158776256Y-120485000D01*
X159209418Y-120398839D01*
X159700625Y-120070625D01*
X159900000Y-119772239D01*
X160099375Y-120070625D01*
X160590582Y-120398839D01*
X161023744Y-120485000D01*
X161316256Y-120485000D01*
X161749418Y-120398839D01*
X162240625Y-120070625D01*
X162440000Y-119772239D01*
X162639375Y-120070625D01*
X163130582Y-120398839D01*
X163563744Y-120485000D01*
X163856256Y-120485000D01*
X164289418Y-120398839D01*
X164780625Y-120070625D01*
X164980000Y-119772239D01*
X165179375Y-120070625D01*
X165670582Y-120398839D01*
X166103744Y-120485000D01*
X166396256Y-120485000D01*
X166829418Y-120398839D01*
X167320625Y-120070625D01*
X167520000Y-119772239D01*
X167719375Y-120070625D01*
X168210582Y-120398839D01*
X168643744Y-120485000D01*
X168936256Y-120485000D01*
X169369418Y-120398839D01*
X169860625Y-120070625D01*
X170060000Y-119772239D01*
X170259375Y-120070625D01*
X170750582Y-120398839D01*
X171183744Y-120485000D01*
X171476256Y-120485000D01*
X171909418Y-120398839D01*
X172400625Y-120070625D01*
X172600000Y-119772239D01*
X172799375Y-120070625D01*
X173290582Y-120398839D01*
X173723744Y-120485000D01*
X174016256Y-120485000D01*
X174449418Y-120398839D01*
X174940625Y-120070625D01*
X175140000Y-119772239D01*
X175339375Y-120070625D01*
X175830582Y-120398839D01*
X176263744Y-120485000D01*
X176556256Y-120485000D01*
X176989418Y-120398839D01*
X177480625Y-120070625D01*
X177693843Y-119751522D01*
X177754817Y-119881358D01*
X178183076Y-120271645D01*
X178593110Y-120441476D01*
X178822998Y-120320156D01*
X178822998Y-120483321D01*
X149424232Y-120531280D01*
X149680366Y-120275146D01*
X149702191Y-120307809D01*
X149912235Y-120448157D01*
X150160000Y-120497440D01*
X151860000Y-120497440D01*
X152107765Y-120448157D01*
X152317809Y-120307809D01*
X152458157Y-120097765D01*
X152467184Y-120052381D01*
X152479375Y-120070625D01*
X152970582Y-120398839D01*
X153403744Y-120485000D01*
X153696256Y-120485000D01*
X154129418Y-120398839D01*
X154620625Y-120070625D01*
X154833843Y-119751522D01*
X154894817Y-119881358D01*
X155323076Y-120271645D01*
X155733110Y-120441476D01*
X155963000Y-120320155D01*
X155963000Y-119127000D01*
X155943000Y-119127000D01*
X155943000Y-118873000D01*
X155963000Y-118873000D01*
X155963000Y-118853000D01*
X156217000Y-118853000D01*
X156217000Y-118873000D01*
X156217000Y-118873000D01*
G37*
X156217000Y-118873000D02*
X156237000Y-118873000D01*
X156237000Y-119127000D01*
X156217000Y-119127000D01*
X156217000Y-120320155D01*
X156446890Y-120441476D01*
X156856924Y-120271645D01*
X157285183Y-119881358D01*
X157346157Y-119751522D01*
X157559375Y-120070625D01*
X158050582Y-120398839D01*
X158483744Y-120485000D01*
X158776256Y-120485000D01*
X159209418Y-120398839D01*
X159700625Y-120070625D01*
X159900000Y-119772239D01*
X160099375Y-120070625D01*
X160590582Y-120398839D01*
X161023744Y-120485000D01*
X161316256Y-120485000D01*
X161749418Y-120398839D01*
X162240625Y-120070625D01*
X162440000Y-119772239D01*
X162639375Y-120070625D01*
X163130582Y-120398839D01*
X163563744Y-120485000D01*
X163856256Y-120485000D01*
X164289418Y-120398839D01*
X164780625Y-120070625D01*
X164980000Y-119772239D01*
X165179375Y-120070625D01*
X165670582Y-120398839D01*
X166103744Y-120485000D01*
X166396256Y-120485000D01*
X166829418Y-120398839D01*
X167320625Y-120070625D01*
X167520000Y-119772239D01*
X167719375Y-120070625D01*
X168210582Y-120398839D01*
X168643744Y-120485000D01*
X168936256Y-120485000D01*
X169369418Y-120398839D01*
X169860625Y-120070625D01*
X170060000Y-119772239D01*
X170259375Y-120070625D01*
X170750582Y-120398839D01*
X171183744Y-120485000D01*
X171476256Y-120485000D01*
X171909418Y-120398839D01*
X172400625Y-120070625D01*
X172600000Y-119772239D01*
X172799375Y-120070625D01*
X173290582Y-120398839D01*
X173723744Y-120485000D01*
X174016256Y-120485000D01*
X174449418Y-120398839D01*
X174940625Y-120070625D01*
X175140000Y-119772239D01*
X175339375Y-120070625D01*
X175830582Y-120398839D01*
X176263744Y-120485000D01*
X176556256Y-120485000D01*
X176989418Y-120398839D01*
X177480625Y-120070625D01*
X177693843Y-119751522D01*
X177754817Y-119881358D01*
X178183076Y-120271645D01*
X178593110Y-120441476D01*
X178822998Y-120320156D01*
X178822998Y-120483321D01*
X149424232Y-120531280D01*
X149680366Y-120275146D01*
X149702191Y-120307809D01*
X149912235Y-120448157D01*
X150160000Y-120497440D01*
X151860000Y-120497440D01*
X152107765Y-120448157D01*
X152317809Y-120307809D01*
X152458157Y-120097765D01*
X152467184Y-120052381D01*
X152479375Y-120070625D01*
X152970582Y-120398839D01*
X153403744Y-120485000D01*
X153696256Y-120485000D01*
X154129418Y-120398839D01*
X154620625Y-120070625D01*
X154833843Y-119751522D01*
X154894817Y-119881358D01*
X155323076Y-120271645D01*
X155733110Y-120441476D01*
X155963000Y-120320155D01*
X155963000Y-119127000D01*
X155943000Y-119127000D01*
X155943000Y-118873000D01*
X155963000Y-118873000D01*
X155963000Y-118853000D01*
X156217000Y-118853000D01*
X156217000Y-118873000D01*
G36*
X183602235Y-110798157D02*
X183850000Y-110847440D01*
X185400000Y-110847440D01*
X185602560Y-110807149D01*
X185602560Y-111800000D01*
X185651843Y-112047765D01*
X185792191Y-112257809D01*
X186002235Y-112398157D01*
X186250000Y-112447440D01*
X187850574Y-112447440D01*
X187872778Y-117598903D01*
X185096023Y-120473088D01*
X179077002Y-120482907D01*
X179077002Y-120320156D01*
X179306890Y-120441476D01*
X179716924Y-120271645D01*
X180145183Y-119881358D01*
X180391486Y-119356892D01*
X180270819Y-119127000D01*
X179077000Y-119127000D01*
X179077000Y-119147000D01*
X178823000Y-119147000D01*
X178823000Y-119127000D01*
X178803000Y-119127000D01*
X178803000Y-118873000D01*
X178823000Y-118873000D01*
X178823000Y-117679845D01*
X179077000Y-117679845D01*
X179077000Y-118873000D01*
X180270819Y-118873000D01*
X180391486Y-118643108D01*
X180145183Y-118118642D01*
X179716924Y-117728355D01*
X179306890Y-117558524D01*
X179077000Y-117679845D01*
X178823000Y-117679845D01*
X178593110Y-117558524D01*
X178183076Y-117728355D01*
X177754817Y-118118642D01*
X177693843Y-118248478D01*
X177480625Y-117929375D01*
X177170000Y-117721822D01*
X177170000Y-117412190D01*
X182389644Y-117412190D01*
X182389654Y-117412288D01*
X182389644Y-117412385D01*
X182396438Y-117481267D01*
X182413131Y-117650996D01*
X182413099Y-117651101D01*
X182427336Y-117795425D01*
X182434515Y-117868420D01*
X182434547Y-117868525D01*
X182434558Y-117868639D01*
X182456728Y-117941684D01*
X182497941Y-118077612D01*
X182498010Y-118077696D01*
X182547565Y-118240965D01*
X182567620Y-118307117D01*
X182567673Y-118307216D01*
X182567706Y-118307325D01*
X182600993Y-118369577D01*
X182680673Y-118518705D01*
X182680680Y-118518780D01*
X182747142Y-118643108D01*
X182783647Y-118711430D01*
X182783699Y-118711493D01*
X182783734Y-118711559D01*
X182830040Y-118767978D01*
X182922296Y-118880428D01*
X182922363Y-118880464D01*
X182935921Y-118896983D01*
X182935928Y-118897006D01*
X183020472Y-119000000D01*
X183074583Y-119065928D01*
X183074604Y-119065946D01*
X183074622Y-119065967D01*
X183140453Y-119119981D01*
X183243566Y-119204596D01*
X183243587Y-119204602D01*
X183379368Y-119316011D01*
X183428959Y-119356712D01*
X183429003Y-119356735D01*
X183429045Y-119356770D01*
X183489996Y-119389340D01*
X183640492Y-119469790D01*
X183640512Y-119469814D01*
X183760802Y-119534103D01*
X183833237Y-119572824D01*
X183833273Y-119572835D01*
X183833301Y-119572850D01*
X183904400Y-119594414D01*
X184042416Y-119636287D01*
X184042448Y-119636284D01*
X184211165Y-119687455D01*
X184271994Y-119705910D01*
X184272019Y-119705912D01*
X184272044Y-119705920D01*
X184333438Y-119711964D01*
X184510665Y-119729426D01*
X184510686Y-119729437D01*
X184646118Y-119742772D01*
X184728171Y-119750856D01*
X184728200Y-119750853D01*
X184728228Y-119750856D01*
X184809998Y-119742799D01*
X184945714Y-119729437D01*
X184945735Y-119729426D01*
X185123662Y-119711895D01*
X185184355Y-119705920D01*
X185184379Y-119705913D01*
X185184406Y-119705910D01*
X185248287Y-119686530D01*
X185413952Y-119636284D01*
X185413983Y-119636287D01*
X185551412Y-119594593D01*
X185623099Y-119572850D01*
X185623127Y-119572835D01*
X185623163Y-119572824D01*
X185695598Y-119534103D01*
X185815888Y-119469814D01*
X185815908Y-119469790D01*
X185969112Y-119387892D01*
X186027354Y-119356770D01*
X186027394Y-119356737D01*
X186027441Y-119356712D01*
X186081032Y-119312728D01*
X186212885Y-119204543D01*
X186212996Y-119204509D01*
X186323896Y-119113459D01*
X186381778Y-119065967D01*
X186381853Y-119065875D01*
X186381945Y-119065800D01*
X186429334Y-119008032D01*
X186520471Y-118897006D01*
X186520505Y-118896895D01*
X186627161Y-118766880D01*
X186672538Y-118711602D01*
X186672594Y-118711496D01*
X186672667Y-118711408D01*
X186705066Y-118650764D01*
X186785686Y-118499980D01*
X186785764Y-118499916D01*
X186852772Y-118374507D01*
X186888701Y-118307309D01*
X186888732Y-118307207D01*
X186888780Y-118307117D01*
X186910039Y-118236997D01*
X186952181Y-118098135D01*
X186952171Y-118098033D01*
X187002186Y-117933065D01*
X187021739Y-117868650D01*
X187021750Y-117868537D01*
X187021786Y-117868419D01*
X187028892Y-117796156D01*
X187045305Y-117629816D01*
X187045369Y-117629697D01*
X187059425Y-117486721D01*
X187066756Y-117412425D01*
X187066743Y-117412288D01*
X187066756Y-117412151D01*
X187059424Y-117337844D01*
X187045368Y-117194878D01*
X187045304Y-117194759D01*
X187028597Y-117025441D01*
X187021787Y-116956187D01*
X187021751Y-116956069D01*
X187021739Y-116955945D01*
X187001443Y-116889082D01*
X186952169Y-116726556D01*
X186952180Y-116726444D01*
X186910618Y-116589502D01*
X186888783Y-116517480D01*
X186888728Y-116517378D01*
X186888696Y-116517271D01*
X186853872Y-116452142D01*
X186785768Y-116324679D01*
X186785682Y-116324608D01*
X186705254Y-116174187D01*
X186672667Y-116113192D01*
X186672591Y-116113099D01*
X186672532Y-116112989D01*
X186627348Y-116057948D01*
X186520512Y-115927715D01*
X186520481Y-115927611D01*
X186429036Y-115816204D01*
X186381945Y-115758800D01*
X186381860Y-115758731D01*
X186381791Y-115758646D01*
X186323489Y-115710807D01*
X186212996Y-115620091D01*
X186212895Y-115620060D01*
X186077214Y-115508729D01*
X186027441Y-115467878D01*
X186027405Y-115467859D01*
X186027370Y-115467830D01*
X185966799Y-115435461D01*
X185815896Y-115354794D01*
X185815870Y-115354762D01*
X185693833Y-115289543D01*
X185623163Y-115251766D01*
X185623118Y-115251752D01*
X185623078Y-115251731D01*
X185549046Y-115229280D01*
X185413983Y-115188303D01*
X185413941Y-115188307D01*
X185244798Y-115137012D01*
X185184406Y-115118690D01*
X185184371Y-115118687D01*
X185184333Y-115118675D01*
X185116206Y-115111970D01*
X184945735Y-115095174D01*
X184945714Y-115095163D01*
X184809998Y-115081801D01*
X184728228Y-115073744D01*
X184728200Y-115073747D01*
X184728171Y-115073744D01*
X184646118Y-115081828D01*
X184510686Y-115095163D01*
X184510665Y-115095174D01*
X184340653Y-115111925D01*
X184272066Y-115118675D01*
X184272027Y-115118687D01*
X184271994Y-115118690D01*
X184213827Y-115136337D01*
X184042458Y-115188307D01*
X184042416Y-115188303D01*
X183906904Y-115229416D01*
X183833322Y-115251731D01*
X183833282Y-115251752D01*
X183833237Y-115251766D01*
X183762567Y-115289543D01*
X183640530Y-115354762D01*
X183640504Y-115354794D01*
X183488362Y-115436123D01*
X183429031Y-115467830D01*
X183428998Y-115467857D01*
X183428959Y-115467878D01*
X183377271Y-115510301D01*
X183243579Y-115620000D01*
X183243566Y-115620004D01*
X183144204Y-115701541D01*
X183074609Y-115758646D01*
X183074597Y-115758660D01*
X183074583Y-115758672D01*
X183018357Y-115827178D01*
X182935920Y-115927610D01*
X182935916Y-115927623D01*
X182922367Y-115944131D01*
X182922304Y-115944165D01*
X182829605Y-116057153D01*
X182783734Y-116113041D01*
X182783701Y-116113102D01*
X182783653Y-116113161D01*
X182746878Y-116181985D01*
X182680680Y-116305820D01*
X182680673Y-116305890D01*
X182600462Y-116456006D01*
X182567703Y-116517272D01*
X182567673Y-116517372D01*
X182567624Y-116517463D01*
X182548177Y-116581606D01*
X182498009Y-116746904D01*
X182497943Y-116746984D01*
X182456847Y-116882525D01*
X182434557Y-116955967D01*
X182434546Y-116956075D01*
X182434516Y-116956175D01*
X182427242Y-117030131D01*
X182413100Y-117173506D01*
X182413130Y-117173605D01*
X182396474Y-117342942D01*
X182389644Y-117412190D01*
X177170000Y-117412190D01*
X177170000Y-116444801D01*
X178026895Y-115587907D01*
X178042235Y-115598157D01*
X178290000Y-115647440D01*
X178960000Y-115647440D01*
X179207765Y-115598157D01*
X179417809Y-115457809D01*
X179500000Y-115334802D01*
X179582191Y-115457809D01*
X179792235Y-115598157D01*
X180040000Y-115647440D01*
X180710000Y-115647440D01*
X180957765Y-115598157D01*
X181167809Y-115457809D01*
X181308157Y-115247765D01*
X181357440Y-115000000D01*
X181357440Y-114000000D01*
X181308157Y-113752235D01*
X181167809Y-113542191D01*
X181135000Y-113520269D01*
X181135000Y-113324846D01*
X181149888Y-113249999D01*
X181135000Y-113175152D01*
X181135000Y-113175148D01*
X181090904Y-112953463D01*
X181006692Y-112827431D01*
X180965329Y-112765526D01*
X180965327Y-112765524D01*
X180922929Y-112702071D01*
X180859476Y-112659673D01*
X180415330Y-112215529D01*
X180372929Y-112152071D01*
X180121537Y-111984096D01*
X180070766Y-111973997D01*
X180032809Y-111917191D01*
X179890320Y-111821982D01*
X181052302Y-110660000D01*
X183395470Y-110660000D01*
X183602235Y-110798157D01*
X183602235Y-110798157D01*
G37*
X183602235Y-110798157D02*
X183850000Y-110847440D01*
X185400000Y-110847440D01*
X185602560Y-110807149D01*
X185602560Y-111800000D01*
X185651843Y-112047765D01*
X185792191Y-112257809D01*
X186002235Y-112398157D01*
X186250000Y-112447440D01*
X187850574Y-112447440D01*
X187872778Y-117598903D01*
X185096023Y-120473088D01*
X179077002Y-120482907D01*
X179077002Y-120320156D01*
X179306890Y-120441476D01*
X179716924Y-120271645D01*
X180145183Y-119881358D01*
X180391486Y-119356892D01*
X180270819Y-119127000D01*
X179077000Y-119127000D01*
X179077000Y-119147000D01*
X178823000Y-119147000D01*
X178823000Y-119127000D01*
X178803000Y-119127000D01*
X178803000Y-118873000D01*
X178823000Y-118873000D01*
X178823000Y-117679845D01*
X179077000Y-117679845D01*
X179077000Y-118873000D01*
X180270819Y-118873000D01*
X180391486Y-118643108D01*
X180145183Y-118118642D01*
X179716924Y-117728355D01*
X179306890Y-117558524D01*
X179077000Y-117679845D01*
X178823000Y-117679845D01*
X178593110Y-117558524D01*
X178183076Y-117728355D01*
X177754817Y-118118642D01*
X177693843Y-118248478D01*
X177480625Y-117929375D01*
X177170000Y-117721822D01*
X177170000Y-117412190D01*
X182389644Y-117412190D01*
X182389654Y-117412288D01*
X182389644Y-117412385D01*
X182396438Y-117481267D01*
X182413131Y-117650996D01*
X182413099Y-117651101D01*
X182427336Y-117795425D01*
X182434515Y-117868420D01*
X182434547Y-117868525D01*
X182434558Y-117868639D01*
X182456728Y-117941684D01*
X182497941Y-118077612D01*
X182498010Y-118077696D01*
X182547565Y-118240965D01*
X182567620Y-118307117D01*
X182567673Y-118307216D01*
X182567706Y-118307325D01*
X182600993Y-118369577D01*
X182680673Y-118518705D01*
X182680680Y-118518780D01*
X182747142Y-118643108D01*
X182783647Y-118711430D01*
X182783699Y-118711493D01*
X182783734Y-118711559D01*
X182830040Y-118767978D01*
X182922296Y-118880428D01*
X182922363Y-118880464D01*
X182935921Y-118896983D01*
X182935928Y-118897006D01*
X183020472Y-119000000D01*
X183074583Y-119065928D01*
X183074604Y-119065946D01*
X183074622Y-119065967D01*
X183140453Y-119119981D01*
X183243566Y-119204596D01*
X183243587Y-119204602D01*
X183379368Y-119316011D01*
X183428959Y-119356712D01*
X183429003Y-119356735D01*
X183429045Y-119356770D01*
X183489996Y-119389340D01*
X183640492Y-119469790D01*
X183640512Y-119469814D01*
X183760802Y-119534103D01*
X183833237Y-119572824D01*
X183833273Y-119572835D01*
X183833301Y-119572850D01*
X183904400Y-119594414D01*
X184042416Y-119636287D01*
X184042448Y-119636284D01*
X184211165Y-119687455D01*
X184271994Y-119705910D01*
X184272019Y-119705912D01*
X184272044Y-119705920D01*
X184333438Y-119711964D01*
X184510665Y-119729426D01*
X184510686Y-119729437D01*
X184646118Y-119742772D01*
X184728171Y-119750856D01*
X184728200Y-119750853D01*
X184728228Y-119750856D01*
X184809998Y-119742799D01*
X184945714Y-119729437D01*
X184945735Y-119729426D01*
X185123662Y-119711895D01*
X185184355Y-119705920D01*
X185184379Y-119705913D01*
X185184406Y-119705910D01*
X185248287Y-119686530D01*
X185413952Y-119636284D01*
X185413983Y-119636287D01*
X185551412Y-119594593D01*
X185623099Y-119572850D01*
X185623127Y-119572835D01*
X185623163Y-119572824D01*
X185695598Y-119534103D01*
X185815888Y-119469814D01*
X185815908Y-119469790D01*
X185969112Y-119387892D01*
X186027354Y-119356770D01*
X186027394Y-119356737D01*
X186027441Y-119356712D01*
X186081032Y-119312728D01*
X186212885Y-119204543D01*
X186212996Y-119204509D01*
X186323896Y-119113459D01*
X186381778Y-119065967D01*
X186381853Y-119065875D01*
X186381945Y-119065800D01*
X186429334Y-119008032D01*
X186520471Y-118897006D01*
X186520505Y-118896895D01*
X186627161Y-118766880D01*
X186672538Y-118711602D01*
X186672594Y-118711496D01*
X186672667Y-118711408D01*
X186705066Y-118650764D01*
X186785686Y-118499980D01*
X186785764Y-118499916D01*
X186852772Y-118374507D01*
X186888701Y-118307309D01*
X186888732Y-118307207D01*
X186888780Y-118307117D01*
X186910039Y-118236997D01*
X186952181Y-118098135D01*
X186952171Y-118098033D01*
X187002186Y-117933065D01*
X187021739Y-117868650D01*
X187021750Y-117868537D01*
X187021786Y-117868419D01*
X187028892Y-117796156D01*
X187045305Y-117629816D01*
X187045369Y-117629697D01*
X187059425Y-117486721D01*
X187066756Y-117412425D01*
X187066743Y-117412288D01*
X187066756Y-117412151D01*
X187059424Y-117337844D01*
X187045368Y-117194878D01*
X187045304Y-117194759D01*
X187028597Y-117025441D01*
X187021787Y-116956187D01*
X187021751Y-116956069D01*
X187021739Y-116955945D01*
X187001443Y-116889082D01*
X186952169Y-116726556D01*
X186952180Y-116726444D01*
X186910618Y-116589502D01*
X186888783Y-116517480D01*
X186888728Y-116517378D01*
X186888696Y-116517271D01*
X186853872Y-116452142D01*
X186785768Y-116324679D01*
X186785682Y-116324608D01*
X186705254Y-116174187D01*
X186672667Y-116113192D01*
X186672591Y-116113099D01*
X186672532Y-116112989D01*
X186627348Y-116057948D01*
X186520512Y-115927715D01*
X186520481Y-115927611D01*
X186429036Y-115816204D01*
X186381945Y-115758800D01*
X186381860Y-115758731D01*
X186381791Y-115758646D01*
X186323489Y-115710807D01*
X186212996Y-115620091D01*
X186212895Y-115620060D01*
X186077214Y-115508729D01*
X186027441Y-115467878D01*
X186027405Y-115467859D01*
X186027370Y-115467830D01*
X185966799Y-115435461D01*
X185815896Y-115354794D01*
X185815870Y-115354762D01*
X185693833Y-115289543D01*
X185623163Y-115251766D01*
X185623118Y-115251752D01*
X185623078Y-115251731D01*
X185549046Y-115229280D01*
X185413983Y-115188303D01*
X185413941Y-115188307D01*
X185244798Y-115137012D01*
X185184406Y-115118690D01*
X185184371Y-115118687D01*
X185184333Y-115118675D01*
X185116206Y-115111970D01*
X184945735Y-115095174D01*
X184945714Y-115095163D01*
X184809998Y-115081801D01*
X184728228Y-115073744D01*
X184728200Y-115073747D01*
X184728171Y-115073744D01*
X184646118Y-115081828D01*
X184510686Y-115095163D01*
X184510665Y-115095174D01*
X184340653Y-115111925D01*
X184272066Y-115118675D01*
X184272027Y-115118687D01*
X184271994Y-115118690D01*
X184213827Y-115136337D01*
X184042458Y-115188307D01*
X184042416Y-115188303D01*
X183906904Y-115229416D01*
X183833322Y-115251731D01*
X183833282Y-115251752D01*
X183833237Y-115251766D01*
X183762567Y-115289543D01*
X183640530Y-115354762D01*
X183640504Y-115354794D01*
X183488362Y-115436123D01*
X183429031Y-115467830D01*
X183428998Y-115467857D01*
X183428959Y-115467878D01*
X183377271Y-115510301D01*
X183243579Y-115620000D01*
X183243566Y-115620004D01*
X183144204Y-115701541D01*
X183074609Y-115758646D01*
X183074597Y-115758660D01*
X183074583Y-115758672D01*
X183018357Y-115827178D01*
X182935920Y-115927610D01*
X182935916Y-115927623D01*
X182922367Y-115944131D01*
X182922304Y-115944165D01*
X182829605Y-116057153D01*
X182783734Y-116113041D01*
X182783701Y-116113102D01*
X182783653Y-116113161D01*
X182746878Y-116181985D01*
X182680680Y-116305820D01*
X182680673Y-116305890D01*
X182600462Y-116456006D01*
X182567703Y-116517272D01*
X182567673Y-116517372D01*
X182567624Y-116517463D01*
X182548177Y-116581606D01*
X182498009Y-116746904D01*
X182497943Y-116746984D01*
X182456847Y-116882525D01*
X182434557Y-116955967D01*
X182434546Y-116956075D01*
X182434516Y-116956175D01*
X182427242Y-117030131D01*
X182413100Y-117173506D01*
X182413130Y-117173605D01*
X182396474Y-117342942D01*
X182389644Y-117412190D01*
X177170000Y-117412190D01*
X177170000Y-116444801D01*
X178026895Y-115587907D01*
X178042235Y-115598157D01*
X178290000Y-115647440D01*
X178960000Y-115647440D01*
X179207765Y-115598157D01*
X179417809Y-115457809D01*
X179500000Y-115334802D01*
X179582191Y-115457809D01*
X179792235Y-115598157D01*
X180040000Y-115647440D01*
X180710000Y-115647440D01*
X180957765Y-115598157D01*
X181167809Y-115457809D01*
X181308157Y-115247765D01*
X181357440Y-115000000D01*
X181357440Y-114000000D01*
X181308157Y-113752235D01*
X181167809Y-113542191D01*
X181135000Y-113520269D01*
X181135000Y-113324846D01*
X181149888Y-113249999D01*
X181135000Y-113175152D01*
X181135000Y-113175148D01*
X181090904Y-112953463D01*
X181006692Y-112827431D01*
X180965329Y-112765526D01*
X180965327Y-112765524D01*
X180922929Y-112702071D01*
X180859476Y-112659673D01*
X180415330Y-112215529D01*
X180372929Y-112152071D01*
X180121537Y-111984096D01*
X180070766Y-111973997D01*
X180032809Y-111917191D01*
X179890320Y-111821982D01*
X181052302Y-110660000D01*
X183395470Y-110660000D01*
X183602235Y-110798157D01*
G36*
X154044673Y-98909473D02*
X154087073Y-98972929D01*
X154338465Y-99140904D01*
X154552560Y-99183490D01*
X154552560Y-99275000D01*
X154577424Y-99400000D01*
X154552560Y-99525000D01*
X154552560Y-99925000D01*
X154577424Y-100050000D01*
X154552560Y-100175000D01*
X154552560Y-100575000D01*
X154577424Y-100700000D01*
X154552560Y-100825000D01*
X154552560Y-101225000D01*
X154577424Y-101350000D01*
X154552560Y-101475000D01*
X154552560Y-101875000D01*
X154577424Y-102000000D01*
X154552560Y-102125000D01*
X154552560Y-102525000D01*
X154601843Y-102772765D01*
X154742191Y-102982809D01*
X154952235Y-103123157D01*
X155086422Y-103149848D01*
X155202072Y-103322929D01*
X155265528Y-103365329D01*
X161484672Y-109584474D01*
X161527072Y-109647930D01*
X161778464Y-109815905D01*
X162000149Y-109860001D01*
X162000153Y-109860001D01*
X162075000Y-109874889D01*
X162149847Y-109860001D01*
X166432688Y-109860001D01*
X166315000Y-110144126D01*
X166315000Y-110555874D01*
X166472569Y-110936280D01*
X166763720Y-111227431D01*
X167144126Y-111385000D01*
X167310199Y-111385000D01*
X169130744Y-113205545D01*
X168922569Y-113413720D01*
X168765000Y-113794126D01*
X168765000Y-114205874D01*
X168922569Y-114586280D01*
X169040000Y-114703711D01*
X169040001Y-117395148D01*
X169025112Y-117470000D01*
X169038092Y-117535256D01*
X168936256Y-117515000D01*
X168643744Y-117515000D01*
X168423593Y-117558791D01*
X164230331Y-113365530D01*
X164187929Y-113302071D01*
X163936537Y-113134096D01*
X163714852Y-113090000D01*
X163714847Y-113090000D01*
X163640000Y-113075112D01*
X163565153Y-113090000D01*
X157060823Y-113090000D01*
X157040000Y-113076087D01*
X157040000Y-111478178D01*
X157350625Y-111270625D01*
X157563843Y-110951522D01*
X157624817Y-111081358D01*
X158053076Y-111471645D01*
X158463110Y-111641476D01*
X158693000Y-111520155D01*
X158693000Y-110327000D01*
X158947000Y-110327000D01*
X158947000Y-111520155D01*
X159176890Y-111641476D01*
X159586924Y-111471645D01*
X160015183Y-111081358D01*
X160261486Y-110556892D01*
X160140819Y-110327000D01*
X158947000Y-110327000D01*
X158693000Y-110327000D01*
X158673000Y-110327000D01*
X158673000Y-110073000D01*
X158693000Y-110073000D01*
X158693000Y-108879845D01*
X158947000Y-108879845D01*
X158947000Y-110073000D01*
X160140819Y-110073000D01*
X160261486Y-109843108D01*
X160015183Y-109318642D01*
X159586924Y-108928355D01*
X159176890Y-108758524D01*
X158947000Y-108879845D01*
X158693000Y-108879845D01*
X158463110Y-108758524D01*
X158053076Y-108928355D01*
X157624817Y-109318642D01*
X157563843Y-109448478D01*
X157350625Y-109129375D01*
X156859418Y-108801161D01*
X156426256Y-108715000D01*
X156133744Y-108715000D01*
X155700582Y-108801161D01*
X155209375Y-109129375D01*
X154996157Y-109448478D01*
X154935183Y-109318642D01*
X154506924Y-108928355D01*
X154096890Y-108758524D01*
X153867000Y-108879845D01*
X153867000Y-110073000D01*
X153887000Y-110073000D01*
X153887000Y-110327000D01*
X153867000Y-110327000D01*
X153867000Y-111520155D01*
X154096890Y-111641476D01*
X154506924Y-111471645D01*
X154935183Y-111081358D01*
X154996157Y-110951522D01*
X155209375Y-111270625D01*
X155520000Y-111478178D01*
X155520001Y-113102814D01*
X155517191Y-113104691D01*
X155376843Y-113314735D01*
X155327560Y-113562500D01*
X155327560Y-114137500D01*
X155347451Y-114237500D01*
X155327560Y-114337500D01*
X155327560Y-114912500D01*
X155376843Y-115160265D01*
X155490001Y-115329616D01*
X155490000Y-115914487D01*
X153857429Y-117547059D01*
X153696256Y-117515000D01*
X153403744Y-117515000D01*
X153242572Y-117547059D01*
X152110000Y-116414488D01*
X152110000Y-115492115D01*
X152223157Y-115322765D01*
X152272440Y-115075000D01*
X152272440Y-114500000D01*
X152252549Y-114400000D01*
X152272440Y-114300000D01*
X152272440Y-113725000D01*
X152223157Y-113477235D01*
X152082809Y-113267191D01*
X152060000Y-113251950D01*
X152060000Y-111695451D01*
X152297765Y-111648157D01*
X152507809Y-111507809D01*
X152648157Y-111297765D01*
X152668739Y-111194292D01*
X152973076Y-111471645D01*
X153383110Y-111641476D01*
X153613000Y-111520155D01*
X153613000Y-110327000D01*
X153593000Y-110327000D01*
X153593000Y-110073000D01*
X153613000Y-110073000D01*
X153613000Y-108879845D01*
X153383110Y-108758524D01*
X152973076Y-108928355D01*
X152668739Y-109205708D01*
X152648157Y-109102235D01*
X152507809Y-108892191D01*
X152297765Y-108751843D01*
X152050000Y-108702560D01*
X150350000Y-108702560D01*
X150102235Y-108751843D01*
X149892191Y-108892191D01*
X149751843Y-109102235D01*
X149702560Y-109350000D01*
X149702560Y-111050000D01*
X149751843Y-111297765D01*
X149892191Y-111507809D01*
X150102235Y-111648157D01*
X150350000Y-111697440D01*
X150540001Y-111697440D01*
X150540000Y-113251950D01*
X150517191Y-113267191D01*
X150376843Y-113477235D01*
X150327560Y-113725000D01*
X150327560Y-114300000D01*
X150347451Y-114400000D01*
X150327560Y-114500000D01*
X150327560Y-115075000D01*
X150376843Y-115322765D01*
X150490001Y-115492116D01*
X150490000Y-116670226D01*
X150474132Y-116750000D01*
X150490000Y-116829773D01*
X150536997Y-117066045D01*
X150716023Y-117333977D01*
X150783656Y-117379168D01*
X150907048Y-117502560D01*
X150160000Y-117502560D01*
X149912235Y-117551843D01*
X149702191Y-117692191D01*
X149561843Y-117902235D01*
X149512560Y-118150000D01*
X149512560Y-118233296D01*
X149493954Y-118236997D01*
X149226023Y-118416023D01*
X149180835Y-118483652D01*
X147824488Y-119840000D01*
X146097440Y-119840000D01*
X146097440Y-118200000D01*
X146048157Y-117952235D01*
X145907809Y-117742191D01*
X145735000Y-117626723D01*
X145735000Y-117311781D01*
X145757235Y-117199999D01*
X145730089Y-117063529D01*
X145669146Y-116757145D01*
X145418289Y-116381711D01*
X145323521Y-116318389D01*
X142731613Y-113726482D01*
X142668289Y-113631711D01*
X142292855Y-113380854D01*
X141961783Y-113315000D01*
X141850000Y-113292765D01*
X141738217Y-113315000D01*
X140720132Y-113315000D01*
X138135000Y-110729869D01*
X138135000Y-110374778D01*
X138035680Y-110134999D01*
X139564320Y-110134999D01*
X139465000Y-110374778D01*
X139465000Y-111025222D01*
X139713914Y-111626153D01*
X140173847Y-112086086D01*
X140774778Y-112335000D01*
X141425222Y-112335000D01*
X142026153Y-112086086D01*
X142486086Y-111626153D01*
X142735000Y-111025222D01*
X142735000Y-110374778D01*
X142486086Y-109773847D01*
X142356020Y-109643781D01*
X149038388Y-102961414D01*
X149140302Y-103063327D01*
X149373691Y-103160000D01*
X149764250Y-103160000D01*
X149923000Y-103001250D01*
X149923000Y-102522440D01*
X150177000Y-102522440D01*
X150177000Y-103001250D01*
X150335750Y-103160000D01*
X150726309Y-103160000D01*
X150959698Y-103063327D01*
X151138327Y-102884699D01*
X151235000Y-102651310D01*
X151235000Y-102583750D01*
X151076250Y-102425000D01*
X150919836Y-102425000D01*
X151057809Y-102332809D01*
X151198157Y-102122765D01*
X151203042Y-102098208D01*
X151235000Y-102066250D01*
X151235000Y-101998690D01*
X151226783Y-101978852D01*
X151247440Y-101875000D01*
X151247440Y-101475000D01*
X151222576Y-101350000D01*
X151247440Y-101225000D01*
X151247440Y-100825000D01*
X151222576Y-100700000D01*
X151247440Y-100575000D01*
X151247440Y-100175000D01*
X151222576Y-100050000D01*
X151247440Y-99925000D01*
X151247440Y-99525000D01*
X151222576Y-99400000D01*
X151247440Y-99275000D01*
X151247440Y-98875000D01*
X151222576Y-98750000D01*
X151247440Y-98625000D01*
X151247440Y-98225000D01*
X151222576Y-98100000D01*
X151247440Y-97975000D01*
X151247440Y-97575000D01*
X151222576Y-97450000D01*
X151247440Y-97325000D01*
X151247440Y-96925000D01*
X151222576Y-96800000D01*
X151247440Y-96675000D01*
X151247440Y-96275000D01*
X151226783Y-96171148D01*
X151235000Y-96151310D01*
X151235000Y-96099800D01*
X154044673Y-98909473D01*
X154044673Y-98909473D01*
G37*
X154044673Y-98909473D02*
X154087073Y-98972929D01*
X154338465Y-99140904D01*
X154552560Y-99183490D01*
X154552560Y-99275000D01*
X154577424Y-99400000D01*
X154552560Y-99525000D01*
X154552560Y-99925000D01*
X154577424Y-100050000D01*
X154552560Y-100175000D01*
X154552560Y-100575000D01*
X154577424Y-100700000D01*
X154552560Y-100825000D01*
X154552560Y-101225000D01*
X154577424Y-101350000D01*
X154552560Y-101475000D01*
X154552560Y-101875000D01*
X154577424Y-102000000D01*
X154552560Y-102125000D01*
X154552560Y-102525000D01*
X154601843Y-102772765D01*
X154742191Y-102982809D01*
X154952235Y-103123157D01*
X155086422Y-103149848D01*
X155202072Y-103322929D01*
X155265528Y-103365329D01*
X161484672Y-109584474D01*
X161527072Y-109647930D01*
X161778464Y-109815905D01*
X162000149Y-109860001D01*
X162000153Y-109860001D01*
X162075000Y-109874889D01*
X162149847Y-109860001D01*
X166432688Y-109860001D01*
X166315000Y-110144126D01*
X166315000Y-110555874D01*
X166472569Y-110936280D01*
X166763720Y-111227431D01*
X167144126Y-111385000D01*
X167310199Y-111385000D01*
X169130744Y-113205545D01*
X168922569Y-113413720D01*
X168765000Y-113794126D01*
X168765000Y-114205874D01*
X168922569Y-114586280D01*
X169040000Y-114703711D01*
X169040001Y-117395148D01*
X169025112Y-117470000D01*
X169038092Y-117535256D01*
X168936256Y-117515000D01*
X168643744Y-117515000D01*
X168423593Y-117558791D01*
X164230331Y-113365530D01*
X164187929Y-113302071D01*
X163936537Y-113134096D01*
X163714852Y-113090000D01*
X163714847Y-113090000D01*
X163640000Y-113075112D01*
X163565153Y-113090000D01*
X157060823Y-113090000D01*
X157040000Y-113076087D01*
X157040000Y-111478178D01*
X157350625Y-111270625D01*
X157563843Y-110951522D01*
X157624817Y-111081358D01*
X158053076Y-111471645D01*
X158463110Y-111641476D01*
X158693000Y-111520155D01*
X158693000Y-110327000D01*
X158947000Y-110327000D01*
X158947000Y-111520155D01*
X159176890Y-111641476D01*
X159586924Y-111471645D01*
X160015183Y-111081358D01*
X160261486Y-110556892D01*
X160140819Y-110327000D01*
X158947000Y-110327000D01*
X158693000Y-110327000D01*
X158673000Y-110327000D01*
X158673000Y-110073000D01*
X158693000Y-110073000D01*
X158693000Y-108879845D01*
X158947000Y-108879845D01*
X158947000Y-110073000D01*
X160140819Y-110073000D01*
X160261486Y-109843108D01*
X160015183Y-109318642D01*
X159586924Y-108928355D01*
X159176890Y-108758524D01*
X158947000Y-108879845D01*
X158693000Y-108879845D01*
X158463110Y-108758524D01*
X158053076Y-108928355D01*
X157624817Y-109318642D01*
X157563843Y-109448478D01*
X157350625Y-109129375D01*
X156859418Y-108801161D01*
X156426256Y-108715000D01*
X156133744Y-108715000D01*
X155700582Y-108801161D01*
X155209375Y-109129375D01*
X154996157Y-109448478D01*
X154935183Y-109318642D01*
X154506924Y-108928355D01*
X154096890Y-108758524D01*
X153867000Y-108879845D01*
X153867000Y-110073000D01*
X153887000Y-110073000D01*
X153887000Y-110327000D01*
X153867000Y-110327000D01*
X153867000Y-111520155D01*
X154096890Y-111641476D01*
X154506924Y-111471645D01*
X154935183Y-111081358D01*
X154996157Y-110951522D01*
X155209375Y-111270625D01*
X155520000Y-111478178D01*
X155520001Y-113102814D01*
X155517191Y-113104691D01*
X155376843Y-113314735D01*
X155327560Y-113562500D01*
X155327560Y-114137500D01*
X155347451Y-114237500D01*
X155327560Y-114337500D01*
X155327560Y-114912500D01*
X155376843Y-115160265D01*
X155490001Y-115329616D01*
X155490000Y-115914487D01*
X153857429Y-117547059D01*
X153696256Y-117515000D01*
X153403744Y-117515000D01*
X153242572Y-117547059D01*
X152110000Y-116414488D01*
X152110000Y-115492115D01*
X152223157Y-115322765D01*
X152272440Y-115075000D01*
X152272440Y-114500000D01*
X152252549Y-114400000D01*
X152272440Y-114300000D01*
X152272440Y-113725000D01*
X152223157Y-113477235D01*
X152082809Y-113267191D01*
X152060000Y-113251950D01*
X152060000Y-111695451D01*
X152297765Y-111648157D01*
X152507809Y-111507809D01*
X152648157Y-111297765D01*
X152668739Y-111194292D01*
X152973076Y-111471645D01*
X153383110Y-111641476D01*
X153613000Y-111520155D01*
X153613000Y-110327000D01*
X153593000Y-110327000D01*
X153593000Y-110073000D01*
X153613000Y-110073000D01*
X153613000Y-108879845D01*
X153383110Y-108758524D01*
X152973076Y-108928355D01*
X152668739Y-109205708D01*
X152648157Y-109102235D01*
X152507809Y-108892191D01*
X152297765Y-108751843D01*
X152050000Y-108702560D01*
X150350000Y-108702560D01*
X150102235Y-108751843D01*
X149892191Y-108892191D01*
X149751843Y-109102235D01*
X149702560Y-109350000D01*
X149702560Y-111050000D01*
X149751843Y-111297765D01*
X149892191Y-111507809D01*
X150102235Y-111648157D01*
X150350000Y-111697440D01*
X150540001Y-111697440D01*
X150540000Y-113251950D01*
X150517191Y-113267191D01*
X150376843Y-113477235D01*
X150327560Y-113725000D01*
X150327560Y-114300000D01*
X150347451Y-114400000D01*
X150327560Y-114500000D01*
X150327560Y-115075000D01*
X150376843Y-115322765D01*
X150490001Y-115492116D01*
X150490000Y-116670226D01*
X150474132Y-116750000D01*
X150490000Y-116829773D01*
X150536997Y-117066045D01*
X150716023Y-117333977D01*
X150783656Y-117379168D01*
X150907048Y-117502560D01*
X150160000Y-117502560D01*
X149912235Y-117551843D01*
X149702191Y-117692191D01*
X149561843Y-117902235D01*
X149512560Y-118150000D01*
X149512560Y-118233296D01*
X149493954Y-118236997D01*
X149226023Y-118416023D01*
X149180835Y-118483652D01*
X147824488Y-119840000D01*
X146097440Y-119840000D01*
X146097440Y-118200000D01*
X146048157Y-117952235D01*
X145907809Y-117742191D01*
X145735000Y-117626723D01*
X145735000Y-117311781D01*
X145757235Y-117199999D01*
X145730089Y-117063529D01*
X145669146Y-116757145D01*
X145418289Y-116381711D01*
X145323521Y-116318389D01*
X142731613Y-113726482D01*
X142668289Y-113631711D01*
X142292855Y-113380854D01*
X141961783Y-113315000D01*
X141850000Y-113292765D01*
X141738217Y-113315000D01*
X140720132Y-113315000D01*
X138135000Y-110729869D01*
X138135000Y-110374778D01*
X138035680Y-110134999D01*
X139564320Y-110134999D01*
X139465000Y-110374778D01*
X139465000Y-111025222D01*
X139713914Y-111626153D01*
X140173847Y-112086086D01*
X140774778Y-112335000D01*
X141425222Y-112335000D01*
X142026153Y-112086086D01*
X142486086Y-111626153D01*
X142735000Y-111025222D01*
X142735000Y-110374778D01*
X142486086Y-109773847D01*
X142356020Y-109643781D01*
X149038388Y-102961414D01*
X149140302Y-103063327D01*
X149373691Y-103160000D01*
X149764250Y-103160000D01*
X149923000Y-103001250D01*
X149923000Y-102522440D01*
X150177000Y-102522440D01*
X150177000Y-103001250D01*
X150335750Y-103160000D01*
X150726309Y-103160000D01*
X150959698Y-103063327D01*
X151138327Y-102884699D01*
X151235000Y-102651310D01*
X151235000Y-102583750D01*
X151076250Y-102425000D01*
X150919836Y-102425000D01*
X151057809Y-102332809D01*
X151198157Y-102122765D01*
X151203042Y-102098208D01*
X151235000Y-102066250D01*
X151235000Y-101998690D01*
X151226783Y-101978852D01*
X151247440Y-101875000D01*
X151247440Y-101475000D01*
X151222576Y-101350000D01*
X151247440Y-101225000D01*
X151247440Y-100825000D01*
X151222576Y-100700000D01*
X151247440Y-100575000D01*
X151247440Y-100175000D01*
X151222576Y-100050000D01*
X151247440Y-99925000D01*
X151247440Y-99525000D01*
X151222576Y-99400000D01*
X151247440Y-99275000D01*
X151247440Y-98875000D01*
X151222576Y-98750000D01*
X151247440Y-98625000D01*
X151247440Y-98225000D01*
X151222576Y-98100000D01*
X151247440Y-97975000D01*
X151247440Y-97575000D01*
X151222576Y-97450000D01*
X151247440Y-97325000D01*
X151247440Y-96925000D01*
X151222576Y-96800000D01*
X151247440Y-96675000D01*
X151247440Y-96275000D01*
X151226783Y-96171148D01*
X151235000Y-96151310D01*
X151235000Y-96099800D01*
X154044673Y-98909473D01*
G36*
X134865000Y-110374778D02*
X134865000Y-111025222D01*
X135113914Y-111626153D01*
X135573847Y-112086086D01*
X136174778Y-112335000D01*
X136529869Y-112335000D01*
X139368389Y-115173521D01*
X139431711Y-115268289D01*
X139730395Y-115467863D01*
X139807145Y-115519146D01*
X140250000Y-115607235D01*
X140361783Y-115585000D01*
X141379869Y-115585000D01*
X143438978Y-117644110D01*
X143292191Y-117742191D01*
X143151843Y-117952235D01*
X143131261Y-118055708D01*
X142826924Y-117778355D01*
X142416890Y-117608524D01*
X142187000Y-117729845D01*
X142187000Y-118923000D01*
X142207000Y-118923000D01*
X142207000Y-119177000D01*
X142187000Y-119177000D01*
X142187000Y-119197000D01*
X141933000Y-119197000D01*
X141933000Y-119177000D01*
X140739181Y-119177000D01*
X140618514Y-119406892D01*
X140821913Y-119840000D01*
X136410513Y-119840000D01*
X135263621Y-118693108D01*
X140618514Y-118693108D01*
X140739181Y-118923000D01*
X141933000Y-118923000D01*
X141933000Y-117729845D01*
X141703110Y-117608524D01*
X141293076Y-117778355D01*
X140864817Y-118168642D01*
X140618514Y-118693108D01*
X135263621Y-118693108D01*
X133554168Y-116983656D01*
X133508977Y-116916023D01*
X133241046Y-116736997D01*
X133097500Y-116708444D01*
X133097500Y-115367274D01*
X133113368Y-115287500D01*
X133050503Y-114971453D01*
X132933627Y-114796537D01*
X132871477Y-114703523D01*
X132803847Y-114658334D01*
X129985000Y-111839488D01*
X129985000Y-111744126D01*
X129827431Y-111363720D01*
X129536280Y-111072569D01*
X129155874Y-110915000D01*
X129009801Y-110915000D01*
X129264803Y-110659999D01*
X130265000Y-110659999D01*
X130265000Y-111025222D01*
X130513914Y-111626153D01*
X130973847Y-112086086D01*
X131574778Y-112335000D01*
X132225222Y-112335000D01*
X132826153Y-112086086D01*
X133286086Y-111626153D01*
X133535000Y-111025222D01*
X133535000Y-110374778D01*
X133435680Y-110134999D01*
X134964320Y-110134999D01*
X134865000Y-110374778D01*
X134865000Y-110374778D01*
G37*
X134865000Y-110374778D02*
X134865000Y-111025222D01*
X135113914Y-111626153D01*
X135573847Y-112086086D01*
X136174778Y-112335000D01*
X136529869Y-112335000D01*
X139368389Y-115173521D01*
X139431711Y-115268289D01*
X139730395Y-115467863D01*
X139807145Y-115519146D01*
X140250000Y-115607235D01*
X140361783Y-115585000D01*
X141379869Y-115585000D01*
X143438978Y-117644110D01*
X143292191Y-117742191D01*
X143151843Y-117952235D01*
X143131261Y-118055708D01*
X142826924Y-117778355D01*
X142416890Y-117608524D01*
X142187000Y-117729845D01*
X142187000Y-118923000D01*
X142207000Y-118923000D01*
X142207000Y-119177000D01*
X142187000Y-119177000D01*
X142187000Y-119197000D01*
X141933000Y-119197000D01*
X141933000Y-119177000D01*
X140739181Y-119177000D01*
X140618514Y-119406892D01*
X140821913Y-119840000D01*
X136410513Y-119840000D01*
X135263621Y-118693108D01*
X140618514Y-118693108D01*
X140739181Y-118923000D01*
X141933000Y-118923000D01*
X141933000Y-117729845D01*
X141703110Y-117608524D01*
X141293076Y-117778355D01*
X140864817Y-118168642D01*
X140618514Y-118693108D01*
X135263621Y-118693108D01*
X133554168Y-116983656D01*
X133508977Y-116916023D01*
X133241046Y-116736997D01*
X133097500Y-116708444D01*
X133097500Y-115367274D01*
X133113368Y-115287500D01*
X133050503Y-114971453D01*
X132933627Y-114796537D01*
X132871477Y-114703523D01*
X132803847Y-114658334D01*
X129985000Y-111839488D01*
X129985000Y-111744126D01*
X129827431Y-111363720D01*
X129536280Y-111072569D01*
X129155874Y-110915000D01*
X129009801Y-110915000D01*
X129264803Y-110659999D01*
X130265000Y-110659999D01*
X130265000Y-111025222D01*
X130513914Y-111626153D01*
X130973847Y-112086086D01*
X131574778Y-112335000D01*
X132225222Y-112335000D01*
X132826153Y-112086086D01*
X133286086Y-111626153D01*
X133535000Y-111025222D01*
X133535000Y-110374778D01*
X133435680Y-110134999D01*
X134964320Y-110134999D01*
X134865000Y-110374778D01*
G36*
X134019131Y-102025001D02*
X134034999Y-102104775D01*
X134035000Y-103790000D01*
X133953711Y-103790000D01*
X133886280Y-103722569D01*
X133505874Y-103565000D01*
X133094126Y-103565000D01*
X132713720Y-103722569D01*
X132422569Y-104013720D01*
X132265000Y-104394126D01*
X132265000Y-104805874D01*
X132422569Y-105186280D01*
X132713720Y-105477431D01*
X133094126Y-105635000D01*
X133505874Y-105635000D01*
X133886280Y-105477431D01*
X133953711Y-105410000D01*
X134970227Y-105410000D01*
X135050000Y-105425868D01*
X135129773Y-105410000D01*
X135129774Y-105410000D01*
X135366046Y-105363003D01*
X135633977Y-105183977D01*
X135679168Y-105116344D01*
X135923072Y-104872440D01*
X136280000Y-104872440D01*
X136527765Y-104823157D01*
X136737809Y-104682809D01*
X136850000Y-104514905D01*
X136962191Y-104682809D01*
X137172235Y-104823157D01*
X137420000Y-104872440D01*
X138480000Y-104872440D01*
X138727765Y-104823157D01*
X138937809Y-104682809D01*
X139078157Y-104472765D01*
X139127440Y-104225000D01*
X139127440Y-103575000D01*
X139078157Y-103327235D01*
X138937809Y-103117191D01*
X138727765Y-102976843D01*
X138592815Y-102950000D01*
X138727765Y-102923157D01*
X138937809Y-102782809D01*
X139078157Y-102572765D01*
X139127440Y-102325000D01*
X139127440Y-101910012D01*
X147290186Y-101910012D01*
X143560199Y-105640000D01*
X128474846Y-105640000D01*
X128399999Y-105625112D01*
X128325152Y-105640000D01*
X128325148Y-105640000D01*
X128103463Y-105684096D01*
X127852071Y-105852071D01*
X127809671Y-105915527D01*
X125690528Y-108034671D01*
X125627072Y-108077071D01*
X125459096Y-108328463D01*
X125443249Y-108408132D01*
X125429691Y-108417191D01*
X125289343Y-108627235D01*
X125256967Y-108790000D01*
X124639250Y-108790000D01*
X124526250Y-108677000D01*
X124335415Y-108677000D01*
X124297765Y-108651843D01*
X124050000Y-108602560D01*
X122500000Y-108602560D01*
X122252235Y-108651843D01*
X122214585Y-108677000D01*
X122023750Y-108677000D01*
X121865000Y-108835750D01*
X121865000Y-108976309D01*
X121893374Y-109044811D01*
X121852560Y-109250000D01*
X121852560Y-109850000D01*
X121892342Y-110050000D01*
X121852560Y-110250000D01*
X121852560Y-110642851D01*
X121650000Y-110602560D01*
X119877000Y-110602560D01*
X119877000Y-107497440D01*
X121650000Y-107497440D01*
X121852560Y-107457149D01*
X121852560Y-107850000D01*
X121893374Y-108055189D01*
X121865000Y-108123691D01*
X121865000Y-108264250D01*
X122023750Y-108423000D01*
X122214585Y-108423000D01*
X122252235Y-108448157D01*
X122500000Y-108497440D01*
X124050000Y-108497440D01*
X124297765Y-108448157D01*
X124335415Y-108423000D01*
X124526250Y-108423000D01*
X124685000Y-108264250D01*
X124685000Y-108123691D01*
X124656626Y-108055189D01*
X124697440Y-107850000D01*
X124697440Y-107250000D01*
X124648157Y-107002235D01*
X124507809Y-106792191D01*
X124297765Y-106651843D01*
X124050000Y-106602560D01*
X124041704Y-106602560D01*
X124038003Y-106583954D01*
X123858977Y-106316023D01*
X123791347Y-106270834D01*
X122934999Y-105414487D01*
X122934999Y-103347440D01*
X124050000Y-103347440D01*
X124297765Y-103298157D01*
X124507809Y-103157809D01*
X124606573Y-103010000D01*
X126901950Y-103010000D01*
X126917191Y-103032809D01*
X126930749Y-103041868D01*
X126946596Y-103121537D01*
X127114572Y-103372929D01*
X127159530Y-103402969D01*
X127189572Y-103447930D01*
X127440964Y-103615905D01*
X127662649Y-103660001D01*
X127662653Y-103660001D01*
X127737500Y-103674889D01*
X127812347Y-103660001D01*
X129525164Y-103660001D01*
X129600011Y-103674889D01*
X129674858Y-103660001D01*
X129674863Y-103660001D01*
X129896548Y-103615905D01*
X130147940Y-103447930D01*
X130190342Y-103384471D01*
X131664802Y-101910012D01*
X134042004Y-101910012D01*
X134019131Y-102025001D01*
X134019131Y-102025001D01*
G37*
X134019131Y-102025001D02*
X134034999Y-102104775D01*
X134035000Y-103790000D01*
X133953711Y-103790000D01*
X133886280Y-103722569D01*
X133505874Y-103565000D01*
X133094126Y-103565000D01*
X132713720Y-103722569D01*
X132422569Y-104013720D01*
X132265000Y-104394126D01*
X132265000Y-104805874D01*
X132422569Y-105186280D01*
X132713720Y-105477431D01*
X133094126Y-105635000D01*
X133505874Y-105635000D01*
X133886280Y-105477431D01*
X133953711Y-105410000D01*
X134970227Y-105410000D01*
X135050000Y-105425868D01*
X135129773Y-105410000D01*
X135129774Y-105410000D01*
X135366046Y-105363003D01*
X135633977Y-105183977D01*
X135679168Y-105116344D01*
X135923072Y-104872440D01*
X136280000Y-104872440D01*
X136527765Y-104823157D01*
X136737809Y-104682809D01*
X136850000Y-104514905D01*
X136962191Y-104682809D01*
X137172235Y-104823157D01*
X137420000Y-104872440D01*
X138480000Y-104872440D01*
X138727765Y-104823157D01*
X138937809Y-104682809D01*
X139078157Y-104472765D01*
X139127440Y-104225000D01*
X139127440Y-103575000D01*
X139078157Y-103327235D01*
X138937809Y-103117191D01*
X138727765Y-102976843D01*
X138592815Y-102950000D01*
X138727765Y-102923157D01*
X138937809Y-102782809D01*
X139078157Y-102572765D01*
X139127440Y-102325000D01*
X139127440Y-101910012D01*
X147290186Y-101910012D01*
X143560199Y-105640000D01*
X128474846Y-105640000D01*
X128399999Y-105625112D01*
X128325152Y-105640000D01*
X128325148Y-105640000D01*
X128103463Y-105684096D01*
X127852071Y-105852071D01*
X127809671Y-105915527D01*
X125690528Y-108034671D01*
X125627072Y-108077071D01*
X125459096Y-108328463D01*
X125443249Y-108408132D01*
X125429691Y-108417191D01*
X125289343Y-108627235D01*
X125256967Y-108790000D01*
X124639250Y-108790000D01*
X124526250Y-108677000D01*
X124335415Y-108677000D01*
X124297765Y-108651843D01*
X124050000Y-108602560D01*
X122500000Y-108602560D01*
X122252235Y-108651843D01*
X122214585Y-108677000D01*
X122023750Y-108677000D01*
X121865000Y-108835750D01*
X121865000Y-108976309D01*
X121893374Y-109044811D01*
X121852560Y-109250000D01*
X121852560Y-109850000D01*
X121892342Y-110050000D01*
X121852560Y-110250000D01*
X121852560Y-110642851D01*
X121650000Y-110602560D01*
X119877000Y-110602560D01*
X119877000Y-107497440D01*
X121650000Y-107497440D01*
X121852560Y-107457149D01*
X121852560Y-107850000D01*
X121893374Y-108055189D01*
X121865000Y-108123691D01*
X121865000Y-108264250D01*
X122023750Y-108423000D01*
X122214585Y-108423000D01*
X122252235Y-108448157D01*
X122500000Y-108497440D01*
X124050000Y-108497440D01*
X124297765Y-108448157D01*
X124335415Y-108423000D01*
X124526250Y-108423000D01*
X124685000Y-108264250D01*
X124685000Y-108123691D01*
X124656626Y-108055189D01*
X124697440Y-107850000D01*
X124697440Y-107250000D01*
X124648157Y-107002235D01*
X124507809Y-106792191D01*
X124297765Y-106651843D01*
X124050000Y-106602560D01*
X124041704Y-106602560D01*
X124038003Y-106583954D01*
X123858977Y-106316023D01*
X123791347Y-106270834D01*
X122934999Y-105414487D01*
X122934999Y-103347440D01*
X124050000Y-103347440D01*
X124297765Y-103298157D01*
X124507809Y-103157809D01*
X124606573Y-103010000D01*
X126901950Y-103010000D01*
X126917191Y-103032809D01*
X126930749Y-103041868D01*
X126946596Y-103121537D01*
X127114572Y-103372929D01*
X127159530Y-103402969D01*
X127189572Y-103447930D01*
X127440964Y-103615905D01*
X127662649Y-103660001D01*
X127662653Y-103660001D01*
X127737500Y-103674889D01*
X127812347Y-103660001D01*
X129525164Y-103660001D01*
X129600011Y-103674889D01*
X129674858Y-103660001D01*
X129674863Y-103660001D01*
X129896548Y-103615905D01*
X130147940Y-103447930D01*
X130190342Y-103384471D01*
X131664802Y-101910012D01*
X134042004Y-101910012D01*
X134019131Y-102025001D01*
G36*
X183373750Y-108773000D02*
X183564585Y-108773000D01*
X183602235Y-108798157D01*
X183850000Y-108847440D01*
X184772000Y-108847440D01*
X184772000Y-108952560D01*
X183850000Y-108952560D01*
X183602235Y-109001843D01*
X183564585Y-109027000D01*
X183373750Y-109027000D01*
X183260750Y-109140000D01*
X181960305Y-109140000D01*
X182172929Y-108997929D01*
X182215330Y-108934471D01*
X182489802Y-108660000D01*
X183260750Y-108660000D01*
X183373750Y-108773000D01*
X183373750Y-108773000D01*
G37*
X183373750Y-108773000D02*
X183564585Y-108773000D01*
X183602235Y-108798157D01*
X183850000Y-108847440D01*
X184772000Y-108847440D01*
X184772000Y-108952560D01*
X183850000Y-108952560D01*
X183602235Y-109001843D01*
X183564585Y-109027000D01*
X183373750Y-109027000D01*
X183260750Y-109140000D01*
X181960305Y-109140000D01*
X182172929Y-108997929D01*
X182215330Y-108934471D01*
X182489802Y-108660000D01*
X183260750Y-108660000D01*
X183373750Y-108773000D01*
G36*
X186050000Y-98397440D02*
X187790013Y-98397440D01*
X187803398Y-101502560D01*
X186050000Y-101502560D01*
X185847440Y-101542851D01*
X185847440Y-101150000D01*
X185806626Y-100944811D01*
X185835000Y-100876309D01*
X185835000Y-100735750D01*
X185676250Y-100577000D01*
X185485415Y-100577000D01*
X185447765Y-100551843D01*
X185200000Y-100502560D01*
X183650000Y-100502560D01*
X183402235Y-100551843D01*
X183364585Y-100577000D01*
X183173750Y-100577000D01*
X183015000Y-100735750D01*
X183015000Y-100876309D01*
X183043374Y-100944811D01*
X183014495Y-101090000D01*
X181597635Y-101090000D01*
X181735429Y-100997929D01*
X181777831Y-100934470D01*
X182502302Y-100210000D01*
X183060750Y-100210000D01*
X183173750Y-100323000D01*
X183364585Y-100323000D01*
X183402235Y-100348157D01*
X183650000Y-100397440D01*
X185200000Y-100397440D01*
X185447765Y-100348157D01*
X185485415Y-100323000D01*
X185676250Y-100323000D01*
X185835000Y-100164250D01*
X185835000Y-100023691D01*
X185806626Y-99955189D01*
X185847440Y-99750000D01*
X185847440Y-99150000D01*
X185807658Y-98950000D01*
X185847440Y-98750000D01*
X185847440Y-98357149D01*
X186050000Y-98397440D01*
X186050000Y-98397440D01*
G37*
X186050000Y-98397440D02*
X187790013Y-98397440D01*
X187803398Y-101502560D01*
X186050000Y-101502560D01*
X185847440Y-101542851D01*
X185847440Y-101150000D01*
X185806626Y-100944811D01*
X185835000Y-100876309D01*
X185835000Y-100735750D01*
X185676250Y-100577000D01*
X185485415Y-100577000D01*
X185447765Y-100551843D01*
X185200000Y-100502560D01*
X183650000Y-100502560D01*
X183402235Y-100551843D01*
X183364585Y-100577000D01*
X183173750Y-100577000D01*
X183015000Y-100735750D01*
X183015000Y-100876309D01*
X183043374Y-100944811D01*
X183014495Y-101090000D01*
X181597635Y-101090000D01*
X181735429Y-100997929D01*
X181777831Y-100934470D01*
X182502302Y-100210000D01*
X183060750Y-100210000D01*
X183173750Y-100323000D01*
X183364585Y-100323000D01*
X183402235Y-100348157D01*
X183650000Y-100397440D01*
X185200000Y-100397440D01*
X185447765Y-100348157D01*
X185485415Y-100323000D01*
X185676250Y-100323000D01*
X185835000Y-100164250D01*
X185835000Y-100023691D01*
X185806626Y-99955189D01*
X185847440Y-99750000D01*
X185847440Y-99150000D01*
X185807658Y-98950000D01*
X185847440Y-98750000D01*
X185847440Y-98357149D01*
X186050000Y-98397440D01*
G36*
X184397860Y-79626916D02*
X184865011Y-80087197D01*
X184802311Y-80081034D01*
X184728345Y-80073734D01*
X184728200Y-80073748D01*
X184728054Y-80073734D01*
X184654129Y-80081030D01*
X184510799Y-80095119D01*
X184510672Y-80095187D01*
X184342403Y-80111793D01*
X184272154Y-80118698D01*
X184272018Y-80118739D01*
X184271879Y-80118753D01*
X184204854Y-80139099D01*
X184042465Y-80188324D01*
X184042332Y-80188311D01*
X183902876Y-80230638D01*
X183833405Y-80251697D01*
X183833290Y-80251759D01*
X183833160Y-80251798D01*
X183766644Y-80287364D01*
X183640601Y-80354704D01*
X183640518Y-80354805D01*
X183491513Y-80434479D01*
X183429152Y-80467789D01*
X183429030Y-80467889D01*
X183428890Y-80467964D01*
X183374536Y-80512586D01*
X183243628Y-80619957D01*
X183243513Y-80619992D01*
X183132222Y-80711333D01*
X183074712Y-80758503D01*
X183074635Y-80758597D01*
X183074541Y-80758674D01*
X183027603Y-80815872D01*
X182935989Y-80927440D01*
X182935954Y-80927555D01*
X182922343Y-80944142D01*
X182922313Y-80944158D01*
X182833263Y-81052694D01*
X182783701Y-81113090D01*
X182783684Y-81113121D01*
X182783659Y-81113152D01*
X182745826Y-81183955D01*
X182680663Y-81305878D01*
X182680660Y-81305910D01*
X182600349Y-81456207D01*
X182567693Y-81517287D01*
X182567668Y-81517369D01*
X182567629Y-81517442D01*
X182548162Y-81581646D01*
X182498001Y-81746941D01*
X182497946Y-81747008D01*
X182456845Y-81882562D01*
X182434552Y-81956024D01*
X182434543Y-81956112D01*
X182434517Y-81956199D01*
X182427104Y-82031558D01*
X182413102Y-82173564D01*
X182413127Y-82173647D01*
X182396370Y-82344003D01*
X182389644Y-82412202D01*
X182389653Y-82412290D01*
X182389644Y-82412378D01*
X182396370Y-82480577D01*
X182413127Y-82650933D01*
X182413102Y-82651016D01*
X182427104Y-82793022D01*
X182434517Y-82868381D01*
X182434543Y-82868468D01*
X182434552Y-82868556D01*
X182456189Y-82939857D01*
X182497946Y-83077572D01*
X182498001Y-83077639D01*
X182547702Y-83241416D01*
X182567629Y-83307138D01*
X182567668Y-83307211D01*
X182567693Y-83307293D01*
X182600349Y-83368373D01*
X182680660Y-83518670D01*
X182680663Y-83518702D01*
X182743715Y-83636674D01*
X182783659Y-83711428D01*
X182783684Y-83711459D01*
X182783701Y-83711490D01*
X182832015Y-83770365D01*
X182922313Y-83880422D01*
X182922343Y-83880438D01*
X182935894Y-83896952D01*
X182935902Y-83896977D01*
X183022672Y-84002699D01*
X183074541Y-84065906D01*
X183074565Y-84065925D01*
X183074584Y-84065949D01*
X183137791Y-84117818D01*
X183243513Y-84204588D01*
X183243538Y-84204596D01*
X183260052Y-84218147D01*
X183260068Y-84218177D01*
X183370102Y-84308456D01*
X183429000Y-84356789D01*
X183429031Y-84356806D01*
X183429062Y-84356831D01*
X183503626Y-84396674D01*
X183621787Y-84459827D01*
X183621819Y-84459830D01*
X183774359Y-84541339D01*
X183833197Y-84572797D01*
X183833274Y-84572820D01*
X183833352Y-84572862D01*
X183901880Y-84593640D01*
X184013656Y-84627560D01*
X183900000Y-84627560D01*
X183800000Y-84647451D01*
X183700000Y-84627560D01*
X183125000Y-84627560D01*
X182877235Y-84676843D01*
X182667191Y-84817191D01*
X182651950Y-84840000D01*
X182245505Y-84840000D01*
X182208157Y-84652235D01*
X182067809Y-84442191D01*
X181857765Y-84301843D01*
X181610000Y-84252560D01*
X180940000Y-84252560D01*
X180692235Y-84301843D01*
X180482191Y-84442191D01*
X180400000Y-84565198D01*
X180317809Y-84442191D01*
X180107765Y-84301843D01*
X179860000Y-84252560D01*
X179190000Y-84252560D01*
X178942235Y-84301843D01*
X178732191Y-84442191D01*
X178591843Y-84652235D01*
X178542560Y-84900000D01*
X178542560Y-85032638D01*
X177010199Y-86565000D01*
X176844126Y-86565000D01*
X176463720Y-86722569D01*
X176172569Y-87013720D01*
X176015000Y-87394126D01*
X176015000Y-87805874D01*
X176091267Y-87990000D01*
X166959940Y-87990000D01*
X166959940Y-87975000D01*
X166910657Y-87727235D01*
X166770309Y-87517191D01*
X166560265Y-87376843D01*
X166312500Y-87327560D01*
X165737500Y-87327560D01*
X165637500Y-87347451D01*
X165537500Y-87327560D01*
X164962500Y-87327560D01*
X164714735Y-87376843D01*
X164504691Y-87517191D01*
X164466734Y-87573997D01*
X164415963Y-87584096D01*
X164415961Y-87584097D01*
X164415962Y-87584097D01*
X164228026Y-87709671D01*
X164228024Y-87709673D01*
X164164571Y-87752071D01*
X164122173Y-87815524D01*
X162535528Y-89402171D01*
X162472072Y-89444571D01*
X162429672Y-89508027D01*
X162429671Y-89508028D01*
X162380262Y-89581974D01*
X162304097Y-89695963D01*
X162261523Y-89909999D01*
X162245112Y-89992500D01*
X162260001Y-90067351D01*
X162260001Y-90609522D01*
X162047235Y-90651843D01*
X161837191Y-90792191D01*
X161696843Y-91002235D01*
X161647560Y-91250000D01*
X161647560Y-91950000D01*
X161696843Y-92197765D01*
X161837191Y-92407809D01*
X162047235Y-92548157D01*
X162295000Y-92597440D01*
X163745000Y-92597440D01*
X163992765Y-92548157D01*
X164202809Y-92407809D01*
X164234754Y-92360000D01*
X166965246Y-92360000D01*
X166997191Y-92407809D01*
X167207235Y-92548157D01*
X167455000Y-92597440D01*
X168905000Y-92597440D01*
X169152765Y-92548157D01*
X169362809Y-92407809D01*
X169394754Y-92360000D01*
X171087369Y-92360000D01*
X171101843Y-92432765D01*
X171242191Y-92642809D01*
X171357216Y-92719667D01*
X171340301Y-92726673D01*
X171161673Y-92905302D01*
X171065000Y-93138691D01*
X171065000Y-93314250D01*
X171223750Y-93473000D01*
X172073000Y-93473000D01*
X172073000Y-93453000D01*
X172327000Y-93453000D01*
X172327000Y-93473000D01*
X173176250Y-93473000D01*
X173335000Y-93314250D01*
X173335000Y-93138691D01*
X173238327Y-92905302D01*
X173059699Y-92726673D01*
X173042784Y-92719667D01*
X173157809Y-92642809D01*
X173298157Y-92432765D01*
X173347440Y-92185000D01*
X173347440Y-91515000D01*
X173298157Y-91267235D01*
X173157809Y-91057191D01*
X172947765Y-90916843D01*
X172700000Y-90867560D01*
X172163405Y-90867560D01*
X172024852Y-90840000D01*
X172024847Y-90840000D01*
X171950000Y-90825112D01*
X171875153Y-90840000D01*
X169394754Y-90840000D01*
X169362809Y-90792191D01*
X169152765Y-90651843D01*
X168905000Y-90602560D01*
X167455000Y-90602560D01*
X167207235Y-90651843D01*
X166997191Y-90792191D01*
X166965246Y-90840000D01*
X164234754Y-90840000D01*
X164202809Y-90792191D01*
X163992765Y-90651843D01*
X163780000Y-90609522D01*
X163780000Y-90307301D01*
X164839357Y-89247946D01*
X164962500Y-89272440D01*
X165537500Y-89272440D01*
X165637500Y-89252549D01*
X165737500Y-89272440D01*
X165910040Y-89272440D01*
X165927071Y-89297929D01*
X166178463Y-89465904D01*
X166400148Y-89510000D01*
X166400152Y-89510000D01*
X166474999Y-89524888D01*
X166549846Y-89510000D01*
X177296289Y-89510000D01*
X177413586Y-89627297D01*
X173245067Y-93795817D01*
X173176250Y-93727000D01*
X172327000Y-93727000D01*
X172327000Y-94411250D01*
X172478317Y-94562567D01*
X171632155Y-95408729D01*
X171405874Y-95315000D01*
X170994126Y-95315000D01*
X170613720Y-95472569D01*
X170322569Y-95763720D01*
X170165000Y-96144126D01*
X170165000Y-96555874D01*
X170322569Y-96936280D01*
X170563432Y-97177143D01*
X170528484Y-97184095D01*
X170426506Y-97252235D01*
X170277093Y-97352070D01*
X170234693Y-97415526D01*
X169560199Y-98090021D01*
X169394126Y-98090021D01*
X169013720Y-98247590D01*
X168722569Y-98538741D01*
X168565000Y-98919147D01*
X168565000Y-99330895D01*
X168722569Y-99711301D01*
X169013720Y-100002452D01*
X169394126Y-100160021D01*
X169805874Y-100160021D01*
X170186280Y-100002452D01*
X170477431Y-99711301D01*
X170635000Y-99330895D01*
X170635000Y-99164822D01*
X171139824Y-98659999D01*
X178940060Y-98659999D01*
X178940060Y-98875000D01*
X178989343Y-99122765D01*
X179115001Y-99310823D01*
X179115001Y-99495843D01*
X178977431Y-99163720D01*
X178686280Y-98872569D01*
X178305874Y-98715000D01*
X177894126Y-98715000D01*
X177513720Y-98872569D01*
X177222569Y-99163720D01*
X177065000Y-99544126D01*
X177065000Y-99955874D01*
X177222569Y-100336280D01*
X177226290Y-100340001D01*
X173581519Y-100340001D01*
X173477431Y-100088710D01*
X173186280Y-99797559D01*
X172805874Y-99639990D01*
X172394126Y-99639990D01*
X172013720Y-99797559D01*
X171722569Y-100088710D01*
X171565000Y-100469116D01*
X171565000Y-100880864D01*
X171651627Y-101090000D01*
X169151618Y-101090000D01*
X169032809Y-100912191D01*
X168822765Y-100771843D01*
X168575000Y-100722560D01*
X167948483Y-100722560D01*
X167847929Y-100572071D01*
X167784473Y-100529671D01*
X161945331Y-94690530D01*
X161902929Y-94627071D01*
X161651537Y-94459096D01*
X161429852Y-94415000D01*
X161429847Y-94415000D01*
X161355000Y-94400112D01*
X161280153Y-94415000D01*
X156604871Y-94415000D01*
X156547765Y-94376843D01*
X156300000Y-94327560D01*
X155200000Y-94327560D01*
X154952235Y-94376843D01*
X154742191Y-94517191D01*
X154601843Y-94727235D01*
X154552560Y-94975000D01*
X154552560Y-95375000D01*
X154577424Y-95500000D01*
X154552560Y-95625000D01*
X154552560Y-96025000D01*
X154577424Y-96150000D01*
X154552560Y-96275000D01*
X154552560Y-96504758D01*
X151933552Y-93885750D01*
X161660000Y-93885750D01*
X161660000Y-94076310D01*
X161756673Y-94309699D01*
X161935302Y-94488327D01*
X162168691Y-94585000D01*
X162734250Y-94585000D01*
X162893000Y-94426250D01*
X162893000Y-93727000D01*
X163147000Y-93727000D01*
X163147000Y-94426250D01*
X163305750Y-94585000D01*
X163871309Y-94585000D01*
X164104698Y-94488327D01*
X164283327Y-94309699D01*
X164380000Y-94076310D01*
X164380000Y-93885750D01*
X166820000Y-93885750D01*
X166820000Y-94076310D01*
X166916673Y-94309699D01*
X167095302Y-94488327D01*
X167328691Y-94585000D01*
X167894250Y-94585000D01*
X168053000Y-94426250D01*
X168053000Y-93727000D01*
X168307000Y-93727000D01*
X168307000Y-94426250D01*
X168465750Y-94585000D01*
X169031309Y-94585000D01*
X169264698Y-94488327D01*
X169443327Y-94309699D01*
X169540000Y-94076310D01*
X169540000Y-93885750D01*
X171065000Y-93885750D01*
X171065000Y-94061309D01*
X171161673Y-94294698D01*
X171340301Y-94473327D01*
X171573690Y-94570000D01*
X171914250Y-94570000D01*
X172073000Y-94411250D01*
X172073000Y-93727000D01*
X171223750Y-93727000D01*
X171065000Y-93885750D01*
X169540000Y-93885750D01*
X169381250Y-93727000D01*
X168307000Y-93727000D01*
X168053000Y-93727000D01*
X166978750Y-93727000D01*
X166820000Y-93885750D01*
X164380000Y-93885750D01*
X164221250Y-93727000D01*
X163147000Y-93727000D01*
X162893000Y-93727000D01*
X161818750Y-93727000D01*
X161660000Y-93885750D01*
X151933552Y-93885750D01*
X151171492Y-93123690D01*
X161660000Y-93123690D01*
X161660000Y-93314250D01*
X161818750Y-93473000D01*
X162893000Y-93473000D01*
X162893000Y-92773750D01*
X163147000Y-92773750D01*
X163147000Y-93473000D01*
X164221250Y-93473000D01*
X164380000Y-93314250D01*
X164380000Y-93123690D01*
X166820000Y-93123690D01*
X166820000Y-93314250D01*
X166978750Y-93473000D01*
X168053000Y-93473000D01*
X168053000Y-92773750D01*
X168307000Y-92773750D01*
X168307000Y-93473000D01*
X169381250Y-93473000D01*
X169540000Y-93314250D01*
X169540000Y-93123690D01*
X169443327Y-92890301D01*
X169264698Y-92711673D01*
X169031309Y-92615000D01*
X168465750Y-92615000D01*
X168307000Y-92773750D01*
X168053000Y-92773750D01*
X167894250Y-92615000D01*
X167328691Y-92615000D01*
X167095302Y-92711673D01*
X166916673Y-92890301D01*
X166820000Y-93123690D01*
X164380000Y-93123690D01*
X164283327Y-92890301D01*
X164104698Y-92711673D01*
X163871309Y-92615000D01*
X163305750Y-92615000D01*
X163147000Y-92773750D01*
X162893000Y-92773750D01*
X162734250Y-92615000D01*
X162168691Y-92615000D01*
X161935302Y-92711673D01*
X161756673Y-92890301D01*
X161660000Y-93123690D01*
X151171492Y-93123690D01*
X144646536Y-86598735D01*
X144685000Y-86505874D01*
X144685000Y-86473646D01*
X144774268Y-86562914D01*
X145154674Y-86720483D01*
X145566422Y-86720483D01*
X145946828Y-86562914D01*
X146237979Y-86271763D01*
X146395548Y-85891357D01*
X146395548Y-85479609D01*
X146237979Y-85099203D01*
X145946828Y-84808052D01*
X145566422Y-84650483D01*
X145389580Y-84650483D01*
X145234102Y-84546596D01*
X145012417Y-84502500D01*
X145012412Y-84502500D01*
X144937565Y-84487612D01*
X144862718Y-84502500D01*
X143010823Y-84502500D01*
X142976003Y-84479234D01*
X142965904Y-84428463D01*
X142797929Y-84177071D01*
X142734470Y-84134669D01*
X142574526Y-83974725D01*
X142673000Y-83876250D01*
X142673000Y-83685415D01*
X142698157Y-83647765D01*
X142747440Y-83400000D01*
X142747440Y-82478000D01*
X142852560Y-82478000D01*
X142852560Y-83400000D01*
X142901843Y-83647765D01*
X142927000Y-83685415D01*
X142927000Y-83876250D01*
X143085750Y-84035000D01*
X143226309Y-84035000D01*
X143294811Y-84006626D01*
X143500000Y-84047440D01*
X144100000Y-84047440D01*
X144347765Y-83998157D01*
X144557809Y-83857809D01*
X144698157Y-83647765D01*
X144740478Y-83435000D01*
X147505227Y-83435000D01*
X147585000Y-83450868D01*
X147664773Y-83435000D01*
X147664774Y-83435000D01*
X147901046Y-83388003D01*
X148168977Y-83208977D01*
X148214168Y-83141344D01*
X149680366Y-81675146D01*
X149702191Y-81707809D01*
X149912235Y-81848157D01*
X150160000Y-81897440D01*
X151860000Y-81897440D01*
X152107765Y-81848157D01*
X152317809Y-81707809D01*
X152458157Y-81497765D01*
X152467184Y-81452381D01*
X152479375Y-81470625D01*
X152970582Y-81798839D01*
X153403744Y-81885000D01*
X153530198Y-81885000D01*
X150485528Y-84929671D01*
X150422072Y-84972071D01*
X150379672Y-85035527D01*
X150379671Y-85035528D01*
X150301952Y-85151843D01*
X150254097Y-85223463D01*
X150237064Y-85309096D01*
X150195112Y-85520000D01*
X150210001Y-85594852D01*
X150210001Y-86602560D01*
X150120000Y-86602560D01*
X149872235Y-86651843D01*
X149662191Y-86792191D01*
X149521843Y-87002235D01*
X149472560Y-87250000D01*
X149472560Y-88950000D01*
X149521843Y-89197765D01*
X149662191Y-89407809D01*
X149872235Y-89548157D01*
X150120000Y-89597440D01*
X151820000Y-89597440D01*
X152067765Y-89548157D01*
X152277809Y-89407809D01*
X152418157Y-89197765D01*
X152438739Y-89094292D01*
X152743076Y-89371645D01*
X153153110Y-89541476D01*
X153383000Y-89420155D01*
X153383000Y-88227000D01*
X153363000Y-88227000D01*
X153363000Y-87973000D01*
X153383000Y-87973000D01*
X153383000Y-86779845D01*
X153153110Y-86658524D01*
X152743076Y-86828355D01*
X152438739Y-87105708D01*
X152418157Y-87002235D01*
X152277809Y-86792191D01*
X152067765Y-86651843D01*
X151820000Y-86602560D01*
X151730000Y-86602560D01*
X151730000Y-85834801D01*
X155723593Y-81841209D01*
X155943744Y-81885000D01*
X156236256Y-81885000D01*
X156669418Y-81798839D01*
X157160625Y-81470625D01*
X157360000Y-81172239D01*
X157559375Y-81470625D01*
X158050582Y-81798839D01*
X158483744Y-81885000D01*
X158776256Y-81885000D01*
X159209418Y-81798839D01*
X159700625Y-81470625D01*
X159900000Y-81172239D01*
X160099375Y-81470625D01*
X160590582Y-81798839D01*
X161023744Y-81885000D01*
X161190198Y-81885000D01*
X156416408Y-86658791D01*
X156196256Y-86615000D01*
X155903744Y-86615000D01*
X155470582Y-86701161D01*
X154979375Y-87029375D01*
X154766157Y-87348478D01*
X154705183Y-87218642D01*
X154276924Y-86828355D01*
X153866890Y-86658524D01*
X153637000Y-86779845D01*
X153637000Y-87973000D01*
X153657000Y-87973000D01*
X153657000Y-88227000D01*
X153637000Y-88227000D01*
X153637000Y-89420155D01*
X153866890Y-89541476D01*
X154276924Y-89371645D01*
X154705183Y-88981358D01*
X154766157Y-88851522D01*
X154979375Y-89170625D01*
X155470582Y-89498839D01*
X155903744Y-89585000D01*
X156196256Y-89585000D01*
X156629418Y-89498839D01*
X157120625Y-89170625D01*
X157448839Y-88679418D01*
X157564092Y-88100000D01*
X157491209Y-87733592D01*
X163376956Y-81847846D01*
X163563744Y-81885000D01*
X163856256Y-81885000D01*
X164289418Y-81798839D01*
X164780625Y-81470625D01*
X164980000Y-81172239D01*
X165179375Y-81470625D01*
X165670582Y-81798839D01*
X166103744Y-81885000D01*
X166396256Y-81885000D01*
X166829418Y-81798839D01*
X167320625Y-81470625D01*
X167520000Y-81172239D01*
X167719375Y-81470625D01*
X168210582Y-81798839D01*
X168643744Y-81885000D01*
X168936256Y-81885000D01*
X169369418Y-81798839D01*
X169860625Y-81470625D01*
X170060000Y-81172239D01*
X170259375Y-81470625D01*
X170750582Y-81798839D01*
X171183744Y-81885000D01*
X171476256Y-81885000D01*
X171909418Y-81798839D01*
X172400625Y-81470625D01*
X172600000Y-81172239D01*
X172799375Y-81470625D01*
X173290582Y-81798839D01*
X173723744Y-81885000D01*
X174016256Y-81885000D01*
X174449418Y-81798839D01*
X174940625Y-81470625D01*
X175140000Y-81172239D01*
X175339375Y-81470625D01*
X175830582Y-81798839D01*
X176263744Y-81885000D01*
X176556256Y-81885000D01*
X176989418Y-81798839D01*
X177480625Y-81470625D01*
X177693843Y-81151522D01*
X177754817Y-81281358D01*
X178183076Y-81671645D01*
X178593110Y-81841476D01*
X178823000Y-81720155D01*
X178823000Y-80527000D01*
X179077000Y-80527000D01*
X179077000Y-81720155D01*
X179306890Y-81841476D01*
X179716924Y-81671645D01*
X180145183Y-81281358D01*
X180391486Y-80756892D01*
X180270819Y-80527000D01*
X179077000Y-80527000D01*
X178823000Y-80527000D01*
X178803000Y-80527000D01*
X178803000Y-80273000D01*
X178823000Y-80273000D01*
X178823000Y-80253000D01*
X179077000Y-80253000D01*
X179077000Y-80273000D01*
X180270819Y-80273000D01*
X180391486Y-80043108D01*
X180192825Y-79620090D01*
X184397860Y-79626916D01*
X184397860Y-79626916D01*
G37*
X184397860Y-79626916D02*
X184865011Y-80087197D01*
X184802311Y-80081034D01*
X184728345Y-80073734D01*
X184728200Y-80073748D01*
X184728054Y-80073734D01*
X184654129Y-80081030D01*
X184510799Y-80095119D01*
X184510672Y-80095187D01*
X184342403Y-80111793D01*
X184272154Y-80118698D01*
X184272018Y-80118739D01*
X184271879Y-80118753D01*
X184204854Y-80139099D01*
X184042465Y-80188324D01*
X184042332Y-80188311D01*
X183902876Y-80230638D01*
X183833405Y-80251697D01*
X183833290Y-80251759D01*
X183833160Y-80251798D01*
X183766644Y-80287364D01*
X183640601Y-80354704D01*
X183640518Y-80354805D01*
X183491513Y-80434479D01*
X183429152Y-80467789D01*
X183429030Y-80467889D01*
X183428890Y-80467964D01*
X183374536Y-80512586D01*
X183243628Y-80619957D01*
X183243513Y-80619992D01*
X183132222Y-80711333D01*
X183074712Y-80758503D01*
X183074635Y-80758597D01*
X183074541Y-80758674D01*
X183027603Y-80815872D01*
X182935989Y-80927440D01*
X182935954Y-80927555D01*
X182922343Y-80944142D01*
X182922313Y-80944158D01*
X182833263Y-81052694D01*
X182783701Y-81113090D01*
X182783684Y-81113121D01*
X182783659Y-81113152D01*
X182745826Y-81183955D01*
X182680663Y-81305878D01*
X182680660Y-81305910D01*
X182600349Y-81456207D01*
X182567693Y-81517287D01*
X182567668Y-81517369D01*
X182567629Y-81517442D01*
X182548162Y-81581646D01*
X182498001Y-81746941D01*
X182497946Y-81747008D01*
X182456845Y-81882562D01*
X182434552Y-81956024D01*
X182434543Y-81956112D01*
X182434517Y-81956199D01*
X182427104Y-82031558D01*
X182413102Y-82173564D01*
X182413127Y-82173647D01*
X182396370Y-82344003D01*
X182389644Y-82412202D01*
X182389653Y-82412290D01*
X182389644Y-82412378D01*
X182396370Y-82480577D01*
X182413127Y-82650933D01*
X182413102Y-82651016D01*
X182427104Y-82793022D01*
X182434517Y-82868381D01*
X182434543Y-82868468D01*
X182434552Y-82868556D01*
X182456189Y-82939857D01*
X182497946Y-83077572D01*
X182498001Y-83077639D01*
X182547702Y-83241416D01*
X182567629Y-83307138D01*
X182567668Y-83307211D01*
X182567693Y-83307293D01*
X182600349Y-83368373D01*
X182680660Y-83518670D01*
X182680663Y-83518702D01*
X182743715Y-83636674D01*
X182783659Y-83711428D01*
X182783684Y-83711459D01*
X182783701Y-83711490D01*
X182832015Y-83770365D01*
X182922313Y-83880422D01*
X182922343Y-83880438D01*
X182935894Y-83896952D01*
X182935902Y-83896977D01*
X183022672Y-84002699D01*
X183074541Y-84065906D01*
X183074565Y-84065925D01*
X183074584Y-84065949D01*
X183137791Y-84117818D01*
X183243513Y-84204588D01*
X183243538Y-84204596D01*
X183260052Y-84218147D01*
X183260068Y-84218177D01*
X183370102Y-84308456D01*
X183429000Y-84356789D01*
X183429031Y-84356806D01*
X183429062Y-84356831D01*
X183503626Y-84396674D01*
X183621787Y-84459827D01*
X183621819Y-84459830D01*
X183774359Y-84541339D01*
X183833197Y-84572797D01*
X183833274Y-84572820D01*
X183833352Y-84572862D01*
X183901880Y-84593640D01*
X184013656Y-84627560D01*
X183900000Y-84627560D01*
X183800000Y-84647451D01*
X183700000Y-84627560D01*
X183125000Y-84627560D01*
X182877235Y-84676843D01*
X182667191Y-84817191D01*
X182651950Y-84840000D01*
X182245505Y-84840000D01*
X182208157Y-84652235D01*
X182067809Y-84442191D01*
X181857765Y-84301843D01*
X181610000Y-84252560D01*
X180940000Y-84252560D01*
X180692235Y-84301843D01*
X180482191Y-84442191D01*
X180400000Y-84565198D01*
X180317809Y-84442191D01*
X180107765Y-84301843D01*
X179860000Y-84252560D01*
X179190000Y-84252560D01*
X178942235Y-84301843D01*
X178732191Y-84442191D01*
X178591843Y-84652235D01*
X178542560Y-84900000D01*
X178542560Y-85032638D01*
X177010199Y-86565000D01*
X176844126Y-86565000D01*
X176463720Y-86722569D01*
X176172569Y-87013720D01*
X176015000Y-87394126D01*
X176015000Y-87805874D01*
X176091267Y-87990000D01*
X166959940Y-87990000D01*
X166959940Y-87975000D01*
X166910657Y-87727235D01*
X166770309Y-87517191D01*
X166560265Y-87376843D01*
X166312500Y-87327560D01*
X165737500Y-87327560D01*
X165637500Y-87347451D01*
X165537500Y-87327560D01*
X164962500Y-87327560D01*
X164714735Y-87376843D01*
X164504691Y-87517191D01*
X164466734Y-87573997D01*
X164415963Y-87584096D01*
X164415961Y-87584097D01*
X164415962Y-87584097D01*
X164228026Y-87709671D01*
X164228024Y-87709673D01*
X164164571Y-87752071D01*
X164122173Y-87815524D01*
X162535528Y-89402171D01*
X162472072Y-89444571D01*
X162429672Y-89508027D01*
X162429671Y-89508028D01*
X162380262Y-89581974D01*
X162304097Y-89695963D01*
X162261523Y-89909999D01*
X162245112Y-89992500D01*
X162260001Y-90067351D01*
X162260001Y-90609522D01*
X162047235Y-90651843D01*
X161837191Y-90792191D01*
X161696843Y-91002235D01*
X161647560Y-91250000D01*
X161647560Y-91950000D01*
X161696843Y-92197765D01*
X161837191Y-92407809D01*
X162047235Y-92548157D01*
X162295000Y-92597440D01*
X163745000Y-92597440D01*
X163992765Y-92548157D01*
X164202809Y-92407809D01*
X164234754Y-92360000D01*
X166965246Y-92360000D01*
X166997191Y-92407809D01*
X167207235Y-92548157D01*
X167455000Y-92597440D01*
X168905000Y-92597440D01*
X169152765Y-92548157D01*
X169362809Y-92407809D01*
X169394754Y-92360000D01*
X171087369Y-92360000D01*
X171101843Y-92432765D01*
X171242191Y-92642809D01*
X171357216Y-92719667D01*
X171340301Y-92726673D01*
X171161673Y-92905302D01*
X171065000Y-93138691D01*
X171065000Y-93314250D01*
X171223750Y-93473000D01*
X172073000Y-93473000D01*
X172073000Y-93453000D01*
X172327000Y-93453000D01*
X172327000Y-93473000D01*
X173176250Y-93473000D01*
X173335000Y-93314250D01*
X173335000Y-93138691D01*
X173238327Y-92905302D01*
X173059699Y-92726673D01*
X173042784Y-92719667D01*
X173157809Y-92642809D01*
X173298157Y-92432765D01*
X173347440Y-92185000D01*
X173347440Y-91515000D01*
X173298157Y-91267235D01*
X173157809Y-91057191D01*
X172947765Y-90916843D01*
X172700000Y-90867560D01*
X172163405Y-90867560D01*
X172024852Y-90840000D01*
X172024847Y-90840000D01*
X171950000Y-90825112D01*
X171875153Y-90840000D01*
X169394754Y-90840000D01*
X169362809Y-90792191D01*
X169152765Y-90651843D01*
X168905000Y-90602560D01*
X167455000Y-90602560D01*
X167207235Y-90651843D01*
X166997191Y-90792191D01*
X166965246Y-90840000D01*
X164234754Y-90840000D01*
X164202809Y-90792191D01*
X163992765Y-90651843D01*
X163780000Y-90609522D01*
X163780000Y-90307301D01*
X164839357Y-89247946D01*
X164962500Y-89272440D01*
X165537500Y-89272440D01*
X165637500Y-89252549D01*
X165737500Y-89272440D01*
X165910040Y-89272440D01*
X165927071Y-89297929D01*
X166178463Y-89465904D01*
X166400148Y-89510000D01*
X166400152Y-89510000D01*
X166474999Y-89524888D01*
X166549846Y-89510000D01*
X177296289Y-89510000D01*
X177413586Y-89627297D01*
X173245067Y-93795817D01*
X173176250Y-93727000D01*
X172327000Y-93727000D01*
X172327000Y-94411250D01*
X172478317Y-94562567D01*
X171632155Y-95408729D01*
X171405874Y-95315000D01*
X170994126Y-95315000D01*
X170613720Y-95472569D01*
X170322569Y-95763720D01*
X170165000Y-96144126D01*
X170165000Y-96555874D01*
X170322569Y-96936280D01*
X170563432Y-97177143D01*
X170528484Y-97184095D01*
X170426506Y-97252235D01*
X170277093Y-97352070D01*
X170234693Y-97415526D01*
X169560199Y-98090021D01*
X169394126Y-98090021D01*
X169013720Y-98247590D01*
X168722569Y-98538741D01*
X168565000Y-98919147D01*
X168565000Y-99330895D01*
X168722569Y-99711301D01*
X169013720Y-100002452D01*
X169394126Y-100160021D01*
X169805874Y-100160021D01*
X170186280Y-100002452D01*
X170477431Y-99711301D01*
X170635000Y-99330895D01*
X170635000Y-99164822D01*
X171139824Y-98659999D01*
X178940060Y-98659999D01*
X178940060Y-98875000D01*
X178989343Y-99122765D01*
X179115001Y-99310823D01*
X179115001Y-99495843D01*
X178977431Y-99163720D01*
X178686280Y-98872569D01*
X178305874Y-98715000D01*
X177894126Y-98715000D01*
X177513720Y-98872569D01*
X177222569Y-99163720D01*
X177065000Y-99544126D01*
X177065000Y-99955874D01*
X177222569Y-100336280D01*
X177226290Y-100340001D01*
X173581519Y-100340001D01*
X173477431Y-100088710D01*
X173186280Y-99797559D01*
X172805874Y-99639990D01*
X172394126Y-99639990D01*
X172013720Y-99797559D01*
X171722569Y-100088710D01*
X171565000Y-100469116D01*
X171565000Y-100880864D01*
X171651627Y-101090000D01*
X169151618Y-101090000D01*
X169032809Y-100912191D01*
X168822765Y-100771843D01*
X168575000Y-100722560D01*
X167948483Y-100722560D01*
X167847929Y-100572071D01*
X167784473Y-100529671D01*
X161945331Y-94690530D01*
X161902929Y-94627071D01*
X161651537Y-94459096D01*
X161429852Y-94415000D01*
X161429847Y-94415000D01*
X161355000Y-94400112D01*
X161280153Y-94415000D01*
X156604871Y-94415000D01*
X156547765Y-94376843D01*
X156300000Y-94327560D01*
X155200000Y-94327560D01*
X154952235Y-94376843D01*
X154742191Y-94517191D01*
X154601843Y-94727235D01*
X154552560Y-94975000D01*
X154552560Y-95375000D01*
X154577424Y-95500000D01*
X154552560Y-95625000D01*
X154552560Y-96025000D01*
X154577424Y-96150000D01*
X154552560Y-96275000D01*
X154552560Y-96504758D01*
X151933552Y-93885750D01*
X161660000Y-93885750D01*
X161660000Y-94076310D01*
X161756673Y-94309699D01*
X161935302Y-94488327D01*
X162168691Y-94585000D01*
X162734250Y-94585000D01*
X162893000Y-94426250D01*
X162893000Y-93727000D01*
X163147000Y-93727000D01*
X163147000Y-94426250D01*
X163305750Y-94585000D01*
X163871309Y-94585000D01*
X164104698Y-94488327D01*
X164283327Y-94309699D01*
X164380000Y-94076310D01*
X164380000Y-93885750D01*
X166820000Y-93885750D01*
X166820000Y-94076310D01*
X166916673Y-94309699D01*
X167095302Y-94488327D01*
X167328691Y-94585000D01*
X167894250Y-94585000D01*
X168053000Y-94426250D01*
X168053000Y-93727000D01*
X168307000Y-93727000D01*
X168307000Y-94426250D01*
X168465750Y-94585000D01*
X169031309Y-94585000D01*
X169264698Y-94488327D01*
X169443327Y-94309699D01*
X169540000Y-94076310D01*
X169540000Y-93885750D01*
X171065000Y-93885750D01*
X171065000Y-94061309D01*
X171161673Y-94294698D01*
X171340301Y-94473327D01*
X171573690Y-94570000D01*
X171914250Y-94570000D01*
X172073000Y-94411250D01*
X172073000Y-93727000D01*
X171223750Y-93727000D01*
X171065000Y-93885750D01*
X169540000Y-93885750D01*
X169381250Y-93727000D01*
X168307000Y-93727000D01*
X168053000Y-93727000D01*
X166978750Y-93727000D01*
X166820000Y-93885750D01*
X164380000Y-93885750D01*
X164221250Y-93727000D01*
X163147000Y-93727000D01*
X162893000Y-93727000D01*
X161818750Y-93727000D01*
X161660000Y-93885750D01*
X151933552Y-93885750D01*
X151171492Y-93123690D01*
X161660000Y-93123690D01*
X161660000Y-93314250D01*
X161818750Y-93473000D01*
X162893000Y-93473000D01*
X162893000Y-92773750D01*
X163147000Y-92773750D01*
X163147000Y-93473000D01*
X164221250Y-93473000D01*
X164380000Y-93314250D01*
X164380000Y-93123690D01*
X166820000Y-93123690D01*
X166820000Y-93314250D01*
X166978750Y-93473000D01*
X168053000Y-93473000D01*
X168053000Y-92773750D01*
X168307000Y-92773750D01*
X168307000Y-93473000D01*
X169381250Y-93473000D01*
X169540000Y-93314250D01*
X169540000Y-93123690D01*
X169443327Y-92890301D01*
X169264698Y-92711673D01*
X169031309Y-92615000D01*
X168465750Y-92615000D01*
X168307000Y-92773750D01*
X168053000Y-92773750D01*
X167894250Y-92615000D01*
X167328691Y-92615000D01*
X167095302Y-92711673D01*
X166916673Y-92890301D01*
X166820000Y-93123690D01*
X164380000Y-93123690D01*
X164283327Y-92890301D01*
X164104698Y-92711673D01*
X163871309Y-92615000D01*
X163305750Y-92615000D01*
X163147000Y-92773750D01*
X162893000Y-92773750D01*
X162734250Y-92615000D01*
X162168691Y-92615000D01*
X161935302Y-92711673D01*
X161756673Y-92890301D01*
X161660000Y-93123690D01*
X151171492Y-93123690D01*
X144646536Y-86598735D01*
X144685000Y-86505874D01*
X144685000Y-86473646D01*
X144774268Y-86562914D01*
X145154674Y-86720483D01*
X145566422Y-86720483D01*
X145946828Y-86562914D01*
X146237979Y-86271763D01*
X146395548Y-85891357D01*
X146395548Y-85479609D01*
X146237979Y-85099203D01*
X145946828Y-84808052D01*
X145566422Y-84650483D01*
X145389580Y-84650483D01*
X145234102Y-84546596D01*
X145012417Y-84502500D01*
X145012412Y-84502500D01*
X144937565Y-84487612D01*
X144862718Y-84502500D01*
X143010823Y-84502500D01*
X142976003Y-84479234D01*
X142965904Y-84428463D01*
X142797929Y-84177071D01*
X142734470Y-84134669D01*
X142574526Y-83974725D01*
X142673000Y-83876250D01*
X142673000Y-83685415D01*
X142698157Y-83647765D01*
X142747440Y-83400000D01*
X142747440Y-82478000D01*
X142852560Y-82478000D01*
X142852560Y-83400000D01*
X142901843Y-83647765D01*
X142927000Y-83685415D01*
X142927000Y-83876250D01*
X143085750Y-84035000D01*
X143226309Y-84035000D01*
X143294811Y-84006626D01*
X143500000Y-84047440D01*
X144100000Y-84047440D01*
X144347765Y-83998157D01*
X144557809Y-83857809D01*
X144698157Y-83647765D01*
X144740478Y-83435000D01*
X147505227Y-83435000D01*
X147585000Y-83450868D01*
X147664773Y-83435000D01*
X147664774Y-83435000D01*
X147901046Y-83388003D01*
X148168977Y-83208977D01*
X148214168Y-83141344D01*
X149680366Y-81675146D01*
X149702191Y-81707809D01*
X149912235Y-81848157D01*
X150160000Y-81897440D01*
X151860000Y-81897440D01*
X152107765Y-81848157D01*
X152317809Y-81707809D01*
X152458157Y-81497765D01*
X152467184Y-81452381D01*
X152479375Y-81470625D01*
X152970582Y-81798839D01*
X153403744Y-81885000D01*
X153530198Y-81885000D01*
X150485528Y-84929671D01*
X150422072Y-84972071D01*
X150379672Y-85035527D01*
X150379671Y-85035528D01*
X150301952Y-85151843D01*
X150254097Y-85223463D01*
X150237064Y-85309096D01*
X150195112Y-85520000D01*
X150210001Y-85594852D01*
X150210001Y-86602560D01*
X150120000Y-86602560D01*
X149872235Y-86651843D01*
X149662191Y-86792191D01*
X149521843Y-87002235D01*
X149472560Y-87250000D01*
X149472560Y-88950000D01*
X149521843Y-89197765D01*
X149662191Y-89407809D01*
X149872235Y-89548157D01*
X150120000Y-89597440D01*
X151820000Y-89597440D01*
X152067765Y-89548157D01*
X152277809Y-89407809D01*
X152418157Y-89197765D01*
X152438739Y-89094292D01*
X152743076Y-89371645D01*
X153153110Y-89541476D01*
X153383000Y-89420155D01*
X153383000Y-88227000D01*
X153363000Y-88227000D01*
X153363000Y-87973000D01*
X153383000Y-87973000D01*
X153383000Y-86779845D01*
X153153110Y-86658524D01*
X152743076Y-86828355D01*
X152438739Y-87105708D01*
X152418157Y-87002235D01*
X152277809Y-86792191D01*
X152067765Y-86651843D01*
X151820000Y-86602560D01*
X151730000Y-86602560D01*
X151730000Y-85834801D01*
X155723593Y-81841209D01*
X155943744Y-81885000D01*
X156236256Y-81885000D01*
X156669418Y-81798839D01*
X157160625Y-81470625D01*
X157360000Y-81172239D01*
X157559375Y-81470625D01*
X158050582Y-81798839D01*
X158483744Y-81885000D01*
X158776256Y-81885000D01*
X159209418Y-81798839D01*
X159700625Y-81470625D01*
X159900000Y-81172239D01*
X160099375Y-81470625D01*
X160590582Y-81798839D01*
X161023744Y-81885000D01*
X161190198Y-81885000D01*
X156416408Y-86658791D01*
X156196256Y-86615000D01*
X155903744Y-86615000D01*
X155470582Y-86701161D01*
X154979375Y-87029375D01*
X154766157Y-87348478D01*
X154705183Y-87218642D01*
X154276924Y-86828355D01*
X153866890Y-86658524D01*
X153637000Y-86779845D01*
X153637000Y-87973000D01*
X153657000Y-87973000D01*
X153657000Y-88227000D01*
X153637000Y-88227000D01*
X153637000Y-89420155D01*
X153866890Y-89541476D01*
X154276924Y-89371645D01*
X154705183Y-88981358D01*
X154766157Y-88851522D01*
X154979375Y-89170625D01*
X155470582Y-89498839D01*
X155903744Y-89585000D01*
X156196256Y-89585000D01*
X156629418Y-89498839D01*
X157120625Y-89170625D01*
X157448839Y-88679418D01*
X157564092Y-88100000D01*
X157491209Y-87733592D01*
X163376956Y-81847846D01*
X163563744Y-81885000D01*
X163856256Y-81885000D01*
X164289418Y-81798839D01*
X164780625Y-81470625D01*
X164980000Y-81172239D01*
X165179375Y-81470625D01*
X165670582Y-81798839D01*
X166103744Y-81885000D01*
X166396256Y-81885000D01*
X166829418Y-81798839D01*
X167320625Y-81470625D01*
X167520000Y-81172239D01*
X167719375Y-81470625D01*
X168210582Y-81798839D01*
X168643744Y-81885000D01*
X168936256Y-81885000D01*
X169369418Y-81798839D01*
X169860625Y-81470625D01*
X170060000Y-81172239D01*
X170259375Y-81470625D01*
X170750582Y-81798839D01*
X171183744Y-81885000D01*
X171476256Y-81885000D01*
X171909418Y-81798839D01*
X172400625Y-81470625D01*
X172600000Y-81172239D01*
X172799375Y-81470625D01*
X173290582Y-81798839D01*
X173723744Y-81885000D01*
X174016256Y-81885000D01*
X174449418Y-81798839D01*
X174940625Y-81470625D01*
X175140000Y-81172239D01*
X175339375Y-81470625D01*
X175830582Y-81798839D01*
X176263744Y-81885000D01*
X176556256Y-81885000D01*
X176989418Y-81798839D01*
X177480625Y-81470625D01*
X177693843Y-81151522D01*
X177754817Y-81281358D01*
X178183076Y-81671645D01*
X178593110Y-81841476D01*
X178823000Y-81720155D01*
X178823000Y-80527000D01*
X179077000Y-80527000D01*
X179077000Y-81720155D01*
X179306890Y-81841476D01*
X179716924Y-81671645D01*
X180145183Y-81281358D01*
X180391486Y-80756892D01*
X180270819Y-80527000D01*
X179077000Y-80527000D01*
X178823000Y-80527000D01*
X178803000Y-80527000D01*
X178803000Y-80273000D01*
X178823000Y-80273000D01*
X178823000Y-80253000D01*
X179077000Y-80253000D01*
X179077000Y-80273000D01*
X180270819Y-80273000D01*
X180391486Y-80043108D01*
X180192825Y-79620090D01*
X184397860Y-79626916D01*
G36*
X123127071Y-94997929D02*
X123378463Y-95165904D01*
X123600148Y-95210000D01*
X123600152Y-95210000D01*
X123674999Y-95224888D01*
X123749846Y-95210000D01*
X125864450Y-95210000D01*
X125879691Y-95232809D01*
X125893249Y-95241868D01*
X125909096Y-95321536D01*
X126077071Y-95572929D01*
X126122031Y-95602970D01*
X126152072Y-95647930D01*
X126403464Y-95815905D01*
X126625149Y-95860001D01*
X126625153Y-95860001D01*
X126700000Y-95874889D01*
X126774847Y-95860001D01*
X135430202Y-95860001D01*
X136940213Y-97370012D01*
X136832191Y-97442191D01*
X136755333Y-97557216D01*
X136748327Y-97540301D01*
X136569698Y-97361673D01*
X136336309Y-97265000D01*
X136160750Y-97265000D01*
X136002000Y-97423750D01*
X136002000Y-98273000D01*
X136022000Y-98273000D01*
X136022000Y-98428733D01*
X135987072Y-98452071D01*
X135978432Y-98465001D01*
X135771568Y-98465001D01*
X135762928Y-98452071D01*
X135728000Y-98428733D01*
X135728000Y-98273000D01*
X135748000Y-98273000D01*
X135748000Y-97423750D01*
X135589250Y-97265000D01*
X135413691Y-97265000D01*
X135180302Y-97361673D01*
X135001673Y-97540301D01*
X134905000Y-97773690D01*
X134905000Y-98114250D01*
X135030750Y-98240000D01*
X128162346Y-98240000D01*
X128087499Y-98225112D01*
X128012652Y-98240000D01*
X128012648Y-98240000D01*
X127790963Y-98284096D01*
X127539571Y-98452071D01*
X127497171Y-98515528D01*
X127128027Y-98884671D01*
X127064572Y-98927071D01*
X126896596Y-99178463D01*
X126880749Y-99258132D01*
X126867191Y-99267191D01*
X126829234Y-99323997D01*
X126778463Y-99334096D01*
X126742974Y-99357809D01*
X126590526Y-99459671D01*
X126590524Y-99459673D01*
X126527071Y-99502071D01*
X126484673Y-99565524D01*
X125410199Y-100640000D01*
X124639250Y-100640000D01*
X124526250Y-100527000D01*
X124335415Y-100527000D01*
X124297765Y-100501843D01*
X124050000Y-100452560D01*
X123128000Y-100452560D01*
X123128000Y-100347440D01*
X124050000Y-100347440D01*
X124297765Y-100298157D01*
X124335415Y-100273000D01*
X124526250Y-100273000D01*
X124685000Y-100114250D01*
X124685000Y-99973691D01*
X124656626Y-99905189D01*
X124697440Y-99700000D01*
X124697440Y-99100000D01*
X124648157Y-98852235D01*
X124507809Y-98642191D01*
X124297765Y-98501843D01*
X124050000Y-98452560D01*
X124041704Y-98452560D01*
X124038003Y-98433953D01*
X123930457Y-98273000D01*
X123858977Y-98166023D01*
X123791347Y-98120834D01*
X122884999Y-97214487D01*
X122884999Y-94947440D01*
X123093335Y-94947440D01*
X123127071Y-94997929D01*
X123127071Y-94997929D01*
G37*
X123127071Y-94997929D02*
X123378463Y-95165904D01*
X123600148Y-95210000D01*
X123600152Y-95210000D01*
X123674999Y-95224888D01*
X123749846Y-95210000D01*
X125864450Y-95210000D01*
X125879691Y-95232809D01*
X125893249Y-95241868D01*
X125909096Y-95321536D01*
X126077071Y-95572929D01*
X126122031Y-95602970D01*
X126152072Y-95647930D01*
X126403464Y-95815905D01*
X126625149Y-95860001D01*
X126625153Y-95860001D01*
X126700000Y-95874889D01*
X126774847Y-95860001D01*
X135430202Y-95860001D01*
X136940213Y-97370012D01*
X136832191Y-97442191D01*
X136755333Y-97557216D01*
X136748327Y-97540301D01*
X136569698Y-97361673D01*
X136336309Y-97265000D01*
X136160750Y-97265000D01*
X136002000Y-97423750D01*
X136002000Y-98273000D01*
X136022000Y-98273000D01*
X136022000Y-98428733D01*
X135987072Y-98452071D01*
X135978432Y-98465001D01*
X135771568Y-98465001D01*
X135762928Y-98452071D01*
X135728000Y-98428733D01*
X135728000Y-98273000D01*
X135748000Y-98273000D01*
X135748000Y-97423750D01*
X135589250Y-97265000D01*
X135413691Y-97265000D01*
X135180302Y-97361673D01*
X135001673Y-97540301D01*
X134905000Y-97773690D01*
X134905000Y-98114250D01*
X135030750Y-98240000D01*
X128162346Y-98240000D01*
X128087499Y-98225112D01*
X128012652Y-98240000D01*
X128012648Y-98240000D01*
X127790963Y-98284096D01*
X127539571Y-98452071D01*
X127497171Y-98515528D01*
X127128027Y-98884671D01*
X127064572Y-98927071D01*
X126896596Y-99178463D01*
X126880749Y-99258132D01*
X126867191Y-99267191D01*
X126829234Y-99323997D01*
X126778463Y-99334096D01*
X126742974Y-99357809D01*
X126590526Y-99459671D01*
X126590524Y-99459673D01*
X126527071Y-99502071D01*
X126484673Y-99565524D01*
X125410199Y-100640000D01*
X124639250Y-100640000D01*
X124526250Y-100527000D01*
X124335415Y-100527000D01*
X124297765Y-100501843D01*
X124050000Y-100452560D01*
X123128000Y-100452560D01*
X123128000Y-100347440D01*
X124050000Y-100347440D01*
X124297765Y-100298157D01*
X124335415Y-100273000D01*
X124526250Y-100273000D01*
X124685000Y-100114250D01*
X124685000Y-99973691D01*
X124656626Y-99905189D01*
X124697440Y-99700000D01*
X124697440Y-99100000D01*
X124648157Y-98852235D01*
X124507809Y-98642191D01*
X124297765Y-98501843D01*
X124050000Y-98452560D01*
X124041704Y-98452560D01*
X124038003Y-98433953D01*
X123930457Y-98273000D01*
X123858977Y-98166023D01*
X123791347Y-98120834D01*
X122884999Y-97214487D01*
X122884999Y-94947440D01*
X123093335Y-94947440D01*
X123127071Y-94997929D01*
G36*
X186050000Y-89747440D02*
X187752729Y-89747440D01*
X187766113Y-92852560D01*
X186050000Y-92852560D01*
X185847440Y-92892851D01*
X185847440Y-92500000D01*
X185806626Y-92294811D01*
X185835000Y-92226309D01*
X185835000Y-92085750D01*
X185676250Y-91927000D01*
X185485415Y-91927000D01*
X185447765Y-91901843D01*
X185200000Y-91852560D01*
X183650000Y-91852560D01*
X183402235Y-91901843D01*
X183364585Y-91927000D01*
X183173750Y-91927000D01*
X183015000Y-92085750D01*
X183015000Y-92226309D01*
X183043374Y-92294811D01*
X183002560Y-92500000D01*
X183002560Y-92601927D01*
X180989488Y-94615000D01*
X180594126Y-94615000D01*
X180213720Y-94772569D01*
X179922569Y-95063720D01*
X179765000Y-95444126D01*
X179765000Y-95855874D01*
X179922569Y-96236280D01*
X180213720Y-96527431D01*
X180594126Y-96685000D01*
X181005874Y-96685000D01*
X181386280Y-96527431D01*
X181671190Y-96242521D01*
X181683977Y-96233977D01*
X181729168Y-96166344D01*
X184148073Y-93747440D01*
X185200000Y-93747440D01*
X185402560Y-93707149D01*
X185402560Y-94700000D01*
X185451843Y-94947765D01*
X185592191Y-95157809D01*
X185802235Y-95298157D01*
X186050000Y-95347440D01*
X187776867Y-95347440D01*
X187779260Y-95902560D01*
X186050000Y-95902560D01*
X185802235Y-95951843D01*
X185592191Y-96092191D01*
X185451843Y-96302235D01*
X185402560Y-96550000D01*
X185402560Y-97542851D01*
X185200000Y-97502560D01*
X183650000Y-97502560D01*
X183402235Y-97551843D01*
X183192191Y-97692191D01*
X183126837Y-97790000D01*
X181410550Y-97790000D01*
X181395309Y-97767191D01*
X181381751Y-97758132D01*
X181365904Y-97678463D01*
X181197929Y-97427071D01*
X181152969Y-97397030D01*
X181122928Y-97352070D01*
X180871536Y-97184095D01*
X180649851Y-97139999D01*
X180649846Y-97139999D01*
X180574999Y-97125111D01*
X180500152Y-97139999D01*
X173514475Y-97139999D01*
X173829531Y-97009499D01*
X173946962Y-96892068D01*
X176668085Y-96892068D01*
X176742932Y-96906956D01*
X176817779Y-96892068D01*
X176817784Y-96892068D01*
X177039469Y-96847972D01*
X177290861Y-96679997D01*
X177333263Y-96616538D01*
X181384473Y-92565329D01*
X181447929Y-92522929D01*
X181615904Y-92271537D01*
X181631751Y-92191868D01*
X181645309Y-92182809D01*
X181785657Y-91972765D01*
X181834940Y-91725000D01*
X181834940Y-91560000D01*
X183060750Y-91560000D01*
X183173750Y-91673000D01*
X183364585Y-91673000D01*
X183402235Y-91698157D01*
X183650000Y-91747440D01*
X185200000Y-91747440D01*
X185447765Y-91698157D01*
X185485415Y-91673000D01*
X185676250Y-91673000D01*
X185835000Y-91514250D01*
X185835000Y-91373691D01*
X185806626Y-91305189D01*
X185847440Y-91100000D01*
X185847440Y-90500000D01*
X185807658Y-90300000D01*
X185847440Y-90100000D01*
X185847440Y-89707149D01*
X186050000Y-89747440D01*
X186050000Y-89747440D01*
G37*
X186050000Y-89747440D02*
X187752729Y-89747440D01*
X187766113Y-92852560D01*
X186050000Y-92852560D01*
X185847440Y-92892851D01*
X185847440Y-92500000D01*
X185806626Y-92294811D01*
X185835000Y-92226309D01*
X185835000Y-92085750D01*
X185676250Y-91927000D01*
X185485415Y-91927000D01*
X185447765Y-91901843D01*
X185200000Y-91852560D01*
X183650000Y-91852560D01*
X183402235Y-91901843D01*
X183364585Y-91927000D01*
X183173750Y-91927000D01*
X183015000Y-92085750D01*
X183015000Y-92226309D01*
X183043374Y-92294811D01*
X183002560Y-92500000D01*
X183002560Y-92601927D01*
X180989488Y-94615000D01*
X180594126Y-94615000D01*
X180213720Y-94772569D01*
X179922569Y-95063720D01*
X179765000Y-95444126D01*
X179765000Y-95855874D01*
X179922569Y-96236280D01*
X180213720Y-96527431D01*
X180594126Y-96685000D01*
X181005874Y-96685000D01*
X181386280Y-96527431D01*
X181671190Y-96242521D01*
X181683977Y-96233977D01*
X181729168Y-96166344D01*
X184148073Y-93747440D01*
X185200000Y-93747440D01*
X185402560Y-93707149D01*
X185402560Y-94700000D01*
X185451843Y-94947765D01*
X185592191Y-95157809D01*
X185802235Y-95298157D01*
X186050000Y-95347440D01*
X187776867Y-95347440D01*
X187779260Y-95902560D01*
X186050000Y-95902560D01*
X185802235Y-95951843D01*
X185592191Y-96092191D01*
X185451843Y-96302235D01*
X185402560Y-96550000D01*
X185402560Y-97542851D01*
X185200000Y-97502560D01*
X183650000Y-97502560D01*
X183402235Y-97551843D01*
X183192191Y-97692191D01*
X183126837Y-97790000D01*
X181410550Y-97790000D01*
X181395309Y-97767191D01*
X181381751Y-97758132D01*
X181365904Y-97678463D01*
X181197929Y-97427071D01*
X181152969Y-97397030D01*
X181122928Y-97352070D01*
X180871536Y-97184095D01*
X180649851Y-97139999D01*
X180649846Y-97139999D01*
X180574999Y-97125111D01*
X180500152Y-97139999D01*
X173514475Y-97139999D01*
X173829531Y-97009499D01*
X173946962Y-96892068D01*
X176668085Y-96892068D01*
X176742932Y-96906956D01*
X176817779Y-96892068D01*
X176817784Y-96892068D01*
X177039469Y-96847972D01*
X177290861Y-96679997D01*
X177333263Y-96616538D01*
X181384473Y-92565329D01*
X181447929Y-92522929D01*
X181615904Y-92271537D01*
X181631751Y-92191868D01*
X181645309Y-92182809D01*
X181785657Y-91972765D01*
X181834940Y-91725000D01*
X181834940Y-91560000D01*
X183060750Y-91560000D01*
X183173750Y-91673000D01*
X183364585Y-91673000D01*
X183402235Y-91698157D01*
X183650000Y-91747440D01*
X185200000Y-91747440D01*
X185447765Y-91698157D01*
X185485415Y-91673000D01*
X185676250Y-91673000D01*
X185835000Y-91514250D01*
X185835000Y-91373691D01*
X185806626Y-91305189D01*
X185847440Y-91100000D01*
X185847440Y-90500000D01*
X185807658Y-90300000D01*
X185847440Y-90100000D01*
X185847440Y-89707149D01*
X186050000Y-89747440D01*
G36*
X139852560Y-83400000D02*
X139901843Y-83647765D01*
X140040001Y-83854531D01*
X140040000Y-84489450D01*
X140017191Y-84504691D01*
X140008132Y-84518249D01*
X139928463Y-84534096D01*
X139677071Y-84702071D01*
X139647029Y-84747032D01*
X139602071Y-84777072D01*
X139559671Y-84840528D01*
X139559670Y-84840529D01*
X139434096Y-85028464D01*
X139375111Y-85325001D01*
X139390000Y-85399852D01*
X139389999Y-86497654D01*
X139375111Y-86572501D01*
X139389999Y-86647348D01*
X139389999Y-86647352D01*
X139434095Y-86869037D01*
X139602070Y-87120430D01*
X139665529Y-87162832D01*
X140012169Y-87509472D01*
X140054571Y-87572931D01*
X140305963Y-87740906D01*
X140527648Y-87785002D01*
X140527652Y-87785002D01*
X140602499Y-87799890D01*
X140677346Y-87785002D01*
X143683201Y-87785002D01*
X144966191Y-89067992D01*
X144713720Y-89172569D01*
X144422569Y-89463720D01*
X144265000Y-89844126D01*
X144265000Y-90255874D01*
X144422569Y-90636280D01*
X144713720Y-90927431D01*
X145094126Y-91085000D01*
X145505874Y-91085000D01*
X145886280Y-90927431D01*
X145974456Y-90839255D01*
X147231544Y-92096344D01*
X147155874Y-92065000D01*
X146744126Y-92065000D01*
X146363720Y-92222569D01*
X146072569Y-92513720D01*
X145915000Y-92894126D01*
X145915000Y-92989487D01*
X145383654Y-93520834D01*
X145316024Y-93566023D01*
X145270835Y-93633653D01*
X145136998Y-93833954D01*
X145074132Y-94150000D01*
X145090001Y-94229778D01*
X145090000Y-95264007D01*
X145014343Y-95377235D01*
X144965060Y-95625000D01*
X144965060Y-96030256D01*
X134212833Y-85278030D01*
X134170431Y-85214571D01*
X134069740Y-85147291D01*
X133982809Y-85017191D01*
X133926003Y-84979234D01*
X133915904Y-84928463D01*
X133747929Y-84677071D01*
X133684473Y-84634671D01*
X133074526Y-84024724D01*
X133173000Y-83926250D01*
X133173000Y-83735415D01*
X133198157Y-83697765D01*
X133247440Y-83450000D01*
X133247440Y-82528000D01*
X133352560Y-82528000D01*
X133352560Y-83450000D01*
X133401843Y-83697765D01*
X133427000Y-83735415D01*
X133427000Y-83926250D01*
X133585750Y-84085000D01*
X133726309Y-84085000D01*
X133794811Y-84056626D01*
X134000000Y-84097440D01*
X134600000Y-84097440D01*
X134847765Y-84048157D01*
X135057809Y-83907809D01*
X135198157Y-83697765D01*
X135247440Y-83450000D01*
X135247440Y-83441704D01*
X135266046Y-83438003D01*
X135533977Y-83258977D01*
X135579168Y-83191344D01*
X136485514Y-82284999D01*
X139852560Y-82284999D01*
X139852560Y-83400000D01*
X139852560Y-83400000D01*
G37*
X139852560Y-83400000D02*
X139901843Y-83647765D01*
X140040001Y-83854531D01*
X140040000Y-84489450D01*
X140017191Y-84504691D01*
X140008132Y-84518249D01*
X139928463Y-84534096D01*
X139677071Y-84702071D01*
X139647029Y-84747032D01*
X139602071Y-84777072D01*
X139559671Y-84840528D01*
X139559670Y-84840529D01*
X139434096Y-85028464D01*
X139375111Y-85325001D01*
X139390000Y-85399852D01*
X139389999Y-86497654D01*
X139375111Y-86572501D01*
X139389999Y-86647348D01*
X139389999Y-86647352D01*
X139434095Y-86869037D01*
X139602070Y-87120430D01*
X139665529Y-87162832D01*
X140012169Y-87509472D01*
X140054571Y-87572931D01*
X140305963Y-87740906D01*
X140527648Y-87785002D01*
X140527652Y-87785002D01*
X140602499Y-87799890D01*
X140677346Y-87785002D01*
X143683201Y-87785002D01*
X144966191Y-89067992D01*
X144713720Y-89172569D01*
X144422569Y-89463720D01*
X144265000Y-89844126D01*
X144265000Y-90255874D01*
X144422569Y-90636280D01*
X144713720Y-90927431D01*
X145094126Y-91085000D01*
X145505874Y-91085000D01*
X145886280Y-90927431D01*
X145974456Y-90839255D01*
X147231544Y-92096344D01*
X147155874Y-92065000D01*
X146744126Y-92065000D01*
X146363720Y-92222569D01*
X146072569Y-92513720D01*
X145915000Y-92894126D01*
X145915000Y-92989487D01*
X145383654Y-93520834D01*
X145316024Y-93566023D01*
X145270835Y-93633653D01*
X145136998Y-93833954D01*
X145074132Y-94150000D01*
X145090001Y-94229778D01*
X145090000Y-95264007D01*
X145014343Y-95377235D01*
X144965060Y-95625000D01*
X144965060Y-96030256D01*
X134212833Y-85278030D01*
X134170431Y-85214571D01*
X134069740Y-85147291D01*
X133982809Y-85017191D01*
X133926003Y-84979234D01*
X133915904Y-84928463D01*
X133747929Y-84677071D01*
X133684473Y-84634671D01*
X133074526Y-84024724D01*
X133173000Y-83926250D01*
X133173000Y-83735415D01*
X133198157Y-83697765D01*
X133247440Y-83450000D01*
X133247440Y-82528000D01*
X133352560Y-82528000D01*
X133352560Y-83450000D01*
X133401843Y-83697765D01*
X133427000Y-83735415D01*
X133427000Y-83926250D01*
X133585750Y-84085000D01*
X133726309Y-84085000D01*
X133794811Y-84056626D01*
X134000000Y-84097440D01*
X134600000Y-84097440D01*
X134847765Y-84048157D01*
X135057809Y-83907809D01*
X135198157Y-83697765D01*
X135247440Y-83450000D01*
X135247440Y-83441704D01*
X135266046Y-83438003D01*
X135533977Y-83258977D01*
X135579168Y-83191344D01*
X136485514Y-82284999D01*
X139852560Y-82284999D01*
X139852560Y-83400000D01*
G36*
X150177000Y-95041800D02*
X150177000Y-95075000D01*
X150197000Y-95075000D01*
X150197000Y-95128750D01*
X150177000Y-95148750D01*
X150177000Y-95322000D01*
X149923000Y-95322000D01*
X149923000Y-95148750D01*
X149849250Y-95075000D01*
X149923000Y-95075000D01*
X149923000Y-95028000D01*
X150163200Y-95028000D01*
X150177000Y-95041800D01*
X150177000Y-95041800D01*
G37*
X150177000Y-95041800D02*
X150177000Y-95075000D01*
X150197000Y-95075000D01*
X150197000Y-95128750D01*
X150177000Y-95148750D01*
X150177000Y-95322000D01*
X149923000Y-95322000D01*
X149923000Y-95148750D01*
X149849250Y-95075000D01*
X149923000Y-95075000D01*
X149923000Y-95028000D01*
X150163200Y-95028000D01*
X150177000Y-95041800D01*
G36*
X130352560Y-83450000D02*
X130401843Y-83697765D01*
X130490001Y-83829701D01*
X130490000Y-84951950D01*
X130467191Y-84967191D01*
X130458132Y-84980749D01*
X130378463Y-84996596D01*
X130127071Y-85164571D01*
X130097029Y-85209532D01*
X130052071Y-85239572D01*
X130009671Y-85303028D01*
X130009670Y-85303029D01*
X129884096Y-85490964D01*
X129825111Y-85787501D01*
X129840000Y-85862353D01*
X129839999Y-88175152D01*
X129825111Y-88249999D01*
X129839999Y-88324846D01*
X129839999Y-88324850D01*
X129884095Y-88546535D01*
X130052070Y-88797928D01*
X130115529Y-88840330D01*
X130857172Y-89581974D01*
X130899573Y-89645431D01*
X131150965Y-89813406D01*
X131372650Y-89857502D01*
X131372654Y-89857502D01*
X131447501Y-89872390D01*
X131522348Y-89857502D01*
X136006293Y-89857502D01*
X137188791Y-91040000D01*
X127374846Y-91040000D01*
X127299999Y-91025112D01*
X127225152Y-91040000D01*
X127225148Y-91040000D01*
X127003463Y-91084096D01*
X126752071Y-91252071D01*
X126709671Y-91315527D01*
X126140528Y-91884671D01*
X126077072Y-91927071D01*
X125909096Y-92178463D01*
X125896855Y-92240000D01*
X124589250Y-92240000D01*
X124476250Y-92127000D01*
X124285415Y-92127000D01*
X124247765Y-92101843D01*
X124000000Y-92052560D01*
X123078000Y-92052560D01*
X123078000Y-91947440D01*
X124000000Y-91947440D01*
X124247765Y-91898157D01*
X124285415Y-91873000D01*
X124476250Y-91873000D01*
X124635000Y-91714250D01*
X124635000Y-91573691D01*
X124606626Y-91505189D01*
X124647440Y-91300000D01*
X124647440Y-90700000D01*
X124598157Y-90452235D01*
X124457809Y-90242191D01*
X124247765Y-90101843D01*
X124035000Y-90059522D01*
X124035000Y-86850510D01*
X125237129Y-85648381D01*
X125266843Y-85797765D01*
X125407191Y-86007809D01*
X125540001Y-86096550D01*
X125540000Y-86396289D01*
X125422569Y-86513720D01*
X125265000Y-86894126D01*
X125265000Y-87305874D01*
X125422569Y-87686280D01*
X125713720Y-87977431D01*
X126094126Y-88135000D01*
X126505874Y-88135000D01*
X126886280Y-87977431D01*
X127177431Y-87686280D01*
X127335000Y-87305874D01*
X127335000Y-86894126D01*
X127177431Y-86513720D01*
X127060000Y-86396289D01*
X127060000Y-85907251D01*
X127075000Y-85884802D01*
X127157191Y-86007809D01*
X127367235Y-86148157D01*
X127615000Y-86197440D01*
X128285000Y-86197440D01*
X128532765Y-86148157D01*
X128742809Y-86007809D01*
X128883157Y-85797765D01*
X128932440Y-85550000D01*
X128932440Y-84550000D01*
X128883157Y-84302235D01*
X128742809Y-84092191D01*
X128532765Y-83951843D01*
X128285000Y-83902560D01*
X128042362Y-83902560D01*
X127122500Y-82982699D01*
X127122500Y-82522440D01*
X127425000Y-82522440D01*
X127672765Y-82473157D01*
X127836750Y-82363585D01*
X127854773Y-82360000D01*
X127854774Y-82360000D01*
X127980464Y-82334999D01*
X130352560Y-82334999D01*
X130352560Y-83450000D01*
X130352560Y-83450000D01*
G37*
X130352560Y-83450000D02*
X130401843Y-83697765D01*
X130490001Y-83829701D01*
X130490000Y-84951950D01*
X130467191Y-84967191D01*
X130458132Y-84980749D01*
X130378463Y-84996596D01*
X130127071Y-85164571D01*
X130097029Y-85209532D01*
X130052071Y-85239572D01*
X130009671Y-85303028D01*
X130009670Y-85303029D01*
X129884096Y-85490964D01*
X129825111Y-85787501D01*
X129840000Y-85862353D01*
X129839999Y-88175152D01*
X129825111Y-88249999D01*
X129839999Y-88324846D01*
X129839999Y-88324850D01*
X129884095Y-88546535D01*
X130052070Y-88797928D01*
X130115529Y-88840330D01*
X130857172Y-89581974D01*
X130899573Y-89645431D01*
X131150965Y-89813406D01*
X131372650Y-89857502D01*
X131372654Y-89857502D01*
X131447501Y-89872390D01*
X131522348Y-89857502D01*
X136006293Y-89857502D01*
X137188791Y-91040000D01*
X127374846Y-91040000D01*
X127299999Y-91025112D01*
X127225152Y-91040000D01*
X127225148Y-91040000D01*
X127003463Y-91084096D01*
X126752071Y-91252071D01*
X126709671Y-91315527D01*
X126140528Y-91884671D01*
X126077072Y-91927071D01*
X125909096Y-92178463D01*
X125896855Y-92240000D01*
X124589250Y-92240000D01*
X124476250Y-92127000D01*
X124285415Y-92127000D01*
X124247765Y-92101843D01*
X124000000Y-92052560D01*
X123078000Y-92052560D01*
X123078000Y-91947440D01*
X124000000Y-91947440D01*
X124247765Y-91898157D01*
X124285415Y-91873000D01*
X124476250Y-91873000D01*
X124635000Y-91714250D01*
X124635000Y-91573691D01*
X124606626Y-91505189D01*
X124647440Y-91300000D01*
X124647440Y-90700000D01*
X124598157Y-90452235D01*
X124457809Y-90242191D01*
X124247765Y-90101843D01*
X124035000Y-90059522D01*
X124035000Y-86850510D01*
X125237129Y-85648381D01*
X125266843Y-85797765D01*
X125407191Y-86007809D01*
X125540001Y-86096550D01*
X125540000Y-86396289D01*
X125422569Y-86513720D01*
X125265000Y-86894126D01*
X125265000Y-87305874D01*
X125422569Y-87686280D01*
X125713720Y-87977431D01*
X126094126Y-88135000D01*
X126505874Y-88135000D01*
X126886280Y-87977431D01*
X127177431Y-87686280D01*
X127335000Y-87305874D01*
X127335000Y-86894126D01*
X127177431Y-86513720D01*
X127060000Y-86396289D01*
X127060000Y-85907251D01*
X127075000Y-85884802D01*
X127157191Y-86007809D01*
X127367235Y-86148157D01*
X127615000Y-86197440D01*
X128285000Y-86197440D01*
X128532765Y-86148157D01*
X128742809Y-86007809D01*
X128883157Y-85797765D01*
X128932440Y-85550000D01*
X128932440Y-84550000D01*
X128883157Y-84302235D01*
X128742809Y-84092191D01*
X128532765Y-83951843D01*
X128285000Y-83902560D01*
X128042362Y-83902560D01*
X127122500Y-82982699D01*
X127122500Y-82522440D01*
X127425000Y-82522440D01*
X127672765Y-82473157D01*
X127836750Y-82363585D01*
X127854773Y-82360000D01*
X127854774Y-82360000D01*
X127980464Y-82334999D01*
X130352560Y-82334999D01*
X130352560Y-83450000D01*
M02*
