G04 #@! TF.GenerationSoftware,KiCad,Pcbnew,5.0.0-rc2-dev-unknown-e0e0687~62~ubuntu16.04.1*
G04 #@! TF.CreationDate,2018-03-18T12:22:30+01:00*
G04 #@! TF.ProjectId,GhostSensorBoard,47686F737453656E736F72426F617264,rev?*
G04 #@! TF.SameCoordinates,Original*
G04 #@! TF.FileFunction,Legend,Bot*
G04 #@! TF.FilePolarity,Positive*
%FSLAX46Y46*%
G04 Gerber Fmt 4.6, Leading zero omitted, Abs format (unit mm)*
G04 Created by KiCad (PCBNEW 5.0.0-rc2-dev-unknown-e0e0687~62~ubuntu16.04.1) date Sun Mar 18 12:22:30 2018*
%MOMM*%
%LPD*%
G01*
G04 APERTURE LIST*
%ADD10C,0.300000*%
G04 APERTURE END LIST*
D10*
X156757142Y-89771428D02*
X156828571Y-89985714D01*
X156828571Y-90342857D01*
X156757142Y-90485714D01*
X156685714Y-90557142D01*
X156542857Y-90628571D01*
X156400000Y-90628571D01*
X156257142Y-90557142D01*
X156185714Y-90485714D01*
X156114285Y-90342857D01*
X156042857Y-90057142D01*
X155971428Y-89914285D01*
X155900000Y-89842857D01*
X155757142Y-89771428D01*
X155614285Y-89771428D01*
X155471428Y-89842857D01*
X155400000Y-89914285D01*
X155328571Y-90057142D01*
X155328571Y-90414285D01*
X155400000Y-90628571D01*
X156828571Y-91271428D02*
X155328571Y-91271428D01*
X156400000Y-91771428D01*
X155328571Y-92271428D01*
X156828571Y-92271428D01*
X156971428Y-92628571D02*
X156971428Y-93771428D01*
X156757142Y-94057142D02*
X156828571Y-94271428D01*
X156828571Y-94628571D01*
X156757142Y-94771428D01*
X156685714Y-94842857D01*
X156542857Y-94914285D01*
X156400000Y-94914285D01*
X156257142Y-94842857D01*
X156185714Y-94771428D01*
X156114285Y-94628571D01*
X156042857Y-94342857D01*
X155971428Y-94200000D01*
X155900000Y-94128571D01*
X155757142Y-94057142D01*
X155614285Y-94057142D01*
X155471428Y-94128571D01*
X155400000Y-94200000D01*
X155328571Y-94342857D01*
X155328571Y-94700000D01*
X155400000Y-94914285D01*
X156828571Y-95557142D02*
X155328571Y-95557142D01*
X155400000Y-97057142D02*
X155328571Y-96914285D01*
X155328571Y-96700000D01*
X155400000Y-96485714D01*
X155542857Y-96342857D01*
X155685714Y-96271428D01*
X155971428Y-96200000D01*
X156185714Y-96200000D01*
X156471428Y-96271428D01*
X156614285Y-96342857D01*
X156757142Y-96485714D01*
X156828571Y-96700000D01*
X156828571Y-96842857D01*
X156757142Y-97057142D01*
X156685714Y-97128571D01*
X156185714Y-97128571D01*
X156185714Y-96842857D01*
X151357142Y-89750000D02*
X151428571Y-89964285D01*
X151428571Y-90321428D01*
X151357142Y-90464285D01*
X151285714Y-90535714D01*
X151142857Y-90607142D01*
X151000000Y-90607142D01*
X150857142Y-90535714D01*
X150785714Y-90464285D01*
X150714285Y-90321428D01*
X150642857Y-90035714D01*
X150571428Y-89892857D01*
X150500000Y-89821428D01*
X150357142Y-89750000D01*
X150214285Y-89750000D01*
X150071428Y-89821428D01*
X150000000Y-89892857D01*
X149928571Y-90035714D01*
X149928571Y-90392857D01*
X150000000Y-90607142D01*
X151428571Y-91250000D02*
X149928571Y-91250000D01*
X151000000Y-91750000D01*
X149928571Y-92250000D01*
X151428571Y-92250000D01*
X151571428Y-92607142D02*
X151571428Y-93750000D01*
X149928571Y-93892857D02*
X151428571Y-94392857D01*
X149928571Y-94892857D01*
X151285714Y-96250000D02*
X151357142Y-96178571D01*
X151428571Y-95964285D01*
X151428571Y-95821428D01*
X151357142Y-95607142D01*
X151214285Y-95464285D01*
X151071428Y-95392857D01*
X150785714Y-95321428D01*
X150571428Y-95321428D01*
X150285714Y-95392857D01*
X150142857Y-95464285D01*
X150000000Y-95607142D01*
X149928571Y-95821428D01*
X149928571Y-95964285D01*
X150000000Y-96178571D01*
X150071428Y-96250000D01*
X151285714Y-97750000D02*
X151357142Y-97678571D01*
X151428571Y-97464285D01*
X151428571Y-97321428D01*
X151357142Y-97107142D01*
X151214285Y-96964285D01*
X151071428Y-96892857D01*
X150785714Y-96821428D01*
X150571428Y-96821428D01*
X150285714Y-96892857D01*
X150142857Y-96964285D01*
X150000000Y-97107142D01*
X149928571Y-97321428D01*
X149928571Y-97464285D01*
X150000000Y-97678571D01*
X150071428Y-97750000D01*
X152800000Y-90507142D02*
X152728571Y-90364285D01*
X152728571Y-90150000D01*
X152800000Y-89935714D01*
X152942857Y-89792857D01*
X153085714Y-89721428D01*
X153371428Y-89650000D01*
X153585714Y-89650000D01*
X153871428Y-89721428D01*
X154014285Y-89792857D01*
X154157142Y-89935714D01*
X154228571Y-90150000D01*
X154228571Y-90292857D01*
X154157142Y-90507142D01*
X154085714Y-90578571D01*
X153585714Y-90578571D01*
X153585714Y-90292857D01*
X154228571Y-91221428D02*
X152728571Y-91221428D01*
X154228571Y-92078571D01*
X152728571Y-92078571D01*
X154228571Y-92792857D02*
X152728571Y-92792857D01*
X152728571Y-93150000D01*
X152800000Y-93364285D01*
X152942857Y-93507142D01*
X153085714Y-93578571D01*
X153371428Y-93650000D01*
X153585714Y-93650000D01*
X153871428Y-93578571D01*
X154014285Y-93507142D01*
X154157142Y-93364285D01*
X154228571Y-93150000D01*
X154228571Y-92792857D01*
X150278571Y-81792857D02*
X150278571Y-82721428D01*
X150850000Y-82221428D01*
X150850000Y-82435714D01*
X150921428Y-82578571D01*
X150992857Y-82650000D01*
X151135714Y-82721428D01*
X151492857Y-82721428D01*
X151635714Y-82650000D01*
X151707142Y-82578571D01*
X151778571Y-82435714D01*
X151778571Y-82007142D01*
X151707142Y-81864285D01*
X151635714Y-81792857D01*
X150278571Y-83150000D02*
X151778571Y-83650000D01*
X150278571Y-84150000D01*
X150278571Y-84507142D02*
X150278571Y-85435714D01*
X150850000Y-84935714D01*
X150850000Y-85150000D01*
X150921428Y-85292857D01*
X150992857Y-85364285D01*
X151135714Y-85435714D01*
X151492857Y-85435714D01*
X151635714Y-85364285D01*
X151707142Y-85292857D01*
X151778571Y-85150000D01*
X151778571Y-84721428D01*
X151707142Y-84578571D01*
X151635714Y-84507142D01*
X156878571Y-81885714D02*
X155378571Y-81885714D01*
X155378571Y-82885714D02*
X155378571Y-83171428D01*
X155450000Y-83314285D01*
X155592857Y-83457142D01*
X155878571Y-83528571D01*
X156378571Y-83528571D01*
X156664285Y-83457142D01*
X156807142Y-83314285D01*
X156878571Y-83171428D01*
X156878571Y-82885714D01*
X156807142Y-82742857D01*
X156664285Y-82600000D01*
X156378571Y-82528571D01*
X155878571Y-82528571D01*
X155592857Y-82600000D01*
X155450000Y-82742857D01*
X155378571Y-82885714D01*
X156878571Y-84957142D02*
X156878571Y-84100000D01*
X156878571Y-84528571D02*
X155378571Y-84528571D01*
X155592857Y-84385714D01*
X155735714Y-84242857D01*
X155807142Y-84100000D01*
X155378571Y-85457142D02*
X155378571Y-86385714D01*
X155950000Y-85885714D01*
X155950000Y-86100000D01*
X156021428Y-86242857D01*
X156092857Y-86314285D01*
X156235714Y-86385714D01*
X156592857Y-86385714D01*
X156735714Y-86314285D01*
X156807142Y-86242857D01*
X156878571Y-86100000D01*
X156878571Y-85671428D01*
X156807142Y-85528571D01*
X156735714Y-85457142D01*
X164428571Y-81885714D02*
X162928571Y-81885714D01*
X162928571Y-82885714D02*
X162928571Y-83171428D01*
X163000000Y-83314285D01*
X163142857Y-83457142D01*
X163428571Y-83528571D01*
X163928571Y-83528571D01*
X164214285Y-83457142D01*
X164357142Y-83314285D01*
X164428571Y-83171428D01*
X164428571Y-82885714D01*
X164357142Y-82742857D01*
X164214285Y-82600000D01*
X163928571Y-82528571D01*
X163428571Y-82528571D01*
X163142857Y-82600000D01*
X163000000Y-82742857D01*
X162928571Y-82885714D01*
X163071428Y-84100000D02*
X163000000Y-84171428D01*
X162928571Y-84314285D01*
X162928571Y-84671428D01*
X163000000Y-84814285D01*
X163071428Y-84885714D01*
X163214285Y-84957142D01*
X163357142Y-84957142D01*
X163571428Y-84885714D01*
X164428571Y-84028571D01*
X164428571Y-84957142D01*
X162928571Y-86314285D02*
X162928571Y-85600000D01*
X163642857Y-85528571D01*
X163571428Y-85600000D01*
X163500000Y-85742857D01*
X163500000Y-86100000D01*
X163571428Y-86242857D01*
X163642857Y-86314285D01*
X163785714Y-86385714D01*
X164142857Y-86385714D01*
X164285714Y-86314285D01*
X164357142Y-86242857D01*
X164428571Y-86100000D01*
X164428571Y-85742857D01*
X164357142Y-85600000D01*
X164285714Y-85528571D01*
X177128571Y-82071428D02*
X175628571Y-82071428D01*
X175628571Y-82642857D02*
X175628571Y-83571428D01*
X176200000Y-83071428D01*
X176200000Y-83285714D01*
X176271428Y-83428571D01*
X176342857Y-83500000D01*
X176485714Y-83571428D01*
X176842857Y-83571428D01*
X176985714Y-83500000D01*
X177057142Y-83428571D01*
X177128571Y-83285714D01*
X177128571Y-82857142D01*
X177057142Y-82714285D01*
X176985714Y-82642857D01*
X175628571Y-84857142D02*
X175628571Y-84571428D01*
X175700000Y-84428571D01*
X175771428Y-84357142D01*
X175985714Y-84214285D01*
X176271428Y-84142857D01*
X176842857Y-84142857D01*
X176985714Y-84214285D01*
X177057142Y-84285714D01*
X177128571Y-84428571D01*
X177128571Y-84714285D01*
X177057142Y-84857142D01*
X176985714Y-84928571D01*
X176842857Y-85000000D01*
X176485714Y-85000000D01*
X176342857Y-84928571D01*
X176271428Y-84857142D01*
X176200000Y-84714285D01*
X176200000Y-84428571D01*
X176271428Y-84285714D01*
X176342857Y-84214285D01*
X176485714Y-84142857D01*
X178350000Y-82757142D02*
X178278571Y-82614285D01*
X178278571Y-82400000D01*
X178350000Y-82185714D01*
X178492857Y-82042857D01*
X178635714Y-81971428D01*
X178921428Y-81900000D01*
X179135714Y-81900000D01*
X179421428Y-81971428D01*
X179564285Y-82042857D01*
X179707142Y-82185714D01*
X179778571Y-82400000D01*
X179778571Y-82542857D01*
X179707142Y-82757142D01*
X179635714Y-82828571D01*
X179135714Y-82828571D01*
X179135714Y-82542857D01*
X179778571Y-83471428D02*
X178278571Y-83471428D01*
X179778571Y-84328571D01*
X178278571Y-84328571D01*
X179778571Y-85042857D02*
X178278571Y-85042857D01*
X178278571Y-85400000D01*
X178350000Y-85614285D01*
X178492857Y-85757142D01*
X178635714Y-85828571D01*
X178921428Y-85900000D01*
X179135714Y-85900000D01*
X179421428Y-85828571D01*
X179564285Y-85757142D01*
X179707142Y-85614285D01*
X179778571Y-85400000D01*
X179778571Y-85042857D01*
X151307142Y-104471428D02*
X151307142Y-105614285D01*
X151878571Y-105042857D02*
X150735714Y-105042857D01*
X150378571Y-107042857D02*
X150378571Y-106328571D01*
X151092857Y-106257142D01*
X151021428Y-106328571D01*
X150950000Y-106471428D01*
X150950000Y-106828571D01*
X151021428Y-106971428D01*
X151092857Y-107042857D01*
X151235714Y-107114285D01*
X151592857Y-107114285D01*
X151735714Y-107042857D01*
X151807142Y-106971428D01*
X151878571Y-106828571D01*
X151878571Y-106471428D01*
X151807142Y-106328571D01*
X151735714Y-106257142D01*
X150378571Y-107542857D02*
X151878571Y-108042857D01*
X150378571Y-108542857D01*
X153000000Y-105407142D02*
X152928571Y-105264285D01*
X152928571Y-105050000D01*
X153000000Y-104835714D01*
X153142857Y-104692857D01*
X153285714Y-104621428D01*
X153571428Y-104550000D01*
X153785714Y-104550000D01*
X154071428Y-104621428D01*
X154214285Y-104692857D01*
X154357142Y-104835714D01*
X154428571Y-105050000D01*
X154428571Y-105192857D01*
X154357142Y-105407142D01*
X154285714Y-105478571D01*
X153785714Y-105478571D01*
X153785714Y-105192857D01*
X154428571Y-106121428D02*
X152928571Y-106121428D01*
X154428571Y-106978571D01*
X152928571Y-106978571D01*
X154428571Y-107692857D02*
X152928571Y-107692857D01*
X152928571Y-108050000D01*
X153000000Y-108264285D01*
X153142857Y-108407142D01*
X153285714Y-108478571D01*
X153571428Y-108550000D01*
X153785714Y-108550000D01*
X154071428Y-108478571D01*
X154214285Y-108407142D01*
X154357142Y-108264285D01*
X154428571Y-108050000D01*
X154428571Y-107692857D01*
X156142857Y-99028571D02*
X156142857Y-99528571D01*
X156928571Y-99742857D02*
X156928571Y-99028571D01*
X155428571Y-99028571D01*
X155428571Y-99742857D01*
X156928571Y-100385714D02*
X155428571Y-100385714D01*
X156928571Y-101242857D01*
X155428571Y-101242857D01*
X156785714Y-102814285D02*
X156857142Y-102742857D01*
X156928571Y-102528571D01*
X156928571Y-102385714D01*
X156857142Y-102171428D01*
X156714285Y-102028571D01*
X156571428Y-101957142D01*
X156285714Y-101885714D01*
X156071428Y-101885714D01*
X155785714Y-101957142D01*
X155642857Y-102028571D01*
X155500000Y-102171428D01*
X155428571Y-102385714D01*
X155428571Y-102528571D01*
X155500000Y-102742857D01*
X155571428Y-102814285D01*
X155428571Y-103742857D02*
X155428571Y-104028571D01*
X155500000Y-104171428D01*
X155642857Y-104314285D01*
X155928571Y-104385714D01*
X156428571Y-104385714D01*
X156714285Y-104314285D01*
X156857142Y-104171428D01*
X156928571Y-104028571D01*
X156928571Y-103742857D01*
X156857142Y-103600000D01*
X156714285Y-103457142D01*
X156428571Y-103385714D01*
X155928571Y-103385714D01*
X155642857Y-103457142D01*
X155500000Y-103600000D01*
X155428571Y-103742857D01*
X156928571Y-105028571D02*
X155428571Y-105028571D01*
X155428571Y-105385714D01*
X155500000Y-105600000D01*
X155642857Y-105742857D01*
X155785714Y-105814285D01*
X156071428Y-105885714D01*
X156285714Y-105885714D01*
X156571428Y-105814285D01*
X156714285Y-105742857D01*
X156857142Y-105600000D01*
X156928571Y-105385714D01*
X156928571Y-105028571D01*
X156142857Y-106528571D02*
X156142857Y-107028571D01*
X156928571Y-107242857D02*
X156928571Y-106528571D01*
X155428571Y-106528571D01*
X155428571Y-107242857D01*
X156928571Y-108742857D02*
X156214285Y-108242857D01*
X156928571Y-107885714D02*
X155428571Y-107885714D01*
X155428571Y-108457142D01*
X155500000Y-108600000D01*
X155571428Y-108671428D01*
X155714285Y-108742857D01*
X155928571Y-108742857D01*
X156071428Y-108671428D01*
X156142857Y-108600000D01*
X156214285Y-108457142D01*
X156214285Y-107885714D01*
X158200000Y-105507142D02*
X158128571Y-105364285D01*
X158128571Y-105150000D01*
X158200000Y-104935714D01*
X158342857Y-104792857D01*
X158485714Y-104721428D01*
X158771428Y-104650000D01*
X158985714Y-104650000D01*
X159271428Y-104721428D01*
X159414285Y-104792857D01*
X159557142Y-104935714D01*
X159628571Y-105150000D01*
X159628571Y-105292857D01*
X159557142Y-105507142D01*
X159485714Y-105578571D01*
X158985714Y-105578571D01*
X158985714Y-105292857D01*
X159628571Y-106221428D02*
X158128571Y-106221428D01*
X159628571Y-107078571D01*
X158128571Y-107078571D01*
X159628571Y-107792857D02*
X158128571Y-107792857D01*
X158128571Y-108150000D01*
X158200000Y-108364285D01*
X158342857Y-108507142D01*
X158485714Y-108578571D01*
X158771428Y-108650000D01*
X158985714Y-108650000D01*
X159271428Y-108578571D01*
X159414285Y-108507142D01*
X159557142Y-108364285D01*
X159628571Y-108150000D01*
X159628571Y-107792857D01*
X145478571Y-101750000D02*
X145478571Y-101035714D01*
X143978571Y-101035714D01*
X145478571Y-102250000D02*
X144478571Y-102250000D01*
X143978571Y-102250000D02*
X144050000Y-102178571D01*
X144121428Y-102250000D01*
X144050000Y-102321428D01*
X143978571Y-102250000D01*
X144121428Y-102250000D01*
X145478571Y-102964285D02*
X143978571Y-102964285D01*
X143978571Y-103535714D01*
X144050000Y-103678571D01*
X144121428Y-103750000D01*
X144264285Y-103821428D01*
X144478571Y-103821428D01*
X144621428Y-103750000D01*
X144692857Y-103678571D01*
X144764285Y-103535714D01*
X144764285Y-102964285D01*
X145478571Y-104678571D02*
X145407142Y-104535714D01*
X145335714Y-104464285D01*
X145192857Y-104392857D01*
X144764285Y-104392857D01*
X144621428Y-104464285D01*
X144550000Y-104535714D01*
X144478571Y-104678571D01*
X144478571Y-104892857D01*
X144550000Y-105035714D01*
X144621428Y-105107142D01*
X144764285Y-105178571D01*
X145192857Y-105178571D01*
X145335714Y-105107142D01*
X145407142Y-105035714D01*
X145478571Y-104892857D01*
X145478571Y-104678571D01*
X146050000Y-107392857D02*
X145978571Y-107321428D01*
X145764285Y-107178571D01*
X145621428Y-107107142D01*
X145407142Y-107035714D01*
X145050000Y-106964285D01*
X144764285Y-106964285D01*
X144407142Y-107035714D01*
X144192857Y-107107142D01*
X144050000Y-107178571D01*
X143835714Y-107321428D01*
X143764285Y-107392857D01*
X143978571Y-108678571D02*
X143978571Y-107964285D01*
X144692857Y-107892857D01*
X144621428Y-107964285D01*
X144550000Y-108107142D01*
X144550000Y-108464285D01*
X144621428Y-108607142D01*
X144692857Y-108678571D01*
X144835714Y-108750000D01*
X145192857Y-108750000D01*
X145335714Y-108678571D01*
X145407142Y-108607142D01*
X145478571Y-108464285D01*
X145478571Y-108107142D01*
X145407142Y-107964285D01*
X145335714Y-107892857D01*
X143978571Y-109178571D02*
X145478571Y-109678571D01*
X143978571Y-110178571D01*
X144907142Y-110678571D02*
X144907142Y-111821428D01*
X145478571Y-113321428D02*
X145478571Y-112464285D01*
X145478571Y-112892857D02*
X143978571Y-112892857D01*
X144192857Y-112750000D01*
X144335714Y-112607142D01*
X144407142Y-112464285D01*
X144121428Y-113892857D02*
X144050000Y-113964285D01*
X143978571Y-114107142D01*
X143978571Y-114464285D01*
X144050000Y-114607142D01*
X144121428Y-114678571D01*
X144264285Y-114750000D01*
X144407142Y-114750000D01*
X144621428Y-114678571D01*
X145478571Y-113821428D01*
X145478571Y-114750000D01*
X143978571Y-115178571D02*
X145478571Y-115678571D01*
X143978571Y-116178571D01*
X146050000Y-116535714D02*
X145978571Y-116607142D01*
X145764285Y-116750000D01*
X145621428Y-116821428D01*
X145407142Y-116892857D01*
X145050000Y-116964285D01*
X144764285Y-116964285D01*
X144407142Y-116892857D01*
X144192857Y-116821428D01*
X144050000Y-116750000D01*
X143835714Y-116607142D01*
X143764285Y-116535714D01*
X141200000Y-113707142D02*
X141128571Y-113564285D01*
X141128571Y-113350000D01*
X141200000Y-113135714D01*
X141342857Y-112992857D01*
X141485714Y-112921428D01*
X141771428Y-112850000D01*
X141985714Y-112850000D01*
X142271428Y-112921428D01*
X142414285Y-112992857D01*
X142557142Y-113135714D01*
X142628571Y-113350000D01*
X142628571Y-113492857D01*
X142557142Y-113707142D01*
X142485714Y-113778571D01*
X141985714Y-113778571D01*
X141985714Y-113492857D01*
X142628571Y-114421428D02*
X141128571Y-114421428D01*
X142628571Y-115278571D01*
X141128571Y-115278571D01*
X142628571Y-115992857D02*
X141128571Y-115992857D01*
X141128571Y-116350000D01*
X141200000Y-116564285D01*
X141342857Y-116707142D01*
X141485714Y-116778571D01*
X141771428Y-116850000D01*
X141985714Y-116850000D01*
X142271428Y-116778571D01*
X142414285Y-116707142D01*
X142557142Y-116564285D01*
X142628571Y-116350000D01*
X142628571Y-115992857D01*
X151207142Y-112107142D02*
X151207142Y-113250000D01*
X151778571Y-112678571D02*
X150635714Y-112678571D01*
X150278571Y-113821428D02*
X150278571Y-114750000D01*
X150850000Y-114250000D01*
X150850000Y-114464285D01*
X150921428Y-114607142D01*
X150992857Y-114678571D01*
X151135714Y-114750000D01*
X151492857Y-114750000D01*
X151635714Y-114678571D01*
X151707142Y-114607142D01*
X151778571Y-114464285D01*
X151778571Y-114035714D01*
X151707142Y-113892857D01*
X151635714Y-113821428D01*
X150278571Y-115178571D02*
X151778571Y-115678571D01*
X150278571Y-116178571D01*
X150278571Y-116535714D02*
X150278571Y-117464285D01*
X150850000Y-116964285D01*
X150850000Y-117178571D01*
X150921428Y-117321428D01*
X150992857Y-117392857D01*
X151135714Y-117464285D01*
X151492857Y-117464285D01*
X151635714Y-117392857D01*
X151707142Y-117321428D01*
X151778571Y-117178571D01*
X151778571Y-116750000D01*
X151707142Y-116607142D01*
X151635714Y-116535714D01*
X153807142Y-113471428D02*
X153807142Y-114614285D01*
X154378571Y-114042857D02*
X153235714Y-114042857D01*
X152878571Y-116042857D02*
X152878571Y-115328571D01*
X153592857Y-115257142D01*
X153521428Y-115328571D01*
X153450000Y-115471428D01*
X153450000Y-115828571D01*
X153521428Y-115971428D01*
X153592857Y-116042857D01*
X153735714Y-116114285D01*
X154092857Y-116114285D01*
X154235714Y-116042857D01*
X154307142Y-115971428D01*
X154378571Y-115828571D01*
X154378571Y-115471428D01*
X154307142Y-115328571D01*
X154235714Y-115257142D01*
X152878571Y-116542857D02*
X154378571Y-117042857D01*
X152878571Y-117542857D01*
X155450000Y-114357142D02*
X155378571Y-114214285D01*
X155378571Y-114000000D01*
X155450000Y-113785714D01*
X155592857Y-113642857D01*
X155735714Y-113571428D01*
X156021428Y-113500000D01*
X156235714Y-113500000D01*
X156521428Y-113571428D01*
X156664285Y-113642857D01*
X156807142Y-113785714D01*
X156878571Y-114000000D01*
X156878571Y-114142857D01*
X156807142Y-114357142D01*
X156735714Y-114428571D01*
X156235714Y-114428571D01*
X156235714Y-114142857D01*
X156878571Y-115071428D02*
X155378571Y-115071428D01*
X156878571Y-115928571D01*
X155378571Y-115928571D01*
X156878571Y-116642857D02*
X155378571Y-116642857D01*
X155378571Y-117000000D01*
X155450000Y-117214285D01*
X155592857Y-117357142D01*
X155735714Y-117428571D01*
X156021428Y-117500000D01*
X156235714Y-117500000D01*
X156521428Y-117428571D01*
X156664285Y-117357142D01*
X156807142Y-117214285D01*
X156878571Y-117000000D01*
X156878571Y-116642857D01*
X166192857Y-110257142D02*
X166264285Y-110471428D01*
X166335714Y-110542857D01*
X166478571Y-110614285D01*
X166692857Y-110614285D01*
X166835714Y-110542857D01*
X166907142Y-110471428D01*
X166978571Y-110328571D01*
X166978571Y-109757142D01*
X165478571Y-109757142D01*
X165478571Y-110257142D01*
X165550000Y-110400000D01*
X165621428Y-110471428D01*
X165764285Y-110542857D01*
X165907142Y-110542857D01*
X166050000Y-110471428D01*
X166121428Y-110400000D01*
X166192857Y-110257142D01*
X166192857Y-109757142D01*
X165478571Y-111257142D02*
X166692857Y-111257142D01*
X166835714Y-111328571D01*
X166907142Y-111400000D01*
X166978571Y-111542857D01*
X166978571Y-111828571D01*
X166907142Y-111971428D01*
X166835714Y-112042857D01*
X166692857Y-112114285D01*
X165478571Y-112114285D01*
X165478571Y-112614285D02*
X165478571Y-113471428D01*
X166978571Y-113042857D02*
X165478571Y-113042857D01*
X165478571Y-113757142D02*
X165478571Y-114614285D01*
X166978571Y-114185714D02*
X165478571Y-114185714D01*
X165478571Y-115400000D02*
X165478571Y-115685714D01*
X165550000Y-115828571D01*
X165692857Y-115971428D01*
X165978571Y-116042857D01*
X166478571Y-116042857D01*
X166764285Y-115971428D01*
X166907142Y-115828571D01*
X166978571Y-115685714D01*
X166978571Y-115400000D01*
X166907142Y-115257142D01*
X166764285Y-115114285D01*
X166478571Y-115042857D01*
X165978571Y-115042857D01*
X165692857Y-115114285D01*
X165550000Y-115257142D01*
X165478571Y-115400000D01*
X166978571Y-116685714D02*
X165478571Y-116685714D01*
X166978571Y-117542857D01*
X165478571Y-117542857D01*
X168692857Y-107778571D02*
X168692857Y-108278571D01*
X169478571Y-108492857D02*
X169478571Y-107778571D01*
X167978571Y-107778571D01*
X167978571Y-108492857D01*
X169478571Y-109135714D02*
X167978571Y-109135714D01*
X169478571Y-109992857D01*
X167978571Y-109992857D01*
X169335714Y-111564285D02*
X169407142Y-111492857D01*
X169478571Y-111278571D01*
X169478571Y-111135714D01*
X169407142Y-110921428D01*
X169264285Y-110778571D01*
X169121428Y-110707142D01*
X168835714Y-110635714D01*
X168621428Y-110635714D01*
X168335714Y-110707142D01*
X168192857Y-110778571D01*
X168050000Y-110921428D01*
X167978571Y-111135714D01*
X167978571Y-111278571D01*
X168050000Y-111492857D01*
X168121428Y-111564285D01*
X167978571Y-112492857D02*
X167978571Y-112778571D01*
X168050000Y-112921428D01*
X168192857Y-113064285D01*
X168478571Y-113135714D01*
X168978571Y-113135714D01*
X169264285Y-113064285D01*
X169407142Y-112921428D01*
X169478571Y-112778571D01*
X169478571Y-112492857D01*
X169407142Y-112350000D01*
X169264285Y-112207142D01*
X168978571Y-112135714D01*
X168478571Y-112135714D01*
X168192857Y-112207142D01*
X168050000Y-112350000D01*
X167978571Y-112492857D01*
X169478571Y-113778571D02*
X167978571Y-113778571D01*
X167978571Y-114135714D01*
X168050000Y-114350000D01*
X168192857Y-114492857D01*
X168335714Y-114564285D01*
X168621428Y-114635714D01*
X168835714Y-114635714D01*
X169121428Y-114564285D01*
X169264285Y-114492857D01*
X169407142Y-114350000D01*
X169478571Y-114135714D01*
X169478571Y-113778571D01*
X168692857Y-115278571D02*
X168692857Y-115778571D01*
X169478571Y-115992857D02*
X169478571Y-115278571D01*
X167978571Y-115278571D01*
X167978571Y-115992857D01*
X169478571Y-117492857D02*
X168764285Y-116992857D01*
X169478571Y-116635714D02*
X167978571Y-116635714D01*
X167978571Y-117207142D01*
X168050000Y-117350000D01*
X168121428Y-117421428D01*
X168264285Y-117492857D01*
X168478571Y-117492857D01*
X168621428Y-117421428D01*
X168692857Y-117350000D01*
X168764285Y-117207142D01*
X168764285Y-116635714D01*
X171778571Y-106828571D02*
X170278571Y-106828571D01*
X170278571Y-107828571D02*
X170278571Y-108114285D01*
X170350000Y-108257142D01*
X170492857Y-108400000D01*
X170778571Y-108471428D01*
X171278571Y-108471428D01*
X171564285Y-108400000D01*
X171707142Y-108257142D01*
X171778571Y-108114285D01*
X171778571Y-107828571D01*
X171707142Y-107685714D01*
X171564285Y-107542857D01*
X171278571Y-107471428D01*
X170778571Y-107471428D01*
X170492857Y-107542857D01*
X170350000Y-107685714D01*
X170278571Y-107828571D01*
X170421428Y-109042857D02*
X170350000Y-109114285D01*
X170278571Y-109257142D01*
X170278571Y-109614285D01*
X170350000Y-109757142D01*
X170421428Y-109828571D01*
X170564285Y-109900000D01*
X170707142Y-109900000D01*
X170921428Y-109828571D01*
X171778571Y-108971428D01*
X171778571Y-109900000D01*
X171778571Y-111328571D02*
X171778571Y-110471428D01*
X171778571Y-110900000D02*
X170278571Y-110900000D01*
X170492857Y-110757142D01*
X170635714Y-110614285D01*
X170707142Y-110471428D01*
X172350000Y-112400000D02*
X172278571Y-112328571D01*
X172064285Y-112185714D01*
X171921428Y-112114285D01*
X171707142Y-112042857D01*
X171350000Y-111971428D01*
X171064285Y-111971428D01*
X170707142Y-112042857D01*
X170492857Y-112114285D01*
X170350000Y-112185714D01*
X170135714Y-112328571D01*
X170064285Y-112400000D01*
X171707142Y-112900000D02*
X171778571Y-113114285D01*
X171778571Y-113471428D01*
X171707142Y-113614285D01*
X171635714Y-113685714D01*
X171492857Y-113757142D01*
X171350000Y-113757142D01*
X171207142Y-113685714D01*
X171135714Y-113614285D01*
X171064285Y-113471428D01*
X170992857Y-113185714D01*
X170921428Y-113042857D01*
X170850000Y-112971428D01*
X170707142Y-112900000D01*
X170564285Y-112900000D01*
X170421428Y-112971428D01*
X170350000Y-113042857D01*
X170278571Y-113185714D01*
X170278571Y-113542857D01*
X170350000Y-113757142D01*
X171778571Y-114400000D02*
X170278571Y-114400000D01*
X170278571Y-114757142D01*
X170350000Y-114971428D01*
X170492857Y-115114285D01*
X170635714Y-115185714D01*
X170921428Y-115257142D01*
X171135714Y-115257142D01*
X171421428Y-115185714D01*
X171564285Y-115114285D01*
X171707142Y-114971428D01*
X171778571Y-114757142D01*
X171778571Y-114400000D01*
X171350000Y-115828571D02*
X171350000Y-116542857D01*
X171778571Y-115685714D02*
X170278571Y-116185714D01*
X171778571Y-116685714D01*
X172350000Y-117042857D02*
X172278571Y-117114285D01*
X172064285Y-117257142D01*
X171921428Y-117328571D01*
X171707142Y-117400000D01*
X171350000Y-117471428D01*
X171064285Y-117471428D01*
X170707142Y-117400000D01*
X170492857Y-117328571D01*
X170350000Y-117257142D01*
X170135714Y-117114285D01*
X170064285Y-117042857D01*
X174328571Y-106864285D02*
X172828571Y-106864285D01*
X172828571Y-107864285D02*
X172828571Y-108150000D01*
X172900000Y-108292857D01*
X173042857Y-108435714D01*
X173328571Y-108507142D01*
X173828571Y-108507142D01*
X174114285Y-108435714D01*
X174257142Y-108292857D01*
X174328571Y-108150000D01*
X174328571Y-107864285D01*
X174257142Y-107721428D01*
X174114285Y-107578571D01*
X173828571Y-107507142D01*
X173328571Y-107507142D01*
X173042857Y-107578571D01*
X172900000Y-107721428D01*
X172828571Y-107864285D01*
X172971428Y-109078571D02*
X172900000Y-109150000D01*
X172828571Y-109292857D01*
X172828571Y-109650000D01*
X172900000Y-109792857D01*
X172971428Y-109864285D01*
X173114285Y-109935714D01*
X173257142Y-109935714D01*
X173471428Y-109864285D01*
X174328571Y-109007142D01*
X174328571Y-109935714D01*
X172971428Y-110507142D02*
X172900000Y-110578571D01*
X172828571Y-110721428D01*
X172828571Y-111078571D01*
X172900000Y-111221428D01*
X172971428Y-111292857D01*
X173114285Y-111364285D01*
X173257142Y-111364285D01*
X173471428Y-111292857D01*
X174328571Y-110435714D01*
X174328571Y-111364285D01*
X174900000Y-112435714D02*
X174828571Y-112364285D01*
X174614285Y-112221428D01*
X174471428Y-112150000D01*
X174257142Y-112078571D01*
X173900000Y-112007142D01*
X173614285Y-112007142D01*
X173257142Y-112078571D01*
X173042857Y-112150000D01*
X172900000Y-112221428D01*
X172685714Y-112364285D01*
X172614285Y-112435714D01*
X174257142Y-112935714D02*
X174328571Y-113150000D01*
X174328571Y-113507142D01*
X174257142Y-113650000D01*
X174185714Y-113721428D01*
X174042857Y-113792857D01*
X173900000Y-113792857D01*
X173757142Y-113721428D01*
X173685714Y-113650000D01*
X173614285Y-113507142D01*
X173542857Y-113221428D01*
X173471428Y-113078571D01*
X173400000Y-113007142D01*
X173257142Y-112935714D01*
X173114285Y-112935714D01*
X172971428Y-113007142D01*
X172900000Y-113078571D01*
X172828571Y-113221428D01*
X172828571Y-113578571D01*
X172900000Y-113792857D01*
X174185714Y-115292857D02*
X174257142Y-115221428D01*
X174328571Y-115007142D01*
X174328571Y-114864285D01*
X174257142Y-114650000D01*
X174114285Y-114507142D01*
X173971428Y-114435714D01*
X173685714Y-114364285D01*
X173471428Y-114364285D01*
X173185714Y-114435714D01*
X173042857Y-114507142D01*
X172900000Y-114650000D01*
X172828571Y-114864285D01*
X172828571Y-115007142D01*
X172900000Y-115221428D01*
X172971428Y-115292857D01*
X174328571Y-116650000D02*
X174328571Y-115935714D01*
X172828571Y-115935714D01*
X174900000Y-117007142D02*
X174828571Y-117078571D01*
X174614285Y-117221428D01*
X174471428Y-117292857D01*
X174257142Y-117364285D01*
X173900000Y-117435714D01*
X173614285Y-117435714D01*
X173257142Y-117364285D01*
X173042857Y-117292857D01*
X172900000Y-117221428D01*
X172685714Y-117078571D01*
X172614285Y-117007142D01*
X177078571Y-114335714D02*
X177078571Y-113621428D01*
X175578571Y-113621428D01*
X176292857Y-114835714D02*
X176292857Y-115335714D01*
X177078571Y-115550000D02*
X177078571Y-114835714D01*
X175578571Y-114835714D01*
X175578571Y-115550000D01*
X177078571Y-116192857D02*
X175578571Y-116192857D01*
X175578571Y-116550000D01*
X175650000Y-116764285D01*
X175792857Y-116907142D01*
X175935714Y-116978571D01*
X176221428Y-117050000D01*
X176435714Y-117050000D01*
X176721428Y-116978571D01*
X176864285Y-116907142D01*
X177007142Y-116764285D01*
X177078571Y-116550000D01*
X177078571Y-116192857D01*
X178300000Y-114057142D02*
X178228571Y-113914285D01*
X178228571Y-113700000D01*
X178300000Y-113485714D01*
X178442857Y-113342857D01*
X178585714Y-113271428D01*
X178871428Y-113200000D01*
X179085714Y-113200000D01*
X179371428Y-113271428D01*
X179514285Y-113342857D01*
X179657142Y-113485714D01*
X179728571Y-113700000D01*
X179728571Y-113842857D01*
X179657142Y-114057142D01*
X179585714Y-114128571D01*
X179085714Y-114128571D01*
X179085714Y-113842857D01*
X179728571Y-114771428D02*
X178228571Y-114771428D01*
X179728571Y-115628571D01*
X178228571Y-115628571D01*
X179728571Y-116342857D02*
X178228571Y-116342857D01*
X178228571Y-116700000D01*
X178300000Y-116914285D01*
X178442857Y-117057142D01*
X178585714Y-117128571D01*
X178871428Y-117200000D01*
X179085714Y-117200000D01*
X179371428Y-117128571D01*
X179514285Y-117057142D01*
X179657142Y-116914285D01*
X179728571Y-116700000D01*
X179728571Y-116342857D01*
X124000000Y-85685714D02*
X123928571Y-85542857D01*
X123928571Y-85328571D01*
X124000000Y-85114285D01*
X124142857Y-84971428D01*
X124285714Y-84900000D01*
X124571428Y-84828571D01*
X124785714Y-84828571D01*
X125071428Y-84900000D01*
X125214285Y-84971428D01*
X125357142Y-85114285D01*
X125428571Y-85328571D01*
X125428571Y-85471428D01*
X125357142Y-85685714D01*
X125285714Y-85757142D01*
X124785714Y-85757142D01*
X124785714Y-85471428D01*
X125428571Y-86400000D02*
X123928571Y-86400000D01*
X125428571Y-87042857D02*
X124642857Y-87042857D01*
X124500000Y-86971428D01*
X124428571Y-86828571D01*
X124428571Y-86614285D01*
X124500000Y-86471428D01*
X124571428Y-86400000D01*
X125428571Y-87971428D02*
X125357142Y-87828571D01*
X125285714Y-87757142D01*
X125142857Y-87685714D01*
X124714285Y-87685714D01*
X124571428Y-87757142D01*
X124500000Y-87828571D01*
X124428571Y-87971428D01*
X124428571Y-88185714D01*
X124500000Y-88328571D01*
X124571428Y-88400000D01*
X124714285Y-88471428D01*
X125142857Y-88471428D01*
X125285714Y-88400000D01*
X125357142Y-88328571D01*
X125428571Y-88185714D01*
X125428571Y-87971428D01*
X125357142Y-89042857D02*
X125428571Y-89185714D01*
X125428571Y-89471428D01*
X125357142Y-89614285D01*
X125214285Y-89685714D01*
X125142857Y-89685714D01*
X125000000Y-89614285D01*
X124928571Y-89471428D01*
X124928571Y-89257142D01*
X124857142Y-89114285D01*
X124714285Y-89042857D01*
X124642857Y-89042857D01*
X124500000Y-89114285D01*
X124428571Y-89257142D01*
X124428571Y-89471428D01*
X124500000Y-89614285D01*
X124428571Y-90114285D02*
X124428571Y-90685714D01*
X123928571Y-90328571D02*
X125214285Y-90328571D01*
X125357142Y-90400000D01*
X125428571Y-90542857D01*
X125428571Y-90685714D01*
X125357142Y-92257142D02*
X125428571Y-92471428D01*
X125428571Y-92828571D01*
X125357142Y-92971428D01*
X125285714Y-93042857D01*
X125142857Y-93114285D01*
X125000000Y-93114285D01*
X124857142Y-93042857D01*
X124785714Y-92971428D01*
X124714285Y-92828571D01*
X124642857Y-92542857D01*
X124571428Y-92400000D01*
X124500000Y-92328571D01*
X124357142Y-92257142D01*
X124214285Y-92257142D01*
X124071428Y-92328571D01*
X124000000Y-92400000D01*
X123928571Y-92542857D01*
X123928571Y-92900000D01*
X124000000Y-93114285D01*
X125357142Y-94328571D02*
X125428571Y-94185714D01*
X125428571Y-93900000D01*
X125357142Y-93757142D01*
X125214285Y-93685714D01*
X124642857Y-93685714D01*
X124500000Y-93757142D01*
X124428571Y-93900000D01*
X124428571Y-94185714D01*
X124500000Y-94328571D01*
X124642857Y-94400000D01*
X124785714Y-94400000D01*
X124928571Y-93685714D01*
X124428571Y-95042857D02*
X125428571Y-95042857D01*
X124571428Y-95042857D02*
X124500000Y-95114285D01*
X124428571Y-95257142D01*
X124428571Y-95471428D01*
X124500000Y-95614285D01*
X124642857Y-95685714D01*
X125428571Y-95685714D01*
X125357142Y-96328571D02*
X125428571Y-96471428D01*
X125428571Y-96757142D01*
X125357142Y-96900000D01*
X125214285Y-96971428D01*
X125142857Y-96971428D01*
X125000000Y-96900000D01*
X124928571Y-96757142D01*
X124928571Y-96542857D01*
X124857142Y-96400000D01*
X124714285Y-96328571D01*
X124642857Y-96328571D01*
X124500000Y-96400000D01*
X124428571Y-96542857D01*
X124428571Y-96757142D01*
X124500000Y-96900000D01*
X125428571Y-97828571D02*
X125357142Y-97685714D01*
X125285714Y-97614285D01*
X125142857Y-97542857D01*
X124714285Y-97542857D01*
X124571428Y-97614285D01*
X124500000Y-97685714D01*
X124428571Y-97828571D01*
X124428571Y-98042857D01*
X124500000Y-98185714D01*
X124571428Y-98257142D01*
X124714285Y-98328571D01*
X125142857Y-98328571D01*
X125285714Y-98257142D01*
X125357142Y-98185714D01*
X125428571Y-98042857D01*
X125428571Y-97828571D01*
X125428571Y-98971428D02*
X124428571Y-98971428D01*
X124714285Y-98971428D02*
X124571428Y-99042857D01*
X124500000Y-99114285D01*
X124428571Y-99257142D01*
X124428571Y-99400000D01*
X125428571Y-99900000D02*
X123928571Y-99900000D01*
X124500000Y-99900000D02*
X124428571Y-100042857D01*
X124428571Y-100328571D01*
X124500000Y-100471428D01*
X124571428Y-100542857D01*
X124714285Y-100614285D01*
X125142857Y-100614285D01*
X125285714Y-100542857D01*
X125357142Y-100471428D01*
X125428571Y-100328571D01*
X125428571Y-100042857D01*
X125357142Y-99900000D01*
X125428571Y-101471428D02*
X125357142Y-101328571D01*
X125285714Y-101257142D01*
X125142857Y-101185714D01*
X124714285Y-101185714D01*
X124571428Y-101257142D01*
X124500000Y-101328571D01*
X124428571Y-101471428D01*
X124428571Y-101685714D01*
X124500000Y-101828571D01*
X124571428Y-101900000D01*
X124714285Y-101971428D01*
X125142857Y-101971428D01*
X125285714Y-101900000D01*
X125357142Y-101828571D01*
X125428571Y-101685714D01*
X125428571Y-101471428D01*
X125428571Y-103257142D02*
X124642857Y-103257142D01*
X124500000Y-103185714D01*
X124428571Y-103042857D01*
X124428571Y-102757142D01*
X124500000Y-102614285D01*
X125357142Y-103257142D02*
X125428571Y-103114285D01*
X125428571Y-102757142D01*
X125357142Y-102614285D01*
X125214285Y-102542857D01*
X125071428Y-102542857D01*
X124928571Y-102614285D01*
X124857142Y-102757142D01*
X124857142Y-103114285D01*
X124785714Y-103257142D01*
X125428571Y-103971428D02*
X124428571Y-103971428D01*
X124714285Y-103971428D02*
X124571428Y-104042857D01*
X124500000Y-104114285D01*
X124428571Y-104257142D01*
X124428571Y-104400000D01*
X125428571Y-105542857D02*
X123928571Y-105542857D01*
X125357142Y-105542857D02*
X125428571Y-105400000D01*
X125428571Y-105114285D01*
X125357142Y-104971428D01*
X125285714Y-104900000D01*
X125142857Y-104828571D01*
X124714285Y-104828571D01*
X124571428Y-104900000D01*
X124500000Y-104971428D01*
X124428571Y-105114285D01*
X124428571Y-105400000D01*
X124500000Y-105542857D01*
X125357142Y-106328571D02*
X125428571Y-106328571D01*
X125571428Y-106257142D01*
X125642857Y-106185714D01*
X125428571Y-108971428D02*
X124714285Y-108471428D01*
X125428571Y-108114285D02*
X123928571Y-108114285D01*
X123928571Y-108685714D01*
X124000000Y-108828571D01*
X124071428Y-108900000D01*
X124214285Y-108971428D01*
X124428571Y-108971428D01*
X124571428Y-108900000D01*
X124642857Y-108828571D01*
X124714285Y-108685714D01*
X124714285Y-108114285D01*
X125357142Y-110185714D02*
X125428571Y-110042857D01*
X125428571Y-109757142D01*
X125357142Y-109614285D01*
X125214285Y-109542857D01*
X124642857Y-109542857D01*
X124500000Y-109614285D01*
X124428571Y-109757142D01*
X124428571Y-110042857D01*
X124500000Y-110185714D01*
X124642857Y-110257142D01*
X124785714Y-110257142D01*
X124928571Y-109542857D01*
X124428571Y-110757142D02*
X125428571Y-111114285D01*
X124428571Y-111471428D01*
X123928571Y-113900000D02*
X123928571Y-113185714D01*
X124642857Y-113114285D01*
X124571428Y-113185714D01*
X124500000Y-113328571D01*
X124500000Y-113685714D01*
X124571428Y-113828571D01*
X124642857Y-113900000D01*
X124785714Y-113971428D01*
X125142857Y-113971428D01*
X125285714Y-113900000D01*
X125357142Y-113828571D01*
X125428571Y-113685714D01*
X125428571Y-113328571D01*
X125357142Y-113185714D01*
X125285714Y-113114285D01*
X127192857Y-92364285D02*
X127192857Y-91864285D01*
X127978571Y-91864285D02*
X126478571Y-91864285D01*
X126478571Y-92578571D01*
X127978571Y-93150000D02*
X126978571Y-93150000D01*
X127264285Y-93150000D02*
X127121428Y-93221428D01*
X127050000Y-93292857D01*
X126978571Y-93435714D01*
X126978571Y-93578571D01*
X127978571Y-94292857D02*
X127907142Y-94150000D01*
X127835714Y-94078571D01*
X127692857Y-94007142D01*
X127264285Y-94007142D01*
X127121428Y-94078571D01*
X127050000Y-94150000D01*
X126978571Y-94292857D01*
X126978571Y-94507142D01*
X127050000Y-94650000D01*
X127121428Y-94721428D01*
X127264285Y-94792857D01*
X127692857Y-94792857D01*
X127835714Y-94721428D01*
X127907142Y-94650000D01*
X127978571Y-94507142D01*
X127978571Y-94292857D01*
X127978571Y-96078571D02*
X126478571Y-96078571D01*
X127907142Y-96078571D02*
X127978571Y-95935714D01*
X127978571Y-95650000D01*
X127907142Y-95507142D01*
X127835714Y-95435714D01*
X127692857Y-95364285D01*
X127264285Y-95364285D01*
X127121428Y-95435714D01*
X127050000Y-95507142D01*
X126978571Y-95650000D01*
X126978571Y-95935714D01*
X127050000Y-96078571D01*
X127907142Y-97364285D02*
X127978571Y-97221428D01*
X127978571Y-96935714D01*
X127907142Y-96792857D01*
X127764285Y-96721428D01*
X127192857Y-96721428D01*
X127050000Y-96792857D01*
X126978571Y-96935714D01*
X126978571Y-97221428D01*
X127050000Y-97364285D01*
X127192857Y-97435714D01*
X127335714Y-97435714D01*
X127478571Y-96721428D01*
X127978571Y-99935714D02*
X127978571Y-99221428D01*
X126478571Y-99221428D01*
X127978571Y-100435714D02*
X126978571Y-100435714D01*
X126478571Y-100435714D02*
X126550000Y-100364285D01*
X126621428Y-100435714D01*
X126550000Y-100507142D01*
X126478571Y-100435714D01*
X126621428Y-100435714D01*
X127978571Y-101364285D02*
X127907142Y-101221428D01*
X127764285Y-101150000D01*
X126478571Y-101150000D01*
X127978571Y-102150000D02*
X127907142Y-102007142D01*
X127764285Y-101935714D01*
X126478571Y-101935714D01*
X127907142Y-103292857D02*
X127978571Y-103150000D01*
X127978571Y-102864285D01*
X127907142Y-102721428D01*
X127764285Y-102650000D01*
X127192857Y-102650000D01*
X127050000Y-102721428D01*
X126978571Y-102864285D01*
X126978571Y-103150000D01*
X127050000Y-103292857D01*
X127192857Y-103364285D01*
X127335714Y-103364285D01*
X127478571Y-102650000D01*
X127978571Y-104007142D02*
X126978571Y-104007142D01*
X127264285Y-104007142D02*
X127121428Y-104078571D01*
X127050000Y-104150000D01*
X126978571Y-104292857D01*
X126978571Y-104435714D01*
X126978571Y-105578571D02*
X127978571Y-105578571D01*
X126978571Y-104935714D02*
X127764285Y-104935714D01*
X127907142Y-105007142D01*
X127978571Y-105150000D01*
X127978571Y-105364285D01*
X127907142Y-105507142D01*
X127835714Y-105578571D01*
X127978571Y-106935714D02*
X126478571Y-106935714D01*
X127907142Y-106935714D02*
X127978571Y-106792857D01*
X127978571Y-106507142D01*
X127907142Y-106364285D01*
X127835714Y-106292857D01*
X127692857Y-106221428D01*
X127264285Y-106221428D01*
X127121428Y-106292857D01*
X127050000Y-106364285D01*
X126978571Y-106507142D01*
X126978571Y-106792857D01*
X127050000Y-106935714D01*
X130528571Y-93185714D02*
X130528571Y-92328571D01*
X130528571Y-92757142D02*
X129028571Y-92757142D01*
X129242857Y-92614285D01*
X129385714Y-92471428D01*
X129457142Y-92328571D01*
X129671428Y-94042857D02*
X129600000Y-93900000D01*
X129528571Y-93828571D01*
X129385714Y-93757142D01*
X129314285Y-93757142D01*
X129171428Y-93828571D01*
X129100000Y-93900000D01*
X129028571Y-94042857D01*
X129028571Y-94328571D01*
X129100000Y-94471428D01*
X129171428Y-94542857D01*
X129314285Y-94614285D01*
X129385714Y-94614285D01*
X129528571Y-94542857D01*
X129600000Y-94471428D01*
X129671428Y-94328571D01*
X129671428Y-94042857D01*
X129742857Y-93900000D01*
X129814285Y-93828571D01*
X129957142Y-93757142D01*
X130242857Y-93757142D01*
X130385714Y-93828571D01*
X130457142Y-93900000D01*
X130528571Y-94042857D01*
X130528571Y-94328571D01*
X130457142Y-94471428D01*
X130385714Y-94542857D01*
X130242857Y-94614285D01*
X129957142Y-94614285D01*
X129814285Y-94542857D01*
X129742857Y-94471428D01*
X129671428Y-94328571D01*
X130385714Y-95257142D02*
X130457142Y-95328571D01*
X130528571Y-95257142D01*
X130457142Y-95185714D01*
X130385714Y-95257142D01*
X130528571Y-95257142D01*
X130528571Y-95971428D02*
X129528571Y-95971428D01*
X129671428Y-95971428D02*
X129600000Y-96042857D01*
X129528571Y-96185714D01*
X129528571Y-96400000D01*
X129600000Y-96542857D01*
X129742857Y-96614285D01*
X130528571Y-96614285D01*
X129742857Y-96614285D02*
X129600000Y-96685714D01*
X129528571Y-96828571D01*
X129528571Y-97042857D01*
X129600000Y-97185714D01*
X129742857Y-97257142D01*
X130528571Y-97257142D01*
X130528571Y-98614285D02*
X129742857Y-98614285D01*
X129600000Y-98542857D01*
X129528571Y-98400000D01*
X129528571Y-98114285D01*
X129600000Y-97971428D01*
X130457142Y-98614285D02*
X130528571Y-98471428D01*
X130528571Y-98114285D01*
X130457142Y-97971428D01*
X130314285Y-97900000D01*
X130171428Y-97900000D01*
X130028571Y-97971428D01*
X129957142Y-98114285D01*
X129957142Y-98471428D01*
X129885714Y-98614285D01*
X130528571Y-99328571D02*
X129528571Y-99328571D01*
X129814285Y-99328571D02*
X129671428Y-99400000D01*
X129600000Y-99471428D01*
X129528571Y-99614285D01*
X129528571Y-99757142D01*
X129171428Y-101328571D02*
X129100000Y-101400000D01*
X129028571Y-101542857D01*
X129028571Y-101900000D01*
X129100000Y-102042857D01*
X129171428Y-102114285D01*
X129314285Y-102185714D01*
X129457142Y-102185714D01*
X129671428Y-102114285D01*
X130528571Y-101257142D01*
X130528571Y-102185714D01*
X129028571Y-103114285D02*
X129028571Y-103257142D01*
X129100000Y-103400000D01*
X129171428Y-103471428D01*
X129314285Y-103542857D01*
X129600000Y-103614285D01*
X129957142Y-103614285D01*
X130242857Y-103542857D01*
X130385714Y-103471428D01*
X130457142Y-103400000D01*
X130528571Y-103257142D01*
X130528571Y-103114285D01*
X130457142Y-102971428D01*
X130385714Y-102900000D01*
X130242857Y-102828571D01*
X129957142Y-102757142D01*
X129600000Y-102757142D01*
X129314285Y-102828571D01*
X129171428Y-102900000D01*
X129100000Y-102971428D01*
X129028571Y-103114285D01*
X130528571Y-105042857D02*
X130528571Y-104185714D01*
X130528571Y-104614285D02*
X129028571Y-104614285D01*
X129242857Y-104471428D01*
X129385714Y-104328571D01*
X129457142Y-104185714D01*
X129671428Y-105900000D02*
X129600000Y-105757142D01*
X129528571Y-105685714D01*
X129385714Y-105614285D01*
X129314285Y-105614285D01*
X129171428Y-105685714D01*
X129100000Y-105757142D01*
X129028571Y-105900000D01*
X129028571Y-106185714D01*
X129100000Y-106328571D01*
X129171428Y-106400000D01*
X129314285Y-106471428D01*
X129385714Y-106471428D01*
X129528571Y-106400000D01*
X129600000Y-106328571D01*
X129671428Y-106185714D01*
X129671428Y-105900000D01*
X129742857Y-105757142D01*
X129814285Y-105685714D01*
X129957142Y-105614285D01*
X130242857Y-105614285D01*
X130385714Y-105685714D01*
X130457142Y-105757142D01*
X130528571Y-105900000D01*
X130528571Y-106185714D01*
X130457142Y-106328571D01*
X130385714Y-106400000D01*
X130242857Y-106471428D01*
X129957142Y-106471428D01*
X129814285Y-106400000D01*
X129742857Y-106328571D01*
X129671428Y-106185714D01*
M02*
