G04 #@! TF.GenerationSoftware,KiCad,Pcbnew,no-vcs-found-7722~57~ubuntu16.04.1*
G04 #@! TF.CreationDate,2017-02-25T15:22:01+01:00*
G04 #@! TF.ProjectId,GhostESP32,47686F737445535033322E6B69636164,rev?*
G04 #@! TF.FileFunction,Legend,Top*
G04 #@! TF.FilePolarity,Positive*
%FSLAX46Y46*%
G04 Gerber Fmt 4.6, Leading zero omitted, Abs format (unit mm)*
G04 Created by KiCad (PCBNEW no-vcs-found-7722~57~ubuntu16.04.1) date Sat Feb 25 15:22:01 2017*
%MOMM*%
%LPD*%
G01*
G04 APERTURE LIST*
%ADD10C,0.100000*%
%ADD11C,0.120000*%
%ADD12C,0.150000*%
%ADD13C,0.500000*%
G04 APERTURE END LIST*
D10*
D11*
X138223700Y-77337400D02*
X138223700Y-76637400D01*
X139423700Y-76637400D02*
X139423700Y-77337400D01*
X139360200Y-71976500D02*
X139360200Y-72676500D01*
X138160200Y-72676500D02*
X138160200Y-71976500D01*
X170545200Y-80677500D02*
X170545200Y-79977500D01*
X171745200Y-79977500D02*
X171745200Y-80677500D01*
X165716700Y-80216300D02*
X165016700Y-80216300D01*
X165016700Y-79016300D02*
X165716700Y-79016300D01*
X132695200Y-97952000D02*
X133395200Y-97952000D01*
X133395200Y-99152000D02*
X132695200Y-99152000D01*
X169741100Y-76387400D02*
X170441100Y-76387400D01*
X170441100Y-77587400D02*
X169741100Y-77587400D01*
X127705600Y-107140300D02*
X127005600Y-107140300D01*
X127005600Y-105940300D02*
X127705600Y-105940300D01*
X128404100Y-98974200D02*
X127704100Y-98974200D01*
X127704100Y-97774200D02*
X128404100Y-97774200D01*
X127604000Y-103584300D02*
X126904000Y-103584300D01*
X126904000Y-102384300D02*
X127604000Y-102384300D01*
X168551300Y-109989100D02*
X168551300Y-109289100D01*
X169751300Y-109289100D02*
X169751300Y-109989100D01*
X159442900Y-72062900D02*
X158742900Y-72062900D01*
X158742900Y-70862900D02*
X159442900Y-70862900D01*
X126563700Y-80983200D02*
X126563700Y-81983200D01*
X126563700Y-81983200D02*
X128663700Y-81983200D01*
X126563700Y-80983200D02*
X128663700Y-80983200D01*
X135266700Y-74197000D02*
X131966700Y-74197000D01*
X131966700Y-74197000D02*
X131966700Y-79597000D01*
X135266700Y-74197000D02*
X135266700Y-79597000D01*
X130576800Y-109570900D02*
X130576800Y-110570900D01*
X130576800Y-110570900D02*
X132676800Y-110570900D01*
X130576800Y-109570900D02*
X132676800Y-109570900D01*
X130576800Y-111768000D02*
X130576800Y-112768000D01*
X130576800Y-112768000D02*
X132676800Y-112768000D01*
X130576800Y-111768000D02*
X132676800Y-111768000D01*
X121928600Y-85515200D02*
X121928600Y-94215200D01*
X128338600Y-85515200D02*
X128338600Y-94215200D01*
X128338600Y-94215200D02*
X121928600Y-94215200D01*
X123158600Y-94215200D02*
X123158600Y-85515200D01*
X121928600Y-85515200D02*
X128338600Y-85515200D01*
D12*
X142189200Y-93878400D02*
X141689200Y-93878400D01*
X142189200Y-93878400D02*
X142689200Y-93878400D01*
X142189200Y-93878400D02*
X142189200Y-92878400D01*
X142189200Y-93878400D02*
X142189200Y-94878400D01*
X145189200Y-81128400D02*
X140439200Y-81128400D01*
X139189200Y-82378400D02*
X140439200Y-81128400D01*
X139189200Y-82378400D02*
X139189200Y-84378400D01*
X145189200Y-84378400D02*
X145189200Y-81128400D01*
X139189200Y-106628400D02*
X139189200Y-103378400D01*
X145189200Y-106628400D02*
X139189200Y-106628400D01*
X145189200Y-103378400D02*
X145189200Y-106628400D01*
D11*
X132582800Y-86167500D02*
X133512800Y-86167500D01*
X135742800Y-86167500D02*
X134812800Y-86167500D01*
X135742800Y-86167500D02*
X135742800Y-84007500D01*
X132582800Y-86167500D02*
X132582800Y-84707500D01*
X148630100Y-107652700D02*
X148630100Y-108582700D01*
X148630100Y-110812700D02*
X148630100Y-109882700D01*
X148630100Y-110812700D02*
X150790100Y-110812700D01*
X148630100Y-107652700D02*
X150090100Y-107652700D01*
D12*
X127452500Y-78230100D02*
X128452500Y-78230100D01*
X128452500Y-79580100D02*
X127452500Y-79580100D01*
X133777100Y-89444200D02*
X134777100Y-89444200D01*
X134777100Y-90794200D02*
X133777100Y-90794200D01*
X144381600Y-109053000D02*
X145381600Y-109053000D01*
X145381600Y-110403000D02*
X144381600Y-110403000D01*
X155389200Y-113197000D02*
X154389200Y-113197000D01*
X154389200Y-111847000D02*
X155389200Y-111847000D01*
X155338400Y-111469800D02*
X154338400Y-111469800D01*
X154338400Y-110119800D02*
X155338400Y-110119800D01*
X141924400Y-108224700D02*
X141924400Y-109224700D01*
X140574400Y-109224700D02*
X140574400Y-108224700D01*
X150865200Y-113177700D02*
X150865200Y-114177700D01*
X149515200Y-114177700D02*
X149515200Y-113177700D01*
X135666100Y-110822100D02*
X134666100Y-110822100D01*
X134666100Y-109472100D02*
X135666100Y-109472100D01*
X167777800Y-80699800D02*
X167777800Y-79699800D01*
X169127800Y-79699800D02*
X169127800Y-80699800D01*
X132478400Y-116651400D02*
X131478400Y-116651400D01*
X131478400Y-115301400D02*
X132478400Y-115301400D01*
X134910200Y-114330100D02*
X134910200Y-113330100D01*
X136260200Y-113330100D02*
X136260200Y-114330100D01*
X149773000Y-96528000D02*
X149773000Y-97528000D01*
X148423000Y-97528000D02*
X148423000Y-96528000D01*
X159215200Y-113777400D02*
X160215200Y-113777400D01*
X160215200Y-115127400D02*
X159215200Y-115127400D01*
X164736400Y-115178200D02*
X163736400Y-115178200D01*
X163736400Y-113828200D02*
X164736400Y-113828200D01*
X163190300Y-70851400D02*
X164190300Y-70851400D01*
X164190300Y-72201400D02*
X163190300Y-72201400D01*
X165367200Y-109248000D02*
X165367200Y-109348000D01*
X165367200Y-112748000D02*
X165367200Y-112648000D01*
X160667200Y-112648000D02*
X160667200Y-112748000D01*
X160667200Y-109248000D02*
X160667200Y-109348000D01*
X160667200Y-110648000D02*
X160667200Y-111348000D01*
X165367200Y-110648000D02*
X165367200Y-111348000D01*
X165367200Y-109248000D02*
X160667200Y-109248000D01*
X160667200Y-112748000D02*
X165367200Y-112748000D01*
X163917200Y-110998000D02*
G75*
G03X163917200Y-110998000I-900000J0D01*
G01*
X159257500Y-78343700D02*
X159257500Y-78243700D01*
X159257500Y-74843700D02*
X159257500Y-74943700D01*
X163957500Y-74943700D02*
X163957500Y-74843700D01*
X163957500Y-78343700D02*
X163957500Y-78243700D01*
X163957500Y-76943700D02*
X163957500Y-76243700D01*
X159257500Y-76943700D02*
X159257500Y-76243700D01*
X159257500Y-78343700D02*
X163957500Y-78343700D01*
X163957500Y-74843700D02*
X159257500Y-74843700D01*
X162507500Y-76593700D02*
G75*
G03X162507500Y-76593700I-900000J0D01*
G01*
D11*
X146131600Y-71626000D02*
X146131600Y-71276000D01*
X146131600Y-71276000D02*
X147631600Y-71276000D01*
X146131600Y-76276000D02*
X146131600Y-73076000D01*
X147631600Y-78076000D02*
X146131600Y-78076000D01*
X146131600Y-78076000D02*
X146131600Y-77676000D01*
D12*
X139555400Y-111521800D02*
X139555400Y-111571800D01*
X143705400Y-111521800D02*
X143705400Y-111666800D01*
X143705400Y-116671800D02*
X143705400Y-116526800D01*
X139555400Y-116671800D02*
X139555400Y-116526800D01*
X139555400Y-111521800D02*
X143705400Y-111521800D01*
X139555400Y-116671800D02*
X143705400Y-116671800D01*
X139555400Y-111571800D02*
X138155400Y-111571800D01*
X135873400Y-107323800D02*
X135123400Y-107323800D01*
X130623400Y-102073800D02*
X131373400Y-102073800D01*
X130623400Y-107323800D02*
X131373400Y-107323800D01*
X135873400Y-102073800D02*
X135873400Y-102823800D01*
X130623400Y-102073800D02*
X130623400Y-102823800D01*
X130623400Y-107323800D02*
X130623400Y-106573800D01*
X135873400Y-107323800D02*
X135873400Y-106573800D01*
D13*
X173167981Y-84374000D02*
G75*
G03X173167981Y-84374000I-283981J0D01*
G01*
D12*
X173030000Y-103280000D02*
X173030000Y-85280000D01*
X179030000Y-85280000D02*
X153530000Y-85280000D01*
X179030000Y-103280000D02*
X153530000Y-103280000D01*
X153530000Y-103280000D02*
X153530000Y-85280000D01*
X179030000Y-103280000D02*
X179030000Y-85280000D01*
D11*
X151519100Y-115400200D02*
X151519100Y-116400200D01*
X151519100Y-116400200D02*
X153619100Y-116400200D01*
X151519100Y-115400200D02*
X153619100Y-115400200D01*
D12*
X156494100Y-116600600D02*
X155494100Y-116600600D01*
X155494100Y-115250600D02*
X156494100Y-115250600D01*
X139055813Y-79534022D02*
X139008194Y-79581641D01*
X138865337Y-79629260D01*
X138770099Y-79629260D01*
X138627241Y-79581641D01*
X138532003Y-79486403D01*
X138484384Y-79391165D01*
X138436765Y-79200689D01*
X138436765Y-79057832D01*
X138484384Y-78867356D01*
X138532003Y-78772118D01*
X138627241Y-78676880D01*
X138770099Y-78629260D01*
X138865337Y-78629260D01*
X139008194Y-78676880D01*
X139055813Y-78724499D01*
X140008194Y-79629260D02*
X139436765Y-79629260D01*
X139722480Y-79629260D02*
X139722480Y-78629260D01*
X139627241Y-78772118D01*
X139532003Y-78867356D01*
X139436765Y-78914975D01*
X141017342Y-72493166D02*
X141064961Y-72540785D01*
X141112580Y-72683642D01*
X141112580Y-72778880D01*
X141064961Y-72921738D01*
X140969723Y-73016976D01*
X140874485Y-73064595D01*
X140684009Y-73112214D01*
X140541152Y-73112214D01*
X140350676Y-73064595D01*
X140255438Y-73016976D01*
X140160200Y-72921738D01*
X140112580Y-72778880D01*
X140112580Y-72683642D01*
X140160200Y-72540785D01*
X140207819Y-72493166D01*
X140207819Y-72112214D02*
X140160200Y-72064595D01*
X140112580Y-71969357D01*
X140112580Y-71731261D01*
X140160200Y-71636023D01*
X140207819Y-71588404D01*
X140303057Y-71540785D01*
X140398295Y-71540785D01*
X140541152Y-71588404D01*
X141112580Y-72159833D01*
X141112580Y-71540785D01*
X171100453Y-82825862D02*
X171052834Y-82873481D01*
X170909977Y-82921100D01*
X170814739Y-82921100D01*
X170671881Y-82873481D01*
X170576643Y-82778243D01*
X170529024Y-82683005D01*
X170481405Y-82492529D01*
X170481405Y-82349672D01*
X170529024Y-82159196D01*
X170576643Y-82063958D01*
X170671881Y-81968720D01*
X170814739Y-81921100D01*
X170909977Y-81921100D01*
X171052834Y-81968720D01*
X171100453Y-82016339D01*
X171433786Y-81921100D02*
X172052834Y-81921100D01*
X171719500Y-82302053D01*
X171862358Y-82302053D01*
X171957596Y-82349672D01*
X172005215Y-82397291D01*
X172052834Y-82492529D01*
X172052834Y-82730624D01*
X172005215Y-82825862D01*
X171957596Y-82873481D01*
X171862358Y-82921100D01*
X171576643Y-82921100D01*
X171481405Y-82873481D01*
X171433786Y-82825862D01*
X165200033Y-81873442D02*
X165152414Y-81921061D01*
X165009557Y-81968680D01*
X164914319Y-81968680D01*
X164771461Y-81921061D01*
X164676223Y-81825823D01*
X164628604Y-81730585D01*
X164580985Y-81540109D01*
X164580985Y-81397252D01*
X164628604Y-81206776D01*
X164676223Y-81111538D01*
X164771461Y-81016300D01*
X164914319Y-80968680D01*
X165009557Y-80968680D01*
X165152414Y-81016300D01*
X165200033Y-81063919D01*
X166057176Y-81302014D02*
X166057176Y-81968680D01*
X165819080Y-80921061D02*
X165580985Y-81635347D01*
X166200033Y-81635347D01*
X132878533Y-97009142D02*
X132830914Y-97056761D01*
X132688057Y-97104380D01*
X132592819Y-97104380D01*
X132449961Y-97056761D01*
X132354723Y-96961523D01*
X132307104Y-96866285D01*
X132259485Y-96675809D01*
X132259485Y-96532952D01*
X132307104Y-96342476D01*
X132354723Y-96247238D01*
X132449961Y-96152000D01*
X132592819Y-96104380D01*
X132688057Y-96104380D01*
X132830914Y-96152000D01*
X132878533Y-96199619D01*
X133783295Y-96104380D02*
X133307104Y-96104380D01*
X133259485Y-96580571D01*
X133307104Y-96532952D01*
X133402342Y-96485333D01*
X133640438Y-96485333D01*
X133735676Y-96532952D01*
X133783295Y-96580571D01*
X133830914Y-96675809D01*
X133830914Y-96913904D01*
X133783295Y-97009142D01*
X133735676Y-97056761D01*
X133640438Y-97104380D01*
X133402342Y-97104380D01*
X133307104Y-97056761D01*
X133259485Y-97009142D01*
X169924433Y-75444542D02*
X169876814Y-75492161D01*
X169733957Y-75539780D01*
X169638719Y-75539780D01*
X169495861Y-75492161D01*
X169400623Y-75396923D01*
X169353004Y-75301685D01*
X169305385Y-75111209D01*
X169305385Y-74968352D01*
X169353004Y-74777876D01*
X169400623Y-74682638D01*
X169495861Y-74587400D01*
X169638719Y-74539780D01*
X169733957Y-74539780D01*
X169876814Y-74587400D01*
X169924433Y-74635019D01*
X170781576Y-74539780D02*
X170591100Y-74539780D01*
X170495861Y-74587400D01*
X170448242Y-74635019D01*
X170353004Y-74777876D01*
X170305385Y-74968352D01*
X170305385Y-75349304D01*
X170353004Y-75444542D01*
X170400623Y-75492161D01*
X170495861Y-75539780D01*
X170686338Y-75539780D01*
X170781576Y-75492161D01*
X170829195Y-75444542D01*
X170876814Y-75349304D01*
X170876814Y-75111209D01*
X170829195Y-75015971D01*
X170781576Y-74968352D01*
X170686338Y-74920733D01*
X170495861Y-74920733D01*
X170400623Y-74968352D01*
X170353004Y-75015971D01*
X170305385Y-75111209D01*
X127188933Y-108797442D02*
X127141314Y-108845061D01*
X126998457Y-108892680D01*
X126903219Y-108892680D01*
X126760361Y-108845061D01*
X126665123Y-108749823D01*
X126617504Y-108654585D01*
X126569885Y-108464109D01*
X126569885Y-108321252D01*
X126617504Y-108130776D01*
X126665123Y-108035538D01*
X126760361Y-107940300D01*
X126903219Y-107892680D01*
X126998457Y-107892680D01*
X127141314Y-107940300D01*
X127188933Y-107987919D01*
X127522266Y-107892680D02*
X128188933Y-107892680D01*
X127760361Y-108892680D01*
X127887433Y-100631342D02*
X127839814Y-100678961D01*
X127696957Y-100726580D01*
X127601719Y-100726580D01*
X127458861Y-100678961D01*
X127363623Y-100583723D01*
X127316004Y-100488485D01*
X127268385Y-100298009D01*
X127268385Y-100155152D01*
X127316004Y-99964676D01*
X127363623Y-99869438D01*
X127458861Y-99774200D01*
X127601719Y-99726580D01*
X127696957Y-99726580D01*
X127839814Y-99774200D01*
X127887433Y-99821819D01*
X128458861Y-100155152D02*
X128363623Y-100107533D01*
X128316004Y-100059914D01*
X128268385Y-99964676D01*
X128268385Y-99917057D01*
X128316004Y-99821819D01*
X128363623Y-99774200D01*
X128458861Y-99726580D01*
X128649338Y-99726580D01*
X128744576Y-99774200D01*
X128792195Y-99821819D01*
X128839814Y-99917057D01*
X128839814Y-99964676D01*
X128792195Y-100059914D01*
X128744576Y-100107533D01*
X128649338Y-100155152D01*
X128458861Y-100155152D01*
X128363623Y-100202771D01*
X128316004Y-100250390D01*
X128268385Y-100345628D01*
X128268385Y-100536104D01*
X128316004Y-100631342D01*
X128363623Y-100678961D01*
X128458861Y-100726580D01*
X128649338Y-100726580D01*
X128744576Y-100678961D01*
X128792195Y-100631342D01*
X128839814Y-100536104D01*
X128839814Y-100345628D01*
X128792195Y-100250390D01*
X128744576Y-100202771D01*
X128649338Y-100155152D01*
X127087333Y-105241442D02*
X127039714Y-105289061D01*
X126896857Y-105336680D01*
X126801619Y-105336680D01*
X126658761Y-105289061D01*
X126563523Y-105193823D01*
X126515904Y-105098585D01*
X126468285Y-104908109D01*
X126468285Y-104765252D01*
X126515904Y-104574776D01*
X126563523Y-104479538D01*
X126658761Y-104384300D01*
X126801619Y-104336680D01*
X126896857Y-104336680D01*
X127039714Y-104384300D01*
X127087333Y-104431919D01*
X127563523Y-105336680D02*
X127754000Y-105336680D01*
X127849238Y-105289061D01*
X127896857Y-105241442D01*
X127992095Y-105098585D01*
X128039714Y-104908109D01*
X128039714Y-104527157D01*
X127992095Y-104431919D01*
X127944476Y-104384300D01*
X127849238Y-104336680D01*
X127658761Y-104336680D01*
X127563523Y-104384300D01*
X127515904Y-104431919D01*
X127468285Y-104527157D01*
X127468285Y-104765252D01*
X127515904Y-104860490D01*
X127563523Y-104908109D01*
X127658761Y-104955728D01*
X127849238Y-104955728D01*
X127944476Y-104908109D01*
X127992095Y-104860490D01*
X128039714Y-104765252D01*
X168450022Y-107926142D02*
X168402403Y-107973761D01*
X168259546Y-108021380D01*
X168164308Y-108021380D01*
X168021451Y-107973761D01*
X167926213Y-107878523D01*
X167878594Y-107783285D01*
X167830975Y-107592809D01*
X167830975Y-107449952D01*
X167878594Y-107259476D01*
X167926213Y-107164238D01*
X168021451Y-107069000D01*
X168164308Y-107021380D01*
X168259546Y-107021380D01*
X168402403Y-107069000D01*
X168450022Y-107116619D01*
X169402403Y-108021380D02*
X168830975Y-108021380D01*
X169116689Y-108021380D02*
X169116689Y-107021380D01*
X169021451Y-107164238D01*
X168926213Y-107259476D01*
X168830975Y-107307095D01*
X170021451Y-107021380D02*
X170116689Y-107021380D01*
X170211927Y-107069000D01*
X170259546Y-107116619D01*
X170307165Y-107211857D01*
X170354784Y-107402333D01*
X170354784Y-107640428D01*
X170307165Y-107830904D01*
X170259546Y-107926142D01*
X170211927Y-107973761D01*
X170116689Y-108021380D01*
X170021451Y-108021380D01*
X169926213Y-107973761D01*
X169878594Y-107926142D01*
X169830975Y-107830904D01*
X169783356Y-107640428D01*
X169783356Y-107402333D01*
X169830975Y-107211857D01*
X169878594Y-107116619D01*
X169926213Y-107069000D01*
X170021451Y-107021380D01*
X158450042Y-73720042D02*
X158402423Y-73767661D01*
X158259566Y-73815280D01*
X158164328Y-73815280D01*
X158021471Y-73767661D01*
X157926233Y-73672423D01*
X157878614Y-73577185D01*
X157830995Y-73386709D01*
X157830995Y-73243852D01*
X157878614Y-73053376D01*
X157926233Y-72958138D01*
X158021471Y-72862900D01*
X158164328Y-72815280D01*
X158259566Y-72815280D01*
X158402423Y-72862900D01*
X158450042Y-72910519D01*
X159402423Y-73815280D02*
X158830995Y-73815280D01*
X159116709Y-73815280D02*
X159116709Y-72815280D01*
X159021471Y-72958138D01*
X158926233Y-73053376D01*
X158830995Y-73100995D01*
X160354804Y-73815280D02*
X159783376Y-73815280D01*
X160069090Y-73815280D02*
X160069090Y-72815280D01*
X159973852Y-72958138D01*
X159878614Y-73053376D01*
X159783376Y-73100995D01*
X125569316Y-83368140D02*
X125569316Y-82368140D01*
X125950268Y-82368140D01*
X126045506Y-82415760D01*
X126093125Y-82463379D01*
X126140744Y-82558617D01*
X126140744Y-82701474D01*
X126093125Y-82796712D01*
X126045506Y-82844331D01*
X125950268Y-82891950D01*
X125569316Y-82891950D01*
X126759792Y-82368140D02*
X126950268Y-82368140D01*
X127045506Y-82415760D01*
X127140744Y-82510998D01*
X127188363Y-82701474D01*
X127188363Y-83034807D01*
X127140744Y-83225283D01*
X127045506Y-83320521D01*
X126950268Y-83368140D01*
X126759792Y-83368140D01*
X126664554Y-83320521D01*
X126569316Y-83225283D01*
X126521697Y-83034807D01*
X126521697Y-82701474D01*
X126569316Y-82510998D01*
X126664554Y-82415760D01*
X126759792Y-82368140D01*
X127521697Y-82368140D02*
X127759792Y-83368140D01*
X127950268Y-82653855D01*
X128140744Y-83368140D01*
X128378840Y-82368140D01*
X128759792Y-82844331D02*
X129093125Y-82844331D01*
X129235982Y-83368140D02*
X128759792Y-83368140D01*
X128759792Y-82368140D01*
X129235982Y-82368140D01*
X130235982Y-83368140D02*
X129902649Y-82891950D01*
X129664554Y-83368140D02*
X129664554Y-82368140D01*
X130045506Y-82368140D01*
X130140744Y-82415760D01*
X130188363Y-82463379D01*
X130235982Y-82558617D01*
X130235982Y-82701474D01*
X130188363Y-82796712D01*
X130140744Y-82844331D01*
X130045506Y-82891950D01*
X129664554Y-82891950D01*
X131363980Y-77613735D02*
X130363980Y-77613735D01*
X130363980Y-77375640D01*
X130411600Y-77232782D01*
X130506838Y-77137544D01*
X130602076Y-77089925D01*
X130792552Y-77042306D01*
X130935409Y-77042306D01*
X131125885Y-77089925D01*
X131221123Y-77137544D01*
X131316361Y-77232782D01*
X131363980Y-77375640D01*
X131363980Y-77613735D01*
X130459219Y-76661354D02*
X130411600Y-76613735D01*
X130363980Y-76518497D01*
X130363980Y-76280401D01*
X130411600Y-76185163D01*
X130459219Y-76137544D01*
X130554457Y-76089925D01*
X130649695Y-76089925D01*
X130792552Y-76137544D01*
X131363980Y-76708973D01*
X131363980Y-76089925D01*
X128717135Y-109551220D02*
X129288563Y-109551220D01*
X129002849Y-110551220D02*
X129002849Y-109551220D01*
X129526659Y-109551220D02*
X130193325Y-110551220D01*
X130193325Y-109551220D02*
X129526659Y-110551220D01*
X129231093Y-112776260D02*
X128897760Y-112300070D01*
X128659664Y-112776260D02*
X128659664Y-111776260D01*
X129040617Y-111776260D01*
X129135855Y-111823880D01*
X129183474Y-111871499D01*
X129231093Y-111966737D01*
X129231093Y-112109594D01*
X129183474Y-112204832D01*
X129135855Y-112252451D01*
X129040617Y-112300070D01*
X128659664Y-112300070D01*
X129564426Y-111776260D02*
X130231093Y-112776260D01*
X130231093Y-111776260D02*
X129564426Y-112776260D01*
X129650980Y-90603295D02*
X128650980Y-90603295D01*
X128650980Y-90222342D01*
X128698600Y-90127104D01*
X128746219Y-90079485D01*
X128841457Y-90031866D01*
X128984314Y-90031866D01*
X129079552Y-90079485D01*
X129127171Y-90127104D01*
X129174790Y-90222342D01*
X129174790Y-90603295D01*
X129650980Y-89079485D02*
X129650980Y-89650914D01*
X129650980Y-89365200D02*
X128650980Y-89365200D01*
X128793838Y-89460438D01*
X128889076Y-89555676D01*
X128936695Y-89650914D01*
X147641580Y-94616495D02*
X146641580Y-94616495D01*
X146641580Y-94235542D01*
X146689200Y-94140304D01*
X146736819Y-94092685D01*
X146832057Y-94045066D01*
X146974914Y-94045066D01*
X147070152Y-94092685D01*
X147117771Y-94140304D01*
X147165390Y-94235542D01*
X147165390Y-94616495D01*
X146736819Y-93664114D02*
X146689200Y-93616495D01*
X146641580Y-93521257D01*
X146641580Y-93283161D01*
X146689200Y-93187923D01*
X146736819Y-93140304D01*
X146832057Y-93092685D01*
X146927295Y-93092685D01*
X147070152Y-93140304D01*
X147641580Y-93711733D01*
X147641580Y-93092685D01*
X137210419Y-85502738D02*
X137162800Y-85597976D01*
X137067561Y-85693214D01*
X136924704Y-85836071D01*
X136877085Y-85931309D01*
X136877085Y-86026547D01*
X137115180Y-85978928D02*
X137067561Y-86074166D01*
X136972323Y-86169404D01*
X136781847Y-86217023D01*
X136448514Y-86217023D01*
X136258038Y-86169404D01*
X136162800Y-86074166D01*
X136115180Y-85978928D01*
X136115180Y-85788452D01*
X136162800Y-85693214D01*
X136258038Y-85597976D01*
X136448514Y-85550357D01*
X136781847Y-85550357D01*
X136972323Y-85597976D01*
X137067561Y-85693214D01*
X137115180Y-85788452D01*
X137115180Y-85978928D01*
X137115180Y-84597976D02*
X137115180Y-85169404D01*
X137115180Y-84883690D02*
X136115180Y-84883690D01*
X136258038Y-84978928D01*
X136353276Y-85074166D01*
X136400895Y-85169404D01*
X149294861Y-112280319D02*
X149199623Y-112232700D01*
X149104385Y-112137461D01*
X148961528Y-111994604D01*
X148866290Y-111946985D01*
X148771052Y-111946985D01*
X148818671Y-112185080D02*
X148723433Y-112137461D01*
X148628195Y-112042223D01*
X148580576Y-111851747D01*
X148580576Y-111518414D01*
X148628195Y-111327938D01*
X148723433Y-111232700D01*
X148818671Y-111185080D01*
X149009147Y-111185080D01*
X149104385Y-111232700D01*
X149199623Y-111327938D01*
X149247242Y-111518414D01*
X149247242Y-111851747D01*
X149199623Y-112042223D01*
X149104385Y-112137461D01*
X149009147Y-112185080D01*
X148818671Y-112185080D01*
X149628195Y-111280319D02*
X149675814Y-111232700D01*
X149771052Y-111185080D01*
X150009147Y-111185080D01*
X150104385Y-111232700D01*
X150152004Y-111280319D01*
X150199623Y-111375557D01*
X150199623Y-111470795D01*
X150152004Y-111613652D01*
X149580576Y-112185080D01*
X150199623Y-112185080D01*
X127905213Y-77805540D02*
X127571880Y-77329350D01*
X127333784Y-77805540D02*
X127333784Y-76805540D01*
X127714737Y-76805540D01*
X127809975Y-76853160D01*
X127857594Y-76900779D01*
X127905213Y-76996017D01*
X127905213Y-77138874D01*
X127857594Y-77234112D01*
X127809975Y-77281731D01*
X127714737Y-77329350D01*
X127333784Y-77329350D01*
X128857594Y-77805540D02*
X128286165Y-77805540D01*
X128571880Y-77805540D02*
X128571880Y-76805540D01*
X128476641Y-76948398D01*
X128381403Y-77043636D01*
X128286165Y-77091255D01*
X134110433Y-92471580D02*
X133777100Y-91995390D01*
X133539004Y-92471580D02*
X133539004Y-91471580D01*
X133919957Y-91471580D01*
X134015195Y-91519200D01*
X134062814Y-91566819D01*
X134110433Y-91662057D01*
X134110433Y-91804914D01*
X134062814Y-91900152D01*
X134015195Y-91947771D01*
X133919957Y-91995390D01*
X133539004Y-91995390D01*
X134491385Y-91566819D02*
X134539004Y-91519200D01*
X134634242Y-91471580D01*
X134872338Y-91471580D01*
X134967576Y-91519200D01*
X135015195Y-91566819D01*
X135062814Y-91662057D01*
X135062814Y-91757295D01*
X135015195Y-91900152D01*
X134443766Y-92471580D01*
X135062814Y-92471580D01*
X144613333Y-108625900D02*
X144280000Y-108149710D01*
X144041904Y-108625900D02*
X144041904Y-107625900D01*
X144422857Y-107625900D01*
X144518095Y-107673520D01*
X144565714Y-107721139D01*
X144613333Y-107816377D01*
X144613333Y-107959234D01*
X144565714Y-108054472D01*
X144518095Y-108102091D01*
X144422857Y-108149710D01*
X144041904Y-108149710D01*
X144946666Y-107625900D02*
X145565714Y-107625900D01*
X145232380Y-108006853D01*
X145375238Y-108006853D01*
X145470476Y-108054472D01*
X145518095Y-108102091D01*
X145565714Y-108197329D01*
X145565714Y-108435424D01*
X145518095Y-108530662D01*
X145470476Y-108578281D01*
X145375238Y-108625900D01*
X145089523Y-108625900D01*
X144994285Y-108578281D01*
X144946666Y-108530662D01*
X157298093Y-112933740D02*
X156964760Y-112457550D01*
X156726664Y-112933740D02*
X156726664Y-111933740D01*
X157107617Y-111933740D01*
X157202855Y-111981360D01*
X157250474Y-112028979D01*
X157298093Y-112124217D01*
X157298093Y-112267074D01*
X157250474Y-112362312D01*
X157202855Y-112409931D01*
X157107617Y-112457550D01*
X156726664Y-112457550D01*
X158155236Y-112267074D02*
X158155236Y-112933740D01*
X157917140Y-111886121D02*
X157679045Y-112600407D01*
X158298093Y-112600407D01*
X154626013Y-109474260D02*
X154292680Y-108998070D01*
X154054584Y-109474260D02*
X154054584Y-108474260D01*
X154435537Y-108474260D01*
X154530775Y-108521880D01*
X154578394Y-108569499D01*
X154626013Y-108664737D01*
X154626013Y-108807594D01*
X154578394Y-108902832D01*
X154530775Y-108950451D01*
X154435537Y-108998070D01*
X154054584Y-108998070D01*
X155530775Y-108474260D02*
X155054584Y-108474260D01*
X155006965Y-108950451D01*
X155054584Y-108902832D01*
X155149822Y-108855213D01*
X155387918Y-108855213D01*
X155483156Y-108902832D01*
X155530775Y-108950451D01*
X155578394Y-109045689D01*
X155578394Y-109283784D01*
X155530775Y-109379022D01*
X155483156Y-109426641D01*
X155387918Y-109474260D01*
X155149822Y-109474260D01*
X155054584Y-109426641D01*
X155006965Y-109379022D01*
X139801780Y-108891366D02*
X139325590Y-109224700D01*
X139801780Y-109462795D02*
X138801780Y-109462795D01*
X138801780Y-109081842D01*
X138849400Y-108986604D01*
X138897019Y-108938985D01*
X138992257Y-108891366D01*
X139135114Y-108891366D01*
X139230352Y-108938985D01*
X139277971Y-108986604D01*
X139325590Y-109081842D01*
X139325590Y-109462795D01*
X138801780Y-108034223D02*
X138801780Y-108224700D01*
X138849400Y-108319938D01*
X138897019Y-108367557D01*
X139039876Y-108462795D01*
X139230352Y-108510414D01*
X139611304Y-108510414D01*
X139706542Y-108462795D01*
X139754161Y-108415176D01*
X139801780Y-108319938D01*
X139801780Y-108129461D01*
X139754161Y-108034223D01*
X139706542Y-107986604D01*
X139611304Y-107938985D01*
X139373209Y-107938985D01*
X139277971Y-107986604D01*
X139230352Y-108034223D01*
X139182733Y-108129461D01*
X139182733Y-108319938D01*
X139230352Y-108415176D01*
X139277971Y-108462795D01*
X139373209Y-108510414D01*
X148742580Y-113844366D02*
X148266390Y-114177700D01*
X148742580Y-114415795D02*
X147742580Y-114415795D01*
X147742580Y-114034842D01*
X147790200Y-113939604D01*
X147837819Y-113891985D01*
X147933057Y-113844366D01*
X148075914Y-113844366D01*
X148171152Y-113891985D01*
X148218771Y-113939604D01*
X148266390Y-114034842D01*
X148266390Y-114415795D01*
X147742580Y-113511033D02*
X147742580Y-112844366D01*
X148742580Y-113272938D01*
X137369253Y-110662980D02*
X137035920Y-110186790D01*
X136797824Y-110662980D02*
X136797824Y-109662980D01*
X137178777Y-109662980D01*
X137274015Y-109710600D01*
X137321634Y-109758219D01*
X137369253Y-109853457D01*
X137369253Y-109996314D01*
X137321634Y-110091552D01*
X137274015Y-110139171D01*
X137178777Y-110186790D01*
X136797824Y-110186790D01*
X137940681Y-110091552D02*
X137845443Y-110043933D01*
X137797824Y-109996314D01*
X137750205Y-109901076D01*
X137750205Y-109853457D01*
X137797824Y-109758219D01*
X137845443Y-109710600D01*
X137940681Y-109662980D01*
X138131158Y-109662980D01*
X138226396Y-109710600D01*
X138274015Y-109758219D01*
X138321634Y-109853457D01*
X138321634Y-109901076D01*
X138274015Y-109996314D01*
X138226396Y-110043933D01*
X138131158Y-110091552D01*
X137940681Y-110091552D01*
X137845443Y-110139171D01*
X137797824Y-110186790D01*
X137750205Y-110282028D01*
X137750205Y-110472504D01*
X137797824Y-110567742D01*
X137845443Y-110615361D01*
X137940681Y-110662980D01*
X138131158Y-110662980D01*
X138226396Y-110615361D01*
X138274015Y-110567742D01*
X138321634Y-110472504D01*
X138321634Y-110282028D01*
X138274015Y-110186790D01*
X138226396Y-110139171D01*
X138131158Y-110091552D01*
X168286133Y-82662020D02*
X167952800Y-82185830D01*
X167714704Y-82662020D02*
X167714704Y-81662020D01*
X168095657Y-81662020D01*
X168190895Y-81709640D01*
X168238514Y-81757259D01*
X168286133Y-81852497D01*
X168286133Y-81995354D01*
X168238514Y-82090592D01*
X168190895Y-82138211D01*
X168095657Y-82185830D01*
X167714704Y-82185830D01*
X168762323Y-82662020D02*
X168952800Y-82662020D01*
X169048038Y-82614401D01*
X169095657Y-82566782D01*
X169190895Y-82423925D01*
X169238514Y-82233449D01*
X169238514Y-81852497D01*
X169190895Y-81757259D01*
X169143276Y-81709640D01*
X169048038Y-81662020D01*
X168857561Y-81662020D01*
X168762323Y-81709640D01*
X168714704Y-81757259D01*
X168667085Y-81852497D01*
X168667085Y-82090592D01*
X168714704Y-82185830D01*
X168762323Y-82233449D01*
X168857561Y-82281068D01*
X169048038Y-82281068D01*
X169143276Y-82233449D01*
X169190895Y-82185830D01*
X169238514Y-82090592D01*
X131335542Y-114528780D02*
X131002209Y-114052590D01*
X130764114Y-114528780D02*
X130764114Y-113528780D01*
X131145066Y-113528780D01*
X131240304Y-113576400D01*
X131287923Y-113624019D01*
X131335542Y-113719257D01*
X131335542Y-113862114D01*
X131287923Y-113957352D01*
X131240304Y-114004971D01*
X131145066Y-114052590D01*
X130764114Y-114052590D01*
X132287923Y-114528780D02*
X131716495Y-114528780D01*
X132002209Y-114528780D02*
X132002209Y-113528780D01*
X131906971Y-113671638D01*
X131811733Y-113766876D01*
X131716495Y-113814495D01*
X132906971Y-113528780D02*
X133002209Y-113528780D01*
X133097447Y-113576400D01*
X133145066Y-113624019D01*
X133192685Y-113719257D01*
X133240304Y-113909733D01*
X133240304Y-114147828D01*
X133192685Y-114338304D01*
X133145066Y-114433542D01*
X133097447Y-114481161D01*
X133002209Y-114528780D01*
X132906971Y-114528780D01*
X132811733Y-114481161D01*
X132764114Y-114433542D01*
X132716495Y-114338304D01*
X132668876Y-114147828D01*
X132668876Y-113909733D01*
X132716495Y-113719257D01*
X132764114Y-113624019D01*
X132811733Y-113576400D01*
X132906971Y-113528780D01*
X137937580Y-114472957D02*
X137461390Y-114806290D01*
X137937580Y-115044385D02*
X136937580Y-115044385D01*
X136937580Y-114663433D01*
X136985200Y-114568195D01*
X137032819Y-114520576D01*
X137128057Y-114472957D01*
X137270914Y-114472957D01*
X137366152Y-114520576D01*
X137413771Y-114568195D01*
X137461390Y-114663433D01*
X137461390Y-115044385D01*
X137937580Y-113520576D02*
X137937580Y-114092004D01*
X137937580Y-113806290D02*
X136937580Y-113806290D01*
X137080438Y-113901528D01*
X137175676Y-113996766D01*
X137223295Y-114092004D01*
X137937580Y-112568195D02*
X137937580Y-113139623D01*
X137937580Y-112853909D02*
X136937580Y-112853909D01*
X137080438Y-112949147D01*
X137175676Y-113044385D01*
X137223295Y-113139623D01*
X148465302Y-99532700D02*
X148131969Y-99056510D01*
X147893874Y-99532700D02*
X147893874Y-98532700D01*
X148274826Y-98532700D01*
X148370064Y-98580320D01*
X148417683Y-98627939D01*
X148465302Y-98723177D01*
X148465302Y-98866034D01*
X148417683Y-98961272D01*
X148370064Y-99008891D01*
X148274826Y-99056510D01*
X147893874Y-99056510D01*
X149417683Y-99532700D02*
X148846255Y-99532700D01*
X149131969Y-99532700D02*
X149131969Y-98532700D01*
X149036731Y-98675558D01*
X148941493Y-98770796D01*
X148846255Y-98818415D01*
X149798636Y-98627939D02*
X149846255Y-98580320D01*
X149941493Y-98532700D01*
X150179588Y-98532700D01*
X150274826Y-98580320D01*
X150322445Y-98627939D01*
X150370064Y-98723177D01*
X150370064Y-98818415D01*
X150322445Y-98961272D01*
X149751017Y-99532700D01*
X150370064Y-99532700D01*
X159072342Y-116804780D02*
X158739009Y-116328590D01*
X158500914Y-116804780D02*
X158500914Y-115804780D01*
X158881866Y-115804780D01*
X158977104Y-115852400D01*
X159024723Y-115900019D01*
X159072342Y-115995257D01*
X159072342Y-116138114D01*
X159024723Y-116233352D01*
X158977104Y-116280971D01*
X158881866Y-116328590D01*
X158500914Y-116328590D01*
X160024723Y-116804780D02*
X159453295Y-116804780D01*
X159739009Y-116804780D02*
X159739009Y-115804780D01*
X159643771Y-115947638D01*
X159548533Y-116042876D01*
X159453295Y-116090495D01*
X160358057Y-115804780D02*
X160977104Y-115804780D01*
X160643771Y-116185733D01*
X160786628Y-116185733D01*
X160881866Y-116233352D01*
X160929485Y-116280971D01*
X160977104Y-116376209D01*
X160977104Y-116614304D01*
X160929485Y-116709542D01*
X160881866Y-116757161D01*
X160786628Y-116804780D01*
X160500914Y-116804780D01*
X160405676Y-116757161D01*
X160358057Y-116709542D01*
X163639262Y-116819940D02*
X163305929Y-116343750D01*
X163067834Y-116819940D02*
X163067834Y-115819940D01*
X163448786Y-115819940D01*
X163544024Y-115867560D01*
X163591643Y-115915179D01*
X163639262Y-116010417D01*
X163639262Y-116153274D01*
X163591643Y-116248512D01*
X163544024Y-116296131D01*
X163448786Y-116343750D01*
X163067834Y-116343750D01*
X164591643Y-116819940D02*
X164020215Y-116819940D01*
X164305929Y-116819940D02*
X164305929Y-115819940D01*
X164210691Y-115962798D01*
X164115453Y-116058036D01*
X164020215Y-116105655D01*
X165448786Y-116153274D02*
X165448786Y-116819940D01*
X165210691Y-115772321D02*
X164972596Y-116486607D01*
X165591643Y-116486607D01*
X163047442Y-73878780D02*
X162714109Y-73402590D01*
X162476014Y-73878780D02*
X162476014Y-72878780D01*
X162856966Y-72878780D01*
X162952204Y-72926400D01*
X162999823Y-72974019D01*
X163047442Y-73069257D01*
X163047442Y-73212114D01*
X162999823Y-73307352D01*
X162952204Y-73354971D01*
X162856966Y-73402590D01*
X162476014Y-73402590D01*
X163999823Y-73878780D02*
X163428395Y-73878780D01*
X163714109Y-73878780D02*
X163714109Y-72878780D01*
X163618871Y-73021638D01*
X163523633Y-73116876D01*
X163428395Y-73164495D01*
X164904585Y-72878780D02*
X164428395Y-72878780D01*
X164380776Y-73354971D01*
X164428395Y-73307352D01*
X164523633Y-73259733D01*
X164761728Y-73259733D01*
X164856966Y-73307352D01*
X164904585Y-73354971D01*
X164952204Y-73450209D01*
X164952204Y-73688304D01*
X164904585Y-73783542D01*
X164856966Y-73831161D01*
X164761728Y-73878780D01*
X164523633Y-73878780D01*
X164428395Y-73831161D01*
X164380776Y-73783542D01*
X161183866Y-108402761D02*
X161326723Y-108450380D01*
X161564819Y-108450380D01*
X161660057Y-108402761D01*
X161707676Y-108355142D01*
X161755295Y-108259904D01*
X161755295Y-108164666D01*
X161707676Y-108069428D01*
X161660057Y-108021809D01*
X161564819Y-107974190D01*
X161374342Y-107926571D01*
X161279104Y-107878952D01*
X161231485Y-107831333D01*
X161183866Y-107736095D01*
X161183866Y-107640857D01*
X161231485Y-107545619D01*
X161279104Y-107498000D01*
X161374342Y-107450380D01*
X161612438Y-107450380D01*
X161755295Y-107498000D01*
X162088628Y-107450380D02*
X162326723Y-108450380D01*
X162517200Y-107736095D01*
X162707676Y-108450380D01*
X162945771Y-107450380D01*
X163850533Y-108450380D02*
X163279104Y-108450380D01*
X163564819Y-108450380D02*
X163564819Y-107450380D01*
X163469580Y-107593238D01*
X163374342Y-107688476D01*
X163279104Y-107736095D01*
X160058266Y-79581641D02*
X160201123Y-79629260D01*
X160439219Y-79629260D01*
X160534457Y-79581641D01*
X160582076Y-79534022D01*
X160629695Y-79438784D01*
X160629695Y-79343546D01*
X160582076Y-79248308D01*
X160534457Y-79200689D01*
X160439219Y-79153070D01*
X160248742Y-79105451D01*
X160153504Y-79057832D01*
X160105885Y-79010213D01*
X160058266Y-78914975D01*
X160058266Y-78819737D01*
X160105885Y-78724499D01*
X160153504Y-78676880D01*
X160248742Y-78629260D01*
X160486838Y-78629260D01*
X160629695Y-78676880D01*
X160963028Y-78629260D02*
X161201123Y-79629260D01*
X161391600Y-78914975D01*
X161582076Y-79629260D01*
X161820171Y-78629260D01*
X162153504Y-78724499D02*
X162201123Y-78676880D01*
X162296361Y-78629260D01*
X162534457Y-78629260D01*
X162629695Y-78676880D01*
X162677314Y-78724499D01*
X162724933Y-78819737D01*
X162724933Y-78914975D01*
X162677314Y-79057832D01*
X162105885Y-79629260D01*
X162724933Y-79629260D01*
X147069695Y-69578380D02*
X147069695Y-70387904D01*
X147117314Y-70483142D01*
X147164933Y-70530761D01*
X147260171Y-70578380D01*
X147450647Y-70578380D01*
X147545885Y-70530761D01*
X147593504Y-70483142D01*
X147641123Y-70387904D01*
X147641123Y-69578380D01*
X148641123Y-70578380D02*
X148069695Y-70578380D01*
X148355409Y-70578380D02*
X148355409Y-69578380D01*
X148260171Y-69721238D01*
X148164933Y-69816476D01*
X148069695Y-69864095D01*
X140817695Y-117034060D02*
X140817695Y-117843584D01*
X140865314Y-117938822D01*
X140912933Y-117986441D01*
X141008171Y-118034060D01*
X141198647Y-118034060D01*
X141293885Y-117986441D01*
X141341504Y-117938822D01*
X141389123Y-117843584D01*
X141389123Y-117034060D01*
X141817695Y-117129299D02*
X141865314Y-117081680D01*
X141960552Y-117034060D01*
X142198647Y-117034060D01*
X142293885Y-117081680D01*
X142341504Y-117129299D01*
X142389123Y-117224537D01*
X142389123Y-117319775D01*
X142341504Y-117462632D01*
X141770076Y-118034060D01*
X142389123Y-118034060D01*
X136575780Y-105460704D02*
X137385304Y-105460704D01*
X137480542Y-105413085D01*
X137528161Y-105365466D01*
X137575780Y-105270228D01*
X137575780Y-105079752D01*
X137528161Y-104984514D01*
X137480542Y-104936895D01*
X137385304Y-104889276D01*
X136575780Y-104889276D01*
X136575780Y-104508323D02*
X136575780Y-103889276D01*
X136956733Y-104222609D01*
X136956733Y-104079752D01*
X137004352Y-103984514D01*
X137051971Y-103936895D01*
X137147209Y-103889276D01*
X137385304Y-103889276D01*
X137480542Y-103936895D01*
X137528161Y-103984514D01*
X137575780Y-104079752D01*
X137575780Y-104365466D01*
X137528161Y-104460704D01*
X137480542Y-104508323D01*
X169738135Y-93991180D02*
X169738135Y-94800704D01*
X169785754Y-94895942D01*
X169833373Y-94943561D01*
X169928611Y-94991180D01*
X170119087Y-94991180D01*
X170214325Y-94943561D01*
X170261944Y-94895942D01*
X170309563Y-94800704D01*
X170309563Y-93991180D01*
X171214325Y-94324514D02*
X171214325Y-94991180D01*
X170976230Y-93943561D02*
X170738135Y-94657847D01*
X171357182Y-94657847D01*
X158819571Y-101066571D02*
X159152904Y-101066571D01*
X159295761Y-101590380D02*
X158819571Y-101590380D01*
X158819571Y-100590380D01*
X159295761Y-100590380D01*
X159676714Y-101542761D02*
X159771952Y-101590380D01*
X159962428Y-101590380D01*
X160057666Y-101542761D01*
X160105285Y-101447523D01*
X160105285Y-101399904D01*
X160057666Y-101304666D01*
X159962428Y-101257047D01*
X159819571Y-101257047D01*
X159724333Y-101209428D01*
X159676714Y-101114190D01*
X159676714Y-101066571D01*
X159724333Y-100971333D01*
X159819571Y-100923714D01*
X159962428Y-100923714D01*
X160057666Y-100971333D01*
X160533857Y-100923714D02*
X160533857Y-101923714D01*
X160533857Y-100971333D02*
X160629095Y-100923714D01*
X160819571Y-100923714D01*
X160914809Y-100971333D01*
X160962428Y-101018952D01*
X161010047Y-101114190D01*
X161010047Y-101399904D01*
X160962428Y-101495142D01*
X160914809Y-101542761D01*
X160819571Y-101590380D01*
X160629095Y-101590380D01*
X160533857Y-101542761D01*
X161438619Y-101590380D02*
X161438619Y-100923714D01*
X161438619Y-101114190D02*
X161486238Y-101018952D01*
X161533857Y-100971333D01*
X161629095Y-100923714D01*
X161724333Y-100923714D01*
X162438619Y-101542761D02*
X162343380Y-101590380D01*
X162152904Y-101590380D01*
X162057666Y-101542761D01*
X162010047Y-101447523D01*
X162010047Y-101066571D01*
X162057666Y-100971333D01*
X162152904Y-100923714D01*
X162343380Y-100923714D01*
X162438619Y-100971333D01*
X162486238Y-101066571D01*
X162486238Y-101161809D01*
X162010047Y-101257047D01*
X162867190Y-101542761D02*
X162962428Y-101590380D01*
X163152904Y-101590380D01*
X163248142Y-101542761D01*
X163295761Y-101447523D01*
X163295761Y-101399904D01*
X163248142Y-101304666D01*
X163152904Y-101257047D01*
X163010047Y-101257047D01*
X162914809Y-101209428D01*
X162867190Y-101114190D01*
X162867190Y-101066571D01*
X162914809Y-100971333D01*
X163010047Y-100923714D01*
X163152904Y-100923714D01*
X163248142Y-100971333D01*
X163676714Y-101542761D02*
X163771952Y-101590380D01*
X163962428Y-101590380D01*
X164057666Y-101542761D01*
X164105285Y-101447523D01*
X164105285Y-101399904D01*
X164057666Y-101304666D01*
X163962428Y-101257047D01*
X163819571Y-101257047D01*
X163724333Y-101209428D01*
X163676714Y-101114190D01*
X163676714Y-101066571D01*
X163724333Y-100971333D01*
X163819571Y-100923714D01*
X163962428Y-100923714D01*
X164057666Y-100971333D01*
X164533857Y-101590380D02*
X164533857Y-100923714D01*
X164533857Y-100590380D02*
X164486238Y-100638000D01*
X164533857Y-100685619D01*
X164581476Y-100638000D01*
X164533857Y-100590380D01*
X164533857Y-100685619D01*
X164867190Y-100923714D02*
X165248142Y-100923714D01*
X165010047Y-101590380D02*
X165010047Y-100733238D01*
X165057666Y-100638000D01*
X165152904Y-100590380D01*
X165248142Y-100590380D01*
X166295761Y-101542761D02*
X166438619Y-101590380D01*
X166676714Y-101590380D01*
X166771952Y-101542761D01*
X166819571Y-101495142D01*
X166867190Y-101399904D01*
X166867190Y-101304666D01*
X166819571Y-101209428D01*
X166771952Y-101161809D01*
X166676714Y-101114190D01*
X166486238Y-101066571D01*
X166391000Y-101018952D01*
X166343380Y-100971333D01*
X166295761Y-100876095D01*
X166295761Y-100780857D01*
X166343380Y-100685619D01*
X166391000Y-100638000D01*
X166486238Y-100590380D01*
X166724333Y-100590380D01*
X166867190Y-100638000D01*
X167200523Y-100923714D02*
X167438619Y-101590380D01*
X167676714Y-100923714D02*
X167438619Y-101590380D01*
X167343380Y-101828476D01*
X167295761Y-101876095D01*
X167200523Y-101923714D01*
X168010047Y-101542761D02*
X168105285Y-101590380D01*
X168295761Y-101590380D01*
X168391000Y-101542761D01*
X168438619Y-101447523D01*
X168438619Y-101399904D01*
X168391000Y-101304666D01*
X168295761Y-101257047D01*
X168152904Y-101257047D01*
X168057666Y-101209428D01*
X168010047Y-101114190D01*
X168010047Y-101066571D01*
X168057666Y-100971333D01*
X168152904Y-100923714D01*
X168295761Y-100923714D01*
X168391000Y-100971333D01*
X168724333Y-100923714D02*
X169105285Y-100923714D01*
X168867190Y-100590380D02*
X168867190Y-101447523D01*
X168914809Y-101542761D01*
X169010047Y-101590380D01*
X169105285Y-101590380D01*
X169819571Y-101542761D02*
X169724333Y-101590380D01*
X169533857Y-101590380D01*
X169438619Y-101542761D01*
X169391000Y-101447523D01*
X169391000Y-101066571D01*
X169438619Y-100971333D01*
X169533857Y-100923714D01*
X169724333Y-100923714D01*
X169819571Y-100971333D01*
X169867190Y-101066571D01*
X169867190Y-101161809D01*
X169391000Y-101257047D01*
X170295761Y-101590380D02*
X170295761Y-100923714D01*
X170295761Y-101018952D02*
X170343380Y-100971333D01*
X170438619Y-100923714D01*
X170581476Y-100923714D01*
X170676714Y-100971333D01*
X170724333Y-101066571D01*
X170724333Y-101590380D01*
X170724333Y-101066571D02*
X170771952Y-100971333D01*
X170867190Y-100923714D01*
X171010047Y-100923714D01*
X171105285Y-100971333D01*
X171152904Y-101066571D01*
X171152904Y-101590380D01*
X171581476Y-101542761D02*
X171676714Y-101590380D01*
X171867190Y-101590380D01*
X171962428Y-101542761D01*
X172010047Y-101447523D01*
X172010047Y-101399904D01*
X171962428Y-101304666D01*
X171867190Y-101257047D01*
X171724333Y-101257047D01*
X171629095Y-101209428D01*
X171581476Y-101114190D01*
X171581476Y-101066571D01*
X171629095Y-100971333D01*
X171724333Y-100923714D01*
X171867190Y-100923714D01*
X171962428Y-100971333D01*
X161081619Y-99415571D02*
X161414952Y-99415571D01*
X161557809Y-99939380D02*
X161081619Y-99939380D01*
X161081619Y-98939380D01*
X161557809Y-98939380D01*
X161938761Y-99891761D02*
X162081619Y-99939380D01*
X162319714Y-99939380D01*
X162414952Y-99891761D01*
X162462571Y-99844142D01*
X162510190Y-99748904D01*
X162510190Y-99653666D01*
X162462571Y-99558428D01*
X162414952Y-99510809D01*
X162319714Y-99463190D01*
X162129238Y-99415571D01*
X162034000Y-99367952D01*
X161986380Y-99320333D01*
X161938761Y-99225095D01*
X161938761Y-99129857D01*
X161986380Y-99034619D01*
X162034000Y-98987000D01*
X162129238Y-98939380D01*
X162367333Y-98939380D01*
X162510190Y-98987000D01*
X162938761Y-99939380D02*
X162938761Y-98939380D01*
X163319714Y-98939380D01*
X163414952Y-98987000D01*
X163462571Y-99034619D01*
X163510190Y-99129857D01*
X163510190Y-99272714D01*
X163462571Y-99367952D01*
X163414952Y-99415571D01*
X163319714Y-99463190D01*
X162938761Y-99463190D01*
X163843523Y-98939380D02*
X164462571Y-98939380D01*
X164129238Y-99320333D01*
X164272095Y-99320333D01*
X164367333Y-99367952D01*
X164414952Y-99415571D01*
X164462571Y-99510809D01*
X164462571Y-99748904D01*
X164414952Y-99844142D01*
X164367333Y-99891761D01*
X164272095Y-99939380D01*
X163986380Y-99939380D01*
X163891142Y-99891761D01*
X163843523Y-99844142D01*
X164843523Y-99034619D02*
X164891142Y-98987000D01*
X164986380Y-98939380D01*
X165224476Y-98939380D01*
X165319714Y-98987000D01*
X165367333Y-99034619D01*
X165414952Y-99129857D01*
X165414952Y-99225095D01*
X165367333Y-99367952D01*
X164795904Y-99939380D01*
X165414952Y-99939380D01*
X165843523Y-99558428D02*
X166605428Y-99558428D01*
X166986380Y-98939380D02*
X167224476Y-99939380D01*
X167414952Y-99225095D01*
X167605428Y-99939380D01*
X167843523Y-98939380D01*
X168795904Y-99939380D02*
X168462571Y-99463190D01*
X168224476Y-99939380D02*
X168224476Y-98939380D01*
X168605428Y-98939380D01*
X168700666Y-98987000D01*
X168748285Y-99034619D01*
X168795904Y-99129857D01*
X168795904Y-99272714D01*
X168748285Y-99367952D01*
X168700666Y-99415571D01*
X168605428Y-99463190D01*
X168224476Y-99463190D01*
X169414952Y-98939380D02*
X169605428Y-98939380D01*
X169700666Y-98987000D01*
X169795904Y-99082238D01*
X169843523Y-99272714D01*
X169843523Y-99606047D01*
X169795904Y-99796523D01*
X169700666Y-99891761D01*
X169605428Y-99939380D01*
X169414952Y-99939380D01*
X169319714Y-99891761D01*
X169224476Y-99796523D01*
X169176857Y-99606047D01*
X169176857Y-99272714D01*
X169224476Y-99082238D01*
X169319714Y-98987000D01*
X169414952Y-98939380D01*
X170462571Y-98939380D02*
X170653047Y-98939380D01*
X170748285Y-98987000D01*
X170843523Y-99082238D01*
X170891142Y-99272714D01*
X170891142Y-99606047D01*
X170843523Y-99796523D01*
X170748285Y-99891761D01*
X170653047Y-99939380D01*
X170462571Y-99939380D01*
X170367333Y-99891761D01*
X170272095Y-99796523D01*
X170224476Y-99606047D01*
X170224476Y-99272714D01*
X170272095Y-99082238D01*
X170367333Y-98987000D01*
X170462571Y-98939380D01*
X171319714Y-99939380D02*
X171319714Y-98939380D01*
X171653047Y-99653666D01*
X171986380Y-98939380D01*
X171986380Y-99939380D01*
X149142224Y-116794540D02*
X149142224Y-115794540D01*
X149380320Y-115794540D01*
X149523177Y-115842160D01*
X149618415Y-115937398D01*
X149666034Y-116032636D01*
X149713653Y-116223112D01*
X149713653Y-116365969D01*
X149666034Y-116556445D01*
X149618415Y-116651683D01*
X149523177Y-116746921D01*
X149380320Y-116794540D01*
X149142224Y-116794540D01*
X150618415Y-115794540D02*
X150142224Y-115794540D01*
X150094605Y-116270731D01*
X150142224Y-116223112D01*
X150237462Y-116175493D01*
X150475558Y-116175493D01*
X150570796Y-116223112D01*
X150618415Y-116270731D01*
X150666034Y-116365969D01*
X150666034Y-116604064D01*
X150618415Y-116699302D01*
X150570796Y-116746921D01*
X150475558Y-116794540D01*
X150237462Y-116794540D01*
X150142224Y-116746921D01*
X150094605Y-116699302D01*
X155369022Y-118089940D02*
X155035689Y-117613750D01*
X154797594Y-118089940D02*
X154797594Y-117089940D01*
X155178546Y-117089940D01*
X155273784Y-117137560D01*
X155321403Y-117185179D01*
X155369022Y-117280417D01*
X155369022Y-117423274D01*
X155321403Y-117518512D01*
X155273784Y-117566131D01*
X155178546Y-117613750D01*
X154797594Y-117613750D01*
X156321403Y-118089940D02*
X155749975Y-118089940D01*
X156035689Y-118089940D02*
X156035689Y-117089940D01*
X155940451Y-117232798D01*
X155845213Y-117328036D01*
X155749975Y-117375655D01*
X157178546Y-117089940D02*
X156988070Y-117089940D01*
X156892832Y-117137560D01*
X156845213Y-117185179D01*
X156749975Y-117328036D01*
X156702356Y-117518512D01*
X156702356Y-117899464D01*
X156749975Y-117994702D01*
X156797594Y-118042321D01*
X156892832Y-118089940D01*
X157083308Y-118089940D01*
X157178546Y-118042321D01*
X157226165Y-117994702D01*
X157273784Y-117899464D01*
X157273784Y-117661369D01*
X157226165Y-117566131D01*
X157178546Y-117518512D01*
X157083308Y-117470893D01*
X156892832Y-117470893D01*
X156797594Y-117518512D01*
X156749975Y-117566131D01*
X156702356Y-117661369D01*
M02*
