G04 #@! TF.FileFunction,Legend,Bot*
%FSLAX46Y46*%
G04 Gerber Fmt 4.6, Leading zero omitted, Abs format (unit mm)*
G04 Created by KiCad (PCBNEW 4.0.5-e0-6337~49~ubuntu16.04.1) date Tue Feb 21 22:55:49 2017*
%MOMM*%
%LPD*%
G01*
G04 APERTURE LIST*
%ADD10C,0.100000*%
%ADD11C,0.300000*%
G04 APERTURE END LIST*
D10*
D11*
X160816228Y-81091500D02*
X160959085Y-81020071D01*
X161173371Y-81020071D01*
X161387656Y-81091500D01*
X161530514Y-81234357D01*
X161601942Y-81377214D01*
X161673371Y-81662929D01*
X161673371Y-81877214D01*
X161601942Y-82162929D01*
X161530514Y-82305786D01*
X161387656Y-82448643D01*
X161173371Y-82520071D01*
X161030514Y-82520071D01*
X160816228Y-82448643D01*
X160744799Y-82377214D01*
X160744799Y-81877214D01*
X161030514Y-81877214D01*
X160101942Y-82520071D02*
X160101942Y-81020071D01*
X159459085Y-82520071D02*
X159459085Y-81734357D01*
X159530514Y-81591500D01*
X159673371Y-81520071D01*
X159887656Y-81520071D01*
X160030514Y-81591500D01*
X160101942Y-81662929D01*
X158530513Y-82520071D02*
X158673371Y-82448643D01*
X158744799Y-82377214D01*
X158816228Y-82234357D01*
X158816228Y-81805786D01*
X158744799Y-81662929D01*
X158673371Y-81591500D01*
X158530513Y-81520071D01*
X158316228Y-81520071D01*
X158173371Y-81591500D01*
X158101942Y-81662929D01*
X158030513Y-81805786D01*
X158030513Y-82234357D01*
X158101942Y-82377214D01*
X158173371Y-82448643D01*
X158316228Y-82520071D01*
X158530513Y-82520071D01*
X157459085Y-82448643D02*
X157316228Y-82520071D01*
X157030513Y-82520071D01*
X156887656Y-82448643D01*
X156816228Y-82305786D01*
X156816228Y-82234357D01*
X156887656Y-82091500D01*
X157030513Y-82020071D01*
X157244799Y-82020071D01*
X157387656Y-81948643D01*
X157459085Y-81805786D01*
X157459085Y-81734357D01*
X157387656Y-81591500D01*
X157244799Y-81520071D01*
X157030513Y-81520071D01*
X156887656Y-81591500D01*
X156387656Y-81520071D02*
X155816227Y-81520071D01*
X156173370Y-81020071D02*
X156173370Y-82305786D01*
X156101942Y-82448643D01*
X155959084Y-82520071D01*
X155816227Y-82520071D01*
X155316227Y-81734357D02*
X154816227Y-81734357D01*
X154601941Y-82520071D02*
X155316227Y-82520071D01*
X155316227Y-81020071D01*
X154601941Y-81020071D01*
X154030513Y-82448643D02*
X153816227Y-82520071D01*
X153459084Y-82520071D01*
X153316227Y-82448643D01*
X153244798Y-82377214D01*
X153173370Y-82234357D01*
X153173370Y-82091500D01*
X153244798Y-81948643D01*
X153316227Y-81877214D01*
X153459084Y-81805786D01*
X153744798Y-81734357D01*
X153887656Y-81662929D01*
X153959084Y-81591500D01*
X154030513Y-81448643D01*
X154030513Y-81305786D01*
X153959084Y-81162929D01*
X153887656Y-81091500D01*
X153744798Y-81020071D01*
X153387656Y-81020071D01*
X153173370Y-81091500D01*
X152530513Y-82520071D02*
X152530513Y-81020071D01*
X151959085Y-81020071D01*
X151816227Y-81091500D01*
X151744799Y-81162929D01*
X151673370Y-81305786D01*
X151673370Y-81520071D01*
X151744799Y-81662929D01*
X151816227Y-81734357D01*
X151959085Y-81805786D01*
X152530513Y-81805786D01*
X151173370Y-81020071D02*
X150244799Y-81020071D01*
X150744799Y-81591500D01*
X150530513Y-81591500D01*
X150387656Y-81662929D01*
X150316227Y-81734357D01*
X150244799Y-81877214D01*
X150244799Y-82234357D01*
X150316227Y-82377214D01*
X150387656Y-82448643D01*
X150530513Y-82520071D01*
X150959085Y-82520071D01*
X151101942Y-82448643D01*
X151173370Y-82377214D01*
X149673371Y-81162929D02*
X149601942Y-81091500D01*
X149459085Y-81020071D01*
X149101942Y-81020071D01*
X148959085Y-81091500D01*
X148887656Y-81162929D01*
X148816228Y-81305786D01*
X148816228Y-81448643D01*
X148887656Y-81662929D01*
X149744799Y-82520071D01*
X148816228Y-82520071D01*
X164351943Y-84284357D02*
X163851943Y-84284357D01*
X163637657Y-85070071D02*
X164351943Y-85070071D01*
X164351943Y-83570071D01*
X163637657Y-83570071D01*
X163066229Y-84998643D02*
X162851943Y-85070071D01*
X162494800Y-85070071D01*
X162351943Y-84998643D01*
X162280514Y-84927214D01*
X162209086Y-84784357D01*
X162209086Y-84641500D01*
X162280514Y-84498643D01*
X162351943Y-84427214D01*
X162494800Y-84355786D01*
X162780514Y-84284357D01*
X162923372Y-84212929D01*
X162994800Y-84141500D01*
X163066229Y-83998643D01*
X163066229Y-83855786D01*
X162994800Y-83712929D01*
X162923372Y-83641500D01*
X162780514Y-83570071D01*
X162423372Y-83570071D01*
X162209086Y-83641500D01*
X161566229Y-85070071D02*
X161566229Y-83570071D01*
X160994801Y-83570071D01*
X160851943Y-83641500D01*
X160780515Y-83712929D01*
X160709086Y-83855786D01*
X160709086Y-84070071D01*
X160780515Y-84212929D01*
X160851943Y-84284357D01*
X160994801Y-84355786D01*
X161566229Y-84355786D01*
X160066229Y-84498643D02*
X158923372Y-84498643D01*
X158351943Y-83570071D02*
X157994800Y-85070071D01*
X157709086Y-83998643D01*
X157423372Y-85070071D01*
X157066229Y-83570071D01*
X155637657Y-85070071D02*
X156137657Y-84355786D01*
X156494800Y-85070071D02*
X156494800Y-83570071D01*
X155923372Y-83570071D01*
X155780514Y-83641500D01*
X155709086Y-83712929D01*
X155637657Y-83855786D01*
X155637657Y-84070071D01*
X155709086Y-84212929D01*
X155780514Y-84284357D01*
X155923372Y-84355786D01*
X156494800Y-84355786D01*
X154709086Y-83570071D02*
X154423372Y-83570071D01*
X154280514Y-83641500D01*
X154137657Y-83784357D01*
X154066229Y-84070071D01*
X154066229Y-84570071D01*
X154137657Y-84855786D01*
X154280514Y-84998643D01*
X154423372Y-85070071D01*
X154709086Y-85070071D01*
X154851943Y-84998643D01*
X154994800Y-84855786D01*
X155066229Y-84570071D01*
X155066229Y-84070071D01*
X154994800Y-83784357D01*
X154851943Y-83641500D01*
X154709086Y-83570071D01*
X153137657Y-83570071D02*
X152851943Y-83570071D01*
X152709085Y-83641500D01*
X152566228Y-83784357D01*
X152494800Y-84070071D01*
X152494800Y-84570071D01*
X152566228Y-84855786D01*
X152709085Y-84998643D01*
X152851943Y-85070071D01*
X153137657Y-85070071D01*
X153280514Y-84998643D01*
X153423371Y-84855786D01*
X153494800Y-84570071D01*
X153494800Y-84070071D01*
X153423371Y-83784357D01*
X153280514Y-83641500D01*
X153137657Y-83570071D01*
X151851942Y-85070071D02*
X151851942Y-83570071D01*
X151351942Y-84641500D01*
X150851942Y-83570071D01*
X150851942Y-85070071D01*
X150137656Y-84498643D02*
X148994799Y-84498643D01*
X148423370Y-83570071D02*
X147494799Y-83570071D01*
X147994799Y-84141500D01*
X147780513Y-84141500D01*
X147637656Y-84212929D01*
X147566227Y-84284357D01*
X147494799Y-84427214D01*
X147494799Y-84784357D01*
X147566227Y-84927214D01*
X147637656Y-84998643D01*
X147780513Y-85070071D01*
X148209085Y-85070071D01*
X148351942Y-84998643D01*
X148423370Y-84927214D01*
X146923371Y-83712929D02*
X146851942Y-83641500D01*
X146709085Y-83570071D01*
X146351942Y-83570071D01*
X146209085Y-83641500D01*
X146137656Y-83712929D01*
X146066228Y-83855786D01*
X146066228Y-83998643D01*
X146137656Y-84212929D01*
X146994799Y-85070071D01*
X146066228Y-85070071D01*
X170173369Y-86834357D02*
X170673369Y-86834357D01*
X170673369Y-87620071D02*
X170673369Y-86120071D01*
X169959083Y-86120071D01*
X169387655Y-87620071D02*
X169387655Y-86620071D01*
X169387655Y-86905786D02*
X169316227Y-86762929D01*
X169244798Y-86691500D01*
X169101941Y-86620071D01*
X168959084Y-86620071D01*
X168244798Y-87620071D02*
X168387656Y-87548643D01*
X168459084Y-87477214D01*
X168530513Y-87334357D01*
X168530513Y-86905786D01*
X168459084Y-86762929D01*
X168387656Y-86691500D01*
X168244798Y-86620071D01*
X168030513Y-86620071D01*
X167887656Y-86691500D01*
X167816227Y-86762929D01*
X167744798Y-86905786D01*
X167744798Y-87334357D01*
X167816227Y-87477214D01*
X167887656Y-87548643D01*
X168030513Y-87620071D01*
X168244798Y-87620071D01*
X166459084Y-87620071D02*
X166459084Y-86120071D01*
X166459084Y-87548643D02*
X166601941Y-87620071D01*
X166887655Y-87620071D01*
X167030513Y-87548643D01*
X167101941Y-87477214D01*
X167173370Y-87334357D01*
X167173370Y-86905786D01*
X167101941Y-86762929D01*
X167030513Y-86691500D01*
X166887655Y-86620071D01*
X166601941Y-86620071D01*
X166459084Y-86691500D01*
X165173370Y-87548643D02*
X165316227Y-87620071D01*
X165601941Y-87620071D01*
X165744798Y-87548643D01*
X165816227Y-87405786D01*
X165816227Y-86834357D01*
X165744798Y-86691500D01*
X165601941Y-86620071D01*
X165316227Y-86620071D01*
X165173370Y-86691500D01*
X165101941Y-86834357D01*
X165101941Y-86977214D01*
X165816227Y-87120071D01*
X162601941Y-87620071D02*
X163316227Y-87620071D01*
X163316227Y-86120071D01*
X162101941Y-87620071D02*
X162101941Y-86620071D01*
X162101941Y-86120071D02*
X162173370Y-86191500D01*
X162101941Y-86262929D01*
X162030513Y-86191500D01*
X162101941Y-86120071D01*
X162101941Y-86262929D01*
X161173369Y-87620071D02*
X161316227Y-87548643D01*
X161387655Y-87405786D01*
X161387655Y-86120071D01*
X160387655Y-87620071D02*
X160530513Y-87548643D01*
X160601941Y-87405786D01*
X160601941Y-86120071D01*
X159244799Y-87548643D02*
X159387656Y-87620071D01*
X159673370Y-87620071D01*
X159816227Y-87548643D01*
X159887656Y-87405786D01*
X159887656Y-86834357D01*
X159816227Y-86691500D01*
X159673370Y-86620071D01*
X159387656Y-86620071D01*
X159244799Y-86691500D01*
X159173370Y-86834357D01*
X159173370Y-86977214D01*
X159887656Y-87120071D01*
X158530513Y-87620071D02*
X158530513Y-86620071D01*
X158530513Y-86905786D02*
X158459085Y-86762929D01*
X158387656Y-86691500D01*
X158244799Y-86620071D01*
X158101942Y-86620071D01*
X156959085Y-86620071D02*
X156959085Y-87620071D01*
X157601942Y-86620071D02*
X157601942Y-87405786D01*
X157530514Y-87548643D01*
X157387656Y-87620071D01*
X157173371Y-87620071D01*
X157030514Y-87548643D01*
X156959085Y-87477214D01*
X155601942Y-87620071D02*
X155601942Y-86120071D01*
X155601942Y-87548643D02*
X155744799Y-87620071D01*
X156030513Y-87620071D01*
X156173371Y-87548643D01*
X156244799Y-87477214D01*
X156316228Y-87334357D01*
X156316228Y-86905786D01*
X156244799Y-86762929D01*
X156173371Y-86691500D01*
X156030513Y-86620071D01*
X155744799Y-86620071D01*
X155601942Y-86691500D01*
X154816228Y-87548643D02*
X154816228Y-87620071D01*
X154887656Y-87762929D01*
X154959085Y-87834357D01*
X152244799Y-87620071D02*
X153101942Y-87620071D01*
X152673370Y-87620071D02*
X152673370Y-86120071D01*
X152816227Y-86334357D01*
X152959085Y-86477214D01*
X153101942Y-86548643D01*
X150816228Y-87620071D02*
X151673371Y-87620071D01*
X151244799Y-87620071D02*
X151244799Y-86120071D01*
X151387656Y-86334357D01*
X151530514Y-86477214D01*
X151673371Y-86548643D01*
X150173371Y-87477214D02*
X150101943Y-87548643D01*
X150173371Y-87620071D01*
X150244800Y-87548643D01*
X150173371Y-87477214D01*
X150173371Y-87620071D01*
X149673371Y-86620071D02*
X149101942Y-86620071D01*
X149459085Y-87620071D02*
X149459085Y-86334357D01*
X149387657Y-86191500D01*
X149244799Y-86120071D01*
X149101942Y-86120071D01*
X148030514Y-87548643D02*
X148173371Y-87620071D01*
X148459085Y-87620071D01*
X148601942Y-87548643D01*
X148673371Y-87405786D01*
X148673371Y-86834357D01*
X148601942Y-86691500D01*
X148459085Y-86620071D01*
X148173371Y-86620071D01*
X148030514Y-86691500D01*
X147959085Y-86834357D01*
X147959085Y-86977214D01*
X148673371Y-87120071D01*
X147316228Y-87620071D02*
X147316228Y-86120071D01*
X147316228Y-86691500D02*
X147173371Y-86620071D01*
X146887657Y-86620071D01*
X146744800Y-86691500D01*
X146673371Y-86762929D01*
X146601942Y-86905786D01*
X146601942Y-87334357D01*
X146673371Y-87477214D01*
X146744800Y-87548643D01*
X146887657Y-87620071D01*
X147173371Y-87620071D01*
X147316228Y-87548643D01*
X144887657Y-86262929D02*
X144816228Y-86191500D01*
X144673371Y-86120071D01*
X144316228Y-86120071D01*
X144173371Y-86191500D01*
X144101942Y-86262929D01*
X144030514Y-86405786D01*
X144030514Y-86548643D01*
X144101942Y-86762929D01*
X144959085Y-87620071D01*
X144030514Y-87620071D01*
X143101943Y-86120071D02*
X142959086Y-86120071D01*
X142816229Y-86191500D01*
X142744800Y-86262929D01*
X142673371Y-86405786D01*
X142601943Y-86691500D01*
X142601943Y-87048643D01*
X142673371Y-87334357D01*
X142744800Y-87477214D01*
X142816229Y-87548643D01*
X142959086Y-87620071D01*
X143101943Y-87620071D01*
X143244800Y-87548643D01*
X143316229Y-87477214D01*
X143387657Y-87334357D01*
X143459086Y-87048643D01*
X143459086Y-86691500D01*
X143387657Y-86405786D01*
X143316229Y-86262929D01*
X143244800Y-86191500D01*
X143101943Y-86120071D01*
X141173372Y-87620071D02*
X142030515Y-87620071D01*
X141601943Y-87620071D02*
X141601943Y-86120071D01*
X141744800Y-86334357D01*
X141887658Y-86477214D01*
X142030515Y-86548643D01*
X140673372Y-86120071D02*
X139673372Y-86120071D01*
X140316229Y-87620071D01*
M02*
