G04 #@! TF.FileFunction,Legend,Top*
%FSLAX46Y46*%
G04 Gerber Fmt 4.6, Leading zero omitted, Abs format (unit mm)*
G04 Created by KiCad (PCBNEW 4.0.5-e0-6337~49~ubuntu16.04.1) date Tue Feb 21 22:55:49 2017*
%MOMM*%
%LPD*%
G01*
G04 APERTURE LIST*
%ADD10C,0.100000*%
%ADD11C,0.120000*%
%ADD12C,0.150000*%
%ADD13C,0.500000*%
G04 APERTURE END LIST*
D10*
D11*
X138223700Y-77337400D02*
X138223700Y-76637400D01*
X139423700Y-76637400D02*
X139423700Y-77337400D01*
X139360200Y-71976500D02*
X139360200Y-72676500D01*
X138160200Y-72676500D02*
X138160200Y-71976500D01*
X170545200Y-80677500D02*
X170545200Y-79977500D01*
X171745200Y-79977500D02*
X171745200Y-80677500D01*
X165716700Y-80216300D02*
X165016700Y-80216300D01*
X165016700Y-79016300D02*
X165716700Y-79016300D01*
X132695200Y-97952000D02*
X133395200Y-97952000D01*
X133395200Y-99152000D02*
X132695200Y-99152000D01*
X169741100Y-76387400D02*
X170441100Y-76387400D01*
X170441100Y-77587400D02*
X169741100Y-77587400D01*
X127705600Y-107140300D02*
X127005600Y-107140300D01*
X127005600Y-105940300D02*
X127705600Y-105940300D01*
X128404100Y-98974200D02*
X127704100Y-98974200D01*
X127704100Y-97774200D02*
X128404100Y-97774200D01*
X127604000Y-103584300D02*
X126904000Y-103584300D01*
X126904000Y-102384300D02*
X127604000Y-102384300D01*
X168551300Y-109989100D02*
X168551300Y-109289100D01*
X169751300Y-109289100D02*
X169751300Y-109989100D01*
X159442900Y-72062900D02*
X158742900Y-72062900D01*
X158742900Y-70862900D02*
X159442900Y-70862900D01*
X126563700Y-80983200D02*
X126563700Y-81983200D01*
X126563700Y-81983200D02*
X128663700Y-81983200D01*
X126563700Y-80983200D02*
X128663700Y-80983200D01*
X135266700Y-74197000D02*
X131966700Y-74197000D01*
X131966700Y-74197000D02*
X131966700Y-79597000D01*
X135266700Y-74197000D02*
X135266700Y-79597000D01*
X130576800Y-109570900D02*
X130576800Y-110570900D01*
X130576800Y-110570900D02*
X132676800Y-110570900D01*
X130576800Y-109570900D02*
X132676800Y-109570900D01*
X130576800Y-111768000D02*
X130576800Y-112768000D01*
X130576800Y-112768000D02*
X132676800Y-112768000D01*
X130576800Y-111768000D02*
X132676800Y-111768000D01*
X121928600Y-85515200D02*
X121928600Y-94215200D01*
X128338600Y-85515200D02*
X128338600Y-94215200D01*
X128338600Y-94215200D02*
X121928600Y-94215200D01*
X123158600Y-94215200D02*
X123158600Y-85515200D01*
X121928600Y-85515200D02*
X128338600Y-85515200D01*
D12*
X142189200Y-93878400D02*
X141689200Y-93878400D01*
X142189200Y-93878400D02*
X142689200Y-93878400D01*
X142189200Y-93878400D02*
X142189200Y-92878400D01*
X142189200Y-93878400D02*
X142189200Y-94878400D01*
X145189200Y-81128400D02*
X140439200Y-81128400D01*
X139189200Y-82378400D02*
X140439200Y-81128400D01*
X139189200Y-82378400D02*
X139189200Y-84378400D01*
X145189200Y-84378400D02*
X145189200Y-81128400D01*
X139189200Y-106628400D02*
X139189200Y-103378400D01*
X145189200Y-106628400D02*
X139189200Y-106628400D01*
X145189200Y-103378400D02*
X145189200Y-106628400D01*
D11*
X132582800Y-86167500D02*
X133512800Y-86167500D01*
X135742800Y-86167500D02*
X134812800Y-86167500D01*
X135742800Y-86167500D02*
X135742800Y-84007500D01*
X132582800Y-86167500D02*
X132582800Y-84707500D01*
X148630100Y-107652700D02*
X148630100Y-108582700D01*
X148630100Y-110812700D02*
X148630100Y-109882700D01*
X148630100Y-110812700D02*
X150790100Y-110812700D01*
X148630100Y-107652700D02*
X150090100Y-107652700D01*
D12*
X127452500Y-78230100D02*
X128452500Y-78230100D01*
X128452500Y-79580100D02*
X127452500Y-79580100D01*
X133777100Y-89444200D02*
X134777100Y-89444200D01*
X134777100Y-90794200D02*
X133777100Y-90794200D01*
X144381600Y-109053000D02*
X145381600Y-109053000D01*
X145381600Y-110403000D02*
X144381600Y-110403000D01*
X155389200Y-113197000D02*
X154389200Y-113197000D01*
X154389200Y-111847000D02*
X155389200Y-111847000D01*
X155338400Y-111469800D02*
X154338400Y-111469800D01*
X154338400Y-110119800D02*
X155338400Y-110119800D01*
X141924400Y-108224700D02*
X141924400Y-109224700D01*
X140574400Y-109224700D02*
X140574400Y-108224700D01*
X150865200Y-113177700D02*
X150865200Y-114177700D01*
X149515200Y-114177700D02*
X149515200Y-113177700D01*
X135666100Y-110822100D02*
X134666100Y-110822100D01*
X134666100Y-109472100D02*
X135666100Y-109472100D01*
X167777800Y-80699800D02*
X167777800Y-79699800D01*
X169127800Y-79699800D02*
X169127800Y-80699800D01*
X132478400Y-116651400D02*
X131478400Y-116651400D01*
X131478400Y-115301400D02*
X132478400Y-115301400D01*
X134910200Y-114330100D02*
X134910200Y-113330100D01*
X136260200Y-113330100D02*
X136260200Y-114330100D01*
X149773000Y-96528000D02*
X149773000Y-97528000D01*
X148423000Y-97528000D02*
X148423000Y-96528000D01*
X159215200Y-113777400D02*
X160215200Y-113777400D01*
X160215200Y-115127400D02*
X159215200Y-115127400D01*
X164736400Y-115178200D02*
X163736400Y-115178200D01*
X163736400Y-113828200D02*
X164736400Y-113828200D01*
X163190300Y-70851400D02*
X164190300Y-70851400D01*
X164190300Y-72201400D02*
X163190300Y-72201400D01*
X165367200Y-109248000D02*
X165367200Y-109348000D01*
X165367200Y-112748000D02*
X165367200Y-112648000D01*
X160667200Y-112648000D02*
X160667200Y-112748000D01*
X160667200Y-109248000D02*
X160667200Y-109348000D01*
X160667200Y-110648000D02*
X160667200Y-111348000D01*
X165367200Y-110648000D02*
X165367200Y-111348000D01*
X165367200Y-109248000D02*
X160667200Y-109248000D01*
X160667200Y-112748000D02*
X165367200Y-112748000D01*
X163917200Y-110998000D02*
G75*
G03X163917200Y-110998000I-900000J0D01*
G01*
X159257500Y-78343700D02*
X159257500Y-78243700D01*
X159257500Y-74843700D02*
X159257500Y-74943700D01*
X163957500Y-74943700D02*
X163957500Y-74843700D01*
X163957500Y-78343700D02*
X163957500Y-78243700D01*
X163957500Y-76943700D02*
X163957500Y-76243700D01*
X159257500Y-76943700D02*
X159257500Y-76243700D01*
X159257500Y-78343700D02*
X163957500Y-78343700D01*
X163957500Y-74843700D02*
X159257500Y-74843700D01*
X162507500Y-76593700D02*
G75*
G03X162507500Y-76593700I-900000J0D01*
G01*
D11*
X146131600Y-71626000D02*
X146131600Y-71276000D01*
X146131600Y-71276000D02*
X147631600Y-71276000D01*
X146131600Y-76276000D02*
X146131600Y-73076000D01*
X147631600Y-78076000D02*
X146131600Y-78076000D01*
X146131600Y-78076000D02*
X146131600Y-77676000D01*
D12*
X139555400Y-111521800D02*
X139555400Y-111571800D01*
X143705400Y-111521800D02*
X143705400Y-111666800D01*
X143705400Y-116671800D02*
X143705400Y-116526800D01*
X139555400Y-116671800D02*
X139555400Y-116526800D01*
X139555400Y-111521800D02*
X143705400Y-111521800D01*
X139555400Y-116671800D02*
X143705400Y-116671800D01*
X139555400Y-111571800D02*
X138155400Y-111571800D01*
X135873400Y-107323800D02*
X135123400Y-107323800D01*
X130623400Y-102073800D02*
X131373400Y-102073800D01*
X130623400Y-107323800D02*
X131373400Y-107323800D01*
X135873400Y-102073800D02*
X135873400Y-102823800D01*
X130623400Y-102073800D02*
X130623400Y-102823800D01*
X130623400Y-107323800D02*
X130623400Y-106573800D01*
X135873400Y-107323800D02*
X135873400Y-106573800D01*
D13*
X173167981Y-84374000D02*
G75*
G03X173167981Y-84374000I-283981J0D01*
G01*
D12*
X173030000Y-103280000D02*
X173030000Y-85280000D01*
X179030000Y-85280000D02*
X153530000Y-85280000D01*
X179030000Y-103280000D02*
X153530000Y-103280000D01*
X153530000Y-103280000D02*
X153530000Y-85280000D01*
X179030000Y-103280000D02*
X179030000Y-85280000D01*
D11*
X151519100Y-115400200D02*
X151519100Y-116400200D01*
X151519100Y-116400200D02*
X153619100Y-116400200D01*
X151519100Y-115400200D02*
X153619100Y-115400200D01*
D12*
X156494100Y-116600600D02*
X155494100Y-116600600D01*
X155494100Y-115250600D02*
X156494100Y-115250600D01*
X137280843Y-77154066D02*
X137328462Y-77201685D01*
X137376081Y-77344542D01*
X137376081Y-77439780D01*
X137328462Y-77582638D01*
X137233224Y-77677876D01*
X137137986Y-77725495D01*
X136947510Y-77773114D01*
X136804652Y-77773114D01*
X136614176Y-77725495D01*
X136518938Y-77677876D01*
X136423700Y-77582638D01*
X136376081Y-77439780D01*
X136376081Y-77344542D01*
X136423700Y-77201685D01*
X136471319Y-77154066D01*
X137376081Y-76201685D02*
X137376081Y-76773114D01*
X137376081Y-76487400D02*
X136376081Y-76487400D01*
X136518938Y-76582638D01*
X136614176Y-76677876D01*
X136661795Y-76773114D01*
X141017343Y-72493166D02*
X141064962Y-72540785D01*
X141112581Y-72683642D01*
X141112581Y-72778880D01*
X141064962Y-72921738D01*
X140969724Y-73016976D01*
X140874486Y-73064595D01*
X140684010Y-73112214D01*
X140541152Y-73112214D01*
X140350676Y-73064595D01*
X140255438Y-73016976D01*
X140160200Y-72921738D01*
X140112581Y-72778880D01*
X140112581Y-72683642D01*
X140160200Y-72540785D01*
X140207819Y-72493166D01*
X140207819Y-72112214D02*
X140160200Y-72064595D01*
X140112581Y-71969357D01*
X140112581Y-71731261D01*
X140160200Y-71636023D01*
X140207819Y-71588404D01*
X140303057Y-71540785D01*
X140398295Y-71540785D01*
X140541152Y-71588404D01*
X141112581Y-72159833D01*
X141112581Y-71540785D01*
X169602343Y-80494166D02*
X169649962Y-80541785D01*
X169697581Y-80684642D01*
X169697581Y-80779880D01*
X169649962Y-80922738D01*
X169554724Y-81017976D01*
X169459486Y-81065595D01*
X169269010Y-81113214D01*
X169126152Y-81113214D01*
X168935676Y-81065595D01*
X168840438Y-81017976D01*
X168745200Y-80922738D01*
X168697581Y-80779880D01*
X168697581Y-80684642D01*
X168745200Y-80541785D01*
X168792819Y-80494166D01*
X168697581Y-80160833D02*
X168697581Y-79541785D01*
X169078533Y-79875119D01*
X169078533Y-79732261D01*
X169126152Y-79637023D01*
X169173771Y-79589404D01*
X169269010Y-79541785D01*
X169507105Y-79541785D01*
X169602343Y-79589404D01*
X169649962Y-79637023D01*
X169697581Y-79732261D01*
X169697581Y-80017976D01*
X169649962Y-80113214D01*
X169602343Y-80160833D01*
X165200034Y-81873443D02*
X165152415Y-81921062D01*
X165009558Y-81968681D01*
X164914320Y-81968681D01*
X164771462Y-81921062D01*
X164676224Y-81825824D01*
X164628605Y-81730586D01*
X164580986Y-81540110D01*
X164580986Y-81397252D01*
X164628605Y-81206776D01*
X164676224Y-81111538D01*
X164771462Y-81016300D01*
X164914320Y-80968681D01*
X165009558Y-80968681D01*
X165152415Y-81016300D01*
X165200034Y-81063919D01*
X166057177Y-81302014D02*
X166057177Y-81968681D01*
X165819081Y-80921062D02*
X165580986Y-81635348D01*
X166200034Y-81635348D01*
X132878534Y-97009143D02*
X132830915Y-97056762D01*
X132688058Y-97104381D01*
X132592820Y-97104381D01*
X132449962Y-97056762D01*
X132354724Y-96961524D01*
X132307105Y-96866286D01*
X132259486Y-96675810D01*
X132259486Y-96532952D01*
X132307105Y-96342476D01*
X132354724Y-96247238D01*
X132449962Y-96152000D01*
X132592820Y-96104381D01*
X132688058Y-96104381D01*
X132830915Y-96152000D01*
X132878534Y-96199619D01*
X133783296Y-96104381D02*
X133307105Y-96104381D01*
X133259486Y-96580571D01*
X133307105Y-96532952D01*
X133402343Y-96485333D01*
X133640439Y-96485333D01*
X133735677Y-96532952D01*
X133783296Y-96580571D01*
X133830915Y-96675810D01*
X133830915Y-96913905D01*
X133783296Y-97009143D01*
X133735677Y-97056762D01*
X133640439Y-97104381D01*
X133402343Y-97104381D01*
X133307105Y-97056762D01*
X133259486Y-97009143D01*
X169924434Y-75444543D02*
X169876815Y-75492162D01*
X169733958Y-75539781D01*
X169638720Y-75539781D01*
X169495862Y-75492162D01*
X169400624Y-75396924D01*
X169353005Y-75301686D01*
X169305386Y-75111210D01*
X169305386Y-74968352D01*
X169353005Y-74777876D01*
X169400624Y-74682638D01*
X169495862Y-74587400D01*
X169638720Y-74539781D01*
X169733958Y-74539781D01*
X169876815Y-74587400D01*
X169924434Y-74635019D01*
X170781577Y-74539781D02*
X170591100Y-74539781D01*
X170495862Y-74587400D01*
X170448243Y-74635019D01*
X170353005Y-74777876D01*
X170305386Y-74968352D01*
X170305386Y-75349305D01*
X170353005Y-75444543D01*
X170400624Y-75492162D01*
X170495862Y-75539781D01*
X170686339Y-75539781D01*
X170781577Y-75492162D01*
X170829196Y-75444543D01*
X170876815Y-75349305D01*
X170876815Y-75111210D01*
X170829196Y-75015971D01*
X170781577Y-74968352D01*
X170686339Y-74920733D01*
X170495862Y-74920733D01*
X170400624Y-74968352D01*
X170353005Y-75015971D01*
X170305386Y-75111210D01*
X127188934Y-108797443D02*
X127141315Y-108845062D01*
X126998458Y-108892681D01*
X126903220Y-108892681D01*
X126760362Y-108845062D01*
X126665124Y-108749824D01*
X126617505Y-108654586D01*
X126569886Y-108464110D01*
X126569886Y-108321252D01*
X126617505Y-108130776D01*
X126665124Y-108035538D01*
X126760362Y-107940300D01*
X126903220Y-107892681D01*
X126998458Y-107892681D01*
X127141315Y-107940300D01*
X127188934Y-107987919D01*
X127522267Y-107892681D02*
X128188934Y-107892681D01*
X127760362Y-108892681D01*
X127887434Y-100631343D02*
X127839815Y-100678962D01*
X127696958Y-100726581D01*
X127601720Y-100726581D01*
X127458862Y-100678962D01*
X127363624Y-100583724D01*
X127316005Y-100488486D01*
X127268386Y-100298010D01*
X127268386Y-100155152D01*
X127316005Y-99964676D01*
X127363624Y-99869438D01*
X127458862Y-99774200D01*
X127601720Y-99726581D01*
X127696958Y-99726581D01*
X127839815Y-99774200D01*
X127887434Y-99821819D01*
X128458862Y-100155152D02*
X128363624Y-100107533D01*
X128316005Y-100059914D01*
X128268386Y-99964676D01*
X128268386Y-99917057D01*
X128316005Y-99821819D01*
X128363624Y-99774200D01*
X128458862Y-99726581D01*
X128649339Y-99726581D01*
X128744577Y-99774200D01*
X128792196Y-99821819D01*
X128839815Y-99917057D01*
X128839815Y-99964676D01*
X128792196Y-100059914D01*
X128744577Y-100107533D01*
X128649339Y-100155152D01*
X128458862Y-100155152D01*
X128363624Y-100202771D01*
X128316005Y-100250390D01*
X128268386Y-100345629D01*
X128268386Y-100536105D01*
X128316005Y-100631343D01*
X128363624Y-100678962D01*
X128458862Y-100726581D01*
X128649339Y-100726581D01*
X128744577Y-100678962D01*
X128792196Y-100631343D01*
X128839815Y-100536105D01*
X128839815Y-100345629D01*
X128792196Y-100250390D01*
X128744577Y-100202771D01*
X128649339Y-100155152D01*
X127087334Y-105241443D02*
X127039715Y-105289062D01*
X126896858Y-105336681D01*
X126801620Y-105336681D01*
X126658762Y-105289062D01*
X126563524Y-105193824D01*
X126515905Y-105098586D01*
X126468286Y-104908110D01*
X126468286Y-104765252D01*
X126515905Y-104574776D01*
X126563524Y-104479538D01*
X126658762Y-104384300D01*
X126801620Y-104336681D01*
X126896858Y-104336681D01*
X127039715Y-104384300D01*
X127087334Y-104431919D01*
X127563524Y-105336681D02*
X127754000Y-105336681D01*
X127849239Y-105289062D01*
X127896858Y-105241443D01*
X127992096Y-105098586D01*
X128039715Y-104908110D01*
X128039715Y-104527157D01*
X127992096Y-104431919D01*
X127944477Y-104384300D01*
X127849239Y-104336681D01*
X127658762Y-104336681D01*
X127563524Y-104384300D01*
X127515905Y-104431919D01*
X127468286Y-104527157D01*
X127468286Y-104765252D01*
X127515905Y-104860490D01*
X127563524Y-104908110D01*
X127658762Y-104955729D01*
X127849239Y-104955729D01*
X127944477Y-104908110D01*
X127992096Y-104860490D01*
X128039715Y-104765252D01*
X167608443Y-110281957D02*
X167656062Y-110329576D01*
X167703681Y-110472433D01*
X167703681Y-110567671D01*
X167656062Y-110710529D01*
X167560824Y-110805767D01*
X167465586Y-110853386D01*
X167275110Y-110901005D01*
X167132252Y-110901005D01*
X166941776Y-110853386D01*
X166846538Y-110805767D01*
X166751300Y-110710529D01*
X166703681Y-110567671D01*
X166703681Y-110472433D01*
X166751300Y-110329576D01*
X166798919Y-110281957D01*
X167703681Y-109329576D02*
X167703681Y-109901005D01*
X167703681Y-109615291D02*
X166703681Y-109615291D01*
X166846538Y-109710529D01*
X166941776Y-109805767D01*
X166989395Y-109901005D01*
X166703681Y-108710529D02*
X166703681Y-108615290D01*
X166751300Y-108520052D01*
X166798919Y-108472433D01*
X166894157Y-108424814D01*
X167084633Y-108377195D01*
X167322729Y-108377195D01*
X167513205Y-108424814D01*
X167608443Y-108472433D01*
X167656062Y-108520052D01*
X167703681Y-108615290D01*
X167703681Y-108710529D01*
X167656062Y-108805767D01*
X167608443Y-108853386D01*
X167513205Y-108901005D01*
X167322729Y-108948624D01*
X167084633Y-108948624D01*
X166894157Y-108901005D01*
X166798919Y-108853386D01*
X166751300Y-108805767D01*
X166703681Y-108710529D01*
X158450043Y-73720043D02*
X158402424Y-73767662D01*
X158259567Y-73815281D01*
X158164329Y-73815281D01*
X158021471Y-73767662D01*
X157926233Y-73672424D01*
X157878614Y-73577186D01*
X157830995Y-73386710D01*
X157830995Y-73243852D01*
X157878614Y-73053376D01*
X157926233Y-72958138D01*
X158021471Y-72862900D01*
X158164329Y-72815281D01*
X158259567Y-72815281D01*
X158402424Y-72862900D01*
X158450043Y-72910519D01*
X159402424Y-73815281D02*
X158830995Y-73815281D01*
X159116709Y-73815281D02*
X159116709Y-72815281D01*
X159021471Y-72958138D01*
X158926233Y-73053376D01*
X158830995Y-73100995D01*
X160354805Y-73815281D02*
X159783376Y-73815281D01*
X160069090Y-73815281D02*
X160069090Y-72815281D01*
X159973852Y-72958138D01*
X159878614Y-73053376D01*
X159783376Y-73100995D01*
X127125605Y-80685581D02*
X127125605Y-79685581D01*
X127363700Y-79685581D01*
X127506558Y-79733200D01*
X127601796Y-79828438D01*
X127649415Y-79923676D01*
X127697034Y-80114152D01*
X127697034Y-80257010D01*
X127649415Y-80447486D01*
X127601796Y-80542724D01*
X127506558Y-80637962D01*
X127363700Y-80685581D01*
X127125605Y-80685581D01*
X128649415Y-80685581D02*
X128077986Y-80685581D01*
X128363700Y-80685581D02*
X128363700Y-79685581D01*
X128268462Y-79828438D01*
X128173224Y-79923676D01*
X128077986Y-79971295D01*
X137879081Y-78335095D02*
X136879081Y-78335095D01*
X136879081Y-78097000D01*
X136926700Y-77954142D01*
X137021938Y-77858904D01*
X137117176Y-77811285D01*
X137307652Y-77763666D01*
X137450510Y-77763666D01*
X137640986Y-77811285D01*
X137736224Y-77858904D01*
X137831462Y-77954142D01*
X137879081Y-78097000D01*
X137879081Y-78335095D01*
X136974319Y-77382714D02*
X136926700Y-77335095D01*
X136879081Y-77239857D01*
X136879081Y-77001761D01*
X136926700Y-76906523D01*
X136974319Y-76858904D01*
X137069557Y-76811285D01*
X137164795Y-76811285D01*
X137307652Y-76858904D01*
X137879081Y-77430333D01*
X137879081Y-76811285D01*
X131138705Y-109273281D02*
X131138705Y-108273281D01*
X131376800Y-108273281D01*
X131519658Y-108320900D01*
X131614896Y-108416138D01*
X131662515Y-108511376D01*
X131710134Y-108701852D01*
X131710134Y-108844710D01*
X131662515Y-109035186D01*
X131614896Y-109130424D01*
X131519658Y-109225662D01*
X131376800Y-109273281D01*
X131138705Y-109273281D01*
X132043467Y-108273281D02*
X132662515Y-108273281D01*
X132329181Y-108654233D01*
X132472039Y-108654233D01*
X132567277Y-108701852D01*
X132614896Y-108749471D01*
X132662515Y-108844710D01*
X132662515Y-109082805D01*
X132614896Y-109178043D01*
X132567277Y-109225662D01*
X132472039Y-109273281D01*
X132186324Y-109273281D01*
X132091086Y-109225662D01*
X132043467Y-109178043D01*
X131138705Y-111470381D02*
X131138705Y-110470381D01*
X131376800Y-110470381D01*
X131519658Y-110518000D01*
X131614896Y-110613238D01*
X131662515Y-110708476D01*
X131710134Y-110898952D01*
X131710134Y-111041810D01*
X131662515Y-111232286D01*
X131614896Y-111327524D01*
X131519658Y-111422762D01*
X131376800Y-111470381D01*
X131138705Y-111470381D01*
X132567277Y-110803714D02*
X132567277Y-111470381D01*
X132329181Y-110422762D02*
X132091086Y-111137048D01*
X132710134Y-111137048D01*
X129650981Y-90603295D02*
X128650981Y-90603295D01*
X128650981Y-90222342D01*
X128698600Y-90127104D01*
X128746219Y-90079485D01*
X128841457Y-90031866D01*
X128984314Y-90031866D01*
X129079552Y-90079485D01*
X129127171Y-90127104D01*
X129174790Y-90222342D01*
X129174790Y-90603295D01*
X129650981Y-89079485D02*
X129650981Y-89650914D01*
X129650981Y-89365200D02*
X128650981Y-89365200D01*
X128793838Y-89460438D01*
X128889076Y-89555676D01*
X128936695Y-89650914D01*
X147641581Y-94616495D02*
X146641581Y-94616495D01*
X146641581Y-94235542D01*
X146689200Y-94140304D01*
X146736819Y-94092685D01*
X146832057Y-94045066D01*
X146974914Y-94045066D01*
X147070152Y-94092685D01*
X147117771Y-94140304D01*
X147165390Y-94235542D01*
X147165390Y-94616495D01*
X146736819Y-93664114D02*
X146689200Y-93616495D01*
X146641581Y-93521257D01*
X146641581Y-93283161D01*
X146689200Y-93187923D01*
X146736819Y-93140304D01*
X146832057Y-93092685D01*
X146927295Y-93092685D01*
X147070152Y-93140304D01*
X147641581Y-93711733D01*
X147641581Y-93092685D01*
X137210419Y-85502738D02*
X137162800Y-85597976D01*
X137067562Y-85693214D01*
X136924705Y-85836071D01*
X136877086Y-85931310D01*
X136877086Y-86026548D01*
X137115181Y-85978929D02*
X137067562Y-86074167D01*
X136972324Y-86169405D01*
X136781848Y-86217024D01*
X136448514Y-86217024D01*
X136258038Y-86169405D01*
X136162800Y-86074167D01*
X136115181Y-85978929D01*
X136115181Y-85788452D01*
X136162800Y-85693214D01*
X136258038Y-85597976D01*
X136448514Y-85550357D01*
X136781848Y-85550357D01*
X136972324Y-85597976D01*
X137067562Y-85693214D01*
X137115181Y-85788452D01*
X137115181Y-85978929D01*
X137115181Y-84597976D02*
X137115181Y-85169405D01*
X137115181Y-84883691D02*
X136115181Y-84883691D01*
X136258038Y-84978929D01*
X136353276Y-85074167D01*
X136400895Y-85169405D01*
X149294862Y-112280319D02*
X149199624Y-112232700D01*
X149104386Y-112137462D01*
X148961529Y-111994605D01*
X148866290Y-111946986D01*
X148771052Y-111946986D01*
X148818671Y-112185081D02*
X148723433Y-112137462D01*
X148628195Y-112042224D01*
X148580576Y-111851748D01*
X148580576Y-111518414D01*
X148628195Y-111327938D01*
X148723433Y-111232700D01*
X148818671Y-111185081D01*
X149009148Y-111185081D01*
X149104386Y-111232700D01*
X149199624Y-111327938D01*
X149247243Y-111518414D01*
X149247243Y-111851748D01*
X149199624Y-112042224D01*
X149104386Y-112137462D01*
X149009148Y-112185081D01*
X148818671Y-112185081D01*
X149628195Y-111280319D02*
X149675814Y-111232700D01*
X149771052Y-111185081D01*
X150009148Y-111185081D01*
X150104386Y-111232700D01*
X150152005Y-111280319D01*
X150199624Y-111375557D01*
X150199624Y-111470795D01*
X150152005Y-111613652D01*
X149580576Y-112185081D01*
X150199624Y-112185081D01*
X127785834Y-81257481D02*
X127452500Y-80781290D01*
X127214405Y-81257481D02*
X127214405Y-80257481D01*
X127595358Y-80257481D01*
X127690596Y-80305100D01*
X127738215Y-80352719D01*
X127785834Y-80447957D01*
X127785834Y-80590814D01*
X127738215Y-80686052D01*
X127690596Y-80733671D01*
X127595358Y-80781290D01*
X127214405Y-80781290D01*
X128738215Y-81257481D02*
X128166786Y-81257481D01*
X128452500Y-81257481D02*
X128452500Y-80257481D01*
X128357262Y-80400338D01*
X128262024Y-80495576D01*
X128166786Y-80543195D01*
X134110434Y-92471581D02*
X133777100Y-91995390D01*
X133539005Y-92471581D02*
X133539005Y-91471581D01*
X133919958Y-91471581D01*
X134015196Y-91519200D01*
X134062815Y-91566819D01*
X134110434Y-91662057D01*
X134110434Y-91804914D01*
X134062815Y-91900152D01*
X134015196Y-91947771D01*
X133919958Y-91995390D01*
X133539005Y-91995390D01*
X134491386Y-91566819D02*
X134539005Y-91519200D01*
X134634243Y-91471581D01*
X134872339Y-91471581D01*
X134967577Y-91519200D01*
X135015196Y-91566819D01*
X135062815Y-91662057D01*
X135062815Y-91757295D01*
X135015196Y-91900152D01*
X134443767Y-92471581D01*
X135062815Y-92471581D01*
X144714934Y-112080381D02*
X144381600Y-111604190D01*
X144143505Y-112080381D02*
X144143505Y-111080381D01*
X144524458Y-111080381D01*
X144619696Y-111128000D01*
X144667315Y-111175619D01*
X144714934Y-111270857D01*
X144714934Y-111413714D01*
X144667315Y-111508952D01*
X144619696Y-111556571D01*
X144524458Y-111604190D01*
X144143505Y-111604190D01*
X145048267Y-111080381D02*
X145667315Y-111080381D01*
X145333981Y-111461333D01*
X145476839Y-111461333D01*
X145572077Y-111508952D01*
X145619696Y-111556571D01*
X145667315Y-111651810D01*
X145667315Y-111889905D01*
X145619696Y-111985143D01*
X145572077Y-112032762D01*
X145476839Y-112080381D01*
X145191124Y-112080381D01*
X145095886Y-112032762D01*
X145048267Y-111985143D01*
X154722534Y-111074381D02*
X154389200Y-110598190D01*
X154151105Y-111074381D02*
X154151105Y-110074381D01*
X154532058Y-110074381D01*
X154627296Y-110122000D01*
X154674915Y-110169619D01*
X154722534Y-110264857D01*
X154722534Y-110407714D01*
X154674915Y-110502952D01*
X154627296Y-110550571D01*
X154532058Y-110598190D01*
X154151105Y-110598190D01*
X155579677Y-110407714D02*
X155579677Y-111074381D01*
X155341581Y-110026762D02*
X155103486Y-110741048D01*
X155722534Y-110741048D01*
X154151734Y-109977181D02*
X153818400Y-109500990D01*
X153580305Y-109977181D02*
X153580305Y-108977181D01*
X153961258Y-108977181D01*
X154056496Y-109024800D01*
X154104115Y-109072419D01*
X154151734Y-109167657D01*
X154151734Y-109310514D01*
X154104115Y-109405752D01*
X154056496Y-109453371D01*
X153961258Y-109500990D01*
X153580305Y-109500990D01*
X155056496Y-108977181D02*
X154580305Y-108977181D01*
X154532686Y-109453371D01*
X154580305Y-109405752D01*
X154675543Y-109358133D01*
X154913639Y-109358133D01*
X155008877Y-109405752D01*
X155056496Y-109453371D01*
X155104115Y-109548610D01*
X155104115Y-109786705D01*
X155056496Y-109881943D01*
X155008877Y-109929562D01*
X154913639Y-109977181D01*
X154675543Y-109977181D01*
X154580305Y-109929562D01*
X154532686Y-109881943D01*
X139801781Y-108891366D02*
X139325590Y-109224700D01*
X139801781Y-109462795D02*
X138801781Y-109462795D01*
X138801781Y-109081842D01*
X138849400Y-108986604D01*
X138897019Y-108938985D01*
X138992257Y-108891366D01*
X139135114Y-108891366D01*
X139230352Y-108938985D01*
X139277971Y-108986604D01*
X139325590Y-109081842D01*
X139325590Y-109462795D01*
X138801781Y-108034223D02*
X138801781Y-108224700D01*
X138849400Y-108319938D01*
X138897019Y-108367557D01*
X139039876Y-108462795D01*
X139230352Y-108510414D01*
X139611305Y-108510414D01*
X139706543Y-108462795D01*
X139754162Y-108415176D01*
X139801781Y-108319938D01*
X139801781Y-108129461D01*
X139754162Y-108034223D01*
X139706543Y-107986604D01*
X139611305Y-107938985D01*
X139373210Y-107938985D01*
X139277971Y-107986604D01*
X139230352Y-108034223D01*
X139182733Y-108129461D01*
X139182733Y-108319938D01*
X139230352Y-108415176D01*
X139277971Y-108462795D01*
X139373210Y-108510414D01*
X148742581Y-113844366D02*
X148266390Y-114177700D01*
X148742581Y-114415795D02*
X147742581Y-114415795D01*
X147742581Y-114034842D01*
X147790200Y-113939604D01*
X147837819Y-113891985D01*
X147933057Y-113844366D01*
X148075914Y-113844366D01*
X148171152Y-113891985D01*
X148218771Y-113939604D01*
X148266390Y-114034842D01*
X148266390Y-114415795D01*
X147742581Y-113511033D02*
X147742581Y-112844366D01*
X148742581Y-113272938D01*
X134999434Y-108699481D02*
X134666100Y-108223290D01*
X134428005Y-108699481D02*
X134428005Y-107699481D01*
X134808958Y-107699481D01*
X134904196Y-107747100D01*
X134951815Y-107794719D01*
X134999434Y-107889957D01*
X134999434Y-108032814D01*
X134951815Y-108128052D01*
X134904196Y-108175671D01*
X134808958Y-108223290D01*
X134428005Y-108223290D01*
X135570862Y-108128052D02*
X135475624Y-108080433D01*
X135428005Y-108032814D01*
X135380386Y-107937576D01*
X135380386Y-107889957D01*
X135428005Y-107794719D01*
X135475624Y-107747100D01*
X135570862Y-107699481D01*
X135761339Y-107699481D01*
X135856577Y-107747100D01*
X135904196Y-107794719D01*
X135951815Y-107889957D01*
X135951815Y-107937576D01*
X135904196Y-108032814D01*
X135856577Y-108080433D01*
X135761339Y-108128052D01*
X135570862Y-108128052D01*
X135475624Y-108175671D01*
X135428005Y-108223290D01*
X135380386Y-108318529D01*
X135380386Y-108509005D01*
X135428005Y-108604243D01*
X135475624Y-108651862D01*
X135570862Y-108699481D01*
X135761339Y-108699481D01*
X135856577Y-108651862D01*
X135904196Y-108604243D01*
X135951815Y-108509005D01*
X135951815Y-108318529D01*
X135904196Y-108223290D01*
X135856577Y-108175671D01*
X135761339Y-108128052D01*
X170805181Y-80366466D02*
X170328990Y-80699800D01*
X170805181Y-80937895D02*
X169805181Y-80937895D01*
X169805181Y-80556942D01*
X169852800Y-80461704D01*
X169900419Y-80414085D01*
X169995657Y-80366466D01*
X170138514Y-80366466D01*
X170233752Y-80414085D01*
X170281371Y-80461704D01*
X170328990Y-80556942D01*
X170328990Y-80937895D01*
X170805181Y-79890276D02*
X170805181Y-79699800D01*
X170757562Y-79604561D01*
X170709943Y-79556942D01*
X170567086Y-79461704D01*
X170376610Y-79414085D01*
X169995657Y-79414085D01*
X169900419Y-79461704D01*
X169852800Y-79509323D01*
X169805181Y-79604561D01*
X169805181Y-79795038D01*
X169852800Y-79890276D01*
X169900419Y-79937895D01*
X169995657Y-79985514D01*
X170233752Y-79985514D01*
X170328990Y-79937895D01*
X170376610Y-79890276D01*
X170424229Y-79795038D01*
X170424229Y-79604561D01*
X170376610Y-79509323D01*
X170328990Y-79461704D01*
X170233752Y-79414085D01*
X131335543Y-114528781D02*
X131002209Y-114052590D01*
X130764114Y-114528781D02*
X130764114Y-113528781D01*
X131145067Y-113528781D01*
X131240305Y-113576400D01*
X131287924Y-113624019D01*
X131335543Y-113719257D01*
X131335543Y-113862114D01*
X131287924Y-113957352D01*
X131240305Y-114004971D01*
X131145067Y-114052590D01*
X130764114Y-114052590D01*
X132287924Y-114528781D02*
X131716495Y-114528781D01*
X132002209Y-114528781D02*
X132002209Y-113528781D01*
X131906971Y-113671638D01*
X131811733Y-113766876D01*
X131716495Y-113814495D01*
X132906971Y-113528781D02*
X133002210Y-113528781D01*
X133097448Y-113576400D01*
X133145067Y-113624019D01*
X133192686Y-113719257D01*
X133240305Y-113909733D01*
X133240305Y-114147829D01*
X133192686Y-114338305D01*
X133145067Y-114433543D01*
X133097448Y-114481162D01*
X133002210Y-114528781D01*
X132906971Y-114528781D01*
X132811733Y-114481162D01*
X132764114Y-114433543D01*
X132716495Y-114338305D01*
X132668876Y-114147829D01*
X132668876Y-113909733D01*
X132716495Y-113719257D01*
X132764114Y-113624019D01*
X132811733Y-113576400D01*
X132906971Y-113528781D01*
X137937581Y-114472957D02*
X137461390Y-114806291D01*
X137937581Y-115044386D02*
X136937581Y-115044386D01*
X136937581Y-114663433D01*
X136985200Y-114568195D01*
X137032819Y-114520576D01*
X137128057Y-114472957D01*
X137270914Y-114472957D01*
X137366152Y-114520576D01*
X137413771Y-114568195D01*
X137461390Y-114663433D01*
X137461390Y-115044386D01*
X137937581Y-113520576D02*
X137937581Y-114092005D01*
X137937581Y-113806291D02*
X136937581Y-113806291D01*
X137080438Y-113901529D01*
X137175676Y-113996767D01*
X137223295Y-114092005D01*
X137937581Y-112568195D02*
X137937581Y-113139624D01*
X137937581Y-112853910D02*
X136937581Y-112853910D01*
X137080438Y-112949148D01*
X137175676Y-113044386D01*
X137223295Y-113139624D01*
X147650381Y-97670857D02*
X147174190Y-98004191D01*
X147650381Y-98242286D02*
X146650381Y-98242286D01*
X146650381Y-97861333D01*
X146698000Y-97766095D01*
X146745619Y-97718476D01*
X146840857Y-97670857D01*
X146983714Y-97670857D01*
X147078952Y-97718476D01*
X147126571Y-97766095D01*
X147174190Y-97861333D01*
X147174190Y-98242286D01*
X147650381Y-96718476D02*
X147650381Y-97289905D01*
X147650381Y-97004191D02*
X146650381Y-97004191D01*
X146793238Y-97099429D01*
X146888476Y-97194667D01*
X146936095Y-97289905D01*
X146745619Y-96337524D02*
X146698000Y-96289905D01*
X146650381Y-96194667D01*
X146650381Y-95956571D01*
X146698000Y-95861333D01*
X146745619Y-95813714D01*
X146840857Y-95766095D01*
X146936095Y-95766095D01*
X147078952Y-95813714D01*
X147650381Y-96385143D01*
X147650381Y-95766095D01*
X159072343Y-116804781D02*
X158739009Y-116328590D01*
X158500914Y-116804781D02*
X158500914Y-115804781D01*
X158881867Y-115804781D01*
X158977105Y-115852400D01*
X159024724Y-115900019D01*
X159072343Y-115995257D01*
X159072343Y-116138114D01*
X159024724Y-116233352D01*
X158977105Y-116280971D01*
X158881867Y-116328590D01*
X158500914Y-116328590D01*
X160024724Y-116804781D02*
X159453295Y-116804781D01*
X159739009Y-116804781D02*
X159739009Y-115804781D01*
X159643771Y-115947638D01*
X159548533Y-116042876D01*
X159453295Y-116090495D01*
X160358057Y-115804781D02*
X160977105Y-115804781D01*
X160643771Y-116185733D01*
X160786629Y-116185733D01*
X160881867Y-116233352D01*
X160929486Y-116280971D01*
X160977105Y-116376210D01*
X160977105Y-116614305D01*
X160929486Y-116709543D01*
X160881867Y-116757162D01*
X160786629Y-116804781D01*
X160500914Y-116804781D01*
X160405676Y-116757162D01*
X160358057Y-116709543D01*
X163593543Y-113055581D02*
X163260209Y-112579390D01*
X163022114Y-113055581D02*
X163022114Y-112055581D01*
X163403067Y-112055581D01*
X163498305Y-112103200D01*
X163545924Y-112150819D01*
X163593543Y-112246057D01*
X163593543Y-112388914D01*
X163545924Y-112484152D01*
X163498305Y-112531771D01*
X163403067Y-112579390D01*
X163022114Y-112579390D01*
X164545924Y-113055581D02*
X163974495Y-113055581D01*
X164260209Y-113055581D02*
X164260209Y-112055581D01*
X164164971Y-112198438D01*
X164069733Y-112293676D01*
X163974495Y-112341295D01*
X165403067Y-112388914D02*
X165403067Y-113055581D01*
X165164971Y-112007962D02*
X164926876Y-112722248D01*
X165545924Y-112722248D01*
X163047443Y-73878781D02*
X162714109Y-73402590D01*
X162476014Y-73878781D02*
X162476014Y-72878781D01*
X162856967Y-72878781D01*
X162952205Y-72926400D01*
X162999824Y-72974019D01*
X163047443Y-73069257D01*
X163047443Y-73212114D01*
X162999824Y-73307352D01*
X162952205Y-73354971D01*
X162856967Y-73402590D01*
X162476014Y-73402590D01*
X163999824Y-73878781D02*
X163428395Y-73878781D01*
X163714109Y-73878781D02*
X163714109Y-72878781D01*
X163618871Y-73021638D01*
X163523633Y-73116876D01*
X163428395Y-73164495D01*
X164904586Y-72878781D02*
X164428395Y-72878781D01*
X164380776Y-73354971D01*
X164428395Y-73307352D01*
X164523633Y-73259733D01*
X164761729Y-73259733D01*
X164856967Y-73307352D01*
X164904586Y-73354971D01*
X164952205Y-73450210D01*
X164952205Y-73688305D01*
X164904586Y-73783543D01*
X164856967Y-73831162D01*
X164761729Y-73878781D01*
X164523633Y-73878781D01*
X164428395Y-73831162D01*
X164380776Y-73783543D01*
X161183867Y-108402762D02*
X161326724Y-108450381D01*
X161564820Y-108450381D01*
X161660058Y-108402762D01*
X161707677Y-108355143D01*
X161755296Y-108259905D01*
X161755296Y-108164667D01*
X161707677Y-108069429D01*
X161660058Y-108021810D01*
X161564820Y-107974190D01*
X161374343Y-107926571D01*
X161279105Y-107878952D01*
X161231486Y-107831333D01*
X161183867Y-107736095D01*
X161183867Y-107640857D01*
X161231486Y-107545619D01*
X161279105Y-107498000D01*
X161374343Y-107450381D01*
X161612439Y-107450381D01*
X161755296Y-107498000D01*
X162088629Y-107450381D02*
X162326724Y-108450381D01*
X162517201Y-107736095D01*
X162707677Y-108450381D01*
X162945772Y-107450381D01*
X163850534Y-108450381D02*
X163279105Y-108450381D01*
X163564819Y-108450381D02*
X163564819Y-107450381D01*
X163469581Y-107593238D01*
X163374343Y-107688476D01*
X163279105Y-107736095D01*
X160774167Y-79998462D02*
X160917024Y-80046081D01*
X161155120Y-80046081D01*
X161250358Y-79998462D01*
X161297977Y-79950843D01*
X161345596Y-79855605D01*
X161345596Y-79760367D01*
X161297977Y-79665129D01*
X161250358Y-79617510D01*
X161155120Y-79569890D01*
X160964643Y-79522271D01*
X160869405Y-79474652D01*
X160821786Y-79427033D01*
X160774167Y-79331795D01*
X160774167Y-79236557D01*
X160821786Y-79141319D01*
X160869405Y-79093700D01*
X160964643Y-79046081D01*
X161202739Y-79046081D01*
X161345596Y-79093700D01*
X161678929Y-79046081D02*
X161917024Y-80046081D01*
X162107501Y-79331795D01*
X162297977Y-80046081D01*
X162536072Y-79046081D01*
X162869405Y-79141319D02*
X162917024Y-79093700D01*
X163012262Y-79046081D01*
X163250358Y-79046081D01*
X163345596Y-79093700D01*
X163393215Y-79141319D01*
X163440834Y-79236557D01*
X163440834Y-79331795D01*
X163393215Y-79474652D01*
X162821786Y-80046081D01*
X163440834Y-80046081D01*
X147069695Y-69578381D02*
X147069695Y-70387905D01*
X147117314Y-70483143D01*
X147164933Y-70530762D01*
X147260171Y-70578381D01*
X147450648Y-70578381D01*
X147545886Y-70530762D01*
X147593505Y-70483143D01*
X147641124Y-70387905D01*
X147641124Y-69578381D01*
X148641124Y-70578381D02*
X148069695Y-70578381D01*
X148355409Y-70578381D02*
X148355409Y-69578381D01*
X148260171Y-69721238D01*
X148164933Y-69816476D01*
X148069695Y-69864095D01*
X140868495Y-110049181D02*
X140868495Y-110858705D01*
X140916114Y-110953943D01*
X140963733Y-111001562D01*
X141058971Y-111049181D01*
X141249448Y-111049181D01*
X141344686Y-111001562D01*
X141392305Y-110953943D01*
X141439924Y-110858705D01*
X141439924Y-110049181D01*
X141868495Y-110144419D02*
X141916114Y-110096800D01*
X142011352Y-110049181D01*
X142249448Y-110049181D01*
X142344686Y-110096800D01*
X142392305Y-110144419D01*
X142439924Y-110239657D01*
X142439924Y-110334895D01*
X142392305Y-110477752D01*
X141820876Y-111049181D01*
X142439924Y-111049181D01*
X136575781Y-105460705D02*
X137385305Y-105460705D01*
X137480543Y-105413086D01*
X137528162Y-105365467D01*
X137575781Y-105270229D01*
X137575781Y-105079752D01*
X137528162Y-104984514D01*
X137480543Y-104936895D01*
X137385305Y-104889276D01*
X136575781Y-104889276D01*
X136575781Y-104508324D02*
X136575781Y-103889276D01*
X136956733Y-104222610D01*
X136956733Y-104079752D01*
X137004352Y-103984514D01*
X137051971Y-103936895D01*
X137147210Y-103889276D01*
X137385305Y-103889276D01*
X137480543Y-103936895D01*
X137528162Y-103984514D01*
X137575781Y-104079752D01*
X137575781Y-104365467D01*
X137528162Y-104460705D01*
X137480543Y-104508324D01*
X174749381Y-106598905D02*
X175558905Y-106598905D01*
X175654143Y-106551286D01*
X175701762Y-106503667D01*
X175749381Y-106408429D01*
X175749381Y-106217952D01*
X175701762Y-106122714D01*
X175654143Y-106075095D01*
X175558905Y-106027476D01*
X174749381Y-106027476D01*
X175082714Y-105122714D02*
X175749381Y-105122714D01*
X174701762Y-105360810D02*
X175416048Y-105598905D01*
X175416048Y-104979857D01*
X158819570Y-101066571D02*
X159152904Y-101066571D01*
X159295761Y-101590381D02*
X158819570Y-101590381D01*
X158819570Y-100590381D01*
X159295761Y-100590381D01*
X159676713Y-101542762D02*
X159771951Y-101590381D01*
X159962427Y-101590381D01*
X160057666Y-101542762D01*
X160105285Y-101447524D01*
X160105285Y-101399905D01*
X160057666Y-101304667D01*
X159962427Y-101257048D01*
X159819570Y-101257048D01*
X159724332Y-101209429D01*
X159676713Y-101114190D01*
X159676713Y-101066571D01*
X159724332Y-100971333D01*
X159819570Y-100923714D01*
X159962427Y-100923714D01*
X160057666Y-100971333D01*
X160533856Y-100923714D02*
X160533856Y-101923714D01*
X160533856Y-100971333D02*
X160629094Y-100923714D01*
X160819571Y-100923714D01*
X160914809Y-100971333D01*
X160962428Y-101018952D01*
X161010047Y-101114190D01*
X161010047Y-101399905D01*
X160962428Y-101495143D01*
X160914809Y-101542762D01*
X160819571Y-101590381D01*
X160629094Y-101590381D01*
X160533856Y-101542762D01*
X161438618Y-101590381D02*
X161438618Y-100923714D01*
X161438618Y-101114190D02*
X161486237Y-101018952D01*
X161533856Y-100971333D01*
X161629094Y-100923714D01*
X161724333Y-100923714D01*
X162438619Y-101542762D02*
X162343381Y-101590381D01*
X162152904Y-101590381D01*
X162057666Y-101542762D01*
X162010047Y-101447524D01*
X162010047Y-101066571D01*
X162057666Y-100971333D01*
X162152904Y-100923714D01*
X162343381Y-100923714D01*
X162438619Y-100971333D01*
X162486238Y-101066571D01*
X162486238Y-101161810D01*
X162010047Y-101257048D01*
X162867190Y-101542762D02*
X162962428Y-101590381D01*
X163152904Y-101590381D01*
X163248143Y-101542762D01*
X163295762Y-101447524D01*
X163295762Y-101399905D01*
X163248143Y-101304667D01*
X163152904Y-101257048D01*
X163010047Y-101257048D01*
X162914809Y-101209429D01*
X162867190Y-101114190D01*
X162867190Y-101066571D01*
X162914809Y-100971333D01*
X163010047Y-100923714D01*
X163152904Y-100923714D01*
X163248143Y-100971333D01*
X163676714Y-101542762D02*
X163771952Y-101590381D01*
X163962428Y-101590381D01*
X164057667Y-101542762D01*
X164105286Y-101447524D01*
X164105286Y-101399905D01*
X164057667Y-101304667D01*
X163962428Y-101257048D01*
X163819571Y-101257048D01*
X163724333Y-101209429D01*
X163676714Y-101114190D01*
X163676714Y-101066571D01*
X163724333Y-100971333D01*
X163819571Y-100923714D01*
X163962428Y-100923714D01*
X164057667Y-100971333D01*
X164533857Y-101590381D02*
X164533857Y-100923714D01*
X164533857Y-100590381D02*
X164486238Y-100638000D01*
X164533857Y-100685619D01*
X164581476Y-100638000D01*
X164533857Y-100590381D01*
X164533857Y-100685619D01*
X164867190Y-100923714D02*
X165248142Y-100923714D01*
X165010047Y-101590381D02*
X165010047Y-100733238D01*
X165057666Y-100638000D01*
X165152904Y-100590381D01*
X165248142Y-100590381D01*
X166295762Y-101542762D02*
X166438619Y-101590381D01*
X166676715Y-101590381D01*
X166771953Y-101542762D01*
X166819572Y-101495143D01*
X166867191Y-101399905D01*
X166867191Y-101304667D01*
X166819572Y-101209429D01*
X166771953Y-101161810D01*
X166676715Y-101114190D01*
X166486238Y-101066571D01*
X166391000Y-101018952D01*
X166343381Y-100971333D01*
X166295762Y-100876095D01*
X166295762Y-100780857D01*
X166343381Y-100685619D01*
X166391000Y-100638000D01*
X166486238Y-100590381D01*
X166724334Y-100590381D01*
X166867191Y-100638000D01*
X167200524Y-100923714D02*
X167438619Y-101590381D01*
X167676715Y-100923714D02*
X167438619Y-101590381D01*
X167343381Y-101828476D01*
X167295762Y-101876095D01*
X167200524Y-101923714D01*
X168010048Y-101542762D02*
X168105286Y-101590381D01*
X168295762Y-101590381D01*
X168391001Y-101542762D01*
X168438620Y-101447524D01*
X168438620Y-101399905D01*
X168391001Y-101304667D01*
X168295762Y-101257048D01*
X168152905Y-101257048D01*
X168057667Y-101209429D01*
X168010048Y-101114190D01*
X168010048Y-101066571D01*
X168057667Y-100971333D01*
X168152905Y-100923714D01*
X168295762Y-100923714D01*
X168391001Y-100971333D01*
X168724334Y-100923714D02*
X169105286Y-100923714D01*
X168867191Y-100590381D02*
X168867191Y-101447524D01*
X168914810Y-101542762D01*
X169010048Y-101590381D01*
X169105286Y-101590381D01*
X169819573Y-101542762D02*
X169724335Y-101590381D01*
X169533858Y-101590381D01*
X169438620Y-101542762D01*
X169391001Y-101447524D01*
X169391001Y-101066571D01*
X169438620Y-100971333D01*
X169533858Y-100923714D01*
X169724335Y-100923714D01*
X169819573Y-100971333D01*
X169867192Y-101066571D01*
X169867192Y-101161810D01*
X169391001Y-101257048D01*
X170295763Y-101590381D02*
X170295763Y-100923714D01*
X170295763Y-101018952D02*
X170343382Y-100971333D01*
X170438620Y-100923714D01*
X170581478Y-100923714D01*
X170676716Y-100971333D01*
X170724335Y-101066571D01*
X170724335Y-101590381D01*
X170724335Y-101066571D02*
X170771954Y-100971333D01*
X170867192Y-100923714D01*
X171010049Y-100923714D01*
X171105287Y-100971333D01*
X171152906Y-101066571D01*
X171152906Y-101590381D01*
X171581477Y-101542762D02*
X171676715Y-101590381D01*
X171867191Y-101590381D01*
X171962430Y-101542762D01*
X172010049Y-101447524D01*
X172010049Y-101399905D01*
X171962430Y-101304667D01*
X171867191Y-101257048D01*
X171724334Y-101257048D01*
X171629096Y-101209429D01*
X171581477Y-101114190D01*
X171581477Y-101066571D01*
X171629096Y-100971333D01*
X171724334Y-100923714D01*
X171867191Y-100923714D01*
X171962430Y-100971333D01*
X161081619Y-99415571D02*
X161414953Y-99415571D01*
X161557810Y-99939381D02*
X161081619Y-99939381D01*
X161081619Y-98939381D01*
X161557810Y-98939381D01*
X161938762Y-99891762D02*
X162081619Y-99939381D01*
X162319715Y-99939381D01*
X162414953Y-99891762D01*
X162462572Y-99844143D01*
X162510191Y-99748905D01*
X162510191Y-99653667D01*
X162462572Y-99558429D01*
X162414953Y-99510810D01*
X162319715Y-99463190D01*
X162129238Y-99415571D01*
X162034000Y-99367952D01*
X161986381Y-99320333D01*
X161938762Y-99225095D01*
X161938762Y-99129857D01*
X161986381Y-99034619D01*
X162034000Y-98987000D01*
X162129238Y-98939381D01*
X162367334Y-98939381D01*
X162510191Y-98987000D01*
X162938762Y-99939381D02*
X162938762Y-98939381D01*
X163319715Y-98939381D01*
X163414953Y-98987000D01*
X163462572Y-99034619D01*
X163510191Y-99129857D01*
X163510191Y-99272714D01*
X163462572Y-99367952D01*
X163414953Y-99415571D01*
X163319715Y-99463190D01*
X162938762Y-99463190D01*
X163843524Y-98939381D02*
X164462572Y-98939381D01*
X164129238Y-99320333D01*
X164272096Y-99320333D01*
X164367334Y-99367952D01*
X164414953Y-99415571D01*
X164462572Y-99510810D01*
X164462572Y-99748905D01*
X164414953Y-99844143D01*
X164367334Y-99891762D01*
X164272096Y-99939381D01*
X163986381Y-99939381D01*
X163891143Y-99891762D01*
X163843524Y-99844143D01*
X164843524Y-99034619D02*
X164891143Y-98987000D01*
X164986381Y-98939381D01*
X165224477Y-98939381D01*
X165319715Y-98987000D01*
X165367334Y-99034619D01*
X165414953Y-99129857D01*
X165414953Y-99225095D01*
X165367334Y-99367952D01*
X164795905Y-99939381D01*
X165414953Y-99939381D01*
X165843524Y-99558429D02*
X166605429Y-99558429D01*
X166986381Y-98939381D02*
X167224476Y-99939381D01*
X167414953Y-99225095D01*
X167605429Y-99939381D01*
X167843524Y-98939381D01*
X168795905Y-99939381D02*
X168462571Y-99463190D01*
X168224476Y-99939381D02*
X168224476Y-98939381D01*
X168605429Y-98939381D01*
X168700667Y-98987000D01*
X168748286Y-99034619D01*
X168795905Y-99129857D01*
X168795905Y-99272714D01*
X168748286Y-99367952D01*
X168700667Y-99415571D01*
X168605429Y-99463190D01*
X168224476Y-99463190D01*
X169414952Y-98939381D02*
X169605429Y-98939381D01*
X169700667Y-98987000D01*
X169795905Y-99082238D01*
X169843524Y-99272714D01*
X169843524Y-99606048D01*
X169795905Y-99796524D01*
X169700667Y-99891762D01*
X169605429Y-99939381D01*
X169414952Y-99939381D01*
X169319714Y-99891762D01*
X169224476Y-99796524D01*
X169176857Y-99606048D01*
X169176857Y-99272714D01*
X169224476Y-99082238D01*
X169319714Y-98987000D01*
X169414952Y-98939381D01*
X170462571Y-98939381D02*
X170653048Y-98939381D01*
X170748286Y-98987000D01*
X170843524Y-99082238D01*
X170891143Y-99272714D01*
X170891143Y-99606048D01*
X170843524Y-99796524D01*
X170748286Y-99891762D01*
X170653048Y-99939381D01*
X170462571Y-99939381D01*
X170367333Y-99891762D01*
X170272095Y-99796524D01*
X170224476Y-99606048D01*
X170224476Y-99272714D01*
X170272095Y-99082238D01*
X170367333Y-98987000D01*
X170462571Y-98939381D01*
X171319714Y-99939381D02*
X171319714Y-98939381D01*
X171653048Y-99653667D01*
X171986381Y-98939381D01*
X171986381Y-99939381D01*
X152081005Y-115102581D02*
X152081005Y-114102581D01*
X152319100Y-114102581D01*
X152461958Y-114150200D01*
X152557196Y-114245438D01*
X152604815Y-114340676D01*
X152652434Y-114531152D01*
X152652434Y-114674010D01*
X152604815Y-114864486D01*
X152557196Y-114959724D01*
X152461958Y-115054962D01*
X152319100Y-115102581D01*
X152081005Y-115102581D01*
X153557196Y-114102581D02*
X153081005Y-114102581D01*
X153033386Y-114578771D01*
X153081005Y-114531152D01*
X153176243Y-114483533D01*
X153414339Y-114483533D01*
X153509577Y-114531152D01*
X153557196Y-114578771D01*
X153604815Y-114674010D01*
X153604815Y-114912105D01*
X153557196Y-115007343D01*
X153509577Y-115054962D01*
X153414339Y-115102581D01*
X153176243Y-115102581D01*
X153081005Y-115054962D01*
X153033386Y-115007343D01*
X155351243Y-114477981D02*
X155017909Y-114001790D01*
X154779814Y-114477981D02*
X154779814Y-113477981D01*
X155160767Y-113477981D01*
X155256005Y-113525600D01*
X155303624Y-113573219D01*
X155351243Y-113668457D01*
X155351243Y-113811314D01*
X155303624Y-113906552D01*
X155256005Y-113954171D01*
X155160767Y-114001790D01*
X154779814Y-114001790D01*
X156303624Y-114477981D02*
X155732195Y-114477981D01*
X156017909Y-114477981D02*
X156017909Y-113477981D01*
X155922671Y-113620838D01*
X155827433Y-113716076D01*
X155732195Y-113763695D01*
X157160767Y-113477981D02*
X156970290Y-113477981D01*
X156875052Y-113525600D01*
X156827433Y-113573219D01*
X156732195Y-113716076D01*
X156684576Y-113906552D01*
X156684576Y-114287505D01*
X156732195Y-114382743D01*
X156779814Y-114430362D01*
X156875052Y-114477981D01*
X157065529Y-114477981D01*
X157160767Y-114430362D01*
X157208386Y-114382743D01*
X157256005Y-114287505D01*
X157256005Y-114049410D01*
X157208386Y-113954171D01*
X157160767Y-113906552D01*
X157065529Y-113858933D01*
X156875052Y-113858933D01*
X156779814Y-113906552D01*
X156732195Y-113954171D01*
X156684576Y-114049410D01*
M02*
