G04 #@! TF.GenerationSoftware,KiCad,Pcbnew,no-vcs-found-7722~57~ubuntu16.04.1*
G04 #@! TF.CreationDate,2017-02-25T15:22:01+01:00*
G04 #@! TF.ProjectId,GhostESP32,47686F737445535033322E6B69636164,rev?*
G04 #@! TF.FileFunction,Legend,Bot*
G04 #@! TF.FilePolarity,Positive*
%FSLAX46Y46*%
G04 Gerber Fmt 4.6, Leading zero omitted, Abs format (unit mm)*
G04 Created by KiCad (PCBNEW no-vcs-found-7722~57~ubuntu16.04.1) date Sat Feb 25 15:22:01 2017*
%MOMM*%
%LPD*%
G01*
G04 APERTURE LIST*
%ADD10C,0.100000*%
%ADD11C,0.300000*%
G04 APERTURE END LIST*
D10*
D11*
X160816228Y-81091500D02*
X160959085Y-81020071D01*
X161173371Y-81020071D01*
X161387657Y-81091500D01*
X161530514Y-81234357D01*
X161601942Y-81377214D01*
X161673371Y-81662928D01*
X161673371Y-81877214D01*
X161601942Y-82162928D01*
X161530514Y-82305785D01*
X161387657Y-82448642D01*
X161173371Y-82520071D01*
X161030514Y-82520071D01*
X160816228Y-82448642D01*
X160744800Y-82377214D01*
X160744800Y-81877214D01*
X161030514Y-81877214D01*
X160101942Y-82520071D02*
X160101942Y-81020071D01*
X159459085Y-82520071D02*
X159459085Y-81734357D01*
X159530514Y-81591500D01*
X159673371Y-81520071D01*
X159887657Y-81520071D01*
X160030514Y-81591500D01*
X160101942Y-81662928D01*
X158530514Y-82520071D02*
X158673371Y-82448642D01*
X158744800Y-82377214D01*
X158816228Y-82234357D01*
X158816228Y-81805785D01*
X158744800Y-81662928D01*
X158673371Y-81591500D01*
X158530514Y-81520071D01*
X158316228Y-81520071D01*
X158173371Y-81591500D01*
X158101942Y-81662928D01*
X158030514Y-81805785D01*
X158030514Y-82234357D01*
X158101942Y-82377214D01*
X158173371Y-82448642D01*
X158316228Y-82520071D01*
X158530514Y-82520071D01*
X157459085Y-82448642D02*
X157316228Y-82520071D01*
X157030514Y-82520071D01*
X156887657Y-82448642D01*
X156816228Y-82305785D01*
X156816228Y-82234357D01*
X156887657Y-82091500D01*
X157030514Y-82020071D01*
X157244800Y-82020071D01*
X157387657Y-81948642D01*
X157459085Y-81805785D01*
X157459085Y-81734357D01*
X157387657Y-81591500D01*
X157244800Y-81520071D01*
X157030514Y-81520071D01*
X156887657Y-81591500D01*
X156387657Y-81520071D02*
X155816228Y-81520071D01*
X156173371Y-81020071D02*
X156173371Y-82305785D01*
X156101942Y-82448642D01*
X155959085Y-82520071D01*
X155816228Y-82520071D01*
X155316228Y-81734357D02*
X154816228Y-81734357D01*
X154601942Y-82520071D02*
X155316228Y-82520071D01*
X155316228Y-81020071D01*
X154601942Y-81020071D01*
X154030514Y-82448642D02*
X153816228Y-82520071D01*
X153459085Y-82520071D01*
X153316228Y-82448642D01*
X153244800Y-82377214D01*
X153173371Y-82234357D01*
X153173371Y-82091500D01*
X153244800Y-81948642D01*
X153316228Y-81877214D01*
X153459085Y-81805785D01*
X153744800Y-81734357D01*
X153887657Y-81662928D01*
X153959085Y-81591500D01*
X154030514Y-81448642D01*
X154030514Y-81305785D01*
X153959085Y-81162928D01*
X153887657Y-81091500D01*
X153744800Y-81020071D01*
X153387657Y-81020071D01*
X153173371Y-81091500D01*
X152530514Y-82520071D02*
X152530514Y-81020071D01*
X151959085Y-81020071D01*
X151816228Y-81091500D01*
X151744800Y-81162928D01*
X151673371Y-81305785D01*
X151673371Y-81520071D01*
X151744800Y-81662928D01*
X151816228Y-81734357D01*
X151959085Y-81805785D01*
X152530514Y-81805785D01*
X151173371Y-81020071D02*
X150244800Y-81020071D01*
X150744800Y-81591500D01*
X150530514Y-81591500D01*
X150387657Y-81662928D01*
X150316228Y-81734357D01*
X150244800Y-81877214D01*
X150244800Y-82234357D01*
X150316228Y-82377214D01*
X150387657Y-82448642D01*
X150530514Y-82520071D01*
X150959085Y-82520071D01*
X151101942Y-82448642D01*
X151173371Y-82377214D01*
X149673371Y-81162928D02*
X149601942Y-81091500D01*
X149459085Y-81020071D01*
X149101942Y-81020071D01*
X148959085Y-81091500D01*
X148887657Y-81162928D01*
X148816228Y-81305785D01*
X148816228Y-81448642D01*
X148887657Y-81662928D01*
X149744800Y-82520071D01*
X148816228Y-82520071D01*
X164351942Y-84284357D02*
X163851942Y-84284357D01*
X163637657Y-85070071D02*
X164351942Y-85070071D01*
X164351942Y-83570071D01*
X163637657Y-83570071D01*
X163066228Y-84998642D02*
X162851942Y-85070071D01*
X162494800Y-85070071D01*
X162351942Y-84998642D01*
X162280514Y-84927214D01*
X162209085Y-84784357D01*
X162209085Y-84641500D01*
X162280514Y-84498642D01*
X162351942Y-84427214D01*
X162494800Y-84355785D01*
X162780514Y-84284357D01*
X162923371Y-84212928D01*
X162994800Y-84141500D01*
X163066228Y-83998642D01*
X163066228Y-83855785D01*
X162994800Y-83712928D01*
X162923371Y-83641500D01*
X162780514Y-83570071D01*
X162423371Y-83570071D01*
X162209085Y-83641500D01*
X161566228Y-85070071D02*
X161566228Y-83570071D01*
X160994800Y-83570071D01*
X160851942Y-83641500D01*
X160780514Y-83712928D01*
X160709085Y-83855785D01*
X160709085Y-84070071D01*
X160780514Y-84212928D01*
X160851942Y-84284357D01*
X160994800Y-84355785D01*
X161566228Y-84355785D01*
X160066228Y-84498642D02*
X158923371Y-84498642D01*
X158351942Y-83570071D02*
X157994800Y-85070071D01*
X157709085Y-83998642D01*
X157423371Y-85070071D01*
X157066228Y-83570071D01*
X155637657Y-85070071D02*
X156137657Y-84355785D01*
X156494800Y-85070071D02*
X156494800Y-83570071D01*
X155923371Y-83570071D01*
X155780514Y-83641500D01*
X155709085Y-83712928D01*
X155637657Y-83855785D01*
X155637657Y-84070071D01*
X155709085Y-84212928D01*
X155780514Y-84284357D01*
X155923371Y-84355785D01*
X156494800Y-84355785D01*
X154709085Y-83570071D02*
X154423371Y-83570071D01*
X154280514Y-83641500D01*
X154137657Y-83784357D01*
X154066228Y-84070071D01*
X154066228Y-84570071D01*
X154137657Y-84855785D01*
X154280514Y-84998642D01*
X154423371Y-85070071D01*
X154709085Y-85070071D01*
X154851942Y-84998642D01*
X154994800Y-84855785D01*
X155066228Y-84570071D01*
X155066228Y-84070071D01*
X154994800Y-83784357D01*
X154851942Y-83641500D01*
X154709085Y-83570071D01*
X153137657Y-83570071D02*
X152851942Y-83570071D01*
X152709085Y-83641500D01*
X152566228Y-83784357D01*
X152494800Y-84070071D01*
X152494800Y-84570071D01*
X152566228Y-84855785D01*
X152709085Y-84998642D01*
X152851942Y-85070071D01*
X153137657Y-85070071D01*
X153280514Y-84998642D01*
X153423371Y-84855785D01*
X153494800Y-84570071D01*
X153494800Y-84070071D01*
X153423371Y-83784357D01*
X153280514Y-83641500D01*
X153137657Y-83570071D01*
X151851942Y-85070071D02*
X151851942Y-83570071D01*
X151351942Y-84641500D01*
X150851942Y-83570071D01*
X150851942Y-85070071D01*
X150137657Y-84498642D02*
X148994800Y-84498642D01*
X148423371Y-83570071D02*
X147494800Y-83570071D01*
X147994800Y-84141500D01*
X147780514Y-84141500D01*
X147637657Y-84212928D01*
X147566228Y-84284357D01*
X147494800Y-84427214D01*
X147494800Y-84784357D01*
X147566228Y-84927214D01*
X147637657Y-84998642D01*
X147780514Y-85070071D01*
X148209085Y-85070071D01*
X148351942Y-84998642D01*
X148423371Y-84927214D01*
X146923371Y-83712928D02*
X146851942Y-83641500D01*
X146709085Y-83570071D01*
X146351942Y-83570071D01*
X146209085Y-83641500D01*
X146137657Y-83712928D01*
X146066228Y-83855785D01*
X146066228Y-83998642D01*
X146137657Y-84212928D01*
X146994800Y-85070071D01*
X146066228Y-85070071D01*
X170173371Y-86834357D02*
X170673371Y-86834357D01*
X170673371Y-87620071D02*
X170673371Y-86120071D01*
X169959085Y-86120071D01*
X169387657Y-87620071D02*
X169387657Y-86620071D01*
X169387657Y-86905785D02*
X169316228Y-86762928D01*
X169244800Y-86691500D01*
X169101942Y-86620071D01*
X168959085Y-86620071D01*
X168244800Y-87620071D02*
X168387657Y-87548642D01*
X168459085Y-87477214D01*
X168530514Y-87334357D01*
X168530514Y-86905785D01*
X168459085Y-86762928D01*
X168387657Y-86691500D01*
X168244800Y-86620071D01*
X168030514Y-86620071D01*
X167887657Y-86691500D01*
X167816228Y-86762928D01*
X167744800Y-86905785D01*
X167744800Y-87334357D01*
X167816228Y-87477214D01*
X167887657Y-87548642D01*
X168030514Y-87620071D01*
X168244800Y-87620071D01*
X166459085Y-87620071D02*
X166459085Y-86120071D01*
X166459085Y-87548642D02*
X166601942Y-87620071D01*
X166887657Y-87620071D01*
X167030514Y-87548642D01*
X167101942Y-87477214D01*
X167173371Y-87334357D01*
X167173371Y-86905785D01*
X167101942Y-86762928D01*
X167030514Y-86691500D01*
X166887657Y-86620071D01*
X166601942Y-86620071D01*
X166459085Y-86691500D01*
X165173371Y-87548642D02*
X165316228Y-87620071D01*
X165601942Y-87620071D01*
X165744800Y-87548642D01*
X165816228Y-87405785D01*
X165816228Y-86834357D01*
X165744800Y-86691500D01*
X165601942Y-86620071D01*
X165316228Y-86620071D01*
X165173371Y-86691500D01*
X165101942Y-86834357D01*
X165101942Y-86977214D01*
X165816228Y-87120071D01*
X162601942Y-87620071D02*
X163316228Y-87620071D01*
X163316228Y-86120071D01*
X162101942Y-87620071D02*
X162101942Y-86620071D01*
X162101942Y-86120071D02*
X162173371Y-86191500D01*
X162101942Y-86262928D01*
X162030514Y-86191500D01*
X162101942Y-86120071D01*
X162101942Y-86262928D01*
X161173371Y-87620071D02*
X161316228Y-87548642D01*
X161387657Y-87405785D01*
X161387657Y-86120071D01*
X160387657Y-87620071D02*
X160530514Y-87548642D01*
X160601942Y-87405785D01*
X160601942Y-86120071D01*
X159244800Y-87548642D02*
X159387657Y-87620071D01*
X159673371Y-87620071D01*
X159816228Y-87548642D01*
X159887657Y-87405785D01*
X159887657Y-86834357D01*
X159816228Y-86691500D01*
X159673371Y-86620071D01*
X159387657Y-86620071D01*
X159244800Y-86691500D01*
X159173371Y-86834357D01*
X159173371Y-86977214D01*
X159887657Y-87120071D01*
X158530514Y-87620071D02*
X158530514Y-86620071D01*
X158530514Y-86905785D02*
X158459085Y-86762928D01*
X158387657Y-86691500D01*
X158244800Y-86620071D01*
X158101942Y-86620071D01*
X156959085Y-86620071D02*
X156959085Y-87620071D01*
X157601942Y-86620071D02*
X157601942Y-87405785D01*
X157530514Y-87548642D01*
X157387657Y-87620071D01*
X157173371Y-87620071D01*
X157030514Y-87548642D01*
X156959085Y-87477214D01*
X155601942Y-87620071D02*
X155601942Y-86120071D01*
X155601942Y-87548642D02*
X155744800Y-87620071D01*
X156030514Y-87620071D01*
X156173371Y-87548642D01*
X156244800Y-87477214D01*
X156316228Y-87334357D01*
X156316228Y-86905785D01*
X156244800Y-86762928D01*
X156173371Y-86691500D01*
X156030514Y-86620071D01*
X155744800Y-86620071D01*
X155601942Y-86691500D01*
X154816228Y-87548642D02*
X154816228Y-87620071D01*
X154887657Y-87762928D01*
X154959085Y-87834357D01*
X152244800Y-87620071D02*
X153101942Y-87620071D01*
X152673371Y-87620071D02*
X152673371Y-86120071D01*
X152816228Y-86334357D01*
X152959085Y-86477214D01*
X153101942Y-86548642D01*
X150816228Y-87620071D02*
X151673371Y-87620071D01*
X151244800Y-87620071D02*
X151244800Y-86120071D01*
X151387657Y-86334357D01*
X151530514Y-86477214D01*
X151673371Y-86548642D01*
X150173371Y-87477214D02*
X150101942Y-87548642D01*
X150173371Y-87620071D01*
X150244800Y-87548642D01*
X150173371Y-87477214D01*
X150173371Y-87620071D01*
X149673371Y-86620071D02*
X149101942Y-86620071D01*
X149459085Y-87620071D02*
X149459085Y-86334357D01*
X149387657Y-86191500D01*
X149244800Y-86120071D01*
X149101942Y-86120071D01*
X148030514Y-87548642D02*
X148173371Y-87620071D01*
X148459085Y-87620071D01*
X148601942Y-87548642D01*
X148673371Y-87405785D01*
X148673371Y-86834357D01*
X148601942Y-86691500D01*
X148459085Y-86620071D01*
X148173371Y-86620071D01*
X148030514Y-86691500D01*
X147959085Y-86834357D01*
X147959085Y-86977214D01*
X148673371Y-87120071D01*
X147316228Y-87620071D02*
X147316228Y-86120071D01*
X147316228Y-86691500D02*
X147173371Y-86620071D01*
X146887657Y-86620071D01*
X146744800Y-86691500D01*
X146673371Y-86762928D01*
X146601942Y-86905785D01*
X146601942Y-87334357D01*
X146673371Y-87477214D01*
X146744800Y-87548642D01*
X146887657Y-87620071D01*
X147173371Y-87620071D01*
X147316228Y-87548642D01*
X144887657Y-86262928D02*
X144816228Y-86191500D01*
X144673371Y-86120071D01*
X144316228Y-86120071D01*
X144173371Y-86191500D01*
X144101942Y-86262928D01*
X144030514Y-86405785D01*
X144030514Y-86548642D01*
X144101942Y-86762928D01*
X144959085Y-87620071D01*
X144030514Y-87620071D01*
X143101942Y-86120071D02*
X142959085Y-86120071D01*
X142816228Y-86191500D01*
X142744800Y-86262928D01*
X142673371Y-86405785D01*
X142601942Y-86691500D01*
X142601942Y-87048642D01*
X142673371Y-87334357D01*
X142744800Y-87477214D01*
X142816228Y-87548642D01*
X142959085Y-87620071D01*
X143101942Y-87620071D01*
X143244800Y-87548642D01*
X143316228Y-87477214D01*
X143387657Y-87334357D01*
X143459085Y-87048642D01*
X143459085Y-86691500D01*
X143387657Y-86405785D01*
X143316228Y-86262928D01*
X143244800Y-86191500D01*
X143101942Y-86120071D01*
X141173371Y-87620071D02*
X142030514Y-87620071D01*
X141601942Y-87620071D02*
X141601942Y-86120071D01*
X141744800Y-86334357D01*
X141887657Y-86477214D01*
X142030514Y-86548642D01*
X140673371Y-86120071D02*
X139673371Y-86120071D01*
X140316228Y-87620071D01*
M02*
