M48
;DRILL file {KiCad 4.0.5-e0-6337~49~ubuntu16.04.1} date Sat Feb 11 21:29:44 2017
;FORMAT={-:-/ absolute / inch / decimal}
FMAT,2
INCH,TZ
T1C0.016
T2C0.020
T3C0.022
%
G90
G05
M72
T1
X5.043Y-4.134
X5.0855Y-4.137
X5.1075Y-3.964
X5.155Y-3.572
X5.1815Y-3.661
X5.2215Y-3.9515
X5.249Y-3.9361
X5.2809Y-3.5009
X5.2826Y-3.6346
X5.3032Y-3.6584
X5.3325Y-3.67
X5.3525Y-3.2445
X5.36Y-3.9615
X5.363Y-4.3985
X5.365Y-3.462
X5.39Y-3.7565
X5.4125Y-3.394
X5.4155Y-3.859
X5.417Y-3.6505
X5.425Y-4.1025
X5.4496Y-4.1263
X5.501Y-4.0977
X5.55Y-4.554
X5.5905Y-4.5365
X5.6005Y-3.1505
X5.6865Y-4.2605
X5.7377Y-4.3921
X5.769Y-4.5719
X5.8365Y-4.205
X5.903Y-3.5425
X5.9825Y-4.434
X5.99Y-4.484
X6.0085Y-4.5635
X6.017Y-4.0076
X6.135Y-4.3065
X6.1675Y-3.0025
X6.176Y-3.9175
X6.2051Y-4.3004
X6.2481Y-4.3434
X6.2604Y-4.2457
X6.316Y-4.2342
X6.375Y-4.505
X6.4495Y-4.5715
X6.5455Y-3.0355
X6.562Y-2.962
X6.5855Y-3.2355
X6.695Y-2.9695
X6.741Y-3.2393
T2
X4.8931Y-3.4002G85X4.9186Y-3.4002
G05
X4.8931Y-3.6758G85X4.9186Y-3.6758
G05
T3
X5.0121Y-3.4337G85X5.0121Y-3.4455
G05
X5.0121Y-3.6305G85X5.0121Y-3.6423
G05
T0
M30
