G04 #@! TF.GenerationSoftware,KiCad,Pcbnew,no-vcs-found-7722~57~ubuntu16.04.1*
G04 #@! TF.CreationDate,2017-02-25T15:22:01+01:00*
G04 #@! TF.ProjectId,GhostESP32,47686F737445535033322E6B69636164,rev?*
G04 #@! TF.FileFunction,Soldermask,Top*
G04 #@! TF.FilePolarity,Negative*
%FSLAX46Y46*%
G04 Gerber Fmt 4.6, Leading zero omitted, Abs format (unit mm)*
G04 Created by KiCad (PCBNEW no-vcs-found-7722~57~ubuntu16.04.1) date Sat Feb 25 15:22:01 2017*
%MOMM*%
%LPD*%
G01*
G04 APERTURE LIST*
%ADD10C,0.100000*%
%ADD11R,1.150000X1.200000*%
%ADD12R,1.200000X1.150000*%
%ADD13R,1.200000X1.200000*%
%ADD14R,2.200000X2.900000*%
%ADD15R,1.750000X0.800000*%
%ADD16O,1.350000X1.650000*%
%ADD17O,1.950000X1.400000*%
%ADD18R,2.900000X0.750000*%
%ADD19C,1.100000*%
%ADD20C,1.500000*%
%ADD21R,1.200000X1.300000*%
%ADD22R,1.300000X1.200000*%
%ADD23R,0.900000X1.300000*%
%ADD24R,1.300000X0.900000*%
%ADD25R,1.850000X1.100000*%
%ADD26R,3.900000X2.400000*%
%ADD27R,7.400000X7.400000*%
%ADD28R,1.950000X1.000000*%
%ADD29O,0.700000X1.250000*%
%ADD30O,1.250000X0.700000*%
%ADD31R,2.075000X2.075000*%
%ADD32O,1.300000X2.900000*%
%ADD33O,2.900000X1.300000*%
%ADD34R,6.400000X6.400000*%
G04 APERTURE END LIST*
D10*
D11*
X138823700Y-77737400D03*
X138823700Y-76237400D03*
X138760200Y-71576500D03*
X138760200Y-73076500D03*
X171145200Y-81077500D03*
X171145200Y-79577500D03*
D12*
X166116700Y-79616300D03*
X164616700Y-79616300D03*
X132295200Y-98552000D03*
X133795200Y-98552000D03*
X169341100Y-76987400D03*
X170841100Y-76987400D03*
X128105600Y-106540300D03*
X126605600Y-106540300D03*
X128804100Y-98374200D03*
X127304100Y-98374200D03*
X128004000Y-102984300D03*
X126504000Y-102984300D03*
D11*
X169151300Y-110389100D03*
X169151300Y-108889100D03*
D12*
X159842900Y-71462900D03*
X158342900Y-71462900D03*
D13*
X128663700Y-81483200D03*
X127063700Y-81483200D03*
D14*
X133616700Y-75597000D03*
X133616700Y-79597000D03*
D13*
X132676800Y-110070900D03*
X131076800Y-110070900D03*
X132676800Y-112268000D03*
X131076800Y-112268000D03*
D15*
X127308600Y-88565200D03*
X127308600Y-89215200D03*
X127308600Y-89865200D03*
X127308600Y-90515200D03*
X127308600Y-91165200D03*
D16*
X127308600Y-87365200D03*
X127308600Y-92365200D03*
D17*
X124608600Y-86365200D03*
X124608600Y-93365200D03*
D18*
X144439200Y-94178400D03*
X144439200Y-94778400D03*
X144439200Y-95378400D03*
X144439200Y-95978400D03*
X144439200Y-96578400D03*
X144439200Y-97178400D03*
X144439200Y-97778400D03*
X144439200Y-98378400D03*
X144439200Y-98978400D03*
X144439200Y-99578400D03*
X144439200Y-100178400D03*
X144439200Y-100778400D03*
X144439200Y-101378400D03*
X144439200Y-101978400D03*
X144439200Y-102578400D03*
X144439200Y-93578400D03*
X144439200Y-92978400D03*
X144439200Y-92378400D03*
X144439200Y-91778400D03*
X144439200Y-91178400D03*
X144439200Y-90578400D03*
X144439200Y-89978400D03*
X144439200Y-89378400D03*
X144439200Y-88778400D03*
X144439200Y-88178400D03*
X144439200Y-87578400D03*
X144439200Y-86978400D03*
X144439200Y-86378400D03*
X144439200Y-85778400D03*
X144439200Y-85178400D03*
X139939200Y-94178400D03*
X139939200Y-94778400D03*
X139939200Y-95378400D03*
X139939200Y-95978400D03*
X139939200Y-96578400D03*
X139939200Y-97178400D03*
X139939200Y-97778400D03*
X139939200Y-98378400D03*
X139939200Y-98978400D03*
X139939200Y-99578400D03*
X139939200Y-100178400D03*
X139939200Y-100778400D03*
X139939200Y-101978400D03*
X139939200Y-102578400D03*
X139939200Y-101378400D03*
X139939200Y-93578400D03*
X139939200Y-92978400D03*
X139939200Y-91178400D03*
X139939200Y-92378400D03*
X139939200Y-91778400D03*
X139939200Y-90578400D03*
X139939200Y-88178400D03*
X139939200Y-89378400D03*
X139939200Y-89978400D03*
X139939200Y-88778400D03*
X139939200Y-85778400D03*
X139939200Y-86978400D03*
X139939200Y-86378400D03*
X139939200Y-85178400D03*
X139939200Y-87578400D03*
D19*
X140689200Y-104978400D03*
D20*
X140689200Y-82778400D03*
D21*
X135112800Y-84407500D03*
X133212800Y-84407500D03*
X134162800Y-86407500D03*
D22*
X150390100Y-110182700D03*
X150390100Y-108282700D03*
X148390100Y-109232700D03*
D23*
X128702500Y-78905100D03*
X127202500Y-78905100D03*
X135027100Y-90119200D03*
X133527100Y-90119200D03*
X145631600Y-109728000D03*
X144131600Y-109728000D03*
X154139200Y-112522000D03*
X155639200Y-112522000D03*
X154088400Y-110794800D03*
X155588400Y-110794800D03*
D24*
X141249400Y-109474700D03*
X141249400Y-107974700D03*
X150190200Y-114427700D03*
X150190200Y-112927700D03*
D23*
X134416100Y-110147100D03*
X135916100Y-110147100D03*
D24*
X168452800Y-79449800D03*
X168452800Y-80949800D03*
D23*
X131228400Y-115976400D03*
X132728400Y-115976400D03*
D24*
X135585200Y-113080100D03*
X135585200Y-114580100D03*
X149098000Y-97778000D03*
X149098000Y-96278000D03*
D23*
X160465200Y-114452400D03*
X158965200Y-114452400D03*
X163486400Y-114503200D03*
X164986400Y-114503200D03*
X164440300Y-71526400D03*
X162940300Y-71526400D03*
D25*
X165592200Y-109998000D03*
X160442200Y-109998000D03*
X160442200Y-111998000D03*
X165592200Y-111998000D03*
X159032500Y-77593700D03*
X164182500Y-77593700D03*
X164182500Y-75593700D03*
X159032500Y-75593700D03*
D26*
X143831600Y-72376000D03*
X143831600Y-76956000D03*
D27*
X151231600Y-74676000D03*
D28*
X138930400Y-112191800D03*
X138930400Y-113461800D03*
X138930400Y-114731800D03*
X138930400Y-116001800D03*
X144330400Y-116001800D03*
X144330400Y-114731800D03*
X144330400Y-113461800D03*
X144330400Y-112191800D03*
D29*
X134748400Y-102248800D03*
X134248400Y-102248800D03*
X133748400Y-102248800D03*
X133248400Y-102248800D03*
X132748400Y-102248800D03*
X132248400Y-102248800D03*
X131748400Y-102248800D03*
D30*
X130798400Y-103198800D03*
X130798400Y-103698800D03*
X130798400Y-104198800D03*
X130798400Y-104698800D03*
X130798400Y-105198800D03*
X130798400Y-105698800D03*
X130798400Y-106198800D03*
D29*
X131748400Y-107148800D03*
X132248400Y-107148800D03*
X132748400Y-107148800D03*
X133248400Y-107148800D03*
X133748400Y-107148800D03*
X134248400Y-107148800D03*
X134748400Y-107148800D03*
D30*
X135698400Y-106198800D03*
X135698400Y-105698800D03*
X135698400Y-105198800D03*
X135698400Y-104698800D03*
X135698400Y-104198800D03*
X135698400Y-103698800D03*
X135698400Y-103198800D03*
D31*
X132410900Y-105536300D03*
X134085900Y-105536300D03*
X132410900Y-103861300D03*
X134085900Y-103861300D03*
D32*
X171530000Y-103280000D03*
X170260000Y-103280000D03*
X168990000Y-103280000D03*
X167720000Y-103280000D03*
X166450000Y-103280000D03*
X165180000Y-103280000D03*
X163910000Y-103280000D03*
X162640000Y-103280000D03*
X161370000Y-103280000D03*
X160100000Y-103280000D03*
X158830000Y-103280000D03*
X157560000Y-103280000D03*
X156290000Y-103280000D03*
X155020000Y-103280000D03*
D33*
X153530000Y-99995000D03*
X153530000Y-98725000D03*
X153530000Y-97455000D03*
X153530000Y-96185000D03*
X153530000Y-94915000D03*
X153530000Y-93645000D03*
X153530000Y-92375000D03*
X153530000Y-91105000D03*
X153530000Y-89835000D03*
X153530000Y-88565000D03*
D32*
X155020000Y-85280000D03*
X156290000Y-85280000D03*
X157560000Y-85280000D03*
X158830000Y-85280000D03*
X160100000Y-85280000D03*
X161370000Y-85280000D03*
X162640000Y-85280000D03*
X163910000Y-85280000D03*
X165180000Y-85280000D03*
X166450000Y-85280000D03*
X167720000Y-85280000D03*
X168990000Y-85280000D03*
X170260000Y-85280000D03*
X171530000Y-85280000D03*
D34*
X163830000Y-93980000D03*
D13*
X153619100Y-115900200D03*
X152019100Y-115900200D03*
D23*
X155244100Y-115925600D03*
X156744100Y-115925600D03*
M02*
