G04 #@! TF.GenerationSoftware,KiCad,Pcbnew,no-vcs-found-7722~57~ubuntu16.04.1*
G04 #@! TF.CreationDate,2017-02-25T15:22:01+01:00*
G04 #@! TF.ProjectId,GhostESP32,47686F737445535033322E6B69636164,rev?*
G04 #@! TF.FileFunction,Profile,NP*
%FSLAX46Y46*%
G04 Gerber Fmt 4.6, Leading zero omitted, Abs format (unit mm)*
G04 Created by KiCad (PCBNEW no-vcs-found-7722~57~ubuntu16.04.1) date Sat Feb 25 15:22:01 2017*
%MOMM*%
%LPD*%
G01*
G04 APERTURE LIST*
%ADD10C,0.100000*%
G04 APERTURE END LIST*
D10*
X170539600Y-73501030D02*
X170340700Y-73743530D01*
X170687500Y-73224430D02*
X170539600Y-73501030D01*
X170778500Y-72924230D02*
X170687500Y-73224430D01*
X170809300Y-72612130D02*
X170778500Y-72924230D01*
X170778500Y-72300030D02*
X170809300Y-72612130D01*
X170687500Y-71999830D02*
X170778500Y-72300030D01*
X170539600Y-71723230D02*
X170687500Y-71999830D01*
X170340700Y-71480730D02*
X170539600Y-71723230D01*
X170098200Y-71281830D02*
X170340700Y-71480730D01*
X169821600Y-71133930D02*
X170098200Y-71281830D01*
X169521400Y-71042930D02*
X169821600Y-71133930D01*
X169209300Y-71012130D02*
X169521400Y-71042930D01*
X168897200Y-71042930D02*
X169209300Y-71012130D01*
X168597000Y-71133930D02*
X168897200Y-71042930D01*
X168320400Y-71281830D02*
X168597000Y-71133930D01*
X168077900Y-71480730D02*
X168320400Y-71281830D01*
X167878900Y-71723230D02*
X168077900Y-71480730D01*
X167731100Y-71999830D02*
X167878900Y-71723230D01*
X167640000Y-72300030D02*
X167731100Y-71999830D01*
X167609300Y-72612130D02*
X167640000Y-72300030D01*
X167640000Y-72924230D02*
X167609300Y-72612130D01*
X167731100Y-73224430D02*
X167640000Y-72924230D01*
X167878900Y-73501030D02*
X167731100Y-73224430D01*
X168077900Y-73743530D02*
X167878900Y-73501030D01*
X168320400Y-73942530D02*
X168077900Y-73743530D01*
X168597000Y-74090330D02*
X168320400Y-73942530D01*
X168897200Y-74181430D02*
X168597000Y-74090330D01*
X127209280Y-74212130D02*
X126897150Y-74181430D01*
X127521430Y-74181430D02*
X127209280Y-74212130D01*
X127821590Y-74090330D02*
X127521430Y-74181430D01*
X128098200Y-73942530D02*
X127821590Y-74090330D01*
X128340660Y-73743530D02*
X128098200Y-73942530D01*
X128539640Y-73501030D02*
X128340660Y-73743530D01*
X128687500Y-73224430D02*
X128539640Y-73501030D01*
X128778540Y-72924230D02*
X128687500Y-73224430D01*
X128809290Y-72612130D02*
X128778540Y-72924230D01*
X128778540Y-72300030D02*
X128809290Y-72612130D01*
X128687500Y-71999830D02*
X128778540Y-72300030D01*
X128539640Y-71723230D02*
X128687500Y-71999830D01*
X128340660Y-71480730D02*
X128539640Y-71723230D01*
X128098200Y-71281830D02*
X128340660Y-71480730D01*
X127821590Y-71133930D02*
X128098200Y-71281830D01*
X127521430Y-71042930D02*
X127821590Y-71133930D01*
X127209300Y-71012130D02*
X127521430Y-71042930D01*
X126897150Y-71042930D02*
X127209300Y-71012130D01*
X126597000Y-71133930D02*
X126897150Y-71042930D01*
X126320380Y-71281830D02*
X126597000Y-71133930D01*
X126077920Y-71480730D02*
X126320380Y-71281830D01*
X125878950Y-71723230D02*
X126077920Y-71480730D01*
X125731090Y-71999830D02*
X125878950Y-71723230D01*
X125640040Y-72300030D02*
X125731090Y-71999830D01*
X125609290Y-72612130D02*
X125640040Y-72300030D01*
X125640040Y-72924230D02*
X125609290Y-72612130D01*
X125731090Y-73224430D02*
X125640040Y-72924230D01*
X125878950Y-73501030D02*
X125731090Y-73224430D01*
X126077920Y-73743530D02*
X125878950Y-73501030D01*
X126320380Y-73942530D02*
X126077920Y-73743530D01*
X126597000Y-74090330D02*
X126320380Y-73942530D01*
X126897150Y-74181430D02*
X126597000Y-74090330D01*
X169209300Y-118612130D02*
X169989600Y-118535272D01*
X127209280Y-118612130D02*
X169209300Y-118612130D01*
X126428940Y-118535272D02*
X127209280Y-118612130D01*
X125678550Y-118307656D02*
X126428940Y-118535272D01*
X124987010Y-117938012D02*
X125678550Y-118307656D01*
X124380870Y-117440560D02*
X124987010Y-117938012D01*
X123883418Y-116834420D02*
X124380870Y-117440560D01*
X123513774Y-116142880D02*
X123883418Y-116834420D01*
X123286159Y-115392490D02*
X123513774Y-116142880D01*
X123209300Y-114612130D02*
X123286159Y-115392490D01*
X123209300Y-72612130D02*
X123209300Y-114612130D01*
X123286159Y-71831830D02*
X123209300Y-72612130D01*
X123513774Y-71081430D02*
X123286159Y-71831830D01*
X123883418Y-70389830D02*
X123513774Y-71081430D01*
X124380870Y-69783730D02*
X123883418Y-70389830D01*
X124987010Y-69286230D02*
X124380870Y-69783730D01*
X125678550Y-68916630D02*
X124987010Y-69286230D01*
X126428940Y-68689030D02*
X125678550Y-68916630D01*
X127209300Y-68612130D02*
X126428940Y-68689030D01*
X169209300Y-68612130D02*
X127209300Y-68612130D01*
X169989600Y-68689030D02*
X169209300Y-68612130D01*
X170740000Y-68916630D02*
X169989600Y-68689030D01*
X171431600Y-69286230D02*
X170740000Y-68916630D01*
X172037700Y-69783730D02*
X171431600Y-69286230D01*
X172535200Y-70389830D02*
X172037700Y-69783730D01*
X172904800Y-71081430D02*
X172535200Y-70389830D01*
X173132400Y-71831830D02*
X172904800Y-71081430D01*
X173209300Y-72612130D02*
X173132400Y-71831830D01*
X173209300Y-114612130D02*
X173209300Y-72612130D01*
X173132400Y-115392490D02*
X173209300Y-114612130D01*
X167609300Y-114612130D02*
X167640000Y-114300000D01*
X167640000Y-114924280D02*
X167609300Y-114612130D01*
X167731100Y-115224430D02*
X167640000Y-114924280D01*
X167878900Y-115501050D02*
X167731100Y-115224430D01*
X168077900Y-115743510D02*
X167878900Y-115501050D01*
X168320400Y-115942480D02*
X168077900Y-115743510D01*
X168597000Y-116090340D02*
X168320400Y-115942480D01*
X168897200Y-116181390D02*
X168597000Y-116090340D01*
X127209280Y-116212140D02*
X126897150Y-116181390D01*
X127521430Y-116181390D02*
X127209280Y-116212140D01*
X127821590Y-116090340D02*
X127521430Y-116181390D01*
X128098200Y-115942480D02*
X127821590Y-116090340D01*
X128340660Y-115743510D02*
X128098200Y-115942480D01*
X128539640Y-115501050D02*
X128340660Y-115743510D01*
X128687500Y-115224430D02*
X128539640Y-115501050D01*
X128778540Y-114924280D02*
X128687500Y-115224430D01*
X128809290Y-114612130D02*
X128778540Y-114924280D01*
X128778540Y-114300000D02*
X128809290Y-114612130D01*
X128687500Y-113999840D02*
X128778540Y-114300000D01*
X128539640Y-113723230D02*
X128687500Y-113999840D01*
X128340660Y-113480770D02*
X128539640Y-113723230D01*
X128098200Y-113281790D02*
X128340660Y-113480770D01*
X127821590Y-113133930D02*
X128098200Y-113281790D01*
X127521430Y-113042890D02*
X127821590Y-113133930D01*
X127209300Y-113012140D02*
X127521430Y-113042890D01*
X126897150Y-113042890D02*
X127209300Y-113012140D01*
X126597000Y-113133930D02*
X126897150Y-113042890D01*
X126320380Y-113281790D02*
X126597000Y-113133930D01*
X126077920Y-113480770D02*
X126320380Y-113281790D01*
X125878950Y-113723230D02*
X126077920Y-113480770D01*
X125731090Y-113999840D02*
X125878950Y-113723230D01*
X125640040Y-114300000D02*
X125731090Y-113999840D01*
X125609290Y-114612130D02*
X125640040Y-114300000D01*
X125640040Y-114924280D02*
X125609290Y-114612130D01*
X125731090Y-115224430D02*
X125640040Y-114924280D01*
X125878950Y-115501050D02*
X125731090Y-115224430D01*
X126077920Y-115743510D02*
X125878950Y-115501050D01*
X126320380Y-115942480D02*
X126077920Y-115743510D01*
X126597000Y-116090340D02*
X126320380Y-115942480D01*
X126897150Y-116181390D02*
X126597000Y-116090340D01*
X169209300Y-74212130D02*
X168897200Y-74181430D01*
X169521400Y-74181430D02*
X169209300Y-74212130D01*
X169821600Y-74090330D02*
X169521400Y-74181430D01*
X170098200Y-73942530D02*
X169821600Y-74090330D01*
X170340700Y-73743530D02*
X170098200Y-73942530D01*
X172904800Y-116142880D02*
X173132400Y-115392490D01*
X172535200Y-116834420D02*
X172904800Y-116142880D01*
X172037700Y-117440560D02*
X172535200Y-116834420D01*
X171431600Y-117938012D02*
X172037700Y-117440560D01*
X170740000Y-118307656D02*
X171431600Y-117938012D01*
X169989600Y-118535272D02*
X170740000Y-118307656D01*
X169209300Y-116212140D02*
X168897200Y-116181390D01*
X169521400Y-116181390D02*
X169209300Y-116212140D01*
X169821600Y-116090340D02*
X169521400Y-116181390D01*
X170098200Y-115942480D02*
X169821600Y-116090340D01*
X170340700Y-115743510D02*
X170098200Y-115942480D01*
X170539600Y-115501050D02*
X170340700Y-115743510D01*
X170687500Y-115224430D02*
X170539600Y-115501050D01*
X170778500Y-114924280D02*
X170687500Y-115224430D01*
X170809300Y-114612130D02*
X170778500Y-114924280D01*
X170778500Y-114300000D02*
X170809300Y-114612130D01*
X170687500Y-113999840D02*
X170778500Y-114300000D01*
X170539600Y-113723230D02*
X170687500Y-113999840D01*
X170340700Y-113480770D02*
X170539600Y-113723230D01*
X170098200Y-113281790D02*
X170340700Y-113480770D01*
X169821600Y-113133930D02*
X170098200Y-113281790D01*
X169521400Y-113042890D02*
X169821600Y-113133930D01*
X169209300Y-113012140D02*
X169521400Y-113042890D01*
X168897200Y-113042890D02*
X169209300Y-113012140D01*
X168597000Y-113133930D02*
X168897200Y-113042890D01*
X168320400Y-113281790D02*
X168597000Y-113133930D01*
X168077900Y-113480770D02*
X168320400Y-113281790D01*
X167878900Y-113723230D02*
X168077900Y-113480770D01*
X167731100Y-113999840D02*
X167878900Y-113723230D01*
X167640000Y-114300000D02*
X167731100Y-113999840D01*
M02*
