G04 #@! TF.FileFunction,Copper,L2,Bot,Signal*
%FSLAX46Y46*%
G04 Gerber Fmt 4.6, Leading zero omitted, Abs format (unit mm)*
G04 Created by KiCad (PCBNEW 4.0.5-e0-6337~49~ubuntu16.04.1) date Tue Feb 21 22:55:49 2017*
%MOMM*%
%LPD*%
G01*
G04 APERTURE LIST*
%ADD10C,0.100000*%
%ADD11O,0.950000X1.250000*%
%ADD12O,1.550000X1.000000*%
%ADD13C,0.600000*%
%ADD14C,0.250000*%
%ADD15C,0.254000*%
G04 APERTURE END LIST*
D10*
D11*
X127308600Y-87365200D03*
X127308600Y-92365200D03*
D12*
X124608600Y-86365200D03*
X124608600Y-93365200D03*
D13*
X169532300Y-93154500D03*
X134178045Y-92318660D03*
X142252700Y-80022700D03*
X137553700Y-98018600D03*
X137591800Y-92722700D03*
X135445500Y-93218000D03*
X166255700Y-77101700D03*
X170053000Y-75425300D03*
X163817300Y-116116100D03*
X134701662Y-92923510D03*
X145737191Y-111558590D03*
X156654500Y-76263500D03*
X128092200Y-105003600D03*
X129730500Y-100685600D03*
X137477500Y-86207600D03*
X166674800Y-75234800D03*
X135953500Y-82410300D03*
X171220191Y-82277824D03*
X167271700Y-82181700D03*
X132626100Y-100368100D03*
X130937000Y-90728800D03*
X133323487Y-99976091D03*
X131610100Y-92989400D03*
X136906000Y-95415100D03*
X129171700Y-105079800D03*
X151520990Y-112255499D03*
X156870400Y-99504500D03*
X161925000Y-114427000D03*
X155829000Y-109385100D03*
X148247100Y-106807000D03*
X152831800Y-101791800D03*
X134134248Y-88922248D03*
X136271000Y-87934800D03*
X139725925Y-104081723D03*
X136144000Y-100622100D03*
X146354800Y-115912900D03*
X154101800Y-114300000D03*
X138420010Y-104807856D03*
X141998700Y-115227100D03*
X166674800Y-106070400D03*
X156819600Y-113030000D03*
X152146000Y-113893600D03*
X140970000Y-115671600D03*
X157610799Y-109228901D03*
X159015345Y-107840179D03*
X149936200Y-89979500D03*
X144437100Y-108216700D03*
X137795000Y-104203500D03*
X136220200Y-111721900D03*
D14*
X169832299Y-92587801D02*
X170103800Y-92316300D01*
X169532300Y-93154500D02*
X169832299Y-92854501D01*
X169832299Y-92854501D02*
X169832299Y-92587801D01*
X137553700Y-98018600D02*
X137553700Y-94642496D01*
X133878046Y-93017959D02*
X133878046Y-92618659D01*
X132241084Y-89610052D02*
X132241084Y-90381699D01*
X134799653Y-93939566D02*
X133878046Y-93017959D01*
X136850770Y-93939566D02*
X134799653Y-93939566D01*
X132241084Y-90381699D02*
X134178045Y-92318660D01*
X141828436Y-80022700D02*
X132241084Y-89610052D01*
X142252700Y-80022700D02*
X141828436Y-80022700D01*
X133878046Y-92618659D02*
X134178045Y-92318660D01*
X137553700Y-94642496D02*
X136850770Y-93939566D01*
X135445500Y-93218000D02*
X135745499Y-92918001D01*
X135745499Y-92918001D02*
X137863301Y-92918001D01*
X166255700Y-77101700D02*
X166370000Y-77216000D01*
X166370000Y-77216000D02*
X166370000Y-77381100D01*
X162826700Y-114701236D02*
X162826700Y-97878900D01*
X162826700Y-97878900D02*
X156654500Y-91706700D01*
X163817300Y-116116100D02*
X163817300Y-115691836D01*
X163817300Y-115691836D02*
X162826700Y-114701236D01*
X137477500Y-90147672D02*
X134701662Y-92923510D01*
X137477500Y-86207600D02*
X137477500Y-90147672D01*
X156654500Y-76263500D02*
X156654500Y-91706700D01*
X145737191Y-102624009D02*
X145737191Y-111558590D01*
X156654500Y-91706700D02*
X145737191Y-102624009D01*
X129730500Y-100685600D02*
X129730500Y-103365300D01*
X129730500Y-103365300D02*
X128092200Y-105003600D01*
X167271700Y-75831700D02*
X166674800Y-75234800D01*
X167271700Y-82181700D02*
X167271700Y-75831700D01*
X143129000Y-75234800D02*
X166674800Y-75234800D01*
X135953500Y-82410300D02*
X143129000Y-75234800D01*
X171124067Y-82181700D02*
X171220191Y-82277824D01*
X167271700Y-82181700D02*
X171124067Y-82181700D01*
X130937000Y-90728800D02*
X130637001Y-91028799D01*
X130637001Y-91028799D02*
X130637001Y-94457690D01*
X132626100Y-96446789D02*
X132626100Y-100368100D01*
X130637001Y-94457690D02*
X132626100Y-96446789D01*
X131310101Y-93289399D02*
X131310101Y-94494379D01*
X131310101Y-94494379D02*
X133323487Y-96507765D01*
X131610100Y-92989400D02*
X131310101Y-93289399D01*
X133323487Y-96507765D02*
X133323487Y-99976091D01*
X136906000Y-97345500D02*
X136906000Y-95415100D01*
X129171700Y-105079800D02*
X136906000Y-97345500D01*
X156870400Y-106906089D02*
X151520990Y-112255499D01*
X156870400Y-99504500D02*
X156870400Y-106906089D01*
X155829000Y-109385100D02*
X156883100Y-109385100D01*
X156883100Y-109385100D02*
X161925000Y-114427000D01*
X152831800Y-101791800D02*
X152831800Y-102222300D01*
X152831800Y-102222300D02*
X148247100Y-106807000D01*
X135121696Y-87934800D02*
X134134248Y-88922248D01*
X136271000Y-87934800D02*
X135121696Y-87934800D01*
X139725925Y-103779761D02*
X139725925Y-104081723D01*
X136144000Y-100622100D02*
X136568264Y-100622100D01*
X136568264Y-100622100D02*
X139725925Y-103779761D01*
X154101800Y-114300000D02*
X152488900Y-115912900D01*
X152488900Y-115912900D02*
X146354800Y-115912900D01*
X138420010Y-111648410D02*
X138420010Y-104807856D01*
X141998700Y-115227100D02*
X138420010Y-111648410D01*
X166052500Y-114846100D02*
X166052500Y-106692700D01*
X166052500Y-106692700D02*
X166674800Y-106070400D01*
X164058600Y-116840000D02*
X166052500Y-114846100D01*
X162839400Y-116840000D02*
X164058600Y-116840000D01*
X159329399Y-113329999D02*
X162839400Y-116840000D01*
X156819600Y-113030000D02*
X157119599Y-113329999D01*
X157119599Y-113329999D02*
X159329399Y-113329999D01*
X140970000Y-115671600D02*
X141518198Y-115671600D01*
X141518198Y-115671600D02*
X141848548Y-116001950D01*
X141848548Y-116001950D02*
X142448550Y-116001950D01*
X142448550Y-116001950D02*
X144556900Y-113893600D01*
X144556900Y-113893600D02*
X152146000Y-113893600D01*
X157626623Y-109228901D02*
X157610799Y-109228901D01*
X159015345Y-107840179D02*
X157626623Y-109228901D01*
X144737099Y-96651801D02*
X149936200Y-91452700D01*
X149936200Y-91452700D02*
X149936200Y-89979500D01*
X144437100Y-108216700D02*
X144737099Y-107916701D01*
X144737099Y-107916701D02*
X144737099Y-96651801D01*
X137795000Y-104942940D02*
X137795000Y-104203500D01*
X136220200Y-111721900D02*
X136220200Y-106517740D01*
X136220200Y-106517740D02*
X137795000Y-104942940D01*
D15*
G36*
X170075369Y-70507799D02*
X170020315Y-70478387D01*
X169720116Y-70387387D01*
X169653106Y-70380800D01*
X169588673Y-70361241D01*
X169276573Y-70330441D01*
X169209300Y-70337054D01*
X169142027Y-70330441D01*
X168829927Y-70361241D01*
X168765494Y-70380800D01*
X168698484Y-70387387D01*
X168398284Y-70478387D01*
X168338675Y-70510234D01*
X168274001Y-70529863D01*
X167997401Y-70677763D01*
X167945370Y-70720477D01*
X167885990Y-70752195D01*
X167643490Y-70951095D01*
X167600606Y-71003320D01*
X167548372Y-71046190D01*
X167349372Y-71288690D01*
X167317556Y-71348218D01*
X167274742Y-71400401D01*
X167126942Y-71677001D01*
X167107389Y-71741490D01*
X167075617Y-71800915D01*
X166984517Y-72101114D01*
X166977889Y-72168334D01*
X166958290Y-72232973D01*
X166927590Y-72545073D01*
X166934203Y-72612130D01*
X166927590Y-72679187D01*
X166958290Y-72991287D01*
X166977889Y-73055926D01*
X166984517Y-73123146D01*
X167075617Y-73423345D01*
X167107389Y-73482770D01*
X167126942Y-73547259D01*
X167274742Y-73823859D01*
X167317556Y-73876042D01*
X167349372Y-73935570D01*
X167548372Y-74178070D01*
X167600542Y-74220888D01*
X167643360Y-74273058D01*
X167885859Y-74472058D01*
X167945389Y-74503875D01*
X167997571Y-74546688D01*
X168274171Y-74694488D01*
X168338658Y-74714041D01*
X168398084Y-74745813D01*
X168698284Y-74836913D01*
X168765504Y-74843541D01*
X168830143Y-74863140D01*
X169142243Y-74893840D01*
X169209300Y-74887227D01*
X169276357Y-74893840D01*
X169588457Y-74863140D01*
X169653096Y-74843541D01*
X169720316Y-74836913D01*
X170020515Y-74745813D01*
X170079940Y-74714041D01*
X170144429Y-74694488D01*
X170421029Y-74546688D01*
X170473212Y-74503874D01*
X170532740Y-74472058D01*
X170775240Y-74273058D01*
X170818110Y-74220824D01*
X170870335Y-74177940D01*
X171069235Y-73935440D01*
X171100953Y-73876060D01*
X171143667Y-73824029D01*
X171291567Y-73547429D01*
X171311196Y-73482755D01*
X171343043Y-73423146D01*
X171434043Y-73122946D01*
X171440630Y-73055936D01*
X171460189Y-72991503D01*
X171490989Y-72679403D01*
X171484376Y-72612130D01*
X171490989Y-72544857D01*
X171460189Y-72232757D01*
X171440630Y-72168324D01*
X171434043Y-72101314D01*
X171378925Y-71919484D01*
X172047482Y-72643498D01*
X172524300Y-113273460D01*
X172524300Y-113684429D01*
X171339242Y-115430273D01*
X171343034Y-115423176D01*
X171434034Y-115123026D01*
X171440626Y-115055996D01*
X171460190Y-114991543D01*
X171490990Y-114679393D01*
X171484377Y-114612125D01*
X171490989Y-114544863D01*
X171460189Y-114232733D01*
X171440627Y-114168287D01*
X171434036Y-114101260D01*
X171343036Y-113801100D01*
X171311195Y-113741507D01*
X171291572Y-113676850D01*
X171143672Y-113400240D01*
X171100938Y-113348183D01*
X171069200Y-113288777D01*
X170870300Y-113046317D01*
X170818081Y-113003444D01*
X170775215Y-112951221D01*
X170532714Y-112752241D01*
X170473249Y-112720463D01*
X170421131Y-112677687D01*
X170144531Y-112529827D01*
X170079933Y-112510229D01*
X170020396Y-112478411D01*
X169720196Y-112387371D01*
X169653090Y-112380767D01*
X169588565Y-112361191D01*
X169276465Y-112330441D01*
X169209300Y-112337054D01*
X169142135Y-112330441D01*
X168830035Y-112361191D01*
X168765510Y-112380767D01*
X168698404Y-112387371D01*
X168398204Y-112478411D01*
X168338667Y-112510229D01*
X168274069Y-112529827D01*
X167997469Y-112677687D01*
X167945351Y-112720463D01*
X167885886Y-112752241D01*
X167643386Y-112951221D01*
X167600574Y-113003379D01*
X167548407Y-113046187D01*
X167349407Y-113288647D01*
X167317570Y-113348204D01*
X167274738Y-113400410D01*
X167126938Y-113677020D01*
X167107391Y-113741490D01*
X167075625Y-113800900D01*
X166984525Y-114101060D01*
X166977893Y-114168293D01*
X166958289Y-114232950D01*
X166927589Y-114545079D01*
X166934202Y-114612129D01*
X166927589Y-114679176D01*
X166958289Y-114991326D01*
X166977894Y-115055988D01*
X166984527Y-115123226D01*
X167075627Y-115423376D01*
X167107389Y-115482777D01*
X167126933Y-115547241D01*
X167274733Y-115823861D01*
X167317568Y-115876072D01*
X167349407Y-115935633D01*
X167548407Y-116178093D01*
X167600580Y-116220906D01*
X167643399Y-116273070D01*
X167885899Y-116472040D01*
X167945358Y-116503813D01*
X167997469Y-116546583D01*
X168274069Y-116694443D01*
X168338657Y-116714038D01*
X168398184Y-116745853D01*
X168698384Y-116836903D01*
X168765500Y-116843510D01*
X168830035Y-116863089D01*
X169142135Y-116893839D01*
X169209300Y-116887226D01*
X169276465Y-116893839D01*
X169588565Y-116863089D01*
X169653100Y-116843510D01*
X169720216Y-116836903D01*
X170020416Y-116745853D01*
X170079943Y-116714038D01*
X170144531Y-116694443D01*
X170421131Y-116546583D01*
X170473242Y-116503813D01*
X170532701Y-116472040D01*
X170757056Y-116287958D01*
X169744631Y-117779477D01*
X127448443Y-117576800D01*
X126194862Y-116652105D01*
X126274087Y-116694453D01*
X126338651Y-116714039D01*
X126398154Y-116745844D01*
X126698304Y-116836894D01*
X126765437Y-116843506D01*
X126829991Y-116863090D01*
X127142121Y-116893840D01*
X127209280Y-116887227D01*
X127276435Y-116893840D01*
X127588585Y-116863090D01*
X127653135Y-116843508D01*
X127720270Y-116836896D01*
X128020430Y-116745846D01*
X128079941Y-116714037D01*
X128144512Y-116694448D01*
X128421122Y-116546588D01*
X128473259Y-116503798D01*
X128532744Y-116472005D01*
X128775204Y-116273035D01*
X128818014Y-116220874D01*
X128870174Y-116178067D01*
X129069154Y-115935607D01*
X129100955Y-115876112D01*
X129143753Y-115823963D01*
X129291613Y-115547343D01*
X129311202Y-115482769D01*
X129343010Y-115423256D01*
X129434050Y-115123106D01*
X129440659Y-115055980D01*
X129460240Y-114991435D01*
X129490990Y-114679284D01*
X129484377Y-114612130D01*
X129490990Y-114544971D01*
X129460240Y-114232841D01*
X129440660Y-114168301D01*
X129434052Y-114101180D01*
X129343012Y-113801020D01*
X129311200Y-113741499D01*
X129291608Y-113676918D01*
X129143748Y-113400308D01*
X129100952Y-113348164D01*
X129069154Y-113288673D01*
X128870174Y-113046213D01*
X128818019Y-113003411D01*
X128775217Y-112951256D01*
X128532757Y-112752276D01*
X128473266Y-112720478D01*
X128421122Y-112677682D01*
X128144512Y-112529822D01*
X128079931Y-112510230D01*
X128020410Y-112478418D01*
X127720250Y-112387378D01*
X127653130Y-112380770D01*
X127588589Y-112361190D01*
X127276459Y-112330440D01*
X127209300Y-112337053D01*
X127142146Y-112330440D01*
X126829995Y-112361190D01*
X126765450Y-112380771D01*
X126698324Y-112387380D01*
X126398174Y-112478420D01*
X126338661Y-112510228D01*
X126274087Y-112529817D01*
X125997467Y-112677677D01*
X125945318Y-112720475D01*
X125885823Y-112752276D01*
X125643363Y-112951256D01*
X125600556Y-113003416D01*
X125548395Y-113046226D01*
X125349425Y-113288686D01*
X125317632Y-113348171D01*
X125274842Y-113400308D01*
X125126982Y-113676918D01*
X125107393Y-113741489D01*
X125075584Y-113801000D01*
X124984534Y-114101160D01*
X124977923Y-114168291D01*
X124958340Y-114232841D01*
X124927590Y-114544971D01*
X124934203Y-114612130D01*
X124927590Y-114679285D01*
X124958340Y-114991435D01*
X124977924Y-115055990D01*
X124984536Y-115123126D01*
X125075586Y-115423276D01*
X125107391Y-115482779D01*
X125126977Y-115547343D01*
X125274837Y-115823963D01*
X125317630Y-115876105D01*
X125349425Y-115935594D01*
X125542552Y-116170933D01*
X124192976Y-115175429D01*
X124142524Y-105188767D01*
X127157038Y-105188767D01*
X127299083Y-105532543D01*
X127561873Y-105795792D01*
X127905401Y-105938438D01*
X128277367Y-105938762D01*
X128582265Y-105812781D01*
X128641373Y-105871992D01*
X128984901Y-106014638D01*
X129356867Y-106014962D01*
X129700643Y-105872917D01*
X129963892Y-105610127D01*
X130106538Y-105266599D01*
X130106579Y-105219723D01*
X136769663Y-98556639D01*
X137023373Y-98810792D01*
X137366901Y-98953438D01*
X137738867Y-98953762D01*
X138082643Y-98811717D01*
X138345892Y-98548927D01*
X138488538Y-98205399D01*
X138488862Y-97833433D01*
X138346817Y-97489657D01*
X138313700Y-97456482D01*
X138313700Y-94642496D01*
X138255848Y-94351657D01*
X138091101Y-94105095D01*
X137388171Y-93402165D01*
X137141609Y-93237418D01*
X136850770Y-93179566D01*
X135607742Y-93179566D01*
X135636500Y-93110309D01*
X135636541Y-93063433D01*
X138014901Y-90685073D01*
X138179648Y-90438511D01*
X138237500Y-90147672D01*
X138237500Y-86770063D01*
X138269692Y-86737927D01*
X138412338Y-86394399D01*
X138412662Y-86022433D01*
X138270617Y-85678657D01*
X138007827Y-85415408D01*
X137664299Y-85272762D01*
X137653186Y-85272752D01*
X139623540Y-83302398D01*
X139684020Y-83448772D01*
X140017075Y-83782409D01*
X140452455Y-83963194D01*
X140923877Y-83963606D01*
X141359572Y-83783580D01*
X141693209Y-83450525D01*
X141873994Y-83015145D01*
X141874406Y-82543723D01*
X141694380Y-82108028D01*
X141361325Y-81774391D01*
X141213097Y-81712841D01*
X141997007Y-80928931D01*
X142065901Y-80957538D01*
X142437867Y-80957862D01*
X142781643Y-80815817D01*
X143044892Y-80553027D01*
X143187538Y-80209499D01*
X143187862Y-79837533D01*
X143045817Y-79493757D01*
X142783027Y-79230508D01*
X142439499Y-79087862D01*
X142067533Y-79087538D01*
X141723757Y-79229583D01*
X141656278Y-79296945D01*
X141537596Y-79320552D01*
X141291035Y-79485299D01*
X131703683Y-89072651D01*
X131538936Y-89319213D01*
X131481084Y-89610052D01*
X131481084Y-89950389D01*
X131467327Y-89936608D01*
X131123799Y-89793962D01*
X130751833Y-89793638D01*
X130408057Y-89935683D01*
X130144808Y-90198473D01*
X130002162Y-90542001D01*
X130002079Y-90637349D01*
X129934853Y-90737960D01*
X129877001Y-91028799D01*
X129877001Y-94457690D01*
X129934853Y-94748529D01*
X130099600Y-94995091D01*
X131866100Y-96761591D01*
X131866100Y-99805637D01*
X131833908Y-99837773D01*
X131691262Y-100181301D01*
X131690938Y-100553267D01*
X131832983Y-100897043D01*
X132056124Y-101120574D01*
X130490500Y-102686198D01*
X130490500Y-101248063D01*
X130522692Y-101215927D01*
X130665338Y-100872399D01*
X130665662Y-100500433D01*
X130523617Y-100156657D01*
X130260827Y-99893408D01*
X129917299Y-99750762D01*
X129545333Y-99750438D01*
X129201557Y-99892483D01*
X128938308Y-100155273D01*
X128795662Y-100498801D01*
X128795338Y-100870767D01*
X128937383Y-101214543D01*
X128970500Y-101247718D01*
X128970500Y-103050498D01*
X127952520Y-104068478D01*
X127907033Y-104068438D01*
X127563257Y-104210483D01*
X127300008Y-104473273D01*
X127157362Y-104816801D01*
X127157038Y-105188767D01*
X124142524Y-105188767D01*
X124088335Y-94462606D01*
X124206600Y-94500200D01*
X124481600Y-94500200D01*
X124481600Y-93492200D01*
X124735600Y-93492200D01*
X124735600Y-94500200D01*
X125010600Y-94500200D01*
X125435278Y-94365202D01*
X125775968Y-94077963D01*
X125977719Y-93667074D01*
X125851554Y-93492200D01*
X124735600Y-93492200D01*
X124481600Y-93492200D01*
X124461600Y-93492200D01*
X124461600Y-93238200D01*
X124481600Y-93238200D01*
X124481600Y-92230200D01*
X124735600Y-92230200D01*
X124735600Y-93238200D01*
X125851554Y-93238200D01*
X125977719Y-93063326D01*
X125782791Y-92666331D01*
X126207371Y-92666331D01*
X126349032Y-93076249D01*
X126636779Y-93400752D01*
X127010662Y-93584468D01*
X127181600Y-93457934D01*
X127181600Y-92492200D01*
X127435600Y-92492200D01*
X127435600Y-93457934D01*
X127606538Y-93584468D01*
X127980421Y-93400752D01*
X128268168Y-93076249D01*
X128409829Y-92666331D01*
X128261163Y-92492200D01*
X127435600Y-92492200D01*
X127181600Y-92492200D01*
X126356037Y-92492200D01*
X126207371Y-92666331D01*
X125782791Y-92666331D01*
X125775968Y-92652437D01*
X125435278Y-92365198D01*
X125010600Y-92230200D01*
X124735600Y-92230200D01*
X124481600Y-92230200D01*
X124206600Y-92230200D01*
X124077265Y-92271314D01*
X124076218Y-92064069D01*
X126207371Y-92064069D01*
X126356037Y-92238200D01*
X127181600Y-92238200D01*
X127181600Y-91272466D01*
X127435600Y-91272466D01*
X127435600Y-92238200D01*
X128261163Y-92238200D01*
X128409829Y-92064069D01*
X128268168Y-91654151D01*
X127980421Y-91329648D01*
X127606538Y-91145932D01*
X127435600Y-91272466D01*
X127181600Y-91272466D01*
X127010662Y-91145932D01*
X126636779Y-91329648D01*
X126349032Y-91654151D01*
X126207371Y-92064069D01*
X124076218Y-92064069D01*
X124054001Y-87666331D01*
X126207371Y-87666331D01*
X126349032Y-88076249D01*
X126636779Y-88400752D01*
X127010662Y-88584468D01*
X127181600Y-88457934D01*
X127181600Y-87492200D01*
X127435600Y-87492200D01*
X127435600Y-88457934D01*
X127606538Y-88584468D01*
X127980421Y-88400752D01*
X128268168Y-88076249D01*
X128409829Y-87666331D01*
X128261163Y-87492200D01*
X127435600Y-87492200D01*
X127181600Y-87492200D01*
X126356037Y-87492200D01*
X126207371Y-87666331D01*
X124054001Y-87666331D01*
X124052914Y-87451346D01*
X124206600Y-87500200D01*
X124481600Y-87500200D01*
X124481600Y-86492200D01*
X124735600Y-86492200D01*
X124735600Y-87500200D01*
X125010600Y-87500200D01*
X125435278Y-87365202D01*
X125775968Y-87077963D01*
X125782790Y-87064069D01*
X126207371Y-87064069D01*
X126356037Y-87238200D01*
X127181600Y-87238200D01*
X127181600Y-86272466D01*
X127435600Y-86272466D01*
X127435600Y-87238200D01*
X128261163Y-87238200D01*
X128409829Y-87064069D01*
X128268168Y-86654151D01*
X127980421Y-86329648D01*
X127606538Y-86145932D01*
X127435600Y-86272466D01*
X127181600Y-86272466D01*
X127010662Y-86145932D01*
X126636779Y-86329648D01*
X126349032Y-86654151D01*
X126207371Y-87064069D01*
X125782790Y-87064069D01*
X125977719Y-86667074D01*
X125851554Y-86492200D01*
X124735600Y-86492200D01*
X124481600Y-86492200D01*
X124461600Y-86492200D01*
X124461600Y-86238200D01*
X124481600Y-86238200D01*
X124481600Y-85230200D01*
X124735600Y-85230200D01*
X124735600Y-86238200D01*
X125851554Y-86238200D01*
X125977719Y-86063326D01*
X125775968Y-85652437D01*
X125435278Y-85365198D01*
X125010600Y-85230200D01*
X124735600Y-85230200D01*
X124481600Y-85230200D01*
X124206600Y-85230200D01*
X124041957Y-85282537D01*
X124028383Y-82595467D01*
X135018338Y-82595467D01*
X135160383Y-82939243D01*
X135423173Y-83202492D01*
X135766701Y-83345138D01*
X136138667Y-83345462D01*
X136482443Y-83203417D01*
X136745692Y-82940627D01*
X136888338Y-82597099D01*
X136888379Y-82550223D01*
X143443802Y-75994800D01*
X155753670Y-75994800D01*
X155719662Y-76076701D01*
X155719338Y-76448667D01*
X155861383Y-76792443D01*
X155894500Y-76825618D01*
X155894500Y-91391898D01*
X145497099Y-101789299D01*
X145497099Y-96966603D01*
X150473601Y-91990101D01*
X150638348Y-91743539D01*
X150696200Y-91452700D01*
X150696200Y-90541963D01*
X150728392Y-90509827D01*
X150871038Y-90166299D01*
X150871362Y-89794333D01*
X150729317Y-89450557D01*
X150466527Y-89187308D01*
X150122999Y-89044662D01*
X149751033Y-89044338D01*
X149407257Y-89186383D01*
X149144008Y-89449173D01*
X149001362Y-89792701D01*
X149001038Y-90164667D01*
X149143083Y-90508443D01*
X149176200Y-90541618D01*
X149176200Y-91137898D01*
X144199698Y-96114400D01*
X144034951Y-96360962D01*
X143977099Y-96651801D01*
X143977099Y-107395097D01*
X143908157Y-107423583D01*
X143644908Y-107686373D01*
X143502262Y-108029901D01*
X143501938Y-108401867D01*
X143643983Y-108745643D01*
X143906773Y-109008892D01*
X144250301Y-109151538D01*
X144622267Y-109151862D01*
X144966043Y-109009817D01*
X144977191Y-108998688D01*
X144977191Y-110996127D01*
X144944999Y-111028263D01*
X144802353Y-111371791D01*
X144802029Y-111743757D01*
X144944074Y-112087533D01*
X145206864Y-112350782D01*
X145550392Y-112493428D01*
X145922358Y-112493752D01*
X146266134Y-112351707D01*
X146529383Y-112088917D01*
X146672029Y-111745389D01*
X146672353Y-111373423D01*
X146530308Y-111029647D01*
X146497191Y-110996472D01*
X146497191Y-106992167D01*
X147311938Y-106992167D01*
X147453983Y-107335943D01*
X147716773Y-107599192D01*
X148060301Y-107741838D01*
X148432267Y-107742162D01*
X148776043Y-107600117D01*
X149039292Y-107337327D01*
X149181938Y-106993799D01*
X149181979Y-106946923D01*
X153369201Y-102759701D01*
X153533948Y-102513139D01*
X153559047Y-102386959D01*
X153623992Y-102322127D01*
X153766638Y-101978599D01*
X153766962Y-101606633D01*
X153624917Y-101262857D01*
X153362127Y-100999608D01*
X153018599Y-100856962D01*
X152646633Y-100856638D01*
X152302857Y-100998683D01*
X152039608Y-101261473D01*
X151896962Y-101605001D01*
X151896638Y-101976967D01*
X151927541Y-102051757D01*
X148107420Y-105871878D01*
X148061933Y-105871838D01*
X147718157Y-106013883D01*
X147454908Y-106276673D01*
X147312262Y-106620201D01*
X147311938Y-106992167D01*
X146497191Y-106992167D01*
X146497191Y-102938811D01*
X156654500Y-92781502D01*
X162066700Y-98193702D01*
X162066700Y-113492123D01*
X162064923Y-113492121D01*
X158367480Y-109794678D01*
X158402991Y-109759228D01*
X158545637Y-109415700D01*
X158545664Y-109384662D01*
X159155025Y-108775301D01*
X159200512Y-108775341D01*
X159544288Y-108633296D01*
X159807537Y-108370506D01*
X159950183Y-108026978D01*
X159950507Y-107655012D01*
X159808462Y-107311236D01*
X159545672Y-107047987D01*
X159202144Y-106905341D01*
X158830178Y-106905017D01*
X158486402Y-107047062D01*
X158223153Y-107309852D01*
X158080507Y-107653380D01*
X158080466Y-107700256D01*
X157486930Y-108293792D01*
X157425632Y-108293739D01*
X157081856Y-108435784D01*
X156890696Y-108626611D01*
X156883100Y-108625100D01*
X156391463Y-108625100D01*
X156359327Y-108592908D01*
X156288000Y-108563291D01*
X157407801Y-107443490D01*
X157572548Y-107196929D01*
X157630400Y-106906089D01*
X157630400Y-100066963D01*
X157662592Y-100034827D01*
X157805238Y-99691299D01*
X157805562Y-99319333D01*
X157663517Y-98975557D01*
X157400727Y-98712308D01*
X157057199Y-98569662D01*
X156685233Y-98569338D01*
X156341457Y-98711383D01*
X156078208Y-98974173D01*
X155935562Y-99317701D01*
X155935238Y-99689667D01*
X156077283Y-100033443D01*
X156110400Y-100066618D01*
X156110400Y-106591287D01*
X151381310Y-111320377D01*
X151335823Y-111320337D01*
X150992047Y-111462382D01*
X150728798Y-111725172D01*
X150586152Y-112068700D01*
X150585828Y-112440666D01*
X150727873Y-112784442D01*
X150990663Y-113047691D01*
X151197554Y-113133600D01*
X144556900Y-113133600D01*
X144266061Y-113191452D01*
X144019499Y-113356199D01*
X142734729Y-114640969D01*
X142529027Y-114434908D01*
X142185499Y-114292262D01*
X142138623Y-114292221D01*
X139180010Y-111333608D01*
X139180010Y-105370319D01*
X139212202Y-105338183D01*
X139354848Y-104994655D01*
X139354896Y-104940061D01*
X139539126Y-105016561D01*
X139704167Y-105016705D01*
X139704030Y-105173469D01*
X139853671Y-105535629D01*
X140130514Y-105812955D01*
X140492412Y-105963228D01*
X140884269Y-105963570D01*
X141246429Y-105813929D01*
X141523755Y-105537086D01*
X141674028Y-105175188D01*
X141674370Y-104783331D01*
X141524729Y-104421171D01*
X141247886Y-104143845D01*
X140885988Y-103993572D01*
X140661003Y-103993376D01*
X140661087Y-103896556D01*
X140519042Y-103552780D01*
X140372967Y-103406450D01*
X140263326Y-103242360D01*
X137105665Y-100084699D01*
X136859103Y-99919952D01*
X136740704Y-99896401D01*
X136674327Y-99829908D01*
X136330799Y-99687262D01*
X135958833Y-99686938D01*
X135615057Y-99828983D01*
X135351808Y-100091773D01*
X135209162Y-100435301D01*
X135208838Y-100807267D01*
X135350883Y-101151043D01*
X135613673Y-101414292D01*
X135957201Y-101556938D01*
X136329167Y-101557262D01*
X136399545Y-101528183D01*
X138252379Y-103381017D01*
X137981799Y-103268662D01*
X137609833Y-103268338D01*
X137266057Y-103410383D01*
X137002808Y-103673173D01*
X136860162Y-104016701D01*
X136859838Y-104388667D01*
X136981069Y-104682069D01*
X135682799Y-105980339D01*
X135518052Y-106226901D01*
X135460200Y-106517740D01*
X135460200Y-111159437D01*
X135428008Y-111191573D01*
X135285362Y-111535101D01*
X135285038Y-111907067D01*
X135427083Y-112250843D01*
X135689873Y-112514092D01*
X136033401Y-112656738D01*
X136405367Y-112657062D01*
X136749143Y-112515017D01*
X137012392Y-112252227D01*
X137155038Y-111908699D01*
X137155362Y-111536733D01*
X137013317Y-111192957D01*
X136980200Y-111159782D01*
X136980200Y-106832542D01*
X137660010Y-106152732D01*
X137660010Y-111648410D01*
X137717862Y-111939249D01*
X137882609Y-112185811D01*
X140536036Y-114839238D01*
X140441057Y-114878483D01*
X140177808Y-115141273D01*
X140035162Y-115484801D01*
X140034838Y-115856767D01*
X140176883Y-116200543D01*
X140439673Y-116463792D01*
X140783201Y-116606438D01*
X141155167Y-116606762D01*
X141313886Y-116541181D01*
X141557708Y-116704098D01*
X141567356Y-116706017D01*
X141848548Y-116761950D01*
X142448550Y-116761950D01*
X142739389Y-116704098D01*
X142985951Y-116539351D01*
X144871702Y-114653600D01*
X151583537Y-114653600D01*
X151615673Y-114685792D01*
X151959201Y-114828438D01*
X152331167Y-114828762D01*
X152615874Y-114711124D01*
X152174098Y-115152900D01*
X146917263Y-115152900D01*
X146885127Y-115120708D01*
X146541599Y-114978062D01*
X146169633Y-114977738D01*
X145825857Y-115119783D01*
X145562608Y-115382573D01*
X145419962Y-115726101D01*
X145419638Y-116098067D01*
X145561683Y-116441843D01*
X145824473Y-116705092D01*
X146168001Y-116847738D01*
X146539967Y-116848062D01*
X146883743Y-116706017D01*
X146916918Y-116672900D01*
X152488900Y-116672900D01*
X152779739Y-116615048D01*
X153026301Y-116450301D01*
X154241480Y-115235122D01*
X154286967Y-115235162D01*
X154630743Y-115093117D01*
X154893992Y-114830327D01*
X155036638Y-114486799D01*
X155036962Y-114114833D01*
X154894917Y-113771057D01*
X154632127Y-113507808D01*
X154288599Y-113365162D01*
X153916633Y-113364838D01*
X153572857Y-113506883D01*
X153309608Y-113769673D01*
X153166962Y-114113201D01*
X153166921Y-114160077D01*
X152963131Y-114363867D01*
X153080838Y-114080399D01*
X153081162Y-113708433D01*
X152939117Y-113364657D01*
X152676327Y-113101408D01*
X152332799Y-112958762D01*
X152140112Y-112958594D01*
X152313182Y-112785826D01*
X152455828Y-112442298D01*
X152455869Y-112395422D01*
X155007044Y-109844247D01*
X155035883Y-109914043D01*
X155298673Y-110177292D01*
X155642201Y-110319938D01*
X156014167Y-110320262D01*
X156357943Y-110178217D01*
X156391118Y-110145100D01*
X156568298Y-110145100D01*
X158993197Y-112569999D01*
X157641203Y-112569999D01*
X157612717Y-112501057D01*
X157349927Y-112237808D01*
X157006399Y-112095162D01*
X156634433Y-112094838D01*
X156290657Y-112236883D01*
X156027408Y-112499673D01*
X155884762Y-112843201D01*
X155884438Y-113215167D01*
X156026483Y-113558943D01*
X156289273Y-113822192D01*
X156632801Y-113964838D01*
X156728149Y-113964921D01*
X156828760Y-114032147D01*
X157119599Y-114089999D01*
X159014597Y-114089999D01*
X162301999Y-117377401D01*
X162548561Y-117542148D01*
X162839400Y-117600000D01*
X164058600Y-117600000D01*
X164349439Y-117542148D01*
X164596001Y-117377401D01*
X166589901Y-115383501D01*
X166754648Y-115136940D01*
X166772586Y-115046760D01*
X166812500Y-114846100D01*
X166812500Y-107007502D01*
X166814480Y-107005522D01*
X166859967Y-107005562D01*
X167203743Y-106863517D01*
X167466992Y-106600727D01*
X167609638Y-106257199D01*
X167609962Y-105885233D01*
X167467917Y-105541457D01*
X167205127Y-105278208D01*
X166861599Y-105135562D01*
X166489633Y-105135238D01*
X166145857Y-105277283D01*
X165882608Y-105540073D01*
X165739962Y-105883601D01*
X165739921Y-105930477D01*
X165515099Y-106155299D01*
X165350352Y-106401861D01*
X165292500Y-106692700D01*
X165292500Y-114531298D01*
X164480737Y-115343061D01*
X164354701Y-115154435D01*
X163586700Y-114386434D01*
X163586700Y-97878900D01*
X163528848Y-97588061D01*
X163364101Y-97341499D01*
X157414500Y-91391898D01*
X157414500Y-76825963D01*
X157446692Y-76793827D01*
X157589338Y-76450299D01*
X157589662Y-76078333D01*
X157555147Y-75994800D01*
X166112337Y-75994800D01*
X166144473Y-76026992D01*
X166488001Y-76169638D01*
X166511700Y-76169659D01*
X166511700Y-81619237D01*
X166479508Y-81651373D01*
X166336862Y-81994901D01*
X166336538Y-82366867D01*
X166478583Y-82710643D01*
X166741373Y-82973892D01*
X167084901Y-83116538D01*
X167456867Y-83116862D01*
X167800643Y-82974817D01*
X167833818Y-82941700D01*
X170561772Y-82941700D01*
X170689864Y-83070016D01*
X171033392Y-83212662D01*
X171405358Y-83212986D01*
X171749134Y-83070941D01*
X172012383Y-82808151D01*
X172155029Y-82464623D01*
X172155353Y-82092657D01*
X172013308Y-81748881D01*
X171750518Y-81485632D01*
X171406990Y-81342986D01*
X171035024Y-81342662D01*
X170843737Y-81421700D01*
X168031700Y-81421700D01*
X168031700Y-75831700D01*
X167973848Y-75540861D01*
X167809101Y-75294299D01*
X167609922Y-75095120D01*
X167609962Y-75049633D01*
X167467917Y-74705857D01*
X167205127Y-74442608D01*
X166861599Y-74299962D01*
X166489633Y-74299638D01*
X166145857Y-74441683D01*
X166112682Y-74474800D01*
X143129000Y-74474800D01*
X142886414Y-74523054D01*
X142838160Y-74532652D01*
X142591599Y-74697399D01*
X135813820Y-81475178D01*
X135768333Y-81475138D01*
X135424557Y-81617183D01*
X135161308Y-81879973D01*
X135018662Y-82223501D01*
X135018338Y-82595467D01*
X124028383Y-82595467D01*
X123977705Y-72564324D01*
X123994622Y-72544965D01*
X124927591Y-72544965D01*
X124934204Y-72612130D01*
X124927591Y-72679295D01*
X124958341Y-72991395D01*
X124977920Y-73055930D01*
X124984527Y-73123046D01*
X125075577Y-73423246D01*
X125107392Y-73482773D01*
X125126987Y-73547361D01*
X125274847Y-73823961D01*
X125317617Y-73876072D01*
X125349390Y-73935531D01*
X125548360Y-74178031D01*
X125600525Y-74220851D01*
X125643337Y-74273023D01*
X125885797Y-74472022D01*
X125945355Y-74503860D01*
X125997569Y-74546697D01*
X126274190Y-74694498D01*
X126338655Y-74714042D01*
X126398054Y-74745803D01*
X126698204Y-74836904D01*
X126765441Y-74843536D01*
X126830099Y-74863141D01*
X127142229Y-74893840D01*
X127209275Y-74887227D01*
X127276326Y-74893841D01*
X127588476Y-74863141D01*
X127653134Y-74843537D01*
X127720370Y-74836905D01*
X128020530Y-74745805D01*
X128079940Y-74714039D01*
X128144410Y-74694492D01*
X128421020Y-74546692D01*
X128473226Y-74503860D01*
X128532783Y-74472023D01*
X128775243Y-74273023D01*
X128818051Y-74220856D01*
X128870209Y-74178044D01*
X129069189Y-73935544D01*
X129100967Y-73876079D01*
X129143743Y-73823961D01*
X129291603Y-73547361D01*
X129311201Y-73482763D01*
X129343019Y-73423226D01*
X129434059Y-73123026D01*
X129440663Y-73055920D01*
X129460239Y-72991395D01*
X129490989Y-72679295D01*
X129484376Y-72612130D01*
X129490989Y-72544965D01*
X129460239Y-72232865D01*
X129440663Y-72168340D01*
X129434059Y-72101234D01*
X129343019Y-71801034D01*
X129311201Y-71741497D01*
X129291603Y-71676899D01*
X129143743Y-71400299D01*
X129100967Y-71348181D01*
X129069189Y-71288716D01*
X128870209Y-71046216D01*
X128817988Y-71003352D01*
X128775113Y-70951130D01*
X128532653Y-70752230D01*
X128473247Y-70720492D01*
X128421190Y-70677758D01*
X128144580Y-70529858D01*
X128079923Y-70510235D01*
X128020330Y-70478394D01*
X127720170Y-70387394D01*
X127653143Y-70380803D01*
X127588697Y-70361241D01*
X127276567Y-70330441D01*
X127209305Y-70337053D01*
X127142037Y-70330440D01*
X126829887Y-70361240D01*
X126765434Y-70380804D01*
X126698404Y-70387396D01*
X126398254Y-70478396D01*
X126338669Y-70510233D01*
X126274020Y-70529853D01*
X125997399Y-70677753D01*
X125945337Y-70720490D01*
X125885927Y-70752230D01*
X125643467Y-70951130D01*
X125600588Y-71003357D01*
X125548360Y-71046229D01*
X125349390Y-71288729D01*
X125317617Y-71348188D01*
X125274847Y-71400299D01*
X125126987Y-71676899D01*
X125107392Y-71741487D01*
X125075577Y-71801014D01*
X124984527Y-72101214D01*
X124977920Y-72168330D01*
X124958341Y-72232865D01*
X124927591Y-72544965D01*
X123994622Y-72544965D01*
X126371981Y-69824481D01*
X169362515Y-69735815D01*
X170075369Y-70507799D01*
X170075369Y-70507799D01*
G37*
X170075369Y-70507799D02*
X170020315Y-70478387D01*
X169720116Y-70387387D01*
X169653106Y-70380800D01*
X169588673Y-70361241D01*
X169276573Y-70330441D01*
X169209300Y-70337054D01*
X169142027Y-70330441D01*
X168829927Y-70361241D01*
X168765494Y-70380800D01*
X168698484Y-70387387D01*
X168398284Y-70478387D01*
X168338675Y-70510234D01*
X168274001Y-70529863D01*
X167997401Y-70677763D01*
X167945370Y-70720477D01*
X167885990Y-70752195D01*
X167643490Y-70951095D01*
X167600606Y-71003320D01*
X167548372Y-71046190D01*
X167349372Y-71288690D01*
X167317556Y-71348218D01*
X167274742Y-71400401D01*
X167126942Y-71677001D01*
X167107389Y-71741490D01*
X167075617Y-71800915D01*
X166984517Y-72101114D01*
X166977889Y-72168334D01*
X166958290Y-72232973D01*
X166927590Y-72545073D01*
X166934203Y-72612130D01*
X166927590Y-72679187D01*
X166958290Y-72991287D01*
X166977889Y-73055926D01*
X166984517Y-73123146D01*
X167075617Y-73423345D01*
X167107389Y-73482770D01*
X167126942Y-73547259D01*
X167274742Y-73823859D01*
X167317556Y-73876042D01*
X167349372Y-73935570D01*
X167548372Y-74178070D01*
X167600542Y-74220888D01*
X167643360Y-74273058D01*
X167885859Y-74472058D01*
X167945389Y-74503875D01*
X167997571Y-74546688D01*
X168274171Y-74694488D01*
X168338658Y-74714041D01*
X168398084Y-74745813D01*
X168698284Y-74836913D01*
X168765504Y-74843541D01*
X168830143Y-74863140D01*
X169142243Y-74893840D01*
X169209300Y-74887227D01*
X169276357Y-74893840D01*
X169588457Y-74863140D01*
X169653096Y-74843541D01*
X169720316Y-74836913D01*
X170020515Y-74745813D01*
X170079940Y-74714041D01*
X170144429Y-74694488D01*
X170421029Y-74546688D01*
X170473212Y-74503874D01*
X170532740Y-74472058D01*
X170775240Y-74273058D01*
X170818110Y-74220824D01*
X170870335Y-74177940D01*
X171069235Y-73935440D01*
X171100953Y-73876060D01*
X171143667Y-73824029D01*
X171291567Y-73547429D01*
X171311196Y-73482755D01*
X171343043Y-73423146D01*
X171434043Y-73122946D01*
X171440630Y-73055936D01*
X171460189Y-72991503D01*
X171490989Y-72679403D01*
X171484376Y-72612130D01*
X171490989Y-72544857D01*
X171460189Y-72232757D01*
X171440630Y-72168324D01*
X171434043Y-72101314D01*
X171378925Y-71919484D01*
X172047482Y-72643498D01*
X172524300Y-113273460D01*
X172524300Y-113684429D01*
X171339242Y-115430273D01*
X171343034Y-115423176D01*
X171434034Y-115123026D01*
X171440626Y-115055996D01*
X171460190Y-114991543D01*
X171490990Y-114679393D01*
X171484377Y-114612125D01*
X171490989Y-114544863D01*
X171460189Y-114232733D01*
X171440627Y-114168287D01*
X171434036Y-114101260D01*
X171343036Y-113801100D01*
X171311195Y-113741507D01*
X171291572Y-113676850D01*
X171143672Y-113400240D01*
X171100938Y-113348183D01*
X171069200Y-113288777D01*
X170870300Y-113046317D01*
X170818081Y-113003444D01*
X170775215Y-112951221D01*
X170532714Y-112752241D01*
X170473249Y-112720463D01*
X170421131Y-112677687D01*
X170144531Y-112529827D01*
X170079933Y-112510229D01*
X170020396Y-112478411D01*
X169720196Y-112387371D01*
X169653090Y-112380767D01*
X169588565Y-112361191D01*
X169276465Y-112330441D01*
X169209300Y-112337054D01*
X169142135Y-112330441D01*
X168830035Y-112361191D01*
X168765510Y-112380767D01*
X168698404Y-112387371D01*
X168398204Y-112478411D01*
X168338667Y-112510229D01*
X168274069Y-112529827D01*
X167997469Y-112677687D01*
X167945351Y-112720463D01*
X167885886Y-112752241D01*
X167643386Y-112951221D01*
X167600574Y-113003379D01*
X167548407Y-113046187D01*
X167349407Y-113288647D01*
X167317570Y-113348204D01*
X167274738Y-113400410D01*
X167126938Y-113677020D01*
X167107391Y-113741490D01*
X167075625Y-113800900D01*
X166984525Y-114101060D01*
X166977893Y-114168293D01*
X166958289Y-114232950D01*
X166927589Y-114545079D01*
X166934202Y-114612129D01*
X166927589Y-114679176D01*
X166958289Y-114991326D01*
X166977894Y-115055988D01*
X166984527Y-115123226D01*
X167075627Y-115423376D01*
X167107389Y-115482777D01*
X167126933Y-115547241D01*
X167274733Y-115823861D01*
X167317568Y-115876072D01*
X167349407Y-115935633D01*
X167548407Y-116178093D01*
X167600580Y-116220906D01*
X167643399Y-116273070D01*
X167885899Y-116472040D01*
X167945358Y-116503813D01*
X167997469Y-116546583D01*
X168274069Y-116694443D01*
X168338657Y-116714038D01*
X168398184Y-116745853D01*
X168698384Y-116836903D01*
X168765500Y-116843510D01*
X168830035Y-116863089D01*
X169142135Y-116893839D01*
X169209300Y-116887226D01*
X169276465Y-116893839D01*
X169588565Y-116863089D01*
X169653100Y-116843510D01*
X169720216Y-116836903D01*
X170020416Y-116745853D01*
X170079943Y-116714038D01*
X170144531Y-116694443D01*
X170421131Y-116546583D01*
X170473242Y-116503813D01*
X170532701Y-116472040D01*
X170757056Y-116287958D01*
X169744631Y-117779477D01*
X127448443Y-117576800D01*
X126194862Y-116652105D01*
X126274087Y-116694453D01*
X126338651Y-116714039D01*
X126398154Y-116745844D01*
X126698304Y-116836894D01*
X126765437Y-116843506D01*
X126829991Y-116863090D01*
X127142121Y-116893840D01*
X127209280Y-116887227D01*
X127276435Y-116893840D01*
X127588585Y-116863090D01*
X127653135Y-116843508D01*
X127720270Y-116836896D01*
X128020430Y-116745846D01*
X128079941Y-116714037D01*
X128144512Y-116694448D01*
X128421122Y-116546588D01*
X128473259Y-116503798D01*
X128532744Y-116472005D01*
X128775204Y-116273035D01*
X128818014Y-116220874D01*
X128870174Y-116178067D01*
X129069154Y-115935607D01*
X129100955Y-115876112D01*
X129143753Y-115823963D01*
X129291613Y-115547343D01*
X129311202Y-115482769D01*
X129343010Y-115423256D01*
X129434050Y-115123106D01*
X129440659Y-115055980D01*
X129460240Y-114991435D01*
X129490990Y-114679284D01*
X129484377Y-114612130D01*
X129490990Y-114544971D01*
X129460240Y-114232841D01*
X129440660Y-114168301D01*
X129434052Y-114101180D01*
X129343012Y-113801020D01*
X129311200Y-113741499D01*
X129291608Y-113676918D01*
X129143748Y-113400308D01*
X129100952Y-113348164D01*
X129069154Y-113288673D01*
X128870174Y-113046213D01*
X128818019Y-113003411D01*
X128775217Y-112951256D01*
X128532757Y-112752276D01*
X128473266Y-112720478D01*
X128421122Y-112677682D01*
X128144512Y-112529822D01*
X128079931Y-112510230D01*
X128020410Y-112478418D01*
X127720250Y-112387378D01*
X127653130Y-112380770D01*
X127588589Y-112361190D01*
X127276459Y-112330440D01*
X127209300Y-112337053D01*
X127142146Y-112330440D01*
X126829995Y-112361190D01*
X126765450Y-112380771D01*
X126698324Y-112387380D01*
X126398174Y-112478420D01*
X126338661Y-112510228D01*
X126274087Y-112529817D01*
X125997467Y-112677677D01*
X125945318Y-112720475D01*
X125885823Y-112752276D01*
X125643363Y-112951256D01*
X125600556Y-113003416D01*
X125548395Y-113046226D01*
X125349425Y-113288686D01*
X125317632Y-113348171D01*
X125274842Y-113400308D01*
X125126982Y-113676918D01*
X125107393Y-113741489D01*
X125075584Y-113801000D01*
X124984534Y-114101160D01*
X124977923Y-114168291D01*
X124958340Y-114232841D01*
X124927590Y-114544971D01*
X124934203Y-114612130D01*
X124927590Y-114679285D01*
X124958340Y-114991435D01*
X124977924Y-115055990D01*
X124984536Y-115123126D01*
X125075586Y-115423276D01*
X125107391Y-115482779D01*
X125126977Y-115547343D01*
X125274837Y-115823963D01*
X125317630Y-115876105D01*
X125349425Y-115935594D01*
X125542552Y-116170933D01*
X124192976Y-115175429D01*
X124142524Y-105188767D01*
X127157038Y-105188767D01*
X127299083Y-105532543D01*
X127561873Y-105795792D01*
X127905401Y-105938438D01*
X128277367Y-105938762D01*
X128582265Y-105812781D01*
X128641373Y-105871992D01*
X128984901Y-106014638D01*
X129356867Y-106014962D01*
X129700643Y-105872917D01*
X129963892Y-105610127D01*
X130106538Y-105266599D01*
X130106579Y-105219723D01*
X136769663Y-98556639D01*
X137023373Y-98810792D01*
X137366901Y-98953438D01*
X137738867Y-98953762D01*
X138082643Y-98811717D01*
X138345892Y-98548927D01*
X138488538Y-98205399D01*
X138488862Y-97833433D01*
X138346817Y-97489657D01*
X138313700Y-97456482D01*
X138313700Y-94642496D01*
X138255848Y-94351657D01*
X138091101Y-94105095D01*
X137388171Y-93402165D01*
X137141609Y-93237418D01*
X136850770Y-93179566D01*
X135607742Y-93179566D01*
X135636500Y-93110309D01*
X135636541Y-93063433D01*
X138014901Y-90685073D01*
X138179648Y-90438511D01*
X138237500Y-90147672D01*
X138237500Y-86770063D01*
X138269692Y-86737927D01*
X138412338Y-86394399D01*
X138412662Y-86022433D01*
X138270617Y-85678657D01*
X138007827Y-85415408D01*
X137664299Y-85272762D01*
X137653186Y-85272752D01*
X139623540Y-83302398D01*
X139684020Y-83448772D01*
X140017075Y-83782409D01*
X140452455Y-83963194D01*
X140923877Y-83963606D01*
X141359572Y-83783580D01*
X141693209Y-83450525D01*
X141873994Y-83015145D01*
X141874406Y-82543723D01*
X141694380Y-82108028D01*
X141361325Y-81774391D01*
X141213097Y-81712841D01*
X141997007Y-80928931D01*
X142065901Y-80957538D01*
X142437867Y-80957862D01*
X142781643Y-80815817D01*
X143044892Y-80553027D01*
X143187538Y-80209499D01*
X143187862Y-79837533D01*
X143045817Y-79493757D01*
X142783027Y-79230508D01*
X142439499Y-79087862D01*
X142067533Y-79087538D01*
X141723757Y-79229583D01*
X141656278Y-79296945D01*
X141537596Y-79320552D01*
X141291035Y-79485299D01*
X131703683Y-89072651D01*
X131538936Y-89319213D01*
X131481084Y-89610052D01*
X131481084Y-89950389D01*
X131467327Y-89936608D01*
X131123799Y-89793962D01*
X130751833Y-89793638D01*
X130408057Y-89935683D01*
X130144808Y-90198473D01*
X130002162Y-90542001D01*
X130002079Y-90637349D01*
X129934853Y-90737960D01*
X129877001Y-91028799D01*
X129877001Y-94457690D01*
X129934853Y-94748529D01*
X130099600Y-94995091D01*
X131866100Y-96761591D01*
X131866100Y-99805637D01*
X131833908Y-99837773D01*
X131691262Y-100181301D01*
X131690938Y-100553267D01*
X131832983Y-100897043D01*
X132056124Y-101120574D01*
X130490500Y-102686198D01*
X130490500Y-101248063D01*
X130522692Y-101215927D01*
X130665338Y-100872399D01*
X130665662Y-100500433D01*
X130523617Y-100156657D01*
X130260827Y-99893408D01*
X129917299Y-99750762D01*
X129545333Y-99750438D01*
X129201557Y-99892483D01*
X128938308Y-100155273D01*
X128795662Y-100498801D01*
X128795338Y-100870767D01*
X128937383Y-101214543D01*
X128970500Y-101247718D01*
X128970500Y-103050498D01*
X127952520Y-104068478D01*
X127907033Y-104068438D01*
X127563257Y-104210483D01*
X127300008Y-104473273D01*
X127157362Y-104816801D01*
X127157038Y-105188767D01*
X124142524Y-105188767D01*
X124088335Y-94462606D01*
X124206600Y-94500200D01*
X124481600Y-94500200D01*
X124481600Y-93492200D01*
X124735600Y-93492200D01*
X124735600Y-94500200D01*
X125010600Y-94500200D01*
X125435278Y-94365202D01*
X125775968Y-94077963D01*
X125977719Y-93667074D01*
X125851554Y-93492200D01*
X124735600Y-93492200D01*
X124481600Y-93492200D01*
X124461600Y-93492200D01*
X124461600Y-93238200D01*
X124481600Y-93238200D01*
X124481600Y-92230200D01*
X124735600Y-92230200D01*
X124735600Y-93238200D01*
X125851554Y-93238200D01*
X125977719Y-93063326D01*
X125782791Y-92666331D01*
X126207371Y-92666331D01*
X126349032Y-93076249D01*
X126636779Y-93400752D01*
X127010662Y-93584468D01*
X127181600Y-93457934D01*
X127181600Y-92492200D01*
X127435600Y-92492200D01*
X127435600Y-93457934D01*
X127606538Y-93584468D01*
X127980421Y-93400752D01*
X128268168Y-93076249D01*
X128409829Y-92666331D01*
X128261163Y-92492200D01*
X127435600Y-92492200D01*
X127181600Y-92492200D01*
X126356037Y-92492200D01*
X126207371Y-92666331D01*
X125782791Y-92666331D01*
X125775968Y-92652437D01*
X125435278Y-92365198D01*
X125010600Y-92230200D01*
X124735600Y-92230200D01*
X124481600Y-92230200D01*
X124206600Y-92230200D01*
X124077265Y-92271314D01*
X124076218Y-92064069D01*
X126207371Y-92064069D01*
X126356037Y-92238200D01*
X127181600Y-92238200D01*
X127181600Y-91272466D01*
X127435600Y-91272466D01*
X127435600Y-92238200D01*
X128261163Y-92238200D01*
X128409829Y-92064069D01*
X128268168Y-91654151D01*
X127980421Y-91329648D01*
X127606538Y-91145932D01*
X127435600Y-91272466D01*
X127181600Y-91272466D01*
X127010662Y-91145932D01*
X126636779Y-91329648D01*
X126349032Y-91654151D01*
X126207371Y-92064069D01*
X124076218Y-92064069D01*
X124054001Y-87666331D01*
X126207371Y-87666331D01*
X126349032Y-88076249D01*
X126636779Y-88400752D01*
X127010662Y-88584468D01*
X127181600Y-88457934D01*
X127181600Y-87492200D01*
X127435600Y-87492200D01*
X127435600Y-88457934D01*
X127606538Y-88584468D01*
X127980421Y-88400752D01*
X128268168Y-88076249D01*
X128409829Y-87666331D01*
X128261163Y-87492200D01*
X127435600Y-87492200D01*
X127181600Y-87492200D01*
X126356037Y-87492200D01*
X126207371Y-87666331D01*
X124054001Y-87666331D01*
X124052914Y-87451346D01*
X124206600Y-87500200D01*
X124481600Y-87500200D01*
X124481600Y-86492200D01*
X124735600Y-86492200D01*
X124735600Y-87500200D01*
X125010600Y-87500200D01*
X125435278Y-87365202D01*
X125775968Y-87077963D01*
X125782790Y-87064069D01*
X126207371Y-87064069D01*
X126356037Y-87238200D01*
X127181600Y-87238200D01*
X127181600Y-86272466D01*
X127435600Y-86272466D01*
X127435600Y-87238200D01*
X128261163Y-87238200D01*
X128409829Y-87064069D01*
X128268168Y-86654151D01*
X127980421Y-86329648D01*
X127606538Y-86145932D01*
X127435600Y-86272466D01*
X127181600Y-86272466D01*
X127010662Y-86145932D01*
X126636779Y-86329648D01*
X126349032Y-86654151D01*
X126207371Y-87064069D01*
X125782790Y-87064069D01*
X125977719Y-86667074D01*
X125851554Y-86492200D01*
X124735600Y-86492200D01*
X124481600Y-86492200D01*
X124461600Y-86492200D01*
X124461600Y-86238200D01*
X124481600Y-86238200D01*
X124481600Y-85230200D01*
X124735600Y-85230200D01*
X124735600Y-86238200D01*
X125851554Y-86238200D01*
X125977719Y-86063326D01*
X125775968Y-85652437D01*
X125435278Y-85365198D01*
X125010600Y-85230200D01*
X124735600Y-85230200D01*
X124481600Y-85230200D01*
X124206600Y-85230200D01*
X124041957Y-85282537D01*
X124028383Y-82595467D01*
X135018338Y-82595467D01*
X135160383Y-82939243D01*
X135423173Y-83202492D01*
X135766701Y-83345138D01*
X136138667Y-83345462D01*
X136482443Y-83203417D01*
X136745692Y-82940627D01*
X136888338Y-82597099D01*
X136888379Y-82550223D01*
X143443802Y-75994800D01*
X155753670Y-75994800D01*
X155719662Y-76076701D01*
X155719338Y-76448667D01*
X155861383Y-76792443D01*
X155894500Y-76825618D01*
X155894500Y-91391898D01*
X145497099Y-101789299D01*
X145497099Y-96966603D01*
X150473601Y-91990101D01*
X150638348Y-91743539D01*
X150696200Y-91452700D01*
X150696200Y-90541963D01*
X150728392Y-90509827D01*
X150871038Y-90166299D01*
X150871362Y-89794333D01*
X150729317Y-89450557D01*
X150466527Y-89187308D01*
X150122999Y-89044662D01*
X149751033Y-89044338D01*
X149407257Y-89186383D01*
X149144008Y-89449173D01*
X149001362Y-89792701D01*
X149001038Y-90164667D01*
X149143083Y-90508443D01*
X149176200Y-90541618D01*
X149176200Y-91137898D01*
X144199698Y-96114400D01*
X144034951Y-96360962D01*
X143977099Y-96651801D01*
X143977099Y-107395097D01*
X143908157Y-107423583D01*
X143644908Y-107686373D01*
X143502262Y-108029901D01*
X143501938Y-108401867D01*
X143643983Y-108745643D01*
X143906773Y-109008892D01*
X144250301Y-109151538D01*
X144622267Y-109151862D01*
X144966043Y-109009817D01*
X144977191Y-108998688D01*
X144977191Y-110996127D01*
X144944999Y-111028263D01*
X144802353Y-111371791D01*
X144802029Y-111743757D01*
X144944074Y-112087533D01*
X145206864Y-112350782D01*
X145550392Y-112493428D01*
X145922358Y-112493752D01*
X146266134Y-112351707D01*
X146529383Y-112088917D01*
X146672029Y-111745389D01*
X146672353Y-111373423D01*
X146530308Y-111029647D01*
X146497191Y-110996472D01*
X146497191Y-106992167D01*
X147311938Y-106992167D01*
X147453983Y-107335943D01*
X147716773Y-107599192D01*
X148060301Y-107741838D01*
X148432267Y-107742162D01*
X148776043Y-107600117D01*
X149039292Y-107337327D01*
X149181938Y-106993799D01*
X149181979Y-106946923D01*
X153369201Y-102759701D01*
X153533948Y-102513139D01*
X153559047Y-102386959D01*
X153623992Y-102322127D01*
X153766638Y-101978599D01*
X153766962Y-101606633D01*
X153624917Y-101262857D01*
X153362127Y-100999608D01*
X153018599Y-100856962D01*
X152646633Y-100856638D01*
X152302857Y-100998683D01*
X152039608Y-101261473D01*
X151896962Y-101605001D01*
X151896638Y-101976967D01*
X151927541Y-102051757D01*
X148107420Y-105871878D01*
X148061933Y-105871838D01*
X147718157Y-106013883D01*
X147454908Y-106276673D01*
X147312262Y-106620201D01*
X147311938Y-106992167D01*
X146497191Y-106992167D01*
X146497191Y-102938811D01*
X156654500Y-92781502D01*
X162066700Y-98193702D01*
X162066700Y-113492123D01*
X162064923Y-113492121D01*
X158367480Y-109794678D01*
X158402991Y-109759228D01*
X158545637Y-109415700D01*
X158545664Y-109384662D01*
X159155025Y-108775301D01*
X159200512Y-108775341D01*
X159544288Y-108633296D01*
X159807537Y-108370506D01*
X159950183Y-108026978D01*
X159950507Y-107655012D01*
X159808462Y-107311236D01*
X159545672Y-107047987D01*
X159202144Y-106905341D01*
X158830178Y-106905017D01*
X158486402Y-107047062D01*
X158223153Y-107309852D01*
X158080507Y-107653380D01*
X158080466Y-107700256D01*
X157486930Y-108293792D01*
X157425632Y-108293739D01*
X157081856Y-108435784D01*
X156890696Y-108626611D01*
X156883100Y-108625100D01*
X156391463Y-108625100D01*
X156359327Y-108592908D01*
X156288000Y-108563291D01*
X157407801Y-107443490D01*
X157572548Y-107196929D01*
X157630400Y-106906089D01*
X157630400Y-100066963D01*
X157662592Y-100034827D01*
X157805238Y-99691299D01*
X157805562Y-99319333D01*
X157663517Y-98975557D01*
X157400727Y-98712308D01*
X157057199Y-98569662D01*
X156685233Y-98569338D01*
X156341457Y-98711383D01*
X156078208Y-98974173D01*
X155935562Y-99317701D01*
X155935238Y-99689667D01*
X156077283Y-100033443D01*
X156110400Y-100066618D01*
X156110400Y-106591287D01*
X151381310Y-111320377D01*
X151335823Y-111320337D01*
X150992047Y-111462382D01*
X150728798Y-111725172D01*
X150586152Y-112068700D01*
X150585828Y-112440666D01*
X150727873Y-112784442D01*
X150990663Y-113047691D01*
X151197554Y-113133600D01*
X144556900Y-113133600D01*
X144266061Y-113191452D01*
X144019499Y-113356199D01*
X142734729Y-114640969D01*
X142529027Y-114434908D01*
X142185499Y-114292262D01*
X142138623Y-114292221D01*
X139180010Y-111333608D01*
X139180010Y-105370319D01*
X139212202Y-105338183D01*
X139354848Y-104994655D01*
X139354896Y-104940061D01*
X139539126Y-105016561D01*
X139704167Y-105016705D01*
X139704030Y-105173469D01*
X139853671Y-105535629D01*
X140130514Y-105812955D01*
X140492412Y-105963228D01*
X140884269Y-105963570D01*
X141246429Y-105813929D01*
X141523755Y-105537086D01*
X141674028Y-105175188D01*
X141674370Y-104783331D01*
X141524729Y-104421171D01*
X141247886Y-104143845D01*
X140885988Y-103993572D01*
X140661003Y-103993376D01*
X140661087Y-103896556D01*
X140519042Y-103552780D01*
X140372967Y-103406450D01*
X140263326Y-103242360D01*
X137105665Y-100084699D01*
X136859103Y-99919952D01*
X136740704Y-99896401D01*
X136674327Y-99829908D01*
X136330799Y-99687262D01*
X135958833Y-99686938D01*
X135615057Y-99828983D01*
X135351808Y-100091773D01*
X135209162Y-100435301D01*
X135208838Y-100807267D01*
X135350883Y-101151043D01*
X135613673Y-101414292D01*
X135957201Y-101556938D01*
X136329167Y-101557262D01*
X136399545Y-101528183D01*
X138252379Y-103381017D01*
X137981799Y-103268662D01*
X137609833Y-103268338D01*
X137266057Y-103410383D01*
X137002808Y-103673173D01*
X136860162Y-104016701D01*
X136859838Y-104388667D01*
X136981069Y-104682069D01*
X135682799Y-105980339D01*
X135518052Y-106226901D01*
X135460200Y-106517740D01*
X135460200Y-111159437D01*
X135428008Y-111191573D01*
X135285362Y-111535101D01*
X135285038Y-111907067D01*
X135427083Y-112250843D01*
X135689873Y-112514092D01*
X136033401Y-112656738D01*
X136405367Y-112657062D01*
X136749143Y-112515017D01*
X137012392Y-112252227D01*
X137155038Y-111908699D01*
X137155362Y-111536733D01*
X137013317Y-111192957D01*
X136980200Y-111159782D01*
X136980200Y-106832542D01*
X137660010Y-106152732D01*
X137660010Y-111648410D01*
X137717862Y-111939249D01*
X137882609Y-112185811D01*
X140536036Y-114839238D01*
X140441057Y-114878483D01*
X140177808Y-115141273D01*
X140035162Y-115484801D01*
X140034838Y-115856767D01*
X140176883Y-116200543D01*
X140439673Y-116463792D01*
X140783201Y-116606438D01*
X141155167Y-116606762D01*
X141313886Y-116541181D01*
X141557708Y-116704098D01*
X141567356Y-116706017D01*
X141848548Y-116761950D01*
X142448550Y-116761950D01*
X142739389Y-116704098D01*
X142985951Y-116539351D01*
X144871702Y-114653600D01*
X151583537Y-114653600D01*
X151615673Y-114685792D01*
X151959201Y-114828438D01*
X152331167Y-114828762D01*
X152615874Y-114711124D01*
X152174098Y-115152900D01*
X146917263Y-115152900D01*
X146885127Y-115120708D01*
X146541599Y-114978062D01*
X146169633Y-114977738D01*
X145825857Y-115119783D01*
X145562608Y-115382573D01*
X145419962Y-115726101D01*
X145419638Y-116098067D01*
X145561683Y-116441843D01*
X145824473Y-116705092D01*
X146168001Y-116847738D01*
X146539967Y-116848062D01*
X146883743Y-116706017D01*
X146916918Y-116672900D01*
X152488900Y-116672900D01*
X152779739Y-116615048D01*
X153026301Y-116450301D01*
X154241480Y-115235122D01*
X154286967Y-115235162D01*
X154630743Y-115093117D01*
X154893992Y-114830327D01*
X155036638Y-114486799D01*
X155036962Y-114114833D01*
X154894917Y-113771057D01*
X154632127Y-113507808D01*
X154288599Y-113365162D01*
X153916633Y-113364838D01*
X153572857Y-113506883D01*
X153309608Y-113769673D01*
X153166962Y-114113201D01*
X153166921Y-114160077D01*
X152963131Y-114363867D01*
X153080838Y-114080399D01*
X153081162Y-113708433D01*
X152939117Y-113364657D01*
X152676327Y-113101408D01*
X152332799Y-112958762D01*
X152140112Y-112958594D01*
X152313182Y-112785826D01*
X152455828Y-112442298D01*
X152455869Y-112395422D01*
X155007044Y-109844247D01*
X155035883Y-109914043D01*
X155298673Y-110177292D01*
X155642201Y-110319938D01*
X156014167Y-110320262D01*
X156357943Y-110178217D01*
X156391118Y-110145100D01*
X156568298Y-110145100D01*
X158993197Y-112569999D01*
X157641203Y-112569999D01*
X157612717Y-112501057D01*
X157349927Y-112237808D01*
X157006399Y-112095162D01*
X156634433Y-112094838D01*
X156290657Y-112236883D01*
X156027408Y-112499673D01*
X155884762Y-112843201D01*
X155884438Y-113215167D01*
X156026483Y-113558943D01*
X156289273Y-113822192D01*
X156632801Y-113964838D01*
X156728149Y-113964921D01*
X156828760Y-114032147D01*
X157119599Y-114089999D01*
X159014597Y-114089999D01*
X162301999Y-117377401D01*
X162548561Y-117542148D01*
X162839400Y-117600000D01*
X164058600Y-117600000D01*
X164349439Y-117542148D01*
X164596001Y-117377401D01*
X166589901Y-115383501D01*
X166754648Y-115136940D01*
X166772586Y-115046760D01*
X166812500Y-114846100D01*
X166812500Y-107007502D01*
X166814480Y-107005522D01*
X166859967Y-107005562D01*
X167203743Y-106863517D01*
X167466992Y-106600727D01*
X167609638Y-106257199D01*
X167609962Y-105885233D01*
X167467917Y-105541457D01*
X167205127Y-105278208D01*
X166861599Y-105135562D01*
X166489633Y-105135238D01*
X166145857Y-105277283D01*
X165882608Y-105540073D01*
X165739962Y-105883601D01*
X165739921Y-105930477D01*
X165515099Y-106155299D01*
X165350352Y-106401861D01*
X165292500Y-106692700D01*
X165292500Y-114531298D01*
X164480737Y-115343061D01*
X164354701Y-115154435D01*
X163586700Y-114386434D01*
X163586700Y-97878900D01*
X163528848Y-97588061D01*
X163364101Y-97341499D01*
X157414500Y-91391898D01*
X157414500Y-76825963D01*
X157446692Y-76793827D01*
X157589338Y-76450299D01*
X157589662Y-76078333D01*
X157555147Y-75994800D01*
X166112337Y-75994800D01*
X166144473Y-76026992D01*
X166488001Y-76169638D01*
X166511700Y-76169659D01*
X166511700Y-81619237D01*
X166479508Y-81651373D01*
X166336862Y-81994901D01*
X166336538Y-82366867D01*
X166478583Y-82710643D01*
X166741373Y-82973892D01*
X167084901Y-83116538D01*
X167456867Y-83116862D01*
X167800643Y-82974817D01*
X167833818Y-82941700D01*
X170561772Y-82941700D01*
X170689864Y-83070016D01*
X171033392Y-83212662D01*
X171405358Y-83212986D01*
X171749134Y-83070941D01*
X172012383Y-82808151D01*
X172155029Y-82464623D01*
X172155353Y-82092657D01*
X172013308Y-81748881D01*
X171750518Y-81485632D01*
X171406990Y-81342986D01*
X171035024Y-81342662D01*
X170843737Y-81421700D01*
X168031700Y-81421700D01*
X168031700Y-75831700D01*
X167973848Y-75540861D01*
X167809101Y-75294299D01*
X167609922Y-75095120D01*
X167609962Y-75049633D01*
X167467917Y-74705857D01*
X167205127Y-74442608D01*
X166861599Y-74299962D01*
X166489633Y-74299638D01*
X166145857Y-74441683D01*
X166112682Y-74474800D01*
X143129000Y-74474800D01*
X142886414Y-74523054D01*
X142838160Y-74532652D01*
X142591599Y-74697399D01*
X135813820Y-81475178D01*
X135768333Y-81475138D01*
X135424557Y-81617183D01*
X135161308Y-81879973D01*
X135018662Y-82223501D01*
X135018338Y-82595467D01*
X124028383Y-82595467D01*
X123977705Y-72564324D01*
X123994622Y-72544965D01*
X124927591Y-72544965D01*
X124934204Y-72612130D01*
X124927591Y-72679295D01*
X124958341Y-72991395D01*
X124977920Y-73055930D01*
X124984527Y-73123046D01*
X125075577Y-73423246D01*
X125107392Y-73482773D01*
X125126987Y-73547361D01*
X125274847Y-73823961D01*
X125317617Y-73876072D01*
X125349390Y-73935531D01*
X125548360Y-74178031D01*
X125600525Y-74220851D01*
X125643337Y-74273023D01*
X125885797Y-74472022D01*
X125945355Y-74503860D01*
X125997569Y-74546697D01*
X126274190Y-74694498D01*
X126338655Y-74714042D01*
X126398054Y-74745803D01*
X126698204Y-74836904D01*
X126765441Y-74843536D01*
X126830099Y-74863141D01*
X127142229Y-74893840D01*
X127209275Y-74887227D01*
X127276326Y-74893841D01*
X127588476Y-74863141D01*
X127653134Y-74843537D01*
X127720370Y-74836905D01*
X128020530Y-74745805D01*
X128079940Y-74714039D01*
X128144410Y-74694492D01*
X128421020Y-74546692D01*
X128473226Y-74503860D01*
X128532783Y-74472023D01*
X128775243Y-74273023D01*
X128818051Y-74220856D01*
X128870209Y-74178044D01*
X129069189Y-73935544D01*
X129100967Y-73876079D01*
X129143743Y-73823961D01*
X129291603Y-73547361D01*
X129311201Y-73482763D01*
X129343019Y-73423226D01*
X129434059Y-73123026D01*
X129440663Y-73055920D01*
X129460239Y-72991395D01*
X129490989Y-72679295D01*
X129484376Y-72612130D01*
X129490989Y-72544965D01*
X129460239Y-72232865D01*
X129440663Y-72168340D01*
X129434059Y-72101234D01*
X129343019Y-71801034D01*
X129311201Y-71741497D01*
X129291603Y-71676899D01*
X129143743Y-71400299D01*
X129100967Y-71348181D01*
X129069189Y-71288716D01*
X128870209Y-71046216D01*
X128817988Y-71003352D01*
X128775113Y-70951130D01*
X128532653Y-70752230D01*
X128473247Y-70720492D01*
X128421190Y-70677758D01*
X128144580Y-70529858D01*
X128079923Y-70510235D01*
X128020330Y-70478394D01*
X127720170Y-70387394D01*
X127653143Y-70380803D01*
X127588697Y-70361241D01*
X127276567Y-70330441D01*
X127209305Y-70337053D01*
X127142037Y-70330440D01*
X126829887Y-70361240D01*
X126765434Y-70380804D01*
X126698404Y-70387396D01*
X126398254Y-70478396D01*
X126338669Y-70510233D01*
X126274020Y-70529853D01*
X125997399Y-70677753D01*
X125945337Y-70720490D01*
X125885927Y-70752230D01*
X125643467Y-70951130D01*
X125600588Y-71003357D01*
X125548360Y-71046229D01*
X125349390Y-71288729D01*
X125317617Y-71348188D01*
X125274847Y-71400299D01*
X125126987Y-71676899D01*
X125107392Y-71741487D01*
X125075577Y-71801014D01*
X124984527Y-72101214D01*
X124977920Y-72168330D01*
X124958341Y-72232865D01*
X124927591Y-72544965D01*
X123994622Y-72544965D01*
X126371981Y-69824481D01*
X169362515Y-69735815D01*
X170075369Y-70507799D01*
M02*
