G04 #@! TF.GenerationSoftware,KiCad,Pcbnew,no-vcs-found-ecdfa40~58~ubuntu16.04.1*
G04 #@! TF.CreationDate,2017-03-20T23:24:32+01:00*
G04 #@! TF.ProjectId,GhostSensorboard,47686F737453656E736F72626F617264,rev?*
G04 #@! TF.FileFunction,Copper,L1,Top,Signal*
G04 #@! TF.FilePolarity,Positive*
%FSLAX46Y46*%
G04 Gerber Fmt 4.6, Leading zero omitted, Abs format (unit mm)*
G04 Created by KiCad (PCBNEW no-vcs-found-ecdfa40~58~ubuntu16.04.1) date Mon Mar 20 23:24:32 2017*
%MOMM*%
%LPD*%
G01*
G04 APERTURE LIST*
%ADD10C,0.100000*%
%ADD11R,1.800000X0.800000*%
%ADD12R,0.800000X0.750000*%
%ADD13R,1.200000X1.200000*%
%ADD14O,1.700000X1.700000*%
%ADD15R,1.700000X1.700000*%
%ADD16R,0.900000X0.800000*%
%ADD17R,0.800000X0.300000*%
%ADD18R,0.300000X0.800000*%
%ADD19R,0.700000X1.450000*%
%ADD20R,0.850000X0.300000*%
%ADD21R,0.300000X0.850000*%
%ADD22R,1.550000X0.600000*%
%ADD23R,1.800000X1.200000*%
%ADD24R,1.200000X1.800000*%
%ADD25R,0.600000X1.550000*%
%ADD26R,0.600000X0.400000*%
%ADD27R,0.400000X0.600000*%
%ADD28C,0.800000*%
%ADD29C,0.250000*%
%ADD30C,0.254000*%
G04 APERTURE END LIST*
D10*
D11*
X91884500Y-103718360D03*
X91884500Y-102448360D03*
X91884500Y-101178360D03*
X91884500Y-99908360D03*
D12*
X92065540Y-106926380D03*
X90565540Y-106926380D03*
X99960000Y-88940000D03*
X98460000Y-88940000D03*
D13*
X102110000Y-78550000D03*
X104310000Y-78550000D03*
D14*
X77033120Y-93091000D03*
X77033120Y-95631000D03*
D15*
X77033120Y-98171000D03*
X121224040Y-100893880D03*
D14*
X121224040Y-103433880D03*
X121224040Y-105973880D03*
X121122440Y-95844360D03*
X121122440Y-93304360D03*
D15*
X121122440Y-90764360D03*
D16*
X112300000Y-105900000D03*
X110300000Y-106850000D03*
X110300000Y-104950000D03*
X118103900Y-84648000D03*
X118103900Y-86548000D03*
X120103900Y-85598000D03*
D17*
X115750000Y-103020000D03*
X113950000Y-103020000D03*
X115750000Y-99520000D03*
X113950000Y-99520000D03*
X115750000Y-102520000D03*
X115750000Y-102020000D03*
X115750000Y-101520000D03*
X115750000Y-101020000D03*
X115750000Y-100520000D03*
X115750000Y-100020000D03*
X113950000Y-102520000D03*
X113950000Y-102020000D03*
X113950000Y-101520000D03*
X113950000Y-100520000D03*
X113950000Y-101020000D03*
X113950000Y-100020000D03*
X106973800Y-85369080D03*
X106973800Y-86369080D03*
X106973800Y-85869080D03*
X106973800Y-86869080D03*
X106973800Y-87369080D03*
X106973800Y-87869080D03*
X108773800Y-85369080D03*
X108773800Y-85869080D03*
X108773800Y-86369080D03*
X108773800Y-86869080D03*
X108773800Y-87369080D03*
X108773800Y-87869080D03*
X106973800Y-84869080D03*
X108773800Y-84869080D03*
X106973800Y-88369080D03*
X108773800Y-88369080D03*
X86142400Y-104942960D03*
X86142400Y-103942960D03*
X86142400Y-104442960D03*
X86142400Y-103442960D03*
X86142400Y-102942960D03*
X86142400Y-102442960D03*
X84342400Y-104942960D03*
X84342400Y-104442960D03*
X84342400Y-103942960D03*
X84342400Y-103442960D03*
X84342400Y-102942960D03*
X84342400Y-102442960D03*
X86142400Y-105442960D03*
X84342400Y-105442960D03*
X86142400Y-101942960D03*
X84342400Y-101942960D03*
D18*
X80421540Y-88113440D03*
X80421540Y-86313440D03*
X83921540Y-88113440D03*
X83921540Y-86313440D03*
X80921540Y-88113440D03*
X81421540Y-88113440D03*
X81921540Y-88113440D03*
X82421540Y-88113440D03*
X82921540Y-88113440D03*
X83421540Y-88113440D03*
X80921540Y-86313440D03*
X81421540Y-86313440D03*
X81921540Y-86313440D03*
X82921540Y-86313440D03*
X82421540Y-86313440D03*
X83421540Y-86313440D03*
D19*
X100310000Y-92340000D03*
X100310000Y-97500000D03*
X98310000Y-97500000D03*
X98310000Y-92340000D03*
D20*
X114558360Y-95544960D03*
X114558360Y-95044960D03*
X114558360Y-94544960D03*
X114558360Y-94044960D03*
X114558360Y-93544960D03*
X114558360Y-93044960D03*
D21*
X113858360Y-92344960D03*
X113358360Y-92344960D03*
X112858360Y-92344960D03*
X112358360Y-92344960D03*
X111858360Y-92344960D03*
X111358360Y-92344960D03*
D20*
X110658360Y-93044960D03*
X110658360Y-93544960D03*
X110658360Y-94044960D03*
X110658360Y-94544960D03*
X110658360Y-95044960D03*
X110658360Y-95544960D03*
D21*
X111358360Y-96244960D03*
X111858360Y-96244960D03*
X112358360Y-96244960D03*
X112858360Y-96244960D03*
X113358360Y-96244960D03*
X113858360Y-96244960D03*
D22*
X124767220Y-101159180D03*
X124767220Y-102159180D03*
X124767220Y-103159180D03*
X124767220Y-104159180D03*
D23*
X127292220Y-99859180D03*
X127292220Y-105459180D03*
D24*
X115503040Y-112217320D03*
X121103040Y-112217320D03*
D25*
X116803040Y-109692320D03*
X117803040Y-109692320D03*
X118803040Y-109692320D03*
X119803040Y-109692320D03*
X111697900Y-109738040D03*
X110697900Y-109738040D03*
X109697900Y-109738040D03*
X108697900Y-109738040D03*
D24*
X112997900Y-112263040D03*
X107397900Y-112263040D03*
X99219100Y-112204620D03*
X104819100Y-112204620D03*
D25*
X100519100Y-109679620D03*
X101519100Y-109679620D03*
X102519100Y-109679620D03*
X103519100Y-109679620D03*
D21*
X84007640Y-92548160D03*
X84507640Y-92548160D03*
X85007640Y-92548160D03*
X85507640Y-92548160D03*
X86007640Y-92548160D03*
X86507640Y-92548160D03*
D20*
X87207640Y-93248160D03*
X87207640Y-93748160D03*
X87207640Y-94248160D03*
X87207640Y-94748160D03*
X87207640Y-95248160D03*
X87207640Y-95748160D03*
D21*
X86507640Y-96448160D03*
X86007640Y-96448160D03*
X85507640Y-96448160D03*
X85007640Y-96448160D03*
X84507640Y-96448160D03*
X84007640Y-96448160D03*
D20*
X83307640Y-95748160D03*
X83307640Y-95248160D03*
X83307640Y-94748160D03*
X83307640Y-94248160D03*
X83307640Y-93748160D03*
X83307640Y-93248160D03*
D25*
X109307500Y-81625560D03*
X110307500Y-81625560D03*
X111307500Y-81625560D03*
X112307500Y-81625560D03*
D24*
X108007500Y-79100560D03*
X113607500Y-79100560D03*
D23*
X127302380Y-89368280D03*
X127302380Y-83768280D03*
D22*
X124777380Y-88068280D03*
X124777380Y-87068280D03*
X124777380Y-86068280D03*
X124777380Y-85068280D03*
X124762140Y-93302960D03*
X124762140Y-94302960D03*
X124762140Y-95302960D03*
X124762140Y-96302960D03*
D23*
X127287140Y-92002960D03*
X127287140Y-97602960D03*
D24*
X121839640Y-79029440D03*
X116239640Y-79029440D03*
D25*
X120539640Y-81554440D03*
X119539640Y-81554440D03*
X118539640Y-81554440D03*
X117539640Y-81554440D03*
X77670400Y-80886300D03*
X78670400Y-80886300D03*
X79670400Y-80886300D03*
X80670400Y-80886300D03*
D24*
X76370400Y-78361300D03*
X81970400Y-78361300D03*
D23*
X70680460Y-83676840D03*
X70680460Y-89276840D03*
D22*
X73205460Y-84976840D03*
X73205460Y-85976840D03*
X73205460Y-86976840D03*
X73205460Y-87976840D03*
D24*
X85208460Y-111849020D03*
X90808460Y-111849020D03*
D25*
X86508460Y-109324020D03*
X87508460Y-109324020D03*
X88508460Y-109324020D03*
X89508460Y-109324020D03*
X81215360Y-109405300D03*
X80215360Y-109405300D03*
X79215360Y-109405300D03*
X78215360Y-109405300D03*
D24*
X82515360Y-111930300D03*
X76915360Y-111930300D03*
D23*
X70700780Y-100712620D03*
X70700780Y-106312620D03*
D22*
X73225780Y-102012620D03*
X73225780Y-103012620D03*
X73225780Y-104012620D03*
X73225780Y-105012620D03*
X73258800Y-96183580D03*
X73258800Y-95183580D03*
X73258800Y-94183580D03*
X73258800Y-93183580D03*
D23*
X70733800Y-97483580D03*
X70733800Y-91883580D03*
D24*
X90369040Y-78579860D03*
X84769040Y-78579860D03*
D25*
X89069040Y-81104860D03*
X88069040Y-81104860D03*
X87069040Y-81104860D03*
X86069040Y-81104860D03*
X94206060Y-80678020D03*
X95206060Y-80678020D03*
X96206060Y-80678020D03*
X97206060Y-80678020D03*
D24*
X92906060Y-78153020D03*
X98506060Y-78153020D03*
D26*
X105950000Y-90240000D03*
X105950000Y-91140000D03*
D27*
X91498000Y-97574100D03*
X92398000Y-97574100D03*
X107058040Y-106847640D03*
X107958040Y-106847640D03*
D26*
X94244160Y-98800500D03*
X94244160Y-99700500D03*
D27*
X103770000Y-81660000D03*
X102870000Y-81660000D03*
D26*
X116367560Y-105864240D03*
X116367560Y-106764240D03*
X115798600Y-85013380D03*
X115798600Y-85913380D03*
D27*
X117480500Y-89649300D03*
X116580500Y-89649300D03*
X92293860Y-93606620D03*
X91393860Y-93606620D03*
X92309100Y-91688920D03*
X91409100Y-91688920D03*
D26*
X107430000Y-98710000D03*
X107430000Y-99610000D03*
D27*
X111350000Y-99550000D03*
X110450000Y-99550000D03*
X77296860Y-90200480D03*
X78196860Y-90200480D03*
D26*
X93830000Y-109920000D03*
X93830000Y-110820000D03*
X96550480Y-109994280D03*
X96550480Y-110894280D03*
D14*
X103621840Y-106365040D03*
X101081840Y-106365040D03*
X98541840Y-106365040D03*
D15*
X96001840Y-106365040D03*
D28*
X112260000Y-94260000D03*
X85400000Y-94670000D03*
X88750000Y-92460000D03*
X99880000Y-99140000D03*
X108930000Y-107830000D03*
X126560000Y-86670000D03*
X118910000Y-79830000D03*
X110630000Y-79650000D03*
X95580000Y-84850000D03*
X89340000Y-84000000D03*
X75650000Y-85050000D03*
X74680000Y-92170000D03*
X75260000Y-100620000D03*
X87400000Y-111620000D03*
X108330000Y-95330000D03*
X93390000Y-103230000D03*
X93030000Y-98420000D03*
X84683454Y-90463473D03*
X83090000Y-84410000D03*
X98420000Y-109200000D03*
X88270000Y-103160000D03*
X86290000Y-107300000D03*
X94210000Y-93430000D03*
X96070000Y-112220000D03*
X79270000Y-91310000D03*
X83670000Y-90740000D03*
X114240000Y-97970000D03*
X120990000Y-99290000D03*
X118129979Y-104682037D03*
X105700000Y-108790000D03*
X115819246Y-95966478D03*
X121372660Y-98187340D03*
X118454990Y-107787660D03*
X116365821Y-98319597D03*
X119880000Y-108040000D03*
X117790000Y-99070000D03*
X117676781Y-97423477D03*
X112910000Y-107950000D03*
X117680006Y-103239309D03*
X114670000Y-106870000D03*
X117357310Y-93076346D03*
X111420000Y-101660000D03*
X114760000Y-83360000D03*
X109470000Y-90190000D03*
X114644314Y-87875376D03*
X110899998Y-89500000D03*
X118996720Y-90934004D03*
X111918531Y-89519687D03*
X110740000Y-86620000D03*
X116094326Y-87150366D03*
X112270000Y-85950000D03*
X114390023Y-86086252D03*
X107489987Y-91110000D03*
X113960000Y-82590000D03*
X81352352Y-103279988D03*
X80080000Y-106390000D03*
X81583305Y-104730000D03*
X88110000Y-105120000D03*
X80699157Y-90789359D03*
X76630000Y-87388430D03*
X81665427Y-91046939D03*
X78090000Y-84070000D03*
X81992367Y-101735010D03*
X82290000Y-106610000D03*
X82747949Y-90352899D03*
X79420000Y-83410000D03*
X82751349Y-99945011D03*
X77600000Y-103370000D03*
X88950000Y-88410000D03*
X91950000Y-84620000D03*
X75900000Y-105440000D03*
X84070000Y-99620000D03*
X86507640Y-99391315D03*
X79810000Y-95000000D03*
X88310000Y-100270000D03*
X79720000Y-97190000D03*
X86700000Y-88292851D03*
X85570000Y-84880000D03*
X90030000Y-87823588D03*
X93090000Y-85660000D03*
X105730000Y-98259590D03*
X100507660Y-103492340D03*
X106880000Y-103510000D03*
X106170000Y-95120000D03*
X106320000Y-94060000D03*
X93290000Y-92480000D03*
X88037681Y-91659590D03*
X114370000Y-84800000D03*
X119012452Y-89934116D03*
X119800000Y-86750000D03*
X110653699Y-103828709D03*
X103730000Y-86720000D03*
X109940000Y-101840000D03*
X92907313Y-90635010D03*
X86336427Y-90754169D03*
X102200000Y-102099989D03*
X101220000Y-82800000D03*
X101340000Y-80690000D03*
D29*
X112854289Y-94130000D02*
X112854289Y-93024031D01*
X112854289Y-95565889D02*
X112854289Y-94130000D01*
X112854289Y-94130000D02*
X112390000Y-94130000D01*
X112390000Y-94130000D02*
X112260000Y-94260000D01*
X85007640Y-94480000D02*
X85007640Y-93708162D01*
X85007640Y-96448160D02*
X85007640Y-94480000D01*
X85007640Y-94480000D02*
X85210000Y-94480000D01*
X85210000Y-94480000D02*
X85400000Y-94670000D01*
X87961840Y-93248160D02*
X88750000Y-92460000D01*
X87207640Y-93248160D02*
X87961840Y-93248160D01*
X100310000Y-97500000D02*
X100310000Y-98710000D01*
X100310000Y-98710000D02*
X99880000Y-99140000D01*
X109697900Y-109738040D02*
X109697900Y-108597900D01*
X109697900Y-108597900D02*
X108930000Y-107830000D01*
X118106988Y-107062658D02*
X120135262Y-107062658D01*
X117803040Y-108667320D02*
X117729988Y-108594268D01*
X117729988Y-108594268D02*
X117729988Y-107439658D01*
X120135262Y-107062658D02*
X121224040Y-105973880D01*
X117729988Y-107439658D02*
X118106988Y-107062658D01*
X117803040Y-109692320D02*
X117803040Y-108667320D01*
X124777380Y-87068280D02*
X126161720Y-87068280D01*
X126161720Y-87068280D02*
X126560000Y-86670000D01*
X119539640Y-81554440D02*
X119539640Y-80459640D01*
X119539640Y-80459640D02*
X118910000Y-79830000D01*
X111307500Y-81625560D02*
X111307500Y-80327500D01*
X111307500Y-80327500D02*
X110630000Y-79650000D01*
X96206060Y-80678020D02*
X96206060Y-84223940D01*
X96206060Y-84223940D02*
X95580000Y-84850000D01*
X88069040Y-81104860D02*
X88069040Y-82729040D01*
X88069040Y-82729040D02*
X89340000Y-84000000D01*
X73205460Y-85976840D02*
X74723160Y-85976840D01*
X74723160Y-85976840D02*
X75650000Y-85050000D01*
X73258800Y-94183580D02*
X74283800Y-94183580D01*
X74283800Y-94183580D02*
X74680000Y-93787380D01*
X74680000Y-93787380D02*
X74680000Y-92170000D01*
X73225780Y-103012620D02*
X74250780Y-103012620D01*
X74250780Y-103012620D02*
X75260000Y-102003400D01*
X75260000Y-102003400D02*
X75260000Y-100620000D01*
X87508460Y-109324020D02*
X87508460Y-111511540D01*
X87508460Y-111511540D02*
X87400000Y-111620000D01*
X124762140Y-95302960D02*
X121663840Y-95302960D01*
X121663840Y-95302960D02*
X121122440Y-95844360D01*
X110658360Y-95544960D02*
X108544960Y-95544960D01*
X108544960Y-95544960D02*
X108330000Y-95330000D01*
X112854289Y-93024031D02*
X112858360Y-93019960D01*
X112858360Y-95569960D02*
X112854289Y-95565889D01*
X112858360Y-93019960D02*
X112858360Y-92344960D01*
X112858360Y-96244960D02*
X112858360Y-95569960D01*
X121224040Y-105973880D02*
X122074039Y-105123881D01*
X122074039Y-105123881D02*
X122074039Y-104827361D01*
X122074039Y-104827361D02*
X123742220Y-103159180D01*
X123742220Y-103159180D02*
X124767220Y-103159180D01*
X98541840Y-106365040D02*
X99716841Y-107540041D01*
X100404521Y-107540041D02*
X101519100Y-108654620D01*
X99716841Y-107540041D02*
X100404521Y-107540041D01*
X101519100Y-108654620D02*
X101519100Y-109679620D01*
X92065540Y-106926380D02*
X92065540Y-103899400D01*
X92065540Y-103899400D02*
X91884500Y-103718360D01*
X91884500Y-103718360D02*
X92901640Y-103718360D01*
X92901640Y-103718360D02*
X93390000Y-103230000D01*
X91884500Y-99908360D02*
X91884500Y-99565500D01*
X91884500Y-99565500D02*
X93030000Y-98420000D01*
X100310000Y-97500000D02*
X100310000Y-92340000D01*
X99960000Y-88940000D02*
X99960000Y-91990000D01*
X99960000Y-91990000D02*
X100310000Y-92340000D01*
X113358360Y-96244960D02*
X112858360Y-96244960D01*
X85007640Y-93708162D02*
X84507640Y-93208162D01*
X84507640Y-93208162D02*
X84507640Y-92548160D01*
X91884500Y-102448360D02*
X90734500Y-102448360D01*
X90734500Y-102448360D02*
X90659499Y-102373359D01*
X91498000Y-98124100D02*
X91498000Y-97574100D01*
X90659499Y-102373359D02*
X90659499Y-98962601D01*
X90659499Y-98962601D02*
X91498000Y-98124100D01*
X91884500Y-102448360D02*
X91384500Y-102448360D01*
X91384500Y-102448360D02*
X90565540Y-103267320D01*
X90565540Y-103267320D02*
X90565540Y-106926380D01*
X98310000Y-97500000D02*
X97710000Y-97500000D01*
X97710000Y-97500000D02*
X95509500Y-99700500D01*
X95509500Y-99700500D02*
X94244160Y-99700500D01*
X98310000Y-97500000D02*
X98310000Y-92340000D01*
X98310000Y-92340000D02*
X98310000Y-89090000D01*
X98310000Y-89090000D02*
X98460000Y-88940000D01*
X116878041Y-110792321D02*
X116803040Y-110717320D01*
X124767220Y-104159180D02*
X124767220Y-106388142D01*
X120363041Y-110792321D02*
X116878041Y-110792321D01*
X124767220Y-106388142D02*
X120363041Y-110792321D01*
X116803040Y-110717320D02*
X116803040Y-109692320D01*
X126234724Y-88068280D02*
X124777380Y-88068280D01*
X127285002Y-87018002D02*
X126234724Y-88068280D01*
X127285002Y-85915900D02*
X127285002Y-87018002D01*
X122923542Y-81554440D02*
X127285002Y-85915900D01*
X120539640Y-81554440D02*
X122923542Y-81554440D01*
X120539640Y-80386636D02*
X120539640Y-81554440D01*
X118561998Y-79104998D02*
X119258002Y-79104998D01*
X114028621Y-80454439D02*
X117212557Y-80454439D01*
X119258002Y-79104998D02*
X120539640Y-80386636D01*
X117212557Y-80454439D02*
X118561998Y-79104998D01*
X112857500Y-81625560D02*
X114028621Y-80454439D01*
X112307500Y-81625560D02*
X112857500Y-81625560D01*
X106973800Y-82233196D02*
X106973800Y-84869080D01*
X110281998Y-78924998D02*
X106973800Y-82233196D01*
X110978002Y-78924998D02*
X110281998Y-78924998D01*
X112307500Y-80254496D02*
X110978002Y-78924998D01*
X112307500Y-81625560D02*
X112307500Y-80254496D01*
X109600000Y-104300000D02*
X109600000Y-103857088D01*
X109600000Y-103857088D02*
X111072086Y-102385002D01*
X113300000Y-101520000D02*
X113950000Y-101520000D01*
X110250000Y-104950000D02*
X109600000Y-104300000D01*
X110300000Y-104950000D02*
X110250000Y-104950000D01*
X112434998Y-102385002D02*
X113300000Y-101520000D01*
X111072086Y-102385002D02*
X112434998Y-102385002D01*
X85507640Y-92548160D02*
X85507640Y-91287659D01*
X85507640Y-91287659D02*
X84683454Y-90463473D01*
X105950000Y-90240000D02*
X105950000Y-89392880D01*
X105950000Y-89392880D02*
X106973800Y-88369080D01*
X110450000Y-99000000D02*
X110450000Y-99550000D01*
X112358360Y-97091640D02*
X110450000Y-99000000D01*
X112358360Y-96244960D02*
X112358360Y-97091640D01*
X83090000Y-84410000D02*
X83090000Y-82755900D01*
X81220400Y-80886300D02*
X80670400Y-80886300D01*
X83090000Y-82755900D02*
X81220400Y-80886300D01*
X83421540Y-86313440D02*
X83921540Y-86313440D01*
X83090000Y-84410000D02*
X83090000Y-85481900D01*
X83090000Y-85481900D02*
X83921540Y-86313440D01*
X100519100Y-109679620D02*
X98899620Y-109679620D01*
X98899620Y-109679620D02*
X98420000Y-109200000D01*
X108697900Y-109738040D02*
X108147900Y-109738040D01*
X108147900Y-109738040D02*
X107106319Y-110779621D01*
X107106319Y-110779621D02*
X100594101Y-110779621D01*
X100594101Y-110779621D02*
X100519100Y-110704620D01*
X100519100Y-110704620D02*
X100519100Y-109679620D01*
X107058040Y-106847640D02*
X107058040Y-106747640D01*
X107058040Y-106747640D02*
X108855680Y-104950000D01*
X108855680Y-104950000D02*
X110300000Y-104950000D01*
X107058040Y-108648180D02*
X107058040Y-106847640D01*
X108147900Y-109738040D02*
X107058040Y-108648180D01*
X116803040Y-109692320D02*
X113483618Y-109692320D01*
X108772901Y-110838041D02*
X108697900Y-110763040D01*
X113483618Y-109692320D02*
X112337897Y-110838041D01*
X112337897Y-110838041D02*
X108772901Y-110838041D01*
X108697900Y-110763040D02*
X108697900Y-109738040D01*
X124762140Y-96302960D02*
X124762140Y-96852960D01*
X124762140Y-96852960D02*
X125867221Y-97958041D01*
X125867221Y-97958041D02*
X125867221Y-104084179D01*
X125867221Y-104084179D02*
X125792220Y-104159180D01*
X125792220Y-104159180D02*
X124767220Y-104159180D01*
X124777380Y-88068280D02*
X124777380Y-88618280D01*
X124777380Y-88618280D02*
X125862141Y-89703041D01*
X125862141Y-89703041D02*
X125862141Y-96227959D01*
X125862141Y-96227959D02*
X125787140Y-96302960D01*
X125787140Y-96302960D02*
X124762140Y-96302960D01*
X115798600Y-85013380D02*
X117738520Y-85013380D01*
X117738520Y-85013380D02*
X118103900Y-84648000D01*
X120539640Y-81554440D02*
X120539640Y-82579440D01*
X120539640Y-82579440D02*
X118471080Y-84648000D01*
X118471080Y-84648000D02*
X118103900Y-84648000D01*
X89069040Y-81104860D02*
X92039222Y-81104860D01*
X92039222Y-81104860D02*
X93566063Y-79578019D01*
X97131059Y-79578019D02*
X97206060Y-79653020D01*
X93566063Y-79578019D02*
X97131059Y-79578019D01*
X97206060Y-79653020D02*
X97206060Y-80678020D01*
X82101841Y-80004859D02*
X88994039Y-80004859D01*
X81220400Y-80886300D02*
X82101841Y-80004859D01*
X88994039Y-80004859D02*
X89069040Y-80079860D01*
X89069040Y-80079860D02*
X89069040Y-81104860D01*
X73205460Y-84976840D02*
X73205460Y-83691238D01*
X73205460Y-83691238D02*
X77110399Y-79786299D01*
X80595399Y-79786299D02*
X80670400Y-79861300D01*
X77110399Y-79786299D02*
X80595399Y-79786299D01*
X80670400Y-79861300D02*
X80670400Y-80886300D01*
X77296860Y-90200480D02*
X76846860Y-90200480D01*
X76846860Y-90200480D02*
X76416558Y-89770178D01*
X76416558Y-89770178D02*
X73258800Y-89770178D01*
X73258800Y-93183580D02*
X73258800Y-89770178D01*
X72180460Y-84976840D02*
X73205460Y-84976840D01*
X73258800Y-89770178D02*
X72105459Y-88616837D01*
X72105459Y-88616837D02*
X72105459Y-85051841D01*
X72105459Y-85051841D02*
X72180460Y-84976840D01*
X73225780Y-102012620D02*
X73225780Y-97890558D01*
X73225780Y-97890558D02*
X72158799Y-96823577D01*
X72158799Y-96823577D02*
X72158799Y-93258581D01*
X72158799Y-93258581D02*
X72233800Y-93183580D01*
X72233800Y-93183580D02*
X73258800Y-93183580D01*
X78215360Y-109405300D02*
X75878462Y-109405300D01*
X75878462Y-109405300D02*
X72125779Y-105652617D01*
X72125779Y-105652617D02*
X72125779Y-102087621D01*
X72125779Y-102087621D02*
X72200780Y-102012620D01*
X72200780Y-102012620D02*
X73225780Y-102012620D01*
X78215360Y-109405300D02*
X78215360Y-110430300D01*
X78215360Y-110430300D02*
X78290361Y-110505301D01*
X78290361Y-110505301D02*
X84777179Y-110505301D01*
X84777179Y-110505301D02*
X85958460Y-109324020D01*
X85958460Y-109324020D02*
X86508460Y-109324020D01*
X106973800Y-87869080D02*
X106973800Y-88369080D01*
X106973800Y-87369080D02*
X106973800Y-87869080D01*
X106973800Y-86869080D02*
X106973800Y-87369080D01*
X106973800Y-86369080D02*
X106973800Y-86869080D01*
X106973800Y-86369080D02*
X106973800Y-85869080D01*
X106973800Y-85369080D02*
X106973800Y-85869080D01*
X106973800Y-85369080D02*
X106973800Y-84869080D01*
X89590000Y-97300000D02*
X93460000Y-93430000D01*
X93460000Y-93430000D02*
X94210000Y-93430000D01*
X89590000Y-101030000D02*
X89590000Y-97300000D01*
X88270000Y-102350000D02*
X89590000Y-101030000D01*
X88270000Y-103160000D02*
X88270000Y-102350000D01*
X86142400Y-104942960D02*
X86142400Y-105442960D01*
X86142400Y-104942960D02*
X86142400Y-104442960D01*
X86142400Y-103942960D02*
X86142400Y-104442960D01*
X86142400Y-103442960D02*
X86142400Y-103942960D01*
X86142400Y-103442960D02*
X86142400Y-102942960D01*
X86142400Y-102442960D02*
X86142400Y-102942960D01*
X86142400Y-101942960D02*
X86142400Y-102442960D01*
X88270000Y-103160000D02*
X86359440Y-103160000D01*
X86359440Y-103160000D02*
X86142400Y-102942960D01*
X86508460Y-109324020D02*
X86508460Y-107518460D01*
X86508460Y-107518460D02*
X86290000Y-107300000D01*
X82921540Y-86313440D02*
X83421540Y-86313440D01*
X82421540Y-86313440D02*
X82921540Y-86313440D01*
X81921540Y-86313440D02*
X82421540Y-86313440D01*
X81421540Y-86313440D02*
X81921540Y-86313440D01*
X80921540Y-86313440D02*
X81421540Y-86313440D01*
X80421540Y-86313440D02*
X80921540Y-86313440D01*
X102870000Y-81660000D02*
X98188040Y-81660000D01*
X97756060Y-81703020D02*
X97206060Y-81153020D01*
X98188040Y-81660000D02*
X98145020Y-81703020D01*
X98145020Y-81703020D02*
X97756060Y-81703020D01*
X97206060Y-81153020D02*
X97206060Y-80678020D01*
X106973800Y-84869080D02*
X105529080Y-84869080D01*
X105529080Y-84869080D02*
X102870000Y-82210000D01*
X102870000Y-82210000D02*
X102870000Y-81660000D01*
X94210000Y-93430000D02*
X96831061Y-90808939D01*
X96831061Y-90808939D02*
X96831061Y-82078019D01*
X96831061Y-82078019D02*
X97206060Y-81703020D01*
X97206060Y-81703020D02*
X97206060Y-80678020D01*
X94210000Y-93430000D02*
X94210000Y-96212100D01*
X94210000Y-96212100D02*
X92848000Y-97574100D01*
X92848000Y-97574100D02*
X92398000Y-97574100D01*
X91393860Y-93606620D02*
X91393860Y-93706620D01*
X91393860Y-93706620D02*
X91918861Y-94231621D01*
X91918861Y-94231621D02*
X93408379Y-94231621D01*
X93408379Y-94231621D02*
X94210000Y-93430000D01*
X91393860Y-93606620D02*
X91393860Y-91704160D01*
X91393860Y-91704160D02*
X91409100Y-91688920D01*
X85007640Y-92548160D02*
X85507640Y-92548160D01*
X107430000Y-99610000D02*
X110390000Y-99610000D01*
X110390000Y-99610000D02*
X110450000Y-99550000D01*
X113950000Y-102520000D02*
X113950000Y-103020000D01*
X113950000Y-102020000D02*
X113950000Y-102520000D01*
X113950000Y-101520000D02*
X113950000Y-102020000D01*
X113950000Y-101020000D02*
X113950000Y-101520000D01*
X113950000Y-100520000D02*
X113950000Y-101020000D01*
X113950000Y-100020000D02*
X113950000Y-100520000D01*
X113950000Y-100020000D02*
X113950000Y-99520000D01*
X110450000Y-99550000D02*
X110450000Y-100100000D01*
X110450000Y-100100000D02*
X110770000Y-100420000D01*
X110770000Y-100420000D02*
X112400000Y-100420000D01*
X112400000Y-100420000D02*
X113300000Y-99520000D01*
X113300000Y-99520000D02*
X113950000Y-99520000D01*
X103770000Y-81660000D02*
X103770000Y-79090000D01*
X103770000Y-79090000D02*
X104310000Y-78550000D01*
X120374041Y-104775959D02*
X120374041Y-104283879D01*
X116917560Y-106314240D02*
X118835760Y-106314240D01*
X120374041Y-104283879D02*
X121224040Y-103433880D01*
X118835760Y-106314240D02*
X120374041Y-104775959D01*
X116467560Y-106764240D02*
X116917560Y-106314240D01*
X116367560Y-106764240D02*
X116467560Y-106764240D01*
X121122440Y-93304360D02*
X119685560Y-93304360D01*
X119685560Y-93304360D02*
X116580500Y-90199300D01*
X116580500Y-90199300D02*
X116580500Y-89649300D01*
X96550480Y-110894280D02*
X96550480Y-111739520D01*
X96550480Y-111739520D02*
X96070000Y-112220000D01*
X93830000Y-110820000D02*
X96476200Y-110820000D01*
X96476200Y-110820000D02*
X96550480Y-110894280D01*
X113858360Y-96941640D02*
X113858360Y-96244960D01*
X111350000Y-99450000D02*
X113858360Y-96941640D01*
X111350000Y-99550000D02*
X111350000Y-99450000D01*
X79270000Y-91310000D02*
X79270000Y-91273620D01*
X79270000Y-91273620D02*
X78196860Y-90200480D01*
X84007640Y-92548160D02*
X84007640Y-91077640D01*
X84007640Y-91077640D02*
X83670000Y-90740000D01*
X114558360Y-95544960D02*
X115045012Y-96031612D01*
X115045012Y-96031612D02*
X115045012Y-96431612D01*
X115045012Y-96431612D02*
X115045012Y-97540000D01*
X115045012Y-97540000D02*
X115045012Y-99065012D01*
X114240000Y-97970000D02*
X114639999Y-97570001D01*
X114639999Y-97570001D02*
X115015011Y-97570001D01*
X115015011Y-97570001D02*
X115045012Y-97540000D01*
X115045012Y-99065012D02*
X115500000Y-99520000D01*
X115500000Y-99520000D02*
X115750000Y-99520000D01*
X124767220Y-102159180D02*
X123742220Y-102159180D01*
X123742220Y-102159180D02*
X122399041Y-100816001D01*
X122399041Y-100816001D02*
X122399041Y-99783879D01*
X122399041Y-99783879D02*
X121905162Y-99290000D01*
X121905162Y-99290000D02*
X120990000Y-99290000D01*
X119095013Y-104282688D02*
X118695664Y-104682037D01*
X113358360Y-92344960D02*
X113358360Y-91669960D01*
X119095013Y-103014402D02*
X119095013Y-104282688D01*
X119947439Y-102161976D02*
X119095013Y-103014402D01*
X119947439Y-94613473D02*
X119947439Y-102161976D01*
X113358360Y-91669960D02*
X113433361Y-91594959D01*
X113433361Y-91594959D02*
X116928925Y-91594959D01*
X118695664Y-104682037D02*
X118129979Y-104682037D01*
X116928925Y-91594959D02*
X119947439Y-94613473D01*
X115750000Y-103420000D02*
X117012037Y-104682037D01*
X115750000Y-103020000D02*
X115750000Y-103420000D01*
X117564294Y-104682037D02*
X118129979Y-104682037D01*
X117012037Y-104682037D02*
X117564294Y-104682037D01*
X103519100Y-109679620D02*
X104810380Y-109679620D01*
X104810380Y-109679620D02*
X105700000Y-108790000D01*
X115820000Y-95110000D02*
X115820000Y-95965724D01*
X115820000Y-95965724D02*
X115819246Y-95966478D01*
X115308360Y-95119960D02*
X115810040Y-95119960D01*
X115810040Y-95119960D02*
X115820000Y-95110000D01*
X115495023Y-95306623D02*
X115495023Y-98878613D01*
X115495023Y-98878613D02*
X115661409Y-99044999D01*
X115308360Y-95119960D02*
X115495023Y-95306623D01*
X116475001Y-99930001D02*
X116385002Y-100020000D01*
X116410001Y-99044999D02*
X116475001Y-99109999D01*
X115661409Y-99044999D02*
X116410001Y-99044999D01*
X116385002Y-100020000D02*
X115750000Y-100020000D01*
X116475001Y-99109999D02*
X116475001Y-99930001D01*
X124767220Y-101159180D02*
X124767220Y-100609180D01*
X122345380Y-98187340D02*
X121372660Y-98187340D01*
X124767220Y-100609180D02*
X122345380Y-98187340D01*
X114558360Y-95044960D02*
X115233360Y-95044960D01*
X115233360Y-95044960D02*
X115308360Y-95119960D01*
X115965822Y-97919598D02*
X116365821Y-98319597D01*
X115965822Y-97467180D02*
X115965822Y-97919598D01*
X114558360Y-94544960D02*
X115891371Y-94544960D01*
X116615001Y-95268590D02*
X116615001Y-96818001D01*
X115891371Y-94544960D02*
X116615001Y-95268590D01*
X116615001Y-96818001D02*
X115965822Y-97467180D01*
X118803040Y-109692320D02*
X118803040Y-108135710D01*
X118803040Y-108135710D02*
X118454990Y-107787660D01*
X116365821Y-98364408D02*
X116365821Y-98319597D01*
X116925011Y-100116401D02*
X116925011Y-98923599D01*
X116925011Y-98923599D02*
X116365821Y-98364408D01*
X116521412Y-100520000D02*
X116925011Y-100116401D01*
X115750000Y-100520000D02*
X116521412Y-100520000D01*
X117065012Y-95082190D02*
X117065012Y-97034401D01*
X116625070Y-97474343D02*
X117375023Y-98224296D01*
X114558360Y-94044960D02*
X116027782Y-94044960D01*
X116027782Y-94044960D02*
X117065012Y-95082190D01*
X117065012Y-97034401D02*
X116625070Y-97474343D01*
X119880000Y-108040000D02*
X119880000Y-109615360D01*
X119880000Y-109615360D02*
X119803040Y-109692320D01*
X117375023Y-98655023D02*
X117790000Y-99070000D01*
X117375023Y-98224296D02*
X117375023Y-98655023D01*
X117375022Y-100302801D02*
X117020000Y-100657824D01*
X117020000Y-100657824D02*
X116657824Y-101020000D01*
X117375023Y-98224296D02*
X117375022Y-100302801D01*
X116657824Y-101020000D02*
X115750000Y-101020000D01*
X117676781Y-96857792D02*
X117676781Y-97423477D01*
X117676781Y-95057548D02*
X117676781Y-96857792D01*
X114558360Y-93544960D02*
X116164193Y-93544960D01*
X116164193Y-93544960D02*
X117676781Y-95057548D01*
X117136996Y-101520000D02*
X118515002Y-100141994D01*
X118515002Y-98261698D02*
X118076780Y-97823476D01*
X115750000Y-101520000D02*
X117136996Y-101520000D01*
X118515002Y-100141994D02*
X118515002Y-98261698D01*
X118076780Y-97823476D02*
X117676781Y-97423477D01*
X110697900Y-109738040D02*
X110697900Y-108713040D01*
X110697900Y-108713040D02*
X111460940Y-107950000D01*
X111460940Y-107950000D02*
X112910000Y-107950000D01*
X118965013Y-101359302D02*
X117700000Y-102624315D01*
X118965013Y-95709369D02*
X118965013Y-101359302D01*
X116300604Y-93044960D02*
X118965013Y-95709369D01*
X114558360Y-93044960D02*
X116300604Y-93044960D01*
X117680006Y-102644309D02*
X117680006Y-102673624D01*
X117680006Y-102673624D02*
X117680006Y-103239309D01*
X117700000Y-102624315D02*
X117680006Y-102644309D01*
X117604900Y-102624315D02*
X117700000Y-102624315D01*
X115750000Y-102020000D02*
X117000585Y-102020000D01*
X117000585Y-102020000D02*
X117604900Y-102624315D01*
X111697900Y-109738040D02*
X112247900Y-109738040D01*
X112247900Y-109738040D02*
X114670000Y-107315940D01*
X114670000Y-107315940D02*
X114670000Y-106870000D01*
X117331996Y-103965002D02*
X117774551Y-103965002D01*
X116957311Y-92676347D02*
X117357310Y-93076346D01*
X117757309Y-93476345D02*
X117357310Y-93076346D01*
X119415024Y-95134060D02*
X117757309Y-93476345D01*
X113858360Y-92344960D02*
X116625924Y-92344960D01*
X117782517Y-103957036D02*
X118225968Y-103957036D01*
X118645002Y-102828002D02*
X119415024Y-102057980D01*
X116625924Y-92344960D02*
X116957311Y-92676347D01*
X118225968Y-103957036D02*
X118645002Y-103538002D01*
X116954996Y-103074996D02*
X116954996Y-103588002D01*
X115750000Y-102520000D02*
X116400000Y-102520000D01*
X119415024Y-102057980D02*
X119415024Y-95134060D01*
X118645002Y-103538002D02*
X118645002Y-102828002D01*
X116400000Y-102520000D02*
X116954996Y-103074996D01*
X116954996Y-103588002D02*
X117331996Y-103965002D01*
X117774551Y-103965002D02*
X117782517Y-103957036D01*
X104241059Y-108579619D02*
X111160678Y-101660000D01*
X102519100Y-109679620D02*
X102519100Y-108654620D01*
X102519100Y-108654620D02*
X102594101Y-108579619D01*
X102594101Y-108579619D02*
X104241059Y-108579619D01*
X111160678Y-101660000D02*
X111420000Y-101660000D01*
X114760000Y-83360000D02*
X115159999Y-82960001D01*
X118539640Y-82579440D02*
X118539640Y-81554440D01*
X115159999Y-82960001D02*
X118159079Y-82960001D01*
X118159079Y-82960001D02*
X118539640Y-82579440D01*
X109545012Y-88510000D02*
X109545012Y-88005290D01*
X109545012Y-88645575D02*
X109545012Y-88510000D01*
X109545012Y-88510000D02*
X109545012Y-90114988D01*
X109545012Y-90114988D02*
X109470000Y-90190000D01*
X108214988Y-89695599D02*
X108855599Y-89054988D01*
X109135599Y-89054988D02*
X109545012Y-88645575D01*
X108214988Y-93512168D02*
X108214988Y-89695599D01*
X109247780Y-94544960D02*
X108214988Y-93512168D01*
X108855599Y-89054988D02*
X109135599Y-89054988D01*
X109545012Y-88005290D02*
X109408802Y-87869080D01*
X109408802Y-87869080D02*
X108773800Y-87869080D01*
X110658360Y-94544960D02*
X109247780Y-94544960D01*
X110195002Y-88018869D02*
X109948812Y-87772679D01*
X110658360Y-94044960D02*
X109846949Y-94044960D01*
X109321999Y-93520010D02*
X109321999Y-91411005D01*
X109846949Y-94044960D02*
X109321999Y-93520010D01*
X110195002Y-90538002D02*
X110195002Y-88018869D01*
X109321999Y-91411005D02*
X110195002Y-90538002D01*
X115768958Y-89000020D02*
X114644314Y-87875376D01*
X124762140Y-92119058D02*
X121643102Y-89000020D01*
X124762140Y-93302960D02*
X124762140Y-92119058D01*
X121643102Y-89000020D02*
X115768958Y-89000020D01*
X110899998Y-88723865D02*
X110899998Y-89500000D01*
X109948812Y-87772679D02*
X110899998Y-88723865D01*
X109948812Y-87772679D02*
X109545213Y-87369080D01*
X109545213Y-87369080D02*
X108773800Y-87369080D01*
X110658360Y-94044960D02*
X110633361Y-94019961D01*
X120192075Y-92129359D02*
X118996720Y-90934004D01*
X124762140Y-94302960D02*
X123860042Y-94302960D01*
X123860042Y-94302960D02*
X121686441Y-92129359D01*
X121686441Y-92129359D02*
X120192075Y-92129359D01*
X109908359Y-93469959D02*
X109908359Y-91824643D01*
X111518532Y-88685528D02*
X111518532Y-89119688D01*
X108773800Y-86869080D02*
X109702084Y-86869080D01*
X111518532Y-89919686D02*
X111918531Y-89519687D01*
X111518532Y-89119688D02*
X111918531Y-89519687D01*
X110583315Y-90914359D02*
X111518532Y-89979142D01*
X110583315Y-91149687D02*
X110583315Y-90914359D01*
X111518532Y-89979142D02*
X111518532Y-89919686D01*
X109908359Y-91824643D02*
X110583315Y-91149687D01*
X109983360Y-93544960D02*
X109908359Y-93469959D01*
X110658360Y-93544960D02*
X109983360Y-93544960D01*
X109702084Y-86869080D02*
X111518532Y-88685528D01*
X111033326Y-91100759D02*
X111033326Y-91336087D01*
X111033326Y-91336087D02*
X110658360Y-91711053D01*
X110182486Y-86710000D02*
X112651457Y-89178972D01*
X112651457Y-89178972D02*
X112651457Y-89831220D01*
X110658360Y-91711053D02*
X110658360Y-93044960D01*
X112237751Y-90244926D02*
X111889159Y-90244926D01*
X112651457Y-89831220D02*
X112237751Y-90244926D01*
X111889159Y-90244926D02*
X111033326Y-91100759D01*
X109841566Y-86369080D02*
X110182486Y-86710000D01*
X110650000Y-86710000D02*
X110182486Y-86710000D01*
X110740000Y-86620000D02*
X110650000Y-86710000D01*
X116494325Y-87550365D02*
X116094326Y-87150366D01*
X124777380Y-85068280D02*
X123171720Y-85068280D01*
X120689635Y-87550365D02*
X116494325Y-87550365D01*
X123171720Y-85068280D02*
X120689635Y-87550365D01*
X108773800Y-86369080D02*
X109841566Y-86369080D01*
X113125009Y-89994079D02*
X112424151Y-90694937D01*
X111483337Y-91544983D02*
X111358360Y-91669960D01*
X111358360Y-91669960D02*
X111358360Y-92344960D01*
X113019290Y-88596178D02*
X113125009Y-88701897D01*
X110004934Y-85869080D02*
X111019080Y-85869080D01*
X113019290Y-87869291D02*
X113019290Y-88596178D01*
X111019080Y-85869080D02*
X113019290Y-87869291D01*
X112424151Y-90694937D02*
X112075559Y-90694937D01*
X111483337Y-91287159D02*
X111483337Y-91544983D01*
X113125009Y-88701897D02*
X113125009Y-89994079D01*
X112075559Y-90694937D02*
X111483337Y-91287159D01*
X111704315Y-85950000D02*
X112270000Y-85950000D01*
X110004934Y-85869080D02*
X111623395Y-85869080D01*
X111623395Y-85869080D02*
X111704315Y-85950000D01*
X114955708Y-86086252D02*
X114390023Y-86086252D01*
X122808131Y-86068280D02*
X120326402Y-88550009D01*
X120326402Y-88550009D02*
X116346113Y-88550009D01*
X115369316Y-86499860D02*
X114955708Y-86086252D01*
X115369316Y-87573212D02*
X115369316Y-86499860D01*
X124777380Y-86068280D02*
X122808131Y-86068280D01*
X116346113Y-88550009D02*
X115369316Y-87573212D01*
X108773800Y-85869080D02*
X110004934Y-85869080D01*
X109307500Y-81625560D02*
X109307500Y-82650560D01*
X109307500Y-82650560D02*
X108048799Y-83909261D01*
X108123800Y-85369080D02*
X108773800Y-85369080D01*
X108048799Y-83909261D02*
X108048799Y-85294079D01*
X108048799Y-85294079D02*
X108123800Y-85369080D01*
X111781998Y-85064998D02*
X111477916Y-85369080D01*
X111933348Y-91473559D02*
X112261959Y-91144948D01*
X111933348Y-91731383D02*
X111933348Y-91473559D01*
X112261959Y-91144948D02*
X112610551Y-91144948D01*
X112995002Y-87208592D02*
X112995002Y-85581998D01*
X112478002Y-85064998D02*
X111781998Y-85064998D01*
X111858360Y-92344960D02*
X111858360Y-91806371D01*
X113469301Y-88409778D02*
X113469301Y-87682890D01*
X113575020Y-90180479D02*
X113575020Y-88515497D01*
X112995002Y-85581998D02*
X112478002Y-85064998D01*
X113575020Y-88515497D02*
X113469301Y-88409778D01*
X112610551Y-91144948D02*
X113575020Y-90180479D01*
X111477916Y-85369080D02*
X108773800Y-85369080D01*
X113469301Y-87682890D02*
X112995002Y-87208592D01*
X111858360Y-91806371D02*
X111933348Y-91731383D01*
X107489987Y-89402893D02*
X107489987Y-91110000D01*
X107489987Y-91110000D02*
X107489987Y-93423577D01*
X117539640Y-81554440D02*
X114995560Y-81554440D01*
X114995560Y-81554440D02*
X113960000Y-82590000D01*
X109111370Y-95044960D02*
X110658360Y-95044960D01*
X108773800Y-88369080D02*
X108523800Y-88369080D01*
X108523800Y-88369080D02*
X107489987Y-89402893D01*
X107489987Y-93423577D02*
X109111370Y-95044960D01*
X110307500Y-81625560D02*
X110307500Y-82650560D01*
X110307500Y-82650560D02*
X109423800Y-83534260D01*
X109423800Y-83534260D02*
X109423800Y-84469080D01*
X114025031Y-88329097D02*
X114025031Y-90366879D01*
X112796951Y-91594959D02*
X112448359Y-91594959D01*
X109023800Y-84869080D02*
X109423800Y-84469080D01*
X112383359Y-92319961D02*
X112358360Y-92344960D01*
X113535013Y-87112191D02*
X113919312Y-87496490D01*
X113535013Y-85485598D02*
X113535013Y-87112191D01*
X112448359Y-91594959D02*
X112383359Y-91659959D01*
X114025031Y-90366879D02*
X112796951Y-91594959D01*
X109423800Y-84469080D02*
X112518495Y-84469080D01*
X112383359Y-91659959D02*
X112383359Y-92319961D01*
X113919312Y-88223378D02*
X114025031Y-88329097D01*
X113919312Y-87496490D02*
X113919312Y-88223378D01*
X108773800Y-84869080D02*
X109023800Y-84869080D01*
X112518495Y-84469080D02*
X113535013Y-85485598D01*
X81267362Y-99623128D02*
X81267362Y-102629313D01*
X83607640Y-97123160D02*
X83607640Y-97282850D01*
X84007640Y-96448160D02*
X84007640Y-96723160D01*
X81352352Y-102714303D02*
X81352352Y-103279988D01*
X83607640Y-97282850D02*
X81267362Y-99623128D01*
X84007640Y-96723160D02*
X83607640Y-97123160D01*
X81267362Y-102629313D02*
X81352352Y-102714303D01*
X82515324Y-104442960D02*
X81352352Y-103279988D01*
X84342400Y-104442960D02*
X82515324Y-104442960D01*
X80215360Y-109405300D02*
X80215360Y-106525360D01*
X80215360Y-106525360D02*
X80080000Y-106390000D01*
X81296719Y-98957360D02*
X81296719Y-98159081D01*
X81583305Y-104730000D02*
X80617383Y-103764078D01*
X83307640Y-96148160D02*
X83307640Y-95748160D01*
X80617383Y-99636696D02*
X81296719Y-98957360D01*
X81296719Y-98159081D02*
X83307640Y-96148160D01*
X80617383Y-103764078D02*
X80617383Y-99636696D01*
X84342400Y-104942960D02*
X81796265Y-104942960D01*
X81796265Y-104942960D02*
X81583305Y-104730000D01*
X89508460Y-109324020D02*
X89508460Y-106518460D01*
X89508460Y-106518460D02*
X88110000Y-105120000D01*
X80846708Y-98770960D02*
X80846708Y-97034092D01*
X80167372Y-104387069D02*
X80167372Y-99450296D01*
X82632640Y-95248160D02*
X83307640Y-95248160D01*
X81623263Y-105842960D02*
X80167372Y-104387069D01*
X83692400Y-105842960D02*
X81623263Y-105842960D01*
X84342400Y-105442960D02*
X84092400Y-105442960D01*
X80167372Y-99450296D02*
X80846708Y-98770960D01*
X80846708Y-97034092D02*
X82632640Y-95248160D01*
X84092400Y-105442960D02*
X83692400Y-105842960D01*
X88508460Y-109324020D02*
X88508460Y-108299020D01*
X88508460Y-108299020D02*
X86127401Y-105917961D01*
X86127401Y-105917961D02*
X85467401Y-105917961D01*
X85467401Y-105917961D02*
X84992400Y-105442960D01*
X84992400Y-105442960D02*
X84342400Y-105442960D01*
X79995001Y-92804936D02*
X79995001Y-90961999D01*
X79971538Y-89213442D02*
X80421540Y-88763440D01*
X80421540Y-88763440D02*
X80421540Y-88113440D01*
X79971538Y-90938536D02*
X79971538Y-89213442D01*
X79995001Y-90961999D02*
X79971538Y-90938536D01*
X81938225Y-94748160D02*
X79995001Y-92804936D01*
X83307640Y-94748160D02*
X81938225Y-94748160D01*
X73205460Y-87976840D02*
X74230460Y-87976840D01*
X74367060Y-88113440D02*
X80421540Y-88113440D01*
X74230460Y-87976840D02*
X74367060Y-88113440D01*
X82325158Y-94248160D02*
X80699157Y-92622159D01*
X80699157Y-92622159D02*
X80699157Y-90789359D01*
X80921540Y-90566976D02*
X80699157Y-90789359D01*
X83307640Y-94248160D02*
X82325158Y-94248160D01*
X80921540Y-88113440D02*
X80921540Y-90566976D01*
X76218410Y-86976840D02*
X76630000Y-87388430D01*
X73205460Y-86976840D02*
X76218410Y-86976840D01*
X81421540Y-88763440D02*
X81424159Y-88766059D01*
X81421540Y-88113440D02*
X81421540Y-88763440D01*
X81424159Y-88766059D02*
X81424159Y-90805671D01*
X81424159Y-90805671D02*
X81665427Y-91046939D01*
X81665427Y-92780947D02*
X81665427Y-91046939D01*
X82632640Y-93748160D02*
X81665427Y-92780947D01*
X83307640Y-93748160D02*
X82632640Y-93748160D01*
X77670400Y-80886300D02*
X77670400Y-83650400D01*
X77670400Y-83650400D02*
X78090000Y-84070000D01*
X84507640Y-97022150D02*
X81992367Y-99537423D01*
X84507640Y-96448160D02*
X84507640Y-97022150D01*
X81992367Y-99537423D02*
X81992367Y-101735010D01*
X84342400Y-103942960D02*
X83298166Y-103942960D01*
X81992367Y-102637161D02*
X81992367Y-101735010D01*
X83298166Y-103942960D02*
X81992367Y-102637161D01*
X81215360Y-109405300D02*
X81215360Y-107684640D01*
X81215360Y-107684640D02*
X82290000Y-106610000D01*
X82747949Y-92288469D02*
X82747949Y-90352899D01*
X82594998Y-90920933D02*
X81921540Y-90247475D01*
X81921540Y-90247475D02*
X81921540Y-88113440D01*
X83307640Y-92848160D02*
X82594998Y-92135518D01*
X83307640Y-93248160D02*
X83307640Y-92848160D01*
X83307640Y-92848160D02*
X82747949Y-92288469D01*
X82594998Y-92135518D02*
X82594998Y-90920933D01*
X78670400Y-80886300D02*
X78670400Y-82660400D01*
X78670400Y-82660400D02*
X79420000Y-83410000D01*
X82717377Y-100544668D02*
X82751349Y-100510696D01*
X82717377Y-102725761D02*
X82717377Y-100544668D01*
X83434576Y-103442960D02*
X82717377Y-102725761D01*
X84342400Y-103442960D02*
X83434576Y-103442960D01*
X83151348Y-99545012D02*
X82751349Y-99945011D01*
X85507640Y-96448160D02*
X85507640Y-97154623D01*
X85507640Y-97154623D02*
X83151348Y-99510915D01*
X82751349Y-100510696D02*
X82751349Y-99945011D01*
X83151348Y-99510915D02*
X83151348Y-99545012D01*
X73225780Y-104012620D02*
X76957380Y-104012620D01*
X76957380Y-104012620D02*
X77600000Y-103370000D01*
X89475002Y-88935002D02*
X89475002Y-92808002D01*
X88950000Y-88410000D02*
X89475002Y-88935002D01*
X87882640Y-93748160D02*
X87207640Y-93748160D01*
X89475002Y-92808002D02*
X88534844Y-93748160D01*
X88534844Y-93748160D02*
X87882640Y-93748160D01*
X83138739Y-89738463D02*
X87621537Y-89738463D01*
X82421540Y-89021264D02*
X83138739Y-89738463D01*
X87621537Y-89738463D02*
X88950000Y-88410000D01*
X82421540Y-88113440D02*
X82421540Y-89021264D01*
X94206060Y-80678020D02*
X94206060Y-82363940D01*
X94206060Y-82363940D02*
X91950000Y-84620000D01*
X75900000Y-105440000D02*
X73653160Y-105440000D01*
X73653160Y-105440000D02*
X73225780Y-105012620D01*
X84550000Y-99963947D02*
X84413947Y-99963947D01*
X86007640Y-98506307D02*
X84550000Y-99963947D01*
X84550000Y-99963947D02*
X83167388Y-101346559D01*
X84413947Y-99963947D02*
X84070000Y-99620000D01*
X83737247Y-102867972D02*
X83812235Y-102942960D01*
X83167388Y-102539361D02*
X83495999Y-102867972D01*
X83812235Y-102942960D02*
X84342400Y-102942960D01*
X83495999Y-102867972D02*
X83737247Y-102867972D01*
X83167388Y-101346559D02*
X83167388Y-102539361D01*
X86007640Y-96448160D02*
X86007640Y-98506307D01*
X84317401Y-102417961D02*
X83682399Y-102417961D01*
X83682399Y-101467959D02*
X84430996Y-101467959D01*
X84430996Y-101467959D02*
X86507640Y-99391315D01*
X84342400Y-102442960D02*
X84317401Y-102417961D01*
X83617399Y-102352961D02*
X83617399Y-101532959D01*
X83682399Y-102417961D02*
X83617399Y-102352961D01*
X83617399Y-101532959D02*
X83682399Y-101467959D01*
X73258800Y-95183580D02*
X75741538Y-95183580D01*
X75741538Y-95183580D02*
X76469119Y-94455999D01*
X76469119Y-94455999D02*
X79265999Y-94455999D01*
X79265999Y-94455999D02*
X79810000Y-95000000D01*
X86507640Y-99391315D02*
X86507640Y-96448160D01*
X87232641Y-99702719D02*
X87232641Y-99510000D01*
X87232641Y-99510000D02*
X87232641Y-99043314D01*
X88310000Y-100270000D02*
X87910001Y-99870001D01*
X87910001Y-99870001D02*
X87592642Y-99870001D01*
X87592642Y-99870001D02*
X87232641Y-99510000D01*
X73258800Y-96183580D02*
X74283800Y-96183580D01*
X75096219Y-96995999D02*
X79525999Y-96995999D01*
X74283800Y-96183580D02*
X75096219Y-96995999D01*
X79525999Y-96995999D02*
X79720000Y-97190000D01*
X87207640Y-99018313D02*
X87207640Y-95748160D01*
X87232641Y-99043314D02*
X87207640Y-99018313D01*
X84992400Y-101942960D02*
X87232641Y-99702719D01*
X84342400Y-101942960D02*
X84992400Y-101942960D01*
X90825035Y-93367202D02*
X90825035Y-91187984D01*
X88944077Y-95248160D02*
X90825035Y-93367202D01*
X87207640Y-95248160D02*
X88944077Y-95248160D01*
X90825035Y-91187984D02*
X91330034Y-90682985D01*
X85786404Y-86648576D02*
X84321540Y-88113440D01*
X91330034Y-90682985D02*
X91330034Y-87414209D01*
X90564401Y-86648576D02*
X85786404Y-86648576D01*
X91330034Y-87414209D02*
X90564401Y-86648576D01*
X87069040Y-81104860D02*
X87069040Y-85365940D01*
X87069040Y-85365940D02*
X84321540Y-88113440D01*
X84321540Y-88113440D02*
X83921540Y-88113440D01*
X90378001Y-87098587D02*
X90880023Y-87600609D01*
X87882640Y-94748160D02*
X87207640Y-94748160D01*
X90880023Y-87600609D02*
X90880023Y-90496585D01*
X88807666Y-94748160D02*
X87882640Y-94748160D01*
X90375024Y-91001584D02*
X90375024Y-93180802D01*
X90880023Y-90496585D02*
X90375024Y-91001584D01*
X87894264Y-87098587D02*
X90378001Y-87098587D01*
X86700000Y-88292851D02*
X87894264Y-87098587D01*
X90375024Y-93180802D02*
X88807666Y-94748160D01*
X86154410Y-88838441D02*
X86700000Y-88292851D01*
X83446539Y-88773441D02*
X83511539Y-88838441D01*
X83511539Y-88838441D02*
X86154410Y-88838441D01*
X86069040Y-81104860D02*
X86069040Y-84380960D01*
X86069040Y-84380960D02*
X85570000Y-84880000D01*
X83446539Y-88773441D02*
X83421540Y-88113440D01*
X83421540Y-88113440D02*
X83446539Y-88138439D01*
X83446539Y-88138439D02*
X83446539Y-88773441D01*
X90030000Y-88389273D02*
X90030000Y-87823588D01*
X88671255Y-94248160D02*
X89925013Y-92994402D01*
X89925013Y-88494260D02*
X90030000Y-88389273D01*
X87207640Y-94248160D02*
X88671255Y-94248160D01*
X89925013Y-92994402D02*
X89925013Y-88494260D01*
X86777401Y-89288452D02*
X83325139Y-89288452D01*
X90030000Y-87823588D02*
X89464315Y-87823588D01*
X82921540Y-88884853D02*
X82921540Y-88113440D01*
X88380854Y-87684999D02*
X86777401Y-89288452D01*
X89325726Y-87684999D02*
X88380854Y-87684999D01*
X83325139Y-89288452D02*
X82921540Y-88884853D01*
X89464315Y-87823588D02*
X89325726Y-87684999D01*
X95206060Y-80678020D02*
X95206060Y-83543940D01*
X95206060Y-83543940D02*
X93090000Y-85660000D01*
X96001840Y-106365040D02*
X96001840Y-107848160D01*
X96001840Y-107848160D02*
X93930000Y-109920000D01*
X93930000Y-109920000D02*
X93830000Y-109920000D01*
X105730000Y-102520000D02*
X105730000Y-98259590D01*
X100987000Y-101990000D02*
X101821999Y-102824999D01*
X93619159Y-99325501D02*
X93619159Y-100160501D01*
X95448658Y-101990000D02*
X100987000Y-101990000D01*
X101821999Y-102824999D02*
X105425001Y-102824999D01*
X94144160Y-98800500D02*
X93619159Y-99325501D01*
X93619159Y-100160501D02*
X95448658Y-101990000D01*
X94244160Y-98800500D02*
X94144160Y-98800500D01*
X105425001Y-102824999D02*
X105730000Y-102520000D01*
X96552339Y-103892339D02*
X100107661Y-103892339D01*
X93838360Y-101178360D02*
X96552339Y-103892339D01*
X91884500Y-101178360D02*
X93838360Y-101178360D01*
X100107661Y-103892339D02*
X100507660Y-103492340D01*
X101081840Y-106365040D02*
X103936880Y-103510000D01*
X103936880Y-103510000D02*
X106880000Y-103510000D01*
X101081840Y-106365040D02*
X99906839Y-105190039D01*
X99906839Y-105190039D02*
X97977839Y-105190039D01*
X97176841Y-105991037D02*
X97176841Y-108917919D01*
X97176841Y-108917919D02*
X96550480Y-109544280D01*
X97977839Y-105190039D02*
X97176841Y-105991037D01*
X96550480Y-109544280D02*
X96550480Y-109994280D01*
X108044961Y-96994961D02*
X106170000Y-95120000D01*
X111858360Y-96244960D02*
X111858360Y-96919960D01*
X111858360Y-96919960D02*
X111783359Y-96994961D01*
X111783359Y-96994961D02*
X108044961Y-96994961D01*
X107430000Y-98710000D02*
X107430000Y-96380000D01*
X107430000Y-96380000D02*
X106170000Y-95120000D01*
X108171956Y-96244960D02*
X111358360Y-96244960D01*
X107604998Y-95678002D02*
X108171956Y-96244960D01*
X105950000Y-92520000D02*
X107604998Y-94174998D01*
X107604998Y-94174998D02*
X107604998Y-95678002D01*
X106320000Y-94060000D02*
X106320000Y-92890000D01*
X106320000Y-92890000D02*
X105950000Y-92520000D01*
X105950000Y-91140000D02*
X105950000Y-92520000D01*
X92293860Y-93606620D02*
X92293860Y-93476140D01*
X92293860Y-93476140D02*
X93290000Y-92480000D01*
X87149111Y-92548160D02*
X88037681Y-91659590D01*
X86507640Y-92548160D02*
X87149111Y-92548160D01*
X114370000Y-84800000D02*
X115483380Y-85913380D01*
X115483380Y-85913380D02*
X115798600Y-85913380D01*
X115798600Y-85913380D02*
X117469280Y-85913380D01*
X117469280Y-85913380D02*
X118103900Y-86548000D01*
X118649350Y-105864240D02*
X116367560Y-105864240D01*
X119690000Y-104823590D02*
X118649350Y-105864240D01*
X121224040Y-100893880D02*
X121224040Y-101521785D01*
X121224040Y-101521785D02*
X119690000Y-103055825D01*
X119690000Y-103055825D02*
X119690000Y-104823590D01*
X112300000Y-105900000D02*
X116331800Y-105900000D01*
X116331800Y-105900000D02*
X116367560Y-105864240D01*
X120022440Y-90764360D02*
X119192196Y-89934116D01*
X119192196Y-89934116D02*
X119012452Y-89934116D01*
X117480500Y-89649300D02*
X118727636Y-89649300D01*
X118727636Y-89649300D02*
X119012452Y-89934116D01*
X121122440Y-90764360D02*
X120022440Y-90764360D01*
X120103900Y-85598000D02*
X120103900Y-86446100D01*
X120103900Y-86446100D02*
X119800000Y-86750000D01*
X110300000Y-106850000D02*
X110350000Y-106850000D01*
X111144989Y-106055011D02*
X111144989Y-104319999D01*
X111144989Y-104319999D02*
X110653699Y-103828709D01*
X110350000Y-106850000D02*
X111144989Y-106055011D01*
X106804999Y-97414999D02*
X103730000Y-94340000D01*
X103730000Y-94340000D02*
X103730000Y-86720000D01*
X108020001Y-101440001D02*
X106804999Y-100224999D01*
X106804999Y-100224999D02*
X106804999Y-97414999D01*
X109940000Y-101840000D02*
X109540001Y-101440001D01*
X109540001Y-101440001D02*
X108020001Y-101440001D01*
X107958040Y-106847640D02*
X110297640Y-106847640D01*
X110297640Y-106847640D02*
X110300000Y-106850000D01*
X92907313Y-90990707D02*
X92907313Y-90635010D01*
X92309100Y-91588920D02*
X92907313Y-90990707D01*
X92309100Y-91688920D02*
X92309100Y-91588920D01*
X86007640Y-92548160D02*
X86007640Y-91082956D01*
X86007640Y-91082956D02*
X86336427Y-90754169D01*
X102200000Y-83780000D02*
X102200000Y-102099989D01*
X101220000Y-82800000D02*
X102200000Y-83780000D01*
X102110000Y-78550000D02*
X102110000Y-79920000D01*
X102110000Y-79920000D02*
X101340000Y-80690000D01*
D30*
G36*
X96014938Y-104429740D02*
X96261500Y-104594487D01*
X96552339Y-104652339D01*
X97440885Y-104652339D01*
X97440438Y-104652638D01*
X97145516Y-104947560D01*
X97099605Y-104916883D01*
X96851840Y-104867600D01*
X95151840Y-104867600D01*
X94904075Y-104916883D01*
X94694031Y-105057231D01*
X94553683Y-105267275D01*
X94504400Y-105515040D01*
X94504400Y-107215040D01*
X94553683Y-107462805D01*
X94694031Y-107672849D01*
X94904075Y-107813197D01*
X94952391Y-107822807D01*
X93702638Y-109072560D01*
X93530000Y-109072560D01*
X93282235Y-109121843D01*
X93072191Y-109262191D01*
X92931843Y-109472235D01*
X92882560Y-109720000D01*
X92882560Y-110120000D01*
X92931843Y-110367765D01*
X92933336Y-110370000D01*
X92931843Y-110372235D01*
X92882560Y-110620000D01*
X92882560Y-111020000D01*
X92931843Y-111267765D01*
X93072191Y-111477809D01*
X93282235Y-111618157D01*
X93530000Y-111667440D01*
X94130000Y-111667440D01*
X94377765Y-111618157D01*
X94434871Y-111580000D01*
X95246127Y-111580000D01*
X95193081Y-111632954D01*
X95035180Y-112013223D01*
X95034821Y-112424971D01*
X95192058Y-112805515D01*
X95299356Y-112913000D01*
X92023283Y-112913000D01*
X92055900Y-112749020D01*
X92055900Y-110949020D01*
X92006617Y-110701255D01*
X91866269Y-110491211D01*
X91656225Y-110350863D01*
X91408460Y-110301580D01*
X90415609Y-110301580D01*
X90455900Y-110099020D01*
X90455900Y-108549020D01*
X90406617Y-108301255D01*
X90268460Y-108094490D01*
X90268460Y-107948820D01*
X90965540Y-107948820D01*
X91213305Y-107899537D01*
X91304642Y-107838507D01*
X91305842Y-107839707D01*
X91539231Y-107936380D01*
X91779790Y-107936380D01*
X91938540Y-107777630D01*
X91938540Y-107053380D01*
X92192540Y-107053380D01*
X92192540Y-107777630D01*
X92351290Y-107936380D01*
X92591849Y-107936380D01*
X92825238Y-107839707D01*
X93003867Y-107661079D01*
X93100540Y-107427690D01*
X93100540Y-107212130D01*
X92941790Y-107053380D01*
X92192540Y-107053380D01*
X91938540Y-107053380D01*
X91918540Y-107053380D01*
X91918540Y-106799380D01*
X91938540Y-106799380D01*
X91938540Y-106075130D01*
X92192540Y-106075130D01*
X92192540Y-106799380D01*
X92941790Y-106799380D01*
X93100540Y-106640630D01*
X93100540Y-106425070D01*
X93003867Y-106191681D01*
X92825238Y-106013053D01*
X92591849Y-105916380D01*
X92351290Y-105916380D01*
X92192540Y-106075130D01*
X91938540Y-106075130D01*
X91779790Y-105916380D01*
X91539231Y-105916380D01*
X91325540Y-106004894D01*
X91325540Y-104753360D01*
X91598750Y-104753360D01*
X91757500Y-104594610D01*
X91757500Y-103845360D01*
X92011500Y-103845360D01*
X92011500Y-104594610D01*
X92170250Y-104753360D01*
X92910810Y-104753360D01*
X93144199Y-104656687D01*
X93322827Y-104478058D01*
X93419500Y-104244669D01*
X93419500Y-104004110D01*
X93260750Y-103845360D01*
X92011500Y-103845360D01*
X91757500Y-103845360D01*
X91737500Y-103845360D01*
X91737500Y-103591360D01*
X91757500Y-103591360D01*
X91757500Y-103571360D01*
X92011500Y-103571360D01*
X92011500Y-103591360D01*
X93260750Y-103591360D01*
X93419500Y-103432610D01*
X93419500Y-103192051D01*
X93380872Y-103098796D01*
X93382657Y-103096125D01*
X93431940Y-102848360D01*
X93431940Y-102048360D01*
X93410060Y-101938360D01*
X93523558Y-101938360D01*
X96014938Y-104429740D01*
X96014938Y-104429740D01*
G37*
X96014938Y-104429740D02*
X96261500Y-104594487D01*
X96552339Y-104652339D01*
X97440885Y-104652339D01*
X97440438Y-104652638D01*
X97145516Y-104947560D01*
X97099605Y-104916883D01*
X96851840Y-104867600D01*
X95151840Y-104867600D01*
X94904075Y-104916883D01*
X94694031Y-105057231D01*
X94553683Y-105267275D01*
X94504400Y-105515040D01*
X94504400Y-107215040D01*
X94553683Y-107462805D01*
X94694031Y-107672849D01*
X94904075Y-107813197D01*
X94952391Y-107822807D01*
X93702638Y-109072560D01*
X93530000Y-109072560D01*
X93282235Y-109121843D01*
X93072191Y-109262191D01*
X92931843Y-109472235D01*
X92882560Y-109720000D01*
X92882560Y-110120000D01*
X92931843Y-110367765D01*
X92933336Y-110370000D01*
X92931843Y-110372235D01*
X92882560Y-110620000D01*
X92882560Y-111020000D01*
X92931843Y-111267765D01*
X93072191Y-111477809D01*
X93282235Y-111618157D01*
X93530000Y-111667440D01*
X94130000Y-111667440D01*
X94377765Y-111618157D01*
X94434871Y-111580000D01*
X95246127Y-111580000D01*
X95193081Y-111632954D01*
X95035180Y-112013223D01*
X95034821Y-112424971D01*
X95192058Y-112805515D01*
X95299356Y-112913000D01*
X92023283Y-112913000D01*
X92055900Y-112749020D01*
X92055900Y-110949020D01*
X92006617Y-110701255D01*
X91866269Y-110491211D01*
X91656225Y-110350863D01*
X91408460Y-110301580D01*
X90415609Y-110301580D01*
X90455900Y-110099020D01*
X90455900Y-108549020D01*
X90406617Y-108301255D01*
X90268460Y-108094490D01*
X90268460Y-107948820D01*
X90965540Y-107948820D01*
X91213305Y-107899537D01*
X91304642Y-107838507D01*
X91305842Y-107839707D01*
X91539231Y-107936380D01*
X91779790Y-107936380D01*
X91938540Y-107777630D01*
X91938540Y-107053380D01*
X92192540Y-107053380D01*
X92192540Y-107777630D01*
X92351290Y-107936380D01*
X92591849Y-107936380D01*
X92825238Y-107839707D01*
X93003867Y-107661079D01*
X93100540Y-107427690D01*
X93100540Y-107212130D01*
X92941790Y-107053380D01*
X92192540Y-107053380D01*
X91938540Y-107053380D01*
X91918540Y-107053380D01*
X91918540Y-106799380D01*
X91938540Y-106799380D01*
X91938540Y-106075130D01*
X92192540Y-106075130D01*
X92192540Y-106799380D01*
X92941790Y-106799380D01*
X93100540Y-106640630D01*
X93100540Y-106425070D01*
X93003867Y-106191681D01*
X92825238Y-106013053D01*
X92591849Y-105916380D01*
X92351290Y-105916380D01*
X92192540Y-106075130D01*
X91938540Y-106075130D01*
X91779790Y-105916380D01*
X91539231Y-105916380D01*
X91325540Y-106004894D01*
X91325540Y-104753360D01*
X91598750Y-104753360D01*
X91757500Y-104594610D01*
X91757500Y-103845360D01*
X92011500Y-103845360D01*
X92011500Y-104594610D01*
X92170250Y-104753360D01*
X92910810Y-104753360D01*
X93144199Y-104656687D01*
X93322827Y-104478058D01*
X93419500Y-104244669D01*
X93419500Y-104004110D01*
X93260750Y-103845360D01*
X92011500Y-103845360D01*
X91757500Y-103845360D01*
X91737500Y-103845360D01*
X91737500Y-103591360D01*
X91757500Y-103591360D01*
X91757500Y-103571360D01*
X92011500Y-103571360D01*
X92011500Y-103591360D01*
X93260750Y-103591360D01*
X93419500Y-103432610D01*
X93419500Y-103192051D01*
X93380872Y-103098796D01*
X93382657Y-103096125D01*
X93431940Y-102848360D01*
X93431940Y-102048360D01*
X93410060Y-101938360D01*
X93523558Y-101938360D01*
X96014938Y-104429740D01*
G36*
X87561020Y-110099020D02*
X87610303Y-110346785D01*
X87635460Y-110384435D01*
X87635460Y-110575270D01*
X87794210Y-110734020D01*
X87934769Y-110734020D01*
X88003271Y-110705646D01*
X88208460Y-110746460D01*
X88808460Y-110746460D01*
X89008460Y-110706678D01*
X89208460Y-110746460D01*
X89601311Y-110746460D01*
X89561020Y-110949020D01*
X89561020Y-112749020D01*
X89593637Y-112913000D01*
X86423283Y-112913000D01*
X86455900Y-112749020D01*
X86455900Y-110949020D01*
X86415609Y-110746460D01*
X86808460Y-110746460D01*
X87013649Y-110705646D01*
X87082151Y-110734020D01*
X87222710Y-110734020D01*
X87381460Y-110575270D01*
X87381460Y-110384435D01*
X87406617Y-110346785D01*
X87455900Y-110099020D01*
X87455900Y-109177020D01*
X87561020Y-109177020D01*
X87561020Y-110099020D01*
X87561020Y-110099020D01*
G37*
X87561020Y-110099020D02*
X87610303Y-110346785D01*
X87635460Y-110384435D01*
X87635460Y-110575270D01*
X87794210Y-110734020D01*
X87934769Y-110734020D01*
X88003271Y-110705646D01*
X88208460Y-110746460D01*
X88808460Y-110746460D01*
X89008460Y-110706678D01*
X89208460Y-110746460D01*
X89601311Y-110746460D01*
X89561020Y-110949020D01*
X89561020Y-112749020D01*
X89593637Y-112913000D01*
X86423283Y-112913000D01*
X86455900Y-112749020D01*
X86455900Y-110949020D01*
X86415609Y-110746460D01*
X86808460Y-110746460D01*
X87013649Y-110705646D01*
X87082151Y-110734020D01*
X87222710Y-110734020D01*
X87381460Y-110575270D01*
X87381460Y-110384435D01*
X87406617Y-110346785D01*
X87455900Y-110099020D01*
X87455900Y-109177020D01*
X87561020Y-109177020D01*
X87561020Y-110099020D01*
G36*
X109392191Y-107707809D02*
X109602235Y-107848157D01*
X109850000Y-107897440D01*
X110438698Y-107897440D01*
X110160499Y-108175639D01*
X110058668Y-108328040D01*
X109983650Y-108328040D01*
X109824900Y-108486790D01*
X109824900Y-108677625D01*
X109799743Y-108715275D01*
X109750460Y-108963040D01*
X109750460Y-109885040D01*
X109645340Y-109885040D01*
X109645340Y-108963040D01*
X109596057Y-108715275D01*
X109570900Y-108677625D01*
X109570900Y-108486790D01*
X109412150Y-108328040D01*
X109271591Y-108328040D01*
X109203089Y-108356414D01*
X108997900Y-108315600D01*
X108397900Y-108315600D01*
X108150135Y-108364883D01*
X107969945Y-108485283D01*
X107818040Y-108333378D01*
X107818040Y-107795080D01*
X108158040Y-107795080D01*
X108405805Y-107745797D01*
X108612570Y-107607640D01*
X109325260Y-107607640D01*
X109392191Y-107707809D01*
X109392191Y-107707809D01*
G37*
X109392191Y-107707809D02*
X109602235Y-107848157D01*
X109850000Y-107897440D01*
X110438698Y-107897440D01*
X110160499Y-108175639D01*
X110058668Y-108328040D01*
X109983650Y-108328040D01*
X109824900Y-108486790D01*
X109824900Y-108677625D01*
X109799743Y-108715275D01*
X109750460Y-108963040D01*
X109750460Y-109885040D01*
X109645340Y-109885040D01*
X109645340Y-108963040D01*
X109596057Y-108715275D01*
X109570900Y-108677625D01*
X109570900Y-108486790D01*
X109412150Y-108328040D01*
X109271591Y-108328040D01*
X109203089Y-108356414D01*
X108997900Y-108315600D01*
X108397900Y-108315600D01*
X108150135Y-108364883D01*
X107969945Y-108485283D01*
X107818040Y-108333378D01*
X107818040Y-107795080D01*
X108158040Y-107795080D01*
X108405805Y-107745797D01*
X108612570Y-107607640D01*
X109325260Y-107607640D01*
X109392191Y-107707809D01*
G36*
X117855600Y-109839320D02*
X117750480Y-109839320D01*
X117750480Y-109545320D01*
X117855600Y-109545320D01*
X117855600Y-109839320D01*
X117855600Y-109839320D01*
G37*
X117855600Y-109839320D02*
X117750480Y-109839320D01*
X117750480Y-109545320D01*
X117855600Y-109545320D01*
X117855600Y-109839320D01*
G36*
X98668840Y-106238040D02*
X98688840Y-106238040D01*
X98688840Y-106492040D01*
X98668840Y-106492040D01*
X98668840Y-107685195D01*
X98898730Y-107806516D01*
X99308764Y-107636685D01*
X99737023Y-107246398D01*
X99804138Y-107103487D01*
X100031786Y-107444187D01*
X100513555Y-107766094D01*
X101081840Y-107879133D01*
X101650125Y-107766094D01*
X102131894Y-107444187D01*
X102359542Y-107103487D01*
X102426657Y-107246398D01*
X102854916Y-107636685D01*
X103264950Y-107806516D01*
X103494838Y-107685196D01*
X103494838Y-107819619D01*
X102594101Y-107819619D01*
X102351515Y-107867873D01*
X102303261Y-107877471D01*
X102056700Y-108042218D01*
X101981699Y-108117219D01*
X101879868Y-108269620D01*
X101804850Y-108269620D01*
X101646100Y-108428370D01*
X101646100Y-108619205D01*
X101620943Y-108656855D01*
X101571660Y-108904620D01*
X101571660Y-109826620D01*
X101466540Y-109826620D01*
X101466540Y-108904620D01*
X101417257Y-108656855D01*
X101392100Y-108619205D01*
X101392100Y-108428370D01*
X101233350Y-108269620D01*
X101092791Y-108269620D01*
X101024289Y-108297994D01*
X100819100Y-108257180D01*
X100219100Y-108257180D01*
X99971335Y-108306463D01*
X99761291Y-108446811D01*
X99620943Y-108656855D01*
X99571660Y-108904620D01*
X99571660Y-108919620D01*
X99424021Y-108919620D01*
X99297942Y-108614485D01*
X99007046Y-108323081D01*
X98626777Y-108165180D01*
X98215029Y-108164821D01*
X97936841Y-108279766D01*
X97936841Y-107703752D01*
X98184950Y-107806516D01*
X98414840Y-107685195D01*
X98414840Y-106492040D01*
X98394840Y-106492040D01*
X98394840Y-106238040D01*
X98414840Y-106238040D01*
X98414840Y-106218040D01*
X98668840Y-106218040D01*
X98668840Y-106238040D01*
X98668840Y-106238040D01*
G37*
X98668840Y-106238040D02*
X98688840Y-106238040D01*
X98688840Y-106492040D01*
X98668840Y-106492040D01*
X98668840Y-107685195D01*
X98898730Y-107806516D01*
X99308764Y-107636685D01*
X99737023Y-107246398D01*
X99804138Y-107103487D01*
X100031786Y-107444187D01*
X100513555Y-107766094D01*
X101081840Y-107879133D01*
X101650125Y-107766094D01*
X102131894Y-107444187D01*
X102359542Y-107103487D01*
X102426657Y-107246398D01*
X102854916Y-107636685D01*
X103264950Y-107806516D01*
X103494838Y-107685196D01*
X103494838Y-107819619D01*
X102594101Y-107819619D01*
X102351515Y-107867873D01*
X102303261Y-107877471D01*
X102056700Y-108042218D01*
X101981699Y-108117219D01*
X101879868Y-108269620D01*
X101804850Y-108269620D01*
X101646100Y-108428370D01*
X101646100Y-108619205D01*
X101620943Y-108656855D01*
X101571660Y-108904620D01*
X101571660Y-109826620D01*
X101466540Y-109826620D01*
X101466540Y-108904620D01*
X101417257Y-108656855D01*
X101392100Y-108619205D01*
X101392100Y-108428370D01*
X101233350Y-108269620D01*
X101092791Y-108269620D01*
X101024289Y-108297994D01*
X100819100Y-108257180D01*
X100219100Y-108257180D01*
X99971335Y-108306463D01*
X99761291Y-108446811D01*
X99620943Y-108656855D01*
X99571660Y-108904620D01*
X99571660Y-108919620D01*
X99424021Y-108919620D01*
X99297942Y-108614485D01*
X99007046Y-108323081D01*
X98626777Y-108165180D01*
X98215029Y-108164821D01*
X97936841Y-108279766D01*
X97936841Y-107703752D01*
X98184950Y-107806516D01*
X98414840Y-107685195D01*
X98414840Y-106492040D01*
X98394840Y-106492040D01*
X98394840Y-106238040D01*
X98414840Y-106238040D01*
X98414840Y-106218040D01*
X98668840Y-106218040D01*
X98668840Y-106238040D01*
G36*
X74558818Y-97533400D02*
X74805380Y-97698147D01*
X75096219Y-97755999D01*
X75535680Y-97755999D01*
X75535680Y-99021000D01*
X75584963Y-99268765D01*
X75725311Y-99478809D01*
X75935355Y-99619157D01*
X76183120Y-99668440D01*
X77883120Y-99668440D01*
X78130885Y-99619157D01*
X78340929Y-99478809D01*
X78481277Y-99268765D01*
X78530560Y-99021000D01*
X78530560Y-97755999D01*
X78833994Y-97755999D01*
X78842058Y-97775515D01*
X79132954Y-98066919D01*
X79513223Y-98224820D01*
X79924971Y-98225179D01*
X80086708Y-98158351D01*
X80086708Y-98456158D01*
X79629971Y-98912895D01*
X79465224Y-99159457D01*
X79407372Y-99450296D01*
X79407372Y-104387069D01*
X79465224Y-104677908D01*
X79629971Y-104924470D01*
X80060484Y-105354983D01*
X79875029Y-105354821D01*
X79494485Y-105512058D01*
X79203081Y-105802954D01*
X79045180Y-106183223D01*
X79044821Y-106594971D01*
X79202058Y-106975515D01*
X79455360Y-107229259D01*
X79455360Y-108041050D01*
X79342360Y-108154050D01*
X79342360Y-108344885D01*
X79317203Y-108382535D01*
X79267920Y-108630300D01*
X79267920Y-109552300D01*
X79162800Y-109552300D01*
X79162800Y-108630300D01*
X79113517Y-108382535D01*
X79088360Y-108344885D01*
X79088360Y-108154050D01*
X78929610Y-107995300D01*
X78789051Y-107995300D01*
X78720549Y-108023674D01*
X78515360Y-107982860D01*
X77915360Y-107982860D01*
X77667595Y-108032143D01*
X77457551Y-108172491D01*
X77317203Y-108382535D01*
X77267920Y-108630300D01*
X77267920Y-108645300D01*
X76193264Y-108645300D01*
X73747964Y-106200000D01*
X75196239Y-106200000D01*
X75312954Y-106316919D01*
X75693223Y-106474820D01*
X76104971Y-106475179D01*
X76485515Y-106317942D01*
X76776919Y-106027046D01*
X76934820Y-105646777D01*
X76935179Y-105235029D01*
X76777942Y-104854485D01*
X76696220Y-104772620D01*
X76957380Y-104772620D01*
X77248219Y-104714768D01*
X77494781Y-104550021D01*
X77639767Y-104405035D01*
X77804971Y-104405179D01*
X78185515Y-104247942D01*
X78476919Y-103957046D01*
X78634820Y-103576777D01*
X78635179Y-103165029D01*
X78477942Y-102784485D01*
X78187046Y-102493081D01*
X77806777Y-102335180D01*
X77395029Y-102334821D01*
X77014485Y-102492058D01*
X76723081Y-102782954D01*
X76565180Y-103163223D01*
X76565102Y-103252620D01*
X74590030Y-103252620D01*
X74477030Y-103139620D01*
X74286195Y-103139620D01*
X74248545Y-103114463D01*
X74000780Y-103065180D01*
X73078780Y-103065180D01*
X73078780Y-102960060D01*
X74000780Y-102960060D01*
X74248545Y-102910777D01*
X74286195Y-102885620D01*
X74477030Y-102885620D01*
X74635780Y-102726870D01*
X74635780Y-102586311D01*
X74607406Y-102517809D01*
X74648220Y-102312620D01*
X74648220Y-101712620D01*
X74598937Y-101464855D01*
X74458589Y-101254811D01*
X74248545Y-101114463D01*
X74000780Y-101065180D01*
X73985780Y-101065180D01*
X73985780Y-97890558D01*
X73927928Y-97599719D01*
X73763181Y-97353157D01*
X73541044Y-97131020D01*
X74033800Y-97131020D01*
X74136091Y-97110673D01*
X74558818Y-97533400D01*
X74558818Y-97533400D01*
G37*
X74558818Y-97533400D02*
X74805380Y-97698147D01*
X75096219Y-97755999D01*
X75535680Y-97755999D01*
X75535680Y-99021000D01*
X75584963Y-99268765D01*
X75725311Y-99478809D01*
X75935355Y-99619157D01*
X76183120Y-99668440D01*
X77883120Y-99668440D01*
X78130885Y-99619157D01*
X78340929Y-99478809D01*
X78481277Y-99268765D01*
X78530560Y-99021000D01*
X78530560Y-97755999D01*
X78833994Y-97755999D01*
X78842058Y-97775515D01*
X79132954Y-98066919D01*
X79513223Y-98224820D01*
X79924971Y-98225179D01*
X80086708Y-98158351D01*
X80086708Y-98456158D01*
X79629971Y-98912895D01*
X79465224Y-99159457D01*
X79407372Y-99450296D01*
X79407372Y-104387069D01*
X79465224Y-104677908D01*
X79629971Y-104924470D01*
X80060484Y-105354983D01*
X79875029Y-105354821D01*
X79494485Y-105512058D01*
X79203081Y-105802954D01*
X79045180Y-106183223D01*
X79044821Y-106594971D01*
X79202058Y-106975515D01*
X79455360Y-107229259D01*
X79455360Y-108041050D01*
X79342360Y-108154050D01*
X79342360Y-108344885D01*
X79317203Y-108382535D01*
X79267920Y-108630300D01*
X79267920Y-109552300D01*
X79162800Y-109552300D01*
X79162800Y-108630300D01*
X79113517Y-108382535D01*
X79088360Y-108344885D01*
X79088360Y-108154050D01*
X78929610Y-107995300D01*
X78789051Y-107995300D01*
X78720549Y-108023674D01*
X78515360Y-107982860D01*
X77915360Y-107982860D01*
X77667595Y-108032143D01*
X77457551Y-108172491D01*
X77317203Y-108382535D01*
X77267920Y-108630300D01*
X77267920Y-108645300D01*
X76193264Y-108645300D01*
X73747964Y-106200000D01*
X75196239Y-106200000D01*
X75312954Y-106316919D01*
X75693223Y-106474820D01*
X76104971Y-106475179D01*
X76485515Y-106317942D01*
X76776919Y-106027046D01*
X76934820Y-105646777D01*
X76935179Y-105235029D01*
X76777942Y-104854485D01*
X76696220Y-104772620D01*
X76957380Y-104772620D01*
X77248219Y-104714768D01*
X77494781Y-104550021D01*
X77639767Y-104405035D01*
X77804971Y-104405179D01*
X78185515Y-104247942D01*
X78476919Y-103957046D01*
X78634820Y-103576777D01*
X78635179Y-103165029D01*
X78477942Y-102784485D01*
X78187046Y-102493081D01*
X77806777Y-102335180D01*
X77395029Y-102334821D01*
X77014485Y-102492058D01*
X76723081Y-102782954D01*
X76565180Y-103163223D01*
X76565102Y-103252620D01*
X74590030Y-103252620D01*
X74477030Y-103139620D01*
X74286195Y-103139620D01*
X74248545Y-103114463D01*
X74000780Y-103065180D01*
X73078780Y-103065180D01*
X73078780Y-102960060D01*
X74000780Y-102960060D01*
X74248545Y-102910777D01*
X74286195Y-102885620D01*
X74477030Y-102885620D01*
X74635780Y-102726870D01*
X74635780Y-102586311D01*
X74607406Y-102517809D01*
X74648220Y-102312620D01*
X74648220Y-101712620D01*
X74598937Y-101464855D01*
X74458589Y-101254811D01*
X74248545Y-101114463D01*
X74000780Y-101065180D01*
X73985780Y-101065180D01*
X73985780Y-97890558D01*
X73927928Y-97599719D01*
X73763181Y-97353157D01*
X73541044Y-97131020D01*
X74033800Y-97131020D01*
X74136091Y-97110673D01*
X74558818Y-97533400D01*
G36*
X123204819Y-102696581D02*
X123357220Y-102798412D01*
X123357220Y-102873430D01*
X123515970Y-103032180D01*
X123706805Y-103032180D01*
X123744455Y-103057337D01*
X123992220Y-103106620D01*
X124914220Y-103106620D01*
X124914220Y-103211740D01*
X123992220Y-103211740D01*
X123744455Y-103261023D01*
X123706805Y-103286180D01*
X123515970Y-103286180D01*
X123357220Y-103444930D01*
X123357220Y-103585489D01*
X123385594Y-103653991D01*
X123344780Y-103859180D01*
X123344780Y-104459180D01*
X123394063Y-104706945D01*
X123534411Y-104916989D01*
X123744455Y-105057337D01*
X123992220Y-105106620D01*
X124007220Y-105106620D01*
X124007220Y-106073340D01*
X120750480Y-109330080D01*
X120750480Y-108917320D01*
X120703374Y-108680498D01*
X120756919Y-108627046D01*
X120914820Y-108246777D01*
X120915179Y-107835029D01*
X120757942Y-107454485D01*
X120588046Y-107284292D01*
X120867148Y-107415366D01*
X121097040Y-107294699D01*
X121097040Y-106100880D01*
X121351040Y-106100880D01*
X121351040Y-107294699D01*
X121580932Y-107415366D01*
X122105398Y-107169063D01*
X122495685Y-106740804D01*
X122665516Y-106330770D01*
X122544195Y-106100880D01*
X121351040Y-106100880D01*
X121097040Y-106100880D01*
X121077040Y-106100880D01*
X121077040Y-105846880D01*
X121097040Y-105846880D01*
X121097040Y-105826880D01*
X121351040Y-105826880D01*
X121351040Y-105846880D01*
X122544195Y-105846880D01*
X122665516Y-105616990D01*
X122495685Y-105206956D01*
X122105398Y-104778697D01*
X121962487Y-104711582D01*
X122303187Y-104483934D01*
X122625094Y-104002165D01*
X122738133Y-103433880D01*
X122625094Y-102865595D01*
X122303187Y-102383826D01*
X122259263Y-102354477D01*
X122321805Y-102342037D01*
X122531849Y-102201689D01*
X122603177Y-102094939D01*
X123204819Y-102696581D01*
X123204819Y-102696581D01*
G37*
X123204819Y-102696581D02*
X123357220Y-102798412D01*
X123357220Y-102873430D01*
X123515970Y-103032180D01*
X123706805Y-103032180D01*
X123744455Y-103057337D01*
X123992220Y-103106620D01*
X124914220Y-103106620D01*
X124914220Y-103211740D01*
X123992220Y-103211740D01*
X123744455Y-103261023D01*
X123706805Y-103286180D01*
X123515970Y-103286180D01*
X123357220Y-103444930D01*
X123357220Y-103585489D01*
X123385594Y-103653991D01*
X123344780Y-103859180D01*
X123344780Y-104459180D01*
X123394063Y-104706945D01*
X123534411Y-104916989D01*
X123744455Y-105057337D01*
X123992220Y-105106620D01*
X124007220Y-105106620D01*
X124007220Y-106073340D01*
X120750480Y-109330080D01*
X120750480Y-108917320D01*
X120703374Y-108680498D01*
X120756919Y-108627046D01*
X120914820Y-108246777D01*
X120915179Y-107835029D01*
X120757942Y-107454485D01*
X120588046Y-107284292D01*
X120867148Y-107415366D01*
X121097040Y-107294699D01*
X121097040Y-106100880D01*
X121351040Y-106100880D01*
X121351040Y-107294699D01*
X121580932Y-107415366D01*
X122105398Y-107169063D01*
X122495685Y-106740804D01*
X122665516Y-106330770D01*
X122544195Y-106100880D01*
X121351040Y-106100880D01*
X121097040Y-106100880D01*
X121077040Y-106100880D01*
X121077040Y-105846880D01*
X121097040Y-105846880D01*
X121097040Y-105826880D01*
X121351040Y-105826880D01*
X121351040Y-105846880D01*
X122544195Y-105846880D01*
X122665516Y-105616990D01*
X122495685Y-105206956D01*
X122105398Y-104778697D01*
X121962487Y-104711582D01*
X122303187Y-104483934D01*
X122625094Y-104002165D01*
X122738133Y-103433880D01*
X122625094Y-102865595D01*
X122303187Y-102383826D01*
X122259263Y-102354477D01*
X122321805Y-102342037D01*
X122531849Y-102201689D01*
X122603177Y-102094939D01*
X123204819Y-102696581D01*
G36*
X106292954Y-104386919D02*
X106673223Y-104544820D01*
X107084971Y-104545179D01*
X107282183Y-104463693D01*
X105049770Y-106696106D01*
X104942659Y-106492040D01*
X103748840Y-106492040D01*
X103748840Y-106512040D01*
X103494840Y-106512040D01*
X103494840Y-106492040D01*
X103474840Y-106492040D01*
X103474840Y-106238040D01*
X103494840Y-106238040D01*
X103494840Y-106218040D01*
X103748840Y-106218040D01*
X103748840Y-106238040D01*
X104942659Y-106238040D01*
X105063326Y-106008148D01*
X104817023Y-105483682D01*
X104388764Y-105093395D01*
X103978730Y-104923564D01*
X103748842Y-105044884D01*
X103748842Y-104880040D01*
X103641642Y-104880040D01*
X104251682Y-104270000D01*
X106176239Y-104270000D01*
X106292954Y-104386919D01*
X106292954Y-104386919D01*
G37*
X106292954Y-104386919D02*
X106673223Y-104544820D01*
X107084971Y-104545179D01*
X107282183Y-104463693D01*
X105049770Y-106696106D01*
X104942659Y-106492040D01*
X103748840Y-106492040D01*
X103748840Y-106512040D01*
X103494840Y-106512040D01*
X103494840Y-106492040D01*
X103474840Y-106492040D01*
X103474840Y-106238040D01*
X103494840Y-106238040D01*
X103494840Y-106218040D01*
X103748840Y-106218040D01*
X103748840Y-106238040D01*
X104942659Y-106238040D01*
X105063326Y-106008148D01*
X104817023Y-105483682D01*
X104388764Y-105093395D01*
X103978730Y-104923564D01*
X103748842Y-105044884D01*
X103748842Y-104880040D01*
X103641642Y-104880040D01*
X104251682Y-104270000D01*
X106176239Y-104270000D01*
X106292954Y-104386919D01*
G36*
X100185180Y-82593223D02*
X100184821Y-83004971D01*
X100342058Y-83385515D01*
X100632954Y-83676919D01*
X101013223Y-83834820D01*
X101180164Y-83834966D01*
X101440000Y-84094802D01*
X101440000Y-101396204D01*
X101277839Y-101287852D01*
X100987000Y-101230000D01*
X95763460Y-101230000D01*
X94993960Y-100460500D01*
X95509500Y-100460500D01*
X95800339Y-100402648D01*
X96046901Y-100237901D01*
X97562018Y-98722784D01*
X97712235Y-98823157D01*
X97960000Y-98872440D01*
X98660000Y-98872440D01*
X98907765Y-98823157D01*
X99117809Y-98682809D01*
X99258157Y-98472765D01*
X99307440Y-98225000D01*
X99307440Y-97785750D01*
X99325000Y-97785750D01*
X99325000Y-98351309D01*
X99421673Y-98584698D01*
X99600301Y-98763327D01*
X99833690Y-98860000D01*
X100024250Y-98860000D01*
X100183000Y-98701250D01*
X100183000Y-97627000D01*
X100437000Y-97627000D01*
X100437000Y-98701250D01*
X100595750Y-98860000D01*
X100786310Y-98860000D01*
X101019699Y-98763327D01*
X101198327Y-98584698D01*
X101295000Y-98351309D01*
X101295000Y-97785750D01*
X101136250Y-97627000D01*
X100437000Y-97627000D01*
X100183000Y-97627000D01*
X99483750Y-97627000D01*
X99325000Y-97785750D01*
X99307440Y-97785750D01*
X99307440Y-96775000D01*
X99282316Y-96648691D01*
X99325000Y-96648691D01*
X99325000Y-97214250D01*
X99483750Y-97373000D01*
X100183000Y-97373000D01*
X100183000Y-96298750D01*
X100437000Y-96298750D01*
X100437000Y-97373000D01*
X101136250Y-97373000D01*
X101295000Y-97214250D01*
X101295000Y-96648691D01*
X101198327Y-96415302D01*
X101019699Y-96236673D01*
X100786310Y-96140000D01*
X100595750Y-96140000D01*
X100437000Y-96298750D01*
X100183000Y-96298750D01*
X100024250Y-96140000D01*
X99833690Y-96140000D01*
X99600301Y-96236673D01*
X99421673Y-96415302D01*
X99325000Y-96648691D01*
X99282316Y-96648691D01*
X99258157Y-96527235D01*
X99117809Y-96317191D01*
X99070000Y-96285246D01*
X99070000Y-93554754D01*
X99117809Y-93522809D01*
X99258157Y-93312765D01*
X99307440Y-93065000D01*
X99307440Y-92625750D01*
X99325000Y-92625750D01*
X99325000Y-93191309D01*
X99421673Y-93424698D01*
X99600301Y-93603327D01*
X99833690Y-93700000D01*
X100024250Y-93700000D01*
X100183000Y-93541250D01*
X100183000Y-92467000D01*
X100437000Y-92467000D01*
X100437000Y-93541250D01*
X100595750Y-93700000D01*
X100786310Y-93700000D01*
X101019699Y-93603327D01*
X101198327Y-93424698D01*
X101295000Y-93191309D01*
X101295000Y-92625750D01*
X101136250Y-92467000D01*
X100437000Y-92467000D01*
X100183000Y-92467000D01*
X99483750Y-92467000D01*
X99325000Y-92625750D01*
X99307440Y-92625750D01*
X99307440Y-91615000D01*
X99282316Y-91488691D01*
X99325000Y-91488691D01*
X99325000Y-92054250D01*
X99483750Y-92213000D01*
X100183000Y-92213000D01*
X100183000Y-91138750D01*
X100437000Y-91138750D01*
X100437000Y-92213000D01*
X101136250Y-92213000D01*
X101295000Y-92054250D01*
X101295000Y-91488691D01*
X101198327Y-91255302D01*
X101019699Y-91076673D01*
X100786310Y-90980000D01*
X100595750Y-90980000D01*
X100437000Y-91138750D01*
X100183000Y-91138750D01*
X100024250Y-90980000D01*
X99833690Y-90980000D01*
X99600301Y-91076673D01*
X99421673Y-91255302D01*
X99325000Y-91488691D01*
X99282316Y-91488691D01*
X99258157Y-91367235D01*
X99117809Y-91157191D01*
X99070000Y-91125246D01*
X99070000Y-89920669D01*
X99107765Y-89913157D01*
X99199102Y-89852127D01*
X99200302Y-89853327D01*
X99433691Y-89950000D01*
X99674250Y-89950000D01*
X99833000Y-89791250D01*
X99833000Y-89067000D01*
X100087000Y-89067000D01*
X100087000Y-89791250D01*
X100245750Y-89950000D01*
X100486309Y-89950000D01*
X100719698Y-89853327D01*
X100898327Y-89674699D01*
X100995000Y-89441310D01*
X100995000Y-89225750D01*
X100836250Y-89067000D01*
X100087000Y-89067000D01*
X99833000Y-89067000D01*
X99813000Y-89067000D01*
X99813000Y-88813000D01*
X99833000Y-88813000D01*
X99833000Y-88088750D01*
X100087000Y-88088750D01*
X100087000Y-88813000D01*
X100836250Y-88813000D01*
X100995000Y-88654250D01*
X100995000Y-88438690D01*
X100898327Y-88205301D01*
X100719698Y-88026673D01*
X100486309Y-87930000D01*
X100245750Y-87930000D01*
X100087000Y-88088750D01*
X99833000Y-88088750D01*
X99674250Y-87930000D01*
X99433691Y-87930000D01*
X99200302Y-88026673D01*
X99199102Y-88027873D01*
X99107765Y-87966843D01*
X98860000Y-87917560D01*
X98292444Y-87917560D01*
X98722752Y-87739760D01*
X99056389Y-87406705D01*
X99237174Y-86971325D01*
X99237586Y-86499903D01*
X99057560Y-86064208D01*
X98724505Y-85730571D01*
X98289125Y-85549786D01*
X97817703Y-85549374D01*
X97591061Y-85643021D01*
X97591061Y-82430199D01*
X97756060Y-82463020D01*
X98145020Y-82463020D01*
X98361294Y-82420000D01*
X100257108Y-82420000D01*
X100185180Y-82593223D01*
X100185180Y-82593223D01*
G37*
X100185180Y-82593223D02*
X100184821Y-83004971D01*
X100342058Y-83385515D01*
X100632954Y-83676919D01*
X101013223Y-83834820D01*
X101180164Y-83834966D01*
X101440000Y-84094802D01*
X101440000Y-101396204D01*
X101277839Y-101287852D01*
X100987000Y-101230000D01*
X95763460Y-101230000D01*
X94993960Y-100460500D01*
X95509500Y-100460500D01*
X95800339Y-100402648D01*
X96046901Y-100237901D01*
X97562018Y-98722784D01*
X97712235Y-98823157D01*
X97960000Y-98872440D01*
X98660000Y-98872440D01*
X98907765Y-98823157D01*
X99117809Y-98682809D01*
X99258157Y-98472765D01*
X99307440Y-98225000D01*
X99307440Y-97785750D01*
X99325000Y-97785750D01*
X99325000Y-98351309D01*
X99421673Y-98584698D01*
X99600301Y-98763327D01*
X99833690Y-98860000D01*
X100024250Y-98860000D01*
X100183000Y-98701250D01*
X100183000Y-97627000D01*
X100437000Y-97627000D01*
X100437000Y-98701250D01*
X100595750Y-98860000D01*
X100786310Y-98860000D01*
X101019699Y-98763327D01*
X101198327Y-98584698D01*
X101295000Y-98351309D01*
X101295000Y-97785750D01*
X101136250Y-97627000D01*
X100437000Y-97627000D01*
X100183000Y-97627000D01*
X99483750Y-97627000D01*
X99325000Y-97785750D01*
X99307440Y-97785750D01*
X99307440Y-96775000D01*
X99282316Y-96648691D01*
X99325000Y-96648691D01*
X99325000Y-97214250D01*
X99483750Y-97373000D01*
X100183000Y-97373000D01*
X100183000Y-96298750D01*
X100437000Y-96298750D01*
X100437000Y-97373000D01*
X101136250Y-97373000D01*
X101295000Y-97214250D01*
X101295000Y-96648691D01*
X101198327Y-96415302D01*
X101019699Y-96236673D01*
X100786310Y-96140000D01*
X100595750Y-96140000D01*
X100437000Y-96298750D01*
X100183000Y-96298750D01*
X100024250Y-96140000D01*
X99833690Y-96140000D01*
X99600301Y-96236673D01*
X99421673Y-96415302D01*
X99325000Y-96648691D01*
X99282316Y-96648691D01*
X99258157Y-96527235D01*
X99117809Y-96317191D01*
X99070000Y-96285246D01*
X99070000Y-93554754D01*
X99117809Y-93522809D01*
X99258157Y-93312765D01*
X99307440Y-93065000D01*
X99307440Y-92625750D01*
X99325000Y-92625750D01*
X99325000Y-93191309D01*
X99421673Y-93424698D01*
X99600301Y-93603327D01*
X99833690Y-93700000D01*
X100024250Y-93700000D01*
X100183000Y-93541250D01*
X100183000Y-92467000D01*
X100437000Y-92467000D01*
X100437000Y-93541250D01*
X100595750Y-93700000D01*
X100786310Y-93700000D01*
X101019699Y-93603327D01*
X101198327Y-93424698D01*
X101295000Y-93191309D01*
X101295000Y-92625750D01*
X101136250Y-92467000D01*
X100437000Y-92467000D01*
X100183000Y-92467000D01*
X99483750Y-92467000D01*
X99325000Y-92625750D01*
X99307440Y-92625750D01*
X99307440Y-91615000D01*
X99282316Y-91488691D01*
X99325000Y-91488691D01*
X99325000Y-92054250D01*
X99483750Y-92213000D01*
X100183000Y-92213000D01*
X100183000Y-91138750D01*
X100437000Y-91138750D01*
X100437000Y-92213000D01*
X101136250Y-92213000D01*
X101295000Y-92054250D01*
X101295000Y-91488691D01*
X101198327Y-91255302D01*
X101019699Y-91076673D01*
X100786310Y-90980000D01*
X100595750Y-90980000D01*
X100437000Y-91138750D01*
X100183000Y-91138750D01*
X100024250Y-90980000D01*
X99833690Y-90980000D01*
X99600301Y-91076673D01*
X99421673Y-91255302D01*
X99325000Y-91488691D01*
X99282316Y-91488691D01*
X99258157Y-91367235D01*
X99117809Y-91157191D01*
X99070000Y-91125246D01*
X99070000Y-89920669D01*
X99107765Y-89913157D01*
X99199102Y-89852127D01*
X99200302Y-89853327D01*
X99433691Y-89950000D01*
X99674250Y-89950000D01*
X99833000Y-89791250D01*
X99833000Y-89067000D01*
X100087000Y-89067000D01*
X100087000Y-89791250D01*
X100245750Y-89950000D01*
X100486309Y-89950000D01*
X100719698Y-89853327D01*
X100898327Y-89674699D01*
X100995000Y-89441310D01*
X100995000Y-89225750D01*
X100836250Y-89067000D01*
X100087000Y-89067000D01*
X99833000Y-89067000D01*
X99813000Y-89067000D01*
X99813000Y-88813000D01*
X99833000Y-88813000D01*
X99833000Y-88088750D01*
X100087000Y-88088750D01*
X100087000Y-88813000D01*
X100836250Y-88813000D01*
X100995000Y-88654250D01*
X100995000Y-88438690D01*
X100898327Y-88205301D01*
X100719698Y-88026673D01*
X100486309Y-87930000D01*
X100245750Y-87930000D01*
X100087000Y-88088750D01*
X99833000Y-88088750D01*
X99674250Y-87930000D01*
X99433691Y-87930000D01*
X99200302Y-88026673D01*
X99199102Y-88027873D01*
X99107765Y-87966843D01*
X98860000Y-87917560D01*
X98292444Y-87917560D01*
X98722752Y-87739760D01*
X99056389Y-87406705D01*
X99237174Y-86971325D01*
X99237586Y-86499903D01*
X99057560Y-86064208D01*
X98724505Y-85730571D01*
X98289125Y-85549786D01*
X97817703Y-85549374D01*
X97591061Y-85643021D01*
X97591061Y-82430199D01*
X97756060Y-82463020D01*
X98145020Y-82463020D01*
X98361294Y-82420000D01*
X100257108Y-82420000D01*
X100185180Y-82593223D01*
G36*
X97550000Y-91125246D02*
X97502191Y-91157191D01*
X97361843Y-91367235D01*
X97312560Y-91615000D01*
X97312560Y-93065000D01*
X97361843Y-93312765D01*
X97502191Y-93522809D01*
X97550000Y-93554754D01*
X97550000Y-96285246D01*
X97502191Y-96317191D01*
X97361843Y-96527235D01*
X97312560Y-96775000D01*
X97312560Y-96869080D01*
X97172599Y-96962599D01*
X95194698Y-98940500D01*
X95191600Y-98940500D01*
X95191600Y-98600500D01*
X95142317Y-98352735D01*
X95001969Y-98142691D01*
X94791925Y-98002343D01*
X94544160Y-97953060D01*
X93944160Y-97953060D01*
X93696395Y-98002343D01*
X93486351Y-98142691D01*
X93346003Y-98352735D01*
X93303514Y-98566344D01*
X93081758Y-98788100D01*
X93000082Y-98910338D01*
X92910810Y-98873360D01*
X92170250Y-98873360D01*
X92011500Y-99032110D01*
X92011500Y-99781360D01*
X92031500Y-99781360D01*
X92031500Y-100035360D01*
X92011500Y-100035360D01*
X92011500Y-100055360D01*
X91757500Y-100055360D01*
X91757500Y-100035360D01*
X91737500Y-100035360D01*
X91737500Y-99781360D01*
X91757500Y-99781360D01*
X91757500Y-99032110D01*
X91711146Y-98985756D01*
X92035401Y-98661501D01*
X92081368Y-98592706D01*
X92137024Y-98509411D01*
X92198000Y-98521540D01*
X92598000Y-98521540D01*
X92845765Y-98472257D01*
X93055809Y-98331909D01*
X93085974Y-98286764D01*
X93138839Y-98276248D01*
X93385401Y-98111501D01*
X94747401Y-96749501D01*
X94912148Y-96502939D01*
X94970000Y-96212100D01*
X94970000Y-94133761D01*
X95086919Y-94017046D01*
X95244820Y-93636777D01*
X95244966Y-93469836D01*
X97368462Y-91346340D01*
X97533209Y-91099778D01*
X97550000Y-91015365D01*
X97550000Y-91125246D01*
X97550000Y-91125246D01*
G37*
X97550000Y-91125246D02*
X97502191Y-91157191D01*
X97361843Y-91367235D01*
X97312560Y-91615000D01*
X97312560Y-93065000D01*
X97361843Y-93312765D01*
X97502191Y-93522809D01*
X97550000Y-93554754D01*
X97550000Y-96285246D01*
X97502191Y-96317191D01*
X97361843Y-96527235D01*
X97312560Y-96775000D01*
X97312560Y-96869080D01*
X97172599Y-96962599D01*
X95194698Y-98940500D01*
X95191600Y-98940500D01*
X95191600Y-98600500D01*
X95142317Y-98352735D01*
X95001969Y-98142691D01*
X94791925Y-98002343D01*
X94544160Y-97953060D01*
X93944160Y-97953060D01*
X93696395Y-98002343D01*
X93486351Y-98142691D01*
X93346003Y-98352735D01*
X93303514Y-98566344D01*
X93081758Y-98788100D01*
X93000082Y-98910338D01*
X92910810Y-98873360D01*
X92170250Y-98873360D01*
X92011500Y-99032110D01*
X92011500Y-99781360D01*
X92031500Y-99781360D01*
X92031500Y-100035360D01*
X92011500Y-100035360D01*
X92011500Y-100055360D01*
X91757500Y-100055360D01*
X91757500Y-100035360D01*
X91737500Y-100035360D01*
X91737500Y-99781360D01*
X91757500Y-99781360D01*
X91757500Y-99032110D01*
X91711146Y-98985756D01*
X92035401Y-98661501D01*
X92081368Y-98592706D01*
X92137024Y-98509411D01*
X92198000Y-98521540D01*
X92598000Y-98521540D01*
X92845765Y-98472257D01*
X93055809Y-98331909D01*
X93085974Y-98286764D01*
X93138839Y-98276248D01*
X93385401Y-98111501D01*
X94747401Y-96749501D01*
X94912148Y-96502939D01*
X94970000Y-96212100D01*
X94970000Y-94133761D01*
X95086919Y-94017046D01*
X95244820Y-93636777D01*
X95244966Y-93469836D01*
X97368462Y-91346340D01*
X97533209Y-91099778D01*
X97550000Y-91015365D01*
X97550000Y-91125246D01*
G36*
X123322641Y-94840361D02*
X123357519Y-94863666D01*
X123352140Y-94876651D01*
X123352140Y-95017210D01*
X123510890Y-95175960D01*
X123701725Y-95175960D01*
X123739375Y-95201117D01*
X123987140Y-95250400D01*
X124909140Y-95250400D01*
X124909140Y-95355520D01*
X123987140Y-95355520D01*
X123739375Y-95404803D01*
X123701725Y-95429960D01*
X123510890Y-95429960D01*
X123352140Y-95588710D01*
X123352140Y-95729269D01*
X123380514Y-95797771D01*
X123339700Y-96002960D01*
X123339700Y-96602960D01*
X123388983Y-96850725D01*
X123529331Y-97060769D01*
X123739375Y-97201117D01*
X123987140Y-97250400D01*
X124131220Y-97250400D01*
X124224739Y-97390361D01*
X125107221Y-98272843D01*
X125107221Y-99874379D01*
X122882781Y-97649939D01*
X122636219Y-97485192D01*
X122345380Y-97427340D01*
X122076421Y-97427340D01*
X121959706Y-97310421D01*
X121676982Y-97193024D01*
X122003798Y-97039543D01*
X122394085Y-96611284D01*
X122563916Y-96201250D01*
X122442595Y-95971360D01*
X121249440Y-95971360D01*
X121249440Y-95991360D01*
X120995440Y-95991360D01*
X120995440Y-95971360D01*
X120975440Y-95971360D01*
X120975440Y-95717360D01*
X120995440Y-95717360D01*
X120995440Y-95697360D01*
X121249440Y-95697360D01*
X121249440Y-95717360D01*
X122442595Y-95717360D01*
X122563916Y-95487470D01*
X122394085Y-95077436D01*
X122003798Y-94649177D01*
X121860887Y-94582062D01*
X122201587Y-94354414D01*
X122455975Y-93973695D01*
X123322641Y-94840361D01*
X123322641Y-94840361D01*
G37*
X123322641Y-94840361D02*
X123357519Y-94863666D01*
X123352140Y-94876651D01*
X123352140Y-95017210D01*
X123510890Y-95175960D01*
X123701725Y-95175960D01*
X123739375Y-95201117D01*
X123987140Y-95250400D01*
X124909140Y-95250400D01*
X124909140Y-95355520D01*
X123987140Y-95355520D01*
X123739375Y-95404803D01*
X123701725Y-95429960D01*
X123510890Y-95429960D01*
X123352140Y-95588710D01*
X123352140Y-95729269D01*
X123380514Y-95797771D01*
X123339700Y-96002960D01*
X123339700Y-96602960D01*
X123388983Y-96850725D01*
X123529331Y-97060769D01*
X123739375Y-97201117D01*
X123987140Y-97250400D01*
X124131220Y-97250400D01*
X124224739Y-97390361D01*
X125107221Y-98272843D01*
X125107221Y-99874379D01*
X122882781Y-97649939D01*
X122636219Y-97485192D01*
X122345380Y-97427340D01*
X122076421Y-97427340D01*
X121959706Y-97310421D01*
X121676982Y-97193024D01*
X122003798Y-97039543D01*
X122394085Y-96611284D01*
X122563916Y-96201250D01*
X122442595Y-95971360D01*
X121249440Y-95971360D01*
X121249440Y-95991360D01*
X120995440Y-95991360D01*
X120995440Y-95971360D01*
X120975440Y-95971360D01*
X120975440Y-95717360D01*
X120995440Y-95717360D01*
X120995440Y-95697360D01*
X121249440Y-95697360D01*
X121249440Y-95717360D01*
X122442595Y-95717360D01*
X122563916Y-95487470D01*
X122394085Y-95077436D01*
X122003798Y-94649177D01*
X121860887Y-94582062D01*
X122201587Y-94354414D01*
X122455975Y-93973695D01*
X123322641Y-94840361D01*
G36*
X81400824Y-95285561D02*
X81472527Y-95333471D01*
X80399900Y-96406098D01*
X80307046Y-96313081D01*
X79926777Y-96155180D01*
X79515029Y-96154821D01*
X79318563Y-96235999D01*
X78371832Y-96235999D01*
X78474596Y-95987890D01*
X78353275Y-95758000D01*
X77160120Y-95758000D01*
X77160120Y-95778000D01*
X76906120Y-95778000D01*
X76906120Y-95758000D01*
X76886120Y-95758000D01*
X76886120Y-95504000D01*
X76906120Y-95504000D01*
X76906120Y-95484000D01*
X77160120Y-95484000D01*
X77160120Y-95504000D01*
X78353275Y-95504000D01*
X78474596Y-95274110D01*
X78450527Y-95215999D01*
X78779378Y-95215999D01*
X78932058Y-95585515D01*
X79222954Y-95876919D01*
X79603223Y-96034820D01*
X80014971Y-96035179D01*
X80395515Y-95877942D01*
X80686919Y-95587046D01*
X80844820Y-95206777D01*
X80845179Y-94795029D01*
X80799331Y-94684068D01*
X81400824Y-95285561D01*
X81400824Y-95285561D01*
G37*
X81400824Y-95285561D02*
X81472527Y-95333471D01*
X80399900Y-96406098D01*
X80307046Y-96313081D01*
X79926777Y-96155180D01*
X79515029Y-96154821D01*
X79318563Y-96235999D01*
X78371832Y-96235999D01*
X78474596Y-95987890D01*
X78353275Y-95758000D01*
X77160120Y-95758000D01*
X77160120Y-95778000D01*
X76906120Y-95778000D01*
X76906120Y-95758000D01*
X76886120Y-95758000D01*
X76886120Y-95504000D01*
X76906120Y-95504000D01*
X76906120Y-95484000D01*
X77160120Y-95484000D01*
X77160120Y-95504000D01*
X78353275Y-95504000D01*
X78474596Y-95274110D01*
X78450527Y-95215999D01*
X78779378Y-95215999D01*
X78932058Y-95585515D01*
X79222954Y-95876919D01*
X79603223Y-96034820D01*
X80014971Y-96035179D01*
X80395515Y-95877942D01*
X80686919Y-95587046D01*
X80844820Y-95206777D01*
X80845179Y-94795029D01*
X80799331Y-94684068D01*
X81400824Y-95285561D01*
G36*
X84609875Y-93571317D02*
X84728054Y-93594824D01*
X84741390Y-93608160D01*
X84783950Y-93608160D01*
X84787567Y-93606662D01*
X84857640Y-93620600D01*
X85157640Y-93620600D01*
X85257640Y-93600709D01*
X85357640Y-93620600D01*
X85657640Y-93620600D01*
X85757640Y-93600709D01*
X85857640Y-93620600D01*
X86135200Y-93620600D01*
X86135200Y-93898160D01*
X86155091Y-93998160D01*
X86135200Y-94098160D01*
X86135200Y-94398160D01*
X86155091Y-94498160D01*
X86135200Y-94598160D01*
X86135200Y-94898160D01*
X86155091Y-94998160D01*
X86135200Y-95098160D01*
X86135200Y-95375720D01*
X85857640Y-95375720D01*
X85757640Y-95395611D01*
X85657640Y-95375720D01*
X85357640Y-95375720D01*
X85287567Y-95389658D01*
X85283950Y-95388160D01*
X85241390Y-95388160D01*
X85228054Y-95401496D01*
X85109875Y-95425003D01*
X85007640Y-95493315D01*
X84905405Y-95425003D01*
X84787226Y-95401496D01*
X84773890Y-95388160D01*
X84731330Y-95388160D01*
X84727713Y-95389658D01*
X84657640Y-95375720D01*
X84380080Y-95375720D01*
X84380080Y-95098160D01*
X84360189Y-94998160D01*
X84380080Y-94898160D01*
X84380080Y-94598160D01*
X84360189Y-94498160D01*
X84380080Y-94398160D01*
X84380080Y-94098160D01*
X84360189Y-93998160D01*
X84380080Y-93898160D01*
X84380080Y-93598160D01*
X84375908Y-93577184D01*
X84405405Y-93571317D01*
X84507640Y-93503005D01*
X84609875Y-93571317D01*
X84609875Y-93571317D01*
G37*
X84609875Y-93571317D02*
X84728054Y-93594824D01*
X84741390Y-93608160D01*
X84783950Y-93608160D01*
X84787567Y-93606662D01*
X84857640Y-93620600D01*
X85157640Y-93620600D01*
X85257640Y-93600709D01*
X85357640Y-93620600D01*
X85657640Y-93620600D01*
X85757640Y-93600709D01*
X85857640Y-93620600D01*
X86135200Y-93620600D01*
X86135200Y-93898160D01*
X86155091Y-93998160D01*
X86135200Y-94098160D01*
X86135200Y-94398160D01*
X86155091Y-94498160D01*
X86135200Y-94598160D01*
X86135200Y-94898160D01*
X86155091Y-94998160D01*
X86135200Y-95098160D01*
X86135200Y-95375720D01*
X85857640Y-95375720D01*
X85757640Y-95395611D01*
X85657640Y-95375720D01*
X85357640Y-95375720D01*
X85287567Y-95389658D01*
X85283950Y-95388160D01*
X85241390Y-95388160D01*
X85228054Y-95401496D01*
X85109875Y-95425003D01*
X85007640Y-95493315D01*
X84905405Y-95425003D01*
X84787226Y-95401496D01*
X84773890Y-95388160D01*
X84731330Y-95388160D01*
X84727713Y-95389658D01*
X84657640Y-95375720D01*
X84380080Y-95375720D01*
X84380080Y-95098160D01*
X84360189Y-94998160D01*
X84380080Y-94898160D01*
X84380080Y-94598160D01*
X84360189Y-94498160D01*
X84380080Y-94398160D01*
X84380080Y-94098160D01*
X84360189Y-93998160D01*
X84380080Y-93898160D01*
X84380080Y-93598160D01*
X84375908Y-93577184D01*
X84405405Y-93571317D01*
X84507640Y-93503005D01*
X84609875Y-93571317D01*
G36*
X112960595Y-93368117D02*
X113078774Y-93391624D01*
X113092110Y-93404960D01*
X113134670Y-93404960D01*
X113138287Y-93403462D01*
X113208360Y-93417400D01*
X113485920Y-93417400D01*
X113485920Y-93694960D01*
X113505811Y-93794960D01*
X113485920Y-93894960D01*
X113485920Y-94194960D01*
X113505811Y-94294960D01*
X113485920Y-94394960D01*
X113485920Y-94694960D01*
X113505811Y-94794960D01*
X113485920Y-94894960D01*
X113485920Y-95194960D01*
X113490092Y-95215936D01*
X113460595Y-95221803D01*
X113369259Y-95282833D01*
X113368059Y-95281633D01*
X113134670Y-95184960D01*
X113082050Y-95184960D01*
X112848661Y-95281633D01*
X112847461Y-95282833D01*
X112756125Y-95221803D01*
X112637946Y-95198296D01*
X112624610Y-95184960D01*
X112582050Y-95184960D01*
X112578433Y-95186458D01*
X112508360Y-95172520D01*
X112208360Y-95172520D01*
X112108360Y-95192411D01*
X112008360Y-95172520D01*
X111730800Y-95172520D01*
X111730800Y-94894960D01*
X111710909Y-94794960D01*
X111730800Y-94694960D01*
X111730800Y-94394960D01*
X111710909Y-94294960D01*
X111730800Y-94194960D01*
X111730800Y-93894960D01*
X111710909Y-93794960D01*
X111730800Y-93694960D01*
X111730800Y-93417400D01*
X112008360Y-93417400D01*
X112108360Y-93397509D01*
X112208360Y-93417400D01*
X112508360Y-93417400D01*
X112578433Y-93403462D01*
X112582050Y-93404960D01*
X112624610Y-93404960D01*
X112637946Y-93391624D01*
X112756125Y-93368117D01*
X112858360Y-93299805D01*
X112960595Y-93368117D01*
X112960595Y-93368117D01*
G37*
X112960595Y-93368117D02*
X113078774Y-93391624D01*
X113092110Y-93404960D01*
X113134670Y-93404960D01*
X113138287Y-93403462D01*
X113208360Y-93417400D01*
X113485920Y-93417400D01*
X113485920Y-93694960D01*
X113505811Y-93794960D01*
X113485920Y-93894960D01*
X113485920Y-94194960D01*
X113505811Y-94294960D01*
X113485920Y-94394960D01*
X113485920Y-94694960D01*
X113505811Y-94794960D01*
X113485920Y-94894960D01*
X113485920Y-95194960D01*
X113490092Y-95215936D01*
X113460595Y-95221803D01*
X113369259Y-95282833D01*
X113368059Y-95281633D01*
X113134670Y-95184960D01*
X113082050Y-95184960D01*
X112848661Y-95281633D01*
X112847461Y-95282833D01*
X112756125Y-95221803D01*
X112637946Y-95198296D01*
X112624610Y-95184960D01*
X112582050Y-95184960D01*
X112578433Y-95186458D01*
X112508360Y-95172520D01*
X112208360Y-95172520D01*
X112108360Y-95192411D01*
X112008360Y-95172520D01*
X111730800Y-95172520D01*
X111730800Y-94894960D01*
X111710909Y-94794960D01*
X111730800Y-94694960D01*
X111730800Y-94394960D01*
X111710909Y-94294960D01*
X111730800Y-94194960D01*
X111730800Y-93894960D01*
X111710909Y-93794960D01*
X111730800Y-93694960D01*
X111730800Y-93417400D01*
X112008360Y-93417400D01*
X112108360Y-93397509D01*
X112208360Y-93417400D01*
X112508360Y-93417400D01*
X112578433Y-93403462D01*
X112582050Y-93404960D01*
X112624610Y-93404960D01*
X112637946Y-93391624D01*
X112756125Y-93368117D01*
X112858360Y-93299805D01*
X112960595Y-93368117D01*
G36*
X76309459Y-90737881D02*
X76556021Y-90902628D01*
X76608886Y-90913144D01*
X76639051Y-90958289D01*
X76849095Y-91098637D01*
X77096860Y-91147920D01*
X77496860Y-91147920D01*
X77744625Y-91098637D01*
X77746860Y-91097144D01*
X77749095Y-91098637D01*
X77996860Y-91147920D01*
X78069498Y-91147920D01*
X78234997Y-91313419D01*
X78234821Y-91514971D01*
X78392058Y-91895515D01*
X78682954Y-92186919D01*
X79063223Y-92344820D01*
X79235001Y-92344970D01*
X79235001Y-92804936D01*
X79292853Y-93095775D01*
X79457600Y-93342337D01*
X80125652Y-94010389D01*
X80016777Y-93965180D01*
X79849836Y-93965034D01*
X79803400Y-93918598D01*
X79556838Y-93753851D01*
X79265999Y-93695999D01*
X78409643Y-93695999D01*
X78434174Y-93659285D01*
X78547213Y-93091000D01*
X78434174Y-92522715D01*
X78112267Y-92040946D01*
X77630498Y-91719039D01*
X77062213Y-91606000D01*
X77004027Y-91606000D01*
X76435742Y-91719039D01*
X75953973Y-92040946D01*
X75632066Y-92522715D01*
X75519027Y-93091000D01*
X75632066Y-93659285D01*
X75855956Y-93994360D01*
X75426736Y-94423580D01*
X74623050Y-94423580D01*
X74510050Y-94310580D01*
X74319215Y-94310580D01*
X74281565Y-94285423D01*
X74033800Y-94236140D01*
X73111800Y-94236140D01*
X73111800Y-94131020D01*
X74033800Y-94131020D01*
X74281565Y-94081737D01*
X74319215Y-94056580D01*
X74510050Y-94056580D01*
X74668800Y-93897830D01*
X74668800Y-93757271D01*
X74640426Y-93688769D01*
X74681240Y-93483580D01*
X74681240Y-92883580D01*
X74631957Y-92635815D01*
X74491609Y-92425771D01*
X74281565Y-92285423D01*
X74033800Y-92236140D01*
X74018800Y-92236140D01*
X74018800Y-90530178D01*
X76101756Y-90530178D01*
X76309459Y-90737881D01*
X76309459Y-90737881D01*
G37*
X76309459Y-90737881D02*
X76556021Y-90902628D01*
X76608886Y-90913144D01*
X76639051Y-90958289D01*
X76849095Y-91098637D01*
X77096860Y-91147920D01*
X77496860Y-91147920D01*
X77744625Y-91098637D01*
X77746860Y-91097144D01*
X77749095Y-91098637D01*
X77996860Y-91147920D01*
X78069498Y-91147920D01*
X78234997Y-91313419D01*
X78234821Y-91514971D01*
X78392058Y-91895515D01*
X78682954Y-92186919D01*
X79063223Y-92344820D01*
X79235001Y-92344970D01*
X79235001Y-92804936D01*
X79292853Y-93095775D01*
X79457600Y-93342337D01*
X80125652Y-94010389D01*
X80016777Y-93965180D01*
X79849836Y-93965034D01*
X79803400Y-93918598D01*
X79556838Y-93753851D01*
X79265999Y-93695999D01*
X78409643Y-93695999D01*
X78434174Y-93659285D01*
X78547213Y-93091000D01*
X78434174Y-92522715D01*
X78112267Y-92040946D01*
X77630498Y-91719039D01*
X77062213Y-91606000D01*
X77004027Y-91606000D01*
X76435742Y-91719039D01*
X75953973Y-92040946D01*
X75632066Y-92522715D01*
X75519027Y-93091000D01*
X75632066Y-93659285D01*
X75855956Y-93994360D01*
X75426736Y-94423580D01*
X74623050Y-94423580D01*
X74510050Y-94310580D01*
X74319215Y-94310580D01*
X74281565Y-94285423D01*
X74033800Y-94236140D01*
X73111800Y-94236140D01*
X73111800Y-94131020D01*
X74033800Y-94131020D01*
X74281565Y-94081737D01*
X74319215Y-94056580D01*
X74510050Y-94056580D01*
X74668800Y-93897830D01*
X74668800Y-93757271D01*
X74640426Y-93688769D01*
X74681240Y-93483580D01*
X74681240Y-92883580D01*
X74631957Y-92635815D01*
X74491609Y-92425771D01*
X74281565Y-92285423D01*
X74033800Y-92236140D01*
X74018800Y-92236140D01*
X74018800Y-90530178D01*
X76101756Y-90530178D01*
X76309459Y-90737881D01*
G36*
X88121600Y-81879860D02*
X88170883Y-82127625D01*
X88196040Y-82165275D01*
X88196040Y-82356110D01*
X88354790Y-82514860D01*
X88495349Y-82514860D01*
X88563851Y-82486486D01*
X88769040Y-82527300D01*
X89369040Y-82527300D01*
X89616805Y-82478017D01*
X89826849Y-82337669D01*
X89967197Y-82127625D01*
X90016480Y-81879860D01*
X90016480Y-81864860D01*
X92039222Y-81864860D01*
X92330061Y-81807008D01*
X92576623Y-81642261D01*
X93258620Y-80960264D01*
X93258620Y-81453020D01*
X93307903Y-81700785D01*
X93446060Y-81907550D01*
X93446060Y-82049138D01*
X91910233Y-83584965D01*
X91745029Y-83584821D01*
X91364485Y-83742058D01*
X91073081Y-84032954D01*
X90915180Y-84413223D01*
X90914821Y-84824971D01*
X91072058Y-85205515D01*
X91362954Y-85496919D01*
X91743223Y-85654820D01*
X92055004Y-85655092D01*
X92054821Y-85864971D01*
X92212058Y-86245515D01*
X92502954Y-86536919D01*
X92883223Y-86694820D01*
X93294971Y-86695179D01*
X93675515Y-86537942D01*
X93966919Y-86247046D01*
X94124820Y-85866777D01*
X94124966Y-85699836D01*
X95743461Y-84081341D01*
X95908208Y-83834779D01*
X95966060Y-83543940D01*
X95966060Y-82042270D01*
X96079058Y-81929272D01*
X96079058Y-82037816D01*
X96071061Y-82078019D01*
X96071061Y-90494137D01*
X94314943Y-92250255D01*
X94167942Y-91894485D01*
X93877046Y-91603081D01*
X93541935Y-91463931D01*
X93784232Y-91222056D01*
X93942133Y-90841787D01*
X93942492Y-90430039D01*
X93785255Y-90049495D01*
X93494359Y-89758091D01*
X93114090Y-89600190D01*
X92702342Y-89599831D01*
X92321798Y-89757068D01*
X92090034Y-89988428D01*
X92090034Y-87414209D01*
X92032182Y-87123370D01*
X91867435Y-86876808D01*
X91101802Y-86111175D01*
X90855240Y-85946428D01*
X90564401Y-85888576D01*
X87616307Y-85888576D01*
X87771188Y-85656779D01*
X87829040Y-85365940D01*
X87829040Y-82469110D01*
X87942040Y-82356110D01*
X87942040Y-82165275D01*
X87967197Y-82127625D01*
X88016480Y-81879860D01*
X88016480Y-80957860D01*
X88121600Y-80957860D01*
X88121600Y-81879860D01*
X88121600Y-81879860D01*
G37*
X88121600Y-81879860D02*
X88170883Y-82127625D01*
X88196040Y-82165275D01*
X88196040Y-82356110D01*
X88354790Y-82514860D01*
X88495349Y-82514860D01*
X88563851Y-82486486D01*
X88769040Y-82527300D01*
X89369040Y-82527300D01*
X89616805Y-82478017D01*
X89826849Y-82337669D01*
X89967197Y-82127625D01*
X90016480Y-81879860D01*
X90016480Y-81864860D01*
X92039222Y-81864860D01*
X92330061Y-81807008D01*
X92576623Y-81642261D01*
X93258620Y-80960264D01*
X93258620Y-81453020D01*
X93307903Y-81700785D01*
X93446060Y-81907550D01*
X93446060Y-82049138D01*
X91910233Y-83584965D01*
X91745029Y-83584821D01*
X91364485Y-83742058D01*
X91073081Y-84032954D01*
X90915180Y-84413223D01*
X90914821Y-84824971D01*
X91072058Y-85205515D01*
X91362954Y-85496919D01*
X91743223Y-85654820D01*
X92055004Y-85655092D01*
X92054821Y-85864971D01*
X92212058Y-86245515D01*
X92502954Y-86536919D01*
X92883223Y-86694820D01*
X93294971Y-86695179D01*
X93675515Y-86537942D01*
X93966919Y-86247046D01*
X94124820Y-85866777D01*
X94124966Y-85699836D01*
X95743461Y-84081341D01*
X95908208Y-83834779D01*
X95966060Y-83543940D01*
X95966060Y-82042270D01*
X96079058Y-81929272D01*
X96079058Y-82037816D01*
X96071061Y-82078019D01*
X96071061Y-90494137D01*
X94314943Y-92250255D01*
X94167942Y-91894485D01*
X93877046Y-91603081D01*
X93541935Y-91463931D01*
X93784232Y-91222056D01*
X93942133Y-90841787D01*
X93942492Y-90430039D01*
X93785255Y-90049495D01*
X93494359Y-89758091D01*
X93114090Y-89600190D01*
X92702342Y-89599831D01*
X92321798Y-89757068D01*
X92090034Y-89988428D01*
X92090034Y-87414209D01*
X92032182Y-87123370D01*
X91867435Y-86876808D01*
X91101802Y-86111175D01*
X90855240Y-85946428D01*
X90564401Y-85888576D01*
X87616307Y-85888576D01*
X87771188Y-85656779D01*
X87829040Y-85365940D01*
X87829040Y-82469110D01*
X87942040Y-82356110D01*
X87942040Y-82165275D01*
X87967197Y-82127625D01*
X88016480Y-81879860D01*
X88016480Y-80957860D01*
X88121600Y-80957860D01*
X88121600Y-81879860D01*
G36*
X123526130Y-86941280D02*
X123716965Y-86941280D01*
X123754615Y-86966437D01*
X124002380Y-87015720D01*
X124924380Y-87015720D01*
X124924380Y-87120840D01*
X124002380Y-87120840D01*
X123754615Y-87170123D01*
X123716965Y-87195280D01*
X123526130Y-87195280D01*
X123367380Y-87354030D01*
X123367380Y-87494589D01*
X123395754Y-87563091D01*
X123354940Y-87768280D01*
X123354940Y-88368280D01*
X123404223Y-88616045D01*
X123544571Y-88826089D01*
X123754615Y-88966437D01*
X124002380Y-89015720D01*
X124146460Y-89015720D01*
X124239979Y-89155681D01*
X125102141Y-90017843D01*
X125102141Y-91384257D01*
X122180503Y-88462619D01*
X121933941Y-88297872D01*
X121699896Y-88251317D01*
X123122933Y-86828280D01*
X123413130Y-86828280D01*
X123526130Y-86941280D01*
X123526130Y-86941280D01*
G37*
X123526130Y-86941280D02*
X123716965Y-86941280D01*
X123754615Y-86966437D01*
X124002380Y-87015720D01*
X124924380Y-87015720D01*
X124924380Y-87120840D01*
X124002380Y-87120840D01*
X123754615Y-87170123D01*
X123716965Y-87195280D01*
X123526130Y-87195280D01*
X123367380Y-87354030D01*
X123367380Y-87494589D01*
X123395754Y-87563091D01*
X123354940Y-87768280D01*
X123354940Y-88368280D01*
X123404223Y-88616045D01*
X123544571Y-88826089D01*
X123754615Y-88966437D01*
X124002380Y-89015720D01*
X124146460Y-89015720D01*
X124239979Y-89155681D01*
X125102141Y-90017843D01*
X125102141Y-91384257D01*
X122180503Y-88462619D01*
X121933941Y-88297872D01*
X121699896Y-88251317D01*
X123122933Y-86828280D01*
X123413130Y-86828280D01*
X123526130Y-86941280D01*
G36*
X79722960Y-81661300D02*
X79772243Y-81909065D01*
X79797400Y-81946715D01*
X79797400Y-82137550D01*
X79956150Y-82296300D01*
X80096709Y-82296300D01*
X80165211Y-82267926D01*
X80370400Y-82308740D01*
X80970400Y-82308740D01*
X81218165Y-82259457D01*
X81398355Y-82139057D01*
X82330000Y-83070702D01*
X82330000Y-83706239D01*
X82213081Y-83822954D01*
X82055180Y-84203223D01*
X82054821Y-84614971D01*
X82212058Y-84995515D01*
X82330000Y-85113663D01*
X82330000Y-85266000D01*
X82271540Y-85266000D01*
X82171540Y-85285891D01*
X82071540Y-85266000D01*
X81771540Y-85266000D01*
X81671540Y-85285891D01*
X81571540Y-85266000D01*
X81271540Y-85266000D01*
X81171540Y-85285891D01*
X81071540Y-85266000D01*
X80771540Y-85266000D01*
X80671540Y-85285891D01*
X80571540Y-85266000D01*
X80271540Y-85266000D01*
X80023775Y-85315283D01*
X79813731Y-85455631D01*
X79673383Y-85665675D01*
X79624100Y-85913440D01*
X79624100Y-86713440D01*
X79673383Y-86961205D01*
X79813731Y-87171249D01*
X79876874Y-87213440D01*
X79813731Y-87255631D01*
X79748377Y-87353440D01*
X77665031Y-87353440D01*
X77665179Y-87183459D01*
X77507942Y-86802915D01*
X77217046Y-86511511D01*
X76836777Y-86353610D01*
X76627085Y-86353427D01*
X76509249Y-86274692D01*
X76218410Y-86216840D01*
X74569710Y-86216840D01*
X74456710Y-86103840D01*
X74265875Y-86103840D01*
X74228225Y-86078683D01*
X73980460Y-86029400D01*
X73058460Y-86029400D01*
X73058460Y-85924280D01*
X73980460Y-85924280D01*
X74228225Y-85874997D01*
X74265875Y-85849840D01*
X74456710Y-85849840D01*
X74615460Y-85691090D01*
X74615460Y-85550531D01*
X74587086Y-85482029D01*
X74627900Y-85276840D01*
X74627900Y-84676840D01*
X74578617Y-84429075D01*
X74438269Y-84219031D01*
X74228225Y-84078683D01*
X73980460Y-84029400D01*
X73965460Y-84029400D01*
X73965460Y-84006040D01*
X76722960Y-81248540D01*
X76722960Y-81661300D01*
X76772243Y-81909065D01*
X76910400Y-82115830D01*
X76910400Y-83650400D01*
X76968252Y-83941239D01*
X77054999Y-84071065D01*
X77054821Y-84274971D01*
X77212058Y-84655515D01*
X77502954Y-84946919D01*
X77883223Y-85104820D01*
X78294971Y-85105179D01*
X78675515Y-84947942D01*
X78966919Y-84657046D01*
X79078305Y-84388797D01*
X79213223Y-84444820D01*
X79624971Y-84445179D01*
X80005515Y-84287942D01*
X80296919Y-83997046D01*
X80454820Y-83616777D01*
X80455179Y-83205029D01*
X80297942Y-82824485D01*
X80007046Y-82533081D01*
X79626777Y-82375180D01*
X79459836Y-82375034D01*
X79430400Y-82345598D01*
X79430400Y-82250550D01*
X79543400Y-82137550D01*
X79543400Y-81946715D01*
X79568557Y-81909065D01*
X79617840Y-81661300D01*
X79617840Y-80739300D01*
X79722960Y-80739300D01*
X79722960Y-81661300D01*
X79722960Y-81661300D01*
G37*
X79722960Y-81661300D02*
X79772243Y-81909065D01*
X79797400Y-81946715D01*
X79797400Y-82137550D01*
X79956150Y-82296300D01*
X80096709Y-82296300D01*
X80165211Y-82267926D01*
X80370400Y-82308740D01*
X80970400Y-82308740D01*
X81218165Y-82259457D01*
X81398355Y-82139057D01*
X82330000Y-83070702D01*
X82330000Y-83706239D01*
X82213081Y-83822954D01*
X82055180Y-84203223D01*
X82054821Y-84614971D01*
X82212058Y-84995515D01*
X82330000Y-85113663D01*
X82330000Y-85266000D01*
X82271540Y-85266000D01*
X82171540Y-85285891D01*
X82071540Y-85266000D01*
X81771540Y-85266000D01*
X81671540Y-85285891D01*
X81571540Y-85266000D01*
X81271540Y-85266000D01*
X81171540Y-85285891D01*
X81071540Y-85266000D01*
X80771540Y-85266000D01*
X80671540Y-85285891D01*
X80571540Y-85266000D01*
X80271540Y-85266000D01*
X80023775Y-85315283D01*
X79813731Y-85455631D01*
X79673383Y-85665675D01*
X79624100Y-85913440D01*
X79624100Y-86713440D01*
X79673383Y-86961205D01*
X79813731Y-87171249D01*
X79876874Y-87213440D01*
X79813731Y-87255631D01*
X79748377Y-87353440D01*
X77665031Y-87353440D01*
X77665179Y-87183459D01*
X77507942Y-86802915D01*
X77217046Y-86511511D01*
X76836777Y-86353610D01*
X76627085Y-86353427D01*
X76509249Y-86274692D01*
X76218410Y-86216840D01*
X74569710Y-86216840D01*
X74456710Y-86103840D01*
X74265875Y-86103840D01*
X74228225Y-86078683D01*
X73980460Y-86029400D01*
X73058460Y-86029400D01*
X73058460Y-85924280D01*
X73980460Y-85924280D01*
X74228225Y-85874997D01*
X74265875Y-85849840D01*
X74456710Y-85849840D01*
X74615460Y-85691090D01*
X74615460Y-85550531D01*
X74587086Y-85482029D01*
X74627900Y-85276840D01*
X74627900Y-84676840D01*
X74578617Y-84429075D01*
X74438269Y-84219031D01*
X74228225Y-84078683D01*
X73980460Y-84029400D01*
X73965460Y-84029400D01*
X73965460Y-84006040D01*
X76722960Y-81248540D01*
X76722960Y-81661300D01*
X76772243Y-81909065D01*
X76910400Y-82115830D01*
X76910400Y-83650400D01*
X76968252Y-83941239D01*
X77054999Y-84071065D01*
X77054821Y-84274971D01*
X77212058Y-84655515D01*
X77502954Y-84946919D01*
X77883223Y-85104820D01*
X78294971Y-85105179D01*
X78675515Y-84947942D01*
X78966919Y-84657046D01*
X79078305Y-84388797D01*
X79213223Y-84444820D01*
X79624971Y-84445179D01*
X80005515Y-84287942D01*
X80296919Y-83997046D01*
X80454820Y-83616777D01*
X80455179Y-83205029D01*
X80297942Y-82824485D01*
X80007046Y-82533081D01*
X79626777Y-82375180D01*
X79459836Y-82375034D01*
X79430400Y-82345598D01*
X79430400Y-82250550D01*
X79543400Y-82137550D01*
X79543400Y-81946715D01*
X79568557Y-81909065D01*
X79617840Y-81661300D01*
X79617840Y-80739300D01*
X79722960Y-80739300D01*
X79722960Y-81661300D01*
G36*
X111360060Y-82400560D02*
X111409343Y-82648325D01*
X111434500Y-82685975D01*
X111434500Y-82876810D01*
X111593250Y-83035560D01*
X111733809Y-83035560D01*
X111802311Y-83007186D01*
X112007500Y-83048000D01*
X112607500Y-83048000D01*
X112855265Y-82998717D01*
X112975744Y-82918215D01*
X113082058Y-83175515D01*
X113372954Y-83466919D01*
X113748789Y-83622979D01*
X113859550Y-83891042D01*
X113784485Y-83922058D01*
X113493081Y-84212954D01*
X113447336Y-84323119D01*
X113055896Y-83931679D01*
X112809334Y-83766932D01*
X112518495Y-83709080D01*
X110323782Y-83709080D01*
X110844901Y-83187961D01*
X110946732Y-83035560D01*
X111021750Y-83035560D01*
X111180500Y-82876810D01*
X111180500Y-82685975D01*
X111205657Y-82648325D01*
X111254940Y-82400560D01*
X111254940Y-81478560D01*
X111360060Y-81478560D01*
X111360060Y-82400560D01*
X111360060Y-82400560D01*
G37*
X111360060Y-82400560D02*
X111409343Y-82648325D01*
X111434500Y-82685975D01*
X111434500Y-82876810D01*
X111593250Y-83035560D01*
X111733809Y-83035560D01*
X111802311Y-83007186D01*
X112007500Y-83048000D01*
X112607500Y-83048000D01*
X112855265Y-82998717D01*
X112975744Y-82918215D01*
X113082058Y-83175515D01*
X113372954Y-83466919D01*
X113748789Y-83622979D01*
X113859550Y-83891042D01*
X113784485Y-83922058D01*
X113493081Y-84212954D01*
X113447336Y-84323119D01*
X113055896Y-83931679D01*
X112809334Y-83766932D01*
X112518495Y-83709080D01*
X110323782Y-83709080D01*
X110844901Y-83187961D01*
X110946732Y-83035560D01*
X111021750Y-83035560D01*
X111180500Y-82876810D01*
X111180500Y-82685975D01*
X111205657Y-82648325D01*
X111254940Y-82400560D01*
X111254940Y-81478560D01*
X111360060Y-81478560D01*
X111360060Y-82400560D01*
G36*
X119592200Y-81701440D02*
X119487080Y-81701440D01*
X119487080Y-81407440D01*
X119592200Y-81407440D01*
X119592200Y-81701440D01*
X119592200Y-81701440D01*
G37*
X119592200Y-81701440D02*
X119487080Y-81701440D01*
X119487080Y-81407440D01*
X119592200Y-81407440D01*
X119592200Y-81701440D01*
G36*
X96258620Y-80825020D02*
X96153500Y-80825020D01*
X96153500Y-80531020D01*
X96258620Y-80531020D01*
X96258620Y-80825020D01*
X96258620Y-80825020D01*
G37*
X96258620Y-80825020D02*
X96153500Y-80825020D01*
X96153500Y-80531020D01*
X96258620Y-80531020D01*
X96258620Y-80825020D01*
M02*
