G04 #@! TF.GenerationSoftware,KiCad,Pcbnew,no-vcs-found-ecdfa40~58~ubuntu16.04.1*
G04 #@! TF.CreationDate,2017-03-20T23:24:32+01:00*
G04 #@! TF.ProjectId,GhostSensorboard,47686F737453656E736F72626F617264,rev?*
G04 #@! TF.FileFunction,Copper,L2,Bot,Signal*
G04 #@! TF.FilePolarity,Positive*
%FSLAX46Y46*%
G04 Gerber Fmt 4.6, Leading zero omitted, Abs format (unit mm)*
G04 Created by KiCad (PCBNEW no-vcs-found-ecdfa40~58~ubuntu16.04.1) date Mon Mar 20 23:24:32 2017*
%MOMM*%
%LPD*%
G01*
G04 APERTURE LIST*
%ADD10C,0.100000*%
%ADD11R,2.500000X0.350000*%
%ADD12O,1.700000X1.700000*%
%ADD13R,1.700000X1.700000*%
%ADD14C,0.800000*%
%ADD15C,0.250000*%
%ADD16C,0.254000*%
G04 APERTURE END LIST*
D10*
D11*
X97302380Y-89134580D03*
X97302380Y-89734580D03*
X97302380Y-90334580D03*
X97302380Y-90934580D03*
X97302380Y-91534580D03*
X97302380Y-92134580D03*
X97302380Y-92734580D03*
X97302380Y-93334580D03*
X97302380Y-93934580D03*
X97302380Y-94534580D03*
X97302380Y-95134580D03*
X97302380Y-95734580D03*
X97302380Y-96334580D03*
X97302380Y-96934580D03*
X97302380Y-97534580D03*
X97302380Y-98134580D03*
X97302380Y-98734580D03*
X97302380Y-99334580D03*
X97302380Y-99934580D03*
X97302380Y-100534580D03*
X102552380Y-100534580D03*
X102552380Y-99934580D03*
X102552380Y-99334580D03*
X102552380Y-98734580D03*
X102552380Y-98134580D03*
X102552380Y-97534580D03*
X102552380Y-96934580D03*
X102552380Y-96334580D03*
X102552380Y-95734580D03*
X102552380Y-95134580D03*
X102552380Y-94534580D03*
X102552380Y-93934580D03*
X102552380Y-93334580D03*
X102552380Y-92734580D03*
X102552380Y-92134580D03*
X102552380Y-91534580D03*
X102552380Y-90934580D03*
X102552380Y-90334580D03*
X102552380Y-89734580D03*
X102552380Y-89134580D03*
D12*
X77033120Y-93091000D03*
X77033120Y-95631000D03*
D13*
X77033120Y-98171000D03*
X121224040Y-100893880D03*
D12*
X121224040Y-103433880D03*
X121224040Y-105973880D03*
X121122440Y-95844360D03*
X121122440Y-93304360D03*
D13*
X121122440Y-90764360D03*
D12*
X103621840Y-106365040D03*
X101081840Y-106365040D03*
X98541840Y-106365040D03*
D13*
X96001840Y-106365040D03*
D14*
X112260000Y-94260000D03*
X85400000Y-94670000D03*
X88750000Y-92460000D03*
X99880000Y-99140000D03*
X108930000Y-107830000D03*
X126560000Y-86670000D03*
X118910000Y-79830000D03*
X110630000Y-79650000D03*
X95580000Y-84850000D03*
X89340000Y-84000000D03*
X75650000Y-85050000D03*
X74680000Y-92170000D03*
X75260000Y-100620000D03*
X87400000Y-111620000D03*
X108330000Y-95330000D03*
X93390000Y-103230000D03*
X93030000Y-98420000D03*
X84683454Y-90463473D03*
X83090000Y-84410000D03*
X98420000Y-109200000D03*
X88270000Y-103160000D03*
X86290000Y-107300000D03*
X94210000Y-93430000D03*
X96070000Y-112220000D03*
X79270000Y-91310000D03*
X83670000Y-90740000D03*
X114240000Y-97970000D03*
X120990000Y-99290000D03*
X118129979Y-104682037D03*
X105700000Y-108790000D03*
X115819246Y-95966478D03*
X121372660Y-98187340D03*
X118454990Y-107787660D03*
X116365821Y-98319597D03*
X119880000Y-108040000D03*
X117790000Y-99070000D03*
X117676781Y-97423477D03*
X112910000Y-107950000D03*
X117680006Y-103239309D03*
X114670000Y-106870000D03*
X117357310Y-93076346D03*
X111420000Y-101660000D03*
X114760000Y-83360000D03*
X109470000Y-90190000D03*
X114644314Y-87875376D03*
X110899998Y-89500000D03*
X118996720Y-90934004D03*
X111918531Y-89519687D03*
X110740000Y-86620000D03*
X116094326Y-87150366D03*
X112270000Y-85950000D03*
X114390023Y-86086252D03*
X107489987Y-91110000D03*
X113960000Y-82590000D03*
X81352352Y-103279988D03*
X80080000Y-106390000D03*
X81583305Y-104730000D03*
X88110000Y-105120000D03*
X80699157Y-90789359D03*
X76630000Y-87388430D03*
X81665427Y-91046939D03*
X78090000Y-84070000D03*
X81992367Y-101735010D03*
X82290000Y-106610000D03*
X82747949Y-90352899D03*
X79420000Y-83410000D03*
X82751349Y-99945011D03*
X77600000Y-103370000D03*
X88950000Y-88410000D03*
X91950000Y-84620000D03*
X75900000Y-105440000D03*
X84070000Y-99620000D03*
X86507640Y-99391315D03*
X79810000Y-95000000D03*
X88310000Y-100270000D03*
X79720000Y-97190000D03*
X86700000Y-88292851D03*
X85570000Y-84880000D03*
X90030000Y-87823588D03*
X93090000Y-85660000D03*
X105730000Y-98259590D03*
X100507660Y-103492340D03*
X106880000Y-103510000D03*
X106170000Y-95120000D03*
X106320000Y-94060000D03*
X93290000Y-92480000D03*
X88037681Y-91659590D03*
X114370000Y-84800000D03*
X119012452Y-89934116D03*
X119800000Y-86750000D03*
X110653699Y-103828709D03*
X103730000Y-86720000D03*
X109940000Y-101840000D03*
X92907313Y-90635010D03*
X86336427Y-90754169D03*
X102200000Y-102099989D03*
X101220000Y-82800000D03*
X101340000Y-80690000D03*
D15*
X120272441Y-94994361D02*
X121122440Y-95844360D01*
X120272441Y-94918473D02*
X120272441Y-94994361D01*
X108330000Y-95330000D02*
X111308656Y-92351344D01*
X117705312Y-92351344D02*
X120272441Y-94918473D01*
X111308656Y-92351344D02*
X117705312Y-92351344D01*
X88750000Y-92460000D02*
X89149999Y-92859999D01*
X89149999Y-92859999D02*
X89149999Y-92900001D01*
X99880000Y-99140000D02*
X97496960Y-99140000D01*
X97496960Y-99140000D02*
X97302380Y-99334580D01*
X102446839Y-105190039D02*
X101180039Y-105190039D01*
X101180039Y-105190039D02*
X98727381Y-102737381D01*
X98727381Y-102737381D02*
X98727381Y-102384581D01*
X103621840Y-106365040D02*
X102446839Y-105190039D01*
X98727381Y-102384581D02*
X97302380Y-100959580D01*
X97302380Y-100959580D02*
X97302380Y-100534580D01*
X98541840Y-106365040D02*
X97302380Y-105125580D01*
X97302380Y-105125580D02*
X97302380Y-100534580D01*
X93390000Y-103230000D02*
X93390000Y-98780000D01*
X93390000Y-98780000D02*
X93030000Y-98420000D01*
X97302380Y-100534580D02*
X97302380Y-99934580D01*
X97302380Y-99934580D02*
X97302380Y-99334580D01*
X97302380Y-99334580D02*
X97302380Y-98734580D01*
X97302380Y-96334580D02*
X97302380Y-96934580D01*
X97302380Y-96934580D02*
X97302380Y-97534580D01*
X97302380Y-98134580D02*
X97302380Y-97534580D01*
X97302380Y-98734580D02*
X97302380Y-98134580D01*
X93030000Y-98420000D02*
X97016960Y-98420000D01*
X97016960Y-98420000D02*
X97302380Y-98134580D01*
X83090000Y-88870019D02*
X84683454Y-90463473D01*
X83090000Y-84410000D02*
X83090000Y-88870019D01*
X98420000Y-109200000D02*
X94310000Y-109200000D01*
X94310000Y-109200000D02*
X88270000Y-103160000D01*
X88860000Y-106220000D02*
X88860000Y-103750000D01*
X88860000Y-103750000D02*
X88270000Y-103160000D01*
X88530000Y-106550000D02*
X88860000Y-106220000D01*
X87040000Y-106550000D02*
X88530000Y-106550000D01*
X86290000Y-107300000D02*
X87040000Y-106550000D01*
X97302380Y-94534580D02*
X97302380Y-93934580D01*
X97302380Y-93934580D02*
X97302380Y-93334580D01*
X97302380Y-92734580D02*
X97302380Y-93334580D01*
X94210000Y-93430000D02*
X97206960Y-93430000D01*
X97206960Y-93430000D02*
X97302380Y-93334580D01*
X96655013Y-112805013D02*
X96070000Y-112220000D01*
X122399041Y-104608881D02*
X122399041Y-110430374D01*
X121224040Y-103433880D02*
X122399041Y-104608881D01*
X120024402Y-112805013D02*
X96655013Y-112805013D01*
X122399041Y-110430374D02*
X120024402Y-112805013D01*
X121122440Y-93304360D02*
X119688071Y-91869991D01*
X104052380Y-90334580D02*
X102552380Y-90334580D01*
X105587791Y-91869991D02*
X104052380Y-90334580D01*
X119688071Y-91869991D02*
X105587791Y-91869991D01*
X102552380Y-92134580D02*
X102552380Y-91534580D01*
X102552380Y-91534580D02*
X102552380Y-90934580D01*
X102552380Y-89134580D02*
X102552380Y-89734580D01*
X102552380Y-89734580D02*
X102552380Y-90334580D01*
X102552380Y-90934580D02*
X102552380Y-90334580D01*
X121224040Y-103433880D02*
X122399041Y-102258879D01*
X122399041Y-102258879D02*
X122399041Y-94580961D01*
X122399041Y-94580961D02*
X121122440Y-93304360D01*
X82220000Y-92290000D02*
X80250000Y-92290000D01*
X80250000Y-92290000D02*
X79270000Y-91310000D01*
X83270001Y-91239999D02*
X82220000Y-92290000D01*
X83670000Y-90740000D02*
X83270001Y-91139999D01*
X83270001Y-91139999D02*
X83270001Y-91239999D01*
X115518520Y-96691480D02*
X114240000Y-97970000D01*
X120990000Y-99290000D02*
X118391480Y-96691480D01*
X118391480Y-96691480D02*
X115518520Y-96691480D01*
X117729980Y-105082036D02*
X118129979Y-104682037D01*
X114022016Y-108790000D02*
X117729980Y-105082036D01*
X105700000Y-108790000D02*
X114022016Y-108790000D01*
X119151798Y-95966478D02*
X115819246Y-95966478D01*
X121372660Y-98187340D02*
X119151798Y-95966478D01*
X118854989Y-107387661D02*
X118454990Y-107787660D01*
X116365821Y-98319597D02*
X116365821Y-98885282D01*
X118854989Y-101374450D02*
X118854989Y-107387661D01*
X116365821Y-98885282D02*
X118854989Y-101374450D01*
X118815685Y-99805685D02*
X119880000Y-100870000D01*
X119880000Y-100870000D02*
X119880000Y-108040000D01*
X118815685Y-99530000D02*
X118815685Y-99805685D01*
X117790000Y-99070000D02*
X118355685Y-99070000D01*
X118355685Y-99070000D02*
X118815685Y-99530000D01*
X115846523Y-97423477D02*
X117676781Y-97423477D01*
X112910000Y-100360000D02*
X115846523Y-97423477D01*
X112910000Y-107950000D02*
X112910000Y-100360000D01*
X117680006Y-103859994D02*
X117680006Y-103804994D01*
X114670000Y-106870000D02*
X117680006Y-103859994D01*
X117680006Y-103804994D02*
X117680006Y-103239309D01*
X116957311Y-93476345D02*
X117357310Y-93076346D01*
X111420000Y-99013656D02*
X116957311Y-93476345D01*
X111420000Y-101660000D02*
X111420000Y-99013656D01*
X112650000Y-83360000D02*
X114760000Y-83360000D01*
X109850000Y-86160000D02*
X112650000Y-83360000D01*
X109850000Y-89244315D02*
X109850000Y-86160000D01*
X109470000Y-90190000D02*
X109470000Y-89624315D01*
X109470000Y-89624315D02*
X109850000Y-89244315D01*
X110899998Y-89500000D02*
X112524622Y-87875376D01*
X112524622Y-87875376D02*
X114644314Y-87875376D01*
X113332848Y-90934004D02*
X118996720Y-90934004D01*
X111918531Y-89519687D02*
X113332848Y-90934004D01*
X110810000Y-87337514D02*
X110810000Y-86690000D01*
X110810000Y-86690000D02*
X110740000Y-86620000D01*
X116094326Y-87150366D02*
X110997148Y-87150366D01*
X110997148Y-87150366D02*
X110810000Y-87337514D01*
X112406252Y-86086252D02*
X112270000Y-85950000D01*
X114390023Y-86086252D02*
X112406252Y-86086252D01*
X107489987Y-85910013D02*
X107489987Y-91110000D01*
X110810000Y-82590000D02*
X107489987Y-85910013D01*
X113960000Y-82590000D02*
X110810000Y-82590000D01*
X80080000Y-106390000D02*
X80080000Y-103986655D01*
X80786667Y-103279988D02*
X81352352Y-103279988D01*
X80080000Y-103986655D02*
X80786667Y-103279988D01*
X88110000Y-105120000D02*
X81973305Y-105120000D01*
X81973305Y-105120000D02*
X81583305Y-104730000D01*
X80030929Y-90789359D02*
X80699157Y-90789359D01*
X76630000Y-87388430D02*
X80030929Y-90789359D01*
X81665427Y-87645427D02*
X81665427Y-91046939D01*
X78090000Y-84070000D02*
X81665427Y-87645427D01*
X81235303Y-104004998D02*
X82244958Y-104004998D01*
X82392366Y-102135009D02*
X81992367Y-101735010D01*
X82392366Y-103857590D02*
X82392366Y-102135009D01*
X80858303Y-105178303D02*
X80858303Y-104381998D01*
X80858303Y-104381998D02*
X81235303Y-104004998D01*
X82244958Y-104004998D02*
X82392366Y-103857590D01*
X82290000Y-106610000D02*
X80858303Y-105178303D01*
X82747949Y-89787214D02*
X82747949Y-90352899D01*
X79420000Y-83410000D02*
X82639989Y-86629989D01*
X82639989Y-86629989D02*
X82639989Y-89679254D01*
X82639989Y-89679254D02*
X82747949Y-89787214D01*
X79326360Y-103370000D02*
X82751349Y-99945011D01*
X77600000Y-103370000D02*
X79326360Y-103370000D01*
X91950000Y-84620000D02*
X88950000Y-87620000D01*
X88950000Y-87620000D02*
X88950000Y-88410000D01*
X78809999Y-99220001D02*
X75900000Y-102130000D01*
X75900000Y-102130000D02*
X75900000Y-105440000D01*
X84070000Y-99620000D02*
X83670001Y-99220001D01*
X83670001Y-99220001D02*
X78809999Y-99220001D01*
X82116325Y-95000000D02*
X86507640Y-99391315D01*
X79810000Y-95000000D02*
X82116325Y-95000000D01*
X85813362Y-100270000D02*
X88310000Y-100270000D01*
X83349413Y-97190000D02*
X85245012Y-99085599D01*
X79720000Y-97190000D02*
X83349413Y-97190000D01*
X85245012Y-99701648D02*
X85813362Y-100270000D01*
X85245012Y-99085599D02*
X85245012Y-99701648D01*
X86700000Y-86010000D02*
X86700000Y-88292851D01*
X85570000Y-84880000D02*
X86700000Y-86010000D01*
X90926412Y-87823588D02*
X90030000Y-87823588D01*
X93090000Y-85660000D02*
X90926412Y-87823588D01*
X108194580Y-97534580D02*
X102552380Y-97534580D01*
X84795001Y-99271999D02*
X84795001Y-99888050D01*
X108890000Y-98230000D02*
X108194580Y-97534580D01*
X83694002Y-98171000D02*
X84795001Y-99271999D01*
X108890000Y-102835882D02*
X108890000Y-98230000D01*
X89060000Y-101680000D02*
X95080000Y-107700000D01*
X104025882Y-107700000D02*
X108890000Y-102835882D01*
X95080000Y-107700000D02*
X104025882Y-107700000D01*
X84795001Y-99888050D02*
X86586951Y-101680000D01*
X86586951Y-101680000D02*
X89060000Y-101680000D01*
X77033120Y-98171000D02*
X83694002Y-98171000D01*
X105604990Y-98134580D02*
X105730000Y-98259590D01*
X102552380Y-98134580D02*
X105604990Y-98134580D01*
X101052380Y-99934580D02*
X100507660Y-100479300D01*
X100507660Y-100479300D02*
X100507660Y-103492340D01*
X102552380Y-99934580D02*
X101052380Y-99934580D01*
X106880000Y-103510000D02*
X107279999Y-103110001D01*
X107279999Y-103110001D02*
X107279999Y-101962199D01*
X107279999Y-101962199D02*
X104052380Y-98734580D01*
X104052380Y-98734580D02*
X102552380Y-98734580D01*
X106170000Y-95120000D02*
X104384580Y-93334580D01*
X104384580Y-93334580D02*
X102552380Y-93334580D01*
X102552380Y-92734580D02*
X104994580Y-92734580D01*
X104994580Y-92734580D02*
X106320000Y-94060000D01*
X93290000Y-92480000D02*
X94235420Y-91534580D01*
X94235420Y-91534580D02*
X97302380Y-91534580D01*
X97302380Y-91534580D02*
X88162691Y-91534580D01*
X88162691Y-91534580D02*
X88037681Y-91659590D01*
X116030000Y-82050000D02*
X116030000Y-83140000D01*
X116030000Y-83140000D02*
X114370000Y-84800000D01*
X115170000Y-81190000D02*
X116030000Y-82050000D01*
X109180000Y-81190000D02*
X115170000Y-81190000D01*
X105550000Y-84820000D02*
X109180000Y-81190000D01*
X105550000Y-87280000D02*
X105550000Y-84820000D01*
X105090000Y-87740000D02*
X105550000Y-87280000D01*
X99771960Y-87740000D02*
X105090000Y-87740000D01*
X97302380Y-89134580D02*
X98377380Y-89134580D01*
X98377380Y-89134580D02*
X99771960Y-87740000D01*
X85408455Y-90809066D02*
X85408455Y-90604803D01*
X95802380Y-90334580D02*
X97302380Y-90334580D01*
X77033120Y-93091000D02*
X83126521Y-93091000D01*
X85408455Y-90604803D02*
X86103258Y-89910000D01*
X86103258Y-89910000D02*
X95377800Y-89910000D01*
X95377800Y-89910000D02*
X95802380Y-90334580D01*
X83126521Y-93091000D02*
X85408455Y-90809066D01*
X119012452Y-87537548D02*
X119012452Y-89934116D01*
X119800000Y-86750000D02*
X119012452Y-87537548D01*
X109940000Y-103115010D02*
X110653699Y-103828709D01*
X109940000Y-101840000D02*
X109940000Y-103115010D01*
X103730000Y-86720000D02*
X102869579Y-85859579D01*
X102869579Y-85859579D02*
X97632379Y-85859579D01*
X97632379Y-85859579D02*
X95727379Y-87764579D01*
X95727379Y-87764579D02*
X95727379Y-89569581D01*
X95727379Y-89569581D02*
X95892378Y-89734580D01*
X95892378Y-89734580D02*
X97302380Y-89734580D01*
X86336427Y-90754169D02*
X92788154Y-90754169D01*
X92788154Y-90754169D02*
X92907313Y-90635010D01*
X93206883Y-90934580D02*
X92907313Y-90635010D01*
X97302380Y-90934580D02*
X93206883Y-90934580D01*
X102552380Y-100534580D02*
X102552380Y-101747609D01*
X102552380Y-101747609D02*
X102200000Y-102099989D01*
X101340000Y-80690000D02*
X101340000Y-82680000D01*
X101340000Y-82680000D02*
X101220000Y-82800000D01*
D16*
G36*
X125285318Y-77487853D02*
X128163220Y-80956095D01*
X128258120Y-100627463D01*
X128258120Y-109732140D01*
X128238545Y-109930780D01*
X124713969Y-113080810D01*
X124322265Y-113080810D01*
X120840818Y-113063399D01*
X122936442Y-110967775D01*
X122973612Y-110912146D01*
X123008553Y-110977541D01*
X123051388Y-111029752D01*
X123083227Y-111089313D01*
X123282227Y-111331773D01*
X123334400Y-111374586D01*
X123377219Y-111426750D01*
X123619719Y-111625720D01*
X123679178Y-111657493D01*
X123731289Y-111700263D01*
X124007889Y-111848123D01*
X124072477Y-111867718D01*
X124132004Y-111899533D01*
X124432204Y-111990583D01*
X124499320Y-111997190D01*
X124563855Y-112016769D01*
X124875955Y-112047519D01*
X124943120Y-112040906D01*
X125010285Y-112047519D01*
X125322385Y-112016769D01*
X125386920Y-111997190D01*
X125454036Y-111990583D01*
X125754236Y-111899533D01*
X125813763Y-111867718D01*
X125878351Y-111848123D01*
X126154951Y-111700263D01*
X126207062Y-111657493D01*
X126266521Y-111625720D01*
X126509021Y-111426750D01*
X126551893Y-111374522D01*
X126604120Y-111331643D01*
X126803020Y-111089183D01*
X126834760Y-111029773D01*
X126877497Y-110977711D01*
X127025397Y-110701090D01*
X127045017Y-110636441D01*
X127076854Y-110576856D01*
X127167854Y-110276706D01*
X127174446Y-110209676D01*
X127194010Y-110145223D01*
X127224810Y-109833073D01*
X127218197Y-109765805D01*
X127224809Y-109698543D01*
X127194009Y-109386413D01*
X127174447Y-109321967D01*
X127167856Y-109254940D01*
X127076856Y-108954780D01*
X127045015Y-108895187D01*
X127025392Y-108830530D01*
X126877492Y-108553920D01*
X126834758Y-108501863D01*
X126803020Y-108442457D01*
X126604120Y-108199997D01*
X126551901Y-108157124D01*
X126509035Y-108104901D01*
X126266534Y-107905921D01*
X126207069Y-107874143D01*
X126154951Y-107831367D01*
X125878351Y-107683507D01*
X125813753Y-107663909D01*
X125754216Y-107632091D01*
X125454016Y-107541051D01*
X125386910Y-107534447D01*
X125322385Y-107514871D01*
X125010285Y-107484121D01*
X124943120Y-107490734D01*
X124875955Y-107484121D01*
X124563855Y-107514871D01*
X124499330Y-107534447D01*
X124432224Y-107541051D01*
X124132024Y-107632091D01*
X124072487Y-107663909D01*
X124007889Y-107683507D01*
X123731289Y-107831367D01*
X123679171Y-107874143D01*
X123619706Y-107905921D01*
X123377206Y-108104901D01*
X123334394Y-108157059D01*
X123282227Y-108199867D01*
X123159041Y-108349956D01*
X123159041Y-104608881D01*
X123118451Y-104404821D01*
X123101189Y-104318041D01*
X122936442Y-104071480D01*
X122665250Y-103800288D01*
X122738133Y-103433880D01*
X122665250Y-103067472D01*
X122936442Y-102796280D01*
X123101189Y-102549719D01*
X123159041Y-102258879D01*
X123159041Y-94580961D01*
X123101189Y-94290122D01*
X123101189Y-94290121D01*
X122936442Y-94043560D01*
X122563650Y-93670768D01*
X122636533Y-93304360D01*
X122523494Y-92736075D01*
X122201587Y-92254306D01*
X122157663Y-92224957D01*
X122220205Y-92212517D01*
X122430249Y-92072169D01*
X122570597Y-91862125D01*
X122619880Y-91614360D01*
X122619880Y-89914360D01*
X122570597Y-89666595D01*
X122430249Y-89456551D01*
X122220205Y-89316203D01*
X121972440Y-89266920D01*
X120272440Y-89266920D01*
X120024675Y-89316203D01*
X119908956Y-89393525D01*
X119890394Y-89348601D01*
X119772452Y-89230453D01*
X119772452Y-87852350D01*
X119839767Y-87785035D01*
X120004971Y-87785179D01*
X120385515Y-87627942D01*
X120676919Y-87337046D01*
X120834820Y-86956777D01*
X120835179Y-86545029D01*
X120677942Y-86164485D01*
X120387046Y-85873081D01*
X120006777Y-85715180D01*
X119595029Y-85714821D01*
X119214485Y-85872058D01*
X118923081Y-86162954D01*
X118765180Y-86543223D01*
X118765034Y-86710164D01*
X118475051Y-87000147D01*
X118310304Y-87246709D01*
X118252452Y-87537548D01*
X118252452Y-89230355D01*
X118135533Y-89347070D01*
X117977632Y-89727339D01*
X117977273Y-90139087D01*
X117991700Y-90174004D01*
X113647650Y-90174004D01*
X112953566Y-89479920D01*
X112953710Y-89314716D01*
X112796473Y-88934172D01*
X112668662Y-88806138D01*
X112839424Y-88635376D01*
X113940553Y-88635376D01*
X114057268Y-88752295D01*
X114437537Y-88910196D01*
X114849285Y-88910555D01*
X115229829Y-88753318D01*
X115521233Y-88462422D01*
X115673293Y-88096219D01*
X115887549Y-88185186D01*
X116299297Y-88185545D01*
X116679841Y-88028308D01*
X116971245Y-87737412D01*
X117129146Y-87357143D01*
X117129505Y-86945395D01*
X116972268Y-86564851D01*
X116681372Y-86273447D01*
X116301103Y-86115546D01*
X115889355Y-86115187D01*
X115508811Y-86272424D01*
X115390663Y-86390366D01*
X115384425Y-86390366D01*
X115424843Y-86293029D01*
X115425202Y-85881281D01*
X115267965Y-85500737D01*
X115200615Y-85433269D01*
X115246919Y-85387046D01*
X115404820Y-85006777D01*
X115404966Y-84839836D01*
X116567401Y-83677401D01*
X116732148Y-83430839D01*
X116790000Y-83140000D01*
X116790000Y-82050000D01*
X116732148Y-81759161D01*
X116567401Y-81512599D01*
X115753555Y-80698753D01*
X122661410Y-80698753D01*
X122668023Y-80765810D01*
X122661410Y-80832867D01*
X122692110Y-81144967D01*
X122711709Y-81209606D01*
X122718337Y-81276826D01*
X122809437Y-81577025D01*
X122841209Y-81636450D01*
X122860762Y-81700939D01*
X123008562Y-81977539D01*
X123051376Y-82029722D01*
X123083192Y-82089250D01*
X123282192Y-82331750D01*
X123334362Y-82374568D01*
X123377180Y-82426738D01*
X123619679Y-82625738D01*
X123679209Y-82657555D01*
X123731391Y-82700368D01*
X124007991Y-82848168D01*
X124072478Y-82867721D01*
X124131904Y-82899493D01*
X124432104Y-82990593D01*
X124499324Y-82997221D01*
X124563963Y-83016820D01*
X124876063Y-83047520D01*
X124943120Y-83040907D01*
X125010177Y-83047520D01*
X125322277Y-83016820D01*
X125386916Y-82997221D01*
X125454136Y-82990593D01*
X125754335Y-82899493D01*
X125813760Y-82867721D01*
X125878249Y-82848168D01*
X126154849Y-82700368D01*
X126207032Y-82657554D01*
X126266560Y-82625738D01*
X126509060Y-82426738D01*
X126551930Y-82374504D01*
X126604155Y-82331620D01*
X126803055Y-82089120D01*
X126834773Y-82029740D01*
X126877487Y-81977709D01*
X127025387Y-81701109D01*
X127045016Y-81636435D01*
X127076863Y-81576826D01*
X127167863Y-81276626D01*
X127174450Y-81209616D01*
X127194009Y-81145183D01*
X127224809Y-80833083D01*
X127218196Y-80765810D01*
X127224809Y-80698537D01*
X127194009Y-80386437D01*
X127174450Y-80322004D01*
X127167863Y-80254994D01*
X127076863Y-79954794D01*
X127045016Y-79895185D01*
X127025387Y-79830511D01*
X126877487Y-79553911D01*
X126834773Y-79501880D01*
X126803055Y-79442500D01*
X126604155Y-79200000D01*
X126551867Y-79157064D01*
X126508930Y-79104775D01*
X126266430Y-78905875D01*
X126207050Y-78874157D01*
X126155019Y-78831443D01*
X125878419Y-78683543D01*
X125813744Y-78663913D01*
X125754135Y-78632067D01*
X125453936Y-78541067D01*
X125386926Y-78534480D01*
X125322493Y-78514921D01*
X125010393Y-78484121D01*
X124943120Y-78490734D01*
X124875847Y-78484121D01*
X124563747Y-78514921D01*
X124499314Y-78534480D01*
X124432304Y-78541067D01*
X124132104Y-78632067D01*
X124072495Y-78663914D01*
X124007821Y-78683543D01*
X123731221Y-78831443D01*
X123679190Y-78874157D01*
X123619810Y-78905875D01*
X123377310Y-79104775D01*
X123334426Y-79157000D01*
X123282192Y-79199870D01*
X123083192Y-79442370D01*
X123051376Y-79501898D01*
X123008562Y-79554081D01*
X122860762Y-79830681D01*
X122841209Y-79895170D01*
X122809437Y-79954595D01*
X122718337Y-80254794D01*
X122711709Y-80322014D01*
X122692110Y-80386653D01*
X122661410Y-80698753D01*
X115753555Y-80698753D01*
X115707401Y-80652599D01*
X115460839Y-80487852D01*
X115170000Y-80430000D01*
X109180000Y-80430000D01*
X108889160Y-80487852D01*
X108642599Y-80652599D01*
X105012599Y-84282599D01*
X104847852Y-84529161D01*
X104790000Y-84820000D01*
X104790000Y-86965198D01*
X104775198Y-86980000D01*
X104742720Y-86980000D01*
X104764820Y-86926777D01*
X104765179Y-86515029D01*
X104607942Y-86134485D01*
X104317046Y-85843081D01*
X103936777Y-85685180D01*
X103769836Y-85685034D01*
X103406980Y-85322178D01*
X103160418Y-85157431D01*
X102869579Y-85099579D01*
X97632379Y-85099579D01*
X97341540Y-85157431D01*
X97094978Y-85322178D01*
X95189978Y-87227178D01*
X95025231Y-87473740D01*
X94967379Y-87764579D01*
X94967379Y-89150000D01*
X89673698Y-89150000D01*
X89826919Y-88997046D01*
X89884464Y-88858461D01*
X90234971Y-88858767D01*
X90615515Y-88701530D01*
X90733663Y-88583588D01*
X90926412Y-88583588D01*
X91217251Y-88525736D01*
X91463813Y-88360989D01*
X93129768Y-86695035D01*
X93294971Y-86695179D01*
X93675515Y-86537942D01*
X93966919Y-86247046D01*
X94124820Y-85866777D01*
X94125179Y-85455029D01*
X93967942Y-85074485D01*
X93677046Y-84783081D01*
X93296777Y-84625180D01*
X92984996Y-84624908D01*
X92985179Y-84415029D01*
X92827942Y-84034485D01*
X92537046Y-83743081D01*
X92156777Y-83585180D01*
X91745029Y-83584821D01*
X91364485Y-83742058D01*
X91073081Y-84032954D01*
X90915180Y-84413223D01*
X90915034Y-84580164D01*
X88412599Y-87082599D01*
X88247852Y-87329161D01*
X88190000Y-87620000D01*
X88190000Y-87706239D01*
X88073081Y-87822954D01*
X87915180Y-88203223D01*
X87914821Y-88614971D01*
X88072058Y-88995515D01*
X88226274Y-89150000D01*
X87306344Y-89150000D01*
X87576919Y-88879897D01*
X87734820Y-88499628D01*
X87735179Y-88087880D01*
X87577942Y-87707336D01*
X87460000Y-87589188D01*
X87460000Y-86010000D01*
X87443657Y-85927841D01*
X87402148Y-85719160D01*
X87237401Y-85472599D01*
X86605035Y-84840233D01*
X86605179Y-84675029D01*
X86447942Y-84294485D01*
X86157046Y-84003081D01*
X85776777Y-83845180D01*
X85365029Y-83844821D01*
X84984485Y-84002058D01*
X84693081Y-84292954D01*
X84535180Y-84673223D01*
X84534821Y-85084971D01*
X84692058Y-85465515D01*
X84982954Y-85756919D01*
X85363223Y-85914820D01*
X85530164Y-85914966D01*
X85940000Y-86324802D01*
X85940000Y-87589090D01*
X85823081Y-87705805D01*
X85665180Y-88086074D01*
X85664821Y-88497822D01*
X85822058Y-88878366D01*
X86094882Y-89151666D01*
X85812419Y-89207852D01*
X85565857Y-89372599D01*
X85311165Y-89627291D01*
X85270500Y-89586554D01*
X84890231Y-89428653D01*
X84723290Y-89428507D01*
X83850000Y-88555217D01*
X83850000Y-85113761D01*
X83966919Y-84997046D01*
X84124820Y-84616777D01*
X84125179Y-84205029D01*
X83967942Y-83824485D01*
X83677046Y-83533081D01*
X83296777Y-83375180D01*
X82885029Y-83374821D01*
X82504485Y-83532058D01*
X82213081Y-83822954D01*
X82055180Y-84203223D01*
X82054821Y-84614971D01*
X82212058Y-84995515D01*
X82330000Y-85113663D01*
X82330000Y-85245198D01*
X80455035Y-83370233D01*
X80455179Y-83205029D01*
X80372518Y-83004971D01*
X100184821Y-83004971D01*
X100342058Y-83385515D01*
X100632954Y-83676919D01*
X101013223Y-83834820D01*
X101424971Y-83835179D01*
X101805515Y-83677942D01*
X102096919Y-83387046D01*
X102254820Y-83006777D01*
X102255179Y-82595029D01*
X102100000Y-82219466D01*
X102100000Y-81393761D01*
X102216919Y-81277046D01*
X102374820Y-80896777D01*
X102375179Y-80485029D01*
X102217942Y-80104485D01*
X101927046Y-79813081D01*
X101546777Y-79655180D01*
X101135029Y-79654821D01*
X100754485Y-79812058D01*
X100463081Y-80102954D01*
X100305180Y-80483223D01*
X100304821Y-80894971D01*
X100462058Y-81275515D01*
X100580000Y-81393663D01*
X100580000Y-81976448D01*
X100343081Y-82212954D01*
X100185180Y-82593223D01*
X100184821Y-83004971D01*
X80372518Y-83004971D01*
X80297942Y-82824485D01*
X80007046Y-82533081D01*
X79626777Y-82375180D01*
X79215029Y-82374821D01*
X78834485Y-82532058D01*
X78543081Y-82822954D01*
X78431695Y-83091203D01*
X78296777Y-83035180D01*
X77885029Y-83034821D01*
X77504485Y-83192058D01*
X77213081Y-83482954D01*
X77055180Y-83863223D01*
X77054821Y-84274971D01*
X77212058Y-84655515D01*
X77502954Y-84946919D01*
X77883223Y-85104820D01*
X78050164Y-85104966D01*
X80905427Y-87960229D01*
X80905427Y-89754539D01*
X80494186Y-89754180D01*
X80194415Y-89878043D01*
X77665035Y-87348663D01*
X77665179Y-87183459D01*
X77507942Y-86802915D01*
X77217046Y-86511511D01*
X76836777Y-86353610D01*
X76425029Y-86353251D01*
X76044485Y-86510488D01*
X75753081Y-86801384D01*
X75595180Y-87181653D01*
X75594821Y-87593401D01*
X75752058Y-87973945D01*
X76042954Y-88265349D01*
X76423223Y-88423250D01*
X76590164Y-88423396D01*
X78641618Y-90474850D01*
X78393081Y-90722954D01*
X78235180Y-91103223D01*
X78234821Y-91514971D01*
X78392058Y-91895515D01*
X78682954Y-92186919D01*
X79029941Y-92331000D01*
X78306074Y-92331000D01*
X78112267Y-92040946D01*
X77630498Y-91719039D01*
X77062213Y-91606000D01*
X77004027Y-91606000D01*
X76435742Y-91719039D01*
X75953973Y-92040946D01*
X75632066Y-92522715D01*
X75519027Y-93091000D01*
X75632066Y-93659285D01*
X75953973Y-94141054D01*
X76294673Y-94368702D01*
X76151762Y-94435817D01*
X75761475Y-94864076D01*
X75591644Y-95274110D01*
X75712965Y-95504000D01*
X76906120Y-95504000D01*
X76906120Y-95484000D01*
X77160120Y-95484000D01*
X77160120Y-95504000D01*
X78353275Y-95504000D01*
X78474596Y-95274110D01*
X78304765Y-94864076D01*
X77914478Y-94435817D01*
X77771567Y-94368702D01*
X78112267Y-94141054D01*
X78306074Y-93851000D01*
X83126521Y-93851000D01*
X83417360Y-93793148D01*
X83663922Y-93628401D01*
X85705346Y-91586977D01*
X85749381Y-91631088D01*
X86129650Y-91788989D01*
X86541398Y-91789348D01*
X86921942Y-91632111D01*
X87002775Y-91551419D01*
X87002502Y-91864561D01*
X87159739Y-92245105D01*
X87450635Y-92536509D01*
X87830904Y-92694410D01*
X88242652Y-92694769D01*
X88623196Y-92537532D01*
X88866572Y-92294580D01*
X92255161Y-92294580D01*
X92254821Y-92684971D01*
X92412058Y-93065515D01*
X92702954Y-93356919D01*
X93083223Y-93514820D01*
X93174926Y-93514900D01*
X93174821Y-93634971D01*
X93332058Y-94015515D01*
X93622954Y-94306919D01*
X94003223Y-94464820D01*
X94414971Y-94465179D01*
X94795515Y-94307942D01*
X94913663Y-94190000D01*
X95420936Y-94190000D01*
X95429804Y-94234580D01*
X95404940Y-94359580D01*
X95404940Y-94709580D01*
X95429804Y-94834580D01*
X95404940Y-94959580D01*
X95404940Y-95309580D01*
X95429804Y-95434580D01*
X95404940Y-95559580D01*
X95404940Y-95909580D01*
X95425597Y-96013433D01*
X95417380Y-96033271D01*
X95417380Y-96088330D01*
X95446235Y-96117185D01*
X95454223Y-96157345D01*
X95575335Y-96338600D01*
X95514053Y-96399882D01*
X95454461Y-96543749D01*
X95417380Y-96580830D01*
X95417380Y-96688330D01*
X95454461Y-96725411D01*
X95514053Y-96869278D01*
X95579355Y-96934580D01*
X95514053Y-96999882D01*
X95454461Y-97143749D01*
X95417380Y-97180830D01*
X95417380Y-97288330D01*
X95454461Y-97325411D01*
X95514053Y-97469278D01*
X95579355Y-97534580D01*
X95514053Y-97599882D01*
X95454461Y-97743749D01*
X95417380Y-97780830D01*
X95417380Y-97888330D01*
X95454461Y-97925411D01*
X95514053Y-98069278D01*
X95579355Y-98134580D01*
X95514053Y-98199882D01*
X95454461Y-98343749D01*
X95417380Y-98380830D01*
X95417380Y-98488330D01*
X95454461Y-98525411D01*
X95514053Y-98669278D01*
X95579355Y-98734580D01*
X95514053Y-98799882D01*
X95454461Y-98943749D01*
X95417380Y-98980830D01*
X95417380Y-99088330D01*
X95454461Y-99125411D01*
X95514053Y-99269278D01*
X95579355Y-99334580D01*
X95514053Y-99399882D01*
X95454461Y-99543749D01*
X95417380Y-99580830D01*
X95417380Y-99688330D01*
X95454461Y-99725411D01*
X95514053Y-99869278D01*
X95579355Y-99934580D01*
X95514053Y-99999882D01*
X95454461Y-100143749D01*
X95417380Y-100180830D01*
X95417380Y-100288330D01*
X95454461Y-100325411D01*
X95514053Y-100469278D01*
X95666854Y-100622080D01*
X95576130Y-100622080D01*
X95417380Y-100780830D01*
X95417380Y-100835889D01*
X95514053Y-101069278D01*
X95692681Y-101247907D01*
X95926070Y-101344580D01*
X97016630Y-101344580D01*
X97175380Y-101185830D01*
X97175380Y-100622080D01*
X97139130Y-100622080D01*
X97175380Y-100585830D01*
X97175380Y-96787580D01*
X97429380Y-96787580D01*
X97429380Y-100585830D01*
X97465630Y-100622080D01*
X97429380Y-100622080D01*
X97429380Y-101185830D01*
X97588130Y-101344580D01*
X98678690Y-101344580D01*
X98912079Y-101247907D01*
X99090707Y-101069278D01*
X99187380Y-100835889D01*
X99187380Y-100780830D01*
X99028630Y-100622080D01*
X98937906Y-100622080D01*
X99090707Y-100469278D01*
X99150299Y-100325411D01*
X99187380Y-100288330D01*
X99187380Y-100180830D01*
X99150299Y-100143749D01*
X99090707Y-99999882D01*
X99025405Y-99934580D01*
X99090707Y-99869278D01*
X99150299Y-99725411D01*
X99187380Y-99688330D01*
X99187380Y-99580830D01*
X99150299Y-99543749D01*
X99090707Y-99399882D01*
X99025405Y-99334580D01*
X99090707Y-99269278D01*
X99150299Y-99125411D01*
X99187380Y-99088330D01*
X99187380Y-98980830D01*
X99150299Y-98943749D01*
X99090707Y-98799882D01*
X99025405Y-98734580D01*
X99090707Y-98669278D01*
X99150299Y-98525411D01*
X99187380Y-98488330D01*
X99187380Y-98380830D01*
X99150299Y-98343749D01*
X99090707Y-98199882D01*
X99025405Y-98134580D01*
X99090707Y-98069278D01*
X99150299Y-97925411D01*
X99187380Y-97888330D01*
X99187380Y-97780830D01*
X99150299Y-97743749D01*
X99090707Y-97599882D01*
X99025405Y-97534580D01*
X99090707Y-97469278D01*
X99150299Y-97325411D01*
X99187380Y-97288330D01*
X99187380Y-97180830D01*
X99150299Y-97143749D01*
X99090707Y-96999882D01*
X99025405Y-96934580D01*
X99090707Y-96869278D01*
X99150299Y-96725411D01*
X99187380Y-96688330D01*
X99187380Y-96580830D01*
X99150299Y-96543749D01*
X99090707Y-96399882D01*
X99029425Y-96338600D01*
X99150537Y-96157345D01*
X99158525Y-96117185D01*
X99187380Y-96088330D01*
X99187380Y-96033271D01*
X99179163Y-96013433D01*
X99199820Y-95909580D01*
X99199820Y-95559580D01*
X99174956Y-95434580D01*
X99199820Y-95309580D01*
X99199820Y-94959580D01*
X99174956Y-94834580D01*
X99199820Y-94709580D01*
X99199820Y-94359580D01*
X99174956Y-94234580D01*
X99199820Y-94109580D01*
X99199820Y-93759580D01*
X99174956Y-93634580D01*
X99199820Y-93509580D01*
X99199820Y-93159580D01*
X99174956Y-93034580D01*
X99199820Y-92909580D01*
X99199820Y-92559580D01*
X99174956Y-92434580D01*
X99199820Y-92309580D01*
X99199820Y-91959580D01*
X99174956Y-91834580D01*
X99199820Y-91709580D01*
X99199820Y-91359580D01*
X99174956Y-91234580D01*
X99199820Y-91109580D01*
X99199820Y-90759580D01*
X99174956Y-90634580D01*
X99199820Y-90509580D01*
X99199820Y-90159580D01*
X99174956Y-90034580D01*
X99199820Y-89909580D01*
X99199820Y-89559580D01*
X99174956Y-89434580D01*
X99180611Y-89406151D01*
X100086762Y-88500000D01*
X100847221Y-88500000D01*
X100844571Y-88501771D01*
X100704223Y-88711815D01*
X100654940Y-88959580D01*
X100654940Y-89309580D01*
X100679804Y-89434580D01*
X100654940Y-89559580D01*
X100654940Y-89909580D01*
X100679804Y-90034580D01*
X100654940Y-90159580D01*
X100654940Y-90509580D01*
X100679804Y-90634580D01*
X100654940Y-90759580D01*
X100654940Y-91109580D01*
X100679804Y-91234580D01*
X100654940Y-91359580D01*
X100654940Y-91709580D01*
X100679804Y-91834580D01*
X100654940Y-91959580D01*
X100654940Y-92309580D01*
X100679804Y-92434580D01*
X100654940Y-92559580D01*
X100654940Y-92909580D01*
X100679804Y-93034580D01*
X100654940Y-93159580D01*
X100654940Y-93509580D01*
X100679804Y-93634580D01*
X100654940Y-93759580D01*
X100654940Y-94109580D01*
X100679804Y-94234580D01*
X100654940Y-94359580D01*
X100654940Y-94709580D01*
X100679804Y-94834580D01*
X100654940Y-94959580D01*
X100654940Y-95309580D01*
X100679804Y-95434580D01*
X100654940Y-95559580D01*
X100654940Y-95909580D01*
X100679804Y-96034580D01*
X100654940Y-96159580D01*
X100654940Y-96509580D01*
X100679804Y-96634580D01*
X100654940Y-96759580D01*
X100654940Y-97109580D01*
X100679804Y-97234580D01*
X100654940Y-97359580D01*
X100654940Y-97709580D01*
X100679804Y-97834580D01*
X100654940Y-97959580D01*
X100654940Y-98309580D01*
X100679804Y-98434580D01*
X100654940Y-98559580D01*
X100654940Y-98909580D01*
X100679804Y-99034580D01*
X100654940Y-99159580D01*
X100654940Y-99303660D01*
X100514979Y-99397179D01*
X99970259Y-99941899D01*
X99805512Y-100188461D01*
X99747660Y-100479300D01*
X99747660Y-102788579D01*
X99630741Y-102905294D01*
X99472840Y-103285563D01*
X99472481Y-103697311D01*
X99629718Y-104077855D01*
X99920614Y-104369259D01*
X100300883Y-104527160D01*
X100712631Y-104527519D01*
X101093175Y-104370282D01*
X101384579Y-104079386D01*
X101542480Y-103699117D01*
X101542839Y-103287369D01*
X101385602Y-102906825D01*
X101267660Y-102788677D01*
X101267660Y-102553850D01*
X101322058Y-102685504D01*
X101612954Y-102976908D01*
X101993223Y-103134809D01*
X102404971Y-103135168D01*
X102785515Y-102977931D01*
X103076919Y-102687035D01*
X103234820Y-102306766D01*
X103235028Y-102067631D01*
X103254528Y-102038448D01*
X103312380Y-101747609D01*
X103312380Y-101357020D01*
X103802380Y-101357020D01*
X104050145Y-101307737D01*
X104260189Y-101167389D01*
X104400537Y-100957345D01*
X104449820Y-100709580D01*
X104449820Y-100359580D01*
X104424956Y-100234580D01*
X104433687Y-100190689D01*
X106519999Y-102277001D01*
X106519999Y-102538878D01*
X106294485Y-102632058D01*
X106003081Y-102922954D01*
X105845180Y-103303223D01*
X105844821Y-103714971D01*
X106002058Y-104095515D01*
X106278570Y-104372510D01*
X104928987Y-105722093D01*
X104817023Y-105483682D01*
X104388764Y-105093395D01*
X103978730Y-104923564D01*
X103748840Y-105044885D01*
X103748840Y-106238040D01*
X103768840Y-106238040D01*
X103768840Y-106492040D01*
X103748840Y-106492040D01*
X103748840Y-106512040D01*
X103494840Y-106512040D01*
X103494840Y-106492040D01*
X103474840Y-106492040D01*
X103474840Y-106238040D01*
X103494840Y-106238040D01*
X103494840Y-105044885D01*
X103264950Y-104923564D01*
X102854916Y-105093395D01*
X102426657Y-105483682D01*
X102359542Y-105626593D01*
X102131894Y-105285893D01*
X101650125Y-104963986D01*
X101081840Y-104850947D01*
X100513555Y-104963986D01*
X100031786Y-105285893D01*
X99804138Y-105626593D01*
X99737023Y-105483682D01*
X99308764Y-105093395D01*
X98898730Y-104923564D01*
X98668840Y-105044885D01*
X98668840Y-106238040D01*
X98688840Y-106238040D01*
X98688840Y-106492040D01*
X98668840Y-106492040D01*
X98668840Y-106512040D01*
X98414840Y-106512040D01*
X98414840Y-106492040D01*
X98394840Y-106492040D01*
X98394840Y-106238040D01*
X98414840Y-106238040D01*
X98414840Y-105044885D01*
X98184950Y-104923564D01*
X97774916Y-105093395D01*
X97470579Y-105370748D01*
X97449997Y-105267275D01*
X97309649Y-105057231D01*
X97099605Y-104916883D01*
X96851840Y-104867600D01*
X95151840Y-104867600D01*
X94904075Y-104916883D01*
X94694031Y-105057231D01*
X94553683Y-105267275D01*
X94504400Y-105515040D01*
X94504400Y-106049598D01*
X91534451Y-103079649D01*
X97067210Y-103079649D01*
X97216851Y-103441809D01*
X97493694Y-103719135D01*
X97855592Y-103869408D01*
X98247449Y-103869750D01*
X98609609Y-103720109D01*
X98886935Y-103443266D01*
X99037208Y-103081368D01*
X99037550Y-102689511D01*
X98887909Y-102327351D01*
X98611066Y-102050025D01*
X98249168Y-101899752D01*
X97857311Y-101899410D01*
X97495151Y-102049051D01*
X97217825Y-102325894D01*
X97067552Y-102687792D01*
X97067210Y-103079649D01*
X91534451Y-103079649D01*
X89597401Y-101142599D01*
X89350839Y-100977852D01*
X89113245Y-100930591D01*
X89186919Y-100857046D01*
X89344820Y-100476777D01*
X89345179Y-100065029D01*
X89187942Y-99684485D01*
X88897046Y-99393081D01*
X88516777Y-99235180D01*
X88105029Y-99234821D01*
X87724485Y-99392058D01*
X87606337Y-99510000D01*
X87542537Y-99510000D01*
X87542819Y-99186344D01*
X87385582Y-98805800D01*
X87094686Y-98514396D01*
X86714417Y-98356495D01*
X86547476Y-98356349D01*
X82653726Y-94462599D01*
X82407164Y-94297852D01*
X82116325Y-94240000D01*
X80513761Y-94240000D01*
X80397046Y-94123081D01*
X80016777Y-93965180D01*
X79605029Y-93964821D01*
X79224485Y-94122058D01*
X78933081Y-94412954D01*
X78775180Y-94793223D01*
X78774821Y-95204971D01*
X78932058Y-95585515D01*
X79222954Y-95876919D01*
X79603223Y-96034820D01*
X80014971Y-96035179D01*
X80395515Y-95877942D01*
X80513663Y-95760000D01*
X81801523Y-95760000D01*
X82471523Y-96430000D01*
X80423761Y-96430000D01*
X80307046Y-96313081D01*
X79926777Y-96155180D01*
X79515029Y-96154821D01*
X79134485Y-96312058D01*
X78843081Y-96602954D01*
X78685180Y-96983223D01*
X78684821Y-97394971D01*
X78691444Y-97411000D01*
X78530560Y-97411000D01*
X78530560Y-97321000D01*
X78481277Y-97073235D01*
X78340929Y-96863191D01*
X78130885Y-96722843D01*
X78027412Y-96702261D01*
X78304765Y-96397924D01*
X78474596Y-95987890D01*
X78353275Y-95758000D01*
X77160120Y-95758000D01*
X77160120Y-95778000D01*
X76906120Y-95778000D01*
X76906120Y-95758000D01*
X75712965Y-95758000D01*
X75591644Y-95987890D01*
X75761475Y-96397924D01*
X76038828Y-96702261D01*
X75935355Y-96722843D01*
X75725311Y-96863191D01*
X75584963Y-97073235D01*
X75535680Y-97321000D01*
X75535680Y-99021000D01*
X75584963Y-99268765D01*
X75725311Y-99478809D01*
X75935355Y-99619157D01*
X76183120Y-99668440D01*
X77286758Y-99668440D01*
X75362599Y-101592599D01*
X75197852Y-101839161D01*
X75140000Y-102130000D01*
X75140000Y-104736239D01*
X75023081Y-104852954D01*
X74865180Y-105233223D01*
X74864821Y-105644971D01*
X75022058Y-106025515D01*
X75312954Y-106316919D01*
X75693223Y-106474820D01*
X76104971Y-106475179D01*
X76485515Y-106317942D01*
X76776919Y-106027046D01*
X76934820Y-105646777D01*
X76935179Y-105235029D01*
X76777942Y-104854485D01*
X76660000Y-104736337D01*
X76660000Y-103805323D01*
X76722058Y-103955515D01*
X77012954Y-104246919D01*
X77393223Y-104404820D01*
X77804971Y-104405179D01*
X78185515Y-104247942D01*
X78303663Y-104130000D01*
X79320000Y-104130000D01*
X79320000Y-105686239D01*
X79203081Y-105802954D01*
X79045180Y-106183223D01*
X79044821Y-106594971D01*
X79202058Y-106975515D01*
X79492954Y-107266919D01*
X79873223Y-107424820D01*
X80284971Y-107425179D01*
X80665515Y-107267942D01*
X80956919Y-106977046D01*
X81114820Y-106596777D01*
X81114896Y-106509698D01*
X81254965Y-106649767D01*
X81254821Y-106814971D01*
X81412058Y-107195515D01*
X81702954Y-107486919D01*
X82083223Y-107644820D01*
X82494971Y-107645179D01*
X82875515Y-107487942D01*
X83166919Y-107197046D01*
X83324820Y-106816777D01*
X83325179Y-106405029D01*
X83167942Y-106024485D01*
X83023709Y-105880000D01*
X86701047Y-105880000D01*
X86502599Y-106012599D01*
X86250233Y-106264965D01*
X86085029Y-106264821D01*
X85704485Y-106422058D01*
X85413081Y-106712954D01*
X85255180Y-107093223D01*
X85254821Y-107504971D01*
X85412058Y-107885515D01*
X85702954Y-108176919D01*
X86083223Y-108334820D01*
X86494971Y-108335179D01*
X86875515Y-108177942D01*
X87166919Y-107887046D01*
X87324820Y-107506777D01*
X87324966Y-107339836D01*
X87354802Y-107310000D01*
X88530000Y-107310000D01*
X88820839Y-107252148D01*
X89067401Y-107087401D01*
X89397401Y-106757401D01*
X89562148Y-106510840D01*
X89585362Y-106394133D01*
X89620000Y-106220000D01*
X89620000Y-105584802D01*
X93772599Y-109737401D01*
X94019161Y-109902148D01*
X94310000Y-109960000D01*
X97716239Y-109960000D01*
X97832954Y-110076919D01*
X98213223Y-110234820D01*
X98624971Y-110235179D01*
X99005515Y-110077942D01*
X99296919Y-109787046D01*
X99454820Y-109406777D01*
X99455179Y-108995029D01*
X99297942Y-108614485D01*
X99143726Y-108460000D01*
X104025882Y-108460000D01*
X104316721Y-108402148D01*
X104563283Y-108237401D01*
X109300730Y-103499954D01*
X109402599Y-103652411D01*
X109618664Y-103868476D01*
X109618520Y-104033680D01*
X109775757Y-104414224D01*
X110066653Y-104705628D01*
X110446922Y-104863529D01*
X110858670Y-104863888D01*
X111239214Y-104706651D01*
X111530618Y-104415755D01*
X111688519Y-104035486D01*
X111688878Y-103623738D01*
X111531641Y-103243194D01*
X111240745Y-102951790D01*
X110860476Y-102793889D01*
X110700000Y-102793749D01*
X110700000Y-102543761D01*
X110770014Y-102473869D01*
X110832954Y-102536919D01*
X111213223Y-102694820D01*
X111624971Y-102695179D01*
X112005515Y-102537942D01*
X112150000Y-102393709D01*
X112150000Y-107246239D01*
X112033081Y-107362954D01*
X111875180Y-107743223D01*
X111874930Y-108030000D01*
X106403761Y-108030000D01*
X106287046Y-107913081D01*
X105906777Y-107755180D01*
X105495029Y-107754821D01*
X105114485Y-107912058D01*
X104823081Y-108202954D01*
X104665180Y-108583223D01*
X104664821Y-108994971D01*
X104822058Y-109375515D01*
X105112954Y-109666919D01*
X105493223Y-109824820D01*
X105904971Y-109825179D01*
X106285515Y-109667942D01*
X106403663Y-109550000D01*
X114022016Y-109550000D01*
X114312855Y-109492148D01*
X114559417Y-109327401D01*
X118094989Y-105791829D01*
X118094989Y-106816538D01*
X117869475Y-106909718D01*
X117578071Y-107200614D01*
X117420170Y-107580883D01*
X117419811Y-107992631D01*
X117577048Y-108373175D01*
X117867944Y-108664579D01*
X118248213Y-108822480D01*
X118659961Y-108822839D01*
X119040505Y-108665602D01*
X119041291Y-108664817D01*
X119292954Y-108916919D01*
X119673223Y-109074820D01*
X120084971Y-109075179D01*
X120465515Y-108917942D01*
X120756919Y-108627046D01*
X120914820Y-108246777D01*
X120915179Y-107835029D01*
X120757942Y-107454485D01*
X120640000Y-107336337D01*
X120640000Y-107308691D01*
X120867148Y-107415366D01*
X121097040Y-107294699D01*
X121097040Y-106100880D01*
X121077040Y-106100880D01*
X121077040Y-105846880D01*
X121097040Y-105846880D01*
X121097040Y-105826880D01*
X121351040Y-105826880D01*
X121351040Y-105846880D01*
X121371040Y-105846880D01*
X121371040Y-106100880D01*
X121351040Y-106100880D01*
X121351040Y-107294699D01*
X121580932Y-107415366D01*
X121639041Y-107388076D01*
X121639041Y-110115572D01*
X119709600Y-112045013D01*
X97105153Y-112045013D01*
X97105179Y-112015029D01*
X96947942Y-111634485D01*
X96657046Y-111343081D01*
X96276777Y-111185180D01*
X95865029Y-111184821D01*
X95484485Y-111342058D01*
X95193081Y-111632954D01*
X95035180Y-112013223D01*
X95034821Y-112424971D01*
X95192058Y-112805515D01*
X95322097Y-112935781D01*
X72819520Y-112823246D01*
X70257180Y-110484140D01*
X70259701Y-109698651D01*
X70661410Y-109698651D01*
X70668023Y-109765810D01*
X70661410Y-109832965D01*
X70692160Y-110145115D01*
X70711744Y-110209670D01*
X70718356Y-110276806D01*
X70809406Y-110576956D01*
X70841211Y-110636459D01*
X70860797Y-110701023D01*
X71008657Y-110977643D01*
X71051450Y-111029785D01*
X71083245Y-111089274D01*
X71282215Y-111331734D01*
X71334382Y-111374548D01*
X71377196Y-111426715D01*
X71619656Y-111625685D01*
X71679145Y-111657480D01*
X71731287Y-111700273D01*
X72007907Y-111848133D01*
X72072471Y-111867719D01*
X72131974Y-111899524D01*
X72432124Y-111990574D01*
X72499257Y-111997186D01*
X72563811Y-112016770D01*
X72875941Y-112047520D01*
X72943100Y-112040907D01*
X73010255Y-112047520D01*
X73322405Y-112016770D01*
X73386955Y-111997188D01*
X73454090Y-111990576D01*
X73754250Y-111899526D01*
X73813761Y-111867717D01*
X73878332Y-111848128D01*
X74154942Y-111700268D01*
X74207079Y-111657478D01*
X74266564Y-111625685D01*
X74509024Y-111426715D01*
X74551834Y-111374554D01*
X74603994Y-111331747D01*
X74802974Y-111089287D01*
X74834775Y-111029792D01*
X74877573Y-110977643D01*
X75025433Y-110701023D01*
X75045022Y-110636449D01*
X75076830Y-110576936D01*
X75167870Y-110276786D01*
X75174479Y-110209660D01*
X75194060Y-110145115D01*
X75224810Y-109832964D01*
X75218197Y-109765810D01*
X75224810Y-109698651D01*
X75194060Y-109386521D01*
X75174480Y-109321981D01*
X75167872Y-109254860D01*
X75076832Y-108954700D01*
X75045020Y-108895179D01*
X75025428Y-108830598D01*
X74877568Y-108553988D01*
X74834772Y-108501844D01*
X74802974Y-108442353D01*
X74603994Y-108199893D01*
X74551839Y-108157091D01*
X74509037Y-108104936D01*
X74266577Y-107905956D01*
X74207086Y-107874158D01*
X74154942Y-107831362D01*
X73878332Y-107683502D01*
X73813751Y-107663910D01*
X73754230Y-107632098D01*
X73454070Y-107541058D01*
X73386950Y-107534450D01*
X73322409Y-107514870D01*
X73010279Y-107484120D01*
X72943120Y-107490733D01*
X72875966Y-107484120D01*
X72563815Y-107514870D01*
X72499270Y-107534451D01*
X72432144Y-107541060D01*
X72131994Y-107632100D01*
X72072481Y-107663908D01*
X72007907Y-107683497D01*
X71731287Y-107831357D01*
X71679138Y-107874155D01*
X71619643Y-107905956D01*
X71377183Y-108104936D01*
X71334376Y-108157096D01*
X71282215Y-108199906D01*
X71083245Y-108442366D01*
X71051452Y-108501851D01*
X71008662Y-108553988D01*
X70860802Y-108830598D01*
X70841213Y-108895169D01*
X70809404Y-108954680D01*
X70718354Y-109254840D01*
X70711743Y-109321971D01*
X70692160Y-109386521D01*
X70661410Y-109698651D01*
X70259701Y-109698651D01*
X70352799Y-80698645D01*
X70661411Y-80698645D01*
X70668024Y-80765810D01*
X70661411Y-80832975D01*
X70692161Y-81145075D01*
X70711740Y-81209610D01*
X70718347Y-81276726D01*
X70809397Y-81576926D01*
X70841212Y-81636453D01*
X70860807Y-81701041D01*
X71008667Y-81977641D01*
X71051437Y-82029752D01*
X71083210Y-82089211D01*
X71282180Y-82331711D01*
X71334345Y-82374531D01*
X71377157Y-82426703D01*
X71619617Y-82625702D01*
X71679175Y-82657540D01*
X71731389Y-82700377D01*
X72008010Y-82848178D01*
X72072475Y-82867722D01*
X72131874Y-82899483D01*
X72432024Y-82990584D01*
X72499261Y-82997216D01*
X72563919Y-83016821D01*
X72876049Y-83047520D01*
X72943095Y-83040907D01*
X73010146Y-83047521D01*
X73322296Y-83016821D01*
X73386954Y-82997217D01*
X73454190Y-82990585D01*
X73754350Y-82899485D01*
X73813760Y-82867719D01*
X73878230Y-82848172D01*
X74154840Y-82700372D01*
X74207046Y-82657540D01*
X74266603Y-82625703D01*
X74509063Y-82426703D01*
X74551871Y-82374536D01*
X74604029Y-82331724D01*
X74803009Y-82089224D01*
X74834787Y-82029759D01*
X74877563Y-81977641D01*
X75025423Y-81701041D01*
X75045021Y-81636443D01*
X75076839Y-81576906D01*
X75167879Y-81276706D01*
X75174483Y-81209600D01*
X75194059Y-81145075D01*
X75224809Y-80832975D01*
X75218196Y-80765810D01*
X75224809Y-80698645D01*
X75194059Y-80386545D01*
X75174483Y-80322020D01*
X75167879Y-80254914D01*
X75076839Y-79954714D01*
X75045021Y-79895177D01*
X75025423Y-79830579D01*
X74877563Y-79553979D01*
X74834787Y-79501861D01*
X74803009Y-79442396D01*
X74604029Y-79199896D01*
X74551808Y-79157032D01*
X74508933Y-79104810D01*
X74266473Y-78905910D01*
X74207067Y-78874172D01*
X74155010Y-78831438D01*
X73878400Y-78683538D01*
X73813743Y-78663915D01*
X73754150Y-78632074D01*
X73453990Y-78541074D01*
X73386963Y-78534483D01*
X73322517Y-78514921D01*
X73010387Y-78484121D01*
X72943125Y-78490733D01*
X72875857Y-78484120D01*
X72563707Y-78514920D01*
X72499254Y-78534484D01*
X72432224Y-78541076D01*
X72132074Y-78632076D01*
X72072489Y-78663913D01*
X72007840Y-78683533D01*
X71731219Y-78831433D01*
X71679157Y-78874170D01*
X71619747Y-78905910D01*
X71377287Y-79104810D01*
X71334408Y-79157037D01*
X71282180Y-79199909D01*
X71083210Y-79442409D01*
X71051437Y-79501868D01*
X71008667Y-79553979D01*
X70860807Y-79830579D01*
X70841212Y-79895167D01*
X70809397Y-79954694D01*
X70718347Y-80254894D01*
X70711740Y-80322010D01*
X70692161Y-80386545D01*
X70661411Y-80698645D01*
X70352799Y-80698645D01*
X70356825Y-79444714D01*
X72396876Y-77507958D01*
X72976790Y-77450810D01*
X124909442Y-77450810D01*
X125285318Y-77487853D01*
X125285318Y-77487853D01*
G37*
X125285318Y-77487853D02*
X128163220Y-80956095D01*
X128258120Y-100627463D01*
X128258120Y-109732140D01*
X128238545Y-109930780D01*
X124713969Y-113080810D01*
X124322265Y-113080810D01*
X120840818Y-113063399D01*
X122936442Y-110967775D01*
X122973612Y-110912146D01*
X123008553Y-110977541D01*
X123051388Y-111029752D01*
X123083227Y-111089313D01*
X123282227Y-111331773D01*
X123334400Y-111374586D01*
X123377219Y-111426750D01*
X123619719Y-111625720D01*
X123679178Y-111657493D01*
X123731289Y-111700263D01*
X124007889Y-111848123D01*
X124072477Y-111867718D01*
X124132004Y-111899533D01*
X124432204Y-111990583D01*
X124499320Y-111997190D01*
X124563855Y-112016769D01*
X124875955Y-112047519D01*
X124943120Y-112040906D01*
X125010285Y-112047519D01*
X125322385Y-112016769D01*
X125386920Y-111997190D01*
X125454036Y-111990583D01*
X125754236Y-111899533D01*
X125813763Y-111867718D01*
X125878351Y-111848123D01*
X126154951Y-111700263D01*
X126207062Y-111657493D01*
X126266521Y-111625720D01*
X126509021Y-111426750D01*
X126551893Y-111374522D01*
X126604120Y-111331643D01*
X126803020Y-111089183D01*
X126834760Y-111029773D01*
X126877497Y-110977711D01*
X127025397Y-110701090D01*
X127045017Y-110636441D01*
X127076854Y-110576856D01*
X127167854Y-110276706D01*
X127174446Y-110209676D01*
X127194010Y-110145223D01*
X127224810Y-109833073D01*
X127218197Y-109765805D01*
X127224809Y-109698543D01*
X127194009Y-109386413D01*
X127174447Y-109321967D01*
X127167856Y-109254940D01*
X127076856Y-108954780D01*
X127045015Y-108895187D01*
X127025392Y-108830530D01*
X126877492Y-108553920D01*
X126834758Y-108501863D01*
X126803020Y-108442457D01*
X126604120Y-108199997D01*
X126551901Y-108157124D01*
X126509035Y-108104901D01*
X126266534Y-107905921D01*
X126207069Y-107874143D01*
X126154951Y-107831367D01*
X125878351Y-107683507D01*
X125813753Y-107663909D01*
X125754216Y-107632091D01*
X125454016Y-107541051D01*
X125386910Y-107534447D01*
X125322385Y-107514871D01*
X125010285Y-107484121D01*
X124943120Y-107490734D01*
X124875955Y-107484121D01*
X124563855Y-107514871D01*
X124499330Y-107534447D01*
X124432224Y-107541051D01*
X124132024Y-107632091D01*
X124072487Y-107663909D01*
X124007889Y-107683507D01*
X123731289Y-107831367D01*
X123679171Y-107874143D01*
X123619706Y-107905921D01*
X123377206Y-108104901D01*
X123334394Y-108157059D01*
X123282227Y-108199867D01*
X123159041Y-108349956D01*
X123159041Y-104608881D01*
X123118451Y-104404821D01*
X123101189Y-104318041D01*
X122936442Y-104071480D01*
X122665250Y-103800288D01*
X122738133Y-103433880D01*
X122665250Y-103067472D01*
X122936442Y-102796280D01*
X123101189Y-102549719D01*
X123159041Y-102258879D01*
X123159041Y-94580961D01*
X123101189Y-94290122D01*
X123101189Y-94290121D01*
X122936442Y-94043560D01*
X122563650Y-93670768D01*
X122636533Y-93304360D01*
X122523494Y-92736075D01*
X122201587Y-92254306D01*
X122157663Y-92224957D01*
X122220205Y-92212517D01*
X122430249Y-92072169D01*
X122570597Y-91862125D01*
X122619880Y-91614360D01*
X122619880Y-89914360D01*
X122570597Y-89666595D01*
X122430249Y-89456551D01*
X122220205Y-89316203D01*
X121972440Y-89266920D01*
X120272440Y-89266920D01*
X120024675Y-89316203D01*
X119908956Y-89393525D01*
X119890394Y-89348601D01*
X119772452Y-89230453D01*
X119772452Y-87852350D01*
X119839767Y-87785035D01*
X120004971Y-87785179D01*
X120385515Y-87627942D01*
X120676919Y-87337046D01*
X120834820Y-86956777D01*
X120835179Y-86545029D01*
X120677942Y-86164485D01*
X120387046Y-85873081D01*
X120006777Y-85715180D01*
X119595029Y-85714821D01*
X119214485Y-85872058D01*
X118923081Y-86162954D01*
X118765180Y-86543223D01*
X118765034Y-86710164D01*
X118475051Y-87000147D01*
X118310304Y-87246709D01*
X118252452Y-87537548D01*
X118252452Y-89230355D01*
X118135533Y-89347070D01*
X117977632Y-89727339D01*
X117977273Y-90139087D01*
X117991700Y-90174004D01*
X113647650Y-90174004D01*
X112953566Y-89479920D01*
X112953710Y-89314716D01*
X112796473Y-88934172D01*
X112668662Y-88806138D01*
X112839424Y-88635376D01*
X113940553Y-88635376D01*
X114057268Y-88752295D01*
X114437537Y-88910196D01*
X114849285Y-88910555D01*
X115229829Y-88753318D01*
X115521233Y-88462422D01*
X115673293Y-88096219D01*
X115887549Y-88185186D01*
X116299297Y-88185545D01*
X116679841Y-88028308D01*
X116971245Y-87737412D01*
X117129146Y-87357143D01*
X117129505Y-86945395D01*
X116972268Y-86564851D01*
X116681372Y-86273447D01*
X116301103Y-86115546D01*
X115889355Y-86115187D01*
X115508811Y-86272424D01*
X115390663Y-86390366D01*
X115384425Y-86390366D01*
X115424843Y-86293029D01*
X115425202Y-85881281D01*
X115267965Y-85500737D01*
X115200615Y-85433269D01*
X115246919Y-85387046D01*
X115404820Y-85006777D01*
X115404966Y-84839836D01*
X116567401Y-83677401D01*
X116732148Y-83430839D01*
X116790000Y-83140000D01*
X116790000Y-82050000D01*
X116732148Y-81759161D01*
X116567401Y-81512599D01*
X115753555Y-80698753D01*
X122661410Y-80698753D01*
X122668023Y-80765810D01*
X122661410Y-80832867D01*
X122692110Y-81144967D01*
X122711709Y-81209606D01*
X122718337Y-81276826D01*
X122809437Y-81577025D01*
X122841209Y-81636450D01*
X122860762Y-81700939D01*
X123008562Y-81977539D01*
X123051376Y-82029722D01*
X123083192Y-82089250D01*
X123282192Y-82331750D01*
X123334362Y-82374568D01*
X123377180Y-82426738D01*
X123619679Y-82625738D01*
X123679209Y-82657555D01*
X123731391Y-82700368D01*
X124007991Y-82848168D01*
X124072478Y-82867721D01*
X124131904Y-82899493D01*
X124432104Y-82990593D01*
X124499324Y-82997221D01*
X124563963Y-83016820D01*
X124876063Y-83047520D01*
X124943120Y-83040907D01*
X125010177Y-83047520D01*
X125322277Y-83016820D01*
X125386916Y-82997221D01*
X125454136Y-82990593D01*
X125754335Y-82899493D01*
X125813760Y-82867721D01*
X125878249Y-82848168D01*
X126154849Y-82700368D01*
X126207032Y-82657554D01*
X126266560Y-82625738D01*
X126509060Y-82426738D01*
X126551930Y-82374504D01*
X126604155Y-82331620D01*
X126803055Y-82089120D01*
X126834773Y-82029740D01*
X126877487Y-81977709D01*
X127025387Y-81701109D01*
X127045016Y-81636435D01*
X127076863Y-81576826D01*
X127167863Y-81276626D01*
X127174450Y-81209616D01*
X127194009Y-81145183D01*
X127224809Y-80833083D01*
X127218196Y-80765810D01*
X127224809Y-80698537D01*
X127194009Y-80386437D01*
X127174450Y-80322004D01*
X127167863Y-80254994D01*
X127076863Y-79954794D01*
X127045016Y-79895185D01*
X127025387Y-79830511D01*
X126877487Y-79553911D01*
X126834773Y-79501880D01*
X126803055Y-79442500D01*
X126604155Y-79200000D01*
X126551867Y-79157064D01*
X126508930Y-79104775D01*
X126266430Y-78905875D01*
X126207050Y-78874157D01*
X126155019Y-78831443D01*
X125878419Y-78683543D01*
X125813744Y-78663913D01*
X125754135Y-78632067D01*
X125453936Y-78541067D01*
X125386926Y-78534480D01*
X125322493Y-78514921D01*
X125010393Y-78484121D01*
X124943120Y-78490734D01*
X124875847Y-78484121D01*
X124563747Y-78514921D01*
X124499314Y-78534480D01*
X124432304Y-78541067D01*
X124132104Y-78632067D01*
X124072495Y-78663914D01*
X124007821Y-78683543D01*
X123731221Y-78831443D01*
X123679190Y-78874157D01*
X123619810Y-78905875D01*
X123377310Y-79104775D01*
X123334426Y-79157000D01*
X123282192Y-79199870D01*
X123083192Y-79442370D01*
X123051376Y-79501898D01*
X123008562Y-79554081D01*
X122860762Y-79830681D01*
X122841209Y-79895170D01*
X122809437Y-79954595D01*
X122718337Y-80254794D01*
X122711709Y-80322014D01*
X122692110Y-80386653D01*
X122661410Y-80698753D01*
X115753555Y-80698753D01*
X115707401Y-80652599D01*
X115460839Y-80487852D01*
X115170000Y-80430000D01*
X109180000Y-80430000D01*
X108889160Y-80487852D01*
X108642599Y-80652599D01*
X105012599Y-84282599D01*
X104847852Y-84529161D01*
X104790000Y-84820000D01*
X104790000Y-86965198D01*
X104775198Y-86980000D01*
X104742720Y-86980000D01*
X104764820Y-86926777D01*
X104765179Y-86515029D01*
X104607942Y-86134485D01*
X104317046Y-85843081D01*
X103936777Y-85685180D01*
X103769836Y-85685034D01*
X103406980Y-85322178D01*
X103160418Y-85157431D01*
X102869579Y-85099579D01*
X97632379Y-85099579D01*
X97341540Y-85157431D01*
X97094978Y-85322178D01*
X95189978Y-87227178D01*
X95025231Y-87473740D01*
X94967379Y-87764579D01*
X94967379Y-89150000D01*
X89673698Y-89150000D01*
X89826919Y-88997046D01*
X89884464Y-88858461D01*
X90234971Y-88858767D01*
X90615515Y-88701530D01*
X90733663Y-88583588D01*
X90926412Y-88583588D01*
X91217251Y-88525736D01*
X91463813Y-88360989D01*
X93129768Y-86695035D01*
X93294971Y-86695179D01*
X93675515Y-86537942D01*
X93966919Y-86247046D01*
X94124820Y-85866777D01*
X94125179Y-85455029D01*
X93967942Y-85074485D01*
X93677046Y-84783081D01*
X93296777Y-84625180D01*
X92984996Y-84624908D01*
X92985179Y-84415029D01*
X92827942Y-84034485D01*
X92537046Y-83743081D01*
X92156777Y-83585180D01*
X91745029Y-83584821D01*
X91364485Y-83742058D01*
X91073081Y-84032954D01*
X90915180Y-84413223D01*
X90915034Y-84580164D01*
X88412599Y-87082599D01*
X88247852Y-87329161D01*
X88190000Y-87620000D01*
X88190000Y-87706239D01*
X88073081Y-87822954D01*
X87915180Y-88203223D01*
X87914821Y-88614971D01*
X88072058Y-88995515D01*
X88226274Y-89150000D01*
X87306344Y-89150000D01*
X87576919Y-88879897D01*
X87734820Y-88499628D01*
X87735179Y-88087880D01*
X87577942Y-87707336D01*
X87460000Y-87589188D01*
X87460000Y-86010000D01*
X87443657Y-85927841D01*
X87402148Y-85719160D01*
X87237401Y-85472599D01*
X86605035Y-84840233D01*
X86605179Y-84675029D01*
X86447942Y-84294485D01*
X86157046Y-84003081D01*
X85776777Y-83845180D01*
X85365029Y-83844821D01*
X84984485Y-84002058D01*
X84693081Y-84292954D01*
X84535180Y-84673223D01*
X84534821Y-85084971D01*
X84692058Y-85465515D01*
X84982954Y-85756919D01*
X85363223Y-85914820D01*
X85530164Y-85914966D01*
X85940000Y-86324802D01*
X85940000Y-87589090D01*
X85823081Y-87705805D01*
X85665180Y-88086074D01*
X85664821Y-88497822D01*
X85822058Y-88878366D01*
X86094882Y-89151666D01*
X85812419Y-89207852D01*
X85565857Y-89372599D01*
X85311165Y-89627291D01*
X85270500Y-89586554D01*
X84890231Y-89428653D01*
X84723290Y-89428507D01*
X83850000Y-88555217D01*
X83850000Y-85113761D01*
X83966919Y-84997046D01*
X84124820Y-84616777D01*
X84125179Y-84205029D01*
X83967942Y-83824485D01*
X83677046Y-83533081D01*
X83296777Y-83375180D01*
X82885029Y-83374821D01*
X82504485Y-83532058D01*
X82213081Y-83822954D01*
X82055180Y-84203223D01*
X82054821Y-84614971D01*
X82212058Y-84995515D01*
X82330000Y-85113663D01*
X82330000Y-85245198D01*
X80455035Y-83370233D01*
X80455179Y-83205029D01*
X80372518Y-83004971D01*
X100184821Y-83004971D01*
X100342058Y-83385515D01*
X100632954Y-83676919D01*
X101013223Y-83834820D01*
X101424971Y-83835179D01*
X101805515Y-83677942D01*
X102096919Y-83387046D01*
X102254820Y-83006777D01*
X102255179Y-82595029D01*
X102100000Y-82219466D01*
X102100000Y-81393761D01*
X102216919Y-81277046D01*
X102374820Y-80896777D01*
X102375179Y-80485029D01*
X102217942Y-80104485D01*
X101927046Y-79813081D01*
X101546777Y-79655180D01*
X101135029Y-79654821D01*
X100754485Y-79812058D01*
X100463081Y-80102954D01*
X100305180Y-80483223D01*
X100304821Y-80894971D01*
X100462058Y-81275515D01*
X100580000Y-81393663D01*
X100580000Y-81976448D01*
X100343081Y-82212954D01*
X100185180Y-82593223D01*
X100184821Y-83004971D01*
X80372518Y-83004971D01*
X80297942Y-82824485D01*
X80007046Y-82533081D01*
X79626777Y-82375180D01*
X79215029Y-82374821D01*
X78834485Y-82532058D01*
X78543081Y-82822954D01*
X78431695Y-83091203D01*
X78296777Y-83035180D01*
X77885029Y-83034821D01*
X77504485Y-83192058D01*
X77213081Y-83482954D01*
X77055180Y-83863223D01*
X77054821Y-84274971D01*
X77212058Y-84655515D01*
X77502954Y-84946919D01*
X77883223Y-85104820D01*
X78050164Y-85104966D01*
X80905427Y-87960229D01*
X80905427Y-89754539D01*
X80494186Y-89754180D01*
X80194415Y-89878043D01*
X77665035Y-87348663D01*
X77665179Y-87183459D01*
X77507942Y-86802915D01*
X77217046Y-86511511D01*
X76836777Y-86353610D01*
X76425029Y-86353251D01*
X76044485Y-86510488D01*
X75753081Y-86801384D01*
X75595180Y-87181653D01*
X75594821Y-87593401D01*
X75752058Y-87973945D01*
X76042954Y-88265349D01*
X76423223Y-88423250D01*
X76590164Y-88423396D01*
X78641618Y-90474850D01*
X78393081Y-90722954D01*
X78235180Y-91103223D01*
X78234821Y-91514971D01*
X78392058Y-91895515D01*
X78682954Y-92186919D01*
X79029941Y-92331000D01*
X78306074Y-92331000D01*
X78112267Y-92040946D01*
X77630498Y-91719039D01*
X77062213Y-91606000D01*
X77004027Y-91606000D01*
X76435742Y-91719039D01*
X75953973Y-92040946D01*
X75632066Y-92522715D01*
X75519027Y-93091000D01*
X75632066Y-93659285D01*
X75953973Y-94141054D01*
X76294673Y-94368702D01*
X76151762Y-94435817D01*
X75761475Y-94864076D01*
X75591644Y-95274110D01*
X75712965Y-95504000D01*
X76906120Y-95504000D01*
X76906120Y-95484000D01*
X77160120Y-95484000D01*
X77160120Y-95504000D01*
X78353275Y-95504000D01*
X78474596Y-95274110D01*
X78304765Y-94864076D01*
X77914478Y-94435817D01*
X77771567Y-94368702D01*
X78112267Y-94141054D01*
X78306074Y-93851000D01*
X83126521Y-93851000D01*
X83417360Y-93793148D01*
X83663922Y-93628401D01*
X85705346Y-91586977D01*
X85749381Y-91631088D01*
X86129650Y-91788989D01*
X86541398Y-91789348D01*
X86921942Y-91632111D01*
X87002775Y-91551419D01*
X87002502Y-91864561D01*
X87159739Y-92245105D01*
X87450635Y-92536509D01*
X87830904Y-92694410D01*
X88242652Y-92694769D01*
X88623196Y-92537532D01*
X88866572Y-92294580D01*
X92255161Y-92294580D01*
X92254821Y-92684971D01*
X92412058Y-93065515D01*
X92702954Y-93356919D01*
X93083223Y-93514820D01*
X93174926Y-93514900D01*
X93174821Y-93634971D01*
X93332058Y-94015515D01*
X93622954Y-94306919D01*
X94003223Y-94464820D01*
X94414971Y-94465179D01*
X94795515Y-94307942D01*
X94913663Y-94190000D01*
X95420936Y-94190000D01*
X95429804Y-94234580D01*
X95404940Y-94359580D01*
X95404940Y-94709580D01*
X95429804Y-94834580D01*
X95404940Y-94959580D01*
X95404940Y-95309580D01*
X95429804Y-95434580D01*
X95404940Y-95559580D01*
X95404940Y-95909580D01*
X95425597Y-96013433D01*
X95417380Y-96033271D01*
X95417380Y-96088330D01*
X95446235Y-96117185D01*
X95454223Y-96157345D01*
X95575335Y-96338600D01*
X95514053Y-96399882D01*
X95454461Y-96543749D01*
X95417380Y-96580830D01*
X95417380Y-96688330D01*
X95454461Y-96725411D01*
X95514053Y-96869278D01*
X95579355Y-96934580D01*
X95514053Y-96999882D01*
X95454461Y-97143749D01*
X95417380Y-97180830D01*
X95417380Y-97288330D01*
X95454461Y-97325411D01*
X95514053Y-97469278D01*
X95579355Y-97534580D01*
X95514053Y-97599882D01*
X95454461Y-97743749D01*
X95417380Y-97780830D01*
X95417380Y-97888330D01*
X95454461Y-97925411D01*
X95514053Y-98069278D01*
X95579355Y-98134580D01*
X95514053Y-98199882D01*
X95454461Y-98343749D01*
X95417380Y-98380830D01*
X95417380Y-98488330D01*
X95454461Y-98525411D01*
X95514053Y-98669278D01*
X95579355Y-98734580D01*
X95514053Y-98799882D01*
X95454461Y-98943749D01*
X95417380Y-98980830D01*
X95417380Y-99088330D01*
X95454461Y-99125411D01*
X95514053Y-99269278D01*
X95579355Y-99334580D01*
X95514053Y-99399882D01*
X95454461Y-99543749D01*
X95417380Y-99580830D01*
X95417380Y-99688330D01*
X95454461Y-99725411D01*
X95514053Y-99869278D01*
X95579355Y-99934580D01*
X95514053Y-99999882D01*
X95454461Y-100143749D01*
X95417380Y-100180830D01*
X95417380Y-100288330D01*
X95454461Y-100325411D01*
X95514053Y-100469278D01*
X95666854Y-100622080D01*
X95576130Y-100622080D01*
X95417380Y-100780830D01*
X95417380Y-100835889D01*
X95514053Y-101069278D01*
X95692681Y-101247907D01*
X95926070Y-101344580D01*
X97016630Y-101344580D01*
X97175380Y-101185830D01*
X97175380Y-100622080D01*
X97139130Y-100622080D01*
X97175380Y-100585830D01*
X97175380Y-96787580D01*
X97429380Y-96787580D01*
X97429380Y-100585830D01*
X97465630Y-100622080D01*
X97429380Y-100622080D01*
X97429380Y-101185830D01*
X97588130Y-101344580D01*
X98678690Y-101344580D01*
X98912079Y-101247907D01*
X99090707Y-101069278D01*
X99187380Y-100835889D01*
X99187380Y-100780830D01*
X99028630Y-100622080D01*
X98937906Y-100622080D01*
X99090707Y-100469278D01*
X99150299Y-100325411D01*
X99187380Y-100288330D01*
X99187380Y-100180830D01*
X99150299Y-100143749D01*
X99090707Y-99999882D01*
X99025405Y-99934580D01*
X99090707Y-99869278D01*
X99150299Y-99725411D01*
X99187380Y-99688330D01*
X99187380Y-99580830D01*
X99150299Y-99543749D01*
X99090707Y-99399882D01*
X99025405Y-99334580D01*
X99090707Y-99269278D01*
X99150299Y-99125411D01*
X99187380Y-99088330D01*
X99187380Y-98980830D01*
X99150299Y-98943749D01*
X99090707Y-98799882D01*
X99025405Y-98734580D01*
X99090707Y-98669278D01*
X99150299Y-98525411D01*
X99187380Y-98488330D01*
X99187380Y-98380830D01*
X99150299Y-98343749D01*
X99090707Y-98199882D01*
X99025405Y-98134580D01*
X99090707Y-98069278D01*
X99150299Y-97925411D01*
X99187380Y-97888330D01*
X99187380Y-97780830D01*
X99150299Y-97743749D01*
X99090707Y-97599882D01*
X99025405Y-97534580D01*
X99090707Y-97469278D01*
X99150299Y-97325411D01*
X99187380Y-97288330D01*
X99187380Y-97180830D01*
X99150299Y-97143749D01*
X99090707Y-96999882D01*
X99025405Y-96934580D01*
X99090707Y-96869278D01*
X99150299Y-96725411D01*
X99187380Y-96688330D01*
X99187380Y-96580830D01*
X99150299Y-96543749D01*
X99090707Y-96399882D01*
X99029425Y-96338600D01*
X99150537Y-96157345D01*
X99158525Y-96117185D01*
X99187380Y-96088330D01*
X99187380Y-96033271D01*
X99179163Y-96013433D01*
X99199820Y-95909580D01*
X99199820Y-95559580D01*
X99174956Y-95434580D01*
X99199820Y-95309580D01*
X99199820Y-94959580D01*
X99174956Y-94834580D01*
X99199820Y-94709580D01*
X99199820Y-94359580D01*
X99174956Y-94234580D01*
X99199820Y-94109580D01*
X99199820Y-93759580D01*
X99174956Y-93634580D01*
X99199820Y-93509580D01*
X99199820Y-93159580D01*
X99174956Y-93034580D01*
X99199820Y-92909580D01*
X99199820Y-92559580D01*
X99174956Y-92434580D01*
X99199820Y-92309580D01*
X99199820Y-91959580D01*
X99174956Y-91834580D01*
X99199820Y-91709580D01*
X99199820Y-91359580D01*
X99174956Y-91234580D01*
X99199820Y-91109580D01*
X99199820Y-90759580D01*
X99174956Y-90634580D01*
X99199820Y-90509580D01*
X99199820Y-90159580D01*
X99174956Y-90034580D01*
X99199820Y-89909580D01*
X99199820Y-89559580D01*
X99174956Y-89434580D01*
X99180611Y-89406151D01*
X100086762Y-88500000D01*
X100847221Y-88500000D01*
X100844571Y-88501771D01*
X100704223Y-88711815D01*
X100654940Y-88959580D01*
X100654940Y-89309580D01*
X100679804Y-89434580D01*
X100654940Y-89559580D01*
X100654940Y-89909580D01*
X100679804Y-90034580D01*
X100654940Y-90159580D01*
X100654940Y-90509580D01*
X100679804Y-90634580D01*
X100654940Y-90759580D01*
X100654940Y-91109580D01*
X100679804Y-91234580D01*
X100654940Y-91359580D01*
X100654940Y-91709580D01*
X100679804Y-91834580D01*
X100654940Y-91959580D01*
X100654940Y-92309580D01*
X100679804Y-92434580D01*
X100654940Y-92559580D01*
X100654940Y-92909580D01*
X100679804Y-93034580D01*
X100654940Y-93159580D01*
X100654940Y-93509580D01*
X100679804Y-93634580D01*
X100654940Y-93759580D01*
X100654940Y-94109580D01*
X100679804Y-94234580D01*
X100654940Y-94359580D01*
X100654940Y-94709580D01*
X100679804Y-94834580D01*
X100654940Y-94959580D01*
X100654940Y-95309580D01*
X100679804Y-95434580D01*
X100654940Y-95559580D01*
X100654940Y-95909580D01*
X100679804Y-96034580D01*
X100654940Y-96159580D01*
X100654940Y-96509580D01*
X100679804Y-96634580D01*
X100654940Y-96759580D01*
X100654940Y-97109580D01*
X100679804Y-97234580D01*
X100654940Y-97359580D01*
X100654940Y-97709580D01*
X100679804Y-97834580D01*
X100654940Y-97959580D01*
X100654940Y-98309580D01*
X100679804Y-98434580D01*
X100654940Y-98559580D01*
X100654940Y-98909580D01*
X100679804Y-99034580D01*
X100654940Y-99159580D01*
X100654940Y-99303660D01*
X100514979Y-99397179D01*
X99970259Y-99941899D01*
X99805512Y-100188461D01*
X99747660Y-100479300D01*
X99747660Y-102788579D01*
X99630741Y-102905294D01*
X99472840Y-103285563D01*
X99472481Y-103697311D01*
X99629718Y-104077855D01*
X99920614Y-104369259D01*
X100300883Y-104527160D01*
X100712631Y-104527519D01*
X101093175Y-104370282D01*
X101384579Y-104079386D01*
X101542480Y-103699117D01*
X101542839Y-103287369D01*
X101385602Y-102906825D01*
X101267660Y-102788677D01*
X101267660Y-102553850D01*
X101322058Y-102685504D01*
X101612954Y-102976908D01*
X101993223Y-103134809D01*
X102404971Y-103135168D01*
X102785515Y-102977931D01*
X103076919Y-102687035D01*
X103234820Y-102306766D01*
X103235028Y-102067631D01*
X103254528Y-102038448D01*
X103312380Y-101747609D01*
X103312380Y-101357020D01*
X103802380Y-101357020D01*
X104050145Y-101307737D01*
X104260189Y-101167389D01*
X104400537Y-100957345D01*
X104449820Y-100709580D01*
X104449820Y-100359580D01*
X104424956Y-100234580D01*
X104433687Y-100190689D01*
X106519999Y-102277001D01*
X106519999Y-102538878D01*
X106294485Y-102632058D01*
X106003081Y-102922954D01*
X105845180Y-103303223D01*
X105844821Y-103714971D01*
X106002058Y-104095515D01*
X106278570Y-104372510D01*
X104928987Y-105722093D01*
X104817023Y-105483682D01*
X104388764Y-105093395D01*
X103978730Y-104923564D01*
X103748840Y-105044885D01*
X103748840Y-106238040D01*
X103768840Y-106238040D01*
X103768840Y-106492040D01*
X103748840Y-106492040D01*
X103748840Y-106512040D01*
X103494840Y-106512040D01*
X103494840Y-106492040D01*
X103474840Y-106492040D01*
X103474840Y-106238040D01*
X103494840Y-106238040D01*
X103494840Y-105044885D01*
X103264950Y-104923564D01*
X102854916Y-105093395D01*
X102426657Y-105483682D01*
X102359542Y-105626593D01*
X102131894Y-105285893D01*
X101650125Y-104963986D01*
X101081840Y-104850947D01*
X100513555Y-104963986D01*
X100031786Y-105285893D01*
X99804138Y-105626593D01*
X99737023Y-105483682D01*
X99308764Y-105093395D01*
X98898730Y-104923564D01*
X98668840Y-105044885D01*
X98668840Y-106238040D01*
X98688840Y-106238040D01*
X98688840Y-106492040D01*
X98668840Y-106492040D01*
X98668840Y-106512040D01*
X98414840Y-106512040D01*
X98414840Y-106492040D01*
X98394840Y-106492040D01*
X98394840Y-106238040D01*
X98414840Y-106238040D01*
X98414840Y-105044885D01*
X98184950Y-104923564D01*
X97774916Y-105093395D01*
X97470579Y-105370748D01*
X97449997Y-105267275D01*
X97309649Y-105057231D01*
X97099605Y-104916883D01*
X96851840Y-104867600D01*
X95151840Y-104867600D01*
X94904075Y-104916883D01*
X94694031Y-105057231D01*
X94553683Y-105267275D01*
X94504400Y-105515040D01*
X94504400Y-106049598D01*
X91534451Y-103079649D01*
X97067210Y-103079649D01*
X97216851Y-103441809D01*
X97493694Y-103719135D01*
X97855592Y-103869408D01*
X98247449Y-103869750D01*
X98609609Y-103720109D01*
X98886935Y-103443266D01*
X99037208Y-103081368D01*
X99037550Y-102689511D01*
X98887909Y-102327351D01*
X98611066Y-102050025D01*
X98249168Y-101899752D01*
X97857311Y-101899410D01*
X97495151Y-102049051D01*
X97217825Y-102325894D01*
X97067552Y-102687792D01*
X97067210Y-103079649D01*
X91534451Y-103079649D01*
X89597401Y-101142599D01*
X89350839Y-100977852D01*
X89113245Y-100930591D01*
X89186919Y-100857046D01*
X89344820Y-100476777D01*
X89345179Y-100065029D01*
X89187942Y-99684485D01*
X88897046Y-99393081D01*
X88516777Y-99235180D01*
X88105029Y-99234821D01*
X87724485Y-99392058D01*
X87606337Y-99510000D01*
X87542537Y-99510000D01*
X87542819Y-99186344D01*
X87385582Y-98805800D01*
X87094686Y-98514396D01*
X86714417Y-98356495D01*
X86547476Y-98356349D01*
X82653726Y-94462599D01*
X82407164Y-94297852D01*
X82116325Y-94240000D01*
X80513761Y-94240000D01*
X80397046Y-94123081D01*
X80016777Y-93965180D01*
X79605029Y-93964821D01*
X79224485Y-94122058D01*
X78933081Y-94412954D01*
X78775180Y-94793223D01*
X78774821Y-95204971D01*
X78932058Y-95585515D01*
X79222954Y-95876919D01*
X79603223Y-96034820D01*
X80014971Y-96035179D01*
X80395515Y-95877942D01*
X80513663Y-95760000D01*
X81801523Y-95760000D01*
X82471523Y-96430000D01*
X80423761Y-96430000D01*
X80307046Y-96313081D01*
X79926777Y-96155180D01*
X79515029Y-96154821D01*
X79134485Y-96312058D01*
X78843081Y-96602954D01*
X78685180Y-96983223D01*
X78684821Y-97394971D01*
X78691444Y-97411000D01*
X78530560Y-97411000D01*
X78530560Y-97321000D01*
X78481277Y-97073235D01*
X78340929Y-96863191D01*
X78130885Y-96722843D01*
X78027412Y-96702261D01*
X78304765Y-96397924D01*
X78474596Y-95987890D01*
X78353275Y-95758000D01*
X77160120Y-95758000D01*
X77160120Y-95778000D01*
X76906120Y-95778000D01*
X76906120Y-95758000D01*
X75712965Y-95758000D01*
X75591644Y-95987890D01*
X75761475Y-96397924D01*
X76038828Y-96702261D01*
X75935355Y-96722843D01*
X75725311Y-96863191D01*
X75584963Y-97073235D01*
X75535680Y-97321000D01*
X75535680Y-99021000D01*
X75584963Y-99268765D01*
X75725311Y-99478809D01*
X75935355Y-99619157D01*
X76183120Y-99668440D01*
X77286758Y-99668440D01*
X75362599Y-101592599D01*
X75197852Y-101839161D01*
X75140000Y-102130000D01*
X75140000Y-104736239D01*
X75023081Y-104852954D01*
X74865180Y-105233223D01*
X74864821Y-105644971D01*
X75022058Y-106025515D01*
X75312954Y-106316919D01*
X75693223Y-106474820D01*
X76104971Y-106475179D01*
X76485515Y-106317942D01*
X76776919Y-106027046D01*
X76934820Y-105646777D01*
X76935179Y-105235029D01*
X76777942Y-104854485D01*
X76660000Y-104736337D01*
X76660000Y-103805323D01*
X76722058Y-103955515D01*
X77012954Y-104246919D01*
X77393223Y-104404820D01*
X77804971Y-104405179D01*
X78185515Y-104247942D01*
X78303663Y-104130000D01*
X79320000Y-104130000D01*
X79320000Y-105686239D01*
X79203081Y-105802954D01*
X79045180Y-106183223D01*
X79044821Y-106594971D01*
X79202058Y-106975515D01*
X79492954Y-107266919D01*
X79873223Y-107424820D01*
X80284971Y-107425179D01*
X80665515Y-107267942D01*
X80956919Y-106977046D01*
X81114820Y-106596777D01*
X81114896Y-106509698D01*
X81254965Y-106649767D01*
X81254821Y-106814971D01*
X81412058Y-107195515D01*
X81702954Y-107486919D01*
X82083223Y-107644820D01*
X82494971Y-107645179D01*
X82875515Y-107487942D01*
X83166919Y-107197046D01*
X83324820Y-106816777D01*
X83325179Y-106405029D01*
X83167942Y-106024485D01*
X83023709Y-105880000D01*
X86701047Y-105880000D01*
X86502599Y-106012599D01*
X86250233Y-106264965D01*
X86085029Y-106264821D01*
X85704485Y-106422058D01*
X85413081Y-106712954D01*
X85255180Y-107093223D01*
X85254821Y-107504971D01*
X85412058Y-107885515D01*
X85702954Y-108176919D01*
X86083223Y-108334820D01*
X86494971Y-108335179D01*
X86875515Y-108177942D01*
X87166919Y-107887046D01*
X87324820Y-107506777D01*
X87324966Y-107339836D01*
X87354802Y-107310000D01*
X88530000Y-107310000D01*
X88820839Y-107252148D01*
X89067401Y-107087401D01*
X89397401Y-106757401D01*
X89562148Y-106510840D01*
X89585362Y-106394133D01*
X89620000Y-106220000D01*
X89620000Y-105584802D01*
X93772599Y-109737401D01*
X94019161Y-109902148D01*
X94310000Y-109960000D01*
X97716239Y-109960000D01*
X97832954Y-110076919D01*
X98213223Y-110234820D01*
X98624971Y-110235179D01*
X99005515Y-110077942D01*
X99296919Y-109787046D01*
X99454820Y-109406777D01*
X99455179Y-108995029D01*
X99297942Y-108614485D01*
X99143726Y-108460000D01*
X104025882Y-108460000D01*
X104316721Y-108402148D01*
X104563283Y-108237401D01*
X109300730Y-103499954D01*
X109402599Y-103652411D01*
X109618664Y-103868476D01*
X109618520Y-104033680D01*
X109775757Y-104414224D01*
X110066653Y-104705628D01*
X110446922Y-104863529D01*
X110858670Y-104863888D01*
X111239214Y-104706651D01*
X111530618Y-104415755D01*
X111688519Y-104035486D01*
X111688878Y-103623738D01*
X111531641Y-103243194D01*
X111240745Y-102951790D01*
X110860476Y-102793889D01*
X110700000Y-102793749D01*
X110700000Y-102543761D01*
X110770014Y-102473869D01*
X110832954Y-102536919D01*
X111213223Y-102694820D01*
X111624971Y-102695179D01*
X112005515Y-102537942D01*
X112150000Y-102393709D01*
X112150000Y-107246239D01*
X112033081Y-107362954D01*
X111875180Y-107743223D01*
X111874930Y-108030000D01*
X106403761Y-108030000D01*
X106287046Y-107913081D01*
X105906777Y-107755180D01*
X105495029Y-107754821D01*
X105114485Y-107912058D01*
X104823081Y-108202954D01*
X104665180Y-108583223D01*
X104664821Y-108994971D01*
X104822058Y-109375515D01*
X105112954Y-109666919D01*
X105493223Y-109824820D01*
X105904971Y-109825179D01*
X106285515Y-109667942D01*
X106403663Y-109550000D01*
X114022016Y-109550000D01*
X114312855Y-109492148D01*
X114559417Y-109327401D01*
X118094989Y-105791829D01*
X118094989Y-106816538D01*
X117869475Y-106909718D01*
X117578071Y-107200614D01*
X117420170Y-107580883D01*
X117419811Y-107992631D01*
X117577048Y-108373175D01*
X117867944Y-108664579D01*
X118248213Y-108822480D01*
X118659961Y-108822839D01*
X119040505Y-108665602D01*
X119041291Y-108664817D01*
X119292954Y-108916919D01*
X119673223Y-109074820D01*
X120084971Y-109075179D01*
X120465515Y-108917942D01*
X120756919Y-108627046D01*
X120914820Y-108246777D01*
X120915179Y-107835029D01*
X120757942Y-107454485D01*
X120640000Y-107336337D01*
X120640000Y-107308691D01*
X120867148Y-107415366D01*
X121097040Y-107294699D01*
X121097040Y-106100880D01*
X121077040Y-106100880D01*
X121077040Y-105846880D01*
X121097040Y-105846880D01*
X121097040Y-105826880D01*
X121351040Y-105826880D01*
X121351040Y-105846880D01*
X121371040Y-105846880D01*
X121371040Y-106100880D01*
X121351040Y-106100880D01*
X121351040Y-107294699D01*
X121580932Y-107415366D01*
X121639041Y-107388076D01*
X121639041Y-110115572D01*
X119709600Y-112045013D01*
X97105153Y-112045013D01*
X97105179Y-112015029D01*
X96947942Y-111634485D01*
X96657046Y-111343081D01*
X96276777Y-111185180D01*
X95865029Y-111184821D01*
X95484485Y-111342058D01*
X95193081Y-111632954D01*
X95035180Y-112013223D01*
X95034821Y-112424971D01*
X95192058Y-112805515D01*
X95322097Y-112935781D01*
X72819520Y-112823246D01*
X70257180Y-110484140D01*
X70259701Y-109698651D01*
X70661410Y-109698651D01*
X70668023Y-109765810D01*
X70661410Y-109832965D01*
X70692160Y-110145115D01*
X70711744Y-110209670D01*
X70718356Y-110276806D01*
X70809406Y-110576956D01*
X70841211Y-110636459D01*
X70860797Y-110701023D01*
X71008657Y-110977643D01*
X71051450Y-111029785D01*
X71083245Y-111089274D01*
X71282215Y-111331734D01*
X71334382Y-111374548D01*
X71377196Y-111426715D01*
X71619656Y-111625685D01*
X71679145Y-111657480D01*
X71731287Y-111700273D01*
X72007907Y-111848133D01*
X72072471Y-111867719D01*
X72131974Y-111899524D01*
X72432124Y-111990574D01*
X72499257Y-111997186D01*
X72563811Y-112016770D01*
X72875941Y-112047520D01*
X72943100Y-112040907D01*
X73010255Y-112047520D01*
X73322405Y-112016770D01*
X73386955Y-111997188D01*
X73454090Y-111990576D01*
X73754250Y-111899526D01*
X73813761Y-111867717D01*
X73878332Y-111848128D01*
X74154942Y-111700268D01*
X74207079Y-111657478D01*
X74266564Y-111625685D01*
X74509024Y-111426715D01*
X74551834Y-111374554D01*
X74603994Y-111331747D01*
X74802974Y-111089287D01*
X74834775Y-111029792D01*
X74877573Y-110977643D01*
X75025433Y-110701023D01*
X75045022Y-110636449D01*
X75076830Y-110576936D01*
X75167870Y-110276786D01*
X75174479Y-110209660D01*
X75194060Y-110145115D01*
X75224810Y-109832964D01*
X75218197Y-109765810D01*
X75224810Y-109698651D01*
X75194060Y-109386521D01*
X75174480Y-109321981D01*
X75167872Y-109254860D01*
X75076832Y-108954700D01*
X75045020Y-108895179D01*
X75025428Y-108830598D01*
X74877568Y-108553988D01*
X74834772Y-108501844D01*
X74802974Y-108442353D01*
X74603994Y-108199893D01*
X74551839Y-108157091D01*
X74509037Y-108104936D01*
X74266577Y-107905956D01*
X74207086Y-107874158D01*
X74154942Y-107831362D01*
X73878332Y-107683502D01*
X73813751Y-107663910D01*
X73754230Y-107632098D01*
X73454070Y-107541058D01*
X73386950Y-107534450D01*
X73322409Y-107514870D01*
X73010279Y-107484120D01*
X72943120Y-107490733D01*
X72875966Y-107484120D01*
X72563815Y-107514870D01*
X72499270Y-107534451D01*
X72432144Y-107541060D01*
X72131994Y-107632100D01*
X72072481Y-107663908D01*
X72007907Y-107683497D01*
X71731287Y-107831357D01*
X71679138Y-107874155D01*
X71619643Y-107905956D01*
X71377183Y-108104936D01*
X71334376Y-108157096D01*
X71282215Y-108199906D01*
X71083245Y-108442366D01*
X71051452Y-108501851D01*
X71008662Y-108553988D01*
X70860802Y-108830598D01*
X70841213Y-108895169D01*
X70809404Y-108954680D01*
X70718354Y-109254840D01*
X70711743Y-109321971D01*
X70692160Y-109386521D01*
X70661410Y-109698651D01*
X70259701Y-109698651D01*
X70352799Y-80698645D01*
X70661411Y-80698645D01*
X70668024Y-80765810D01*
X70661411Y-80832975D01*
X70692161Y-81145075D01*
X70711740Y-81209610D01*
X70718347Y-81276726D01*
X70809397Y-81576926D01*
X70841212Y-81636453D01*
X70860807Y-81701041D01*
X71008667Y-81977641D01*
X71051437Y-82029752D01*
X71083210Y-82089211D01*
X71282180Y-82331711D01*
X71334345Y-82374531D01*
X71377157Y-82426703D01*
X71619617Y-82625702D01*
X71679175Y-82657540D01*
X71731389Y-82700377D01*
X72008010Y-82848178D01*
X72072475Y-82867722D01*
X72131874Y-82899483D01*
X72432024Y-82990584D01*
X72499261Y-82997216D01*
X72563919Y-83016821D01*
X72876049Y-83047520D01*
X72943095Y-83040907D01*
X73010146Y-83047521D01*
X73322296Y-83016821D01*
X73386954Y-82997217D01*
X73454190Y-82990585D01*
X73754350Y-82899485D01*
X73813760Y-82867719D01*
X73878230Y-82848172D01*
X74154840Y-82700372D01*
X74207046Y-82657540D01*
X74266603Y-82625703D01*
X74509063Y-82426703D01*
X74551871Y-82374536D01*
X74604029Y-82331724D01*
X74803009Y-82089224D01*
X74834787Y-82029759D01*
X74877563Y-81977641D01*
X75025423Y-81701041D01*
X75045021Y-81636443D01*
X75076839Y-81576906D01*
X75167879Y-81276706D01*
X75174483Y-81209600D01*
X75194059Y-81145075D01*
X75224809Y-80832975D01*
X75218196Y-80765810D01*
X75224809Y-80698645D01*
X75194059Y-80386545D01*
X75174483Y-80322020D01*
X75167879Y-80254914D01*
X75076839Y-79954714D01*
X75045021Y-79895177D01*
X75025423Y-79830579D01*
X74877563Y-79553979D01*
X74834787Y-79501861D01*
X74803009Y-79442396D01*
X74604029Y-79199896D01*
X74551808Y-79157032D01*
X74508933Y-79104810D01*
X74266473Y-78905910D01*
X74207067Y-78874172D01*
X74155010Y-78831438D01*
X73878400Y-78683538D01*
X73813743Y-78663915D01*
X73754150Y-78632074D01*
X73453990Y-78541074D01*
X73386963Y-78534483D01*
X73322517Y-78514921D01*
X73010387Y-78484121D01*
X72943125Y-78490733D01*
X72875857Y-78484120D01*
X72563707Y-78514920D01*
X72499254Y-78534484D01*
X72432224Y-78541076D01*
X72132074Y-78632076D01*
X72072489Y-78663913D01*
X72007840Y-78683533D01*
X71731219Y-78831433D01*
X71679157Y-78874170D01*
X71619747Y-78905910D01*
X71377287Y-79104810D01*
X71334408Y-79157037D01*
X71282180Y-79199909D01*
X71083210Y-79442409D01*
X71051437Y-79501868D01*
X71008667Y-79553979D01*
X70860807Y-79830579D01*
X70841212Y-79895167D01*
X70809397Y-79954694D01*
X70718347Y-80254894D01*
X70711740Y-80322010D01*
X70692161Y-80386545D01*
X70661411Y-80698645D01*
X70352799Y-80698645D01*
X70356825Y-79444714D01*
X72396876Y-77507958D01*
X72976790Y-77450810D01*
X124909442Y-77450810D01*
X125285318Y-77487853D01*
G36*
X116322490Y-92869569D02*
X116322344Y-93036510D01*
X110882599Y-98476255D01*
X110717852Y-98722817D01*
X110660000Y-99013656D01*
X110660000Y-100956239D01*
X110589986Y-101026131D01*
X110527046Y-100963081D01*
X110146777Y-100805180D01*
X109735029Y-100804821D01*
X109650000Y-100839954D01*
X109650000Y-98230000D01*
X109629170Y-98125282D01*
X109592148Y-97939160D01*
X109427401Y-97692599D01*
X108731981Y-96997179D01*
X108485419Y-96832432D01*
X108194580Y-96774580D01*
X104449820Y-96774580D01*
X104449820Y-96759580D01*
X104424956Y-96634580D01*
X104449820Y-96509580D01*
X104449820Y-96159580D01*
X104424956Y-96034580D01*
X104449820Y-95909580D01*
X104449820Y-95559580D01*
X104424956Y-95434580D01*
X104449820Y-95309580D01*
X104449820Y-94959580D01*
X104424956Y-94834580D01*
X104449820Y-94709580D01*
X104449820Y-94474622D01*
X105134965Y-95159767D01*
X105134821Y-95324971D01*
X105292058Y-95705515D01*
X105582954Y-95996919D01*
X105963223Y-96154820D01*
X106374971Y-96155179D01*
X106755515Y-95997942D01*
X107046919Y-95707046D01*
X107204820Y-95326777D01*
X107205179Y-94915029D01*
X107124374Y-94719465D01*
X107196919Y-94647046D01*
X107354820Y-94266777D01*
X107355179Y-93855029D01*
X107197942Y-93474485D01*
X106907046Y-93183081D01*
X106526777Y-93025180D01*
X106359836Y-93025034D01*
X105964793Y-92629991D01*
X116421971Y-92629991D01*
X116322490Y-92869569D01*
X116322490Y-92869569D01*
G37*
X116322490Y-92869569D02*
X116322344Y-93036510D01*
X110882599Y-98476255D01*
X110717852Y-98722817D01*
X110660000Y-99013656D01*
X110660000Y-100956239D01*
X110589986Y-101026131D01*
X110527046Y-100963081D01*
X110146777Y-100805180D01*
X109735029Y-100804821D01*
X109650000Y-100839954D01*
X109650000Y-98230000D01*
X109629170Y-98125282D01*
X109592148Y-97939160D01*
X109427401Y-97692599D01*
X108731981Y-96997179D01*
X108485419Y-96832432D01*
X108194580Y-96774580D01*
X104449820Y-96774580D01*
X104449820Y-96759580D01*
X104424956Y-96634580D01*
X104449820Y-96509580D01*
X104449820Y-96159580D01*
X104424956Y-96034580D01*
X104449820Y-95909580D01*
X104449820Y-95559580D01*
X104424956Y-95434580D01*
X104449820Y-95309580D01*
X104449820Y-94959580D01*
X104424956Y-94834580D01*
X104449820Y-94709580D01*
X104449820Y-94474622D01*
X105134965Y-95159767D01*
X105134821Y-95324971D01*
X105292058Y-95705515D01*
X105582954Y-95996919D01*
X105963223Y-96154820D01*
X106374971Y-96155179D01*
X106755515Y-95997942D01*
X107046919Y-95707046D01*
X107204820Y-95326777D01*
X107205179Y-94915029D01*
X107124374Y-94719465D01*
X107196919Y-94647046D01*
X107354820Y-94266777D01*
X107355179Y-93855029D01*
X107197942Y-93474485D01*
X106907046Y-93183081D01*
X106526777Y-93025180D01*
X106359836Y-93025034D01*
X105964793Y-92629991D01*
X116421971Y-92629991D01*
X116322490Y-92869569D01*
G36*
X121249440Y-95717360D02*
X121269440Y-95717360D01*
X121269440Y-95971360D01*
X121249440Y-95971360D01*
X121249440Y-95991360D01*
X120995440Y-95991360D01*
X120995440Y-95971360D01*
X120975440Y-95971360D01*
X120975440Y-95717360D01*
X120995440Y-95717360D01*
X120995440Y-95697360D01*
X121249440Y-95697360D01*
X121249440Y-95717360D01*
X121249440Y-95717360D01*
G37*
X121249440Y-95717360D02*
X121269440Y-95717360D01*
X121269440Y-95971360D01*
X121249440Y-95971360D01*
X121249440Y-95991360D01*
X120995440Y-95991360D01*
X120995440Y-95971360D01*
X120975440Y-95971360D01*
X120975440Y-95717360D01*
X120995440Y-95717360D01*
X120995440Y-95697360D01*
X121249440Y-95697360D01*
X121249440Y-95717360D01*
M02*
