G04 #@! TF.GenerationSoftware,KiCad,Pcbnew,no-vcs-found-ecdfa40~58~ubuntu16.04.1*
G04 #@! TF.CreationDate,2017-03-20T23:24:32+01:00*
G04 #@! TF.ProjectId,GhostSensorboard,47686F737453656E736F72626F617264,rev?*
G04 #@! TF.FileFunction,Profile,NP*
%FSLAX46Y46*%
G04 Gerber Fmt 4.6, Leading zero omitted, Abs format (unit mm)*
G04 Created by KiCad (PCBNEW no-vcs-found-ecdfa40~58~ubuntu16.04.1) date Mon Mar 20 23:24:32 2017*
%MOMM*%
%LPD*%
G01*
G04 APERTURE LIST*
%ADD10C,0.100000*%
G04 APERTURE END LIST*
D10*
X74074480Y-110897190D02*
X73832020Y-111096160D01*
X74273460Y-110654730D02*
X74074480Y-110897190D01*
X126421320Y-81378110D02*
X126273420Y-81654710D01*
X126512320Y-81077910D02*
X126421320Y-81378110D01*
X71811740Y-108634450D02*
X72054200Y-108435470D01*
X71612770Y-108876910D02*
X71811740Y-108634450D01*
X123811720Y-108634450D02*
X124054220Y-108435470D01*
X123612720Y-108876910D02*
X123811720Y-108634450D01*
X124943120Y-108165820D02*
X125255220Y-108196570D01*
X124631020Y-108196570D02*
X124943120Y-108165820D01*
X127165420Y-77439910D02*
X126473820Y-77070310D01*
X74543110Y-80765810D02*
X74512360Y-81077910D01*
X74512360Y-80453710D02*
X74543110Y-80765810D01*
X127771520Y-112594240D02*
X128269020Y-111988100D01*
X71343110Y-109765810D02*
X71373860Y-109453680D01*
X71373860Y-110077960D02*
X71343110Y-109765810D01*
X124330820Y-79287610D02*
X124631020Y-79196610D01*
X124054220Y-79435510D02*
X124330820Y-79287610D01*
X124943120Y-82365810D02*
X124631020Y-82335110D01*
X125255220Y-82335110D02*
X124943120Y-82365810D01*
X128638620Y-79235110D02*
X128269020Y-78543510D01*
X70720830Y-77439910D02*
X70114690Y-77937410D01*
X126421320Y-80153510D02*
X126512320Y-80453710D01*
X126273420Y-79876910D02*
X126421320Y-80153510D01*
X123464920Y-81378110D02*
X123373820Y-81077910D01*
X123612720Y-81654710D02*
X123464920Y-81378110D01*
X125555420Y-108287610D02*
X125832020Y-108435470D01*
X125255220Y-108196570D02*
X125555420Y-108287610D01*
X126074520Y-110897190D02*
X125832020Y-111096160D01*
X126273420Y-110654730D02*
X126074520Y-110897190D01*
X72330820Y-79287610D02*
X72630970Y-79196610D01*
X72054200Y-79435510D02*
X72330820Y-79287610D01*
X72943120Y-76765810D02*
X72162760Y-76842710D01*
X73555410Y-82244010D02*
X73255250Y-82335110D01*
X73832020Y-82096210D02*
X73555410Y-82244010D01*
X73555410Y-79287610D02*
X73832020Y-79435510D01*
X73255250Y-79196610D02*
X73555410Y-79287610D01*
X125555420Y-79287610D02*
X125832020Y-79435510D01*
X125255220Y-79196610D02*
X125555420Y-79287610D01*
X71343110Y-80765810D02*
X71373860Y-80453710D01*
X71373860Y-81077910D02*
X71343110Y-80765810D01*
X72943120Y-79165810D02*
X73255250Y-79196610D01*
X72630970Y-79196610D02*
X72943120Y-79165810D01*
X123811720Y-81897210D02*
X123612720Y-81654710D01*
X124054220Y-82096210D02*
X123811720Y-81897210D01*
X74421320Y-80153510D02*
X74512360Y-80453710D01*
X74273460Y-79876910D02*
X74421320Y-80153510D01*
X128943120Y-109765810D02*
X128943120Y-80765810D01*
X70114690Y-77937410D02*
X69617238Y-78543510D01*
X126421320Y-109153520D02*
X126512320Y-109453680D01*
X126273420Y-108876910D02*
X126421320Y-109153520D01*
X71811740Y-110897190D02*
X71612770Y-110654730D01*
X72054200Y-111096160D02*
X71811740Y-110897190D01*
X73555410Y-108287610D02*
X73832020Y-108435470D01*
X73255250Y-108196570D02*
X73555410Y-108287610D01*
X72330820Y-111244020D02*
X72054200Y-111096160D01*
X72630970Y-111335070D02*
X72330820Y-111244020D01*
X72162760Y-113688951D02*
X72943100Y-113765810D01*
X71412370Y-113461336D02*
X72162760Y-113688951D01*
X123811720Y-79634410D02*
X124054220Y-79435510D01*
X123612720Y-79876910D02*
X123811720Y-79634410D01*
X126074520Y-81897210D02*
X125832020Y-82096210D01*
X126273420Y-81654710D02*
X126074520Y-81897210D01*
X125555420Y-111244020D02*
X125255220Y-111335070D01*
X125832020Y-111096160D02*
X125555420Y-111244020D01*
X71412370Y-77070310D02*
X70720830Y-77439910D01*
X71464910Y-110378110D02*
X71373860Y-110077960D01*
X71612770Y-110654730D02*
X71464910Y-110378110D01*
X74421320Y-110378110D02*
X74273460Y-110654730D01*
X74512360Y-110077960D02*
X74421320Y-110378110D01*
X123811720Y-110897190D02*
X123612720Y-110654730D01*
X124054220Y-111096160D02*
X123811720Y-110897190D01*
X124330820Y-82244010D02*
X124054220Y-82096210D01*
X124631020Y-82335110D02*
X124330820Y-82244010D01*
X123464920Y-109153520D02*
X123612720Y-108876910D01*
X123373820Y-109453680D02*
X123464920Y-109153520D01*
X74074480Y-108634450D02*
X74273460Y-108876910D01*
X73832020Y-108435470D02*
X74074480Y-108634450D01*
X72943120Y-108165820D02*
X73255250Y-108196570D01*
X72630970Y-108196570D02*
X72943120Y-108165820D01*
X123343120Y-109765810D02*
X123373820Y-109453680D01*
X123373820Y-110077960D02*
X123343120Y-109765810D01*
X72943100Y-82365810D02*
X72630970Y-82335110D01*
X73255250Y-82335110D02*
X72943100Y-82365810D01*
X126543120Y-80765810D02*
X126512320Y-81077910D01*
X126512320Y-80453710D02*
X126543120Y-80765810D01*
X123464920Y-80153510D02*
X123612720Y-79876910D01*
X123373820Y-80453710D02*
X123464920Y-80153510D01*
X71464910Y-109153520D02*
X71612770Y-108876910D01*
X71373860Y-109453680D02*
X71464910Y-109153520D01*
X124330820Y-108287610D02*
X124631020Y-108196570D01*
X124054220Y-108435470D02*
X124330820Y-108287610D01*
X72943100Y-111365820D02*
X72630970Y-111335070D01*
X73255250Y-111335070D02*
X72943100Y-111365820D01*
X74421320Y-109153520D02*
X74512360Y-109453680D01*
X74273460Y-108876910D02*
X74421320Y-109153520D01*
X126421320Y-110378110D02*
X126273420Y-110654730D01*
X126512320Y-110077960D02*
X126421320Y-110378110D01*
X71464910Y-80153510D02*
X71612770Y-79876910D01*
X71373860Y-80453710D02*
X71464910Y-80153510D01*
X124330820Y-111244020D02*
X124054220Y-111096160D01*
X124631020Y-111335070D02*
X124330820Y-111244020D01*
X124943120Y-111365820D02*
X124631020Y-111335070D01*
X125255220Y-111335070D02*
X124943120Y-111365820D01*
X127771520Y-77937410D02*
X127165420Y-77439910D01*
X74074480Y-81897210D02*
X73832020Y-82096210D01*
X74273460Y-81654710D02*
X74074480Y-81897210D01*
X72162760Y-76842710D02*
X71412370Y-77070310D01*
X123464920Y-110378110D02*
X123373820Y-110077960D01*
X123612720Y-110654730D02*
X123464920Y-110378110D01*
X128943120Y-80765810D02*
X128866220Y-79985510D01*
X126473820Y-77070310D02*
X125723420Y-76842710D01*
X72330820Y-108287610D02*
X72630970Y-108196570D01*
X72054200Y-108435470D02*
X72330820Y-108287610D01*
X125555420Y-82244010D02*
X125255220Y-82335110D01*
X125832020Y-82096210D02*
X125555420Y-82244010D01*
X73555410Y-111244020D02*
X73255250Y-111335070D01*
X73832020Y-111096160D02*
X73555410Y-111244020D01*
X74421320Y-81378110D02*
X74273460Y-81654710D01*
X74512360Y-81077910D02*
X74421320Y-81378110D01*
X125723420Y-113688951D02*
X126473820Y-113461336D01*
X128269020Y-78543510D02*
X127771520Y-77937410D01*
X124943120Y-79165810D02*
X125255220Y-79196610D01*
X124631020Y-79196610D02*
X124943120Y-79165810D01*
X71811740Y-81897210D02*
X71612770Y-81654710D01*
X72054200Y-82096210D02*
X71811740Y-81897210D01*
X69247594Y-79235110D02*
X69019978Y-79985510D01*
X69617238Y-78543510D02*
X69247594Y-79235110D01*
X74074480Y-79634410D02*
X74273460Y-79876910D01*
X73832020Y-79435510D02*
X74074480Y-79634410D01*
X70720830Y-113091692D02*
X71412370Y-113461336D01*
X70114690Y-112594240D02*
X70720830Y-113091692D01*
X128269020Y-111988100D02*
X128638620Y-111296560D01*
X71464910Y-81378110D02*
X71373860Y-81077910D01*
X71612770Y-81654710D02*
X71464910Y-81378110D01*
X123343120Y-80765810D02*
X123373820Y-80453710D01*
X123373820Y-81077910D02*
X123343120Y-80765810D01*
X127165420Y-113091692D02*
X127771520Y-112594240D01*
X126473820Y-113461336D02*
X127165420Y-113091692D01*
X72330820Y-82244010D02*
X72054200Y-82096210D01*
X72630970Y-82335110D02*
X72330820Y-82244010D01*
X126074520Y-79634410D02*
X126273420Y-79876910D01*
X125832020Y-79435510D02*
X126074520Y-79634410D01*
X124943120Y-76765810D02*
X72943120Y-76765810D01*
X124943120Y-113765810D02*
X125723420Y-113688951D01*
X72943100Y-113765810D02*
X124943120Y-113765810D01*
X128866220Y-79985510D02*
X128638620Y-79235110D01*
X69617238Y-111988100D02*
X70114690Y-112594240D01*
X69247594Y-111296560D02*
X69617238Y-111988100D01*
X69019978Y-110546170D02*
X69247594Y-111296560D01*
X68943120Y-109765810D02*
X69019978Y-110546170D01*
X68943120Y-80765810D02*
X68943120Y-109765810D01*
X69019978Y-79985510D02*
X68943120Y-80765810D01*
X126074520Y-108634450D02*
X126273420Y-108876910D01*
X125832020Y-108435470D02*
X126074520Y-108634450D01*
X74543110Y-109765810D02*
X74512360Y-110077960D01*
X74512360Y-109453680D02*
X74543110Y-109765810D01*
X128866220Y-110546170D02*
X128943120Y-109765810D01*
X71811740Y-79634410D02*
X72054200Y-79435510D01*
X71612770Y-79876910D02*
X71811740Y-79634410D01*
X128638620Y-111296560D02*
X128866220Y-110546170D01*
X125723420Y-76842710D02*
X124943120Y-76765810D01*
X126543120Y-109765810D02*
X126512320Y-110077960D01*
X126512320Y-109453680D02*
X126543120Y-109765810D01*
M02*
