  0
SECTION
  2
BLOCKS
  0
ENDSEC
  0
SECTION
  2
ENTITIES
  0
LINE
  8
0
 10
1.06532
 20
-8.43297
 11
1.59273
 21
-8.34944
  0
LINE
  8
0
 10
1.59273
 20
-8.34944
 11
2.11386
 21
-8.23296
  0
LINE
  8
0
 10
2.11386
 20
-8.23296
 11
2.62663
 21
-8.08397
  0
LINE
  8
0
 10
2.62663
 20
-8.08397
 11
3.12904
 21
-7.90309
  0
LINE
  8
0
 10
3.12904
 20
-7.90309
 11
3.61911
 21
-7.69102
  0
LINE
  8
0
 10
3.61911
 20
-7.69102
 11
3.71838
 21
-7.64044
  0
LINE
  8
0
 10
3.71838
 20
-7.64044
 11
2.23038
 21
-5.06313
  0
LINE
  8
0
 10
2.23038
 20
-5.06313
 11
3.26961
 21
-4.46313
  0
LINE
  8
0
 10
3.26961
 20
-4.46313
 11
4.75691
 21
-7.03923
  0
LINE
  8
0
 10
4.75691
 20
-7.03923
 11
4.99617
 21
-6.87663
  0
LINE
  8
0
 10
4.99617
 20
-6.87663
 11
5.41809
 21
-6.54936
  0
LINE
  8
0
 10
5.41809
 20
-6.54936
 11
5.81865
 21
-6.19623
  0
LINE
  8
0
 10
5.81865
 20
-6.19623
 11
6.19623
 21
-5.81865
  0
LINE
  8
0
 10
6.19623
 20
-5.81865
 11
6.54936
 21
-5.41809
  0
LINE
  8
0
 10
6.54936
 20
-5.41809
 11
6.87663
 21
-4.99617
  0
LINE
  8
0
 10
6.87663
 20
-4.99617
 11
7.03923
 21
-4.75691
  0
LINE
  8
0
 10
7.03923
 20
-4.75691
 11
4.46313
 21
-3.26961
  0
LINE
  8
0
 10
4.46313
 20
-3.26961
 11
5.06313
 21
-2.23038
  0
LINE
  8
0
 10
5.06313
 20
-2.23038
 11
7.64044
 21
-3.71838
  0
LINE
  8
0
 10
7.64044
 20
-3.71838
 11
7.69102
 21
-3.61911
  0
LINE
  8
0
 10
7.69102
 20
-3.61911
 11
7.90309
 21
-3.12904
  0
LINE
  8
0
 10
7.90309
 20
-3.12904
 11
8.08397
 21
-2.62663
  0
LINE
  8
0
 10
8.08397
 20
-2.62663
 11
8.23296
 21
-2.11386
  0
LINE
  8
0
 10
8.23296
 20
-2.11386
 11
8.34944
 21
-1.59273
  0
LINE
  8
0
 10
8.34944
 20
-1.59273
 11
8.43297
 21
-1.06532
  0
LINE
  8
0
 10
8.43297
 20
-1.06532
 11
8.47696
 21
-0.599991
  0
LINE
  8
0
 10
8.47696
 20
-0.599991
 11
5.5
 21
-0.599991
  0
LINE
  8
0
 10
5.5
 20
-0.599991
 11
5.5
 21
0.599991
  0
LINE
  8
0
 10
5.5
 20
0.599991
 11
8.47696
 21
0.599991
  0
LINE
  8
0
 10
8.47696
 20
0.599991
 11
8.43297
 21
1.06532
  0
LINE
  8
0
 10
8.43297
 20
1.06532
 11
8.34944
 21
1.59273
  0
LINE
  8
0
 10
8.34944
 20
1.59273
 11
8.23296
 21
2.11386
  0
LINE
  8
0
 10
8.23296
 20
2.11386
 11
8.08397
 21
2.62663
  0
LINE
  8
0
 10
8.08397
 20
2.62663
 11
7.90309
 21
3.12904
  0
LINE
  8
0
 10
7.90309
 20
3.12904
 11
7.69102
 21
3.61911
  0
LINE
  8
0
 10
7.69102
 20
3.61911
 11
7.64044
 21
3.71838
  0
LINE
  8
0
 10
7.64044
 20
3.71838
 11
5.06313
 21
2.23038
  0
LINE
  8
0
 10
5.06313
 20
2.23038
 11
4.46313
 21
3.26961
  0
LINE
  8
0
 10
4.46313
 20
3.26961
 11
7.03923
 21
4.75691
  0
LINE
  8
0
 10
7.03923
 20
4.75691
 11
6.87663
 21
4.99617
  0
LINE
  8
0
 10
6.87663
 20
4.99617
 11
6.54936
 21
5.41809
  0
LINE
  8
0
 10
6.54936
 20
5.41809
 11
6.19623
 21
5.81865
  0
LINE
  8
0
 10
6.19623
 20
5.81865
 11
5.81865
 21
6.19623
  0
LINE
  8
0
 10
5.81865
 20
6.19623
 11
5.41809
 21
6.54936
  0
LINE
  8
0
 10
5.41809
 20
6.54936
 11
4.99617
 21
6.87663
  0
LINE
  8
0
 10
4.99617
 20
6.87663
 11
4.75691
 21
7.03923
  0
LINE
  8
0
 10
4.75691
 20
7.03923
 11
3.26961
 21
4.46313
  0
LINE
  8
0
 10
3.26961
 20
4.46313
 11
2.23038
 21
5.06313
  0
LINE
  8
0
 10
2.23038
 20
5.06313
 11
3.71838
 21
7.64044
  0
LINE
  8
0
 10
3.71838
 20
7.64044
 11
3.61911
 21
7.69102
  0
LINE
  8
0
 10
3.61911
 20
7.69102
 11
3.12904
 21
7.90309
  0
LINE
  8
0
 10
3.12904
 20
7.90309
 11
2.62663
 21
8.08397
  0
LINE
  8
0
 10
2.62663
 20
8.08397
 11
2.11386
 21
8.23296
  0
LINE
  8
0
 10
2.11386
 20
8.23296
 11
1.59273
 21
8.34944
  0
LINE
  8
0
 10
1.59273
 20
8.34944
 11
1.06532
 21
8.43297
  0
LINE
  8
0
 10
1.06532
 20
8.43297
 11
0.599991
 21
8.47696
  0
LINE
  8
0
 10
0.599991
 20
8.47696
 11
0.599991
 21
5.5
  0
LINE
  8
0
 10
0.599991
 20
5.5
 11
-0.599991
 21
5.5
  0
LINE
  8
0
 10
-0.599991
 20
5.5
 11
-0.599991
 21
8.47696
  0
LINE
  8
0
 10
-0.599991
 20
8.47696
 11
-1.06532
 21
8.43297
  0
LINE
  8
0
 10
-1.06532
 20
8.43297
 11
-1.59273
 21
8.34944
  0
LINE
  8
0
 10
-1.59273
 20
8.34944
 11
-2.11386
 21
8.23296
  0
LINE
  8
0
 10
-2.11386
 20
8.23296
 11
-2.62663
 21
8.08397
  0
LINE
  8
0
 10
-2.62663
 20
8.08397
 11
-3.12904
 21
7.90309
  0
LINE
  8
0
 10
-3.12904
 20
7.90309
 11
-3.61911
 21
7.69102
  0
LINE
  8
0
 10
-3.61911
 20
7.69102
 11
-3.71838
 21
7.64044
  0
LINE
  8
0
 10
-3.71838
 20
7.64044
 11
-2.23038
 21
5.06313
  0
LINE
  8
0
 10
-2.23038
 20
5.06313
 11
-3.26961
 21
4.46313
  0
LINE
  8
0
 10
-3.26961
 20
4.46313
 11
-4.75691
 21
7.03923
  0
LINE
  8
0
 10
-4.75691
 20
7.03923
 11
-4.99617
 21
6.87663
  0
LINE
  8
0
 10
-4.99617
 20
6.87663
 11
-5.41809
 21
6.54936
  0
LINE
  8
0
 10
-5.41809
 20
6.54936
 11
-5.81865
 21
6.19623
  0
LINE
  8
0
 10
-5.81865
 20
6.19623
 11
-6.19623
 21
5.81865
  0
LINE
  8
0
 10
-6.19623
 20
5.81865
 11
-6.54936
 21
5.41809
  0
LINE
  8
0
 10
-6.54936
 20
5.41809
 11
-6.87663
 21
4.99617
  0
LINE
  8
0
 10
-6.87663
 20
4.99617
 11
-7.03923
 21
4.75691
  0
LINE
  8
0
 10
-7.03923
 20
4.75691
 11
-4.46313
 21
3.26961
  0
LINE
  8
0
 10
-4.46313
 20
3.26961
 11
-5.06313
 21
2.23038
  0
LINE
  8
0
 10
-5.06313
 20
2.23038
 11
-7.64044
 21
3.71838
  0
LINE
  8
0
 10
-7.64044
 20
3.71838
 11
-7.69102
 21
3.61911
  0
LINE
  8
0
 10
-7.69102
 20
3.61911
 11
-7.90309
 21
3.12904
  0
LINE
  8
0
 10
-7.90309
 20
3.12904
 11
-8.08397
 21
2.62663
  0
LINE
  8
0
 10
-8.08397
 20
2.62663
 11
-8.23296
 21
2.11386
  0
LINE
  8
0
 10
-8.23296
 20
2.11386
 11
-8.34944
 21
1.59273
  0
LINE
  8
0
 10
-8.34944
 20
1.59273
 11
-8.43297
 21
1.06532
  0
LINE
  8
0
 10
-8.43297
 20
1.06532
 11
-8.47696
 21
0.599991
  0
LINE
  8
0
 10
-8.47696
 20
0.599991
 11
-5.5
 21
0.599991
  0
LINE
  8
0
 10
-5.5
 20
0.599991
 11
-5.5
 21
-0.599991
  0
LINE
  8
0
 10
-5.5
 20
-0.599991
 11
-8.47696
 21
-0.599991
  0
LINE
  8
0
 10
-8.47696
 20
-0.599991
 11
-8.43297
 21
-1.06532
  0
LINE
  8
0
 10
-8.43297
 20
-1.06532
 11
-8.34944
 21
-1.59273
  0
LINE
  8
0
 10
-8.34944
 20
-1.59273
 11
-8.23296
 21
-2.11386
  0
LINE
  8
0
 10
-8.23296
 20
-2.11386
 11
-8.08397
 21
-2.62663
  0
LINE
  8
0
 10
-8.08397
 20
-2.62663
 11
-7.90309
 21
-3.12904
  0
LINE
  8
0
 10
-7.90309
 20
-3.12904
 11
-7.69102
 21
-3.61911
  0
LINE
  8
0
 10
-7.69102
 20
-3.61911
 11
-7.64044
 21
-3.71838
  0
LINE
  8
0
 10
-7.64044
 20
-3.71838
 11
-5.06313
 21
-2.23038
  0
LINE
  8
0
 10
-5.06313
 20
-2.23038
 11
-4.46313
 21
-3.26961
  0
LINE
  8
0
 10
-4.46313
 20
-3.26961
 11
-7.03923
 21
-4.75691
  0
LINE
  8
0
 10
-7.03923
 20
-4.75691
 11
-6.87663
 21
-4.99617
  0
LINE
  8
0
 10
-6.87663
 20
-4.99617
 11
-6.54936
 21
-5.41809
  0
LINE
  8
0
 10
-6.54936
 20
-5.41809
 11
-6.19623
 21
-5.81865
  0
LINE
  8
0
 10
-6.19623
 20
-5.81865
 11
-5.81865
 21
-6.19623
  0
LINE
  8
0
 10
-5.81865
 20
-6.19623
 11
-5.41809
 21
-6.54936
  0
LINE
  8
0
 10
-5.41809
 20
-6.54936
 11
-4.99617
 21
-6.87663
  0
LINE
  8
0
 10
-4.99617
 20
-6.87663
 11
-4.75691
 21
-7.03923
  0
LINE
  8
0
 10
-4.75691
 20
-7.03923
 11
-3.26961
 21
-4.46313
  0
LINE
  8
0
 10
-3.26961
 20
-4.46313
 11
-2.23038
 21
-5.06313
  0
LINE
  8
0
 10
-2.23038
 20
-5.06313
 11
-3.71838
 21
-7.64044
  0
LINE
  8
0
 10
-3.71838
 20
-7.64044
 11
-3.61911
 21
-7.69102
  0
LINE
  8
0
 10
-3.61911
 20
-7.69102
 11
-3.12904
 21
-7.90309
  0
LINE
  8
0
 10
-3.12904
 20
-7.90309
 11
-2.62663
 21
-8.08397
  0
LINE
  8
0
 10
-2.62663
 20
-8.08397
 11
-2.11386
 21
-8.23296
  0
LINE
  8
0
 10
-2.11386
 20
-8.23296
 11
-1.59273
 21
-8.34944
  0
LINE
  8
0
 10
-1.59273
 20
-8.34944
 11
-1.06532
 21
-8.43297
  0
LINE
  8
0
 10
-1.06532
 20
-8.43297
 11
-0.599991
 21
-8.47696
  0
LINE
  8
0
 10
-0.599991
 20
-8.47696
 11
-0.599991
 21
-5.5
  0
LINE
  8
0
 10
-0.599991
 20
-5.5
 11
0.599991
 21
-5.5
  0
LINE
  8
0
 10
0.599991
 20
-5.5
 11
0.599991
 21
-8.47696
  0
LINE
  8
0
 10
0.599991
 20
-8.47696
 11
1.06532
 21
-8.43297
  0
LINE
  8
0
 10
-0.0565033
 20
-0.898224
 11
-0.112793
 21
-0.892899
  0
LINE
  8
0
 10
-0.112793
 20
-0.892899
 11
-0.16864
 21
-0.884048
  0
LINE
  8
0
 10
-0.16864
 20
-0.884048
 11
-0.223816
 21
-0.871719
  0
LINE
  8
0
 10
-0.223816
 20
-0.871719
 11
-0.278107
 21
-0.855942
  0
LINE
  8
0
 10
-0.278107
 20
-0.855942
 11
-0.331299
 21
-0.836792
  0
LINE
  8
0
 10
-0.331299
 20
-0.836792
 11
-0.383194
 21
-0.814331
  0
LINE
  8
0
 10
-0.383194
 20
-0.814331
 11
-0.433563
 21
-0.788666
  0
LINE
  8
0
 10
-0.433563
 20
-0.788666
 11
-0.482239
 21
-0.759888
  0
LINE
  8
0
 10
-0.482239
 20
-0.759888
 11
-0.528992
 21
-0.728104
  0
LINE
  8
0
 10
-0.528992
 20
-0.728104
 11
-0.573669
 21
-0.693451
  0
LINE
  8
0
 10
-0.573669
 20
-0.693451
 11
-0.616089
 21
-0.656067
  0
LINE
  8
0
 10
-0.616089
 20
-0.656067
 11
-0.656067
 21
-0.616089
  0
LINE
  8
0
 10
-0.656067
 20
-0.616089
 11
-0.693451
 21
-0.573669
  0
LINE
  8
0
 10
-0.693451
 20
-0.573669
 11
-0.728104
 21
-0.528992
  0
LINE
  8
0
 10
-0.728104
 20
-0.528992
 11
-0.759888
 21
-0.482239
  0
LINE
  8
0
 10
-0.759888
 20
-0.482239
 11
-0.788666
 21
-0.433563
  0
LINE
  8
0
 10
-0.788666
 20
-0.433563
 11
-0.814331
 21
-0.383194
  0
LINE
  8
0
 10
-0.814331
 20
-0.383194
 11
-0.836792
 21
-0.331299
  0
LINE
  8
0
 10
-0.836792
 20
-0.331299
 11
-0.855942
 21
-0.278107
  0
LINE
  8
0
 10
-0.855942
 20
-0.278107
 11
-0.871719
 21
-0.223816
  0
LINE
  8
0
 10
-0.871719
 20
-0.223816
 11
-0.884048
 21
-0.16864
  0
LINE
  8
0
 10
-0.884048
 20
-0.16864
 11
-0.892899
 21
-0.112793
  0
LINE
  8
0
 10
-0.892899
 20
-0.112793
 11
-0.898224
 21
-0.0565033
  0
LINE
  8
0
 10
-0.898224
 20
-0.0565033
 11
-0.899994
 21
0
  0
LINE
  8
0
 10
-0.899994
 20
0
 11
-0.898224
 21
0.0565033
  0
LINE
  8
0
 10
-0.898224
 20
0.0565033
 11
-0.892899
 21
0.112793
  0
LINE
  8
0
 10
-0.892899
 20
0.112793
 11
-0.884048
 21
0.16864
  0
LINE
  8
0
 10
-0.884048
 20
0.16864
 11
-0.871719
 21
0.223816
  0
LINE
  8
0
 10
-0.871719
 20
0.223816
 11
-0.855942
 21
0.278107
  0
LINE
  8
0
 10
-0.855942
 20
0.278107
 11
-0.836792
 21
0.331299
  0
LINE
  8
0
 10
-0.836792
 20
0.331299
 11
-0.814331
 21
0.383194
  0
LINE
  8
0
 10
-0.814331
 20
0.383194
 11
-0.788666
 21
0.433563
  0
LINE
  8
0
 10
-0.788666
 20
0.433563
 11
-0.759888
 21
0.482239
  0
LINE
  8
0
 10
-0.759888
 20
0.482239
 11
-0.728104
 21
0.528992
  0
LINE
  8
0
 10
-0.728104
 20
0.528992
 11
-0.693451
 21
0.573669
  0
LINE
  8
0
 10
-0.693451
 20
0.573669
 11
-0.656067
 21
0.616089
  0
LINE
  8
0
 10
-0.656067
 20
0.616089
 11
-0.616089
 21
0.656067
  0
LINE
  8
0
 10
-0.616089
 20
0.656067
 11
-0.573669
 21
0.693451
  0
LINE
  8
0
 10
-0.573669
 20
0.693451
 11
-0.528992
 21
0.728104
  0
LINE
  8
0
 10
-0.528992
 20
0.728104
 11
-0.482239
 21
0.759888
  0
LINE
  8
0
 10
-0.482239
 20
0.759888
 11
-0.433563
 21
0.788666
  0
LINE
  8
0
 10
-0.433563
 20
0.788666
 11
-0.383194
 21
0.814331
  0
LINE
  8
0
 10
-0.383194
 20
0.814331
 11
-0.331299
 21
0.836792
  0
LINE
  8
0
 10
-0.331299
 20
0.836792
 11
-0.278107
 21
0.855942
  0
LINE
  8
0
 10
-0.278107
 20
0.855942
 11
-0.223816
 21
0.871719
  0
LINE
  8
0
 10
-0.223816
 20
0.871719
 11
-0.16864
 21
0.884048
  0
LINE
  8
0
 10
-0.16864
 20
0.884048
 11
-0.112793
 21
0.892899
  0
LINE
  8
0
 10
-0.112793
 20
0.892899
 11
-0.0565033
 21
0.898224
  0
LINE
  8
0
 10
-0.0565033
 20
0.898224
 11
0
 21
0.899994
  0
LINE
  8
0
 10
0
 20
0.899994
 11
0.0565033
 21
0.898224
  0
LINE
  8
0
 10
0.0565033
 20
0.898224
 11
0.112793
 21
0.892899
  0
LINE
  8
0
 10
0.112793
 20
0.892899
 11
0.16864
 21
0.884048
  0
LINE
  8
0
 10
0.16864
 20
0.884048
 11
0.223816
 21
0.871719
  0
LINE
  8
0
 10
0.223816
 20
0.871719
 11
0.278107
 21
0.855942
  0
LINE
  8
0
 10
0.278107
 20
0.855942
 11
0.331299
 21
0.836792
  0
LINE
  8
0
 10
0.331299
 20
0.836792
 11
0.383194
 21
0.814331
  0
LINE
  8
0
 10
0.383194
 20
0.814331
 11
0.433563
 21
0.788666
  0
LINE
  8
0
 10
0.433563
 20
0.788666
 11
0.482239
 21
0.759888
  0
LINE
  8
0
 10
0.482239
 20
0.759888
 11
0.528992
 21
0.728104
  0
LINE
  8
0
 10
0.528992
 20
0.728104
 11
0.573669
 21
0.693451
  0
LINE
  8
0
 10
0.573669
 20
0.693451
 11
0.616089
 21
0.656067
  0
LINE
  8
0
 10
0.616089
 20
0.656067
 11
0.656067
 21
0.616089
  0
LINE
  8
0
 10
0.656067
 20
0.616089
 11
0.693451
 21
0.573669
  0
LINE
  8
0
 10
0.693451
 20
0.573669
 11
0.728104
 21
0.528992
  0
LINE
  8
0
 10
0.728104
 20
0.528992
 11
0.759888
 21
0.482239
  0
LINE
  8
0
 10
0.759888
 20
0.482239
 11
0.788666
 21
0.433563
  0
LINE
  8
0
 10
0.788666
 20
0.433563
 11
0.814331
 21
0.383194
  0
LINE
  8
0
 10
0.814331
 20
0.383194
 11
0.836792
 21
0.331299
  0
LINE
  8
0
 10
0.836792
 20
0.331299
 11
0.855942
 21
0.278107
  0
LINE
  8
0
 10
0.855942
 20
0.278107
 11
0.871719
 21
0.223816
  0
LINE
  8
0
 10
0.871719
 20
0.223816
 11
0.884048
 21
0.16864
  0
LINE
  8
0
 10
0.884048
 20
0.16864
 11
0.892899
 21
0.112793
  0
LINE
  8
0
 10
0.892899
 20
0.112793
 11
0.898224
 21
0.0565033
  0
LINE
  8
0
 10
0.898224
 20
0.0565033
 11
0.899994
 21
0
  0
LINE
  8
0
 10
0.899994
 20
0
 11
0.898224
 21
-0.0565033
  0
LINE
  8
0
 10
0.898224
 20
-0.0565033
 11
0.892899
 21
-0.112793
  0
LINE
  8
0
 10
0.892899
 20
-0.112793
 11
0.884048
 21
-0.16864
  0
LINE
  8
0
 10
0.884048
 20
-0.16864
 11
0.871719
 21
-0.223816
  0
LINE
  8
0
 10
0.871719
 20
-0.223816
 11
0.855942
 21
-0.278107
  0
LINE
  8
0
 10
0.855942
 20
-0.278107
 11
0.836792
 21
-0.331299
  0
LINE
  8
0
 10
0.836792
 20
-0.331299
 11
0.814331
 21
-0.383194
  0
LINE
  8
0
 10
0.814331
 20
-0.383194
 11
0.788666
 21
-0.433563
  0
LINE
  8
0
 10
0.788666
 20
-0.433563
 11
0.759888
 21
-0.482239
  0
LINE
  8
0
 10
0.759888
 20
-0.482239
 11
0.728104
 21
-0.528992
  0
LINE
  8
0
 10
0.728104
 20
-0.528992
 11
0.693451
 21
-0.573669
  0
LINE
  8
0
 10
0.693451
 20
-0.573669
 11
0.656067
 21
-0.616089
  0
LINE
  8
0
 10
0.656067
 20
-0.616089
 11
0.616089
 21
-0.656067
  0
LINE
  8
0
 10
0.616089
 20
-0.656067
 11
0.573669
 21
-0.693451
  0
LINE
  8
0
 10
0.573669
 20
-0.693451
 11
0.528992
 21
-0.728104
  0
LINE
  8
0
 10
0.528992
 20
-0.728104
 11
0.482239
 21
-0.759888
  0
LINE
  8
0
 10
0.482239
 20
-0.759888
 11
0.433563
 21
-0.788666
  0
LINE
  8
0
 10
0.433563
 20
-0.788666
 11
0.383194
 21
-0.814331
  0
LINE
  8
0
 10
0.383194
 20
-0.814331
 11
0.331299
 21
-0.836792
  0
LINE
  8
0
 10
0.331299
 20
-0.836792
 11
0.278107
 21
-0.855942
  0
LINE
  8
0
 10
0.278107
 20
-0.855942
 11
0.223816
 21
-0.871719
  0
LINE
  8
0
 10
0.223816
 20
-0.871719
 11
0.16864
 21
-0.884048
  0
LINE
  8
0
 10
0.16864
 20
-0.884048
 11
0.112793
 21
-0.892899
  0
LINE
  8
0
 10
0.112793
 20
-0.892899
 11
0.0565033
 21
-0.898224
  0
LINE
  8
0
 10
0.0565033
 20
-0.898224
 11
0
 21
-0.899994
  0
LINE
  8
0
 10
0
 20
-0.899994
 11
-0.0565033
 21
-0.898224
  0
ENDSEC
  0
SECTION
  2
OBJECTS
  0
DICTIONARY
  0
ENDSEC
  0
EOF
