  0
SECTION
  2
BLOCKS
  0
ENDSEC
  0
SECTION
  2
ENTITIES
  0
LINE
  8
0
 10
-10.6447
 20
-2.77304
 11
-12.2166
 21
-3.68054
  0
LINE
  8
0
 10
-12.2166
 20
-3.68054
 11
-12.8215
 21
-2.63264
  0
LINE
  8
0
 10
-12.8215
 20
-2.63264
 11
-4.43843
 21
2.20734
  0
LINE
  8
0
 10
-4.43843
 20
2.20734
 11
-3.83344
 21
1.15944
  0
LINE
  8
0
 10
-3.83344
 20
1.15944
 11
-5.40526
 21
0.251953
  0
LINE
  8
0
 10
-5.40526
 20
0.251953
 11
-2.38026
 21
-4.98749
  0
LINE
  8
0
 10
-2.38026
 20
-4.98749
 11
-2.40192
 21
-5
  0
LINE
  8
0
 10
-2.40192
 20
-5
 11
2.40192
 21
-5
  0
LINE
  8
0
 10
2.40192
 20
-5
 11
2.38026
 21
-4.98749
  0
LINE
  8
0
 10
2.38026
 20
-4.98749
 11
5.40526
 21
0.251953
  0
LINE
  8
0
 10
5.40526
 20
0.251953
 11
3.83344
 21
1.15944
  0
LINE
  8
0
 10
3.83344
 20
1.15944
 11
4.43843
 21
2.20734
  0
LINE
  8
0
 10
4.43843
 20
2.20734
 11
12.8215
 21
-2.63264
  0
LINE
  8
0
 10
12.8215
 20
-2.63264
 11
12.2166
 21
-3.68054
  0
LINE
  8
0
 10
12.2166
 20
-3.68054
 11
10.6447
 21
-2.77304
  0
LINE
  8
0
 10
10.6447
 20
-2.77304
 11
9.35899
 21
-5
  0
LINE
  8
0
 10
9.35899
 20
-5
 11
17.5
 21
-5
  0
LINE
  8
0
 10
17.5
 20
-5
 11
17.5
 21
5
  0
LINE
  8
0
 10
17.5
 20
5
 11
-17.5
 21
5
  0
LINE
  8
0
 10
-17.5
 20
5
 11
-17.5
 21
-5
  0
LINE
  8
0
 10
-17.5
 20
-5
 11
-9.35899
 21
-5
  0
LINE
  8
0
 10
-9.35899
 20
-5
 11
-10.6447
 21
-2.77304
  0
LINE
  8
0
 10
13.9046
 20
-0.516998
 11
13.8095
 21
-0.508011
  0
LINE
  8
0
 10
13.8095
 20
-0.508011
 11
13.7152
 21
-0.493073
  0
LINE
  8
0
 10
13.7152
 20
-0.493073
 11
13.622
 21
-0.472244
  0
LINE
  8
0
 10
13.622
 20
-0.472244
 11
13.5303
 21
-0.445602
  0
LINE
  8
0
 10
13.5303
 20
-0.445602
 11
13.4404
 21
-0.413254
  0
LINE
  8
0
 10
13.4404
 20
-0.413254
 11
13.3528
 21
-0.375336
  0
LINE
  8
0
 10
13.3528
 20
-0.375336
 11
13.2677
 21
-0.331985
  0
LINE
  8
0
 10
13.2677
 20
-0.331985
 11
13.1855
 21
-0.283371
  0
LINE
  8
0
 10
13.1855
 20
-0.283371
 11
13.1066
 21
-0.229706
  0
LINE
  8
0
 10
13.1066
 20
-0.229706
 11
13.0311
 21
-0.171173
  0
LINE
  8
0
 10
13.0311
 20
-0.171173
 11
12.9595
 21
-0.108032
  0
LINE
  8
0
 10
12.9595
 20
-0.108032
 11
12.892
 21
-0.0404968
  0
LINE
  8
0
 10
12.892
 20
-0.0404968
 11
12.8288
 21
0.0311127
  0
LINE
  8
0
 10
12.8288
 20
0.0311127
 11
12.7703
 21
0.106552
  0
LINE
  8
0
 10
12.7703
 20
0.106552
 11
12.7166
 21
0.185532
  0
LINE
  8
0
 10
12.7166
 20
0.185532
 11
12.668
 21
0.267731
  0
LINE
  8
0
 10
12.668
 20
0.267731
 11
12.6246
 21
0.352814
  0
LINE
  8
0
 10
12.6246
 20
0.352814
 11
12.5867
 21
0.440445
  0
LINE
  8
0
 10
12.5867
 20
0.440445
 11
12.5544
 21
0.530289
  0
LINE
  8
0
 10
12.5544
 20
0.530289
 11
12.5277
 21
0.621979
  0
LINE
  8
0
 10
12.5277
 20
0.621979
 11
12.5069
 21
0.715179
  0
LINE
  8
0
 10
12.5069
 20
0.715179
 11
12.492
 21
0.809479
  0
LINE
  8
0
 10
12.492
 20
0.809479
 11
12.483
 21
0.904556
  0
LINE
  8
0
 10
12.483
 20
0.904556
 11
12.48
 21
1
  0
LINE
  8
0
 10
12.48
 20
1
 11
12.483
 21
1.09543
  0
LINE
  8
0
 10
12.483
 20
1.09543
 11
12.492
 21
1.19051
  0
LINE
  8
0
 10
12.492
 20
1.19051
 11
12.5069
 21
1.28481
  0
LINE
  8
0
 10
12.5069
 20
1.28481
 11
12.5277
 21
1.37801
  0
LINE
  8
0
 10
12.5277
 20
1.37801
 11
12.5544
 21
1.4697
  0
LINE
  8
0
 10
12.5544
 20
1.4697
 11
12.5867
 21
1.55954
  0
LINE
  8
0
 10
12.5867
 20
1.55954
 11
12.6246
 21
1.64717
  0
LINE
  8
0
 10
12.6246
 20
1.64717
 11
12.668
 21
1.73225
  0
LINE
  8
0
 10
12.668
 20
1.73225
 11
12.7166
 21
1.81445
  0
LINE
  8
0
 10
12.7166
 20
1.81445
 11
12.7703
 21
1.89343
  0
LINE
  8
0
 10
12.7703
 20
1.89343
 11
12.8288
 21
1.96887
  0
LINE
  8
0
 10
12.8288
 20
1.96887
 11
12.892
 21
2.0405
  0
LINE
  8
0
 10
12.892
 20
2.0405
 11
12.9595
 21
2.10803
  0
LINE
  8
0
 10
12.9595
 20
2.10803
 11
13.0311
 21
2.17117
  0
LINE
  8
0
 10
13.0311
 20
2.17117
 11
13.1066
 21
2.22971
  0
LINE
  8
0
 10
13.1066
 20
2.22971
 11
13.1855
 21
2.28337
  0
LINE
  8
0
 10
13.1855
 20
2.28337
 11
13.2677
 21
2.33199
  0
LINE
  8
0
 10
13.2677
 20
2.33199
 11
13.3528
 21
2.37534
  0
LINE
  8
0
 10
13.3528
 20
2.37534
 11
13.4404
 21
2.41325
  0
LINE
  8
0
 10
13.4404
 20
2.41325
 11
13.5303
 21
2.4456
  0
LINE
  8
0
 10
13.5303
 20
2.4456
 11
13.622
 21
2.47224
  0
LINE
  8
0
 10
13.622
 20
2.47224
 11
13.7152
 21
2.49307
  0
LINE
  8
0
 10
13.7152
 20
2.49307
 11
13.8095
 21
2.50801
  0
LINE
  8
0
 10
13.8095
 20
2.50801
 11
13.9046
 21
2.517
  0
LINE
  8
0
 10
13.9046
 20
2.517
 11
14
 21
2.51999
  0
LINE
  8
0
 10
14
 20
2.51999
 11
14.0954
 21
2.517
  0
LINE
  8
0
 10
14.0954
 20
2.517
 11
14.1905
 21
2.50801
  0
LINE
  8
0
 10
14.1905
 20
2.50801
 11
14.2848
 21
2.49307
  0
LINE
  8
0
 10
14.2848
 20
2.49307
 11
14.378
 21
2.47224
  0
LINE
  8
0
 10
14.378
 20
2.47224
 11
14.4697
 21
2.4456
  0
LINE
  8
0
 10
14.4697
 20
2.4456
 11
14.5595
 21
2.41325
  0
LINE
  8
0
 10
14.5595
 20
2.41325
 11
14.6472
 21
2.37534
  0
LINE
  8
0
 10
14.6472
 20
2.37534
 11
14.7323
 21
2.33199
  0
LINE
  8
0
 10
14.7323
 20
2.33199
 11
14.8145
 21
2.28337
  0
LINE
  8
0
 10
14.8145
 20
2.28337
 11
14.8934
 21
2.22971
  0
LINE
  8
0
 10
14.8934
 20
2.22971
 11
14.9689
 21
2.17117
  0
LINE
  8
0
 10
14.9689
 20
2.17117
 11
15.0405
 21
2.10803
  0
LINE
  8
0
 10
15.0405
 20
2.10803
 11
15.108
 21
2.0405
  0
LINE
  8
0
 10
15.108
 20
2.0405
 11
15.1712
 21
1.96887
  0
LINE
  8
0
 10
15.1712
 20
1.96887
 11
15.2297
 21
1.89343
  0
LINE
  8
0
 10
15.2297
 20
1.89343
 11
15.2834
 21
1.81445
  0
LINE
  8
0
 10
15.2834
 20
1.81445
 11
15.332
 21
1.73225
  0
LINE
  8
0
 10
15.332
 20
1.73225
 11
15.3753
 21
1.64717
  0
LINE
  8
0
 10
15.3753
 20
1.64717
 11
15.4133
 21
1.55954
  0
LINE
  8
0
 10
15.4133
 20
1.55954
 11
15.4456
 21
1.4697
  0
LINE
  8
0
 10
15.4456
 20
1.4697
 11
15.4722
 21
1.37801
  0
LINE
  8
0
 10
15.4722
 20
1.37801
 11
15.4931
 21
1.28481
  0
LINE
  8
0
 10
15.4931
 20
1.28481
 11
15.508
 21
1.19051
  0
LINE
  8
0
 10
15.508
 20
1.19051
 11
15.517
 21
1.09543
  0
LINE
  8
0
 10
15.517
 20
1.09543
 11
15.52
 21
1
  0
LINE
  8
0
 10
15.52
 20
1
 11
15.517
 21
0.904556
  0
LINE
  8
0
 10
15.517
 20
0.904556
 11
15.508
 21
0.809479
  0
LINE
  8
0
 10
15.508
 20
0.809479
 11
15.4931
 21
0.715179
  0
LINE
  8
0
 10
15.4931
 20
0.715179
 11
15.4722
 21
0.621979
  0
LINE
  8
0
 10
15.4722
 20
0.621979
 11
15.4456
 21
0.530289
  0
LINE
  8
0
 10
15.4456
 20
0.530289
 11
15.4133
 21
0.440445
  0
LINE
  8
0
 10
15.4133
 20
0.440445
 11
15.3753
 21
0.352814
  0
LINE
  8
0
 10
15.3753
 20
0.352814
 11
15.332
 21
0.267731
  0
LINE
  8
0
 10
15.332
 20
0.267731
 11
15.2834
 21
0.185532
  0
LINE
  8
0
 10
15.2834
 20
0.185532
 11
15.2297
 21
0.106552
  0
LINE
  8
0
 10
15.2297
 20
0.106552
 11
15.1712
 21
0.0311127
  0
LINE
  8
0
 10
15.1712
 20
0.0311127
 11
15.108
 21
-0.0404968
  0
LINE
  8
0
 10
15.108
 20
-0.0404968
 11
15.0405
 21
-0.108032
  0
LINE
  8
0
 10
15.0405
 20
-0.108032
 11
14.9689
 21
-0.171173
  0
LINE
  8
0
 10
14.9689
 20
-0.171173
 11
14.8934
 21
-0.229706
  0
LINE
  8
0
 10
14.8934
 20
-0.229706
 11
14.8145
 21
-0.283371
  0
LINE
  8
0
 10
14.8145
 20
-0.283371
 11
14.7323
 21
-0.331985
  0
LINE
  8
0
 10
14.7323
 20
-0.331985
 11
14.6472
 21
-0.375336
  0
LINE
  8
0
 10
14.6472
 20
-0.375336
 11
14.5595
 21
-0.413254
  0
LINE
  8
0
 10
14.5595
 20
-0.413254
 11
14.4697
 21
-0.445602
  0
LINE
  8
0
 10
14.4697
 20
-0.445602
 11
14.378
 21
-0.472244
  0
LINE
  8
0
 10
14.378
 20
-0.472244
 11
14.2848
 21
-0.493073
  0
LINE
  8
0
 10
14.2848
 20
-0.493073
 11
14.1905
 21
-0.508011
  0
LINE
  8
0
 10
14.1905
 20
-0.508011
 11
14.0954
 21
-0.516998
  0
LINE
  8
0
 10
14.0954
 20
-0.516998
 11
14
 21
-0.519989
  0
LINE
  8
0
 10
14
 20
-0.519989
 11
13.9046
 21
-0.516998
  0
LINE
  8
0
 10
-14.0948
 20
-0.507019
 11
-14.1892
 21
-0.498093
  0
LINE
  8
0
 10
-14.1892
 20
-0.498093
 11
-14.2829
 21
-0.483246
  0
LINE
  8
0
 10
-14.2829
 20
-0.483246
 11
-14.3755
 21
-0.462555
  0
LINE
  8
0
 10
-14.3755
 20
-0.462555
 11
-14.4666
 21
-0.436081
  0
LINE
  8
0
 10
-14.4666
 20
-0.436081
 11
-14.5559
 21
-0.403961
  0
LINE
  8
0
 10
-14.5559
 20
-0.403961
 11
-14.6429
 21
-0.366287
  0
LINE
  8
0
 10
-14.6429
 20
-0.366287
 11
-14.7274
 21
-0.323212
  0
LINE
  8
0
 10
-14.7274
 20
-0.323212
 11
-14.8091
 21
-0.274933
  0
LINE
  8
0
 10
-14.8091
 20
-0.274933
 11
-14.8875
 21
-0.221603
  0
LINE
  8
0
 10
-14.8875
 20
-0.221603
 11
-14.9625
 21
-0.163467
  0
LINE
  8
0
 10
-14.9625
 20
-0.163467
 11
-15.0337
 21
-0.100739
  0
LINE
  8
0
 10
-15.0337
 20
-0.100739
 11
-15.1007
 21
-0.0336609
  0
LINE
  8
0
 10
-15.1007
 20
-0.0336609
 11
-15.1635
 21
0.0374756
  0
LINE
  8
0
 10
-15.1635
 20
0.0374756
 11
-15.2216
 21
0.112442
  0
LINE
  8
0
 10
-15.2216
 20
0.112442
 11
-15.2749
 21
0.190887
  0
LINE
  8
0
 10
-15.2749
 20
0.190887
 11
-15.3232
 21
0.272537
  0
LINE
  8
0
 10
-15.3232
 20
0.272537
 11
-15.3663
 21
0.357071
  0
LINE
  8
0
 10
-15.3663
 20
0.357071
 11
-15.404
 21
0.444122
  0
LINE
  8
0
 10
-15.404
 20
0.444122
 11
-15.4361
 21
0.533371
  0
LINE
  8
0
 10
-15.4361
 20
0.533371
 11
-15.4626
 21
0.624466
  0
LINE
  8
0
 10
-15.4626
 20
0.624466
 11
-15.4832
 21
0.717041
  0
LINE
  8
0
 10
-15.4832
 20
0.717041
 11
-15.4981
 21
0.810745
  0
LINE
  8
0
 10
-15.4981
 20
0.810745
 11
-15.507
 21
0.905182
  0
LINE
  8
0
 10
-15.507
 20
0.905182
 11
-15.51
 21
1
  0
LINE
  8
0
 10
-15.51
 20
1
 11
-15.507
 21
1.0948
  0
LINE
  8
0
 10
-15.507
 20
1.0948
 11
-15.4981
 21
1.18924
  0
LINE
  8
0
 10
-15.4981
 20
1.18924
 11
-15.4832
 21
1.28294
  0
LINE
  8
0
 10
-15.4832
 20
1.28294
 11
-15.4626
 21
1.37552
  0
LINE
  8
0
 10
-15.4626
 20
1.37552
 11
-15.4361
 21
1.46661
  0
LINE
  8
0
 10
-15.4361
 20
1.46661
 11
-15.404
 21
1.55586
  0
LINE
  8
0
 10
-15.404
 20
1.55586
 11
-15.3663
 21
1.64291
  0
LINE
  8
0
 10
-15.3663
 20
1.64291
 11
-15.3232
 21
1.72745
  0
LINE
  8
0
 10
-15.3232
 20
1.72745
 11
-15.2749
 21
1.8091
  0
LINE
  8
0
 10
-15.2749
 20
1.8091
 11
-15.2216
 21
1.88754
  0
LINE
  8
0
 10
-15.2216
 20
1.88754
 11
-15.1635
 21
1.96251
  0
LINE
  8
0
 10
-15.1635
 20
1.96251
 11
-15.1007
 21
2.03366
  0
LINE
  8
0
 10
-15.1007
 20
2.03366
 11
-15.0337
 21
2.10074
  0
LINE
  8
0
 10
-15.0337
 20
2.10074
 11
-14.9625
 21
2.16347
  0
LINE
  8
0
 10
-14.9625
 20
2.16347
 11
-14.8875
 21
2.2216
  0
LINE
  8
0
 10
-14.8875
 20
2.2216
 11
-14.8091
 21
2.27493
  0
LINE
  8
0
 10
-14.8091
 20
2.27493
 11
-14.7274
 21
2.32321
  0
LINE
  8
0
 10
-14.7274
 20
2.32321
 11
-14.6429
 21
2.36629
  0
LINE
  8
0
 10
-14.6429
 20
2.36629
 11
-14.5559
 21
2.40396
  0
LINE
  8
0
 10
-14.5559
 20
2.40396
 11
-14.4666
 21
2.43608
  0
LINE
  8
0
 10
-14.4666
 20
2.43608
 11
-14.3755
 21
2.46255
  0
LINE
  8
0
 10
-14.3755
 20
2.46255
 11
-14.2829
 21
2.48325
  0
LINE
  8
0
 10
-14.2829
 20
2.48325
 11
-14.1892
 21
2.49809
  0
LINE
  8
0
 10
-14.1892
 20
2.49809
 11
-14.0948
 21
2.50702
  0
LINE
  8
0
 10
-14.0948
 20
2.50702
 11
-14
 21
2.50999
  0
LINE
  8
0
 10
-14
 20
2.50999
 11
-13.9052
 21
2.50702
  0
LINE
  8
0
 10
-13.9052
 20
2.50702
 11
-13.8107
 21
2.49809
  0
LINE
  8
0
 10
-13.8107
 20
2.49809
 11
-13.717
 21
2.48325
  0
LINE
  8
0
 10
-13.717
 20
2.48325
 11
-13.6245
 21
2.46255
  0
LINE
  8
0
 10
-13.6245
 20
2.46255
 11
-13.5334
 21
2.43608
  0
LINE
  8
0
 10
-13.5334
 20
2.43608
 11
-13.4441
 21
2.40396
  0
LINE
  8
0
 10
-13.4441
 20
2.40396
 11
-13.3571
 21
2.36629
  0
LINE
  8
0
 10
-13.3571
 20
2.36629
 11
-13.2725
 21
2.32321
  0
LINE
  8
0
 10
-13.2725
 20
2.32321
 11
-13.1909
 21
2.27493
  0
LINE
  8
0
 10
-13.1909
 20
2.27493
 11
-13.1124
 21
2.2216
  0
LINE
  8
0
 10
-13.1124
 20
2.2216
 11
-13.0375
 21
2.16347
  0
LINE
  8
0
 10
-13.0375
 20
2.16347
 11
-12.9663
 21
2.10074
  0
LINE
  8
0
 10
-12.9663
 20
2.10074
 11
-12.8992
 21
2.03366
  0
LINE
  8
0
 10
-12.8992
 20
2.03366
 11
-12.8365
 21
1.96251
  0
LINE
  8
0
 10
-12.8365
 20
1.96251
 11
-12.7784
 21
1.88754
  0
LINE
  8
0
 10
-12.7784
 20
1.88754
 11
-12.7251
 21
1.8091
  0
LINE
  8
0
 10
-12.7251
 20
1.8091
 11
-12.6768
 21
1.72745
  0
LINE
  8
0
 10
-12.6768
 20
1.72745
 11
-12.6337
 21
1.64291
  0
LINE
  8
0
 10
-12.6337
 20
1.64291
 11
-12.596
 21
1.55586
  0
LINE
  8
0
 10
-12.596
 20
1.55586
 11
-12.5639
 21
1.46661
  0
LINE
  8
0
 10
-12.5639
 20
1.46661
 11
-12.5374
 21
1.37552
  0
LINE
  8
0
 10
-12.5374
 20
1.37552
 11
-12.5167
 21
1.28294
  0
LINE
  8
0
 10
-12.5167
 20
1.28294
 11
-12.5019
 21
1.18924
  0
LINE
  8
0
 10
-12.5019
 20
1.18924
 11
-12.493
 21
1.0948
  0
LINE
  8
0
 10
-12.493
 20
1.0948
 11
-12.49
 21
1
  0
LINE
  8
0
 10
-12.49
 20
1
 11
-12.493
 21
0.905182
  0
LINE
  8
0
 10
-12.493
 20
0.905182
 11
-12.5019
 21
0.810745
  0
LINE
  8
0
 10
-12.5019
 20
0.810745
 11
-12.5167
 21
0.717041
  0
LINE
  8
0
 10
-12.5167
 20
0.717041
 11
-12.5374
 21
0.624466
  0
LINE
  8
0
 10
-12.5374
 20
0.624466
 11
-12.5639
 21
0.533371
  0
LINE
  8
0
 10
-12.5639
 20
0.533371
 11
-12.596
 21
0.444122
  0
LINE
  8
0
 10
-12.596
 20
0.444122
 11
-12.6337
 21
0.357071
  0
LINE
  8
0
 10
-12.6337
 20
0.357071
 11
-12.6768
 21
0.272537
  0
LINE
  8
0
 10
-12.6768
 20
0.272537
 11
-12.7251
 21
0.190887
  0
LINE
  8
0
 10
-12.7251
 20
0.190887
 11
-12.7784
 21
0.112442
  0
LINE
  8
0
 10
-12.7784
 20
0.112442
 11
-12.8365
 21
0.0374756
  0
LINE
  8
0
 10
-12.8365
 20
0.0374756
 11
-12.8992
 21
-0.0336609
  0
LINE
  8
0
 10
-12.8992
 20
-0.0336609
 11
-12.9663
 21
-0.100739
  0
LINE
  8
0
 10
-12.9663
 20
-0.100739
 11
-13.0375
 21
-0.163467
  0
LINE
  8
0
 10
-13.0375
 20
-0.163467
 11
-13.1124
 21
-0.221603
  0
LINE
  8
0
 10
-13.1124
 20
-0.221603
 11
-13.1909
 21
-0.274933
  0
LINE
  8
0
 10
-13.1909
 20
-0.274933
 11
-13.2725
 21
-0.323212
  0
LINE
  8
0
 10
-13.2725
 20
-0.323212
 11
-13.3571
 21
-0.366287
  0
LINE
  8
0
 10
-13.3571
 20
-0.366287
 11
-13.4441
 21
-0.403961
  0
LINE
  8
0
 10
-13.4441
 20
-0.403961
 11
-13.5334
 21
-0.436081
  0
LINE
  8
0
 10
-13.5334
 20
-0.436081
 11
-13.6245
 21
-0.462555
  0
LINE
  8
0
 10
-13.6245
 20
-0.462555
 11
-13.717
 21
-0.483246
  0
LINE
  8
0
 10
-13.717
 20
-0.483246
 11
-13.8107
 21
-0.498093
  0
LINE
  8
0
 10
-13.8107
 20
-0.498093
 11
-13.9052
 21
-0.507019
  0
LINE
  8
0
 10
-13.9052
 20
-0.507019
 11
-14
 21
-0.509995
  0
LINE
  8
0
 10
-14
 20
-0.509995
 11
-14.0948
 21
-0.507019
  0
ENDSEC
  0
SECTION
  2
OBJECTS
  0
DICTIONARY
  0
ENDSEC
  0
EOF
