  0
SECTION
  2
BLOCKS
  0
ENDSEC
  0
SECTION
  2
ENTITIES
  0
LINE
  8
0
 10
-10.5048
 20
-2.86545
 11
-12.0376
 21
-3.75044
  0
LINE
  8
0
 10
-12.0376
 20
-3.75044
 11
-12.6276
 21
-2.72853
  0
LINE
  8
0
 10
-12.6276
 20
-2.72853
 11
-4.45235
 21
1.99146
  0
LINE
  8
0
 10
-4.45235
 20
1.99146
 11
-3.86235
 21
0.969543
  0
LINE
  8
0
 10
-3.86235
 20
0.969543
 11
-5.39522
 21
0.084549
  0
LINE
  8
0
 10
-5.39522
 20
0.084549
 11
-2.45966
 21
-5
  0
LINE
  8
0
 10
-2.45966
 20
-5
 11
2.45966
 21
-5
  0
LINE
  8
0
 10
2.45966
 20
-5
 11
5.39522
 21
0.084549
  0
LINE
  8
0
 10
5.39522
 20
0.084549
 11
3.86235
 21
0.969543
  0
LINE
  8
0
 10
3.86235
 20
0.969543
 11
4.45235
 21
1.99146
  0
LINE
  8
0
 10
4.45235
 20
1.99146
 11
12.6276
 21
-2.72853
  0
LINE
  8
0
 10
12.6276
 20
-2.72853
 11
12.0376
 21
-3.75044
  0
LINE
  8
0
 10
12.0376
 20
-3.75044
 11
10.5048
 21
-2.86545
  0
LINE
  8
0
 10
10.5048
 20
-2.86545
 11
9.27238
 21
-5
  0
LINE
  8
0
 10
9.27238
 20
-5
 11
17.5
 21
-5
  0
LINE
  8
0
 10
17.5
 20
-5
 11
17.5
 21
5
  0
LINE
  8
0
 10
17.5
 20
5
 11
-17.5
 21
5
  0
LINE
  8
0
 10
-17.5
 20
5
 11
-17.5
 21
-5
  0
LINE
  8
0
 10
-17.5
 20
-5
 11
-9.27238
 21
-5
  0
LINE
  8
0
 10
-9.27238
 20
-5
 11
-10.5048
 21
-2.86545
  0
LINE
  8
0
 10
-14.0954
 20
-1.517
 11
-14.1905
 21
-1.50801
  0
LINE
  8
0
 10
-14.1905
 20
-1.50801
 11
-14.2848
 21
-1.49307
  0
LINE
  8
0
 10
-14.2848
 20
-1.49307
 11
-14.378
 21
-1.47224
  0
LINE
  8
0
 10
-14.378
 20
-1.47224
 11
-14.4697
 21
-1.4456
  0
LINE
  8
0
 10
-14.4697
 20
-1.4456
 11
-14.5595
 21
-1.41325
  0
LINE
  8
0
 10
-14.5595
 20
-1.41325
 11
-14.6472
 21
-1.37534
  0
LINE
  8
0
 10
-14.6472
 20
-1.37534
 11
-14.7323
 21
-1.33199
  0
LINE
  8
0
 10
-14.7323
 20
-1.33199
 11
-14.8145
 21
-1.28337
  0
LINE
  8
0
 10
-14.8145
 20
-1.28337
 11
-14.8934
 21
-1.22971
  0
LINE
  8
0
 10
-14.8934
 20
-1.22971
 11
-14.9689
 21
-1.17117
  0
LINE
  8
0
 10
-14.9689
 20
-1.17117
 11
-15.0405
 21
-1.10803
  0
LINE
  8
0
 10
-15.0405
 20
-1.10803
 11
-15.108
 21
-1.0405
  0
LINE
  8
0
 10
-15.108
 20
-1.0405
 11
-15.1712
 21
-0.968872
  0
LINE
  8
0
 10
-15.1712
 20
-0.968872
 11
-15.2297
 21
-0.893433
  0
LINE
  8
0
 10
-15.2297
 20
-0.893433
 11
-15.2834
 21
-0.814453
  0
LINE
  8
0
 10
-15.2834
 20
-0.814453
 11
-15.332
 21
-0.732254
  0
LINE
  8
0
 10
-15.332
 20
-0.732254
 11
-15.3753
 21
-0.647171
  0
LINE
  8
0
 10
-15.3753
 20
-0.647171
 11
-15.4133
 21
-0.55954
  0
LINE
  8
0
 10
-15.4133
 20
-0.55954
 11
-15.4456
 21
-0.469696
  0
LINE
  8
0
 10
-15.4456
 20
-0.469696
 11
-15.4722
 21
-0.378006
  0
LINE
  8
0
 10
-15.4722
 20
-0.378006
 11
-15.4931
 21
-0.284805
  0
LINE
  8
0
 10
-15.4931
 20
-0.284805
 11
-15.508
 21
-0.190506
  0
LINE
  8
0
 10
-15.508
 20
-0.190506
 11
-15.517
 21
-0.0954285
  0
LINE
  8
0
 10
-15.517
 20
-0.0954285
 11
-15.52
 21
0
  0
LINE
  8
0
 10
-15.52
 20
0
 11
-15.517
 21
0.0954285
  0
LINE
  8
0
 10
-15.517
 20
0.0954285
 11
-15.508
 21
0.190506
  0
LINE
  8
0
 10
-15.508
 20
0.190506
 11
-15.4931
 21
0.284805
  0
LINE
  8
0
 10
-15.4931
 20
0.284805
 11
-15.4722
 21
0.378006
  0
LINE
  8
0
 10
-15.4722
 20
0.378006
 11
-15.4456
 21
0.469696
  0
LINE
  8
0
 10
-15.4456
 20
0.469696
 11
-15.4133
 21
0.55954
  0
LINE
  8
0
 10
-15.4133
 20
0.55954
 11
-15.3753
 21
0.647171
  0
LINE
  8
0
 10
-15.3753
 20
0.647171
 11
-15.332
 21
0.732254
  0
LINE
  8
0
 10
-15.332
 20
0.732254
 11
-15.2834
 21
0.814453
  0
LINE
  8
0
 10
-15.2834
 20
0.814453
 11
-15.2297
 21
0.893433
  0
LINE
  8
0
 10
-15.2297
 20
0.893433
 11
-15.1712
 21
0.968872
  0
LINE
  8
0
 10
-15.1712
 20
0.968872
 11
-15.108
 21
1.0405
  0
LINE
  8
0
 10
-15.108
 20
1.0405
 11
-15.0405
 21
1.10803
  0
LINE
  8
0
 10
-15.0405
 20
1.10803
 11
-14.9689
 21
1.17117
  0
LINE
  8
0
 10
-14.9689
 20
1.17117
 11
-14.8934
 21
1.22971
  0
LINE
  8
0
 10
-14.8934
 20
1.22971
 11
-14.8145
 21
1.28337
  0
LINE
  8
0
 10
-14.8145
 20
1.28337
 11
-14.7323
 21
1.33199
  0
LINE
  8
0
 10
-14.7323
 20
1.33199
 11
-14.6472
 21
1.37534
  0
LINE
  8
0
 10
-14.6472
 20
1.37534
 11
-14.5595
 21
1.41325
  0
LINE
  8
0
 10
-14.5595
 20
1.41325
 11
-14.4697
 21
1.4456
  0
LINE
  8
0
 10
-14.4697
 20
1.4456
 11
-14.378
 21
1.47224
  0
LINE
  8
0
 10
-14.378
 20
1.47224
 11
-14.2848
 21
1.49307
  0
LINE
  8
0
 10
-14.2848
 20
1.49307
 11
-14.1905
 21
1.50801
  0
LINE
  8
0
 10
-14.1905
 20
1.50801
 11
-14.0954
 21
1.517
  0
LINE
  8
0
 10
-14.0954
 20
1.517
 11
-14
 21
1.51999
  0
LINE
  8
0
 10
-14
 20
1.51999
 11
-13.9046
 21
1.517
  0
LINE
  8
0
 10
-13.9046
 20
1.517
 11
-13.8095
 21
1.50801
  0
LINE
  8
0
 10
-13.8095
 20
1.50801
 11
-13.7152
 21
1.49307
  0
LINE
  8
0
 10
-13.7152
 20
1.49307
 11
-13.622
 21
1.47224
  0
LINE
  8
0
 10
-13.622
 20
1.47224
 11
-13.5303
 21
1.4456
  0
LINE
  8
0
 10
-13.5303
 20
1.4456
 11
-13.4404
 21
1.41325
  0
LINE
  8
0
 10
-13.4404
 20
1.41325
 11
-13.3528
 21
1.37534
  0
LINE
  8
0
 10
-13.3528
 20
1.37534
 11
-13.2677
 21
1.33199
  0
LINE
  8
0
 10
-13.2677
 20
1.33199
 11
-13.1855
 21
1.28337
  0
LINE
  8
0
 10
-13.1855
 20
1.28337
 11
-13.1066
 21
1.22971
  0
LINE
  8
0
 10
-13.1066
 20
1.22971
 11
-13.0311
 21
1.17117
  0
LINE
  8
0
 10
-13.0311
 20
1.17117
 11
-12.9595
 21
1.10803
  0
LINE
  8
0
 10
-12.9595
 20
1.10803
 11
-12.892
 21
1.0405
  0
LINE
  8
0
 10
-12.892
 20
1.0405
 11
-12.8288
 21
0.968872
  0
LINE
  8
0
 10
-12.8288
 20
0.968872
 11
-12.7703
 21
0.893433
  0
LINE
  8
0
 10
-12.7703
 20
0.893433
 11
-12.7166
 21
0.814453
  0
LINE
  8
0
 10
-12.7166
 20
0.814453
 11
-12.668
 21
0.732254
  0
LINE
  8
0
 10
-12.668
 20
0.732254
 11
-12.6246
 21
0.647171
  0
LINE
  8
0
 10
-12.6246
 20
0.647171
 11
-12.5867
 21
0.55954
  0
LINE
  8
0
 10
-12.5867
 20
0.55954
 11
-12.5544
 21
0.469696
  0
LINE
  8
0
 10
-12.5544
 20
0.469696
 11
-12.5277
 21
0.378006
  0
LINE
  8
0
 10
-12.5277
 20
0.378006
 11
-12.5069
 21
0.284805
  0
LINE
  8
0
 10
-12.5069
 20
0.284805
 11
-12.492
 21
0.190506
  0
LINE
  8
0
 10
-12.492
 20
0.190506
 11
-12.483
 21
0.0954285
  0
LINE
  8
0
 10
-12.483
 20
0.0954285
 11
-12.48
 21
0
  0
LINE
  8
0
 10
-12.48
 20
0
 11
-12.483
 21
-0.0954285
  0
LINE
  8
0
 10
-12.483
 20
-0.0954285
 11
-12.492
 21
-0.190506
  0
LINE
  8
0
 10
-12.492
 20
-0.190506
 11
-12.5069
 21
-0.284805
  0
LINE
  8
0
 10
-12.5069
 20
-0.284805
 11
-12.5277
 21
-0.378006
  0
LINE
  8
0
 10
-12.5277
 20
-0.378006
 11
-12.5544
 21
-0.469696
  0
LINE
  8
0
 10
-12.5544
 20
-0.469696
 11
-12.5867
 21
-0.55954
  0
LINE
  8
0
 10
-12.5867
 20
-0.55954
 11
-12.6246
 21
-0.647171
  0
LINE
  8
0
 10
-12.6246
 20
-0.647171
 11
-12.668
 21
-0.732254
  0
LINE
  8
0
 10
-12.668
 20
-0.732254
 11
-12.7166
 21
-0.814453
  0
LINE
  8
0
 10
-12.7166
 20
-0.814453
 11
-12.7703
 21
-0.893433
  0
LINE
  8
0
 10
-12.7703
 20
-0.893433
 11
-12.8288
 21
-0.968872
  0
LINE
  8
0
 10
-12.8288
 20
-0.968872
 11
-12.892
 21
-1.0405
  0
LINE
  8
0
 10
-12.892
 20
-1.0405
 11
-12.9595
 21
-1.10803
  0
LINE
  8
0
 10
-12.9595
 20
-1.10803
 11
-13.0311
 21
-1.17117
  0
LINE
  8
0
 10
-13.0311
 20
-1.17117
 11
-13.1066
 21
-1.22971
  0
LINE
  8
0
 10
-13.1066
 20
-1.22971
 11
-13.1855
 21
-1.28337
  0
LINE
  8
0
 10
-13.1855
 20
-1.28337
 11
-13.2677
 21
-1.33199
  0
LINE
  8
0
 10
-13.2677
 20
-1.33199
 11
-13.3528
 21
-1.37534
  0
LINE
  8
0
 10
-13.3528
 20
-1.37534
 11
-13.4404
 21
-1.41325
  0
LINE
  8
0
 10
-13.4404
 20
-1.41325
 11
-13.5303
 21
-1.4456
  0
LINE
  8
0
 10
-13.5303
 20
-1.4456
 11
-13.622
 21
-1.47224
  0
LINE
  8
0
 10
-13.622
 20
-1.47224
 11
-13.7152
 21
-1.49307
  0
LINE
  8
0
 10
-13.7152
 20
-1.49307
 11
-13.8095
 21
-1.50801
  0
LINE
  8
0
 10
-13.8095
 20
-1.50801
 11
-13.9046
 21
-1.517
  0
LINE
  8
0
 10
-13.9046
 20
-1.517
 11
-14
 21
-1.51999
  0
LINE
  8
0
 10
-14
 20
-1.51999
 11
-14.0954
 21
-1.517
  0
LINE
  8
0
 10
13.9046
 20
-1.517
 11
13.8095
 21
-1.50801
  0
LINE
  8
0
 10
13.8095
 20
-1.50801
 11
13.7152
 21
-1.49307
  0
LINE
  8
0
 10
13.7152
 20
-1.49307
 11
13.622
 21
-1.47224
  0
LINE
  8
0
 10
13.622
 20
-1.47224
 11
13.5303
 21
-1.4456
  0
LINE
  8
0
 10
13.5303
 20
-1.4456
 11
13.4404
 21
-1.41325
  0
LINE
  8
0
 10
13.4404
 20
-1.41325
 11
13.3528
 21
-1.37534
  0
LINE
  8
0
 10
13.3528
 20
-1.37534
 11
13.2677
 21
-1.33199
  0
LINE
  8
0
 10
13.2677
 20
-1.33199
 11
13.1855
 21
-1.28337
  0
LINE
  8
0
 10
13.1855
 20
-1.28337
 11
13.1066
 21
-1.22971
  0
LINE
  8
0
 10
13.1066
 20
-1.22971
 11
13.0311
 21
-1.17117
  0
LINE
  8
0
 10
13.0311
 20
-1.17117
 11
12.9595
 21
-1.10803
  0
LINE
  8
0
 10
12.9595
 20
-1.10803
 11
12.892
 21
-1.0405
  0
LINE
  8
0
 10
12.892
 20
-1.0405
 11
12.8288
 21
-0.968872
  0
LINE
  8
0
 10
12.8288
 20
-0.968872
 11
12.7703
 21
-0.893433
  0
LINE
  8
0
 10
12.7703
 20
-0.893433
 11
12.7166
 21
-0.814453
  0
LINE
  8
0
 10
12.7166
 20
-0.814453
 11
12.668
 21
-0.732254
  0
LINE
  8
0
 10
12.668
 20
-0.732254
 11
12.6246
 21
-0.647171
  0
LINE
  8
0
 10
12.6246
 20
-0.647171
 11
12.5867
 21
-0.55954
  0
LINE
  8
0
 10
12.5867
 20
-0.55954
 11
12.5544
 21
-0.469696
  0
LINE
  8
0
 10
12.5544
 20
-0.469696
 11
12.5277
 21
-0.378006
  0
LINE
  8
0
 10
12.5277
 20
-0.378006
 11
12.5069
 21
-0.284805
  0
LINE
  8
0
 10
12.5069
 20
-0.284805
 11
12.492
 21
-0.190506
  0
LINE
  8
0
 10
12.492
 20
-0.190506
 11
12.483
 21
-0.0954285
  0
LINE
  8
0
 10
12.483
 20
-0.0954285
 11
12.48
 21
0
  0
LINE
  8
0
 10
12.48
 20
0
 11
12.483
 21
0.0954285
  0
LINE
  8
0
 10
12.483
 20
0.0954285
 11
12.492
 21
0.190506
  0
LINE
  8
0
 10
12.492
 20
0.190506
 11
12.5069
 21
0.284805
  0
LINE
  8
0
 10
12.5069
 20
0.284805
 11
12.5277
 21
0.378006
  0
LINE
  8
0
 10
12.5277
 20
0.378006
 11
12.5544
 21
0.469696
  0
LINE
  8
0
 10
12.5544
 20
0.469696
 11
12.5867
 21
0.55954
  0
LINE
  8
0
 10
12.5867
 20
0.55954
 11
12.6246
 21
0.647171
  0
LINE
  8
0
 10
12.6246
 20
0.647171
 11
12.668
 21
0.732254
  0
LINE
  8
0
 10
12.668
 20
0.732254
 11
12.7166
 21
0.814453
  0
LINE
  8
0
 10
12.7166
 20
0.814453
 11
12.7703
 21
0.893433
  0
LINE
  8
0
 10
12.7703
 20
0.893433
 11
12.8288
 21
0.968872
  0
LINE
  8
0
 10
12.8288
 20
0.968872
 11
12.892
 21
1.0405
  0
LINE
  8
0
 10
12.892
 20
1.0405
 11
12.9595
 21
1.10803
  0
LINE
  8
0
 10
12.9595
 20
1.10803
 11
13.0311
 21
1.17117
  0
LINE
  8
0
 10
13.0311
 20
1.17117
 11
13.1066
 21
1.22971
  0
LINE
  8
0
 10
13.1066
 20
1.22971
 11
13.1855
 21
1.28337
  0
LINE
  8
0
 10
13.1855
 20
1.28337
 11
13.2677
 21
1.33199
  0
LINE
  8
0
 10
13.2677
 20
1.33199
 11
13.3528
 21
1.37534
  0
LINE
  8
0
 10
13.3528
 20
1.37534
 11
13.4404
 21
1.41325
  0
LINE
  8
0
 10
13.4404
 20
1.41325
 11
13.5303
 21
1.4456
  0
LINE
  8
0
 10
13.5303
 20
1.4456
 11
13.622
 21
1.47224
  0
LINE
  8
0
 10
13.622
 20
1.47224
 11
13.7152
 21
1.49307
  0
LINE
  8
0
 10
13.7152
 20
1.49307
 11
13.8095
 21
1.50801
  0
LINE
  8
0
 10
13.8095
 20
1.50801
 11
13.9046
 21
1.517
  0
LINE
  8
0
 10
13.9046
 20
1.517
 11
14
 21
1.51999
  0
LINE
  8
0
 10
14
 20
1.51999
 11
14.0954
 21
1.517
  0
LINE
  8
0
 10
14.0954
 20
1.517
 11
14.1905
 21
1.50801
  0
LINE
  8
0
 10
14.1905
 20
1.50801
 11
14.2848
 21
1.49307
  0
LINE
  8
0
 10
14.2848
 20
1.49307
 11
14.378
 21
1.47224
  0
LINE
  8
0
 10
14.378
 20
1.47224
 11
14.4697
 21
1.4456
  0
LINE
  8
0
 10
14.4697
 20
1.4456
 11
14.5595
 21
1.41325
  0
LINE
  8
0
 10
14.5595
 20
1.41325
 11
14.6472
 21
1.37534
  0
LINE
  8
0
 10
14.6472
 20
1.37534
 11
14.7323
 21
1.33199
  0
LINE
  8
0
 10
14.7323
 20
1.33199
 11
14.8145
 21
1.28337
  0
LINE
  8
0
 10
14.8145
 20
1.28337
 11
14.8934
 21
1.22971
  0
LINE
  8
0
 10
14.8934
 20
1.22971
 11
14.9689
 21
1.17117
  0
LINE
  8
0
 10
14.9689
 20
1.17117
 11
15.0405
 21
1.10803
  0
LINE
  8
0
 10
15.0405
 20
1.10803
 11
15.108
 21
1.0405
  0
LINE
  8
0
 10
15.108
 20
1.0405
 11
15.1712
 21
0.968872
  0
LINE
  8
0
 10
15.1712
 20
0.968872
 11
15.2297
 21
0.893433
  0
LINE
  8
0
 10
15.2297
 20
0.893433
 11
15.2834
 21
0.814453
  0
LINE
  8
0
 10
15.2834
 20
0.814453
 11
15.332
 21
0.732254
  0
LINE
  8
0
 10
15.332
 20
0.732254
 11
15.3753
 21
0.647171
  0
LINE
  8
0
 10
15.3753
 20
0.647171
 11
15.4133
 21
0.55954
  0
LINE
  8
0
 10
15.4133
 20
0.55954
 11
15.4456
 21
0.469696
  0
LINE
  8
0
 10
15.4456
 20
0.469696
 11
15.4722
 21
0.378006
  0
LINE
  8
0
 10
15.4722
 20
0.378006
 11
15.4931
 21
0.284805
  0
LINE
  8
0
 10
15.4931
 20
0.284805
 11
15.508
 21
0.190506
  0
LINE
  8
0
 10
15.508
 20
0.190506
 11
15.517
 21
0.0954285
  0
LINE
  8
0
 10
15.517
 20
0.0954285
 11
15.52
 21
0
  0
LINE
  8
0
 10
15.52
 20
0
 11
15.517
 21
-0.0954285
  0
LINE
  8
0
 10
15.517
 20
-0.0954285
 11
15.508
 21
-0.190506
  0
LINE
  8
0
 10
15.508
 20
-0.190506
 11
15.4931
 21
-0.284805
  0
LINE
  8
0
 10
15.4931
 20
-0.284805
 11
15.4722
 21
-0.378006
  0
LINE
  8
0
 10
15.4722
 20
-0.378006
 11
15.4456
 21
-0.469696
  0
LINE
  8
0
 10
15.4456
 20
-0.469696
 11
15.4133
 21
-0.55954
  0
LINE
  8
0
 10
15.4133
 20
-0.55954
 11
15.3753
 21
-0.647171
  0
LINE
  8
0
 10
15.3753
 20
-0.647171
 11
15.332
 21
-0.732254
  0
LINE
  8
0
 10
15.332
 20
-0.732254
 11
15.2834
 21
-0.814453
  0
LINE
  8
0
 10
15.2834
 20
-0.814453
 11
15.2297
 21
-0.893433
  0
LINE
  8
0
 10
15.2297
 20
-0.893433
 11
15.1712
 21
-0.968872
  0
LINE
  8
0
 10
15.1712
 20
-0.968872
 11
15.108
 21
-1.0405
  0
LINE
  8
0
 10
15.108
 20
-1.0405
 11
15.0405
 21
-1.10803
  0
LINE
  8
0
 10
15.0405
 20
-1.10803
 11
14.9689
 21
-1.17117
  0
LINE
  8
0
 10
14.9689
 20
-1.17117
 11
14.8934
 21
-1.22971
  0
LINE
  8
0
 10
14.8934
 20
-1.22971
 11
14.8145
 21
-1.28337
  0
LINE
  8
0
 10
14.8145
 20
-1.28337
 11
14.7323
 21
-1.33199
  0
LINE
  8
0
 10
14.7323
 20
-1.33199
 11
14.6472
 21
-1.37534
  0
LINE
  8
0
 10
14.6472
 20
-1.37534
 11
14.5595
 21
-1.41325
  0
LINE
  8
0
 10
14.5595
 20
-1.41325
 11
14.4697
 21
-1.4456
  0
LINE
  8
0
 10
14.4697
 20
-1.4456
 11
14.378
 21
-1.47224
  0
LINE
  8
0
 10
14.378
 20
-1.47224
 11
14.2848
 21
-1.49307
  0
LINE
  8
0
 10
14.2848
 20
-1.49307
 11
14.1905
 21
-1.50801
  0
LINE
  8
0
 10
14.1905
 20
-1.50801
 11
14.0954
 21
-1.517
  0
LINE
  8
0
 10
14.0954
 20
-1.517
 11
14
 21
-1.51999
  0
LINE
  8
0
 10
14
 20
-1.51999
 11
13.9046
 21
-1.517
  0
ENDSEC
  0
SECTION
  2
OBJECTS
  0
DICTIONARY
  0
ENDSEC
  0
EOF
