  0
SECTION
  2
BLOCKS
  0
ENDSEC
  0
SECTION
  2
ENTITIES
  0
LINE
  8
0
 10
80
 20
17.5
 11
104
 21
17.5
  0
LINE
  8
0
 10
104
 20
17.5
 11
104
 21
47.5
  0
LINE
  8
0
 10
104
 20
47.5
 11
80
 21
47.5
  0
LINE
  8
0
 10
80
 20
47.5
 11
80
 21
65
  0
LINE
  8
0
 10
80
 20
65
 11
0
 21
65
  0
LINE
  8
0
 10
0
 20
65
 11
0
 21
43.5
  0
LINE
  8
0
 10
0
 20
43.5
 11
-21
 21
43.5
  0
LINE
  8
0
 10
-21
 20
43.5
 11
-21
 21
21.5
  0
LINE
  8
0
 10
-21
 20
21.5
 11
0
 21
21.5
  0
LINE
  8
0
 10
0
 20
21.5
 11
0
 21
0
  0
LINE
  8
0
 10
0
 20
0
 11
80
 21
0
  0
LINE
  8
0
 10
80
 20
0
 11
80
 21
17.5
  0
LINE
  8
0
 10
45.9027
 20
58.453
 11
45.8057
 21
58.4622
  0
LINE
  8
0
 10
45.8057
 20
58.4622
 11
45.7095
 21
58.4774
  0
LINE
  8
0
 10
45.7095
 20
58.4774
 11
45.6145
 21
58.4987
  0
LINE
  8
0
 10
45.6145
 20
58.4987
 11
45.521
 21
58.5259
  0
LINE
  8
0
 10
45.521
 20
58.5259
 11
45.4294
 21
58.5588
  0
LINE
  8
0
 10
45.4294
 20
58.5588
 11
45.34
 21
58.5975
  0
LINE
  8
0
 10
45.34
 20
58.5975
 11
45.2533
 21
58.6417
  0
LINE
  8
0
 10
45.2533
 20
58.6417
 11
45.1695
 21
58.6913
  0
LINE
  8
0
 10
45.1695
 20
58.6913
 11
45.0889
 21
58.746
  0
LINE
  8
0
 10
45.0889
 20
58.746
 11
45.012
 21
58.8057
  0
LINE
  8
0
 10
45.012
 20
58.8057
 11
44.9389
 21
58.8701
  0
LINE
  8
0
 10
44.9389
 20
58.8701
 11
44.8701
 21
58.9389
  0
LINE
  8
0
 10
44.8701
 20
58.9389
 11
44.8057
 21
59.012
  0
LINE
  8
0
 10
44.8057
 20
59.012
 11
44.746
 21
59.0889
  0
LINE
  8
0
 10
44.746
 20
59.0889
 11
44.6913
 21
59.1695
  0
LINE
  8
0
 10
44.6913
 20
59.1695
 11
44.6417
 21
59.2533
  0
LINE
  8
0
 10
44.6417
 20
59.2533
 11
44.5975
 21
59.34
  0
LINE
  8
0
 10
44.5975
 20
59.34
 11
44.5588
 21
59.4294
  0
LINE
  8
0
 10
44.5588
 20
59.4294
 11
44.5259
 21
59.521
  0
LINE
  8
0
 10
44.5259
 20
59.521
 11
44.4987
 21
59.6145
  0
LINE
  8
0
 10
44.4987
 20
59.6145
 11
44.4774
 21
59.7095
  0
LINE
  8
0
 10
44.4774
 20
59.7095
 11
44.4622
 21
59.8057
  0
LINE
  8
0
 10
44.4622
 20
59.8057
 11
44.453
 21
59.9027
  0
LINE
  8
0
 10
44.453
 20
59.9027
 11
44.45
 21
60
  0
LINE
  8
0
 10
44.45
 20
60
 11
44.453
 21
60.0973
  0
LINE
  8
0
 10
44.453
 20
60.0973
 11
44.4622
 21
60.1943
  0
LINE
  8
0
 10
44.4622
 20
60.1943
 11
44.4774
 21
60.2904
  0
LINE
  8
0
 10
44.4774
 20
60.2904
 11
44.4987
 21
60.3855
  0
LINE
  8
0
 10
44.4987
 20
60.3855
 11
44.5259
 21
60.479
  0
LINE
  8
0
 10
44.5259
 20
60.479
 11
44.5588
 21
60.5706
  0
LINE
  8
0
 10
44.5588
 20
60.5706
 11
44.5975
 21
60.66
  0
LINE
  8
0
 10
44.5975
 20
60.66
 11
44.6417
 21
60.7467
  0
LINE
  8
0
 10
44.6417
 20
60.7467
 11
44.6913
 21
60.8305
  0
LINE
  8
0
 10
44.6913
 20
60.8305
 11
44.746
 21
60.9111
  0
LINE
  8
0
 10
44.746
 20
60.9111
 11
44.8057
 21
60.988
  0
LINE
  8
0
 10
44.8057
 20
60.988
 11
44.8701
 21
61.061
  0
LINE
  8
0
 10
44.8701
 20
61.061
 11
44.9389
 21
61.1299
  0
LINE
  8
0
 10
44.9389
 20
61.1299
 11
45.012
 21
61.1943
  0
LINE
  8
0
 10
45.012
 20
61.1943
 11
45.0889
 21
61.254
  0
LINE
  8
0
 10
45.0889
 20
61.254
 11
45.1695
 21
61.3087
  0
LINE
  8
0
 10
45.1695
 20
61.3087
 11
45.2533
 21
61.3583
  0
LINE
  8
0
 10
45.2533
 20
61.3583
 11
45.34
 21
61.4025
  0
LINE
  8
0
 10
45.34
 20
61.4025
 11
45.4294
 21
61.4411
  0
LINE
  8
0
 10
45.4294
 20
61.4411
 11
45.521
 21
61.4741
  0
LINE
  8
0
 10
45.521
 20
61.4741
 11
45.6145
 21
61.5013
  0
LINE
  8
0
 10
45.6145
 20
61.5013
 11
45.7095
 21
61.5225
  0
LINE
  8
0
 10
45.7095
 20
61.5225
 11
45.8057
 21
61.5378
  0
LINE
  8
0
 10
45.8057
 20
61.5378
 11
45.9027
 21
61.5469
  0
LINE
  8
0
 10
45.9027
 20
61.5469
 11
46
 21
61.55
  0
LINE
  8
0
 10
46
 20
61.55
 11
46.0973
 21
61.5469
  0
LINE
  8
0
 10
46.0973
 20
61.5469
 11
46.1943
 21
61.5378
  0
LINE
  8
0
 10
46.1943
 20
61.5378
 11
46.2904
 21
61.5225
  0
LINE
  8
0
 10
46.2904
 20
61.5225
 11
46.3855
 21
61.5013
  0
LINE
  8
0
 10
46.3855
 20
61.5013
 11
46.479
 21
61.4741
  0
LINE
  8
0
 10
46.479
 20
61.4741
 11
46.5706
 21
61.4411
  0
LINE
  8
0
 10
46.5706
 20
61.4411
 11
46.66
 21
61.4025
  0
LINE
  8
0
 10
46.66
 20
61.4025
 11
46.7467
 21
61.3583
  0
LINE
  8
0
 10
46.7467
 20
61.3583
 11
46.8305
 21
61.3087
  0
LINE
  8
0
 10
46.8305
 20
61.3087
 11
46.9111
 21
61.254
  0
LINE
  8
0
 10
46.9111
 20
61.254
 11
46.988
 21
61.1943
  0
LINE
  8
0
 10
46.988
 20
61.1943
 11
47.061
 21
61.1299
  0
LINE
  8
0
 10
47.061
 20
61.1299
 11
47.1299
 21
61.061
  0
LINE
  8
0
 10
47.1299
 20
61.061
 11
47.1943
 21
60.988
  0
LINE
  8
0
 10
47.1943
 20
60.988
 11
47.254
 21
60.9111
  0
LINE
  8
0
 10
47.254
 20
60.9111
 11
47.3087
 21
60.8305
  0
LINE
  8
0
 10
47.3087
 20
60.8305
 11
47.3583
 21
60.7467
  0
LINE
  8
0
 10
47.3583
 20
60.7467
 11
47.4025
 21
60.66
  0
LINE
  8
0
 10
47.4025
 20
60.66
 11
47.4411
 21
60.5706
  0
LINE
  8
0
 10
47.4411
 20
60.5706
 11
47.4741
 21
60.479
  0
LINE
  8
0
 10
47.4741
 20
60.479
 11
47.5013
 21
60.3855
  0
LINE
  8
0
 10
47.5013
 20
60.3855
 11
47.5225
 21
60.2904
  0
LINE
  8
0
 10
47.5225
 20
60.2904
 11
47.5378
 21
60.1943
  0
LINE
  8
0
 10
47.5378
 20
60.1943
 11
47.5469
 21
60.0973
  0
LINE
  8
0
 10
47.5469
 20
60.0973
 11
47.55
 21
60
  0
LINE
  8
0
 10
47.55
 20
60
 11
47.5469
 21
59.9027
  0
LINE
  8
0
 10
47.5469
 20
59.9027
 11
47.5378
 21
59.8057
  0
LINE
  8
0
 10
47.5378
 20
59.8057
 11
47.5225
 21
59.7095
  0
LINE
  8
0
 10
47.5225
 20
59.7095
 11
47.5013
 21
59.6145
  0
LINE
  8
0
 10
47.5013
 20
59.6145
 11
47.4741
 21
59.521
  0
LINE
  8
0
 10
47.4741
 20
59.521
 11
47.4411
 21
59.4294
  0
LINE
  8
0
 10
47.4411
 20
59.4294
 11
47.4025
 21
59.34
  0
LINE
  8
0
 10
47.4025
 20
59.34
 11
47.3583
 21
59.2533
  0
LINE
  8
0
 10
47.3583
 20
59.2533
 11
47.3087
 21
59.1695
  0
LINE
  8
0
 10
47.3087
 20
59.1695
 11
47.254
 21
59.0889
  0
LINE
  8
0
 10
47.254
 20
59.0889
 11
47.1943
 21
59.012
  0
LINE
  8
0
 10
47.1943
 20
59.012
 11
47.1299
 21
58.9389
  0
LINE
  8
0
 10
47.1299
 20
58.9389
 11
47.061
 21
58.8701
  0
LINE
  8
0
 10
47.061
 20
58.8701
 11
46.988
 21
58.8057
  0
LINE
  8
0
 10
46.988
 20
58.8057
 11
46.9111
 21
58.746
  0
LINE
  8
0
 10
46.9111
 20
58.746
 11
46.8305
 21
58.6913
  0
LINE
  8
0
 10
46.8305
 20
58.6913
 11
46.7467
 21
58.6417
  0
LINE
  8
0
 10
46.7467
 20
58.6417
 11
46.66
 21
58.5975
  0
LINE
  8
0
 10
46.66
 20
58.5975
 11
46.5706
 21
58.5588
  0
LINE
  8
0
 10
46.5706
 20
58.5588
 11
46.479
 21
58.5259
  0
LINE
  8
0
 10
46.479
 20
58.5259
 11
46.3855
 21
58.4987
  0
LINE
  8
0
 10
46.3855
 20
58.4987
 11
46.2904
 21
58.4774
  0
LINE
  8
0
 10
46.2904
 20
58.4774
 11
46.1943
 21
58.4622
  0
LINE
  8
0
 10
46.1943
 20
58.4622
 11
46.0973
 21
58.453
  0
LINE
  8
0
 10
46.0973
 20
58.453
 11
46
 21
58.45
  0
LINE
  8
0
 10
46
 20
58.45
 11
45.9027
 21
58.453
  0
LINE
  8
0
 10
4.90266
 20
58.453
 11
4.80573
 21
58.4622
  0
LINE
  8
0
 10
4.80573
 20
58.4622
 11
4.70955
 21
58.4774
  0
LINE
  8
0
 10
4.70955
 20
58.4774
 11
4.61452
 21
58.4987
  0
LINE
  8
0
 10
4.61452
 20
58.4987
 11
4.52101
 21
58.5259
  0
LINE
  8
0
 10
4.52101
 20
58.5259
 11
4.4294
 21
58.5588
  0
LINE
  8
0
 10
4.4294
 20
58.5588
 11
4.34003
 21
58.5975
  0
LINE
  8
0
 10
4.34003
 20
58.5975
 11
4.25328
 21
58.6417
  0
LINE
  8
0
 10
4.25328
 20
58.6417
 11
4.16946
 21
58.6913
  0
LINE
  8
0
 10
4.16946
 20
58.6913
 11
4.08893
 21
58.746
  0
LINE
  8
0
 10
4.08893
 20
58.746
 11
4.01198
 21
58.8057
  0
LINE
  8
0
 10
4.01198
 20
58.8057
 11
3.93895
 21
58.8701
  0
LINE
  8
0
 10
3.93895
 20
58.8701
 11
3.87009
 21
58.9389
  0
LINE
  8
0
 10
3.87009
 20
58.9389
 11
3.80569
 21
59.012
  0
LINE
  8
0
 10
3.80569
 20
59.012
 11
3.74602
 21
59.0889
  0
LINE
  8
0
 10
3.74602
 20
59.0889
 11
3.69128
 21
59.1695
  0
LINE
  8
0
 10
3.69128
 20
59.1695
 11
3.64172
 21
59.2533
  0
LINE
  8
0
 10
3.64172
 20
59.2533
 11
3.5975
 21
59.34
  0
LINE
  8
0
 10
3.5975
 20
59.34
 11
3.55884
 21
59.4294
  0
LINE
  8
0
 10
3.55884
 20
59.4294
 11
3.52585
 21
59.521
  0
LINE
  8
0
 10
3.52585
 20
59.521
 11
3.49869
 21
59.6145
  0
LINE
  8
0
 10
3.49869
 20
59.6145
 11
3.47745
 21
59.7095
  0
LINE
  8
0
 10
3.47745
 20
59.7095
 11
3.46222
 21
59.8057
  0
LINE
  8
0
 10
3.46222
 20
59.8057
 11
3.45305
 21
59.9027
  0
LINE
  8
0
 10
3.45305
 20
59.9027
 11
3.45
 21
60
  0
LINE
  8
0
 10
3.45
 20
60
 11
3.45305
 21
60.0973
  0
LINE
  8
0
 10
3.45305
 20
60.0973
 11
3.46222
 21
60.1943
  0
LINE
  8
0
 10
3.46222
 20
60.1943
 11
3.47745
 21
60.2904
  0
LINE
  8
0
 10
3.47745
 20
60.2904
 11
3.49869
 21
60.3855
  0
LINE
  8
0
 10
3.49869
 20
60.3855
 11
3.52585
 21
60.479
  0
LINE
  8
0
 10
3.52585
 20
60.479
 11
3.55884
 21
60.5706
  0
LINE
  8
0
 10
3.55884
 20
60.5706
 11
3.5975
 21
60.66
  0
LINE
  8
0
 10
3.5975
 20
60.66
 11
3.64172
 21
60.7467
  0
LINE
  8
0
 10
3.64172
 20
60.7467
 11
3.69128
 21
60.8305
  0
LINE
  8
0
 10
3.69128
 20
60.8305
 11
3.74602
 21
60.9111
  0
LINE
  8
0
 10
3.74602
 20
60.9111
 11
3.80569
 21
60.988
  0
LINE
  8
0
 10
3.80569
 20
60.988
 11
3.87009
 21
61.061
  0
LINE
  8
0
 10
3.87009
 20
61.061
 11
3.93895
 21
61.1299
  0
LINE
  8
0
 10
3.93895
 20
61.1299
 11
4.01198
 21
61.1943
  0
LINE
  8
0
 10
4.01198
 20
61.1943
 11
4.08893
 21
61.254
  0
LINE
  8
0
 10
4.08893
 20
61.254
 11
4.16946
 21
61.3087
  0
LINE
  8
0
 10
4.16946
 20
61.3087
 11
4.25328
 21
61.3583
  0
LINE
  8
0
 10
4.25328
 20
61.3583
 11
4.34003
 21
61.4025
  0
LINE
  8
0
 10
4.34003
 20
61.4025
 11
4.4294
 21
61.4411
  0
LINE
  8
0
 10
4.4294
 20
61.4411
 11
4.52101
 21
61.4741
  0
LINE
  8
0
 10
4.52101
 20
61.4741
 11
4.61452
 21
61.5013
  0
LINE
  8
0
 10
4.61452
 20
61.5013
 11
4.70955
 21
61.5225
  0
LINE
  8
0
 10
4.70955
 20
61.5225
 11
4.80573
 21
61.5378
  0
LINE
  8
0
 10
4.80573
 20
61.5378
 11
4.90266
 21
61.5469
  0
LINE
  8
0
 10
4.90266
 20
61.5469
 11
5
 21
61.55
  0
LINE
  8
0
 10
5
 20
61.55
 11
5.09732
 21
61.5469
  0
LINE
  8
0
 10
5.09732
 20
61.5469
 11
5.19426
 21
61.5378
  0
LINE
  8
0
 10
5.19426
 20
61.5378
 11
5.29044
 21
61.5225
  0
LINE
  8
0
 10
5.29044
 20
61.5225
 11
5.38547
 21
61.5013
  0
LINE
  8
0
 10
5.38547
 20
61.5013
 11
5.47897
 21
61.4741
  0
LINE
  8
0
 10
5.47897
 20
61.4741
 11
5.57059
 21
61.4411
  0
LINE
  8
0
 10
5.57059
 20
61.4411
 11
5.65996
 21
61.4025
  0
LINE
  8
0
 10
5.65996
 20
61.4025
 11
5.7467
 21
61.3583
  0
LINE
  8
0
 10
5.7467
 20
61.3583
 11
5.83052
 21
61.3087
  0
LINE
  8
0
 10
5.83052
 20
61.3087
 11
5.91106
 21
61.254
  0
LINE
  8
0
 10
5.91106
 20
61.254
 11
5.98801
 21
61.1943
  0
LINE
  8
0
 10
5.98801
 20
61.1943
 11
6.06104
 21
61.1299
  0
LINE
  8
0
 10
6.06104
 20
61.1299
 11
6.1299
 21
61.061
  0
LINE
  8
0
 10
6.1299
 20
61.061
 11
6.19429
 21
60.988
  0
LINE
  8
0
 10
6.19429
 20
60.988
 11
6.25397
 21
60.9111
  0
LINE
  8
0
 10
6.25397
 20
60.9111
 11
6.3087
 21
60.8305
  0
LINE
  8
0
 10
6.3087
 20
60.8305
 11
6.35826
 21
60.7467
  0
LINE
  8
0
 10
6.35826
 20
60.7467
 11
6.40248
 21
60.66
  0
LINE
  8
0
 10
6.40248
 20
60.66
 11
6.44115
 21
60.5706
  0
LINE
  8
0
 10
6.44115
 20
60.5706
 11
6.47414
 21
60.479
  0
LINE
  8
0
 10
6.47414
 20
60.479
 11
6.5013
 21
60.3855
  0
LINE
  8
0
 10
6.5013
 20
60.3855
 11
6.52254
 21
60.2904
  0
LINE
  8
0
 10
6.52254
 20
60.2904
 11
6.53777
 21
60.1943
  0
LINE
  8
0
 10
6.53777
 20
60.1943
 11
6.54694
 21
60.0973
  0
LINE
  8
0
 10
6.54694
 20
60.0973
 11
6.54999
 21
60
  0
LINE
  8
0
 10
6.54999
 20
60
 11
6.54694
 21
59.9027
  0
LINE
  8
0
 10
6.54694
 20
59.9027
 11
6.53777
 21
59.8057
  0
LINE
  8
0
 10
6.53777
 20
59.8057
 11
6.52254
 21
59.7095
  0
LINE
  8
0
 10
6.52254
 20
59.7095
 11
6.5013
 21
59.6145
  0
LINE
  8
0
 10
6.5013
 20
59.6145
 11
6.47414
 21
59.521
  0
LINE
  8
0
 10
6.47414
 20
59.521
 11
6.44115
 21
59.4294
  0
LINE
  8
0
 10
6.44115
 20
59.4294
 11
6.40248
 21
59.34
  0
LINE
  8
0
 10
6.40248
 20
59.34
 11
6.35826
 21
59.2533
  0
LINE
  8
0
 10
6.35826
 20
59.2533
 11
6.3087
 21
59.1695
  0
LINE
  8
0
 10
6.3087
 20
59.1695
 11
6.25397
 21
59.0889
  0
LINE
  8
0
 10
6.25397
 20
59.0889
 11
6.19429
 21
59.012
  0
LINE
  8
0
 10
6.19429
 20
59.012
 11
6.1299
 21
58.9389
  0
LINE
  8
0
 10
6.1299
 20
58.9389
 11
6.06104
 21
58.8701
  0
LINE
  8
0
 10
6.06104
 20
58.8701
 11
5.98801
 21
58.8057
  0
LINE
  8
0
 10
5.98801
 20
58.8057
 11
5.91106
 21
58.746
  0
LINE
  8
0
 10
5.91106
 20
58.746
 11
5.83052
 21
58.6913
  0
LINE
  8
0
 10
5.83052
 20
58.6913
 11
5.7467
 21
58.6417
  0
LINE
  8
0
 10
5.7467
 20
58.6417
 11
5.65996
 21
58.5975
  0
LINE
  8
0
 10
5.65996
 20
58.5975
 11
5.57059
 21
58.5588
  0
LINE
  8
0
 10
5.57059
 20
58.5588
 11
5.47897
 21
58.5259
  0
LINE
  8
0
 10
5.47897
 20
58.5259
 11
5.38547
 21
58.4987
  0
LINE
  8
0
 10
5.38547
 20
58.4987
 11
5.29044
 21
58.4774
  0
LINE
  8
0
 10
5.29044
 20
58.4774
 11
5.19426
 21
58.4622
  0
LINE
  8
0
 10
5.19426
 20
58.4622
 11
5.09732
 21
58.453
  0
LINE
  8
0
 10
5.09732
 20
58.453
 11
5
 21
58.45
  0
LINE
  8
0
 10
5
 20
58.45
 11
4.90266
 21
58.453
  0
LINE
  8
0
 10
97.8885
 20
39.4785
 11
97.7775
 21
39.489
  0
LINE
  8
0
 10
97.7775
 20
39.489
 11
97.6674
 21
39.5064
  0
LINE
  8
0
 10
97.6674
 20
39.5064
 11
97.5586
 21
39.5308
  0
LINE
  8
0
 10
97.5586
 20
39.5308
 11
97.4515
 21
39.5619
  0
LINE
  8
0
 10
97.4515
 20
39.5619
 11
97.3466
 21
39.5996
  0
LINE
  8
0
 10
97.3466
 20
39.5996
 11
97.2442
 21
39.6439
  0
LINE
  8
0
 10
97.2442
 20
39.6439
 11
97.1449
 21
39.6945
  0
LINE
  8
0
 10
97.1449
 20
39.6945
 11
97.0489
 21
39.7513
  0
LINE
  8
0
 10
97.0489
 20
39.7513
 11
96.9567
 21
39.814
  0
LINE
  8
0
 10
96.9567
 20
39.814
 11
96.8686
 21
39.8823
  0
LINE
  8
0
 10
96.8686
 20
39.8823
 11
96.7849
 21
39.9561
  0
LINE
  8
0
 10
96.7849
 20
39.9561
 11
96.7061
 21
40.0349
  0
LINE
  8
0
 10
96.7061
 20
40.0349
 11
96.6323
 21
40.1186
  0
LINE
  8
0
 10
96.6323
 20
40.1186
 11
96.564
 21
40.2067
  0
LINE
  8
0
 10
96.564
 20
40.2067
 11
96.5013
 21
40.2989
  0
LINE
  8
0
 10
96.5013
 20
40.2989
 11
96.4445
 21
40.3949
  0
LINE
  8
0
 10
96.4445
 20
40.3949
 11
96.3939
 21
40.4942
  0
LINE
  8
0
 10
96.3939
 20
40.4942
 11
96.3496
 21
40.5966
  0
LINE
  8
0
 10
96.3496
 20
40.5966
 11
96.3119
 21
40.7015
  0
LINE
  8
0
 10
96.3119
 20
40.7015
 11
96.2808
 21
40.8086
  0
LINE
  8
0
 10
96.2808
 20
40.8086
 11
96.2564
 21
40.9174
  0
LINE
  8
0
 10
96.2564
 20
40.9174
 11
96.239
 21
41.0275
  0
LINE
  8
0
 10
96.239
 20
41.0275
 11
96.2285
 21
41.1385
  0
LINE
  8
0
 10
96.2285
 20
41.1385
 11
96.225
 21
41.25
  0
LINE
  8
0
 10
96.225
 20
41.25
 11
96.2285
 21
41.3615
  0
LINE
  8
0
 10
96.2285
 20
41.3615
 11
96.239
 21
41.4725
  0
LINE
  8
0
 10
96.239
 20
41.4725
 11
96.2564
 21
41.5826
  0
LINE
  8
0
 10
96.2564
 20
41.5826
 11
96.2808
 21
41.6914
  0
LINE
  8
0
 10
96.2808
 20
41.6914
 11
96.3119
 21
41.7985
  0
LINE
  8
0
 10
96.3119
 20
41.7985
 11
96.3496
 21
41.9034
  0
LINE
  8
0
 10
96.3496
 20
41.9034
 11
96.3939
 21
42.0058
  0
LINE
  8
0
 10
96.3939
 20
42.0058
 11
96.4445
 21
42.1051
  0
LINE
  8
0
 10
96.4445
 20
42.1051
 11
96.5013
 21
42.2011
  0
LINE
  8
0
 10
96.5013
 20
42.2011
 11
96.564
 21
42.2933
  0
LINE
  8
0
 10
96.564
 20
42.2933
 11
96.6323
 21
42.3814
  0
LINE
  8
0
 10
96.6323
 20
42.3814
 11
96.7061
 21
42.4651
  0
LINE
  8
0
 10
96.7061
 20
42.4651
 11
96.7849
 21
42.5439
  0
LINE
  8
0
 10
96.7849
 20
42.5439
 11
96.8686
 21
42.6177
  0
LINE
  8
0
 10
96.8686
 20
42.6177
 11
96.9567
 21
42.686
  0
LINE
  8
0
 10
96.9567
 20
42.686
 11
97.0489
 21
42.7487
  0
LINE
  8
0
 10
97.0489
 20
42.7487
 11
97.1449
 21
42.8054
  0
LINE
  8
0
 10
97.1449
 20
42.8054
 11
97.2442
 21
42.8561
  0
LINE
  8
0
 10
97.2442
 20
42.8561
 11
97.3466
 21
42.9003
  0
LINE
  8
0
 10
97.3466
 20
42.9003
 11
97.4515
 21
42.9381
  0
LINE
  8
0
 10
97.4515
 20
42.9381
 11
97.5586
 21
42.9692
  0
LINE
  8
0
 10
97.5586
 20
42.9692
 11
97.6674
 21
42.9936
  0
LINE
  8
0
 10
97.6674
 20
42.9936
 11
97.7775
 21
43.011
  0
LINE
  8
0
 10
97.7775
 20
43.011
 11
97.8885
 21
43.0215
  0
LINE
  8
0
 10
97.8885
 20
43.0215
 11
98
 21
43.025
  0
LINE
  8
0
 10
98
 20
43.025
 11
98.1115
 21
43.0215
  0
LINE
  8
0
 10
98.1115
 20
43.0215
 11
98.2225
 21
43.011
  0
LINE
  8
0
 10
98.2225
 20
43.011
 11
98.3326
 21
42.9936
  0
LINE
  8
0
 10
98.3326
 20
42.9936
 11
98.4414
 21
42.9692
  0
LINE
  8
0
 10
98.4414
 20
42.9692
 11
98.5485
 21
42.9381
  0
LINE
  8
0
 10
98.5485
 20
42.9381
 11
98.6534
 21
42.9003
  0
LINE
  8
0
 10
98.6534
 20
42.9003
 11
98.7558
 21
42.8561
  0
LINE
  8
0
 10
98.7558
 20
42.8561
 11
98.8551
 21
42.8054
  0
LINE
  8
0
 10
98.8551
 20
42.8054
 11
98.9511
 21
42.7487
  0
LINE
  8
0
 10
98.9511
 20
42.7487
 11
99.0433
 21
42.686
  0
LINE
  8
0
 10
99.0433
 20
42.686
 11
99.1314
 21
42.6177
  0
LINE
  8
0
 10
99.1314
 20
42.6177
 11
99.2151
 21
42.5439
  0
LINE
  8
0
 10
99.2151
 20
42.5439
 11
99.2939
 21
42.4651
  0
LINE
  8
0
 10
99.2939
 20
42.4651
 11
99.3677
 21
42.3814
  0
LINE
  8
0
 10
99.3677
 20
42.3814
 11
99.436
 21
42.2933
  0
LINE
  8
0
 10
99.436
 20
42.2933
 11
99.4987
 21
42.2011
  0
LINE
  8
0
 10
99.4987
 20
42.2011
 11
99.5554
 21
42.1051
  0
LINE
  8
0
 10
99.5554
 20
42.1051
 11
99.6061
 21
42.0058
  0
LINE
  8
0
 10
99.6061
 20
42.0058
 11
99.6503
 21
41.9034
  0
LINE
  8
0
 10
99.6503
 20
41.9034
 11
99.6881
 21
41.7985
  0
LINE
  8
0
 10
99.6881
 20
41.7985
 11
99.7192
 21
41.6914
  0
LINE
  8
0
 10
99.7192
 20
41.6914
 11
99.7436
 21
41.5826
  0
LINE
  8
0
 10
99.7436
 20
41.5826
 11
99.761
 21
41.4725
  0
LINE
  8
0
 10
99.761
 20
41.4725
 11
99.7715
 21
41.3615
  0
LINE
  8
0
 10
99.7715
 20
41.3615
 11
99.775
 21
41.25
  0
LINE
  8
0
 10
99.775
 20
41.25
 11
99.7715
 21
41.1385
  0
LINE
  8
0
 10
99.7715
 20
41.1385
 11
99.761
 21
41.0275
  0
LINE
  8
0
 10
99.761
 20
41.0275
 11
99.7436
 21
40.9174
  0
LINE
  8
0
 10
99.7436
 20
40.9174
 11
99.7192
 21
40.8086
  0
LINE
  8
0
 10
99.7192
 20
40.8086
 11
99.6881
 21
40.7015
  0
LINE
  8
0
 10
99.6881
 20
40.7015
 11
99.6503
 21
40.5966
  0
LINE
  8
0
 10
99.6503
 20
40.5966
 11
99.6061
 21
40.4942
  0
LINE
  8
0
 10
99.6061
 20
40.4942
 11
99.5554
 21
40.3949
  0
LINE
  8
0
 10
99.5554
 20
40.3949
 11
99.4987
 21
40.2989
  0
LINE
  8
0
 10
99.4987
 20
40.2989
 11
99.436
 21
40.2067
  0
LINE
  8
0
 10
99.436
 20
40.2067
 11
99.3677
 21
40.1186
  0
LINE
  8
0
 10
99.3677
 20
40.1186
 11
99.2939
 21
40.0349
  0
LINE
  8
0
 10
99.2939
 20
40.0349
 11
99.2151
 21
39.9561
  0
LINE
  8
0
 10
99.2151
 20
39.9561
 11
99.1314
 21
39.8823
  0
LINE
  8
0
 10
99.1314
 20
39.8823
 11
99.0433
 21
39.814
  0
LINE
  8
0
 10
99.0433
 20
39.814
 11
98.9511
 21
39.7513
  0
LINE
  8
0
 10
98.9511
 20
39.7513
 11
98.8551
 21
39.6945
  0
LINE
  8
0
 10
98.8551
 20
39.6945
 11
98.7558
 21
39.6439
  0
LINE
  8
0
 10
98.7558
 20
39.6439
 11
98.6534
 21
39.5996
  0
LINE
  8
0
 10
98.6534
 20
39.5996
 11
98.5485
 21
39.5619
  0
LINE
  8
0
 10
98.5485
 20
39.5619
 11
98.4414
 21
39.5308
  0
LINE
  8
0
 10
98.4414
 20
39.5308
 11
98.3326
 21
39.5064
  0
LINE
  8
0
 10
98.3326
 20
39.5064
 11
98.2225
 21
39.489
  0
LINE
  8
0
 10
98.2225
 20
39.489
 11
98.1115
 21
39.4785
  0
LINE
  8
0
 10
98.1115
 20
39.4785
 11
98
 21
39.475
  0
LINE
  8
0
 10
98
 20
39.475
 11
97.8885
 21
39.4785
  0
LINE
  8
0
 10
67.9027
 20
35.953
 11
67.8057
 21
35.9622
  0
LINE
  8
0
 10
67.8057
 20
35.9622
 11
67.7095
 21
35.9774
  0
LINE
  8
0
 10
67.7095
 20
35.9774
 11
67.6145
 21
35.9987
  0
LINE
  8
0
 10
67.6145
 20
35.9987
 11
67.521
 21
36.0259
  0
LINE
  8
0
 10
67.521
 20
36.0259
 11
67.4294
 21
36.0588
  0
LINE
  8
0
 10
67.4294
 20
36.0588
 11
67.34
 21
36.0975
  0
LINE
  8
0
 10
67.34
 20
36.0975
 11
67.2533
 21
36.1417
  0
LINE
  8
0
 10
67.2533
 20
36.1417
 11
67.1695
 21
36.1913
  0
LINE
  8
0
 10
67.1695
 20
36.1913
 11
67.0889
 21
36.246
  0
LINE
  8
0
 10
67.0889
 20
36.246
 11
67.012
 21
36.3057
  0
LINE
  8
0
 10
67.012
 20
36.3057
 11
66.9389
 21
36.3701
  0
LINE
  8
0
 10
66.9389
 20
36.3701
 11
66.8701
 21
36.4389
  0
LINE
  8
0
 10
66.8701
 20
36.4389
 11
66.8057
 21
36.512
  0
LINE
  8
0
 10
66.8057
 20
36.512
 11
66.746
 21
36.5889
  0
LINE
  8
0
 10
66.746
 20
36.5889
 11
66.6913
 21
36.6695
  0
LINE
  8
0
 10
66.6913
 20
36.6695
 11
66.6417
 21
36.7533
  0
LINE
  8
0
 10
66.6417
 20
36.7533
 11
66.5975
 21
36.84
  0
LINE
  8
0
 10
66.5975
 20
36.84
 11
66.5588
 21
36.9294
  0
LINE
  8
0
 10
66.5588
 20
36.9294
 11
66.5259
 21
37.021
  0
LINE
  8
0
 10
66.5259
 20
37.021
 11
66.4987
 21
37.1145
  0
LINE
  8
0
 10
66.4987
 20
37.1145
 11
66.4774
 21
37.2095
  0
LINE
  8
0
 10
66.4774
 20
37.2095
 11
66.4622
 21
37.3057
  0
LINE
  8
0
 10
66.4622
 20
37.3057
 11
66.453
 21
37.4027
  0
LINE
  8
0
 10
66.453
 20
37.4027
 11
66.45
 21
37.5
  0
LINE
  8
0
 10
66.45
 20
37.5
 11
66.453
 21
37.5973
  0
LINE
  8
0
 10
66.453
 20
37.5973
 11
66.4622
 21
37.6943
  0
LINE
  8
0
 10
66.4622
 20
37.6943
 11
66.4774
 21
37.7904
  0
LINE
  8
0
 10
66.4774
 20
37.7904
 11
66.4987
 21
37.8855
  0
LINE
  8
0
 10
66.4987
 20
37.8855
 11
66.5259
 21
37.979
  0
LINE
  8
0
 10
66.5259
 20
37.979
 11
66.5588
 21
38.0706
  0
LINE
  8
0
 10
66.5588
 20
38.0706
 11
66.5975
 21
38.16
  0
LINE
  8
0
 10
66.5975
 20
38.16
 11
66.6417
 21
38.2467
  0
LINE
  8
0
 10
66.6417
 20
38.2467
 11
66.6913
 21
38.3305
  0
LINE
  8
0
 10
66.6913
 20
38.3305
 11
66.746
 21
38.4111
  0
LINE
  8
0
 10
66.746
 20
38.4111
 11
66.8057
 21
38.488
  0
LINE
  8
0
 10
66.8057
 20
38.488
 11
66.8701
 21
38.561
  0
LINE
  8
0
 10
66.8701
 20
38.561
 11
66.9389
 21
38.6299
  0
LINE
  8
0
 10
66.9389
 20
38.6299
 11
67.012
 21
38.6943
  0
LINE
  8
0
 10
67.012
 20
38.6943
 11
67.0889
 21
38.754
  0
LINE
  8
0
 10
67.0889
 20
38.754
 11
67.1695
 21
38.8087
  0
LINE
  8
0
 10
67.1695
 20
38.8087
 11
67.2533
 21
38.8583
  0
LINE
  8
0
 10
67.2533
 20
38.8583
 11
67.34
 21
38.9025
  0
LINE
  8
0
 10
67.34
 20
38.9025
 11
67.4294
 21
38.9411
  0
LINE
  8
0
 10
67.4294
 20
38.9411
 11
67.521
 21
38.9741
  0
LINE
  8
0
 10
67.521
 20
38.9741
 11
67.6145
 21
39.0013
  0
LINE
  8
0
 10
67.6145
 20
39.0013
 11
67.7095
 21
39.0225
  0
LINE
  8
0
 10
67.7095
 20
39.0225
 11
67.8057
 21
39.0378
  0
LINE
  8
0
 10
67.8057
 20
39.0378
 11
67.9027
 21
39.0469
  0
LINE
  8
0
 10
67.9027
 20
39.0469
 11
68
 21
39.05
  0
LINE
  8
0
 10
68
 20
39.05
 11
68.0973
 21
39.0469
  0
LINE
  8
0
 10
68.0973
 20
39.0469
 11
68.1943
 21
39.0378
  0
LINE
  8
0
 10
68.1943
 20
39.0378
 11
68.2904
 21
39.0225
  0
LINE
  8
0
 10
68.2904
 20
39.0225
 11
68.3855
 21
39.0013
  0
LINE
  8
0
 10
68.3855
 20
39.0013
 11
68.479
 21
38.9741
  0
LINE
  8
0
 10
68.479
 20
38.9741
 11
68.5706
 21
38.9411
  0
LINE
  8
0
 10
68.5706
 20
38.9411
 11
68.66
 21
38.9025
  0
LINE
  8
0
 10
68.66
 20
38.9025
 11
68.7467
 21
38.8583
  0
LINE
  8
0
 10
68.7467
 20
38.8583
 11
68.8305
 21
38.8087
  0
LINE
  8
0
 10
68.8305
 20
38.8087
 11
68.9111
 21
38.754
  0
LINE
  8
0
 10
68.9111
 20
38.754
 11
68.988
 21
38.6943
  0
LINE
  8
0
 10
68.988
 20
38.6943
 11
69.0611
 21
38.6299
  0
LINE
  8
0
 10
69.0611
 20
38.6299
 11
69.1299
 21
38.561
  0
LINE
  8
0
 10
69.1299
 20
38.561
 11
69.1943
 21
38.488
  0
LINE
  8
0
 10
69.1943
 20
38.488
 11
69.254
 21
38.4111
  0
LINE
  8
0
 10
69.254
 20
38.4111
 11
69.3087
 21
38.3305
  0
LINE
  8
0
 10
69.3087
 20
38.3305
 11
69.3583
 21
38.2467
  0
LINE
  8
0
 10
69.3583
 20
38.2467
 11
69.4025
 21
38.16
  0
LINE
  8
0
 10
69.4025
 20
38.16
 11
69.4411
 21
38.0706
  0
LINE
  8
0
 10
69.4411
 20
38.0706
 11
69.4741
 21
37.979
  0
LINE
  8
0
 10
69.4741
 20
37.979
 11
69.5013
 21
37.8855
  0
LINE
  8
0
 10
69.5013
 20
37.8855
 11
69.5225
 21
37.7904
  0
LINE
  8
0
 10
69.5225
 20
37.7904
 11
69.5378
 21
37.6943
  0
LINE
  8
0
 10
69.5378
 20
37.6943
 11
69.5469
 21
37.5973
  0
LINE
  8
0
 10
69.5469
 20
37.5973
 11
69.55
 21
37.5
  0
LINE
  8
0
 10
69.55
 20
37.5
 11
69.5469
 21
37.4027
  0
LINE
  8
0
 10
69.5469
 20
37.4027
 11
69.5378
 21
37.3057
  0
LINE
  8
0
 10
69.5378
 20
37.3057
 11
69.5225
 21
37.2095
  0
LINE
  8
0
 10
69.5225
 20
37.2095
 11
69.5013
 21
37.1145
  0
LINE
  8
0
 10
69.5013
 20
37.1145
 11
69.4741
 21
37.021
  0
LINE
  8
0
 10
69.4741
 20
37.021
 11
69.4411
 21
36.9294
  0
LINE
  8
0
 10
69.4411
 20
36.9294
 11
69.4025
 21
36.84
  0
LINE
  8
0
 10
69.4025
 20
36.84
 11
69.3583
 21
36.7533
  0
LINE
  8
0
 10
69.3583
 20
36.7533
 11
69.3087
 21
36.6695
  0
LINE
  8
0
 10
69.3087
 20
36.6695
 11
69.254
 21
36.5889
  0
LINE
  8
0
 10
69.254
 20
36.5889
 11
69.1943
 21
36.512
  0
LINE
  8
0
 10
69.1943
 20
36.512
 11
69.1299
 21
36.4389
  0
LINE
  8
0
 10
69.1299
 20
36.4389
 11
69.0611
 21
36.3701
  0
LINE
  8
0
 10
69.0611
 20
36.3701
 11
68.988
 21
36.3057
  0
LINE
  8
0
 10
68.988
 20
36.3057
 11
68.9111
 21
36.246
  0
LINE
  8
0
 10
68.9111
 20
36.246
 11
68.8305
 21
36.1913
  0
LINE
  8
0
 10
68.8305
 20
36.1913
 11
68.7467
 21
36.1417
  0
LINE
  8
0
 10
68.7467
 20
36.1417
 11
68.66
 21
36.0975
  0
LINE
  8
0
 10
68.66
 20
36.0975
 11
68.5706
 21
36.0588
  0
LINE
  8
0
 10
68.5706
 20
36.0588
 11
68.479
 21
36.0259
  0
LINE
  8
0
 10
68.479
 20
36.0259
 11
68.3855
 21
35.9987
  0
LINE
  8
0
 10
68.3855
 20
35.9987
 11
68.2904
 21
35.9774
  0
LINE
  8
0
 10
68.2904
 20
35.9774
 11
68.1943
 21
35.9622
  0
LINE
  8
0
 10
68.1943
 20
35.9622
 11
68.0973
 21
35.953
  0
LINE
  8
0
 10
68.0973
 20
35.953
 11
68
 21
35.95
  0
LINE
  8
0
 10
68
 20
35.95
 11
67.9027
 21
35.953
  0
LINE
  8
0
 10
67.9027
 20
25.953
 11
67.8057
 21
25.9622
  0
LINE
  8
0
 10
67.8057
 20
25.9622
 11
67.7095
 21
25.9774
  0
LINE
  8
0
 10
67.7095
 20
25.9774
 11
67.6145
 21
25.9987
  0
LINE
  8
0
 10
67.6145
 20
25.9987
 11
67.521
 21
26.0258
  0
LINE
  8
0
 10
67.521
 20
26.0258
 11
67.4294
 21
26.0588
  0
LINE
  8
0
 10
67.4294
 20
26.0588
 11
67.34
 21
26.0975
  0
LINE
  8
0
 10
67.34
 20
26.0975
 11
67.2533
 21
26.1417
  0
LINE
  8
0
 10
67.2533
 20
26.1417
 11
67.1695
 21
26.1913
  0
LINE
  8
0
 10
67.1695
 20
26.1913
 11
67.0889
 21
26.246
  0
LINE
  8
0
 10
67.0889
 20
26.246
 11
67.012
 21
26.3057
  0
LINE
  8
0
 10
67.012
 20
26.3057
 11
66.9389
 21
26.3701
  0
LINE
  8
0
 10
66.9389
 20
26.3701
 11
66.8701
 21
26.4389
  0
LINE
  8
0
 10
66.8701
 20
26.4389
 11
66.8057
 21
26.512
  0
LINE
  8
0
 10
66.8057
 20
26.512
 11
66.746
 21
26.5889
  0
LINE
  8
0
 10
66.746
 20
26.5889
 11
66.6913
 21
26.6695
  0
LINE
  8
0
 10
66.6913
 20
26.6695
 11
66.6417
 21
26.7533
  0
LINE
  8
0
 10
66.6417
 20
26.7533
 11
66.5975
 21
26.84
  0
LINE
  8
0
 10
66.5975
 20
26.84
 11
66.5588
 21
26.9294
  0
LINE
  8
0
 10
66.5588
 20
26.9294
 11
66.5259
 21
27.021
  0
LINE
  8
0
 10
66.5259
 20
27.021
 11
66.4987
 21
27.1145
  0
LINE
  8
0
 10
66.4987
 20
27.1145
 11
66.4774
 21
27.2095
  0
LINE
  8
0
 10
66.4774
 20
27.2095
 11
66.4622
 21
27.3057
  0
LINE
  8
0
 10
66.4622
 20
27.3057
 11
66.453
 21
27.4027
  0
LINE
  8
0
 10
66.453
 20
27.4027
 11
66.45
 21
27.5
  0
LINE
  8
0
 10
66.45
 20
27.5
 11
66.453
 21
27.5973
  0
LINE
  8
0
 10
66.453
 20
27.5973
 11
66.4622
 21
27.6943
  0
LINE
  8
0
 10
66.4622
 20
27.6943
 11
66.4774
 21
27.7904
  0
LINE
  8
0
 10
66.4774
 20
27.7904
 11
66.4987
 21
27.8855
  0
LINE
  8
0
 10
66.4987
 20
27.8855
 11
66.5259
 21
27.979
  0
LINE
  8
0
 10
66.5259
 20
27.979
 11
66.5588
 21
28.0706
  0
LINE
  8
0
 10
66.5588
 20
28.0706
 11
66.5975
 21
28.16
  0
LINE
  8
0
 10
66.5975
 20
28.16
 11
66.6417
 21
28.2467
  0
LINE
  8
0
 10
66.6417
 20
28.2467
 11
66.6913
 21
28.3305
  0
LINE
  8
0
 10
66.6913
 20
28.3305
 11
66.746
 21
28.4111
  0
LINE
  8
0
 10
66.746
 20
28.4111
 11
66.8057
 21
28.488
  0
LINE
  8
0
 10
66.8057
 20
28.488
 11
66.8701
 21
28.561
  0
LINE
  8
0
 10
66.8701
 20
28.561
 11
66.9389
 21
28.6299
  0
LINE
  8
0
 10
66.9389
 20
28.6299
 11
67.012
 21
28.6943
  0
LINE
  8
0
 10
67.012
 20
28.6943
 11
67.0889
 21
28.754
  0
LINE
  8
0
 10
67.0889
 20
28.754
 11
67.1695
 21
28.8087
  0
LINE
  8
0
 10
67.1695
 20
28.8087
 11
67.2533
 21
28.8583
  0
LINE
  8
0
 10
67.2533
 20
28.8583
 11
67.34
 21
28.9025
  0
LINE
  8
0
 10
67.34
 20
28.9025
 11
67.4294
 21
28.9411
  0
LINE
  8
0
 10
67.4294
 20
28.9411
 11
67.521
 21
28.9741
  0
LINE
  8
0
 10
67.521
 20
28.9741
 11
67.6145
 21
29.0013
  0
LINE
  8
0
 10
67.6145
 20
29.0013
 11
67.7095
 21
29.0225
  0
LINE
  8
0
 10
67.7095
 20
29.0225
 11
67.8057
 21
29.0378
  0
LINE
  8
0
 10
67.8057
 20
29.0378
 11
67.9027
 21
29.0469
  0
LINE
  8
0
 10
67.9027
 20
29.0469
 11
68
 21
29.05
  0
LINE
  8
0
 10
68
 20
29.05
 11
68.0973
 21
29.0469
  0
LINE
  8
0
 10
68.0973
 20
29.0469
 11
68.1943
 21
29.0378
  0
LINE
  8
0
 10
68.1943
 20
29.0378
 11
68.2904
 21
29.0225
  0
LINE
  8
0
 10
68.2904
 20
29.0225
 11
68.3855
 21
29.0013
  0
LINE
  8
0
 10
68.3855
 20
29.0013
 11
68.479
 21
28.9741
  0
LINE
  8
0
 10
68.479
 20
28.9741
 11
68.5706
 21
28.9411
  0
LINE
  8
0
 10
68.5706
 20
28.9411
 11
68.66
 21
28.9025
  0
LINE
  8
0
 10
68.66
 20
28.9025
 11
68.7467
 21
28.8583
  0
LINE
  8
0
 10
68.7467
 20
28.8583
 11
68.8305
 21
28.8087
  0
LINE
  8
0
 10
68.8305
 20
28.8087
 11
68.9111
 21
28.754
  0
LINE
  8
0
 10
68.9111
 20
28.754
 11
68.988
 21
28.6943
  0
LINE
  8
0
 10
68.988
 20
28.6943
 11
69.0611
 21
28.6299
  0
LINE
  8
0
 10
69.0611
 20
28.6299
 11
69.1299
 21
28.561
  0
LINE
  8
0
 10
69.1299
 20
28.561
 11
69.1943
 21
28.488
  0
LINE
  8
0
 10
69.1943
 20
28.488
 11
69.254
 21
28.4111
  0
LINE
  8
0
 10
69.254
 20
28.4111
 11
69.3087
 21
28.3305
  0
LINE
  8
0
 10
69.3087
 20
28.3305
 11
69.3583
 21
28.2467
  0
LINE
  8
0
 10
69.3583
 20
28.2467
 11
69.4025
 21
28.16
  0
LINE
  8
0
 10
69.4025
 20
28.16
 11
69.4411
 21
28.0706
  0
LINE
  8
0
 10
69.4411
 20
28.0706
 11
69.4741
 21
27.979
  0
LINE
  8
0
 10
69.4741
 20
27.979
 11
69.5013
 21
27.8855
  0
LINE
  8
0
 10
69.5013
 20
27.8855
 11
69.5225
 21
27.7904
  0
LINE
  8
0
 10
69.5225
 20
27.7904
 11
69.5378
 21
27.6943
  0
LINE
  8
0
 10
69.5378
 20
27.6943
 11
69.5469
 21
27.5973
  0
LINE
  8
0
 10
69.5469
 20
27.5973
 11
69.55
 21
27.5
  0
LINE
  8
0
 10
69.55
 20
27.5
 11
69.5469
 21
27.4027
  0
LINE
  8
0
 10
69.5469
 20
27.4027
 11
69.5378
 21
27.3057
  0
LINE
  8
0
 10
69.5378
 20
27.3057
 11
69.5225
 21
27.2095
  0
LINE
  8
0
 10
69.5225
 20
27.2095
 11
69.5013
 21
27.1145
  0
LINE
  8
0
 10
69.5013
 20
27.1145
 11
69.4741
 21
27.021
  0
LINE
  8
0
 10
69.4741
 20
27.021
 11
69.4411
 21
26.9294
  0
LINE
  8
0
 10
69.4411
 20
26.9294
 11
69.4025
 21
26.84
  0
LINE
  8
0
 10
69.4025
 20
26.84
 11
69.3583
 21
26.7533
  0
LINE
  8
0
 10
69.3583
 20
26.7533
 11
69.3087
 21
26.6695
  0
LINE
  8
0
 10
69.3087
 20
26.6695
 11
69.254
 21
26.5889
  0
LINE
  8
0
 10
69.254
 20
26.5889
 11
69.1943
 21
26.512
  0
LINE
  8
0
 10
69.1943
 20
26.512
 11
69.1299
 21
26.4389
  0
LINE
  8
0
 10
69.1299
 20
26.4389
 11
69.0611
 21
26.3701
  0
LINE
  8
0
 10
69.0611
 20
26.3701
 11
68.988
 21
26.3057
  0
LINE
  8
0
 10
68.988
 20
26.3057
 11
68.9111
 21
26.246
  0
LINE
  8
0
 10
68.9111
 20
26.246
 11
68.8305
 21
26.1913
  0
LINE
  8
0
 10
68.8305
 20
26.1913
 11
68.7467
 21
26.1417
  0
LINE
  8
0
 10
68.7467
 20
26.1417
 11
68.66
 21
26.0975
  0
LINE
  8
0
 10
68.66
 20
26.0975
 11
68.5706
 21
26.0588
  0
LINE
  8
0
 10
68.5706
 20
26.0588
 11
68.479
 21
26.0258
  0
LINE
  8
0
 10
68.479
 20
26.0258
 11
68.3855
 21
25.9987
  0
LINE
  8
0
 10
68.3855
 20
25.9987
 11
68.2904
 21
25.9774
  0
LINE
  8
0
 10
68.2904
 20
25.9774
 11
68.1943
 21
25.9622
  0
LINE
  8
0
 10
68.1943
 20
25.9622
 11
68.0973
 21
25.953
  0
LINE
  8
0
 10
68.0973
 20
25.953
 11
68
 21
25.95
  0
LINE
  8
0
 10
68
 20
25.95
 11
67.9027
 21
25.953
  0
LINE
  8
0
 10
97.8885
 20
21.9785
 11
97.7775
 21
21.989
  0
LINE
  8
0
 10
97.7775
 20
21.989
 11
97.6674
 21
22.0064
  0
LINE
  8
0
 10
97.6674
 20
22.0064
 11
97.5586
 21
22.0308
  0
LINE
  8
0
 10
97.5586
 20
22.0308
 11
97.4515
 21
22.0619
  0
LINE
  8
0
 10
97.4515
 20
22.0619
 11
97.3466
 21
22.0996
  0
LINE
  8
0
 10
97.3466
 20
22.0996
 11
97.2442
 21
22.1439
  0
LINE
  8
0
 10
97.2442
 20
22.1439
 11
97.1449
 21
22.1945
  0
LINE
  8
0
 10
97.1449
 20
22.1945
 11
97.0489
 21
22.2513
  0
LINE
  8
0
 10
97.0489
 20
22.2513
 11
96.9567
 21
22.314
  0
LINE
  8
0
 10
96.9567
 20
22.314
 11
96.8686
 21
22.3823
  0
LINE
  8
0
 10
96.8686
 20
22.3823
 11
96.7849
 21
22.4561
  0
LINE
  8
0
 10
96.7849
 20
22.4561
 11
96.7061
 21
22.5349
  0
LINE
  8
0
 10
96.7061
 20
22.5349
 11
96.6323
 21
22.6186
  0
LINE
  8
0
 10
96.6323
 20
22.6186
 11
96.564
 21
22.7067
  0
LINE
  8
0
 10
96.564
 20
22.7067
 11
96.5013
 21
22.7989
  0
LINE
  8
0
 10
96.5013
 20
22.7989
 11
96.4445
 21
22.8949
  0
LINE
  8
0
 10
96.4445
 20
22.8949
 11
96.3939
 21
22.9942
  0
LINE
  8
0
 10
96.3939
 20
22.9942
 11
96.3496
 21
23.0966
  0
LINE
  8
0
 10
96.3496
 20
23.0966
 11
96.3119
 21
23.2015
  0
LINE
  8
0
 10
96.3119
 20
23.2015
 11
96.2808
 21
23.3086
  0
LINE
  8
0
 10
96.2808
 20
23.3086
 11
96.2564
 21
23.4174
  0
LINE
  8
0
 10
96.2564
 20
23.4174
 11
96.239
 21
23.5275
  0
LINE
  8
0
 10
96.239
 20
23.5275
 11
96.2285
 21
23.6385
  0
LINE
  8
0
 10
96.2285
 20
23.6385
 11
96.225
 21
23.75
  0
LINE
  8
0
 10
96.225
 20
23.75
 11
96.2285
 21
23.8615
  0
LINE
  8
0
 10
96.2285
 20
23.8615
 11
96.239
 21
23.9725
  0
LINE
  8
0
 10
96.239
 20
23.9725
 11
96.2564
 21
24.0826
  0
LINE
  8
0
 10
96.2564
 20
24.0826
 11
96.2808
 21
24.1914
  0
LINE
  8
0
 10
96.2808
 20
24.1914
 11
96.3119
 21
24.2985
  0
LINE
  8
0
 10
96.3119
 20
24.2985
 11
96.3496
 21
24.4034
  0
LINE
  8
0
 10
96.3496
 20
24.4034
 11
96.3939
 21
24.5058
  0
LINE
  8
0
 10
96.3939
 20
24.5058
 11
96.4445
 21
24.6051
  0
LINE
  8
0
 10
96.4445
 20
24.6051
 11
96.5013
 21
24.7011
  0
LINE
  8
0
 10
96.5013
 20
24.7011
 11
96.564
 21
24.7933
  0
LINE
  8
0
 10
96.564
 20
24.7933
 11
96.6323
 21
24.8814
  0
LINE
  8
0
 10
96.6323
 20
24.8814
 11
96.7061
 21
24.9651
  0
LINE
  8
0
 10
96.7061
 20
24.9651
 11
96.7849
 21
25.0439
  0
LINE
  8
0
 10
96.7849
 20
25.0439
 11
96.8686
 21
25.1177
  0
LINE
  8
0
 10
96.8686
 20
25.1177
 11
96.9567
 21
25.186
  0
LINE
  8
0
 10
96.9567
 20
25.186
 11
97.0489
 21
25.2487
  0
LINE
  8
0
 10
97.0489
 20
25.2487
 11
97.1449
 21
25.3054
  0
LINE
  8
0
 10
97.1449
 20
25.3054
 11
97.2442
 21
25.3561
  0
LINE
  8
0
 10
97.2442
 20
25.3561
 11
97.3466
 21
25.4003
  0
LINE
  8
0
 10
97.3466
 20
25.4003
 11
97.4515
 21
25.4381
  0
LINE
  8
0
 10
97.4515
 20
25.4381
 11
97.5586
 21
25.4692
  0
LINE
  8
0
 10
97.5586
 20
25.4692
 11
97.6674
 21
25.4936
  0
LINE
  8
0
 10
97.6674
 20
25.4936
 11
97.7775
 21
25.511
  0
LINE
  8
0
 10
97.7775
 20
25.511
 11
97.8885
 21
25.5215
  0
LINE
  8
0
 10
97.8885
 20
25.5215
 11
98
 21
25.525
  0
LINE
  8
0
 10
98
 20
25.525
 11
98.1115
 21
25.5215
  0
LINE
  8
0
 10
98.1115
 20
25.5215
 11
98.2225
 21
25.511
  0
LINE
  8
0
 10
98.2225
 20
25.511
 11
98.3326
 21
25.4936
  0
LINE
  8
0
 10
98.3326
 20
25.4936
 11
98.4414
 21
25.4692
  0
LINE
  8
0
 10
98.4414
 20
25.4692
 11
98.5485
 21
25.4381
  0
LINE
  8
0
 10
98.5485
 20
25.4381
 11
98.6534
 21
25.4003
  0
LINE
  8
0
 10
98.6534
 20
25.4003
 11
98.7558
 21
25.3561
  0
LINE
  8
0
 10
98.7558
 20
25.3561
 11
98.8551
 21
25.3054
  0
LINE
  8
0
 10
98.8551
 20
25.3054
 11
98.9511
 21
25.2487
  0
LINE
  8
0
 10
98.9511
 20
25.2487
 11
99.0433
 21
25.186
  0
LINE
  8
0
 10
99.0433
 20
25.186
 11
99.1314
 21
25.1177
  0
LINE
  8
0
 10
99.1314
 20
25.1177
 11
99.2151
 21
25.0439
  0
LINE
  8
0
 10
99.2151
 20
25.0439
 11
99.2939
 21
24.9651
  0
LINE
  8
0
 10
99.2939
 20
24.9651
 11
99.3677
 21
24.8814
  0
LINE
  8
0
 10
99.3677
 20
24.8814
 11
99.436
 21
24.7933
  0
LINE
  8
0
 10
99.436
 20
24.7933
 11
99.4987
 21
24.7011
  0
LINE
  8
0
 10
99.4987
 20
24.7011
 11
99.5554
 21
24.6051
  0
LINE
  8
0
 10
99.5554
 20
24.6051
 11
99.6061
 21
24.5058
  0
LINE
  8
0
 10
99.6061
 20
24.5058
 11
99.6503
 21
24.4034
  0
LINE
  8
0
 10
99.6503
 20
24.4034
 11
99.6881
 21
24.2985
  0
LINE
  8
0
 10
99.6881
 20
24.2985
 11
99.7192
 21
24.1914
  0
LINE
  8
0
 10
99.7192
 20
24.1914
 11
99.7436
 21
24.0826
  0
LINE
  8
0
 10
99.7436
 20
24.0826
 11
99.761
 21
23.9725
  0
LINE
  8
0
 10
99.761
 20
23.9725
 11
99.7715
 21
23.8615
  0
LINE
  8
0
 10
99.7715
 20
23.8615
 11
99.775
 21
23.75
  0
LINE
  8
0
 10
99.775
 20
23.75
 11
99.7715
 21
23.6385
  0
LINE
  8
0
 10
99.7715
 20
23.6385
 11
99.761
 21
23.5275
  0
LINE
  8
0
 10
99.761
 20
23.5275
 11
99.7436
 21
23.4174
  0
LINE
  8
0
 10
99.7436
 20
23.4174
 11
99.7192
 21
23.3086
  0
LINE
  8
0
 10
99.7192
 20
23.3086
 11
99.6881
 21
23.2015
  0
LINE
  8
0
 10
99.6881
 20
23.2015
 11
99.6503
 21
23.0966
  0
LINE
  8
0
 10
99.6503
 20
23.0966
 11
99.6061
 21
22.9942
  0
LINE
  8
0
 10
99.6061
 20
22.9942
 11
99.5554
 21
22.8949
  0
LINE
  8
0
 10
99.5554
 20
22.8949
 11
99.4987
 21
22.7989
  0
LINE
  8
0
 10
99.4987
 20
22.7989
 11
99.436
 21
22.7067
  0
LINE
  8
0
 10
99.436
 20
22.7067
 11
99.3677
 21
22.6186
  0
LINE
  8
0
 10
99.3677
 20
22.6186
 11
99.2939
 21
22.5349
  0
LINE
  8
0
 10
99.2939
 20
22.5349
 11
99.2151
 21
22.4561
  0
LINE
  8
0
 10
99.2151
 20
22.4561
 11
99.1314
 21
22.3823
  0
LINE
  8
0
 10
99.1314
 20
22.3823
 11
99.0433
 21
22.314
  0
LINE
  8
0
 10
99.0433
 20
22.314
 11
98.9511
 21
22.2513
  0
LINE
  8
0
 10
98.9511
 20
22.2513
 11
98.8551
 21
22.1945
  0
LINE
  8
0
 10
98.8551
 20
22.1945
 11
98.7558
 21
22.1439
  0
LINE
  8
0
 10
98.7558
 20
22.1439
 11
98.6534
 21
22.0996
  0
LINE
  8
0
 10
98.6534
 20
22.0996
 11
98.5485
 21
22.0619
  0
LINE
  8
0
 10
98.5485
 20
22.0619
 11
98.4414
 21
22.0308
  0
LINE
  8
0
 10
98.4414
 20
22.0308
 11
98.3326
 21
22.0064
  0
LINE
  8
0
 10
98.3326
 20
22.0064
 11
98.2225
 21
21.989
  0
LINE
  8
0
 10
98.2225
 20
21.989
 11
98.1115
 21
21.9785
  0
LINE
  8
0
 10
98.1115
 20
21.9785
 11
98
 21
21.975
  0
LINE
  8
0
 10
98
 20
21.975
 11
97.8885
 21
21.9785
  0
LINE
  8
0
 10
4.90266
 20
3.45305
 11
4.80573
 21
3.46222
  0
LINE
  8
0
 10
4.80573
 20
3.46222
 11
4.70955
 21
3.47745
  0
LINE
  8
0
 10
4.70955
 20
3.47745
 11
4.61452
 21
3.49869
  0
LINE
  8
0
 10
4.61452
 20
3.49869
 11
4.52101
 21
3.52585
  0
LINE
  8
0
 10
4.52101
 20
3.52585
 11
4.4294
 21
3.55884
  0
LINE
  8
0
 10
4.4294
 20
3.55884
 11
4.34003
 21
3.5975
  0
LINE
  8
0
 10
4.34003
 20
3.5975
 11
4.25328
 21
3.64172
  0
LINE
  8
0
 10
4.25328
 20
3.64172
 11
4.16946
 21
3.69128
  0
LINE
  8
0
 10
4.16946
 20
3.69128
 11
4.08893
 21
3.74602
  0
LINE
  8
0
 10
4.08893
 20
3.74602
 11
4.01198
 21
3.80569
  0
LINE
  8
0
 10
4.01198
 20
3.80569
 11
3.93895
 21
3.87009
  0
LINE
  8
0
 10
3.93895
 20
3.87009
 11
3.87009
 21
3.93895
  0
LINE
  8
0
 10
3.87009
 20
3.93895
 11
3.80569
 21
4.01198
  0
LINE
  8
0
 10
3.80569
 20
4.01198
 11
3.74602
 21
4.08893
  0
LINE
  8
0
 10
3.74602
 20
4.08893
 11
3.69128
 21
4.16946
  0
LINE
  8
0
 10
3.69128
 20
4.16946
 11
3.64172
 21
4.25328
  0
LINE
  8
0
 10
3.64172
 20
4.25328
 11
3.5975
 21
4.34003
  0
LINE
  8
0
 10
3.5975
 20
4.34003
 11
3.55884
 21
4.4294
  0
LINE
  8
0
 10
3.55884
 20
4.4294
 11
3.52585
 21
4.52101
  0
LINE
  8
0
 10
3.52585
 20
4.52101
 11
3.49869
 21
4.61452
  0
LINE
  8
0
 10
3.49869
 20
4.61452
 11
3.47745
 21
4.70955
  0
LINE
  8
0
 10
3.47745
 20
4.70955
 11
3.46222
 21
4.80573
  0
LINE
  8
0
 10
3.46222
 20
4.80573
 11
3.45305
 21
4.90266
  0
LINE
  8
0
 10
3.45305
 20
4.90266
 11
3.45
 21
5
  0
LINE
  8
0
 10
3.45
 20
5
 11
3.45305
 21
5.09732
  0
LINE
  8
0
 10
3.45305
 20
5.09732
 11
3.46222
 21
5.19426
  0
LINE
  8
0
 10
3.46222
 20
5.19426
 11
3.47745
 21
5.29044
  0
LINE
  8
0
 10
3.47745
 20
5.29044
 11
3.49869
 21
5.38547
  0
LINE
  8
0
 10
3.49869
 20
5.38547
 11
3.52585
 21
5.47897
  0
LINE
  8
0
 10
3.52585
 20
5.47897
 11
3.55884
 21
5.57059
  0
LINE
  8
0
 10
3.55884
 20
5.57059
 11
3.5975
 21
5.65996
  0
LINE
  8
0
 10
3.5975
 20
5.65996
 11
3.64172
 21
5.7467
  0
LINE
  8
0
 10
3.64172
 20
5.7467
 11
3.69128
 21
5.83052
  0
LINE
  8
0
 10
3.69128
 20
5.83052
 11
3.74602
 21
5.91106
  0
LINE
  8
0
 10
3.74602
 20
5.91106
 11
3.80569
 21
5.98801
  0
LINE
  8
0
 10
3.80569
 20
5.98801
 11
3.87009
 21
6.06104
  0
LINE
  8
0
 10
3.87009
 20
6.06104
 11
3.93895
 21
6.1299
  0
LINE
  8
0
 10
3.93895
 20
6.1299
 11
4.01198
 21
6.19429
  0
LINE
  8
0
 10
4.01198
 20
6.19429
 11
4.08893
 21
6.25397
  0
LINE
  8
0
 10
4.08893
 20
6.25397
 11
4.16946
 21
6.3087
  0
LINE
  8
0
 10
4.16946
 20
6.3087
 11
4.25328
 21
6.35826
  0
LINE
  8
0
 10
4.25328
 20
6.35826
 11
4.34003
 21
6.40248
  0
LINE
  8
0
 10
4.34003
 20
6.40248
 11
4.4294
 21
6.44115
  0
LINE
  8
0
 10
4.4294
 20
6.44115
 11
4.52101
 21
6.47414
  0
LINE
  8
0
 10
4.52101
 20
6.47414
 11
4.61452
 21
6.5013
  0
LINE
  8
0
 10
4.61452
 20
6.5013
 11
4.70955
 21
6.52254
  0
LINE
  8
0
 10
4.70955
 20
6.52254
 11
4.80573
 21
6.53777
  0
LINE
  8
0
 10
4.80573
 20
6.53777
 11
4.90266
 21
6.54694
  0
LINE
  8
0
 10
4.90266
 20
6.54694
 11
5
 21
6.54999
  0
LINE
  8
0
 10
5
 20
6.54999
 11
5.09732
 21
6.54694
  0
LINE
  8
0
 10
5.09732
 20
6.54694
 11
5.19426
 21
6.53777
  0
LINE
  8
0
 10
5.19426
 20
6.53777
 11
5.29044
 21
6.52254
  0
LINE
  8
0
 10
5.29044
 20
6.52254
 11
5.38547
 21
6.5013
  0
LINE
  8
0
 10
5.38547
 20
6.5013
 11
5.47897
 21
6.47414
  0
LINE
  8
0
 10
5.47897
 20
6.47414
 11
5.57059
 21
6.44115
  0
LINE
  8
0
 10
5.57059
 20
6.44115
 11
5.65996
 21
6.40248
  0
LINE
  8
0
 10
5.65996
 20
6.40248
 11
5.7467
 21
6.35826
  0
LINE
  8
0
 10
5.7467
 20
6.35826
 11
5.83052
 21
6.3087
  0
LINE
  8
0
 10
5.83052
 20
6.3087
 11
5.91106
 21
6.25397
  0
LINE
  8
0
 10
5.91106
 20
6.25397
 11
5.98801
 21
6.19429
  0
LINE
  8
0
 10
5.98801
 20
6.19429
 11
6.06104
 21
6.1299
  0
LINE
  8
0
 10
6.06104
 20
6.1299
 11
6.1299
 21
6.06104
  0
LINE
  8
0
 10
6.1299
 20
6.06104
 11
6.19429
 21
5.98801
  0
LINE
  8
0
 10
6.19429
 20
5.98801
 11
6.25397
 21
5.91106
  0
LINE
  8
0
 10
6.25397
 20
5.91106
 11
6.3087
 21
5.83052
  0
LINE
  8
0
 10
6.3087
 20
5.83052
 11
6.35826
 21
5.7467
  0
LINE
  8
0
 10
6.35826
 20
5.7467
 11
6.40248
 21
5.65996
  0
LINE
  8
0
 10
6.40248
 20
5.65996
 11
6.44115
 21
5.57059
  0
LINE
  8
0
 10
6.44115
 20
5.57059
 11
6.47414
 21
5.47897
  0
LINE
  8
0
 10
6.47414
 20
5.47897
 11
6.5013
 21
5.38547
  0
LINE
  8
0
 10
6.5013
 20
5.38547
 11
6.52254
 21
5.29044
  0
LINE
  8
0
 10
6.52254
 20
5.29044
 11
6.53777
 21
5.19426
  0
LINE
  8
0
 10
6.53777
 20
5.19426
 11
6.54694
 21
5.09732
  0
LINE
  8
0
 10
6.54694
 20
5.09732
 11
6.54999
 21
5
  0
LINE
  8
0
 10
6.54999
 20
5
 11
6.54694
 21
4.90266
  0
LINE
  8
0
 10
6.54694
 20
4.90266
 11
6.53777
 21
4.80573
  0
LINE
  8
0
 10
6.53777
 20
4.80573
 11
6.52254
 21
4.70955
  0
LINE
  8
0
 10
6.52254
 20
4.70955
 11
6.5013
 21
4.61452
  0
LINE
  8
0
 10
6.5013
 20
4.61452
 11
6.47414
 21
4.52101
  0
LINE
  8
0
 10
6.47414
 20
4.52101
 11
6.44115
 21
4.4294
  0
LINE
  8
0
 10
6.44115
 20
4.4294
 11
6.40248
 21
4.34003
  0
LINE
  8
0
 10
6.40248
 20
4.34003
 11
6.35826
 21
4.25328
  0
LINE
  8
0
 10
6.35826
 20
4.25328
 11
6.3087
 21
4.16946
  0
LINE
  8
0
 10
6.3087
 20
4.16946
 11
6.25397
 21
4.08893
  0
LINE
  8
0
 10
6.25397
 20
4.08893
 11
6.19429
 21
4.01198
  0
LINE
  8
0
 10
6.19429
 20
4.01198
 11
6.1299
 21
3.93895
  0
LINE
  8
0
 10
6.1299
 20
3.93895
 11
6.06104
 21
3.87009
  0
LINE
  8
0
 10
6.06104
 20
3.87009
 11
5.98801
 21
3.80569
  0
LINE
  8
0
 10
5.98801
 20
3.80569
 11
5.91106
 21
3.74602
  0
LINE
  8
0
 10
5.91106
 20
3.74602
 11
5.83052
 21
3.69128
  0
LINE
  8
0
 10
5.83052
 20
3.69128
 11
5.7467
 21
3.64172
  0
LINE
  8
0
 10
5.7467
 20
3.64172
 11
5.65996
 21
3.5975
  0
LINE
  8
0
 10
5.65996
 20
3.5975
 11
5.57059
 21
3.55884
  0
LINE
  8
0
 10
5.57059
 20
3.55884
 11
5.47897
 21
3.52585
  0
LINE
  8
0
 10
5.47897
 20
3.52585
 11
5.38547
 21
3.49869
  0
LINE
  8
0
 10
5.38547
 20
3.49869
 11
5.29044
 21
3.47745
  0
LINE
  8
0
 10
5.29044
 20
3.47745
 11
5.19426
 21
3.46222
  0
LINE
  8
0
 10
5.19426
 20
3.46222
 11
5.09732
 21
3.45305
  0
LINE
  8
0
 10
5.09732
 20
3.45305
 11
5
 21
3.45
  0
LINE
  8
0
 10
5
 20
3.45
 11
4.90266
 21
3.45305
  0
LINE
  8
0
 10
45.9027
 20
3.45305
 11
45.8057
 21
3.46222
  0
LINE
  8
0
 10
45.8057
 20
3.46222
 11
45.7095
 21
3.47745
  0
LINE
  8
0
 10
45.7095
 20
3.47745
 11
45.6145
 21
3.49869
  0
LINE
  8
0
 10
45.6145
 20
3.49869
 11
45.521
 21
3.52585
  0
LINE
  8
0
 10
45.521
 20
3.52585
 11
45.4294
 21
3.55884
  0
LINE
  8
0
 10
45.4294
 20
3.55884
 11
45.34
 21
3.5975
  0
LINE
  8
0
 10
45.34
 20
3.5975
 11
45.2533
 21
3.64172
  0
LINE
  8
0
 10
45.2533
 20
3.64172
 11
45.1695
 21
3.69128
  0
LINE
  8
0
 10
45.1695
 20
3.69128
 11
45.0889
 21
3.74602
  0
LINE
  8
0
 10
45.0889
 20
3.74602
 11
45.012
 21
3.80569
  0
LINE
  8
0
 10
45.012
 20
3.80569
 11
44.9389
 21
3.87009
  0
LINE
  8
0
 10
44.9389
 20
3.87009
 11
44.8701
 21
3.93895
  0
LINE
  8
0
 10
44.8701
 20
3.93895
 11
44.8057
 21
4.01198
  0
LINE
  8
0
 10
44.8057
 20
4.01198
 11
44.746
 21
4.08893
  0
LINE
  8
0
 10
44.746
 20
4.08893
 11
44.6913
 21
4.16946
  0
LINE
  8
0
 10
44.6913
 20
4.16946
 11
44.6417
 21
4.25328
  0
LINE
  8
0
 10
44.6417
 20
4.25328
 11
44.5975
 21
4.34003
  0
LINE
  8
0
 10
44.5975
 20
4.34003
 11
44.5588
 21
4.4294
  0
LINE
  8
0
 10
44.5588
 20
4.4294
 11
44.5259
 21
4.52101
  0
LINE
  8
0
 10
44.5259
 20
4.52101
 11
44.4987
 21
4.61452
  0
LINE
  8
0
 10
44.4987
 20
4.61452
 11
44.4774
 21
4.70955
  0
LINE
  8
0
 10
44.4774
 20
4.70955
 11
44.4622
 21
4.80573
  0
LINE
  8
0
 10
44.4622
 20
4.80573
 11
44.453
 21
4.90266
  0
LINE
  8
0
 10
44.453
 20
4.90266
 11
44.45
 21
5
  0
LINE
  8
0
 10
44.45
 20
5
 11
44.453
 21
5.09732
  0
LINE
  8
0
 10
44.453
 20
5.09732
 11
44.4622
 21
5.19426
  0
LINE
  8
0
 10
44.4622
 20
5.19426
 11
44.4774
 21
5.29044
  0
LINE
  8
0
 10
44.4774
 20
5.29044
 11
44.4987
 21
5.38547
  0
LINE
  8
0
 10
44.4987
 20
5.38547
 11
44.5259
 21
5.47897
  0
LINE
  8
0
 10
44.5259
 20
5.47897
 11
44.5588
 21
5.57059
  0
LINE
  8
0
 10
44.5588
 20
5.57059
 11
44.5975
 21
5.65996
  0
LINE
  8
0
 10
44.5975
 20
5.65996
 11
44.6417
 21
5.7467
  0
LINE
  8
0
 10
44.6417
 20
5.7467
 11
44.6913
 21
5.83052
  0
LINE
  8
0
 10
44.6913
 20
5.83052
 11
44.746
 21
5.91106
  0
LINE
  8
0
 10
44.746
 20
5.91106
 11
44.8057
 21
5.98801
  0
LINE
  8
0
 10
44.8057
 20
5.98801
 11
44.8701
 21
6.06104
  0
LINE
  8
0
 10
44.8701
 20
6.06104
 11
44.9389
 21
6.1299
  0
LINE
  8
0
 10
44.9389
 20
6.1299
 11
45.012
 21
6.19429
  0
LINE
  8
0
 10
45.012
 20
6.19429
 11
45.0889
 21
6.25397
  0
LINE
  8
0
 10
45.0889
 20
6.25397
 11
45.1695
 21
6.3087
  0
LINE
  8
0
 10
45.1695
 20
6.3087
 11
45.2533
 21
6.35826
  0
LINE
  8
0
 10
45.2533
 20
6.35826
 11
45.34
 21
6.40248
  0
LINE
  8
0
 10
45.34
 20
6.40248
 11
45.4294
 21
6.44115
  0
LINE
  8
0
 10
45.4294
 20
6.44115
 11
45.521
 21
6.47414
  0
LINE
  8
0
 10
45.521
 20
6.47414
 11
45.6145
 21
6.5013
  0
LINE
  8
0
 10
45.6145
 20
6.5013
 11
45.7095
 21
6.52254
  0
LINE
  8
0
 10
45.7095
 20
6.52254
 11
45.8057
 21
6.53777
  0
LINE
  8
0
 10
45.8057
 20
6.53777
 11
45.9027
 21
6.54694
  0
LINE
  8
0
 10
45.9027
 20
6.54694
 11
46
 21
6.54999
  0
LINE
  8
0
 10
46
 20
6.54999
 11
46.0973
 21
6.54694
  0
LINE
  8
0
 10
46.0973
 20
6.54694
 11
46.1943
 21
6.53777
  0
LINE
  8
0
 10
46.1943
 20
6.53777
 11
46.2904
 21
6.52254
  0
LINE
  8
0
 10
46.2904
 20
6.52254
 11
46.3855
 21
6.5013
  0
LINE
  8
0
 10
46.3855
 20
6.5013
 11
46.479
 21
6.47414
  0
LINE
  8
0
 10
46.479
 20
6.47414
 11
46.5706
 21
6.44115
  0
LINE
  8
0
 10
46.5706
 20
6.44115
 11
46.66
 21
6.40248
  0
LINE
  8
0
 10
46.66
 20
6.40248
 11
46.7467
 21
6.35826
  0
LINE
  8
0
 10
46.7467
 20
6.35826
 11
46.8305
 21
6.3087
  0
LINE
  8
0
 10
46.8305
 20
6.3087
 11
46.9111
 21
6.25397
  0
LINE
  8
0
 10
46.9111
 20
6.25397
 11
46.988
 21
6.19429
  0
LINE
  8
0
 10
46.988
 20
6.19429
 11
47.061
 21
6.1299
  0
LINE
  8
0
 10
47.061
 20
6.1299
 11
47.1299
 21
6.06104
  0
LINE
  8
0
 10
47.1299
 20
6.06104
 11
47.1943
 21
5.98801
  0
LINE
  8
0
 10
47.1943
 20
5.98801
 11
47.254
 21
5.91106
  0
LINE
  8
0
 10
47.254
 20
5.91106
 11
47.3087
 21
5.83052
  0
LINE
  8
0
 10
47.3087
 20
5.83052
 11
47.3583
 21
5.7467
  0
LINE
  8
0
 10
47.3583
 20
5.7467
 11
47.4025
 21
5.65996
  0
LINE
  8
0
 10
47.4025
 20
5.65996
 11
47.4411
 21
5.57059
  0
LINE
  8
0
 10
47.4411
 20
5.57059
 11
47.4741
 21
5.47897
  0
LINE
  8
0
 10
47.4741
 20
5.47897
 11
47.5013
 21
5.38547
  0
LINE
  8
0
 10
47.5013
 20
5.38547
 11
47.5225
 21
5.29044
  0
LINE
  8
0
 10
47.5225
 20
5.29044
 11
47.5378
 21
5.19426
  0
LINE
  8
0
 10
47.5378
 20
5.19426
 11
47.5469
 21
5.09732
  0
LINE
  8
0
 10
47.5469
 20
5.09732
 11
47.55
 21
5
  0
LINE
  8
0
 10
47.55
 20
5
 11
47.5469
 21
4.90266
  0
LINE
  8
0
 10
47.5469
 20
4.90266
 11
47.5378
 21
4.80573
  0
LINE
  8
0
 10
47.5378
 20
4.80573
 11
47.5225
 21
4.70955
  0
LINE
  8
0
 10
47.5225
 20
4.70955
 11
47.5013
 21
4.61452
  0
LINE
  8
0
 10
47.5013
 20
4.61452
 11
47.4741
 21
4.52101
  0
LINE
  8
0
 10
47.4741
 20
4.52101
 11
47.4411
 21
4.4294
  0
LINE
  8
0
 10
47.4411
 20
4.4294
 11
47.4025
 21
4.34003
  0
LINE
  8
0
 10
47.4025
 20
4.34003
 11
47.3583
 21
4.25328
  0
LINE
  8
0
 10
47.3583
 20
4.25328
 11
47.3087
 21
4.16946
  0
LINE
  8
0
 10
47.3087
 20
4.16946
 11
47.254
 21
4.08893
  0
LINE
  8
0
 10
47.254
 20
4.08893
 11
47.1943
 21
4.01198
  0
LINE
  8
0
 10
47.1943
 20
4.01198
 11
47.1299
 21
3.93895
  0
LINE
  8
0
 10
47.1299
 20
3.93895
 11
47.061
 21
3.87009
  0
LINE
  8
0
 10
47.061
 20
3.87009
 11
46.988
 21
3.80569
  0
LINE
  8
0
 10
46.988
 20
3.80569
 11
46.9111
 21
3.74602
  0
LINE
  8
0
 10
46.9111
 20
3.74602
 11
46.8305
 21
3.69128
  0
LINE
  8
0
 10
46.8305
 20
3.69128
 11
46.7467
 21
3.64172
  0
LINE
  8
0
 10
46.7467
 20
3.64172
 11
46.66
 21
3.5975
  0
LINE
  8
0
 10
46.66
 20
3.5975
 11
46.5706
 21
3.55884
  0
LINE
  8
0
 10
46.5706
 20
3.55884
 11
46.479
 21
3.52585
  0
LINE
  8
0
 10
46.479
 20
3.52585
 11
46.3855
 21
3.49869
  0
LINE
  8
0
 10
46.3855
 20
3.49869
 11
46.2904
 21
3.47745
  0
LINE
  8
0
 10
46.2904
 20
3.47745
 11
46.1943
 21
3.46222
  0
LINE
  8
0
 10
46.1943
 20
3.46222
 11
46.0973
 21
3.45305
  0
LINE
  8
0
 10
46.0973
 20
3.45305
 11
46
 21
3.45
  0
LINE
  8
0
 10
46
 20
3.45
 11
45.9027
 21
3.45305
  0
ENDSEC
  0
SECTION
  2
OBJECTS
  0
DICTIONARY
  0
ENDSEC
  0
EOF
