<?xml version="1.0" standalone="no"?>
<!DOCTYPE svg PUBLIC "-//W3C//DTD SVG 1.1//EN" "http://www.w3.org/Graphics/SVG/1.1/DTD/svg11.dtd">
<svg width="30mm" height="60mm" viewBox="0 -30 30 60" xmlns="http://www.w3.org/2000/svg" version="1.1">
<title>OpenSCAD Model</title>
<path d="
M 1.88371,29.9408 L 3.75999,29.7634 L 5.62143,29.4686 L 7.46069,29.0575 L 9.27051,28.5317 L 11.0437,27.8933
 L 12.7734,27.1448 L 14.4526,26.2892 L 16.0748,25.3298 L 17.6335,24.2705 L 19.1227,23.1154 L 20.5364,21.869
 L 21.869,20.5364 L 23.1154,19.1227 L 24.2705,17.6335 L 25.3298,16.0748 L 26.2892,14.4526 L 27.1448,12.7734
 L 27.8933,11.0437 L 28.5317,9.27051 L 29.0575,7.46069 L 29.4686,5.62143 L 29.7634,3.75999 L 29.9408,1.88371
 L 30,-0 L 29.9408,-1.88371 L 29.7634,-3.75999 L 29.4686,-5.62143 L 29.0575,-7.46069 L 28.5317,-9.27051
 L 27.8933,-11.0437 L 27.1448,-12.7734 L 26.2892,-14.4526 L 25.3298,-16.0748 L 24.2705,-17.6335 L 23.1154,-19.1227
 L 21.869,-20.5364 L 20.5364,-21.869 L 19.1227,-23.1154 L 17.6335,-24.2705 L 16.0748,-25.3298 L 14.4526,-26.2892
 L 12.7734,-27.1448 L 11.0437,-27.8933 L 9.27051,-28.5317 L 7.46069,-29.0575 L 5.62143,-29.4686 L 3.75999,-29.7634
 L 1.88371,-29.9408 L 0,-30 L 0,-20 L 1.2558,-19.9605 L 1.98428,-19.8917 L 2.51669,-22.911
 L 1.03947,-23.1715 L 1.21312,-24.1563 L 9.09158,-22.7671 L 8.91794,-21.7823 L 7.44073,-22.0428 L 6.86449,-18.7748
 L 7.36249,-18.5955 L 8.51558,-18.0965 L 9.63507,-17.5261 L 10.5054,-17.0114 L 12.3055,-19.4891 L 11.092,-20.3707
 L 11.6798,-21.1798 L 18.1519,-16.4775 L 17.5641,-15.6685 L 16.3506,-16.5501 L 14.4021,-13.8682 L 14.5794,-13.6909
 L 15.4103,-12.7485 L 16.1803,-11.7557 L 16.8866,-10.7165 L 16.9041,-10.6869 L 19.6036,-12.1223 L 18.8994,-13.4467
 L 19.7823,-13.9162 L 23.5381,-6.85257 L 22.6552,-6.3831 L 21.9509,-7.70752 L 19.0288,-6.15381 L 19.3717,-4.97379
 L 19.6457,-3.74762 L 19.8423,-2.50665 L 19.8718,-2.19484 L 22.9336,-2.30177 L 22.8813,-3.80086 L 23.8807,-3.83575
 L 24.1599,4.15936 L 23.1605,4.19426 L 23.1081,2.69518 L 19.7941,2.8109 L 19.6457,3.74762 L 19.3717,4.97379
 L 19.0211,6.18033 L 18.8205,6.73749 L 21.6216,7.98462 L 22.2318,6.6143 L 23.1453,7.02104 L 19.8914,14.3294
 L 18.9779,13.9227 L 19.588,12.5523 L 16.5563,11.2025 L 16.1803,11.7557 L 15.4103,12.7485 L 14.5794,13.6909
 L 13.9632,14.3071 L 15.9332,16.6548 L 17.0822,15.6907 L 17.725,16.4567 L 11.5967,21.599 L 10.9539,20.8329
 L 12.103,19.8688 L 9.97069,17.3276 L 9.63507,17.5261 L 8.51558,18.0965 L 7.36249,18.5955 L 6.27951,18.9854
 L 7.01964,21.9539 L 8.47508,21.591 L 8.71701,22.5613 L 0.954636,24.4967 L 0.712723,23.5264 L 2.16817,23.1635
 L 1.36694,19.95 L 1.2558,19.9605 L 0,20 L 0,30 z
" stroke="black" fill="lightgray" stroke-width="0.5"/>
</svg>
