  0
SECTION
  2
BLOCKS
  0
ENDSEC
  0
SECTION
  2
ENTITIES
  0
LINE
  8
0
 10
1.88371
 20
-29.9408
 11
3.75999
 21
-29.7634
  0
LINE
  8
0
 10
3.75999
 20
-29.7634
 11
5.62143
 21
-29.4686
  0
LINE
  8
0
 10
5.62143
 20
-29.4686
 11
7.46069
 21
-29.0575
  0
LINE
  8
0
 10
7.46069
 20
-29.0575
 11
9.27051
 21
-28.5317
  0
LINE
  8
0
 10
9.27051
 20
-28.5317
 11
11.0437
 21
-27.8933
  0
LINE
  8
0
 10
11.0437
 20
-27.8933
 11
12.7734
 21
-27.1448
  0
LINE
  8
0
 10
12.7734
 20
-27.1448
 11
14.4526
 21
-26.2892
  0
LINE
  8
0
 10
14.4526
 20
-26.2892
 11
16.0748
 21
-25.3298
  0
LINE
  8
0
 10
16.0748
 20
-25.3298
 11
17.6335
 21
-24.2705
  0
LINE
  8
0
 10
17.6335
 20
-24.2705
 11
19.1227
 21
-23.1154
  0
LINE
  8
0
 10
19.1227
 20
-23.1154
 11
20.5364
 21
-21.869
  0
LINE
  8
0
 10
20.5364
 20
-21.869
 11
21.869
 21
-20.5364
  0
LINE
  8
0
 10
21.869
 20
-20.5364
 11
23.1154
 21
-19.1227
  0
LINE
  8
0
 10
23.1154
 20
-19.1227
 11
24.2705
 21
-17.6335
  0
LINE
  8
0
 10
24.2705
 20
-17.6335
 11
25.3298
 21
-16.0748
  0
LINE
  8
0
 10
25.3298
 20
-16.0748
 11
26.2892
 21
-14.4526
  0
LINE
  8
0
 10
26.2892
 20
-14.4526
 11
27.1448
 21
-12.7734
  0
LINE
  8
0
 10
27.1448
 20
-12.7734
 11
27.8933
 21
-11.0437
  0
LINE
  8
0
 10
27.8933
 20
-11.0437
 11
28.5317
 21
-9.27051
  0
LINE
  8
0
 10
28.5317
 20
-9.27051
 11
29.0575
 21
-7.46069
  0
LINE
  8
0
 10
29.0575
 20
-7.46069
 11
29.4686
 21
-5.62143
  0
LINE
  8
0
 10
29.4686
 20
-5.62143
 11
29.7634
 21
-3.75999
  0
LINE
  8
0
 10
29.7634
 20
-3.75999
 11
29.9408
 21
-1.88371
  0
LINE
  8
0
 10
29.9408
 20
-1.88371
 11
30
 21
0
  0
LINE
  8
0
 10
30
 20
0
 11
29.9408
 21
1.88371
  0
LINE
  8
0
 10
29.9408
 20
1.88371
 11
29.7634
 21
3.75999
  0
LINE
  8
0
 10
29.7634
 20
3.75999
 11
29.4686
 21
5.62143
  0
LINE
  8
0
 10
29.4686
 20
5.62143
 11
29.0575
 21
7.46069
  0
LINE
  8
0
 10
29.0575
 20
7.46069
 11
28.5317
 21
9.27051
  0
LINE
  8
0
 10
28.5317
 20
9.27051
 11
27.8933
 21
11.0437
  0
LINE
  8
0
 10
27.8933
 20
11.0437
 11
27.1448
 21
12.7734
  0
LINE
  8
0
 10
27.1448
 20
12.7734
 11
26.2892
 21
14.4526
  0
LINE
  8
0
 10
26.2892
 20
14.4526
 11
25.3298
 21
16.0748
  0
LINE
  8
0
 10
25.3298
 20
16.0748
 11
24.2705
 21
17.6335
  0
LINE
  8
0
 10
24.2705
 20
17.6335
 11
23.1154
 21
19.1227
  0
LINE
  8
0
 10
23.1154
 20
19.1227
 11
21.869
 21
20.5364
  0
LINE
  8
0
 10
21.869
 20
20.5364
 11
20.5364
 21
21.869
  0
LINE
  8
0
 10
20.5364
 20
21.869
 11
19.1227
 21
23.1154
  0
LINE
  8
0
 10
19.1227
 20
23.1154
 11
17.6335
 21
24.2705
  0
LINE
  8
0
 10
17.6335
 20
24.2705
 11
16.0748
 21
25.3298
  0
LINE
  8
0
 10
16.0748
 20
25.3298
 11
14.4526
 21
26.2892
  0
LINE
  8
0
 10
14.4526
 20
26.2892
 11
12.7734
 21
27.1448
  0
LINE
  8
0
 10
12.7734
 20
27.1448
 11
11.0437
 21
27.8933
  0
LINE
  8
0
 10
11.0437
 20
27.8933
 11
9.27051
 21
28.5317
  0
LINE
  8
0
 10
9.27051
 20
28.5317
 11
7.46069
 21
29.0575
  0
LINE
  8
0
 10
7.46069
 20
29.0575
 11
5.62143
 21
29.4686
  0
LINE
  8
0
 10
5.62143
 20
29.4686
 11
3.75999
 21
29.7634
  0
LINE
  8
0
 10
3.75999
 20
29.7634
 11
1.88371
 21
29.9408
  0
LINE
  8
0
 10
1.88371
 20
29.9408
 11
0
 21
30
  0
LINE
  8
0
 10
0
 20
30
 11
-1.88371
 21
29.9408
  0
LINE
  8
0
 10
-1.88371
 20
29.9408
 11
-3.75999
 21
29.7634
  0
LINE
  8
0
 10
-3.75999
 20
29.7634
 11
-5
 21
29.567
  0
LINE
  8
0
 10
-5
 20
29.567
 11
-5
 21
19.364
  0
LINE
  8
0
 10
-5
 20
19.364
 11
-4.97379
 21
19.3717
  0
LINE
  8
0
 10
-4.97379
 20
19.3717
 11
-3.74762
 21
19.6457
  0
LINE
  8
0
 10
-3.74762
 20
19.6457
 11
-2.50665
 21
19.8423
  0
LINE
  8
0
 10
-2.50665
 20
19.8423
 11
-1.2558
 21
19.9605
  0
LINE
  8
0
 10
-1.2558
 20
19.9605
 11
0
 21
20
  0
LINE
  8
0
 10
0
 20
20
 11
1.2558
 21
19.9605
  0
LINE
  8
0
 10
1.2558
 20
19.9605
 11
2.50665
 21
19.8423
  0
LINE
  8
0
 10
2.50665
 20
19.8423
 11
3.74762
 21
19.6457
  0
LINE
  8
0
 10
3.74762
 20
19.6457
 11
4.97379
 21
19.3717
  0
LINE
  8
0
 10
4.97379
 20
19.3717
 11
6.18033
 21
19.0211
  0
LINE
  8
0
 10
6.18033
 20
19.0211
 11
7.36249
 21
18.5955
  0
LINE
  8
0
 10
7.36249
 20
18.5955
 11
8.51558
 21
18.0965
  0
LINE
  8
0
 10
8.51558
 20
18.0965
 11
9.63507
 21
17.5261
  0
LINE
  8
0
 10
9.63507
 20
17.5261
 11
10.7165
 21
16.8866
  0
LINE
  8
0
 10
10.7165
 20
16.8866
 11
11.7557
 21
16.1803
  0
LINE
  8
0
 10
11.7557
 20
16.1803
 11
12.7485
 21
15.4103
  0
LINE
  8
0
 10
12.7485
 20
15.4103
 11
13.6909
 21
14.5794
  0
LINE
  8
0
 10
13.6909
 20
14.5794
 11
14.5794
 21
13.6909
  0
LINE
  8
0
 10
14.5794
 20
13.6909
 11
15.4103
 21
12.7485
  0
LINE
  8
0
 10
15.4103
 20
12.7485
 11
16.1803
 21
11.7557
  0
LINE
  8
0
 10
16.1803
 20
11.7557
 11
16.8866
 21
10.7165
  0
LINE
  8
0
 10
16.8866
 20
10.7165
 11
17.5261
 21
9.63507
  0
LINE
  8
0
 10
17.5261
 20
9.63507
 11
18.0965
 21
8.51558
  0
LINE
  8
0
 10
18.0965
 20
8.51558
 11
18.5955
 21
7.36249
  0
LINE
  8
0
 10
18.5955
 20
7.36249
 11
19.0211
 21
6.18033
  0
LINE
  8
0
 10
19.0211
 20
6.18033
 11
19.3717
 21
4.97379
  0
LINE
  8
0
 10
19.3717
 20
4.97379
 11
19.6457
 21
3.74762
  0
LINE
  8
0
 10
19.6457
 20
3.74762
 11
19.8423
 21
2.50665
  0
LINE
  8
0
 10
19.8423
 20
2.50665
 11
19.9605
 21
1.2558
  0
LINE
  8
0
 10
19.9605
 20
1.2558
 11
20
 21
0
  0
LINE
  8
0
 10
20
 20
0
 11
19.9605
 21
-1.2558
  0
LINE
  8
0
 10
19.9605
 20
-1.2558
 11
19.8423
 21
-2.50665
  0
LINE
  8
0
 10
19.8423
 20
-2.50665
 11
19.6457
 21
-3.74762
  0
LINE
  8
0
 10
19.6457
 20
-3.74762
 11
19.3717
 21
-4.97379
  0
LINE
  8
0
 10
19.3717
 20
-4.97379
 11
19.0211
 21
-6.18033
  0
LINE
  8
0
 10
19.0211
 20
-6.18033
 11
18.5955
 21
-7.36249
  0
LINE
  8
0
 10
18.5955
 20
-7.36249
 11
18.0965
 21
-8.51558
  0
LINE
  8
0
 10
18.0965
 20
-8.51558
 11
17.5261
 21
-9.63507
  0
LINE
  8
0
 10
17.5261
 20
-9.63507
 11
16.8866
 21
-10.7165
  0
LINE
  8
0
 10
16.8866
 20
-10.7165
 11
16.1803
 21
-11.7557
  0
LINE
  8
0
 10
16.1803
 20
-11.7557
 11
15.4103
 21
-12.7485
  0
LINE
  8
0
 10
15.4103
 20
-12.7485
 11
14.5794
 21
-13.6909
  0
LINE
  8
0
 10
14.5794
 20
-13.6909
 11
13.6909
 21
-14.5794
  0
LINE
  8
0
 10
13.6909
 20
-14.5794
 11
12.7485
 21
-15.4103
  0
LINE
  8
0
 10
12.7485
 20
-15.4103
 11
11.7557
 21
-16.1803
  0
LINE
  8
0
 10
11.7557
 20
-16.1803
 11
10.7165
 21
-16.8866
  0
LINE
  8
0
 10
10.7165
 20
-16.8866
 11
9.63507
 21
-17.5261
  0
LINE
  8
0
 10
9.63507
 20
-17.5261
 11
8.51558
 21
-18.0965
  0
LINE
  8
0
 10
8.51558
 20
-18.0965
 11
7.36249
 21
-18.5955
  0
LINE
  8
0
 10
7.36249
 20
-18.5955
 11
6.18033
 21
-19.0211
  0
LINE
  8
0
 10
6.18033
 20
-19.0211
 11
4.97379
 21
-19.3717
  0
LINE
  8
0
 10
4.97379
 20
-19.3717
 11
3.74762
 21
-19.6457
  0
LINE
  8
0
 10
3.74762
 20
-19.6457
 11
2.50665
 21
-19.8423
  0
LINE
  8
0
 10
2.50665
 20
-19.8423
 11
1.2558
 21
-19.9605
  0
LINE
  8
0
 10
1.2558
 20
-19.9605
 11
0
 21
-20
  0
LINE
  8
0
 10
0
 20
-20
 11
-1.2558
 21
-19.9605
  0
LINE
  8
0
 10
-1.2558
 20
-19.9605
 11
-2.50665
 21
-19.8423
  0
LINE
  8
0
 10
-2.50665
 20
-19.8423
 11
-3.74762
 21
-19.6457
  0
LINE
  8
0
 10
-3.74762
 20
-19.6457
 11
-4.97379
 21
-19.3717
  0
LINE
  8
0
 10
-4.97379
 20
-19.3717
 11
-5
 21
-19.364
  0
LINE
  8
0
 10
-5
 20
-19.364
 11
-5
 21
-29.567
  0
LINE
  8
0
 10
-5
 20
-29.567
 11
-3.75999
 21
-29.7634
  0
LINE
  8
0
 10
-3.75999
 20
-29.7634
 11
-1.88371
 21
-29.9408
  0
LINE
  8
0
 10
-1.88371
 20
-29.9408
 11
0
 21
-30
  0
LINE
  8
0
 10
0
 20
-30
 11
1.88371
 21
-29.9408
  0
ENDSEC
  0
SECTION
  2
OBJECTS
  0
DICTIONARY
  0
ENDSEC
  0
EOF
