  0
SECTION
  2
BLOCKS
  0
ENDSEC
  0
SECTION
  2
ENTITIES
  0
LINE
  8
0
 10
1.88371
 20
-29.9408
 11
3.75999
 21
-29.7634
  0
LINE
  8
0
 10
3.75999
 20
-29.7634
 11
5.62143
 21
-29.4686
  0
LINE
  8
0
 10
5.62143
 20
-29.4686
 11
7.46069
 21
-29.0575
  0
LINE
  8
0
 10
7.46069
 20
-29.0575
 11
9.27051
 21
-28.5317
  0
LINE
  8
0
 10
9.27051
 20
-28.5317
 11
11.0437
 21
-27.8933
  0
LINE
  8
0
 10
11.0437
 20
-27.8933
 11
12.7734
 21
-27.1448
  0
LINE
  8
0
 10
12.7734
 20
-27.1448
 11
14.4526
 21
-26.2892
  0
LINE
  8
0
 10
14.4526
 20
-26.2892
 11
16.0748
 21
-25.3298
  0
LINE
  8
0
 10
16.0748
 20
-25.3298
 11
17.6335
 21
-24.2705
  0
LINE
  8
0
 10
17.6335
 20
-24.2705
 11
19.1227
 21
-23.1154
  0
LINE
  8
0
 10
19.1227
 20
-23.1154
 11
20.5364
 21
-21.869
  0
LINE
  8
0
 10
20.5364
 20
-21.869
 11
21.869
 21
-20.5364
  0
LINE
  8
0
 10
21.869
 20
-20.5364
 11
23.1154
 21
-19.1227
  0
LINE
  8
0
 10
23.1154
 20
-19.1227
 11
24.2705
 21
-17.6335
  0
LINE
  8
0
 10
24.2705
 20
-17.6335
 11
25.3298
 21
-16.0748
  0
LINE
  8
0
 10
25.3298
 20
-16.0748
 11
26.2892
 21
-14.4526
  0
LINE
  8
0
 10
26.2892
 20
-14.4526
 11
27.1448
 21
-12.7734
  0
LINE
  8
0
 10
27.1448
 20
-12.7734
 11
27.8933
 21
-11.0437
  0
LINE
  8
0
 10
27.8933
 20
-11.0437
 11
28.5317
 21
-9.27051
  0
LINE
  8
0
 10
28.5317
 20
-9.27051
 11
29.0575
 21
-7.46069
  0
LINE
  8
0
 10
29.0575
 20
-7.46069
 11
29.4686
 21
-5.62143
  0
LINE
  8
0
 10
29.4686
 20
-5.62143
 11
29.7634
 21
-3.75999
  0
LINE
  8
0
 10
29.7634
 20
-3.75999
 11
29.9408
 21
-1.88371
  0
LINE
  8
0
 10
29.9408
 20
-1.88371
 11
30
 21
0
  0
LINE
  8
0
 10
30
 20
0
 11
29.9408
 21
1.88371
  0
LINE
  8
0
 10
29.9408
 20
1.88371
 11
29.7634
 21
3.75999
  0
LINE
  8
0
 10
29.7634
 20
3.75999
 11
29.4686
 21
5.62143
  0
LINE
  8
0
 10
29.4686
 20
5.62143
 11
29.0575
 21
7.46069
  0
LINE
  8
0
 10
29.0575
 20
7.46069
 11
28.5317
 21
9.27051
  0
LINE
  8
0
 10
28.5317
 20
9.27051
 11
27.8933
 21
11.0437
  0
LINE
  8
0
 10
27.8933
 20
11.0437
 11
27.1448
 21
12.7734
  0
LINE
  8
0
 10
27.1448
 20
12.7734
 11
26.2892
 21
14.4526
  0
LINE
  8
0
 10
26.2892
 20
14.4526
 11
25.3298
 21
16.0748
  0
LINE
  8
0
 10
25.3298
 20
16.0748
 11
24.2705
 21
17.6335
  0
LINE
  8
0
 10
24.2705
 20
17.6335
 11
23.1154
 21
19.1227
  0
LINE
  8
0
 10
23.1154
 20
19.1227
 11
21.869
 21
20.5364
  0
LINE
  8
0
 10
21.869
 20
20.5364
 11
20.5364
 21
21.869
  0
LINE
  8
0
 10
20.5364
 20
21.869
 11
19.1227
 21
23.1154
  0
LINE
  8
0
 10
19.1227
 20
23.1154
 11
17.6335
 21
24.2705
  0
LINE
  8
0
 10
17.6335
 20
24.2705
 11
16.0748
 21
25.3298
  0
LINE
  8
0
 10
16.0748
 20
25.3298
 11
14.4526
 21
26.2892
  0
LINE
  8
0
 10
14.4526
 20
26.2892
 11
12.7734
 21
27.1448
  0
LINE
  8
0
 10
12.7734
 20
27.1448
 11
11.0437
 21
27.8933
  0
LINE
  8
0
 10
11.0437
 20
27.8933
 11
9.27051
 21
28.5317
  0
LINE
  8
0
 10
9.27051
 20
28.5317
 11
7.46069
 21
29.0575
  0
LINE
  8
0
 10
7.46069
 20
29.0575
 11
5.62143
 21
29.4686
  0
LINE
  8
0
 10
5.62143
 20
29.4686
 11
3.75999
 21
29.7634
  0
LINE
  8
0
 10
3.75999
 20
29.7634
 11
1.88371
 21
29.9408
  0
LINE
  8
0
 10
1.88371
 20
29.9408
 11
0
 21
30
  0
LINE
  8
0
 10
0
 20
30
 11
-1.88371
 21
29.9408
  0
LINE
  8
0
 10
-1.88371
 20
29.9408
 11
-3.75999
 21
29.7634
  0
LINE
  8
0
 10
-3.75999
 20
29.7634
 11
-5
 21
29.567
  0
LINE
  8
0
 10
-5
 20
29.567
 11
-5
 21
19.364
  0
LINE
  8
0
 10
-5
 20
19.364
 11
-4.97379
 21
19.3717
  0
LINE
  8
0
 10
-4.97379
 20
19.3717
 11
-3.74762
 21
19.6457
  0
LINE
  8
0
 10
-3.74762
 20
19.6457
 11
-2.50665
 21
19.8423
  0
LINE
  8
0
 10
-2.50665
 20
19.8423
 11
-1.2558
 21
19.9605
  0
LINE
  8
0
 10
-1.2558
 20
19.9605
 11
0
 21
20
  0
LINE
  8
0
 10
0
 20
20
 11
1.2558
 21
19.9605
  0
LINE
  8
0
 10
1.2558
 20
19.9605
 11
2.50665
 21
19.8423
  0
LINE
  8
0
 10
2.50665
 20
19.8423
 11
3.56366
 21
19.6749
  0
LINE
  8
0
 10
3.56366
 20
19.6749
 11
4.48846
 21
23.1263
  0
LINE
  8
0
 10
4.48846
 20
23.1263
 11
2.89468
 21
23.5534
  0
LINE
  8
0
 10
2.89468
 20
23.5534
 11
3.17938
 21
24.6159
  0
LINE
  8
0
 10
3.17938
 20
24.6159
 11
11.6795
 21
22.3383
  0
LINE
  8
0
 10
11.6795
 20
22.3383
 11
11.3948
 21
21.2757
  0
LINE
  8
0
 10
11.3948
 20
21.2757
 11
9.80106
 21
21.7028
  0
LINE
  8
0
 10
9.80106
 20
21.7028
 11
8.79642
 21
17.9534
  0
LINE
  8
0
 10
8.79642
 20
17.9534
 11
9.63507
 21
17.5261
  0
LINE
  8
0
 10
9.63507
 20
17.5261
 11
10.7165
 21
16.8866
  0
LINE
  8
0
 10
10.7165
 20
16.8866
 11
11.5438
 21
16.3243
  0
LINE
  8
0
 10
11.5438
 20
16.3243
 11
13.8415
 21
19.0626
  0
LINE
  8
0
 10
13.8415
 20
19.0626
 11
12.5776
 21
20.1232
  0
LINE
  8
0
 10
12.5776
 20
20.1232
 11
13.2846
 21
20.9659
  0
LINE
  8
0
 10
13.2846
 20
20.9659
 11
20.0258
 21
15.3094
  0
LINE
  8
0
 10
20.0258
 20
15.3094
 11
19.3187
 21
14.4667
  0
LINE
  8
0
 10
19.3187
 20
14.4667
 11
18.0548
 21
15.5273
  0
LINE
  8
0
 10
18.0548
 20
15.5273
 11
15.5605
 21
12.5548
  0
LINE
  8
0
 10
15.5605
 20
12.5548
 11
16.1803
 21
11.7557
  0
LINE
  8
0
 10
16.1803
 20
11.7557
 11
16.8866
 21
10.7165
  0
LINE
  8
0
 10
16.8866
 20
10.7165
 11
17.3601
 21
9.91574
  0
LINE
  8
0
 10
17.3601
 20
9.91574
 11
20.6009
 21
11.4269
  0
LINE
  8
0
 10
20.6009
 20
11.4269
 11
19.9036
 21
12.9223
  0
LINE
  8
0
 10
19.9036
 20
12.9223
 11
20.9005
 21
13.3872
  0
LINE
  8
0
 10
20.9005
 20
13.3872
 11
24.6196
 21
5.41171
  0
LINE
  8
0
 10
24.6196
 20
5.41171
 11
23.6226
 21
4.94682
  0
LINE
  8
0
 10
23.6226
 20
4.94682
 11
22.9253
 21
6.44223
  0
LINE
  8
0
 10
22.9253
 20
6.44223
 11
19.4099
 21
4.80295
  0
LINE
  8
0
 10
19.4099
 20
4.80295
 11
19.6457
 21
3.74762
  0
LINE
  8
0
 10
19.6457
 20
3.74762
 11
19.8423
 21
2.50665
  0
LINE
  8
0
 10
19.8423
 20
2.50665
 11
19.9233
 21
1.64999
  0
LINE
  8
0
 10
19.9233
 20
1.64999
 11
23.5
 21
1.64999
  0
LINE
  8
0
 10
23.5
 20
1.64999
 11
23.5
 21
3.29999
  0
LINE
  8
0
 10
23.5
 20
3.29999
 11
24.6
 21
3.29999
  0
LINE
  8
0
 10
24.6
 20
3.29999
 11
24.6
 21
-5.5
  0
LINE
  8
0
 10
24.6
 20
-5.5
 11
23.5
 21
-5.5
  0
LINE
  8
0
 10
23.5
 20
-5.5
 11
23.5
 21
-3.84999
  0
LINE
  8
0
 10
23.5
 20
-3.84999
 11
19.6228
 21
-3.84999
  0
LINE
  8
0
 10
19.6228
 20
-3.84999
 11
19.3717
 21
-4.97379
  0
LINE
  8
0
 10
19.3717
 20
-4.97379
 11
19.0211
 21
-6.18033
  0
LINE
  8
0
 10
19.0211
 20
-6.18033
 11
18.7533
 21
-6.92422
  0
LINE
  8
0
 10
18.7533
 20
-6.92422
 11
21.9955
 21
-8.43611
  0
LINE
  8
0
 10
21.9955
 20
-8.43611
 11
22.6929
 21
-6.9407
  0
LINE
  8
0
 10
22.6929
 20
-6.9407
 11
23.6898
 21
-7.40558
  0
LINE
  8
0
 10
23.6898
 20
-7.40558
 11
19.9708
 21
-15.3811
  0
LINE
  8
0
 10
19.9708
 20
-15.3811
 11
18.9738
 21
-14.9162
  0
LINE
  8
0
 10
18.9738
 20
-14.9162
 11
19.6711
 21
-13.4208
  0
LINE
  8
0
 10
19.6711
 20
-13.4208
 11
16.1591
 21
-11.7831
  0
LINE
  8
0
 10
16.1591
 20
-11.7831
 11
15.4103
 21
-12.7485
  0
LINE
  8
0
 10
15.4103
 20
-12.7485
 11
14.5794
 21
-13.6909
  0
LINE
  8
0
 10
14.5794
 20
-13.6909
 11
14.0697
 21
-14.2006
  0
LINE
  8
0
 10
14.0697
 20
-14.2006
 11
16.3695
 21
-16.9414
  0
LINE
  8
0
 10
16.3695
 20
-16.9414
 11
17.6335
 21
-15.8808
  0
LINE
  8
0
 10
17.6335
 20
-15.8808
 11
18.3405
 21
-16.7235
  0
LINE
  8
0
 10
18.3405
 20
-16.7235
 11
11.5993
 21
-22.38
  0
LINE
  8
0
 10
11.5993
 20
-22.38
 11
10.8923
 21
-21.5374
  0
LINE
  8
0
 10
10.8923
 20
-21.5374
 11
12.1562
 21
-20.4768
  0
LINE
  8
0
 10
12.1562
 20
-20.4768
 11
9.66533
 21
-17.5082
  0
LINE
  8
0
 10
9.66533
 20
-17.5082
 11
9.63507
 21
-17.5261
  0
LINE
  8
0
 10
9.63507
 20
-17.5261
 11
8.51558
 21
-18.0965
  0
LINE
  8
0
 10
8.51558
 20
-18.0965
 11
7.36249
 21
-18.5955
  0
LINE
  8
0
 10
7.36249
 20
-18.5955
 11
6.74994
 21
-18.8161
  0
LINE
  8
0
 10
6.74994
 20
-18.8161
 11
7.67603
 21
-22.2722
  0
LINE
  8
0
 10
7.67603
 20
-22.2722
 11
9.26979
 21
-21.8452
  0
LINE
  8
0
 10
9.26979
 20
-21.8452
 11
9.55449
 21
-22.9077
  0
LINE
  8
0
 10
9.55449
 20
-22.9077
 11
1.05435
 21
-25.1853
  0
LINE
  8
0
 10
1.05435
 20
-25.1853
 11
0.769653
 21
-24.1228
  0
LINE
  8
0
 10
0.769653
 20
-24.1228
 11
2.36342
 21
-23.6957
  0
LINE
  8
0
 10
2.36342
 20
-23.6957
 11
1.35995
 21
-19.9507
  0
LINE
  8
0
 10
1.35995
 20
-19.9507
 11
1.2558
 21
-19.9605
  0
LINE
  8
0
 10
1.2558
 20
-19.9605
 11
0
 21
-20
  0
LINE
  8
0
 10
0
 20
-20
 11
-1.2558
 21
-19.9605
  0
LINE
  8
0
 10
-1.2558
 20
-19.9605
 11
-2.50665
 21
-19.8423
  0
LINE
  8
0
 10
-2.50665
 20
-19.8423
 11
-3.74762
 21
-19.6457
  0
LINE
  8
0
 10
-3.74762
 20
-19.6457
 11
-4.97379
 21
-19.3717
  0
LINE
  8
0
 10
-4.97379
 20
-19.3717
 11
-5
 21
-19.364
  0
LINE
  8
0
 10
-5
 20
-19.364
 11
-5
 21
-29.567
  0
LINE
  8
0
 10
-5
 20
-29.567
 11
-3.75999
 21
-29.7634
  0
LINE
  8
0
 10
-3.75999
 20
-29.7634
 11
-1.88371
 21
-29.9408
  0
LINE
  8
0
 10
-1.88371
 20
-29.9408
 11
0
 21
-30
  0
LINE
  8
0
 10
0
 20
-30
 11
1.88371
 21
-29.9408
  0
ENDSEC
  0
SECTION
  2
OBJECTS
  0
DICTIONARY
  0
ENDSEC
  0
EOF
