  0
SECTION
  2
BLOCKS
  0
ENDSEC
  0
SECTION
  2
ENTITIES
  0
LINE
  8
0
 10
2.07208
 20
-32.9349
 11
4.13599
 21
-32.7398
  0
LINE
  8
0
 10
4.13599
 20
-32.7398
 11
6.18358
 21
-32.4155
  0
LINE
  8
0
 10
6.18358
 20
-32.4155
 11
8.20676
 21
-31.9632
  0
LINE
  8
0
 10
8.20676
 20
-31.9632
 11
10.1976
 21
-31.3849
  0
LINE
  8
0
 10
10.1976
 20
-31.3849
 11
12.1481
 21
-30.6826
  0
LINE
  8
0
 10
12.1481
 20
-30.6826
 11
14.0507
 21
-29.8593
  0
LINE
  8
0
 10
14.0507
 20
-29.8593
 11
15.8979
 21
-28.9181
  0
LINE
  8
0
 10
15.8979
 20
-28.9181
 11
17.6823
 21
-27.8628
  0
LINE
  8
0
 10
17.6823
 20
-27.8628
 11
19.3969
 21
-26.6976
  0
LINE
  8
0
 10
19.3969
 20
-26.6976
 11
21.035
 21
-25.4269
  0
LINE
  8
0
 10
21.035
 20
-25.4269
 11
22.59
 21
-24.056
  0
LINE
  8
0
 10
22.59
 20
-24.056
 11
24.056
 21
-22.59
  0
LINE
  8
0
 10
24.056
 20
-22.59
 11
25.4269
 21
-21.035
  0
LINE
  8
0
 10
25.4269
 20
-21.035
 11
26.6976
 21
-19.3969
  0
LINE
  8
0
 10
26.6976
 20
-19.3969
 11
27.8628
 21
-17.6823
  0
LINE
  8
0
 10
27.8628
 20
-17.6823
 11
28.9181
 21
-15.8979
  0
LINE
  8
0
 10
28.9181
 20
-15.8979
 11
29.8593
 21
-14.0507
  0
LINE
  8
0
 10
29.8593
 20
-14.0507
 11
30.6826
 21
-12.1481
  0
LINE
  8
0
 10
30.6826
 20
-12.1481
 11
31.3849
 21
-10.1976
  0
LINE
  8
0
 10
31.3849
 20
-10.1976
 11
31.9632
 21
-8.20676
  0
LINE
  8
0
 10
31.9632
 20
-8.20676
 11
32.4155
 21
-6.18358
  0
LINE
  8
0
 10
32.4155
 20
-6.18358
 11
32.7398
 21
-4.13599
  0
LINE
  8
0
 10
32.7398
 20
-4.13599
 11
32.9349
 21
-2.07208
  0
LINE
  8
0
 10
32.9349
 20
-2.07208
 11
33
 21
0
  0
LINE
  8
0
 10
33
 20
0
 11
32.9349
 21
2.07208
  0
LINE
  8
0
 10
32.9349
 20
2.07208
 11
32.7398
 21
4.13599
  0
LINE
  8
0
 10
32.7398
 20
4.13599
 11
32.4155
 21
6.18358
  0
LINE
  8
0
 10
32.4155
 20
6.18358
 11
31.9632
 21
8.20676
  0
LINE
  8
0
 10
31.9632
 20
8.20676
 11
31.3849
 21
10.1976
  0
LINE
  8
0
 10
31.3849
 20
10.1976
 11
30.6826
 21
12.1481
  0
LINE
  8
0
 10
30.6826
 20
12.1481
 11
29.8593
 21
14.0507
  0
LINE
  8
0
 10
29.8593
 20
14.0507
 11
28.9181
 21
15.8979
  0
LINE
  8
0
 10
28.9181
 20
15.8979
 11
27.8628
 21
17.6823
  0
LINE
  8
0
 10
27.8628
 20
17.6823
 11
26.6976
 21
19.3969
  0
LINE
  8
0
 10
26.6976
 20
19.3969
 11
25.4269
 21
21.035
  0
LINE
  8
0
 10
25.4269
 20
21.035
 11
24.056
 21
22.59
  0
LINE
  8
0
 10
24.056
 20
22.59
 11
22.59
 21
24.056
  0
LINE
  8
0
 10
22.59
 20
24.056
 11
21.035
 21
25.4269
  0
LINE
  8
0
 10
21.035
 20
25.4269
 11
19.3969
 21
26.6976
  0
LINE
  8
0
 10
19.3969
 20
26.6976
 11
17.6823
 21
27.8628
  0
LINE
  8
0
 10
17.6823
 20
27.8628
 11
15.8979
 21
28.9181
  0
LINE
  8
0
 10
15.8979
 20
28.9181
 11
14.0507
 21
29.8593
  0
LINE
  8
0
 10
14.0507
 20
29.8593
 11
12.1481
 21
30.6826
  0
LINE
  8
0
 10
12.1481
 20
30.6826
 11
10.1976
 21
31.3849
  0
LINE
  8
0
 10
10.1976
 20
31.3849
 11
8.20676
 21
31.9632
  0
LINE
  8
0
 10
8.20676
 20
31.9632
 11
6.18358
 21
32.4155
  0
LINE
  8
0
 10
6.18358
 20
32.4155
 11
4.13599
 21
32.7398
  0
LINE
  8
0
 10
4.13599
 20
32.7398
 11
2.07208
 21
32.9349
  0
LINE
  8
0
 10
2.07208
 20
32.9349
 11
0
 21
33
  0
LINE
  8
0
 10
0
 20
33
 11
0
 21
20
  0
LINE
  8
0
 10
0
 20
20
 11
1.2558
 21
19.9605
  0
LINE
  8
0
 10
1.2558
 20
19.9605
 11
2.26868
 21
19.8648
  0
LINE
  8
0
 10
2.26868
 20
19.8648
 11
3.33629
 21
23.8491
  0
LINE
  8
0
 10
3.33629
 20
23.8491
 11
1.6266
 21
24.3073
  0
LINE
  8
0
 10
1.6266
 20
24.3073
 11
1.93201
 21
25.447
  0
LINE
  8
0
 10
1.93201
 20
25.447
 11
11.0503
 21
23.0038
  0
LINE
  8
0
 10
11.0503
 20
23.0038
 11
10.7449
 21
21.864
  0
LINE
  8
0
 10
10.7449
 20
21.864
 11
9.03525
 21
22.3221
  0
LINE
  8
0
 10
9.03525
 20
22.3221
 11
7.96666
 21
18.3341
  0
LINE
  8
0
 10
7.96666
 20
18.3341
 11
8.51558
 21
18.0965
  0
LINE
  8
0
 10
8.51558
 20
18.0965
 11
9.63507
 21
17.5261
  0
LINE
  8
0
 10
9.63507
 20
17.5261
 11
10.4505
 21
17.0439
  0
LINE
  8
0
 10
10.4505
 20
17.0439
 11
13.1028
 21
20.2047
  0
LINE
  8
0
 10
13.1028
 20
20.2047
 11
11.7469
 21
21.3424
  0
LINE
  8
0
 10
11.7469
 20
21.3424
 11
12.5054
 21
22.2463
  0
LINE
  8
0
 10
12.5054
 20
22.2463
 11
19.7368
 21
16.1784
  0
LINE
  8
0
 10
19.7368
 20
16.1784
 11
18.9783
 21
15.2745
  0
LINE
  8
0
 10
18.9783
 20
15.2745
 11
17.6225
 21
16.4122
  0
LINE
  8
0
 10
17.6225
 20
16.4122
 11
14.9686
 21
13.2495
  0
LINE
  8
0
 10
14.9686
 20
13.2495
 11
15.4103
 21
12.7485
  0
LINE
  8
0
 10
15.4103
 20
12.7485
 11
16.1803
 21
11.7557
  0
LINE
  8
0
 10
16.1803
 20
11.7557
 11
16.6735
 21
11.03
  0
LINE
  8
0
 10
16.6735
 20
11.03
 11
20.414
 21
12.7742
  0
LINE
  8
0
 10
20.414
 20
12.7742
 11
19.666
 21
14.3783
  0
LINE
  8
0
 10
19.666
 20
14.3783
 11
20.7354
 21
14.877
  0
LINE
  8
0
 10
20.7354
 20
14.877
 11
24.7249
 21
6.32149
  0
LINE
  8
0
 10
24.7249
 20
6.32149
 11
23.6555
 21
5.8228
  0
LINE
  8
0
 10
23.6555
 20
5.8228
 11
22.9075
 21
7.42696
  0
LINE
  8
0
 10
22.9075
 20
7.42696
 11
19.1658
 21
5.68221
  0
LINE
  8
0
 10
19.1658
 20
5.68221
 11
19.3717
 21
4.97379
  0
LINE
  8
0
 10
19.3717
 20
4.97379
 11
19.6457
 21
3.74762
  0
LINE
  8
0
 10
19.6457
 20
3.74762
 11
19.7721
 21
2.95
  0
LINE
  8
0
 10
19.7721
 20
2.95
 11
23.9
 21
2.95
  0
LINE
  8
0
 10
23.9
 20
2.95
 11
23.9
 21
4.71999
  0
LINE
  8
0
 10
23.9
 20
4.71999
 11
25.08
 21
4.71999
  0
LINE
  8
0
 10
25.08
 20
4.71999
 11
25.08
 21
-4.71999
  0
LINE
  8
0
 10
25.08
 20
-4.71999
 11
23.9
 21
-4.71999
  0
LINE
  8
0
 10
23.9
 20
-4.71999
 11
23.9
 21
-2.95
  0
LINE
  8
0
 10
23.9
 20
-2.95
 11
19.7721
 21
-2.95
  0
LINE
  8
0
 10
19.7721
 20
-2.95
 11
19.6457
 21
-3.74762
  0
LINE
  8
0
 10
19.6457
 20
-3.74762
 11
19.3717
 21
-4.97379
  0
LINE
  8
0
 10
19.3717
 20
-4.97379
 11
19.1658
 21
-5.68221
  0
LINE
  8
0
 10
19.1658
 20
-5.68221
 11
22.9075
 21
-7.42696
  0
LINE
  8
0
 10
22.9075
 20
-7.42696
 11
23.6555
 21
-5.8228
  0
LINE
  8
0
 10
23.6555
 20
-5.8228
 11
24.7249
 21
-6.32149
  0
LINE
  8
0
 10
24.7249
 20
-6.32149
 11
20.7354
 21
-14.877
  0
LINE
  8
0
 10
20.7354
 20
-14.877
 11
19.666
 21
-14.3783
  0
LINE
  8
0
 10
19.666
 20
-14.3783
 11
20.414
 21
-12.7742
  0
LINE
  8
0
 10
20.414
 20
-12.7742
 11
16.6735
 21
-11.03
  0
LINE
  8
0
 10
16.6735
 20
-11.03
 11
16.1803
 21
-11.7557
  0
LINE
  8
0
 10
16.1803
 20
-11.7557
 11
15.4103
 21
-12.7485
  0
LINE
  8
0
 10
15.4103
 20
-12.7485
 11
14.9686
 21
-13.2495
  0
LINE
  8
0
 10
14.9686
 20
-13.2495
 11
17.6225
 21
-16.4122
  0
LINE
  8
0
 10
17.6225
 20
-16.4122
 11
18.9783
 21
-15.2745
  0
LINE
  8
0
 10
18.9783
 20
-15.2745
 11
19.7368
 21
-16.1784
  0
LINE
  8
0
 10
19.7368
 20
-16.1784
 11
12.5054
 21
-22.2463
  0
LINE
  8
0
 10
12.5054
 20
-22.2463
 11
11.7469
 21
-21.3424
  0
LINE
  8
0
 10
11.7469
 20
-21.3424
 11
13.1028
 21
-20.2047
  0
LINE
  8
0
 10
13.1028
 20
-20.2047
 11
10.4505
 21
-17.0439
  0
LINE
  8
0
 10
10.4505
 20
-17.0439
 11
9.63507
 21
-17.5261
  0
LINE
  8
0
 10
9.63507
 20
-17.5261
 11
8.51558
 21
-18.0965
  0
LINE
  8
0
 10
8.51558
 20
-18.0965
 11
7.96666
 21
-18.3341
  0
LINE
  8
0
 10
7.96666
 20
-18.3341
 11
9.03525
 21
-22.3221
  0
LINE
  8
0
 10
9.03525
 20
-22.3221
 11
10.7449
 21
-21.864
  0
LINE
  8
0
 10
10.7449
 20
-21.864
 11
11.0503
 21
-23.0038
  0
LINE
  8
0
 10
11.0503
 20
-23.0038
 11
1.93201
 21
-25.447
  0
LINE
  8
0
 10
1.93201
 20
-25.447
 11
1.6266
 21
-24.3073
  0
LINE
  8
0
 10
1.6266
 20
-24.3073
 11
3.33629
 21
-23.8491
  0
LINE
  8
0
 10
3.33629
 20
-23.8491
 11
2.26868
 21
-19.8648
  0
LINE
  8
0
 10
2.26868
 20
-19.8648
 11
1.2558
 21
-19.9605
  0
LINE
  8
0
 10
1.2558
 20
-19.9605
 11
0
 21
-20
  0
LINE
  8
0
 10
0
 20
-20
 11
0
 21
-33
  0
LINE
  8
0
 10
0
 20
-33
 11
2.07208
 21
-32.9349
  0
LINE
  8
0
 10
14.372
 20
23.5901
 11
14.2765
 21
23.6012
  0
LINE
  8
0
 10
14.2765
 20
23.6012
 11
14.1819
 21
23.6182
  0
LINE
  8
0
 10
14.1819
 20
23.6182
 11
14.0885
 21
23.6411
  0
LINE
  8
0
 10
14.0885
 20
23.6411
 11
13.9968
 21
23.6698
  0
LINE
  8
0
 10
13.9968
 20
23.6698
 11
13.9071
 21
23.7043
  0
LINE
  8
0
 10
13.9071
 20
23.7043
 11
13.8197
 21
23.7443
  0
LINE
  8
0
 10
13.8197
 20
23.7443
 11
13.735
 21
23.7897
  0
LINE
  8
0
 10
13.735
 20
23.7897
 11
13.6533
 21
23.8404
  0
LINE
  8
0
 10
13.6533
 20
23.8404
 11
13.575
 21
23.896
  0
LINE
  8
0
 10
13.575
 20
23.896
 11
13.5003
 21
23.9565
  0
LINE
  8
0
 10
13.5003
 20
23.9565
 11
13.4295
 21
24.0216
  0
LINE
  8
0
 10
13.4295
 20
24.0216
 11
13.363
 21
24.091
  0
LINE
  8
0
 10
13.363
 20
24.091
 11
13.3009
 21
24.1644
  0
LINE
  8
0
 10
13.3009
 20
24.1644
 11
13.2436
 21
24.2415
  0
LINE
  8
0
 10
13.2436
 20
24.2415
 11
13.1913
 21
24.3221
  0
LINE
  8
0
 10
13.1913
 20
24.3221
 11
13.1441
 21
24.4059
  0
LINE
  8
0
 10
13.1441
 20
24.4059
 11
13.1023
 21
24.4924
  0
LINE
  8
0
 10
13.1023
 20
24.4924
 11
13.0659
 21
24.5814
  0
LINE
  8
0
 10
13.0659
 20
24.5814
 11
13.0353
 21
24.6725
  0
LINE
  8
0
 10
13.0353
 20
24.6725
 11
13.0104
 21
24.7654
  0
LINE
  8
0
 10
13.0104
 20
24.7654
 11
12.9914
 21
24.8596
  0
LINE
  8
0
 10
12.9914
 20
24.8596
 11
12.9784
 21
24.9548
  0
LINE
  8
0
 10
12.9784
 20
24.9548
 11
12.9713
 21
25.0507
  0
LINE
  8
0
 10
12.9713
 20
25.0507
 11
12.9703
 21
25.1468
  0
LINE
  8
0
 10
12.9703
 20
25.1468
 11
12.9754
 21
25.2428
  0
LINE
  8
0
 10
12.9754
 20
25.2428
 11
12.9864
 21
25.3382
  0
LINE
  8
0
 10
12.9864
 20
25.3382
 11
13.0034
 21
25.4328
  0
LINE
  8
0
 10
13.0034
 20
25.4328
 11
13.0264
 21
25.5262
  0
LINE
  8
0
 10
13.0264
 20
25.5262
 11
13.0551
 21
25.6179
  0
LINE
  8
0
 10
13.0551
 20
25.6179
 11
13.0895
 21
25.7076
  0
LINE
  8
0
 10
13.0895
 20
25.7076
 11
13.1295
 21
25.795
  0
LINE
  8
0
 10
13.1295
 20
25.795
 11
13.175
 21
25.8797
  0
LINE
  8
0
 10
13.175
 20
25.8797
 11
13.2256
 21
25.9614
  0
LINE
  8
0
 10
13.2256
 20
25.9614
 11
13.2813
 21
26.0398
  0
LINE
  8
0
 10
13.2813
 20
26.0398
 11
13.3418
 21
26.1145
  0
LINE
  8
0
 10
13.3418
 20
26.1145
 11
13.4068
 21
26.1852
  0
LINE
  8
0
 10
13.4068
 20
26.1852
 11
13.4762
 21
26.2517
  0
LINE
  8
0
 10
13.4762
 20
26.2517
 11
13.5496
 21
26.3138
  0
LINE
  8
0
 10
13.5496
 20
26.3138
 11
13.6268
 21
26.3711
  0
LINE
  8
0
 10
13.6268
 20
26.3711
 11
13.7074
 21
26.4234
  0
LINE
  8
0
 10
13.7074
 20
26.4234
 11
13.7912
 21
26.4706
  0
LINE
  8
0
 10
13.7912
 20
26.4706
 11
13.8777
 21
26.5125
  0
LINE
  8
0
 10
13.8777
 20
26.5125
 11
13.9667
 21
26.5488
  0
LINE
  8
0
 10
13.9667
 20
26.5488
 11
14.0578
 21
26.5794
  0
LINE
  8
0
 10
14.0578
 20
26.5794
 11
14.1506
 21
26.6043
  0
LINE
  8
0
 10
14.1506
 20
26.6043
 11
14.2448
 21
26.6233
  0
LINE
  8
0
 10
14.2448
 20
26.6233
 11
14.3401
 21
26.6364
  0
LINE
  8
0
 10
14.3401
 20
26.6364
 11
14.4359
 21
26.6434
  0
LINE
  8
0
 10
14.4359
 20
26.6434
 11
14.532
 21
26.6444
  0
LINE
  8
0
 10
14.532
 20
26.6444
 11
14.628
 21
26.6394
  0
LINE
  8
0
 10
14.628
 20
26.6394
 11
14.7235
 21
26.6283
  0
LINE
  8
0
 10
14.7235
 20
26.6283
 11
14.8181
 21
26.6113
  0
LINE
  8
0
 10
14.8181
 20
26.6113
 11
14.9114
 21
26.5884
  0
LINE
  8
0
 10
14.9114
 20
26.5884
 11
15.0032
 21
26.5596
  0
LINE
  8
0
 10
15.0032
 20
26.5596
 11
15.0929
 21
26.5252
  0
LINE
  8
0
 10
15.0929
 20
26.5252
 11
15.1803
 21
26.4852
  0
LINE
  8
0
 10
15.1803
 20
26.4852
 11
15.265
 21
26.4397
  0
LINE
  8
0
 10
15.265
 20
26.4397
 11
15.3467
 21
26.3891
  0
LINE
  8
0
 10
15.3467
 20
26.3891
 11
15.425
 21
26.3334
  0
LINE
  8
0
 10
15.425
 20
26.3334
 11
15.4997
 21
26.2729
  0
LINE
  8
0
 10
15.4997
 20
26.2729
 11
15.5705
 21
26.2079
  0
LINE
  8
0
 10
15.5705
 20
26.2079
 11
15.637
 21
26.1385
  0
LINE
  8
0
 10
15.637
 20
26.1385
 11
15.6991
 21
26.0651
  0
LINE
  8
0
 10
15.6991
 20
26.0651
 11
15.7563
 21
25.9879
  0
LINE
  8
0
 10
15.7563
 20
25.9879
 11
15.8087
 21
25.9073
  0
LINE
  8
0
 10
15.8087
 20
25.9073
 11
15.8559
 21
25.8236
  0
LINE
  8
0
 10
15.8559
 20
25.8236
 11
15.8977
 21
25.737
  0
LINE
  8
0
 10
15.8977
 20
25.737
 11
15.934
 21
25.648
  0
LINE
  8
0
 10
15.934
 20
25.648
 11
15.9647
 21
25.5569
  0
LINE
  8
0
 10
15.9647
 20
25.5569
 11
15.9896
 21
25.4641
  0
LINE
  8
0
 10
15.9896
 20
25.4641
 11
16.0086
 21
25.3699
  0
LINE
  8
0
 10
16.0086
 20
25.3699
 11
16.0216
 21
25.2747
  0
LINE
  8
0
 10
16.0216
 20
25.2747
 11
16.0287
 21
25.1788
  0
LINE
  8
0
 10
16.0287
 20
25.1788
 11
16.0297
 21
25.0827
  0
LINE
  8
0
 10
16.0297
 20
25.0827
 11
16.0246
 21
24.9867
  0
LINE
  8
0
 10
16.0246
 20
24.9867
 11
16.0136
 21
24.8912
  0
LINE
  8
0
 10
16.0136
 20
24.8912
 11
15.9966
 21
24.7966
  0
LINE
  8
0
 10
15.9966
 20
24.7966
 11
15.9736
 21
24.7033
  0
LINE
  8
0
 10
15.9736
 20
24.7033
 11
15.9449
 21
24.6116
  0
LINE
  8
0
 10
15.9449
 20
24.6116
 11
15.9104
 21
24.5218
  0
LINE
  8
0
 10
15.9104
 20
24.5218
 11
15.8704
 21
24.4344
  0
LINE
  8
0
 10
15.8704
 20
24.4344
 11
15.825
 21
24.3497
  0
LINE
  8
0
 10
15.825
 20
24.3497
 11
15.7744
 21
24.268
  0
LINE
  8
0
 10
15.7744
 20
24.268
 11
15.7187
 21
24.1897
  0
LINE
  8
0
 10
15.7187
 20
24.1897
 11
15.6582
 21
24.115
  0
LINE
  8
0
 10
15.6582
 20
24.115
 11
15.5931
 21
24.0443
  0
LINE
  8
0
 10
15.5931
 20
24.0443
 11
15.5238
 21
23.9777
  0
LINE
  8
0
 10
15.5238
 20
23.9777
 11
15.4503
 21
23.9157
  0
LINE
  8
0
 10
15.4503
 20
23.9157
 11
15.3732
 21
23.8584
  0
LINE
  8
0
 10
15.3732
 20
23.8584
 11
15.2926
 21
23.806
  0
LINE
  8
0
 10
15.2926
 20
23.806
 11
15.2088
 21
23.7588
  0
LINE
  8
0
 10
15.2088
 20
23.7588
 11
15.1223
 21
23.717
  0
LINE
  8
0
 10
15.1223
 20
23.717
 11
15.0333
 21
23.6807
  0
LINE
  8
0
 10
15.0333
 20
23.6807
 11
14.9422
 21
23.65
  0
LINE
  8
0
 10
14.9422
 20
23.65
 11
14.8494
 21
23.6252
  0
LINE
  8
0
 10
14.8494
 20
23.6252
 11
14.7551
 21
23.6062
  0
LINE
  8
0
 10
14.7551
 20
23.6062
 11
14.6599
 21
23.5931
  0
LINE
  8
0
 10
14.6599
 20
23.5931
 11
14.5641
 21
23.5861
  0
LINE
  8
0
 10
14.5641
 20
23.5861
 11
14.468
 21
23.5851
  0
LINE
  8
0
 10
14.468
 20
23.5851
 11
14.372
 21
23.5901
  0
LINE
  8
0
 10
28.9039
 20
-1.52698
 11
28.8082
 21
-1.51793
  0
LINE
  8
0
 10
28.8082
 20
-1.51793
 11
28.7133
 21
-1.5029
  0
LINE
  8
0
 10
28.7133
 20
-1.5029
 11
28.6195
 21
-1.48192
  0
LINE
  8
0
 10
28.6195
 20
-1.48192
 11
28.5272
 21
-1.45511
  0
LINE
  8
0
 10
28.5272
 20
-1.45511
 11
28.4368
 21
-1.42255
  0
LINE
  8
0
 10
28.4368
 20
-1.42255
 11
28.3486
 21
-1.38438
  0
LINE
  8
0
 10
28.3486
 20
-1.38438
 11
28.2629
 21
-1.34074
  0
LINE
  8
0
 10
28.2629
 20
-1.34074
 11
28.1802
 21
-1.29181
  0
LINE
  8
0
 10
28.1802
 20
-1.29181
 11
28.1007
 21
-1.23779
  0
LINE
  8
0
 10
28.1007
 20
-1.23779
 11
28.0247
 21
-1.17888
  0
LINE
  8
0
 10
28.0247
 20
-1.17888
 11
27.9526
 21
-1.11531
  0
LINE
  8
0
 10
27.9526
 20
-1.11531
 11
27.8847
 21
-1.04735
  0
LINE
  8
0
 10
27.8847
 20
-1.04735
 11
27.8211
 21
-0.97525
  0
LINE
  8
0
 10
27.8211
 20
-0.97525
 11
27.7622
 21
-0.899307
  0
LINE
  8
0
 10
27.7622
 20
-0.899307
 11
27.7082
 21
-0.819809
  0
LINE
  8
0
 10
27.7082
 20
-0.819809
 11
27.6592
 21
-0.737076
  0
LINE
  8
0
 10
27.6592
 20
-0.737076
 11
27.6156
 21
-0.651428
  0
LINE
  8
0
 10
27.6156
 20
-0.651428
 11
27.5774
 21
-0.563217
  0
LINE
  8
0
 10
27.5774
 20
-0.563217
 11
27.5449
 21
-0.472794
  0
LINE
  8
0
 10
27.5449
 20
-0.472794
 11
27.5181
 21
-0.380493
  0
LINE
  8
0
 10
27.5181
 20
-0.380493
 11
27.4971
 21
-0.286682
  0
LINE
  8
0
 10
27.4971
 20
-0.286682
 11
27.4821
 21
-0.191757
  0
LINE
  8
0
 10
27.4821
 20
-0.191757
 11
27.473
 21
-0.0960693
  0
LINE
  8
0
 10
27.473
 20
-0.0960693
 11
27.47
 21
0
  0
LINE
  8
0
 10
27.47
 20
0
 11
27.473
 21
0.0960693
  0
LINE
  8
0
 10
27.473
 20
0.0960693
 11
27.4821
 21
0.191757
  0
LINE
  8
0
 10
27.4821
 20
0.191757
 11
27.4971
 21
0.286682
  0
LINE
  8
0
 10
27.4971
 20
0.286682
 11
27.5181
 21
0.380493
  0
LINE
  8
0
 10
27.5181
 20
0.380493
 11
27.5449
 21
0.472794
  0
LINE
  8
0
 10
27.5449
 20
0.472794
 11
27.5774
 21
0.563217
  0
LINE
  8
0
 10
27.5774
 20
0.563217
 11
27.6156
 21
0.651428
  0
LINE
  8
0
 10
27.6156
 20
0.651428
 11
27.6592
 21
0.737076
  0
LINE
  8
0
 10
27.6592
 20
0.737076
 11
27.7082
 21
0.819809
  0
LINE
  8
0
 10
27.7082
 20
0.819809
 11
27.7622
 21
0.899307
  0
LINE
  8
0
 10
27.7622
 20
0.899307
 11
27.8211
 21
0.97525
  0
LINE
  8
0
 10
27.8211
 20
0.97525
 11
27.8847
 21
1.04735
  0
LINE
  8
0
 10
27.8847
 20
1.04735
 11
27.9526
 21
1.11531
  0
LINE
  8
0
 10
27.9526
 20
1.11531
 11
28.0247
 21
1.17888
  0
LINE
  8
0
 10
28.0247
 20
1.17888
 11
28.1007
 21
1.23779
  0
LINE
  8
0
 10
28.1007
 20
1.23779
 11
28.1802
 21
1.29181
  0
LINE
  8
0
 10
28.1802
 20
1.29181
 11
28.2629
 21
1.34074
  0
LINE
  8
0
 10
28.2629
 20
1.34074
 11
28.3486
 21
1.38438
  0
LINE
  8
0
 10
28.3486
 20
1.38438
 11
28.4368
 21
1.42255
  0
LINE
  8
0
 10
28.4368
 20
1.42255
 11
28.5272
 21
1.45511
  0
LINE
  8
0
 10
28.5272
 20
1.45511
 11
28.6195
 21
1.48192
  0
LINE
  8
0
 10
28.6195
 20
1.48192
 11
28.7133
 21
1.5029
  0
LINE
  8
0
 10
28.7133
 20
1.5029
 11
28.8082
 21
1.51793
  0
LINE
  8
0
 10
28.8082
 20
1.51793
 11
28.9039
 21
1.52698
  0
LINE
  8
0
 10
28.9039
 20
1.52698
 11
29
 21
1.53
  0
LINE
  8
0
 10
29
 20
1.53
 11
29.0961
 21
1.52698
  0
LINE
  8
0
 10
29.0961
 20
1.52698
 11
29.1918
 21
1.51793
  0
LINE
  8
0
 10
29.1918
 20
1.51793
 11
29.2867
 21
1.5029
  0
LINE
  8
0
 10
29.2867
 20
1.5029
 11
29.3805
 21
1.48192
  0
LINE
  8
0
 10
29.3805
 20
1.48192
 11
29.4728
 21
1.45511
  0
LINE
  8
0
 10
29.4728
 20
1.45511
 11
29.5632
 21
1.42255
  0
LINE
  8
0
 10
29.5632
 20
1.42255
 11
29.6514
 21
1.38438
  0
LINE
  8
0
 10
29.6514
 20
1.38438
 11
29.7371
 21
1.34074
  0
LINE
  8
0
 10
29.7371
 20
1.34074
 11
29.8198
 21
1.29181
  0
LINE
  8
0
 10
29.8198
 20
1.29181
 11
29.8993
 21
1.23779
  0
LINE
  8
0
 10
29.8993
 20
1.23779
 11
29.9753
 21
1.17888
  0
LINE
  8
0
 10
29.9753
 20
1.17888
 11
30.0473
 21
1.11531
  0
LINE
  8
0
 10
30.0473
 20
1.11531
 11
30.1153
 21
1.04735
  0
LINE
  8
0
 10
30.1153
 20
1.04735
 11
30.1789
 21
0.97525
  0
LINE
  8
0
 10
30.1789
 20
0.97525
 11
30.2378
 21
0.899307
  0
LINE
  8
0
 10
30.2378
 20
0.899307
 11
30.2918
 21
0.819809
  0
LINE
  8
0
 10
30.2918
 20
0.819809
 11
30.3407
 21
0.737076
  0
LINE
  8
0
 10
30.3407
 20
0.737076
 11
30.3844
 21
0.651428
  0
LINE
  8
0
 10
30.3844
 20
0.651428
 11
30.4225
 21
0.563217
  0
LINE
  8
0
 10
30.4225
 20
0.563217
 11
30.4551
 21
0.472794
  0
LINE
  8
0
 10
30.4551
 20
0.472794
 11
30.4819
 21
0.380493
  0
LINE
  8
0
 10
30.4819
 20
0.380493
 11
30.5029
 21
0.286682
  0
LINE
  8
0
 10
30.5029
 20
0.286682
 11
30.5179
 21
0.191757
  0
LINE
  8
0
 10
30.5179
 20
0.191757
 11
30.527
 21
0.0960693
  0
LINE
  8
0
 10
30.527
 20
0.0960693
 11
30.53
 21
0
  0
LINE
  8
0
 10
30.53
 20
0
 11
30.527
 21
-0.0960693
  0
LINE
  8
0
 10
30.527
 20
-0.0960693
 11
30.5179
 21
-0.191757
  0
LINE
  8
0
 10
30.5179
 20
-0.191757
 11
30.5029
 21
-0.286682
  0
LINE
  8
0
 10
30.5029
 20
-0.286682
 11
30.4819
 21
-0.380493
  0
LINE
  8
0
 10
30.4819
 20
-0.380493
 11
30.4551
 21
-0.472794
  0
LINE
  8
0
 10
30.4551
 20
-0.472794
 11
30.4225
 21
-0.563217
  0
LINE
  8
0
 10
30.4225
 20
-0.563217
 11
30.3844
 21
-0.651428
  0
LINE
  8
0
 10
30.3844
 20
-0.651428
 11
30.3407
 21
-0.737076
  0
LINE
  8
0
 10
30.3407
 20
-0.737076
 11
30.2918
 21
-0.819809
  0
LINE
  8
0
 10
30.2918
 20
-0.819809
 11
30.2378
 21
-0.899307
  0
LINE
  8
0
 10
30.2378
 20
-0.899307
 11
30.1789
 21
-0.97525
  0
LINE
  8
0
 10
30.1789
 20
-0.97525
 11
30.1153
 21
-1.04735
  0
LINE
  8
0
 10
30.1153
 20
-1.04735
 11
30.0473
 21
-1.11531
  0
LINE
  8
0
 10
30.0473
 20
-1.11531
 11
29.9753
 21
-1.17888
  0
LINE
  8
0
 10
29.9753
 20
-1.17888
 11
29.8993
 21
-1.23779
  0
LINE
  8
0
 10
29.8993
 20
-1.23779
 11
29.8198
 21
-1.29181
  0
LINE
  8
0
 10
29.8198
 20
-1.29181
 11
29.7371
 21
-1.34074
  0
LINE
  8
0
 10
29.7371
 20
-1.34074
 11
29.6514
 21
-1.38438
  0
LINE
  8
0
 10
29.6514
 20
-1.38438
 11
29.5632
 21
-1.42255
  0
LINE
  8
0
 10
29.5632
 20
-1.42255
 11
29.4728
 21
-1.45511
  0
LINE
  8
0
 10
29.4728
 20
-1.45511
 11
29.3805
 21
-1.48192
  0
LINE
  8
0
 10
29.3805
 20
-1.48192
 11
29.2867
 21
-1.5029
  0
LINE
  8
0
 10
29.2867
 20
-1.5029
 11
29.1918
 21
-1.51793
  0
LINE
  8
0
 10
29.1918
 20
-1.51793
 11
29.0961
 21
-1.52698
  0
LINE
  8
0
 10
29.0961
 20
-1.52698
 11
29
 21
-1.53
  0
LINE
  8
0
 10
29
 20
-1.53
 11
28.9039
 21
-1.52698
  0
LINE
  8
0
 10
14.4359
 20
-26.6434
 11
14.3401
 21
-26.6364
  0
LINE
  8
0
 10
14.3401
 20
-26.6364
 11
14.2448
 21
-26.6233
  0
LINE
  8
0
 10
14.2448
 20
-26.6233
 11
14.1506
 21
-26.6043
  0
LINE
  8
0
 10
14.1506
 20
-26.6043
 11
14.0578
 21
-26.5794
  0
LINE
  8
0
 10
14.0578
 20
-26.5794
 11
13.9667
 21
-26.5488
  0
LINE
  8
0
 10
13.9667
 20
-26.5488
 11
13.8777
 21
-26.5125
  0
LINE
  8
0
 10
13.8777
 20
-26.5125
 11
13.7912
 21
-26.4706
  0
LINE
  8
0
 10
13.7912
 20
-26.4706
 11
13.7074
 21
-26.4234
  0
LINE
  8
0
 10
13.7074
 20
-26.4234
 11
13.6268
 21
-26.3711
  0
LINE
  8
0
 10
13.6268
 20
-26.3711
 11
13.5496
 21
-26.3138
  0
LINE
  8
0
 10
13.5496
 20
-26.3138
 11
13.4762
 21
-26.2517
  0
LINE
  8
0
 10
13.4762
 20
-26.2517
 11
13.4068
 21
-26.1852
  0
LINE
  8
0
 10
13.4068
 20
-26.1852
 11
13.3418
 21
-26.1145
  0
LINE
  8
0
 10
13.3418
 20
-26.1145
 11
13.2813
 21
-26.0398
  0
LINE
  8
0
 10
13.2813
 20
-26.0398
 11
13.2256
 21
-25.9614
  0
LINE
  8
0
 10
13.2256
 20
-25.9614
 11
13.175
 21
-25.8797
  0
LINE
  8
0
 10
13.175
 20
-25.8797
 11
13.1295
 21
-25.795
  0
LINE
  8
0
 10
13.1295
 20
-25.795
 11
13.0895
 21
-25.7076
  0
LINE
  8
0
 10
13.0895
 20
-25.7076
 11
13.0551
 21
-25.6179
  0
LINE
  8
0
 10
13.0551
 20
-25.6179
 11
13.0264
 21
-25.5262
  0
LINE
  8
0
 10
13.0264
 20
-25.5262
 11
13.0034
 21
-25.4328
  0
LINE
  8
0
 10
13.0034
 20
-25.4328
 11
12.9864
 21
-25.3382
  0
LINE
  8
0
 10
12.9864
 20
-25.3382
 11
12.9754
 21
-25.2428
  0
LINE
  8
0
 10
12.9754
 20
-25.2428
 11
12.9703
 21
-25.1468
  0
LINE
  8
0
 10
12.9703
 20
-25.1468
 11
12.9713
 21
-25.0507
  0
LINE
  8
0
 10
12.9713
 20
-25.0507
 11
12.9784
 21
-24.9548
  0
LINE
  8
0
 10
12.9784
 20
-24.9548
 11
12.9914
 21
-24.8596
  0
LINE
  8
0
 10
12.9914
 20
-24.8596
 11
13.0104
 21
-24.7654
  0
LINE
  8
0
 10
13.0104
 20
-24.7654
 11
13.0353
 21
-24.6725
  0
LINE
  8
0
 10
13.0353
 20
-24.6725
 11
13.0659
 21
-24.5814
  0
LINE
  8
0
 10
13.0659
 20
-24.5814
 11
13.1023
 21
-24.4924
  0
LINE
  8
0
 10
13.1023
 20
-24.4924
 11
13.1441
 21
-24.4059
  0
LINE
  8
0
 10
13.1441
 20
-24.4059
 11
13.1913
 21
-24.3221
  0
LINE
  8
0
 10
13.1913
 20
-24.3221
 11
13.2436
 21
-24.2415
  0
LINE
  8
0
 10
13.2436
 20
-24.2415
 11
13.3009
 21
-24.1644
  0
LINE
  8
0
 10
13.3009
 20
-24.1644
 11
13.363
 21
-24.091
  0
LINE
  8
0
 10
13.363
 20
-24.091
 11
13.4295
 21
-24.0216
  0
LINE
  8
0
 10
13.4295
 20
-24.0216
 11
13.5003
 21
-23.9565
  0
LINE
  8
0
 10
13.5003
 20
-23.9565
 11
13.575
 21
-23.896
  0
LINE
  8
0
 10
13.575
 20
-23.896
 11
13.6533
 21
-23.8404
  0
LINE
  8
0
 10
13.6533
 20
-23.8404
 11
13.735
 21
-23.7897
  0
LINE
  8
0
 10
13.735
 20
-23.7897
 11
13.8197
 21
-23.7443
  0
LINE
  8
0
 10
13.8197
 20
-23.7443
 11
13.9071
 21
-23.7043
  0
LINE
  8
0
 10
13.9071
 20
-23.7043
 11
13.9968
 21
-23.6698
  0
LINE
  8
0
 10
13.9968
 20
-23.6698
 11
14.0885
 21
-23.6411
  0
LINE
  8
0
 10
14.0885
 20
-23.6411
 11
14.1819
 21
-23.6182
  0
LINE
  8
0
 10
14.1819
 20
-23.6182
 11
14.2765
 21
-23.6012
  0
LINE
  8
0
 10
14.2765
 20
-23.6012
 11
14.372
 21
-23.5901
  0
LINE
  8
0
 10
14.372
 20
-23.5901
 11
14.468
 21
-23.5851
  0
LINE
  8
0
 10
14.468
 20
-23.5851
 11
14.5641
 21
-23.5861
  0
LINE
  8
0
 10
14.5641
 20
-23.5861
 11
14.6599
 21
-23.5931
  0
LINE
  8
0
 10
14.6599
 20
-23.5931
 11
14.7551
 21
-23.6062
  0
LINE
  8
0
 10
14.7551
 20
-23.6062
 11
14.8494
 21
-23.6252
  0
LINE
  8
0
 10
14.8494
 20
-23.6252
 11
14.9422
 21
-23.65
  0
LINE
  8
0
 10
14.9422
 20
-23.65
 11
15.0333
 21
-23.6807
  0
LINE
  8
0
 10
15.0333
 20
-23.6807
 11
15.1223
 21
-23.717
  0
LINE
  8
0
 10
15.1223
 20
-23.717
 11
15.2088
 21
-23.7588
  0
LINE
  8
0
 10
15.2088
 20
-23.7588
 11
15.2926
 21
-23.806
  0
LINE
  8
0
 10
15.2926
 20
-23.806
 11
15.3732
 21
-23.8584
  0
LINE
  8
0
 10
15.3732
 20
-23.8584
 11
15.4503
 21
-23.9157
  0
LINE
  8
0
 10
15.4503
 20
-23.9157
 11
15.5238
 21
-23.9777
  0
LINE
  8
0
 10
15.5238
 20
-23.9777
 11
15.5931
 21
-24.0443
  0
LINE
  8
0
 10
15.5931
 20
-24.0443
 11
15.6582
 21
-24.115
  0
LINE
  8
0
 10
15.6582
 20
-24.115
 11
15.7187
 21
-24.1897
  0
LINE
  8
0
 10
15.7187
 20
-24.1897
 11
15.7744
 21
-24.268
  0
LINE
  8
0
 10
15.7744
 20
-24.268
 11
15.825
 21
-24.3497
  0
LINE
  8
0
 10
15.825
 20
-24.3497
 11
15.8704
 21
-24.4344
  0
LINE
  8
0
 10
15.8704
 20
-24.4344
 11
15.9104
 21
-24.5218
  0
LINE
  8
0
 10
15.9104
 20
-24.5218
 11
15.9449
 21
-24.6116
  0
LINE
  8
0
 10
15.9449
 20
-24.6116
 11
15.9736
 21
-24.7033
  0
LINE
  8
0
 10
15.9736
 20
-24.7033
 11
15.9966
 21
-24.7966
  0
LINE
  8
0
 10
15.9966
 20
-24.7966
 11
16.0136
 21
-24.8912
  0
LINE
  8
0
 10
16.0136
 20
-24.8912
 11
16.0246
 21
-24.9867
  0
LINE
  8
0
 10
16.0246
 20
-24.9867
 11
16.0297
 21
-25.0827
  0
LINE
  8
0
 10
16.0297
 20
-25.0827
 11
16.0287
 21
-25.1788
  0
LINE
  8
0
 10
16.0287
 20
-25.1788
 11
16.0216
 21
-25.2747
  0
LINE
  8
0
 10
16.0216
 20
-25.2747
 11
16.0086
 21
-25.3699
  0
LINE
  8
0
 10
16.0086
 20
-25.3699
 11
15.9896
 21
-25.4641
  0
LINE
  8
0
 10
15.9896
 20
-25.4641
 11
15.9647
 21
-25.5569
  0
LINE
  8
0
 10
15.9647
 20
-25.5569
 11
15.934
 21
-25.648
  0
LINE
  8
0
 10
15.934
 20
-25.648
 11
15.8977
 21
-25.737
  0
LINE
  8
0
 10
15.8977
 20
-25.737
 11
15.8559
 21
-25.8236
  0
LINE
  8
0
 10
15.8559
 20
-25.8236
 11
15.8087
 21
-25.9073
  0
LINE
  8
0
 10
15.8087
 20
-25.9073
 11
15.7563
 21
-25.9879
  0
LINE
  8
0
 10
15.7563
 20
-25.9879
 11
15.6991
 21
-26.0651
  0
LINE
  8
0
 10
15.6991
 20
-26.0651
 11
15.637
 21
-26.1385
  0
LINE
  8
0
 10
15.637
 20
-26.1385
 11
15.5705
 21
-26.2079
  0
LINE
  8
0
 10
15.5705
 20
-26.2079
 11
15.4997
 21
-26.2729
  0
LINE
  8
0
 10
15.4997
 20
-26.2729
 11
15.425
 21
-26.3334
  0
LINE
  8
0
 10
15.425
 20
-26.3334
 11
15.3467
 21
-26.3891
  0
LINE
  8
0
 10
15.3467
 20
-26.3891
 11
15.265
 21
-26.4397
  0
LINE
  8
0
 10
15.265
 20
-26.4397
 11
15.1803
 21
-26.4852
  0
LINE
  8
0
 10
15.1803
 20
-26.4852
 11
15.0929
 21
-26.5252
  0
LINE
  8
0
 10
15.0929
 20
-26.5252
 11
15.0032
 21
-26.5596
  0
LINE
  8
0
 10
15.0032
 20
-26.5596
 11
14.9114
 21
-26.5884
  0
LINE
  8
0
 10
14.9114
 20
-26.5884
 11
14.8181
 21
-26.6113
  0
LINE
  8
0
 10
14.8181
 20
-26.6113
 11
14.7235
 21
-26.6283
  0
LINE
  8
0
 10
14.7235
 20
-26.6283
 11
14.628
 21
-26.6394
  0
LINE
  8
0
 10
14.628
 20
-26.6394
 11
14.532
 21
-26.6444
  0
LINE
  8
0
 10
14.532
 20
-26.6444
 11
14.4359
 21
-26.6434
  0
ENDSEC
  0
SECTION
  2
OBJECTS
  0
DICTIONARY
  0
ENDSEC
  0
EOF
