  0
SECTION
  2
BLOCKS
  0
ENDSEC
  0
SECTION
  2
ENTITIES
  0
LINE
  8
0
 10
17.0376
 20
-3.75044
 11
15.5048
 21
-2.86545
  0
LINE
  8
0
 10
15.5048
 20
-2.86545
 11
14.2724
 21
-5
  0
LINE
  8
0
 10
14.2724
 20
-5
 11
22.5
 21
-5
  0
LINE
  8
0
 10
22.5
 20
-5
 11
22.5
 21
5
  0
LINE
  8
0
 10
22.5
 20
5
 11
-22.5
 21
5
  0
LINE
  8
0
 10
-22.5
 20
5
 11
-22.5
 21
-5
  0
LINE
  8
0
 10
-22.5
 20
-5
 11
-14.2724
 21
-5
  0
LINE
  8
0
 10
-14.2724
 20
-5
 11
-15.5048
 21
-2.86545
  0
LINE
  8
0
 10
-15.5048
 20
-2.86545
 11
-17.0376
 21
-3.75044
  0
LINE
  8
0
 10
-17.0376
 20
-3.75044
 11
-17.6276
 21
-2.72853
  0
LINE
  8
0
 10
-17.6276
 20
-2.72853
 11
-9.45235
 21
1.99146
  0
LINE
  8
0
 10
-9.45235
 20
1.99146
 11
-8.86235
 21
0.969543
  0
LINE
  8
0
 10
-8.86235
 20
0.969543
 11
-10.3952
 21
0.084549
  0
LINE
  8
0
 10
-10.3952
 20
0.084549
 11
-7.45966
 21
-5
  0
LINE
  8
0
 10
-7.45966
 20
-5
 11
-2.95
 21
-5
  0
LINE
  8
0
 10
-2.95
 20
-5
 11
-2.95
 21
-1.09999
  0
LINE
  8
0
 10
-2.95
 20
-1.09999
 11
-4.71999
 21
-1.09999
  0
LINE
  8
0
 10
-4.71999
 20
-1.09999
 11
-4.71999
 21
0.0799866
  0
LINE
  8
0
 10
-4.71999
 20
0.0799866
 11
4.71999
 21
0.0799866
  0
LINE
  8
0
 10
4.71999
 20
0.0799866
 11
4.71999
 21
-1.09999
  0
LINE
  8
0
 10
4.71999
 20
-1.09999
 11
2.95
 21
-1.09999
  0
LINE
  8
0
 10
2.95
 20
-1.09999
 11
2.95
 21
-5
  0
LINE
  8
0
 10
2.95
 20
-5
 11
7.45966
 21
-5
  0
LINE
  8
0
 10
7.45966
 20
-5
 11
10.3952
 21
0.084549
  0
LINE
  8
0
 10
10.3952
 20
0.084549
 11
8.86235
 21
0.969543
  0
LINE
  8
0
 10
8.86235
 20
0.969543
 11
9.45235
 21
1.99146
  0
LINE
  8
0
 10
9.45235
 20
1.99146
 11
17.6276
 21
-2.72853
  0
LINE
  8
0
 10
17.6276
 20
-2.72853
 11
17.0376
 21
-3.75044
  0
LINE
  8
0
 10
-20.0954
 20
-1.517
 11
-20.1905
 21
-1.50801
  0
LINE
  8
0
 10
-20.1905
 20
-1.50801
 11
-20.2848
 21
-1.49307
  0
LINE
  8
0
 10
-20.2848
 20
-1.49307
 11
-20.378
 21
-1.47224
  0
LINE
  8
0
 10
-20.378
 20
-1.47224
 11
-20.4697
 21
-1.4456
  0
LINE
  8
0
 10
-20.4697
 20
-1.4456
 11
-20.5595
 21
-1.41325
  0
LINE
  8
0
 10
-20.5595
 20
-1.41325
 11
-20.6472
 21
-1.37534
  0
LINE
  8
0
 10
-20.6472
 20
-1.37534
 11
-20.7323
 21
-1.33199
  0
LINE
  8
0
 10
-20.7323
 20
-1.33199
 11
-20.8145
 21
-1.28337
  0
LINE
  8
0
 10
-20.8145
 20
-1.28337
 11
-20.8934
 21
-1.22971
  0
LINE
  8
0
 10
-20.8934
 20
-1.22971
 11
-20.9689
 21
-1.17117
  0
LINE
  8
0
 10
-20.9689
 20
-1.17117
 11
-21.0405
 21
-1.10803
  0
LINE
  8
0
 10
-21.0405
 20
-1.10803
 11
-21.108
 21
-1.0405
  0
LINE
  8
0
 10
-21.108
 20
-1.0405
 11
-21.1712
 21
-0.968872
  0
LINE
  8
0
 10
-21.1712
 20
-0.968872
 11
-21.2297
 21
-0.893433
  0
LINE
  8
0
 10
-21.2297
 20
-0.893433
 11
-21.2834
 21
-0.814453
  0
LINE
  8
0
 10
-21.2834
 20
-0.814453
 11
-21.332
 21
-0.732254
  0
LINE
  8
0
 10
-21.332
 20
-0.732254
 11
-21.3753
 21
-0.647171
  0
LINE
  8
0
 10
-21.3753
 20
-0.647171
 11
-21.4133
 21
-0.55954
  0
LINE
  8
0
 10
-21.4133
 20
-0.55954
 11
-21.4456
 21
-0.469696
  0
LINE
  8
0
 10
-21.4456
 20
-0.469696
 11
-21.4722
 21
-0.378006
  0
LINE
  8
0
 10
-21.4722
 20
-0.378006
 11
-21.4931
 21
-0.284805
  0
LINE
  8
0
 10
-21.4931
 20
-0.284805
 11
-21.508
 21
-0.190506
  0
LINE
  8
0
 10
-21.508
 20
-0.190506
 11
-21.517
 21
-0.0954285
  0
LINE
  8
0
 10
-21.517
 20
-0.0954285
 11
-21.52
 21
0
  0
LINE
  8
0
 10
-21.52
 20
0
 11
-21.517
 21
0.0954285
  0
LINE
  8
0
 10
-21.517
 20
0.0954285
 11
-21.508
 21
0.190506
  0
LINE
  8
0
 10
-21.508
 20
0.190506
 11
-21.4931
 21
0.284805
  0
LINE
  8
0
 10
-21.4931
 20
0.284805
 11
-21.4722
 21
0.378006
  0
LINE
  8
0
 10
-21.4722
 20
0.378006
 11
-21.4456
 21
0.469696
  0
LINE
  8
0
 10
-21.4456
 20
0.469696
 11
-21.4133
 21
0.55954
  0
LINE
  8
0
 10
-21.4133
 20
0.55954
 11
-21.3753
 21
0.647171
  0
LINE
  8
0
 10
-21.3753
 20
0.647171
 11
-21.332
 21
0.732254
  0
LINE
  8
0
 10
-21.332
 20
0.732254
 11
-21.2834
 21
0.814453
  0
LINE
  8
0
 10
-21.2834
 20
0.814453
 11
-21.2297
 21
0.893433
  0
LINE
  8
0
 10
-21.2297
 20
0.893433
 11
-21.1712
 21
0.968872
  0
LINE
  8
0
 10
-21.1712
 20
0.968872
 11
-21.108
 21
1.0405
  0
LINE
  8
0
 10
-21.108
 20
1.0405
 11
-21.0405
 21
1.10803
  0
LINE
  8
0
 10
-21.0405
 20
1.10803
 11
-20.9689
 21
1.17117
  0
LINE
  8
0
 10
-20.9689
 20
1.17117
 11
-20.8934
 21
1.22971
  0
LINE
  8
0
 10
-20.8934
 20
1.22971
 11
-20.8145
 21
1.28337
  0
LINE
  8
0
 10
-20.8145
 20
1.28337
 11
-20.7323
 21
1.33199
  0
LINE
  8
0
 10
-20.7323
 20
1.33199
 11
-20.6472
 21
1.37534
  0
LINE
  8
0
 10
-20.6472
 20
1.37534
 11
-20.5595
 21
1.41325
  0
LINE
  8
0
 10
-20.5595
 20
1.41325
 11
-20.4697
 21
1.4456
  0
LINE
  8
0
 10
-20.4697
 20
1.4456
 11
-20.378
 21
1.47224
  0
LINE
  8
0
 10
-20.378
 20
1.47224
 11
-20.2848
 21
1.49307
  0
LINE
  8
0
 10
-20.2848
 20
1.49307
 11
-20.1905
 21
1.50801
  0
LINE
  8
0
 10
-20.1905
 20
1.50801
 11
-20.0954
 21
1.517
  0
LINE
  8
0
 10
-20.0954
 20
1.517
 11
-20
 21
1.51999
  0
LINE
  8
0
 10
-20
 20
1.51999
 11
-19.9046
 21
1.517
  0
LINE
  8
0
 10
-19.9046
 20
1.517
 11
-19.8095
 21
1.50801
  0
LINE
  8
0
 10
-19.8095
 20
1.50801
 11
-19.7152
 21
1.49307
  0
LINE
  8
0
 10
-19.7152
 20
1.49307
 11
-19.622
 21
1.47224
  0
LINE
  8
0
 10
-19.622
 20
1.47224
 11
-19.5303
 21
1.4456
  0
LINE
  8
0
 10
-19.5303
 20
1.4456
 11
-19.4404
 21
1.41325
  0
LINE
  8
0
 10
-19.4404
 20
1.41325
 11
-19.3528
 21
1.37534
  0
LINE
  8
0
 10
-19.3528
 20
1.37534
 11
-19.2677
 21
1.33199
  0
LINE
  8
0
 10
-19.2677
 20
1.33199
 11
-19.1855
 21
1.28337
  0
LINE
  8
0
 10
-19.1855
 20
1.28337
 11
-19.1066
 21
1.22971
  0
LINE
  8
0
 10
-19.1066
 20
1.22971
 11
-19.0311
 21
1.17117
  0
LINE
  8
0
 10
-19.0311
 20
1.17117
 11
-18.9595
 21
1.10803
  0
LINE
  8
0
 10
-18.9595
 20
1.10803
 11
-18.892
 21
1.0405
  0
LINE
  8
0
 10
-18.892
 20
1.0405
 11
-18.8288
 21
0.968872
  0
LINE
  8
0
 10
-18.8288
 20
0.968872
 11
-18.7703
 21
0.893433
  0
LINE
  8
0
 10
-18.7703
 20
0.893433
 11
-18.7166
 21
0.814453
  0
LINE
  8
0
 10
-18.7166
 20
0.814453
 11
-18.668
 21
0.732254
  0
LINE
  8
0
 10
-18.668
 20
0.732254
 11
-18.6246
 21
0.647171
  0
LINE
  8
0
 10
-18.6246
 20
0.647171
 11
-18.5867
 21
0.55954
  0
LINE
  8
0
 10
-18.5867
 20
0.55954
 11
-18.5544
 21
0.469696
  0
LINE
  8
0
 10
-18.5544
 20
0.469696
 11
-18.5277
 21
0.378006
  0
LINE
  8
0
 10
-18.5277
 20
0.378006
 11
-18.5069
 21
0.284805
  0
LINE
  8
0
 10
-18.5069
 20
0.284805
 11
-18.492
 21
0.190506
  0
LINE
  8
0
 10
-18.492
 20
0.190506
 11
-18.483
 21
0.0954285
  0
LINE
  8
0
 10
-18.483
 20
0.0954285
 11
-18.48
 21
0
  0
LINE
  8
0
 10
-18.48
 20
0
 11
-18.483
 21
-0.0954285
  0
LINE
  8
0
 10
-18.483
 20
-0.0954285
 11
-18.492
 21
-0.190506
  0
LINE
  8
0
 10
-18.492
 20
-0.190506
 11
-18.5069
 21
-0.284805
  0
LINE
  8
0
 10
-18.5069
 20
-0.284805
 11
-18.5277
 21
-0.378006
  0
LINE
  8
0
 10
-18.5277
 20
-0.378006
 11
-18.5544
 21
-0.469696
  0
LINE
  8
0
 10
-18.5544
 20
-0.469696
 11
-18.5867
 21
-0.55954
  0
LINE
  8
0
 10
-18.5867
 20
-0.55954
 11
-18.6246
 21
-0.647171
  0
LINE
  8
0
 10
-18.6246
 20
-0.647171
 11
-18.668
 21
-0.732254
  0
LINE
  8
0
 10
-18.668
 20
-0.732254
 11
-18.7166
 21
-0.814453
  0
LINE
  8
0
 10
-18.7166
 20
-0.814453
 11
-18.7703
 21
-0.893433
  0
LINE
  8
0
 10
-18.7703
 20
-0.893433
 11
-18.8288
 21
-0.968872
  0
LINE
  8
0
 10
-18.8288
 20
-0.968872
 11
-18.892
 21
-1.0405
  0
LINE
  8
0
 10
-18.892
 20
-1.0405
 11
-18.9595
 21
-1.10803
  0
LINE
  8
0
 10
-18.9595
 20
-1.10803
 11
-19.0311
 21
-1.17117
  0
LINE
  8
0
 10
-19.0311
 20
-1.17117
 11
-19.1066
 21
-1.22971
  0
LINE
  8
0
 10
-19.1066
 20
-1.22971
 11
-19.1855
 21
-1.28337
  0
LINE
  8
0
 10
-19.1855
 20
-1.28337
 11
-19.2677
 21
-1.33199
  0
LINE
  8
0
 10
-19.2677
 20
-1.33199
 11
-19.3528
 21
-1.37534
  0
LINE
  8
0
 10
-19.3528
 20
-1.37534
 11
-19.4404
 21
-1.41325
  0
LINE
  8
0
 10
-19.4404
 20
-1.41325
 11
-19.5303
 21
-1.4456
  0
LINE
  8
0
 10
-19.5303
 20
-1.4456
 11
-19.622
 21
-1.47224
  0
LINE
  8
0
 10
-19.622
 20
-1.47224
 11
-19.7152
 21
-1.49307
  0
LINE
  8
0
 10
-19.7152
 20
-1.49307
 11
-19.8095
 21
-1.50801
  0
LINE
  8
0
 10
-19.8095
 20
-1.50801
 11
-19.9046
 21
-1.517
  0
LINE
  8
0
 10
-19.9046
 20
-1.517
 11
-20
 21
-1.51999
  0
LINE
  8
0
 10
-20
 20
-1.51999
 11
-20.0954
 21
-1.517
  0
LINE
  8
0
 10
19.9046
 20
-1.517
 11
19.8095
 21
-1.50801
  0
LINE
  8
0
 10
19.8095
 20
-1.50801
 11
19.7152
 21
-1.49307
  0
LINE
  8
0
 10
19.7152
 20
-1.49307
 11
19.622
 21
-1.47224
  0
LINE
  8
0
 10
19.622
 20
-1.47224
 11
19.5303
 21
-1.4456
  0
LINE
  8
0
 10
19.5303
 20
-1.4456
 11
19.4404
 21
-1.41325
  0
LINE
  8
0
 10
19.4404
 20
-1.41325
 11
19.3528
 21
-1.37534
  0
LINE
  8
0
 10
19.3528
 20
-1.37534
 11
19.2677
 21
-1.33199
  0
LINE
  8
0
 10
19.2677
 20
-1.33199
 11
19.1855
 21
-1.28337
  0
LINE
  8
0
 10
19.1855
 20
-1.28337
 11
19.1066
 21
-1.22971
  0
LINE
  8
0
 10
19.1066
 20
-1.22971
 11
19.0311
 21
-1.17117
  0
LINE
  8
0
 10
19.0311
 20
-1.17117
 11
18.9595
 21
-1.10803
  0
LINE
  8
0
 10
18.9595
 20
-1.10803
 11
18.892
 21
-1.0405
  0
LINE
  8
0
 10
18.892
 20
-1.0405
 11
18.8288
 21
-0.968872
  0
LINE
  8
0
 10
18.8288
 20
-0.968872
 11
18.7703
 21
-0.893433
  0
LINE
  8
0
 10
18.7703
 20
-0.893433
 11
18.7166
 21
-0.814453
  0
LINE
  8
0
 10
18.7166
 20
-0.814453
 11
18.668
 21
-0.732254
  0
LINE
  8
0
 10
18.668
 20
-0.732254
 11
18.6246
 21
-0.647171
  0
LINE
  8
0
 10
18.6246
 20
-0.647171
 11
18.5867
 21
-0.55954
  0
LINE
  8
0
 10
18.5867
 20
-0.55954
 11
18.5544
 21
-0.469696
  0
LINE
  8
0
 10
18.5544
 20
-0.469696
 11
18.5277
 21
-0.378006
  0
LINE
  8
0
 10
18.5277
 20
-0.378006
 11
18.5069
 21
-0.284805
  0
LINE
  8
0
 10
18.5069
 20
-0.284805
 11
18.492
 21
-0.190506
  0
LINE
  8
0
 10
18.492
 20
-0.190506
 11
18.483
 21
-0.0954285
  0
LINE
  8
0
 10
18.483
 20
-0.0954285
 11
18.48
 21
0
  0
LINE
  8
0
 10
18.48
 20
0
 11
18.483
 21
0.0954285
  0
LINE
  8
0
 10
18.483
 20
0.0954285
 11
18.492
 21
0.190506
  0
LINE
  8
0
 10
18.492
 20
0.190506
 11
18.5069
 21
0.284805
  0
LINE
  8
0
 10
18.5069
 20
0.284805
 11
18.5277
 21
0.378006
  0
LINE
  8
0
 10
18.5277
 20
0.378006
 11
18.5544
 21
0.469696
  0
LINE
  8
0
 10
18.5544
 20
0.469696
 11
18.5867
 21
0.55954
  0
LINE
  8
0
 10
18.5867
 20
0.55954
 11
18.6246
 21
0.647171
  0
LINE
  8
0
 10
18.6246
 20
0.647171
 11
18.668
 21
0.732254
  0
LINE
  8
0
 10
18.668
 20
0.732254
 11
18.7166
 21
0.814453
  0
LINE
  8
0
 10
18.7166
 20
0.814453
 11
18.7703
 21
0.893433
  0
LINE
  8
0
 10
18.7703
 20
0.893433
 11
18.8288
 21
0.968872
  0
LINE
  8
0
 10
18.8288
 20
0.968872
 11
18.892
 21
1.0405
  0
LINE
  8
0
 10
18.892
 20
1.0405
 11
18.9595
 21
1.10803
  0
LINE
  8
0
 10
18.9595
 20
1.10803
 11
19.0311
 21
1.17117
  0
LINE
  8
0
 10
19.0311
 20
1.17117
 11
19.1066
 21
1.22971
  0
LINE
  8
0
 10
19.1066
 20
1.22971
 11
19.1855
 21
1.28337
  0
LINE
  8
0
 10
19.1855
 20
1.28337
 11
19.2677
 21
1.33199
  0
LINE
  8
0
 10
19.2677
 20
1.33199
 11
19.3528
 21
1.37534
  0
LINE
  8
0
 10
19.3528
 20
1.37534
 11
19.4404
 21
1.41325
  0
LINE
  8
0
 10
19.4404
 20
1.41325
 11
19.5303
 21
1.4456
  0
LINE
  8
0
 10
19.5303
 20
1.4456
 11
19.622
 21
1.47224
  0
LINE
  8
0
 10
19.622
 20
1.47224
 11
19.7152
 21
1.49307
  0
LINE
  8
0
 10
19.7152
 20
1.49307
 11
19.8095
 21
1.50801
  0
LINE
  8
0
 10
19.8095
 20
1.50801
 11
19.9046
 21
1.517
  0
LINE
  8
0
 10
19.9046
 20
1.517
 11
20
 21
1.51999
  0
LINE
  8
0
 10
20
 20
1.51999
 11
20.0954
 21
1.517
  0
LINE
  8
0
 10
20.0954
 20
1.517
 11
20.1905
 21
1.50801
  0
LINE
  8
0
 10
20.1905
 20
1.50801
 11
20.2848
 21
1.49307
  0
LINE
  8
0
 10
20.2848
 20
1.49307
 11
20.378
 21
1.47224
  0
LINE
  8
0
 10
20.378
 20
1.47224
 11
20.4697
 21
1.4456
  0
LINE
  8
0
 10
20.4697
 20
1.4456
 11
20.5595
 21
1.41325
  0
LINE
  8
0
 10
20.5595
 20
1.41325
 11
20.6472
 21
1.37534
  0
LINE
  8
0
 10
20.6472
 20
1.37534
 11
20.7323
 21
1.33199
  0
LINE
  8
0
 10
20.7323
 20
1.33199
 11
20.8145
 21
1.28337
  0
LINE
  8
0
 10
20.8145
 20
1.28337
 11
20.8934
 21
1.22971
  0
LINE
  8
0
 10
20.8934
 20
1.22971
 11
20.9689
 21
1.17117
  0
LINE
  8
0
 10
20.9689
 20
1.17117
 11
21.0405
 21
1.10803
  0
LINE
  8
0
 10
21.0405
 20
1.10803
 11
21.108
 21
1.0405
  0
LINE
  8
0
 10
21.108
 20
1.0405
 11
21.1712
 21
0.968872
  0
LINE
  8
0
 10
21.1712
 20
0.968872
 11
21.2297
 21
0.893433
  0
LINE
  8
0
 10
21.2297
 20
0.893433
 11
21.2834
 21
0.814453
  0
LINE
  8
0
 10
21.2834
 20
0.814453
 11
21.332
 21
0.732254
  0
LINE
  8
0
 10
21.332
 20
0.732254
 11
21.3753
 21
0.647171
  0
LINE
  8
0
 10
21.3753
 20
0.647171
 11
21.4133
 21
0.55954
  0
LINE
  8
0
 10
21.4133
 20
0.55954
 11
21.4456
 21
0.469696
  0
LINE
  8
0
 10
21.4456
 20
0.469696
 11
21.4722
 21
0.378006
  0
LINE
  8
0
 10
21.4722
 20
0.378006
 11
21.4931
 21
0.284805
  0
LINE
  8
0
 10
21.4931
 20
0.284805
 11
21.508
 21
0.190506
  0
LINE
  8
0
 10
21.508
 20
0.190506
 11
21.517
 21
0.0954285
  0
LINE
  8
0
 10
21.517
 20
0.0954285
 11
21.52
 21
0
  0
LINE
  8
0
 10
21.52
 20
0
 11
21.517
 21
-0.0954285
  0
LINE
  8
0
 10
21.517
 20
-0.0954285
 11
21.508
 21
-0.190506
  0
LINE
  8
0
 10
21.508
 20
-0.190506
 11
21.4931
 21
-0.284805
  0
LINE
  8
0
 10
21.4931
 20
-0.284805
 11
21.4722
 21
-0.378006
  0
LINE
  8
0
 10
21.4722
 20
-0.378006
 11
21.4456
 21
-0.469696
  0
LINE
  8
0
 10
21.4456
 20
-0.469696
 11
21.4133
 21
-0.55954
  0
LINE
  8
0
 10
21.4133
 20
-0.55954
 11
21.3753
 21
-0.647171
  0
LINE
  8
0
 10
21.3753
 20
-0.647171
 11
21.332
 21
-0.732254
  0
LINE
  8
0
 10
21.332
 20
-0.732254
 11
21.2834
 21
-0.814453
  0
LINE
  8
0
 10
21.2834
 20
-0.814453
 11
21.2297
 21
-0.893433
  0
LINE
  8
0
 10
21.2297
 20
-0.893433
 11
21.1712
 21
-0.968872
  0
LINE
  8
0
 10
21.1712
 20
-0.968872
 11
21.108
 21
-1.0405
  0
LINE
  8
0
 10
21.108
 20
-1.0405
 11
21.0405
 21
-1.10803
  0
LINE
  8
0
 10
21.0405
 20
-1.10803
 11
20.9689
 21
-1.17117
  0
LINE
  8
0
 10
20.9689
 20
-1.17117
 11
20.8934
 21
-1.22971
  0
LINE
  8
0
 10
20.8934
 20
-1.22971
 11
20.8145
 21
-1.28337
  0
LINE
  8
0
 10
20.8145
 20
-1.28337
 11
20.7323
 21
-1.33199
  0
LINE
  8
0
 10
20.7323
 20
-1.33199
 11
20.6472
 21
-1.37534
  0
LINE
  8
0
 10
20.6472
 20
-1.37534
 11
20.5595
 21
-1.41325
  0
LINE
  8
0
 10
20.5595
 20
-1.41325
 11
20.4697
 21
-1.4456
  0
LINE
  8
0
 10
20.4697
 20
-1.4456
 11
20.378
 21
-1.47224
  0
LINE
  8
0
 10
20.378
 20
-1.47224
 11
20.2848
 21
-1.49307
  0
LINE
  8
0
 10
20.2848
 20
-1.49307
 11
20.1905
 21
-1.50801
  0
LINE
  8
0
 10
20.1905
 20
-1.50801
 11
20.0954
 21
-1.517
  0
LINE
  8
0
 10
20.0954
 20
-1.517
 11
20
 21
-1.51999
  0
LINE
  8
0
 10
20
 20
-1.51999
 11
19.9046
 21
-1.517
  0
ENDSEC
  0
SECTION
  2
OBJECTS
  0
DICTIONARY
  0
ENDSEC
  0
EOF
