  0
SECTION
  2
BLOCKS
  0
ENDSEC
  0
SECTION
  2
ENTITIES
  0
LINE
  8
0
 10
-15.6447
 20
-2.77304
 11
-17.2166
 21
-3.68054
  0
LINE
  8
0
 10
-17.2166
 20
-3.68054
 11
-17.8216
 21
-2.63264
  0
LINE
  8
0
 10
-17.8216
 20
-2.63264
 11
-9.43843
 21
2.20734
  0
LINE
  8
0
 10
-9.43843
 20
2.20734
 11
-8.83344
 21
1.15944
  0
LINE
  8
0
 10
-8.83344
 20
1.15944
 11
-10.4053
 21
0.251953
  0
LINE
  8
0
 10
-10.4053
 20
0.251953
 11
-7.38026
 21
-4.98749
  0
LINE
  8
0
 10
-7.38026
 20
-4.98749
 11
-7.40192
 21
-5
  0
LINE
  8
0
 10
-7.40192
 20
-5
 11
-3.02499
 21
-5
  0
LINE
  8
0
 10
-3.02499
 20
-5
 11
-3.02499
 21
-0.949997
  0
LINE
  8
0
 10
-3.02499
 20
-0.949997
 11
-4.84
 21
-0.949997
  0
LINE
  8
0
 10
-4.84
 20
-0.949997
 11
-4.84
 21
0.259995
  0
LINE
  8
0
 10
-4.84
 20
0.259995
 11
4.84
 21
0.259995
  0
LINE
  8
0
 10
4.84
 20
0.259995
 11
4.84
 21
-0.949997
  0
LINE
  8
0
 10
4.84
 20
-0.949997
 11
3.02499
 21
-0.949997
  0
LINE
  8
0
 10
3.02499
 20
-0.949997
 11
3.02499
 21
-5
  0
LINE
  8
0
 10
3.02499
 20
-5
 11
7.40192
 21
-5
  0
LINE
  8
0
 10
7.40192
 20
-5
 11
7.38026
 21
-4.98749
  0
LINE
  8
0
 10
7.38026
 20
-4.98749
 11
10.4053
 21
0.251953
  0
LINE
  8
0
 10
10.4053
 20
0.251953
 11
8.83344
 21
1.15944
  0
LINE
  8
0
 10
8.83344
 20
1.15944
 11
9.43843
 21
2.20734
  0
LINE
  8
0
 10
9.43843
 20
2.20734
 11
17.8216
 21
-2.63264
  0
LINE
  8
0
 10
17.8216
 20
-2.63264
 11
17.2166
 21
-3.68054
  0
LINE
  8
0
 10
17.2166
 20
-3.68054
 11
15.6447
 21
-2.77304
  0
LINE
  8
0
 10
15.6447
 20
-2.77304
 11
14.359
 21
-5
  0
LINE
  8
0
 10
14.359
 20
-5
 11
22.5
 21
-5
  0
LINE
  8
0
 10
22.5
 20
-5
 11
22.5
 21
5
  0
LINE
  8
0
 10
22.5
 20
5
 11
-22.5
 21
5
  0
LINE
  8
0
 10
-22.5
 20
5
 11
-22.5
 21
-5
  0
LINE
  8
0
 10
-22.5
 20
-5
 11
-14.359
 21
-5
  0
LINE
  8
0
 10
-14.359
 20
-5
 11
-15.6447
 21
-2.77304
  0
LINE
  8
0
 10
-19.0954
 20
-0.516998
 11
-19.1905
 21
-0.508011
  0
LINE
  8
0
 10
-19.1905
 20
-0.508011
 11
-19.2848
 21
-0.493073
  0
LINE
  8
0
 10
-19.2848
 20
-0.493073
 11
-19.378
 21
-0.472244
  0
LINE
  8
0
 10
-19.378
 20
-0.472244
 11
-19.4697
 21
-0.445602
  0
LINE
  8
0
 10
-19.4697
 20
-0.445602
 11
-19.5595
 21
-0.413254
  0
LINE
  8
0
 10
-19.5595
 20
-0.413254
 11
-19.6472
 21
-0.375336
  0
LINE
  8
0
 10
-19.6472
 20
-0.375336
 11
-19.7323
 21
-0.331985
  0
LINE
  8
0
 10
-19.7323
 20
-0.331985
 11
-19.8145
 21
-0.283371
  0
LINE
  8
0
 10
-19.8145
 20
-0.283371
 11
-19.8934
 21
-0.229706
  0
LINE
  8
0
 10
-19.8934
 20
-0.229706
 11
-19.9689
 21
-0.171173
  0
LINE
  8
0
 10
-19.9689
 20
-0.171173
 11
-20.0405
 21
-0.108032
  0
LINE
  8
0
 10
-20.0405
 20
-0.108032
 11
-20.108
 21
-0.0404968
  0
LINE
  8
0
 10
-20.108
 20
-0.0404968
 11
-20.1712
 21
0.0311127
  0
LINE
  8
0
 10
-20.1712
 20
0.0311127
 11
-20.2297
 21
0.106552
  0
LINE
  8
0
 10
-20.2297
 20
0.106552
 11
-20.2834
 21
0.185532
  0
LINE
  8
0
 10
-20.2834
 20
0.185532
 11
-20.332
 21
0.267731
  0
LINE
  8
0
 10
-20.332
 20
0.267731
 11
-20.3753
 21
0.352814
  0
LINE
  8
0
 10
-20.3753
 20
0.352814
 11
-20.4133
 21
0.440445
  0
LINE
  8
0
 10
-20.4133
 20
0.440445
 11
-20.4456
 21
0.530289
  0
LINE
  8
0
 10
-20.4456
 20
0.530289
 11
-20.4722
 21
0.621979
  0
LINE
  8
0
 10
-20.4722
 20
0.621979
 11
-20.4931
 21
0.715179
  0
LINE
  8
0
 10
-20.4931
 20
0.715179
 11
-20.508
 21
0.809479
  0
LINE
  8
0
 10
-20.508
 20
0.809479
 11
-20.517
 21
0.904556
  0
LINE
  8
0
 10
-20.517
 20
0.904556
 11
-20.52
 21
1
  0
LINE
  8
0
 10
-20.52
 20
1
 11
-20.517
 21
1.09543
  0
LINE
  8
0
 10
-20.517
 20
1.09543
 11
-20.508
 21
1.19051
  0
LINE
  8
0
 10
-20.508
 20
1.19051
 11
-20.4931
 21
1.28481
  0
LINE
  8
0
 10
-20.4931
 20
1.28481
 11
-20.4722
 21
1.37801
  0
LINE
  8
0
 10
-20.4722
 20
1.37801
 11
-20.4456
 21
1.4697
  0
LINE
  8
0
 10
-20.4456
 20
1.4697
 11
-20.4133
 21
1.55954
  0
LINE
  8
0
 10
-20.4133
 20
1.55954
 11
-20.3753
 21
1.64717
  0
LINE
  8
0
 10
-20.3753
 20
1.64717
 11
-20.332
 21
1.73225
  0
LINE
  8
0
 10
-20.332
 20
1.73225
 11
-20.2834
 21
1.81445
  0
LINE
  8
0
 10
-20.2834
 20
1.81445
 11
-20.2297
 21
1.89343
  0
LINE
  8
0
 10
-20.2297
 20
1.89343
 11
-20.1712
 21
1.96887
  0
LINE
  8
0
 10
-20.1712
 20
1.96887
 11
-20.108
 21
2.0405
  0
LINE
  8
0
 10
-20.108
 20
2.0405
 11
-20.0405
 21
2.10803
  0
LINE
  8
0
 10
-20.0405
 20
2.10803
 11
-19.9689
 21
2.17117
  0
LINE
  8
0
 10
-19.9689
 20
2.17117
 11
-19.8934
 21
2.22971
  0
LINE
  8
0
 10
-19.8934
 20
2.22971
 11
-19.8145
 21
2.28337
  0
LINE
  8
0
 10
-19.8145
 20
2.28337
 11
-19.7323
 21
2.33199
  0
LINE
  8
0
 10
-19.7323
 20
2.33199
 11
-19.6472
 21
2.37534
  0
LINE
  8
0
 10
-19.6472
 20
2.37534
 11
-19.5595
 21
2.41325
  0
LINE
  8
0
 10
-19.5595
 20
2.41325
 11
-19.4697
 21
2.4456
  0
LINE
  8
0
 10
-19.4697
 20
2.4456
 11
-19.378
 21
2.47224
  0
LINE
  8
0
 10
-19.378
 20
2.47224
 11
-19.2848
 21
2.49307
  0
LINE
  8
0
 10
-19.2848
 20
2.49307
 11
-19.1905
 21
2.50801
  0
LINE
  8
0
 10
-19.1905
 20
2.50801
 11
-19.0954
 21
2.517
  0
LINE
  8
0
 10
-19.0954
 20
2.517
 11
-19
 21
2.51999
  0
LINE
  8
0
 10
-19
 20
2.51999
 11
-18.9046
 21
2.517
  0
LINE
  8
0
 10
-18.9046
 20
2.517
 11
-18.8095
 21
2.50801
  0
LINE
  8
0
 10
-18.8095
 20
2.50801
 11
-18.7152
 21
2.49307
  0
LINE
  8
0
 10
-18.7152
 20
2.49307
 11
-18.622
 21
2.47224
  0
LINE
  8
0
 10
-18.622
 20
2.47224
 11
-18.5303
 21
2.4456
  0
LINE
  8
0
 10
-18.5303
 20
2.4456
 11
-18.4404
 21
2.41325
  0
LINE
  8
0
 10
-18.4404
 20
2.41325
 11
-18.3528
 21
2.37534
  0
LINE
  8
0
 10
-18.3528
 20
2.37534
 11
-18.2677
 21
2.33199
  0
LINE
  8
0
 10
-18.2677
 20
2.33199
 11
-18.1855
 21
2.28337
  0
LINE
  8
0
 10
-18.1855
 20
2.28337
 11
-18.1066
 21
2.22971
  0
LINE
  8
0
 10
-18.1066
 20
2.22971
 11
-18.0311
 21
2.17117
  0
LINE
  8
0
 10
-18.0311
 20
2.17117
 11
-17.9595
 21
2.10803
  0
LINE
  8
0
 10
-17.9595
 20
2.10803
 11
-17.892
 21
2.0405
  0
LINE
  8
0
 10
-17.892
 20
2.0405
 11
-17.8288
 21
1.96887
  0
LINE
  8
0
 10
-17.8288
 20
1.96887
 11
-17.7703
 21
1.89343
  0
LINE
  8
0
 10
-17.7703
 20
1.89343
 11
-17.7166
 21
1.81445
  0
LINE
  8
0
 10
-17.7166
 20
1.81445
 11
-17.668
 21
1.73225
  0
LINE
  8
0
 10
-17.668
 20
1.73225
 11
-17.6246
 21
1.64717
  0
LINE
  8
0
 10
-17.6246
 20
1.64717
 11
-17.5867
 21
1.55954
  0
LINE
  8
0
 10
-17.5867
 20
1.55954
 11
-17.5544
 21
1.4697
  0
LINE
  8
0
 10
-17.5544
 20
1.4697
 11
-17.5277
 21
1.37801
  0
LINE
  8
0
 10
-17.5277
 20
1.37801
 11
-17.5069
 21
1.28481
  0
LINE
  8
0
 10
-17.5069
 20
1.28481
 11
-17.492
 21
1.19051
  0
LINE
  8
0
 10
-17.492
 20
1.19051
 11
-17.483
 21
1.09543
  0
LINE
  8
0
 10
-17.483
 20
1.09543
 11
-17.48
 21
1
  0
LINE
  8
0
 10
-17.48
 20
1
 11
-17.483
 21
0.904556
  0
LINE
  8
0
 10
-17.483
 20
0.904556
 11
-17.492
 21
0.809479
  0
LINE
  8
0
 10
-17.492
 20
0.809479
 11
-17.5069
 21
0.715179
  0
LINE
  8
0
 10
-17.5069
 20
0.715179
 11
-17.5277
 21
0.621979
  0
LINE
  8
0
 10
-17.5277
 20
0.621979
 11
-17.5544
 21
0.530289
  0
LINE
  8
0
 10
-17.5544
 20
0.530289
 11
-17.5867
 21
0.440445
  0
LINE
  8
0
 10
-17.5867
 20
0.440445
 11
-17.6246
 21
0.352814
  0
LINE
  8
0
 10
-17.6246
 20
0.352814
 11
-17.668
 21
0.267731
  0
LINE
  8
0
 10
-17.668
 20
0.267731
 11
-17.7166
 21
0.185532
  0
LINE
  8
0
 10
-17.7166
 20
0.185532
 11
-17.7703
 21
0.106552
  0
LINE
  8
0
 10
-17.7703
 20
0.106552
 11
-17.8288
 21
0.0311127
  0
LINE
  8
0
 10
-17.8288
 20
0.0311127
 11
-17.892
 21
-0.0404968
  0
LINE
  8
0
 10
-17.892
 20
-0.0404968
 11
-17.9595
 21
-0.108032
  0
LINE
  8
0
 10
-17.9595
 20
-0.108032
 11
-18.0311
 21
-0.171173
  0
LINE
  8
0
 10
-18.0311
 20
-0.171173
 11
-18.1066
 21
-0.229706
  0
LINE
  8
0
 10
-18.1066
 20
-0.229706
 11
-18.1855
 21
-0.283371
  0
LINE
  8
0
 10
-18.1855
 20
-0.283371
 11
-18.2677
 21
-0.331985
  0
LINE
  8
0
 10
-18.2677
 20
-0.331985
 11
-18.3528
 21
-0.375336
  0
LINE
  8
0
 10
-18.3528
 20
-0.375336
 11
-18.4404
 21
-0.413254
  0
LINE
  8
0
 10
-18.4404
 20
-0.413254
 11
-18.5303
 21
-0.445602
  0
LINE
  8
0
 10
-18.5303
 20
-0.445602
 11
-18.622
 21
-0.472244
  0
LINE
  8
0
 10
-18.622
 20
-0.472244
 11
-18.7152
 21
-0.493073
  0
LINE
  8
0
 10
-18.7152
 20
-0.493073
 11
-18.8095
 21
-0.508011
  0
LINE
  8
0
 10
-18.8095
 20
-0.508011
 11
-18.9046
 21
-0.516998
  0
LINE
  8
0
 10
-18.9046
 20
-0.516998
 11
-19
 21
-0.519989
  0
LINE
  8
0
 10
-19
 20
-0.519989
 11
-19.0954
 21
-0.516998
  0
LINE
  8
0
 10
18.9046
 20
-0.516998
 11
18.8095
 21
-0.508011
  0
LINE
  8
0
 10
18.8095
 20
-0.508011
 11
18.7152
 21
-0.493073
  0
LINE
  8
0
 10
18.7152
 20
-0.493073
 11
18.622
 21
-0.472244
  0
LINE
  8
0
 10
18.622
 20
-0.472244
 11
18.5303
 21
-0.445602
  0
LINE
  8
0
 10
18.5303
 20
-0.445602
 11
18.4404
 21
-0.413254
  0
LINE
  8
0
 10
18.4404
 20
-0.413254
 11
18.3528
 21
-0.375336
  0
LINE
  8
0
 10
18.3528
 20
-0.375336
 11
18.2677
 21
-0.331985
  0
LINE
  8
0
 10
18.2677
 20
-0.331985
 11
18.1855
 21
-0.283371
  0
LINE
  8
0
 10
18.1855
 20
-0.283371
 11
18.1066
 21
-0.229706
  0
LINE
  8
0
 10
18.1066
 20
-0.229706
 11
18.0311
 21
-0.171173
  0
LINE
  8
0
 10
18.0311
 20
-0.171173
 11
17.9595
 21
-0.108032
  0
LINE
  8
0
 10
17.9595
 20
-0.108032
 11
17.892
 21
-0.0404968
  0
LINE
  8
0
 10
17.892
 20
-0.0404968
 11
17.8288
 21
0.0311127
  0
LINE
  8
0
 10
17.8288
 20
0.0311127
 11
17.7703
 21
0.106552
  0
LINE
  8
0
 10
17.7703
 20
0.106552
 11
17.7166
 21
0.185532
  0
LINE
  8
0
 10
17.7166
 20
0.185532
 11
17.668
 21
0.267731
  0
LINE
  8
0
 10
17.668
 20
0.267731
 11
17.6246
 21
0.352814
  0
LINE
  8
0
 10
17.6246
 20
0.352814
 11
17.5867
 21
0.440445
  0
LINE
  8
0
 10
17.5867
 20
0.440445
 11
17.5544
 21
0.530289
  0
LINE
  8
0
 10
17.5544
 20
0.530289
 11
17.5277
 21
0.621979
  0
LINE
  8
0
 10
17.5277
 20
0.621979
 11
17.5069
 21
0.715179
  0
LINE
  8
0
 10
17.5069
 20
0.715179
 11
17.492
 21
0.809479
  0
LINE
  8
0
 10
17.492
 20
0.809479
 11
17.483
 21
0.904556
  0
LINE
  8
0
 10
17.483
 20
0.904556
 11
17.48
 21
1
  0
LINE
  8
0
 10
17.48
 20
1
 11
17.483
 21
1.09543
  0
LINE
  8
0
 10
17.483
 20
1.09543
 11
17.492
 21
1.19051
  0
LINE
  8
0
 10
17.492
 20
1.19051
 11
17.5069
 21
1.28481
  0
LINE
  8
0
 10
17.5069
 20
1.28481
 11
17.5277
 21
1.37801
  0
LINE
  8
0
 10
17.5277
 20
1.37801
 11
17.5544
 21
1.4697
  0
LINE
  8
0
 10
17.5544
 20
1.4697
 11
17.5867
 21
1.55954
  0
LINE
  8
0
 10
17.5867
 20
1.55954
 11
17.6246
 21
1.64717
  0
LINE
  8
0
 10
17.6246
 20
1.64717
 11
17.668
 21
1.73225
  0
LINE
  8
0
 10
17.668
 20
1.73225
 11
17.7166
 21
1.81445
  0
LINE
  8
0
 10
17.7166
 20
1.81445
 11
17.7703
 21
1.89343
  0
LINE
  8
0
 10
17.7703
 20
1.89343
 11
17.8288
 21
1.96887
  0
LINE
  8
0
 10
17.8288
 20
1.96887
 11
17.892
 21
2.0405
  0
LINE
  8
0
 10
17.892
 20
2.0405
 11
17.9595
 21
2.10803
  0
LINE
  8
0
 10
17.9595
 20
2.10803
 11
18.0311
 21
2.17117
  0
LINE
  8
0
 10
18.0311
 20
2.17117
 11
18.1066
 21
2.22971
  0
LINE
  8
0
 10
18.1066
 20
2.22971
 11
18.1855
 21
2.28337
  0
LINE
  8
0
 10
18.1855
 20
2.28337
 11
18.2677
 21
2.33199
  0
LINE
  8
0
 10
18.2677
 20
2.33199
 11
18.3528
 21
2.37534
  0
LINE
  8
0
 10
18.3528
 20
2.37534
 11
18.4404
 21
2.41325
  0
LINE
  8
0
 10
18.4404
 20
2.41325
 11
18.5303
 21
2.4456
  0
LINE
  8
0
 10
18.5303
 20
2.4456
 11
18.622
 21
2.47224
  0
LINE
  8
0
 10
18.622
 20
2.47224
 11
18.7152
 21
2.49307
  0
LINE
  8
0
 10
18.7152
 20
2.49307
 11
18.8095
 21
2.50801
  0
LINE
  8
0
 10
18.8095
 20
2.50801
 11
18.9046
 21
2.517
  0
LINE
  8
0
 10
18.9046
 20
2.517
 11
19
 21
2.51999
  0
LINE
  8
0
 10
19
 20
2.51999
 11
19.0954
 21
2.517
  0
LINE
  8
0
 10
19.0954
 20
2.517
 11
19.1905
 21
2.50801
  0
LINE
  8
0
 10
19.1905
 20
2.50801
 11
19.2848
 21
2.49307
  0
LINE
  8
0
 10
19.2848
 20
2.49307
 11
19.378
 21
2.47224
  0
LINE
  8
0
 10
19.378
 20
2.47224
 11
19.4697
 21
2.4456
  0
LINE
  8
0
 10
19.4697
 20
2.4456
 11
19.5595
 21
2.41325
  0
LINE
  8
0
 10
19.5595
 20
2.41325
 11
19.6472
 21
2.37534
  0
LINE
  8
0
 10
19.6472
 20
2.37534
 11
19.7323
 21
2.33199
  0
LINE
  8
0
 10
19.7323
 20
2.33199
 11
19.8145
 21
2.28337
  0
LINE
  8
0
 10
19.8145
 20
2.28337
 11
19.8934
 21
2.22971
  0
LINE
  8
0
 10
19.8934
 20
2.22971
 11
19.9689
 21
2.17117
  0
LINE
  8
0
 10
19.9689
 20
2.17117
 11
20.0405
 21
2.10803
  0
LINE
  8
0
 10
20.0405
 20
2.10803
 11
20.108
 21
2.0405
  0
LINE
  8
0
 10
20.108
 20
2.0405
 11
20.1712
 21
1.96887
  0
LINE
  8
0
 10
20.1712
 20
1.96887
 11
20.2297
 21
1.89343
  0
LINE
  8
0
 10
20.2297
 20
1.89343
 11
20.2834
 21
1.81445
  0
LINE
  8
0
 10
20.2834
 20
1.81445
 11
20.332
 21
1.73225
  0
LINE
  8
0
 10
20.332
 20
1.73225
 11
20.3753
 21
1.64717
  0
LINE
  8
0
 10
20.3753
 20
1.64717
 11
20.4133
 21
1.55954
  0
LINE
  8
0
 10
20.4133
 20
1.55954
 11
20.4456
 21
1.4697
  0
LINE
  8
0
 10
20.4456
 20
1.4697
 11
20.4722
 21
1.37801
  0
LINE
  8
0
 10
20.4722
 20
1.37801
 11
20.4931
 21
1.28481
  0
LINE
  8
0
 10
20.4931
 20
1.28481
 11
20.508
 21
1.19051
  0
LINE
  8
0
 10
20.508
 20
1.19051
 11
20.517
 21
1.09543
  0
LINE
  8
0
 10
20.517
 20
1.09543
 11
20.52
 21
1
  0
LINE
  8
0
 10
20.52
 20
1
 11
20.517
 21
0.904556
  0
LINE
  8
0
 10
20.517
 20
0.904556
 11
20.508
 21
0.809479
  0
LINE
  8
0
 10
20.508
 20
0.809479
 11
20.4931
 21
0.715179
  0
LINE
  8
0
 10
20.4931
 20
0.715179
 11
20.4722
 21
0.621979
  0
LINE
  8
0
 10
20.4722
 20
0.621979
 11
20.4456
 21
0.530289
  0
LINE
  8
0
 10
20.4456
 20
0.530289
 11
20.4133
 21
0.440445
  0
LINE
  8
0
 10
20.4133
 20
0.440445
 11
20.3753
 21
0.352814
  0
LINE
  8
0
 10
20.3753
 20
0.352814
 11
20.332
 21
0.267731
  0
LINE
  8
0
 10
20.332
 20
0.267731
 11
20.2834
 21
0.185532
  0
LINE
  8
0
 10
20.2834
 20
0.185532
 11
20.2297
 21
0.106552
  0
LINE
  8
0
 10
20.2297
 20
0.106552
 11
20.1712
 21
0.0311127
  0
LINE
  8
0
 10
20.1712
 20
0.0311127
 11
20.108
 21
-0.0404968
  0
LINE
  8
0
 10
20.108
 20
-0.0404968
 11
20.0405
 21
-0.108032
  0
LINE
  8
0
 10
20.0405
 20
-0.108032
 11
19.9689
 21
-0.171173
  0
LINE
  8
0
 10
19.9689
 20
-0.171173
 11
19.8934
 21
-0.229706
  0
LINE
  8
0
 10
19.8934
 20
-0.229706
 11
19.8145
 21
-0.283371
  0
LINE
  8
0
 10
19.8145
 20
-0.283371
 11
19.7323
 21
-0.331985
  0
LINE
  8
0
 10
19.7323
 20
-0.331985
 11
19.6472
 21
-0.375336
  0
LINE
  8
0
 10
19.6472
 20
-0.375336
 11
19.5595
 21
-0.413254
  0
LINE
  8
0
 10
19.5595
 20
-0.413254
 11
19.4697
 21
-0.445602
  0
LINE
  8
0
 10
19.4697
 20
-0.445602
 11
19.378
 21
-0.472244
  0
LINE
  8
0
 10
19.378
 20
-0.472244
 11
19.2848
 21
-0.493073
  0
LINE
  8
0
 10
19.2848
 20
-0.493073
 11
19.1905
 21
-0.508011
  0
LINE
  8
0
 10
19.1905
 20
-0.508011
 11
19.0954
 21
-0.516998
  0
LINE
  8
0
 10
19.0954
 20
-0.516998
 11
19
 21
-0.519989
  0
LINE
  8
0
 10
19
 20
-0.519989
 11
18.9046
 21
-0.516998
  0
ENDSEC
  0
SECTION
  2
OBJECTS
  0
DICTIONARY
  0
ENDSEC
  0
EOF
