G04 #@! TF.FileFunction,Legend,Bot*
%FSLAX46Y46*%
G04 Gerber Fmt 4.6, Leading zero omitted, Abs format (unit mm)*
G04 Created by KiCad (PCBNEW 4.0.2-stable) date 20.06.2016 22.34.35*
%MOMM*%
G01*
G04 APERTURE LIST*
%ADD10C,0.100000*%
%ADD11C,0.300000*%
%ADD12C,0.150000*%
G04 APERTURE END LIST*
D10*
D11*
X124652999Y-124930857D02*
X125152999Y-124930857D01*
X125152999Y-125716571D02*
X125152999Y-124216571D01*
X124438713Y-124216571D01*
X123867285Y-125716571D02*
X123867285Y-124716571D01*
X123867285Y-125002286D02*
X123795857Y-124859429D01*
X123724428Y-124788000D01*
X123581571Y-124716571D01*
X123438714Y-124716571D01*
X122724428Y-125716571D02*
X122867286Y-125645143D01*
X122938714Y-125573714D01*
X123010143Y-125430857D01*
X123010143Y-125002286D01*
X122938714Y-124859429D01*
X122867286Y-124788000D01*
X122724428Y-124716571D01*
X122510143Y-124716571D01*
X122367286Y-124788000D01*
X122295857Y-124859429D01*
X122224428Y-125002286D01*
X122224428Y-125430857D01*
X122295857Y-125573714D01*
X122367286Y-125645143D01*
X122510143Y-125716571D01*
X122724428Y-125716571D01*
X120938714Y-125716571D02*
X120938714Y-124216571D01*
X120938714Y-125645143D02*
X121081571Y-125716571D01*
X121367285Y-125716571D01*
X121510143Y-125645143D01*
X121581571Y-125573714D01*
X121653000Y-125430857D01*
X121653000Y-125002286D01*
X121581571Y-124859429D01*
X121510143Y-124788000D01*
X121367285Y-124716571D01*
X121081571Y-124716571D01*
X120938714Y-124788000D01*
X119653000Y-125645143D02*
X119795857Y-125716571D01*
X120081571Y-125716571D01*
X120224428Y-125645143D01*
X120295857Y-125502286D01*
X120295857Y-124930857D01*
X120224428Y-124788000D01*
X120081571Y-124716571D01*
X119795857Y-124716571D01*
X119653000Y-124788000D01*
X119581571Y-124930857D01*
X119581571Y-125073714D01*
X120295857Y-125216571D01*
X117081571Y-125716571D02*
X117795857Y-125716571D01*
X117795857Y-124216571D01*
X116581571Y-125716571D02*
X116581571Y-124716571D01*
X116581571Y-124216571D02*
X116653000Y-124288000D01*
X116581571Y-124359429D01*
X116510143Y-124288000D01*
X116581571Y-124216571D01*
X116581571Y-124359429D01*
X115652999Y-125716571D02*
X115795857Y-125645143D01*
X115867285Y-125502286D01*
X115867285Y-124216571D01*
X114867285Y-125716571D02*
X115010143Y-125645143D01*
X115081571Y-125502286D01*
X115081571Y-124216571D01*
X113724429Y-125645143D02*
X113867286Y-125716571D01*
X114153000Y-125716571D01*
X114295857Y-125645143D01*
X114367286Y-125502286D01*
X114367286Y-124930857D01*
X114295857Y-124788000D01*
X114153000Y-124716571D01*
X113867286Y-124716571D01*
X113724429Y-124788000D01*
X113653000Y-124930857D01*
X113653000Y-125073714D01*
X114367286Y-125216571D01*
X113010143Y-125716571D02*
X113010143Y-124716571D01*
X113010143Y-125002286D02*
X112938715Y-124859429D01*
X112867286Y-124788000D01*
X112724429Y-124716571D01*
X112581572Y-124716571D01*
X111438715Y-124716571D02*
X111438715Y-125716571D01*
X112081572Y-124716571D02*
X112081572Y-125502286D01*
X112010144Y-125645143D01*
X111867286Y-125716571D01*
X111653001Y-125716571D01*
X111510144Y-125645143D01*
X111438715Y-125573714D01*
X110081572Y-125716571D02*
X110081572Y-124216571D01*
X110081572Y-125645143D02*
X110224429Y-125716571D01*
X110510143Y-125716571D01*
X110653001Y-125645143D01*
X110724429Y-125573714D01*
X110795858Y-125430857D01*
X110795858Y-125002286D01*
X110724429Y-124859429D01*
X110653001Y-124788000D01*
X110510143Y-124716571D01*
X110224429Y-124716571D01*
X110081572Y-124788000D01*
X109295858Y-125645143D02*
X109295858Y-125716571D01*
X109367286Y-125859429D01*
X109438715Y-125930857D01*
X107510143Y-125716571D02*
X107510143Y-124216571D01*
X106653000Y-125716571D01*
X106653000Y-124216571D01*
X105724428Y-125716571D02*
X105867286Y-125645143D01*
X105938714Y-125573714D01*
X106010143Y-125430857D01*
X106010143Y-125002286D01*
X105938714Y-124859429D01*
X105867286Y-124788000D01*
X105724428Y-124716571D01*
X105510143Y-124716571D01*
X105367286Y-124788000D01*
X105295857Y-124859429D01*
X105224428Y-125002286D01*
X105224428Y-125430857D01*
X105295857Y-125573714D01*
X105367286Y-125645143D01*
X105510143Y-125716571D01*
X105724428Y-125716571D01*
X104581571Y-125716571D02*
X104581571Y-124716571D01*
X104581571Y-125002286D02*
X104510143Y-124859429D01*
X104438714Y-124788000D01*
X104295857Y-124716571D01*
X104153000Y-124716571D01*
X103153000Y-124930857D02*
X102938714Y-125002286D01*
X102867286Y-125073714D01*
X102795857Y-125216571D01*
X102795857Y-125430857D01*
X102867286Y-125573714D01*
X102938714Y-125645143D01*
X103081572Y-125716571D01*
X103653000Y-125716571D01*
X103653000Y-124216571D01*
X103153000Y-124216571D01*
X103010143Y-124288000D01*
X102938714Y-124359429D01*
X102867286Y-124502286D01*
X102867286Y-124645143D01*
X102938714Y-124788000D01*
X103010143Y-124859429D01*
X103153000Y-124930857D01*
X103653000Y-124930857D01*
X101938714Y-125716571D02*
X102081572Y-125645143D01*
X102153000Y-125573714D01*
X102224429Y-125430857D01*
X102224429Y-125002286D01*
X102153000Y-124859429D01*
X102081572Y-124788000D01*
X101938714Y-124716571D01*
X101724429Y-124716571D01*
X101581572Y-124788000D01*
X101510143Y-124859429D01*
X101438714Y-125002286D01*
X101438714Y-125430857D01*
X101510143Y-125573714D01*
X101581572Y-125645143D01*
X101724429Y-125716571D01*
X101938714Y-125716571D01*
X101010143Y-124716571D02*
X100438714Y-124716571D01*
X100795857Y-124216571D02*
X100795857Y-125502286D01*
X100724429Y-125645143D01*
X100581571Y-125716571D01*
X100438714Y-125716571D01*
X120188713Y-126759429D02*
X120117284Y-126688000D01*
X119974427Y-126616571D01*
X119617284Y-126616571D01*
X119474427Y-126688000D01*
X119402998Y-126759429D01*
X119331570Y-126902286D01*
X119331570Y-127045143D01*
X119402998Y-127259429D01*
X120260141Y-128116571D01*
X119331570Y-128116571D01*
X118402999Y-126616571D02*
X118260142Y-126616571D01*
X118117285Y-126688000D01*
X118045856Y-126759429D01*
X117974427Y-126902286D01*
X117902999Y-127188000D01*
X117902999Y-127545143D01*
X117974427Y-127830857D01*
X118045856Y-127973714D01*
X118117285Y-128045143D01*
X118260142Y-128116571D01*
X118402999Y-128116571D01*
X118545856Y-128045143D01*
X118617285Y-127973714D01*
X118688713Y-127830857D01*
X118760142Y-127545143D01*
X118760142Y-127188000D01*
X118688713Y-126902286D01*
X118617285Y-126759429D01*
X118545856Y-126688000D01*
X118402999Y-126616571D01*
X117260142Y-127973714D02*
X117188714Y-128045143D01*
X117260142Y-128116571D01*
X117331571Y-128045143D01*
X117260142Y-127973714D01*
X117260142Y-128116571D01*
X116545856Y-127116571D02*
X116545856Y-128402286D01*
X116617285Y-128545143D01*
X116760142Y-128616571D01*
X116831570Y-128616571D01*
X116545856Y-126616571D02*
X116617285Y-126688000D01*
X116545856Y-126759429D01*
X116474428Y-126688000D01*
X116545856Y-126616571D01*
X116545856Y-126759429D01*
X115188713Y-127116571D02*
X115188713Y-128116571D01*
X115831570Y-127116571D02*
X115831570Y-127902286D01*
X115760142Y-128045143D01*
X115617284Y-128116571D01*
X115402999Y-128116571D01*
X115260142Y-128045143D01*
X115188713Y-127973714D01*
X114474427Y-127116571D02*
X114474427Y-128116571D01*
X114474427Y-127259429D02*
X114402999Y-127188000D01*
X114260141Y-127116571D01*
X114045856Y-127116571D01*
X113902999Y-127188000D01*
X113831570Y-127330857D01*
X113831570Y-128116571D01*
X112545856Y-128045143D02*
X112688713Y-128116571D01*
X112974427Y-128116571D01*
X113117284Y-128045143D01*
X113188713Y-127902286D01*
X113188713Y-127330857D01*
X113117284Y-127188000D01*
X112974427Y-127116571D01*
X112688713Y-127116571D01*
X112545856Y-127188000D01*
X112474427Y-127330857D01*
X112474427Y-127473714D01*
X113188713Y-127616571D01*
X110760142Y-126759429D02*
X110688713Y-126688000D01*
X110545856Y-126616571D01*
X110188713Y-126616571D01*
X110045856Y-126688000D01*
X109974427Y-126759429D01*
X109902999Y-126902286D01*
X109902999Y-127045143D01*
X109974427Y-127259429D01*
X110831570Y-128116571D01*
X109902999Y-128116571D01*
X108974428Y-126616571D02*
X108831571Y-126616571D01*
X108688714Y-126688000D01*
X108617285Y-126759429D01*
X108545856Y-126902286D01*
X108474428Y-127188000D01*
X108474428Y-127545143D01*
X108545856Y-127830857D01*
X108617285Y-127973714D01*
X108688714Y-128045143D01*
X108831571Y-128116571D01*
X108974428Y-128116571D01*
X109117285Y-128045143D01*
X109188714Y-127973714D01*
X109260142Y-127830857D01*
X109331571Y-127545143D01*
X109331571Y-127188000D01*
X109260142Y-126902286D01*
X109188714Y-126759429D01*
X109117285Y-126688000D01*
X108974428Y-126616571D01*
X107045857Y-128116571D02*
X107903000Y-128116571D01*
X107474428Y-128116571D02*
X107474428Y-126616571D01*
X107617285Y-126830857D01*
X107760143Y-126973714D01*
X107903000Y-127045143D01*
X105760143Y-126616571D02*
X106045857Y-126616571D01*
X106188714Y-126688000D01*
X106260143Y-126759429D01*
X106403000Y-126973714D01*
X106474429Y-127259429D01*
X106474429Y-127830857D01*
X106403000Y-127973714D01*
X106331572Y-128045143D01*
X106188714Y-128116571D01*
X105903000Y-128116571D01*
X105760143Y-128045143D01*
X105688714Y-127973714D01*
X105617286Y-127830857D01*
X105617286Y-127473714D01*
X105688714Y-127330857D01*
X105760143Y-127259429D01*
X105903000Y-127188000D01*
X106188714Y-127188000D01*
X106331572Y-127259429D01*
X106403000Y-127330857D01*
X106474429Y-127473714D01*
D12*
X173718220Y-104416860D02*
X173357540Y-105887520D01*
X173357540Y-105887520D02*
X173078140Y-104825800D01*
X173078140Y-104825800D02*
X172768260Y-105897680D01*
X172768260Y-105897680D02*
X172427900Y-104447340D01*
X175138080Y-105107740D02*
X174348140Y-105097580D01*
X174348140Y-105097580D02*
X174337980Y-105107740D01*
X174337980Y-105107740D02*
X174337980Y-105097580D01*
X174297340Y-104386380D02*
X174297340Y-105928160D01*
X175186340Y-104376220D02*
X175186340Y-105945940D01*
X175186340Y-105945940D02*
X175176180Y-105935780D01*
X175737520Y-104477820D02*
X176088040Y-104396540D01*
X176088040Y-104396540D02*
X176408080Y-104386380D01*
X176408080Y-104386380D02*
X176646840Y-104587040D01*
X176646840Y-104587040D02*
X176677320Y-104856280D01*
X176677320Y-104856280D02*
X176436020Y-105097580D01*
X176436020Y-105097580D02*
X176047400Y-105227120D01*
X176047400Y-105227120D02*
X175867060Y-105387140D01*
X175867060Y-105387140D02*
X175826420Y-105686860D01*
X175826420Y-105686860D02*
X176057560Y-105907840D01*
X176057560Y-105907840D02*
X176377600Y-105935780D01*
X176377600Y-105935780D02*
X176728120Y-105826560D01*
X177766980Y-104376220D02*
X178015900Y-104396540D01*
X178015900Y-104396540D02*
X178257200Y-104637840D01*
X178257200Y-104637840D02*
X178346100Y-105128060D01*
X178346100Y-105128060D02*
X178318160Y-105476040D01*
X178318160Y-105476040D02*
X178117500Y-105796080D01*
X178117500Y-105796080D02*
X177866040Y-105918000D01*
X177866040Y-105918000D02*
X177556160Y-105846880D01*
X177556160Y-105846880D02*
X177337720Y-105666540D01*
X177337720Y-105666540D02*
X177266600Y-105206800D01*
X177266600Y-105206800D02*
X177317400Y-104797860D01*
X177317400Y-104797860D02*
X177426620Y-104515920D01*
X177426620Y-104515920D02*
X177787300Y-104386380D01*
X177167540Y-102656640D02*
X177426620Y-103217980D01*
X177426620Y-103217980D02*
X176888140Y-103736140D01*
X176888140Y-103736140D02*
X176367440Y-103466900D01*
X176367440Y-103466900D02*
X176088040Y-103626920D01*
X174647860Y-103606600D02*
X174317660Y-103416100D01*
X174317660Y-103416100D02*
X173878240Y-103746300D01*
X173878240Y-103746300D02*
X173405800Y-103256080D01*
X173405800Y-103256080D02*
X173687740Y-102776020D01*
X173687740Y-102776020D02*
X173497240Y-102306120D01*
X173497240Y-102306120D02*
X172887640Y-102118160D01*
X172887640Y-102118160D02*
X172887640Y-101437440D01*
X172887640Y-101437440D02*
X173446440Y-101297740D01*
X173446440Y-101297740D02*
X173647100Y-100726240D01*
X173647100Y-100726240D02*
X173377860Y-100256340D01*
X173377860Y-100256340D02*
X173847760Y-99745800D01*
X173847760Y-99745800D02*
X174365920Y-100007420D01*
X174365920Y-100007420D02*
X174835820Y-99806760D01*
X174835820Y-99806760D02*
X175006000Y-99265740D01*
X175006000Y-99265740D02*
X175696880Y-99247960D01*
X175696880Y-99247960D02*
X175907700Y-99796600D01*
X175907700Y-99796600D02*
X176326800Y-99966780D01*
X176326800Y-99966780D02*
X176877980Y-99697540D01*
X176877980Y-99697540D02*
X177396140Y-100225860D01*
X177396140Y-100225860D02*
X177147220Y-100766880D01*
X177147220Y-100766880D02*
X177317400Y-101246940D01*
X177317400Y-101246940D02*
X177866040Y-101346000D01*
X177866040Y-101346000D02*
X177876200Y-102047040D01*
X177876200Y-102047040D02*
X177317400Y-102247700D01*
X177317400Y-102247700D02*
X177177700Y-102646480D01*
X175036480Y-102626160D02*
X174736760Y-102476300D01*
X174736760Y-102476300D02*
X174536100Y-102278180D01*
X174536100Y-102278180D02*
X174386240Y-101876860D01*
X174386240Y-101876860D02*
X174386240Y-101478080D01*
X174386240Y-101478080D02*
X174536100Y-101127560D01*
X174536100Y-101127560D02*
X174988220Y-100777040D01*
X174988220Y-100777040D02*
X175437800Y-100726240D01*
X175437800Y-100726240D02*
X175836580Y-100827840D01*
X175836580Y-100827840D02*
X176237900Y-101175820D01*
X176237900Y-101175820D02*
X176387760Y-101627940D01*
X176387760Y-101627940D02*
X176336960Y-102125780D01*
X176336960Y-102125780D02*
X176088040Y-102428040D01*
X176088040Y-102428040D02*
X175737520Y-102626160D01*
X175737520Y-102626160D02*
X176088040Y-103626920D01*
X175036480Y-102626160D02*
X174637700Y-103626920D01*
X136945667Y-100663524D02*
X136945667Y-101139715D01*
X137231381Y-100568286D02*
X136231381Y-100901619D01*
X137231381Y-101234953D01*
X137231381Y-102092096D02*
X137231381Y-101520667D01*
X137231381Y-101806381D02*
X136231381Y-101806381D01*
X136374238Y-101711143D01*
X136469476Y-101615905D01*
X136517095Y-101520667D01*
X137231381Y-103044477D02*
X137231381Y-102473048D01*
X137231381Y-102758762D02*
X136231381Y-102758762D01*
X136374238Y-102663524D01*
X136469476Y-102568286D01*
X136517095Y-102473048D01*
X134405667Y-100663524D02*
X134405667Y-101139715D01*
X134691381Y-100568286D02*
X133691381Y-100901619D01*
X134691381Y-101234953D01*
X134691381Y-102092096D02*
X134691381Y-101520667D01*
X134691381Y-101806381D02*
X133691381Y-101806381D01*
X133834238Y-101711143D01*
X133929476Y-101615905D01*
X133977095Y-101520667D01*
X133691381Y-102711143D02*
X133691381Y-102806382D01*
X133739000Y-102901620D01*
X133786619Y-102949239D01*
X133881857Y-102996858D01*
X134072333Y-103044477D01*
X134310429Y-103044477D01*
X134500905Y-102996858D01*
X134596143Y-102949239D01*
X134643762Y-102901620D01*
X134691381Y-102806382D01*
X134691381Y-102711143D01*
X134643762Y-102615905D01*
X134596143Y-102568286D01*
X134500905Y-102520667D01*
X134310429Y-102473048D01*
X134072333Y-102473048D01*
X133881857Y-102520667D01*
X133786619Y-102568286D01*
X133739000Y-102615905D01*
X133691381Y-102711143D01*
X132810048Y-101258667D02*
X132333857Y-101258667D01*
X132905286Y-101544381D02*
X132571953Y-100544381D01*
X132238619Y-101544381D01*
X131333857Y-101544381D02*
X131667191Y-101068190D01*
X131905286Y-101544381D02*
X131905286Y-100544381D01*
X131524333Y-100544381D01*
X131429095Y-100592000D01*
X131381476Y-100639619D01*
X131333857Y-100734857D01*
X131333857Y-100877714D01*
X131381476Y-100972952D01*
X131429095Y-101020571D01*
X131524333Y-101068190D01*
X131905286Y-101068190D01*
X130905286Y-101020571D02*
X130571952Y-101020571D01*
X130429095Y-101544381D02*
X130905286Y-101544381D01*
X130905286Y-100544381D01*
X130429095Y-100544381D01*
X129667190Y-101020571D02*
X130000524Y-101020571D01*
X130000524Y-101544381D02*
X130000524Y-100544381D01*
X129524333Y-100544381D01*
X128452333Y-100544381D02*
X128119000Y-101544381D01*
X127785666Y-100544381D01*
X127452333Y-100544381D02*
X127452333Y-101353905D01*
X127404714Y-101449143D01*
X127357095Y-101496762D01*
X127261857Y-101544381D01*
X127071380Y-101544381D01*
X126976142Y-101496762D01*
X126928523Y-101449143D01*
X126880904Y-101353905D01*
X126880904Y-100544381D01*
X126452333Y-101496762D02*
X126309476Y-101544381D01*
X126071380Y-101544381D01*
X125976142Y-101496762D01*
X125928523Y-101449143D01*
X125880904Y-101353905D01*
X125880904Y-101258667D01*
X125928523Y-101163429D01*
X125976142Y-101115810D01*
X126071380Y-101068190D01*
X126261857Y-101020571D01*
X126357095Y-100972952D01*
X126404714Y-100925333D01*
X126452333Y-100830095D01*
X126452333Y-100734857D01*
X126404714Y-100639619D01*
X126357095Y-100592000D01*
X126261857Y-100544381D01*
X126023761Y-100544381D01*
X125880904Y-100592000D01*
X125118999Y-101020571D02*
X124976142Y-101068190D01*
X124928523Y-101115810D01*
X124880904Y-101211048D01*
X124880904Y-101353905D01*
X124928523Y-101449143D01*
X124976142Y-101496762D01*
X125071380Y-101544381D01*
X125452333Y-101544381D01*
X125452333Y-100544381D01*
X125118999Y-100544381D01*
X125023761Y-100592000D01*
X124976142Y-100639619D01*
X124928523Y-100734857D01*
X124928523Y-100830095D01*
X124976142Y-100925333D01*
X125023761Y-100972952D01*
X125118999Y-101020571D01*
X125452333Y-101020571D01*
X123531381Y-93265762D02*
X124531381Y-93599095D01*
X123531381Y-93932429D01*
X124531381Y-94265762D02*
X123531381Y-94265762D01*
X124531381Y-94741952D02*
X123531381Y-94741952D01*
X124531381Y-95313381D01*
X123531381Y-95313381D01*
X126785667Y-91837095D02*
X126785667Y-92313286D01*
X127071381Y-91741857D02*
X126071381Y-92075190D01*
X127071381Y-92408524D01*
X126119000Y-93265667D02*
X126071381Y-93170429D01*
X126071381Y-93027572D01*
X126119000Y-92884714D01*
X126214238Y-92789476D01*
X126309476Y-92741857D01*
X126499952Y-92694238D01*
X126642810Y-92694238D01*
X126833286Y-92741857D01*
X126928524Y-92789476D01*
X127023762Y-92884714D01*
X127071381Y-93027572D01*
X127071381Y-93122810D01*
X127023762Y-93265667D01*
X126976143Y-93313286D01*
X126642810Y-93313286D01*
X126642810Y-93122810D01*
X127071381Y-93741857D02*
X126071381Y-93741857D01*
X127071381Y-94313286D01*
X126071381Y-94313286D01*
X127071381Y-94789476D02*
X126071381Y-94789476D01*
X126071381Y-95027571D01*
X126119000Y-95170429D01*
X126214238Y-95265667D01*
X126309476Y-95313286D01*
X126499952Y-95360905D01*
X126642810Y-95360905D01*
X126833286Y-95313286D01*
X126928524Y-95265667D01*
X127023762Y-95170429D01*
X127071381Y-95027571D01*
X127071381Y-94789476D01*
X128611381Y-92868905D02*
X128611381Y-93487953D01*
X128992333Y-93154619D01*
X128992333Y-93297477D01*
X129039952Y-93392715D01*
X129087571Y-93440334D01*
X129182810Y-93487953D01*
X129420905Y-93487953D01*
X129516143Y-93440334D01*
X129563762Y-93392715D01*
X129611381Y-93297477D01*
X129611381Y-93011762D01*
X129563762Y-92916524D01*
X129516143Y-92868905D01*
X128611381Y-93773667D02*
X129611381Y-94107000D01*
X128611381Y-94440334D01*
X128611381Y-94678429D02*
X128611381Y-95297477D01*
X128992333Y-94964143D01*
X128992333Y-95107001D01*
X129039952Y-95202239D01*
X129087571Y-95249858D01*
X129182810Y-95297477D01*
X129420905Y-95297477D01*
X129516143Y-95249858D01*
X129563762Y-95202239D01*
X129611381Y-95107001D01*
X129611381Y-94821286D01*
X129563762Y-94726048D01*
X129516143Y-94678429D01*
X132460905Y-94543619D02*
X132413286Y-94496000D01*
X132318048Y-94448381D01*
X132079952Y-94448381D01*
X131984714Y-94496000D01*
X131937095Y-94543619D01*
X131889476Y-94638857D01*
X131889476Y-94734095D01*
X131937095Y-94876952D01*
X132508524Y-95448381D01*
X131889476Y-95448381D01*
X131556143Y-94448381D02*
X130937095Y-94448381D01*
X131270429Y-94829333D01*
X131127571Y-94829333D01*
X131032333Y-94876952D01*
X130984714Y-94924571D01*
X130937095Y-95019810D01*
X130937095Y-95257905D01*
X130984714Y-95353143D01*
X131032333Y-95400762D01*
X131127571Y-95448381D01*
X131413286Y-95448381D01*
X131508524Y-95400762D01*
X131556143Y-95353143D01*
X135000905Y-94416619D02*
X134953286Y-94369000D01*
X134858048Y-94321381D01*
X134619952Y-94321381D01*
X134524714Y-94369000D01*
X134477095Y-94416619D01*
X134429476Y-94511857D01*
X134429476Y-94607095D01*
X134477095Y-94749952D01*
X135048524Y-95321381D01*
X134429476Y-95321381D01*
X134048524Y-94416619D02*
X134000905Y-94369000D01*
X133905667Y-94321381D01*
X133667571Y-94321381D01*
X133572333Y-94369000D01*
X133524714Y-94416619D01*
X133477095Y-94511857D01*
X133477095Y-94607095D01*
X133524714Y-94749952D01*
X134096143Y-95321381D01*
X133477095Y-95321381D01*
X137540905Y-94416619D02*
X137493286Y-94369000D01*
X137398048Y-94321381D01*
X137159952Y-94321381D01*
X137064714Y-94369000D01*
X137017095Y-94416619D01*
X136969476Y-94511857D01*
X136969476Y-94607095D01*
X137017095Y-94749952D01*
X137588524Y-95321381D01*
X136969476Y-95321381D01*
X136017095Y-95321381D02*
X136588524Y-95321381D01*
X136302810Y-95321381D02*
X136302810Y-94321381D01*
X136398048Y-94464238D01*
X136493286Y-94559476D01*
X136588524Y-94607095D01*
X140080905Y-94416619D02*
X140033286Y-94369000D01*
X139938048Y-94321381D01*
X139699952Y-94321381D01*
X139604714Y-94369000D01*
X139557095Y-94416619D01*
X139509476Y-94511857D01*
X139509476Y-94607095D01*
X139557095Y-94749952D01*
X140128524Y-95321381D01*
X139509476Y-95321381D01*
X138890429Y-94321381D02*
X138795190Y-94321381D01*
X138699952Y-94369000D01*
X138652333Y-94416619D01*
X138604714Y-94511857D01*
X138557095Y-94702333D01*
X138557095Y-94940429D01*
X138604714Y-95130905D01*
X138652333Y-95226143D01*
X138699952Y-95273762D01*
X138795190Y-95321381D01*
X138890429Y-95321381D01*
X138985667Y-95273762D01*
X139033286Y-95226143D01*
X139080905Y-95130905D01*
X139128524Y-94940429D01*
X139128524Y-94702333D01*
X139080905Y-94511857D01*
X139033286Y-94416619D01*
X138985667Y-94369000D01*
X138890429Y-94321381D01*
X142049476Y-95321381D02*
X142620905Y-95321381D01*
X142335191Y-95321381D02*
X142335191Y-94321381D01*
X142430429Y-94464238D01*
X142525667Y-94559476D01*
X142620905Y-94607095D01*
X141573286Y-95321381D02*
X141382810Y-95321381D01*
X141287571Y-95273762D01*
X141239952Y-95226143D01*
X141144714Y-95083286D01*
X141097095Y-94892810D01*
X141097095Y-94511857D01*
X141144714Y-94416619D01*
X141192333Y-94369000D01*
X141287571Y-94321381D01*
X141478048Y-94321381D01*
X141573286Y-94369000D01*
X141620905Y-94416619D01*
X141668524Y-94511857D01*
X141668524Y-94749952D01*
X141620905Y-94845190D01*
X141573286Y-94892810D01*
X141478048Y-94940429D01*
X141287571Y-94940429D01*
X141192333Y-94892810D01*
X141144714Y-94845190D01*
X141097095Y-94749952D01*
X144589476Y-95321381D02*
X145160905Y-95321381D01*
X144875191Y-95321381D02*
X144875191Y-94321381D01*
X144970429Y-94464238D01*
X145065667Y-94559476D01*
X145160905Y-94607095D01*
X144018048Y-94749952D02*
X144113286Y-94702333D01*
X144160905Y-94654714D01*
X144208524Y-94559476D01*
X144208524Y-94511857D01*
X144160905Y-94416619D01*
X144113286Y-94369000D01*
X144018048Y-94321381D01*
X143827571Y-94321381D01*
X143732333Y-94369000D01*
X143684714Y-94416619D01*
X143637095Y-94511857D01*
X143637095Y-94559476D01*
X143684714Y-94654714D01*
X143732333Y-94702333D01*
X143827571Y-94749952D01*
X144018048Y-94749952D01*
X144113286Y-94797571D01*
X144160905Y-94845190D01*
X144208524Y-94940429D01*
X144208524Y-95130905D01*
X144160905Y-95226143D01*
X144113286Y-95273762D01*
X144018048Y-95321381D01*
X143827571Y-95321381D01*
X143732333Y-95273762D01*
X143684714Y-95226143D01*
X143637095Y-95130905D01*
X143637095Y-94940429D01*
X143684714Y-94845190D01*
X143732333Y-94797571D01*
X143827571Y-94749952D01*
X147129476Y-95321381D02*
X147700905Y-95321381D01*
X147415191Y-95321381D02*
X147415191Y-94321381D01*
X147510429Y-94464238D01*
X147605667Y-94559476D01*
X147700905Y-94607095D01*
X146796143Y-94321381D02*
X146129476Y-94321381D01*
X146558048Y-95321381D01*
X149669476Y-95321381D02*
X150240905Y-95321381D01*
X149955191Y-95321381D02*
X149955191Y-94321381D01*
X150050429Y-94464238D01*
X150145667Y-94559476D01*
X150240905Y-94607095D01*
X148812333Y-94321381D02*
X149002810Y-94321381D01*
X149098048Y-94369000D01*
X149145667Y-94416619D01*
X149240905Y-94559476D01*
X149288524Y-94749952D01*
X149288524Y-95130905D01*
X149240905Y-95226143D01*
X149193286Y-95273762D01*
X149098048Y-95321381D01*
X148907571Y-95321381D01*
X148812333Y-95273762D01*
X148764714Y-95226143D01*
X148717095Y-95130905D01*
X148717095Y-94892810D01*
X148764714Y-94797571D01*
X148812333Y-94749952D01*
X148907571Y-94702333D01*
X149098048Y-94702333D01*
X149193286Y-94749952D01*
X149240905Y-94797571D01*
X149288524Y-94892810D01*
X152209476Y-95321381D02*
X152780905Y-95321381D01*
X152495191Y-95321381D02*
X152495191Y-94321381D01*
X152590429Y-94464238D01*
X152685667Y-94559476D01*
X152780905Y-94607095D01*
X151304714Y-94321381D02*
X151780905Y-94321381D01*
X151828524Y-94797571D01*
X151780905Y-94749952D01*
X151685667Y-94702333D01*
X151447571Y-94702333D01*
X151352333Y-94749952D01*
X151304714Y-94797571D01*
X151257095Y-94892810D01*
X151257095Y-95130905D01*
X151304714Y-95226143D01*
X151352333Y-95273762D01*
X151447571Y-95321381D01*
X151685667Y-95321381D01*
X151780905Y-95273762D01*
X151828524Y-95226143D01*
X154749476Y-95321381D02*
X155320905Y-95321381D01*
X155035191Y-95321381D02*
X155035191Y-94321381D01*
X155130429Y-94464238D01*
X155225667Y-94559476D01*
X155320905Y-94607095D01*
X153892333Y-94654714D02*
X153892333Y-95321381D01*
X154130429Y-94273762D02*
X154368524Y-94988048D01*
X153749476Y-94988048D01*
X157416476Y-95194381D02*
X157987905Y-95194381D01*
X157702191Y-95194381D02*
X157702191Y-94194381D01*
X157797429Y-94337238D01*
X157892667Y-94432476D01*
X157987905Y-94480095D01*
X157083143Y-94194381D02*
X156464095Y-94194381D01*
X156797429Y-94575333D01*
X156654571Y-94575333D01*
X156559333Y-94622952D01*
X156511714Y-94670571D01*
X156464095Y-94765810D01*
X156464095Y-95003905D01*
X156511714Y-95099143D01*
X156559333Y-95146762D01*
X156654571Y-95194381D01*
X156940286Y-95194381D01*
X157035524Y-95146762D01*
X157083143Y-95099143D01*
X160829476Y-99353667D02*
X160353285Y-99353667D01*
X160924714Y-99639381D02*
X160591381Y-98639381D01*
X160258047Y-99639381D01*
X159400904Y-99639381D02*
X159972333Y-99639381D01*
X159686619Y-99639381D02*
X159686619Y-98639381D01*
X159781857Y-98782238D01*
X159877095Y-98877476D01*
X159972333Y-98925095D01*
X158543761Y-98972714D02*
X158543761Y-99639381D01*
X158781857Y-98591762D02*
X159019952Y-99306048D01*
X158400904Y-99306048D01*
X161369191Y-102306381D02*
X161369191Y-101306381D01*
X160988238Y-101306381D01*
X160893000Y-101354000D01*
X160845381Y-101401619D01*
X160797762Y-101496857D01*
X160797762Y-101639714D01*
X160845381Y-101734952D01*
X160893000Y-101782571D01*
X160988238Y-101830190D01*
X161369191Y-101830190D01*
X160369191Y-102306381D02*
X160369191Y-101639714D01*
X160369191Y-101830190D02*
X160321572Y-101734952D01*
X160273953Y-101687333D01*
X160178715Y-101639714D01*
X160083476Y-101639714D01*
X159607286Y-102306381D02*
X159702524Y-102258762D01*
X159750143Y-102211143D01*
X159797762Y-102115905D01*
X159797762Y-101830190D01*
X159750143Y-101734952D01*
X159702524Y-101687333D01*
X159607286Y-101639714D01*
X159464428Y-101639714D01*
X159369190Y-101687333D01*
X159321571Y-101734952D01*
X159273952Y-101830190D01*
X159273952Y-102115905D01*
X159321571Y-102211143D01*
X159369190Y-102258762D01*
X159464428Y-102306381D01*
X159607286Y-102306381D01*
X158416809Y-101639714D02*
X158416809Y-102449238D01*
X158464428Y-102544476D01*
X158512047Y-102592095D01*
X158607286Y-102639714D01*
X158750143Y-102639714D01*
X158845381Y-102592095D01*
X158416809Y-102258762D02*
X158512047Y-102306381D01*
X158702524Y-102306381D01*
X158797762Y-102258762D01*
X158845381Y-102211143D01*
X158893000Y-102115905D01*
X158893000Y-101830190D01*
X158845381Y-101734952D01*
X158797762Y-101687333D01*
X158702524Y-101639714D01*
X158512047Y-101639714D01*
X158416809Y-101687333D01*
X160781904Y-103767000D02*
X160877142Y-103719381D01*
X161019999Y-103719381D01*
X161162857Y-103767000D01*
X161258095Y-103862238D01*
X161305714Y-103957476D01*
X161353333Y-104147952D01*
X161353333Y-104290810D01*
X161305714Y-104481286D01*
X161258095Y-104576524D01*
X161162857Y-104671762D01*
X161019999Y-104719381D01*
X160924761Y-104719381D01*
X160781904Y-104671762D01*
X160734285Y-104624143D01*
X160734285Y-104290810D01*
X160924761Y-104290810D01*
X160305714Y-104719381D02*
X160305714Y-103719381D01*
X159734285Y-104719381D01*
X159734285Y-103719381D01*
X159258095Y-104719381D02*
X159258095Y-103719381D01*
X159020000Y-103719381D01*
X158877142Y-103767000D01*
X158781904Y-103862238D01*
X158734285Y-103957476D01*
X158686666Y-104147952D01*
X158686666Y-104290810D01*
X158734285Y-104481286D01*
X158781904Y-104576524D01*
X158877142Y-104671762D01*
X159020000Y-104719381D01*
X159258095Y-104719381D01*
X161369190Y-106259381D02*
X160750142Y-106259381D01*
X161083476Y-106640333D01*
X160940618Y-106640333D01*
X160845380Y-106687952D01*
X160797761Y-106735571D01*
X160750142Y-106830810D01*
X160750142Y-107068905D01*
X160797761Y-107164143D01*
X160845380Y-107211762D01*
X160940618Y-107259381D01*
X161226333Y-107259381D01*
X161321571Y-107211762D01*
X161369190Y-107164143D01*
X160321571Y-107164143D02*
X160273952Y-107211762D01*
X160321571Y-107259381D01*
X160369190Y-107211762D01*
X160321571Y-107164143D01*
X160321571Y-107259381D01*
X159940619Y-106259381D02*
X159321571Y-106259381D01*
X159654905Y-106640333D01*
X159512047Y-106640333D01*
X159416809Y-106687952D01*
X159369190Y-106735571D01*
X159321571Y-106830810D01*
X159321571Y-107068905D01*
X159369190Y-107164143D01*
X159416809Y-107211762D01*
X159512047Y-107259381D01*
X159797762Y-107259381D01*
X159893000Y-107211762D01*
X159940619Y-107164143D01*
X159035857Y-106259381D02*
X158702524Y-107259381D01*
X158369190Y-106259381D01*
X161591429Y-108799381D02*
X161258096Y-109799381D01*
X160924762Y-108799381D01*
X160258095Y-109275571D02*
X160115238Y-109323190D01*
X160067619Y-109370810D01*
X160020000Y-109466048D01*
X160020000Y-109608905D01*
X160067619Y-109704143D01*
X160115238Y-109751762D01*
X160210476Y-109799381D01*
X160591429Y-109799381D01*
X160591429Y-108799381D01*
X160258095Y-108799381D01*
X160162857Y-108847000D01*
X160115238Y-108894619D01*
X160067619Y-108989857D01*
X160067619Y-109085095D01*
X160115238Y-109180333D01*
X160162857Y-109227952D01*
X160258095Y-109275571D01*
X160591429Y-109275571D01*
X159162857Y-109799381D02*
X159162857Y-109275571D01*
X159210476Y-109180333D01*
X159305714Y-109132714D01*
X159496191Y-109132714D01*
X159591429Y-109180333D01*
X159162857Y-109751762D02*
X159258095Y-109799381D01*
X159496191Y-109799381D01*
X159591429Y-109751762D01*
X159639048Y-109656524D01*
X159639048Y-109561286D01*
X159591429Y-109466048D01*
X159496191Y-109418429D01*
X159258095Y-109418429D01*
X159162857Y-109370810D01*
X158829524Y-109132714D02*
X158448572Y-109132714D01*
X158686667Y-108799381D02*
X158686667Y-109656524D01*
X158639048Y-109751762D01*
X158543810Y-109799381D01*
X158448572Y-109799381D01*
X157289476Y-113990381D02*
X157860905Y-113990381D01*
X157575191Y-113990381D02*
X157575191Y-112990381D01*
X157670429Y-113133238D01*
X157765667Y-113228476D01*
X157860905Y-113276095D01*
X156908524Y-113085619D02*
X156860905Y-113038000D01*
X156765667Y-112990381D01*
X156527571Y-112990381D01*
X156432333Y-113038000D01*
X156384714Y-113085619D01*
X156337095Y-113180857D01*
X156337095Y-113276095D01*
X156384714Y-113418952D01*
X156956143Y-113990381D01*
X156337095Y-113990381D01*
X124840904Y-109609000D02*
X124936142Y-109561381D01*
X125078999Y-109561381D01*
X125221857Y-109609000D01*
X125317095Y-109704238D01*
X125364714Y-109799476D01*
X125412333Y-109989952D01*
X125412333Y-110132810D01*
X125364714Y-110323286D01*
X125317095Y-110418524D01*
X125221857Y-110513762D01*
X125078999Y-110561381D01*
X124983761Y-110561381D01*
X124840904Y-110513762D01*
X124793285Y-110466143D01*
X124793285Y-110132810D01*
X124983761Y-110132810D01*
X124364714Y-110561381D02*
X124364714Y-109561381D01*
X123793285Y-110561381D01*
X123793285Y-109561381D01*
X123317095Y-110561381D02*
X123317095Y-109561381D01*
X123079000Y-109561381D01*
X122936142Y-109609000D01*
X122840904Y-109704238D01*
X122793285Y-109799476D01*
X122745666Y-109989952D01*
X122745666Y-110132810D01*
X122793285Y-110323286D01*
X122840904Y-110418524D01*
X122936142Y-110513762D01*
X123079000Y-110561381D01*
X123317095Y-110561381D01*
X154749476Y-110561381D02*
X155320905Y-110561381D01*
X155035191Y-110561381D02*
X155035191Y-109561381D01*
X155130429Y-109704238D01*
X155225667Y-109799476D01*
X155320905Y-109847095D01*
X153797095Y-110561381D02*
X154368524Y-110561381D01*
X154082810Y-110561381D02*
X154082810Y-109561381D01*
X154178048Y-109704238D01*
X154273286Y-109799476D01*
X154368524Y-109847095D01*
X152209476Y-110561381D02*
X152780905Y-110561381D01*
X152495191Y-110561381D02*
X152495191Y-109561381D01*
X152590429Y-109704238D01*
X152685667Y-109799476D01*
X152780905Y-109847095D01*
X151590429Y-109561381D02*
X151495190Y-109561381D01*
X151399952Y-109609000D01*
X151352333Y-109656619D01*
X151304714Y-109751857D01*
X151257095Y-109942333D01*
X151257095Y-110180429D01*
X151304714Y-110370905D01*
X151352333Y-110466143D01*
X151399952Y-110513762D01*
X151495190Y-110561381D01*
X151590429Y-110561381D01*
X151685667Y-110513762D01*
X151733286Y-110466143D01*
X151780905Y-110370905D01*
X151828524Y-110180429D01*
X151828524Y-109942333D01*
X151780905Y-109751857D01*
X151733286Y-109656619D01*
X151685667Y-109609000D01*
X151590429Y-109561381D01*
X149669476Y-110561381D02*
X149479000Y-110561381D01*
X149383761Y-110513762D01*
X149336142Y-110466143D01*
X149240904Y-110323286D01*
X149193285Y-110132810D01*
X149193285Y-109751857D01*
X149240904Y-109656619D01*
X149288523Y-109609000D01*
X149383761Y-109561381D01*
X149574238Y-109561381D01*
X149669476Y-109609000D01*
X149717095Y-109656619D01*
X149764714Y-109751857D01*
X149764714Y-109989952D01*
X149717095Y-110085190D01*
X149669476Y-110132810D01*
X149574238Y-110180429D01*
X149383761Y-110180429D01*
X149288523Y-110132810D01*
X149240904Y-110085190D01*
X149193285Y-109989952D01*
X147034238Y-109989952D02*
X147129476Y-109942333D01*
X147177095Y-109894714D01*
X147224714Y-109799476D01*
X147224714Y-109751857D01*
X147177095Y-109656619D01*
X147129476Y-109609000D01*
X147034238Y-109561381D01*
X146843761Y-109561381D01*
X146748523Y-109609000D01*
X146700904Y-109656619D01*
X146653285Y-109751857D01*
X146653285Y-109799476D01*
X146700904Y-109894714D01*
X146748523Y-109942333D01*
X146843761Y-109989952D01*
X147034238Y-109989952D01*
X147129476Y-110037571D01*
X147177095Y-110085190D01*
X147224714Y-110180429D01*
X147224714Y-110370905D01*
X147177095Y-110466143D01*
X147129476Y-110513762D01*
X147034238Y-110561381D01*
X146843761Y-110561381D01*
X146748523Y-110513762D01*
X146700904Y-110466143D01*
X146653285Y-110370905D01*
X146653285Y-110180429D01*
X146700904Y-110085190D01*
X146748523Y-110037571D01*
X146843761Y-109989952D01*
X144732333Y-109561381D02*
X144065666Y-109561381D01*
X144494238Y-110561381D01*
X141668523Y-109561381D02*
X141859000Y-109561381D01*
X141954238Y-109609000D01*
X142001857Y-109656619D01*
X142097095Y-109799476D01*
X142144714Y-109989952D01*
X142144714Y-110370905D01*
X142097095Y-110466143D01*
X142049476Y-110513762D01*
X141954238Y-110561381D01*
X141763761Y-110561381D01*
X141668523Y-110513762D01*
X141620904Y-110466143D01*
X141573285Y-110370905D01*
X141573285Y-110132810D01*
X141620904Y-110037571D01*
X141668523Y-109989952D01*
X141763761Y-109942333D01*
X141954238Y-109942333D01*
X142049476Y-109989952D01*
X142097095Y-110037571D01*
X142144714Y-110132810D01*
X139080904Y-109561381D02*
X139557095Y-109561381D01*
X139604714Y-110037571D01*
X139557095Y-109989952D01*
X139461857Y-109942333D01*
X139223761Y-109942333D01*
X139128523Y-109989952D01*
X139080904Y-110037571D01*
X139033285Y-110132810D01*
X139033285Y-110370905D01*
X139080904Y-110466143D01*
X139128523Y-110513762D01*
X139223761Y-110561381D01*
X139461857Y-110561381D01*
X139557095Y-110513762D01*
X139604714Y-110466143D01*
X136715523Y-109894714D02*
X136715523Y-110561381D01*
X136953619Y-109513762D02*
X137191714Y-110228048D01*
X136572666Y-110228048D01*
X134572333Y-109561381D02*
X133953285Y-109561381D01*
X134286619Y-109942333D01*
X134143761Y-109942333D01*
X134048523Y-109989952D01*
X134000904Y-110037571D01*
X133953285Y-110132810D01*
X133953285Y-110370905D01*
X134000904Y-110466143D01*
X134048523Y-110513762D01*
X134143761Y-110561381D01*
X134429476Y-110561381D01*
X134524714Y-110513762D01*
X134572333Y-110466143D01*
X131984714Y-109656619D02*
X131937095Y-109609000D01*
X131841857Y-109561381D01*
X131603761Y-109561381D01*
X131508523Y-109609000D01*
X131460904Y-109656619D01*
X131413285Y-109751857D01*
X131413285Y-109847095D01*
X131460904Y-109989952D01*
X132032333Y-110561381D01*
X131413285Y-110561381D01*
X128873285Y-110561381D02*
X129444714Y-110561381D01*
X129159000Y-110561381D02*
X129159000Y-109561381D01*
X129254238Y-109704238D01*
X129349476Y-109799476D01*
X129444714Y-109847095D01*
X126666619Y-109561381D02*
X126571380Y-109561381D01*
X126476142Y-109609000D01*
X126428523Y-109656619D01*
X126380904Y-109751857D01*
X126333285Y-109942333D01*
X126333285Y-110180429D01*
X126380904Y-110370905D01*
X126428523Y-110466143D01*
X126476142Y-110513762D01*
X126571380Y-110561381D01*
X126666619Y-110561381D01*
X126761857Y-110513762D01*
X126809476Y-110466143D01*
X126857095Y-110370905D01*
X126904714Y-110180429D01*
X126904714Y-109942333D01*
X126857095Y-109751857D01*
X126809476Y-109656619D01*
X126761857Y-109609000D01*
X126666619Y-109561381D01*
M02*
