M48
;DRILL file {KiCad 4.0.2-stable} date 20.06.2016 22.34.45
;FORMAT={-:-/ absolute / metric / decimal}
FMAT,2
METRIC,TZ
T1C0.400
T2C0.800
T3C1.016
%
G90
G05
M71
T1
X98.298Y-122.555
X102.616Y-92.71
X102.87Y-83.947
X102.87Y-96.774
X102.87Y-110.871
X103.124Y-89.535
X103.505Y-101.727
X103.505Y-105.41
X103.632Y-75.311
X103.632Y-113.03
X104.013Y-79.248
X105.537Y-116.205
X107.569Y-127.635
X107.696Y-78.74
X108.204Y-75.438
X109.601Y-115.824
X110.998Y-75.819
X112.903Y-93.853
X113.157Y-84.074
X113.284Y-85.852
X113.411Y-92.456
X114.681Y-84.582
X115.57Y-93.081
X115.919Y-94.478
X115.951Y-113.157
X117.348Y-87.503
X117.348Y-94.687
X117.528Y-93.437
X119.163Y-94.2
X119.888Y-109.601
X120.396Y-94.107
X122.428Y-80.772
X122.809Y-76.073
X123.571Y-119.126
X126.238Y-117.602
X130.556Y-75.057
X131.191Y-116.967
X132.842Y-82.169
X133.731Y-121.031
X134.112Y-126.238
X137.152Y-127.252
X142.875Y-94.986
X143.764Y-120.523
X145.415Y-91.567
X145.542Y-122.428
X152.019Y-90.678
X152.4Y-91.567
X154.718Y-90.16
X157.757Y-82.706
X159.639Y-82.55
X160.147Y-102.108
X162.078Y-89.39
X162.318Y-90.64
X162.94Y-88.09
X166.624Y-76.073
X166.624Y-92.329
X166.751Y-88.392
X167.251Y-90.542
X167.767Y-87.757
X170.434Y-82.042
X171.186Y-84.67
X171.958Y-76.835
X174.625Y-87.757
X179.578Y-120.65
X179.832Y-114.808
T2
X124.079Y-96.647
X124.079Y-111.887
X126.619Y-96.647
X126.619Y-99.187
X126.619Y-111.887
X129.159Y-96.647
X129.159Y-111.887
X131.699Y-96.647
X131.699Y-99.187
X131.699Y-111.887
X134.239Y-96.647
X134.239Y-99.187
X134.239Y-111.887
X136.779Y-96.647
X136.779Y-99.187
X136.779Y-111.887
X139.319Y-96.647
X139.319Y-111.887
X141.859Y-96.647
X141.859Y-111.887
X144.399Y-96.647
X144.399Y-111.887
X146.939Y-96.647
X146.939Y-111.887
X149.479Y-96.647
X149.479Y-111.887
X152.019Y-96.647
X152.019Y-111.887
X154.559Y-96.647
X154.559Y-111.887
X157.099Y-96.647
X157.099Y-99.187
X157.099Y-101.727
X157.099Y-104.267
X157.099Y-106.807
X157.099Y-109.347
X157.099Y-111.887
T3
X141.224Y-128.778
X143.51Y-74.93
X143.51Y-77.47
X143.51Y-80.01
X143.51Y-82.55
X143.764Y-128.778
X146.304Y-128.778
X150.876Y-81.153
X152.4Y-128.905
X153.416Y-81.153
X153.543Y-74.803
X154.94Y-128.905
X155.956Y-81.153
X156.083Y-74.803
X157.48Y-128.905
X158.623Y-74.803
X164.719Y-123.825
X164.719Y-126.365
X164.719Y-128.905
T0
M30
