G04 #@! TF.GenerationSoftware,KiCad,Pcbnew,no-vcs-found-799c8b6~57~ubuntu16.04.1*
G04 #@! TF.CreationDate,2017-02-27T20:11:45+01:00*
G04 #@! TF.ProjectId,GhostSensorboard,47686F737453656E736F72626F617264,rev?*
G04 #@! TF.FileFunction,Copper,L1,Top,Signal*
G04 #@! TF.FilePolarity,Positive*
%FSLAX46Y46*%
G04 Gerber Fmt 4.6, Leading zero omitted, Abs format (unit mm)*
G04 Created by KiCad (PCBNEW no-vcs-found-799c8b6~57~ubuntu16.04.1) date Mon Feb 27 20:11:45 2017*
%MOMM*%
%LPD*%
G01*
G04 APERTURE LIST*
%ADD10C,0.100000*%
%ADD11R,0.750000X0.800000*%
%ADD12R,0.800000X0.750000*%
%ADD13R,1.200000X1.200000*%
%ADD14R,0.800000X0.900000*%
%ADD15R,1.200000X0.900000*%
%ADD16R,0.900000X1.200000*%
%ADD17R,1.450000X0.700000*%
%ADD18R,0.850000X0.300000*%
%ADD19R,0.300000X0.850000*%
%ADD20R,0.600000X1.550000*%
%ADD21R,1.200000X1.800000*%
%ADD22R,1.800000X0.800000*%
%ADD23R,1.300000X1.300000*%
%ADD24R,1.550000X0.600000*%
%ADD25R,1.800000X1.200000*%
%ADD26R,1.143000X0.508000*%
%ADD27R,0.500000X0.800000*%
%ADD28R,0.400000X0.800000*%
%ADD29R,0.800000X0.500000*%
%ADD30R,0.800000X0.400000*%
%ADD31R,0.300000X0.800000*%
%ADD32R,1.700000X1.700000*%
%ADD33O,1.700000X1.700000*%
%ADD34R,0.300000X0.450000*%
%ADD35R,0.450000X0.300000*%
%ADD36C,0.600000*%
%ADD37C,0.250000*%
%ADD38C,0.254000*%
G04 APERTURE END LIST*
D10*
D11*
X116464080Y-113329720D03*
X116464080Y-111829720D03*
D12*
X109434760Y-117899180D03*
X107934760Y-117899180D03*
D11*
X93893640Y-83064920D03*
X93893640Y-84564920D03*
D12*
X117735920Y-106725720D03*
X119235920Y-106725720D03*
X116684360Y-95239840D03*
X118184360Y-95239840D03*
X116770720Y-91892120D03*
X118270720Y-91892120D03*
X94870840Y-105369360D03*
X96370840Y-105369360D03*
X96868680Y-97790000D03*
X95368680Y-97790000D03*
D13*
X102473760Y-117584040D03*
X102473760Y-119784040D03*
D14*
X101371360Y-83654140D03*
X103271360Y-83654140D03*
X102321360Y-81654140D03*
X111318000Y-84050380D03*
X113218000Y-84050380D03*
X112268000Y-82050380D03*
D15*
X129237560Y-103449120D03*
X131437560Y-103449120D03*
X116156920Y-115763040D03*
X113956920Y-115763040D03*
D16*
X105410000Y-81737020D03*
X105410000Y-83937020D03*
X114226340Y-122425640D03*
X114226340Y-120225640D03*
D15*
X102532360Y-114655600D03*
X100332360Y-114655600D03*
D16*
X99049840Y-83865900D03*
X99049840Y-81665900D03*
X115559840Y-81792900D03*
X115559840Y-83992900D03*
X108935520Y-83901460D03*
X108935520Y-81701460D03*
X123261120Y-93830320D03*
X123261120Y-91630320D03*
X121005600Y-91493160D03*
X121005600Y-93693160D03*
D15*
X97218680Y-94147640D03*
X95018680Y-94147640D03*
D17*
X106038020Y-122452640D03*
X111198020Y-122452640D03*
X111198020Y-120452640D03*
X106038020Y-120452640D03*
D18*
X129905040Y-99675000D03*
X129905040Y-99175000D03*
X129905040Y-98675000D03*
X129905040Y-98175000D03*
X129905040Y-97675000D03*
X129905040Y-97175000D03*
D19*
X129205040Y-96475000D03*
X128705040Y-96475000D03*
X128205040Y-96475000D03*
X127705040Y-96475000D03*
X127205040Y-96475000D03*
X126705040Y-96475000D03*
D18*
X126005040Y-97175000D03*
X126005040Y-97675000D03*
X126005040Y-98175000D03*
X126005040Y-98675000D03*
X126005040Y-99175000D03*
X126005040Y-99675000D03*
D19*
X126705040Y-100375000D03*
X127205040Y-100375000D03*
X127705040Y-100375000D03*
X128205040Y-100375000D03*
X128705040Y-100375000D03*
X129205040Y-100375000D03*
D20*
X128469260Y-79695160D03*
X129469260Y-79695160D03*
X130469260Y-79695160D03*
X131469260Y-79695160D03*
D21*
X127169260Y-77170160D03*
X132769260Y-77170160D03*
D20*
X119680860Y-79695160D03*
X120680860Y-79695160D03*
X121680860Y-79695160D03*
X122680860Y-79695160D03*
D21*
X118380860Y-77170160D03*
X123980860Y-77170160D03*
D22*
X119451120Y-111328200D03*
X119451120Y-112598200D03*
X119451120Y-113868200D03*
X119451120Y-115138200D03*
D18*
X116769600Y-99156200D03*
X116769600Y-99656200D03*
X116769600Y-100156200D03*
X116769600Y-100656200D03*
X116769600Y-101156200D03*
X116769600Y-101656200D03*
D19*
X117469600Y-102356200D03*
X117969600Y-102356200D03*
X118469600Y-102356200D03*
X118969600Y-102356200D03*
X119469600Y-102356200D03*
X119969600Y-102356200D03*
D18*
X120669600Y-101656200D03*
X120669600Y-101156200D03*
X120669600Y-100656200D03*
X120669600Y-100156200D03*
X120669600Y-99656200D03*
X120669600Y-99156200D03*
D19*
X119969600Y-98456200D03*
X119469600Y-98456200D03*
X118969600Y-98456200D03*
X118469600Y-98456200D03*
X117969600Y-98456200D03*
X117469600Y-98456200D03*
D23*
X119369600Y-101056200D03*
X119369600Y-99756200D03*
X118069600Y-101056200D03*
X118069600Y-99756200D03*
D24*
X135696840Y-93117540D03*
X135696840Y-94117540D03*
X135696840Y-95117540D03*
X135696840Y-96117540D03*
D25*
X138221840Y-91817540D03*
X138221840Y-97417540D03*
D24*
X135696840Y-84834600D03*
X135696840Y-85834600D03*
X135696840Y-86834600D03*
X135696840Y-87834600D03*
D25*
X138221840Y-83534600D03*
X138221840Y-89134600D03*
D24*
X135752840Y-112186720D03*
X135752840Y-113186720D03*
X135752840Y-114186720D03*
X135752840Y-115186720D03*
D25*
X138277840Y-110886720D03*
X138277840Y-116486720D03*
D24*
X135714620Y-103234360D03*
X135714620Y-104234360D03*
X135714620Y-105234360D03*
X135714620Y-106234360D03*
D25*
X138239620Y-101934360D03*
X138239620Y-107534360D03*
D20*
X131045080Y-120487320D03*
X130045080Y-120487320D03*
X129045080Y-120487320D03*
X128045080Y-120487320D03*
D21*
X132345080Y-123012320D03*
X126745080Y-123012320D03*
D20*
X122762140Y-120566060D03*
X121762140Y-120566060D03*
X120762140Y-120566060D03*
X119762140Y-120566060D03*
D21*
X124062140Y-123091060D03*
X118462140Y-123091060D03*
D26*
X94117160Y-90982800D03*
X94117160Y-89712800D03*
X94117160Y-88442800D03*
X94117160Y-87172800D03*
X100467160Y-87172800D03*
X100467160Y-88442800D03*
X100467160Y-89712800D03*
X100467160Y-90982800D03*
D27*
X121489620Y-86762160D03*
D28*
X123089620Y-86762160D03*
X122289620Y-86762160D03*
D27*
X123889620Y-86762160D03*
D28*
X122289620Y-84962160D03*
D27*
X121489620Y-84962160D03*
D28*
X123089620Y-84962160D03*
D27*
X123889620Y-84962160D03*
D29*
X128792400Y-88213080D03*
D30*
X128792400Y-89813080D03*
X128792400Y-89013080D03*
D29*
X128792400Y-90613080D03*
D30*
X130592400Y-89013080D03*
D29*
X130592400Y-88213080D03*
D30*
X130592400Y-89813080D03*
D29*
X130592400Y-90613080D03*
D31*
X127901960Y-109677200D03*
X127901960Y-111477200D03*
X124401960Y-109677200D03*
X124401960Y-111477200D03*
X127401960Y-109677200D03*
X126901960Y-109677200D03*
X126401960Y-109677200D03*
X125901960Y-109677200D03*
X125401960Y-109677200D03*
X124901960Y-109677200D03*
X127401960Y-111477200D03*
X126901960Y-111477200D03*
X126401960Y-111477200D03*
X125401960Y-111477200D03*
X125901960Y-111477200D03*
X124901960Y-111477200D03*
D32*
X99664520Y-77767180D03*
D33*
X102204520Y-77767180D03*
X104744520Y-77767180D03*
D32*
X109816900Y-77701140D03*
D33*
X112356900Y-77701140D03*
X114896900Y-77701140D03*
X95097600Y-110225840D03*
X95097600Y-112765840D03*
D32*
X95097600Y-115305840D03*
D34*
X94957200Y-102824200D03*
X95457200Y-102824200D03*
X95957200Y-102824200D03*
X96457200Y-102824200D03*
D35*
X96982200Y-102299200D03*
X96982200Y-101799200D03*
X96982200Y-101299200D03*
X96982200Y-100799200D03*
D34*
X96457200Y-100274200D03*
X95957200Y-100274200D03*
X95457200Y-100274200D03*
X94957200Y-100274200D03*
D35*
X94432200Y-100799200D03*
X94432200Y-101299200D03*
X94432200Y-101799200D03*
X94432200Y-102299200D03*
D36*
X110134400Y-116189760D03*
X114188240Y-111856520D03*
X126690798Y-102936697D03*
X117596920Y-85369400D03*
X105023920Y-99263200D03*
X97774760Y-88844120D03*
X96565720Y-83992720D03*
X117811018Y-103864963D03*
X121859040Y-96438890D03*
X94066360Y-85973920D03*
X93974920Y-92537280D03*
X96771449Y-82080089D03*
X119420640Y-108849160D03*
X120287638Y-105233831D03*
X93085920Y-99410520D03*
X132999480Y-117124480D03*
X118993920Y-117962680D03*
X125333760Y-116098320D03*
X121945400Y-115625880D03*
X133736080Y-106923840D03*
X132024120Y-101092000D03*
X129595880Y-102031800D03*
X127645160Y-101711760D03*
X134203440Y-99293680D03*
X133898640Y-91023440D03*
X125887480Y-82458560D03*
X131485640Y-82214720D03*
X132212080Y-86715600D03*
X101396800Y-85719920D03*
X119395240Y-89489280D03*
X117510560Y-93761560D03*
X105178659Y-114336297D03*
X101610160Y-110622080D03*
X105003600Y-96225360D03*
X114611658Y-96718452D03*
X125489077Y-93128337D03*
X114726720Y-98059240D03*
X118672032Y-96208639D03*
X127543560Y-98221800D03*
X120685560Y-95813880D03*
X126270374Y-102171001D03*
X124765374Y-92765034D03*
X102877887Y-86317109D03*
X120766840Y-88620600D03*
X117877537Y-96114852D03*
X114884030Y-93339920D03*
X104160320Y-90505280D03*
X93207840Y-101081840D03*
X120536490Y-104473508D03*
X115356640Y-103306880D03*
X119426560Y-104189974D03*
X114884030Y-92400120D03*
X117535960Y-114985800D03*
X111465360Y-114432080D03*
X103129080Y-106669840D03*
X106034840Y-87238840D03*
X115509040Y-87975440D03*
X124794230Y-88554118D03*
X129580640Y-82737960D03*
X119781320Y-83753960D03*
X123072718Y-89128600D03*
X125648405Y-88524395D03*
X125846840Y-90241120D03*
X119684800Y-82621120D03*
X124169220Y-89333842D03*
X124998480Y-91221560D03*
X133538695Y-93732240D03*
X131429760Y-96824800D03*
X127904180Y-93702376D03*
X127061130Y-87751920D03*
X131165600Y-95346520D03*
X132890753Y-92447887D03*
X130006935Y-91450585D03*
X126289090Y-93128337D03*
X126435409Y-88668076D03*
X123183143Y-107778352D03*
X130581400Y-113238280D03*
X125627196Y-108022460D03*
X133380480Y-104648000D03*
X125928120Y-94848680D03*
X123927173Y-108072356D03*
X127591124Y-104535208D03*
X125226086Y-94465056D03*
X130185160Y-105252520D03*
X125229035Y-106584483D03*
X130042920Y-116453920D03*
X129976880Y-108183680D03*
X128999675Y-114023835D03*
X121762520Y-118247160D03*
X129922827Y-107231942D03*
X126178711Y-107442935D03*
X130977640Y-117190520D03*
X127575356Y-103735351D03*
X123667520Y-113385600D03*
X130139440Y-111363760D03*
X122433080Y-109098080D03*
X93878570Y-103811083D03*
X101132640Y-102656640D03*
X94793963Y-104044349D03*
X101122480Y-103936800D03*
D37*
X116156920Y-115763040D02*
X116156920Y-113636880D01*
X116156920Y-113636880D02*
X116464080Y-113329720D01*
X116464080Y-113329720D02*
X117089080Y-113329720D01*
X117820600Y-112598200D02*
X119451120Y-112598200D01*
X117089080Y-113329720D02*
X117820600Y-112598200D01*
X116770720Y-92517120D02*
X116852370Y-92598770D01*
X116852370Y-92598770D02*
X116852370Y-95071830D01*
X116852370Y-95071830D02*
X116684360Y-95239840D01*
X116770720Y-91892120D02*
X116770720Y-92517120D01*
X117735920Y-108963000D02*
X117735920Y-106725720D01*
X119451120Y-111328200D02*
X119451120Y-110678200D01*
X119451120Y-110678200D02*
X117735920Y-108963000D01*
X110134400Y-116189760D02*
X110134400Y-117199540D01*
X110134400Y-117199540D02*
X109434760Y-117899180D01*
X117735920Y-106725720D02*
X117735920Y-108308840D01*
X117735920Y-108308840D02*
X114188240Y-111856520D01*
X93220659Y-96900395D02*
X93220659Y-95996760D01*
X95457200Y-99136936D02*
X93220659Y-96900395D01*
X95457200Y-100294520D02*
X95457200Y-99136936D01*
X93220659Y-95996760D02*
X93220659Y-89021801D01*
X96868680Y-97790000D02*
X96868680Y-97165000D01*
X96868680Y-97165000D02*
X95700440Y-95996760D01*
X95700440Y-95996760D02*
X93220659Y-95996760D01*
X126005040Y-99675000D02*
X126005040Y-100075000D01*
X125765797Y-102936697D02*
X126690798Y-102936697D01*
X125645364Y-100434676D02*
X125645364Y-102816264D01*
X125645364Y-102816264D02*
X125765797Y-102936697D01*
X126005040Y-100075000D02*
X125645364Y-100434676D01*
X127743893Y-102936697D02*
X126690798Y-102936697D01*
X128605040Y-101050000D02*
X128605040Y-102075550D01*
X128205040Y-100650000D02*
X128605040Y-101050000D01*
X128205040Y-100375000D02*
X128205040Y-100650000D01*
X128605040Y-102075550D02*
X127743893Y-102936697D01*
X116770720Y-91892120D02*
X116770720Y-86195600D01*
X116770720Y-86195600D02*
X117596920Y-85369400D01*
X97957640Y-116117920D02*
X97957640Y-115818920D01*
X97957640Y-115818920D02*
X95001080Y-112862360D01*
X102473760Y-119784040D02*
X101623760Y-119784040D01*
X101623760Y-119784040D02*
X97957640Y-116117920D01*
X106038020Y-120452640D02*
X103142360Y-120452640D01*
X103142360Y-120452640D02*
X102473760Y-119784040D01*
X103550720Y-97790000D02*
X105023920Y-99263200D01*
X96868680Y-97790000D02*
X103550720Y-97790000D01*
X117735920Y-106725720D02*
X117710920Y-106725720D01*
X111198020Y-120452640D02*
X111198020Y-119637440D01*
X111198020Y-119637440D02*
X109459760Y-117899180D01*
X109459760Y-117899180D02*
X109434760Y-117899180D01*
X106038020Y-120452640D02*
X106038020Y-118435918D01*
X109409760Y-117899180D02*
X109434760Y-117899180D01*
X106038020Y-118435918D02*
X107274759Y-117199179D01*
X107274759Y-117199179D02*
X108709759Y-117199179D01*
X108709759Y-117199179D02*
X109409760Y-117899180D01*
X100467160Y-90982800D02*
X100467160Y-89712800D01*
X100467160Y-89712800D02*
X98643440Y-89712800D01*
X98643440Y-89712800D02*
X97774760Y-88844120D01*
X93893640Y-84564920D02*
X93893640Y-84589920D01*
X93893640Y-84589920D02*
X95013661Y-85709941D01*
X95013661Y-85709941D02*
X95013661Y-87863799D01*
X95013661Y-87863799D02*
X94434660Y-88442800D01*
X94434660Y-88442800D02*
X94117160Y-88442800D01*
X93893640Y-84564920D02*
X95993520Y-84564920D01*
X95993520Y-84564920D02*
X96565720Y-83992720D01*
X114896900Y-77701140D02*
X113721899Y-76526139D01*
X113721899Y-76526139D02*
X105985561Y-76526139D01*
X105985561Y-76526139D02*
X104744520Y-77767180D01*
X114896900Y-77701140D02*
X115746899Y-78551139D01*
X115746899Y-78551139D02*
X121561839Y-78551139D01*
X121561839Y-78551139D02*
X121680860Y-78670160D01*
X121680860Y-78670160D02*
X121680860Y-79695160D01*
X121680860Y-78670160D02*
X121755861Y-78595159D01*
X121755861Y-78595159D02*
X130394259Y-78595159D01*
X130394259Y-78595159D02*
X130469260Y-78670160D01*
X130469260Y-78670160D02*
X130469260Y-79695160D01*
X93220659Y-89021801D02*
X93799660Y-88442800D01*
X93799660Y-88442800D02*
X94117160Y-88442800D01*
X96457200Y-100294520D02*
X96457200Y-98201480D01*
X96457200Y-98201480D02*
X96868680Y-97790000D01*
X118111017Y-103564964D02*
X117811018Y-103864963D01*
X118469600Y-103167610D02*
X118111017Y-103526193D01*
X118469600Y-102356200D02*
X118469600Y-103167610D01*
X118111017Y-103526193D02*
X118111017Y-103564964D01*
X120669600Y-97628330D02*
X121859040Y-96438890D01*
X120669600Y-99156200D02*
X120669600Y-97628330D01*
X119451120Y-115138200D02*
X119951120Y-115138200D01*
X119951120Y-115138200D02*
X120676121Y-114413199D01*
X120676121Y-114413199D02*
X120676121Y-112053201D01*
X120676121Y-112053201D02*
X119951120Y-111328200D01*
X119951120Y-111328200D02*
X119451120Y-111328200D01*
X116464080Y-111829720D02*
X118949600Y-111829720D01*
X118949600Y-111829720D02*
X119451120Y-111328200D01*
X120762140Y-120566060D02*
X120762140Y-115949220D01*
X120762140Y-115949220D02*
X119951120Y-115138200D01*
X129045080Y-120487320D02*
X129045080Y-121512320D01*
X129045080Y-121512320D02*
X128891339Y-121666061D01*
X128891339Y-121666061D02*
X120837141Y-121666061D01*
X120837141Y-121666061D02*
X120762140Y-121591060D01*
X120762140Y-121591060D02*
X120762140Y-120566060D01*
X136852841Y-116374999D02*
X136852841Y-114261721D01*
X136852841Y-114261721D02*
X136777840Y-114186720D01*
X136777840Y-114186720D02*
X135752840Y-114186720D01*
X129045080Y-121512320D02*
X129120081Y-121587321D01*
X129120081Y-121587321D02*
X131640519Y-121587321D01*
X131640519Y-121587321D02*
X136852841Y-116374999D01*
X135696840Y-95117540D02*
X136721840Y-95117540D01*
X136814621Y-95210321D02*
X136814621Y-105159359D01*
X136721840Y-95117540D02*
X136814621Y-95210321D01*
X136814621Y-105159359D02*
X136739620Y-105234360D01*
X136739620Y-105234360D02*
X135714620Y-105234360D01*
X136721840Y-86834600D02*
X135696840Y-86834600D01*
X136721840Y-95117540D02*
X136796841Y-95042539D01*
X136796841Y-95042539D02*
X136796841Y-86909601D01*
X136796841Y-86909601D02*
X136721840Y-86834600D01*
X116684360Y-95239840D02*
X116684360Y-99070960D01*
X116684360Y-99070960D02*
X116769600Y-99156200D01*
X128705040Y-100375000D02*
X128205040Y-100375000D01*
X128205040Y-100375000D02*
X128205040Y-96475000D01*
X136739620Y-105234360D02*
X136852841Y-105347581D01*
X136852841Y-105347581D02*
X136852841Y-114111719D01*
X136852841Y-114111719D02*
X136777840Y-114186720D01*
X107934760Y-117899180D02*
X107934760Y-120930900D01*
X107934760Y-120930900D02*
X106413020Y-122452640D01*
X106413020Y-122452640D02*
X106038020Y-122452640D01*
X111198020Y-122452640D02*
X106038020Y-122452640D01*
X114226340Y-122425640D02*
X111225020Y-122425640D01*
X111225020Y-122425640D02*
X111198020Y-122452640D01*
X93193639Y-87070779D02*
X93193639Y-85882480D01*
X93193639Y-85882480D02*
X93193639Y-83789921D01*
X94066360Y-85973920D02*
X93285079Y-85973920D01*
X93285079Y-85973920D02*
X93193639Y-85882480D01*
X95018680Y-94147640D02*
X95018680Y-93581040D01*
X95018680Y-93581040D02*
X93974920Y-92537280D01*
X94117160Y-87172800D02*
X93295660Y-87172800D01*
X93193639Y-83789921D02*
X93893640Y-83089920D01*
X93295660Y-87172800D02*
X93193639Y-87070779D01*
X93893640Y-83089920D02*
X93893640Y-83064920D01*
X95786618Y-83064920D02*
X96771449Y-82080089D01*
X93893640Y-83064920D02*
X95786618Y-83064920D01*
X95018680Y-94147640D02*
X95018680Y-91566820D01*
X95018680Y-91566820D02*
X94434660Y-90982800D01*
X94434660Y-90982800D02*
X94117160Y-90982800D01*
X119235920Y-108664440D02*
X119420640Y-108849160D01*
X119235920Y-106725720D02*
X119235920Y-108664440D01*
X119554305Y-105233831D02*
X120287638Y-105233831D01*
X118969600Y-103304020D02*
X118801343Y-103472277D01*
X118801343Y-103472277D02*
X118801343Y-104480869D01*
X118969600Y-102356200D02*
X118969600Y-103304020D01*
X118801343Y-104480869D02*
X119554305Y-105233831D01*
X93085920Y-99410520D02*
X93085920Y-100278756D01*
X93085920Y-100278756D02*
X92907838Y-100456838D01*
X95530841Y-104669359D02*
X95530841Y-103393161D01*
X95530841Y-103393161D02*
X95457200Y-103319520D01*
X93445561Y-104669359D02*
X95530841Y-104669359D01*
X92582838Y-103806636D02*
X93445561Y-104669359D01*
X92582838Y-100781838D02*
X92582838Y-103806636D01*
X94432200Y-100819520D02*
X94069518Y-100456838D01*
X94069518Y-100456838D02*
X92907838Y-100456838D01*
X92907838Y-100456838D02*
X92582838Y-100781838D01*
X132999480Y-117124480D02*
X134937240Y-115186720D01*
X134937240Y-115186720D02*
X135752840Y-115186720D01*
X118993920Y-117962680D02*
X119762140Y-118730900D01*
X119762140Y-118730900D02*
X119762140Y-120566060D01*
X125333760Y-116098320D02*
X128045080Y-118809640D01*
X128045080Y-118809640D02*
X128045080Y-120487320D01*
X120548338Y-105858833D02*
X120548338Y-110540416D01*
X120548338Y-110540416D02*
X121945400Y-111937478D01*
X121945400Y-111937478D02*
X121945400Y-115625880D01*
X121445024Y-102831624D02*
X120669600Y-102056200D01*
X121445024Y-104962147D02*
X121445024Y-102831624D01*
X118884877Y-105858833D02*
X120548338Y-105858833D01*
X117511017Y-103239962D02*
X117186017Y-103564962D01*
X117186017Y-103564962D02*
X117186017Y-104159973D01*
X120548338Y-105858833D02*
X121445024Y-104962147D01*
X117186017Y-104159973D02*
X118884877Y-105858833D01*
X120669600Y-102056200D02*
X120669600Y-101656200D01*
X135714620Y-106234360D02*
X134425560Y-106234360D01*
X134425560Y-106234360D02*
X133736080Y-106923840D01*
X131084320Y-102031800D02*
X132024120Y-101092000D01*
X129595880Y-102031800D02*
X131084320Y-102031800D01*
X129595880Y-102031800D02*
X129595880Y-103090800D01*
X129595880Y-103090800D02*
X129237560Y-103449120D01*
X127705040Y-100375000D02*
X127705040Y-101651880D01*
X127705040Y-101651880D02*
X127645160Y-101711760D01*
X134203440Y-99293680D02*
X134203440Y-97135940D01*
X134203440Y-97135940D02*
X135221840Y-96117540D01*
X135221840Y-96117540D02*
X135696840Y-96117540D01*
X130592400Y-90613080D02*
X133488280Y-90613080D01*
X133488280Y-90613080D02*
X133898640Y-91023440D01*
X123889620Y-84962160D02*
X123889620Y-84812160D01*
X123889620Y-84812160D02*
X125887480Y-82814300D01*
X125887480Y-82814300D02*
X125887480Y-82458560D01*
X131485640Y-82214720D02*
X131485640Y-79711540D01*
X131485640Y-79711540D02*
X131469260Y-79695160D01*
X130592400Y-88213080D02*
X130714600Y-88213080D01*
X130714600Y-88213080D02*
X132212080Y-86715600D01*
X101396800Y-85719920D02*
X101396800Y-83679580D01*
X101396800Y-83679580D02*
X101371360Y-83654140D01*
X130592400Y-89813080D02*
X130592400Y-90613080D01*
X130592400Y-89013080D02*
X130592400Y-89813080D01*
X130592400Y-88213080D02*
X130592400Y-89013080D01*
X130592400Y-88213080D02*
X135318360Y-88213080D01*
X135318360Y-88213080D02*
X135696840Y-87834600D01*
X126901960Y-111477200D02*
X126563120Y-111477200D01*
X126563120Y-111477200D02*
X126401960Y-111477200D01*
X128045080Y-120487320D02*
X128045080Y-112220320D01*
X128045080Y-112220320D02*
X127301960Y-111477200D01*
X127301960Y-111477200D02*
X126563120Y-111477200D01*
X101371360Y-83654140D02*
X101371360Y-83604140D01*
X101371360Y-83604140D02*
X102096361Y-82879139D01*
X102096361Y-82879139D02*
X103567881Y-82879139D01*
X103567881Y-82879139D02*
X104710000Y-81737020D01*
X104710000Y-81737020D02*
X105410000Y-81737020D01*
X105410000Y-81737020D02*
X105410000Y-81887020D01*
X109891919Y-84826461D02*
X110668000Y-84050380D01*
X105410000Y-81887020D02*
X108349441Y-84826461D01*
X108349441Y-84826461D02*
X109891919Y-84826461D01*
X110668000Y-84050380D02*
X111318000Y-84050380D01*
X122289620Y-84962160D02*
X122289620Y-84312160D01*
X122289620Y-84312160D02*
X122680860Y-83920920D01*
X122680860Y-83920920D02*
X122680860Y-79695160D01*
X111318000Y-84050380D02*
X111318000Y-84000380D01*
X114859840Y-81792900D02*
X115559840Y-81792900D01*
X111318000Y-84000380D02*
X112043001Y-83275379D01*
X112043001Y-83275379D02*
X113377361Y-83275379D01*
X113377361Y-83275379D02*
X114859840Y-81792900D01*
X121489620Y-84962160D02*
X118579100Y-84962160D01*
X118579100Y-84962160D02*
X115559840Y-81942900D01*
X115559840Y-81942900D02*
X115559840Y-81792900D01*
X123089620Y-84962160D02*
X123889620Y-84962160D01*
X122289620Y-84962160D02*
X123089620Y-84962160D01*
X121489620Y-84962160D02*
X122289620Y-84962160D01*
X119395240Y-89489280D02*
X119695239Y-89189281D01*
X119695239Y-89189281D02*
X119695239Y-87406541D01*
X119695239Y-87406541D02*
X121489620Y-85612160D01*
X121489620Y-85612160D02*
X121489620Y-84962160D01*
X123261120Y-93830320D02*
X123261120Y-93680320D01*
X123261120Y-93680320D02*
X121073960Y-91493160D01*
X121073960Y-91493160D02*
X121005600Y-91493160D01*
X117760838Y-103239962D02*
X117511017Y-103239962D01*
X117969600Y-103031200D02*
X117760838Y-103239962D01*
X135752840Y-115186720D02*
X128861480Y-115186720D01*
X128861480Y-115186720D02*
X125401960Y-111727200D01*
X125401960Y-111727200D02*
X125401960Y-111477200D01*
X124901960Y-111477200D02*
X124401960Y-111477200D01*
X125401960Y-111477200D02*
X124901960Y-111477200D01*
X125901960Y-111477200D02*
X125401960Y-111477200D01*
X126401960Y-111477200D02*
X125901960Y-111477200D01*
X127401960Y-111477200D02*
X126901960Y-111477200D01*
X127901960Y-111477200D02*
X127401960Y-111477200D01*
X95457200Y-103319520D02*
X95457200Y-102844520D01*
X96457200Y-102844520D02*
X96457200Y-103319520D01*
X96457200Y-103319520D02*
X96382199Y-103394521D01*
X96382199Y-103394521D02*
X95532201Y-103394521D01*
X95532201Y-103394521D02*
X95457200Y-103319520D01*
X113956920Y-115763040D02*
X114106920Y-115763040D01*
X114106920Y-115763040D02*
X118909940Y-120566060D01*
X118909940Y-120566060D02*
X119762140Y-120566060D01*
X119395240Y-89489280D02*
X121005600Y-91099640D01*
X121005600Y-91099640D02*
X121005600Y-91493160D01*
X118184360Y-95239840D02*
X118184360Y-94435360D01*
X118184360Y-94435360D02*
X117510560Y-93761560D01*
X117969600Y-103031200D02*
X117969600Y-102356200D01*
X134991660Y-96117540D02*
X135696840Y-96117540D01*
X118270720Y-92517120D02*
X118270720Y-91892120D01*
X119469600Y-97858322D02*
X120055801Y-97272121D01*
X120055801Y-94302201D02*
X118270720Y-92517120D01*
X119469600Y-98456200D02*
X119469600Y-97858322D01*
X120055801Y-97272121D02*
X120055801Y-94302201D01*
X94220840Y-105369360D02*
X94187391Y-105402809D01*
X94870840Y-105369360D02*
X94220840Y-105369360D01*
X92931559Y-98139660D02*
X93677161Y-98139660D01*
X94187391Y-105402809D02*
X93005756Y-105402809D01*
X93005756Y-105402809D02*
X92132827Y-104529880D01*
X92132827Y-104529880D02*
X92132827Y-98938392D01*
X92132827Y-98938392D02*
X92931559Y-98139660D01*
X93677161Y-98139660D02*
X94957200Y-99419699D01*
X94957200Y-99419699D02*
X94957200Y-100294520D01*
X96370840Y-105369360D02*
X96395840Y-105369360D01*
X97532201Y-104232999D02*
X97532201Y-100894521D01*
X96395840Y-105369360D02*
X97532201Y-104232999D01*
X97532201Y-100894521D02*
X97457200Y-100819520D01*
X97457200Y-100819520D02*
X96982200Y-100819520D01*
X95957200Y-100294520D02*
X95957200Y-98378520D01*
X95957200Y-98378520D02*
X95368680Y-97790000D01*
X102473760Y-117584040D02*
X102473760Y-114714200D01*
X102473760Y-114714200D02*
X102532360Y-114655600D01*
X105178659Y-114190579D02*
X105178659Y-114336297D01*
X101610160Y-110622080D02*
X105178659Y-114190579D01*
X99664520Y-77767180D02*
X99664520Y-81051220D01*
X99664520Y-81051220D02*
X99049840Y-81665900D01*
X102321360Y-81654140D02*
X99061600Y-81654140D01*
X99061600Y-81654140D02*
X99049840Y-81665900D01*
X97218680Y-94147640D02*
X97218680Y-92496820D01*
X97218680Y-92496820D02*
X94434660Y-89712800D01*
X94434660Y-89712800D02*
X94117160Y-89712800D01*
X94117160Y-89712800D02*
X94938660Y-89712800D01*
X94938660Y-89712800D02*
X99049840Y-85601620D01*
X99049840Y-85601620D02*
X99049840Y-83865900D01*
X97444560Y-77617320D02*
X98469701Y-76592179D01*
X101029519Y-76592179D02*
X102204520Y-77767180D01*
X98469701Y-76592179D02*
X101029519Y-76592179D01*
X97444560Y-82110620D02*
X97444560Y-77617320D01*
X99049840Y-83715900D02*
X97444560Y-82110620D01*
X99049840Y-83865900D02*
X99049840Y-83715900D01*
X102204520Y-77767180D02*
X103379521Y-78942181D01*
X108935520Y-83751460D02*
X108935520Y-83901460D01*
X103379521Y-78942181D02*
X104126241Y-78942181D01*
X104126241Y-78942181D02*
X108935520Y-83751460D01*
X97218680Y-94147640D02*
X102925880Y-94147640D01*
X102925880Y-94147640D02*
X105003600Y-96225360D01*
X112268000Y-82050380D02*
X109284440Y-82050380D01*
X109284440Y-82050380D02*
X108935520Y-81701460D01*
X108935520Y-81701460D02*
X108935520Y-78582520D01*
X108935520Y-78582520D02*
X109816900Y-77701140D01*
X106029760Y-88442800D02*
X106771440Y-87701120D01*
X114611658Y-96294188D02*
X114611658Y-96718452D01*
X116402360Y-92785170D02*
X116402360Y-94282292D01*
X116045719Y-92428529D02*
X116402360Y-92785170D01*
X116045719Y-90955599D02*
X116045719Y-92428529D01*
X106771440Y-87701120D02*
X112791240Y-87701120D01*
X114611658Y-96072994D02*
X114611658Y-96294188D01*
X116402360Y-94282292D02*
X114611658Y-96072994D01*
X100467160Y-88442800D02*
X106029760Y-88442800D01*
X112791240Y-87701120D02*
X116045719Y-90955599D01*
X114726720Y-96833514D02*
X114611658Y-96718452D01*
X114726720Y-98059240D02*
X114726720Y-96833514D01*
X122793378Y-95813880D02*
X124151074Y-94456184D01*
X124739685Y-93390044D02*
X125188930Y-93390044D01*
X125450637Y-93128337D02*
X125489077Y-93128337D01*
X124151074Y-93978655D02*
X124739685Y-93390044D01*
X124151074Y-94456184D02*
X124151074Y-93978655D01*
X120685560Y-95813880D02*
X122793378Y-95813880D01*
X125188930Y-93390044D02*
X125450637Y-93128337D01*
X117969600Y-96911071D02*
X118672032Y-96208639D01*
X117969600Y-98456200D02*
X117969600Y-96911071D01*
X127205040Y-100375000D02*
X127205040Y-98560320D01*
X127205040Y-98560320D02*
X127543560Y-98221800D01*
X120685560Y-95813880D02*
X120685560Y-94013200D01*
X120685560Y-94013200D02*
X121005600Y-93693160D01*
X126705040Y-101736335D02*
X126270374Y-102171001D01*
X126705040Y-100375000D02*
X126705040Y-101736335D01*
X124245834Y-92765034D02*
X124765374Y-92765034D01*
X123261120Y-91780320D02*
X124245834Y-92765034D01*
X123261120Y-91630320D02*
X123261120Y-91780320D01*
X102022196Y-87172800D02*
X102877887Y-86317109D01*
X100467160Y-87172800D02*
X102022196Y-87172800D01*
X123261120Y-91630320D02*
X123261120Y-91480320D01*
X123261120Y-91480320D02*
X120766840Y-88986040D01*
X120766840Y-88986040D02*
X120766840Y-88620600D01*
X117469600Y-96522789D02*
X117877537Y-96114852D01*
X117469600Y-98456200D02*
X117469600Y-96522789D01*
X115595708Y-92628242D02*
X115184029Y-93039921D01*
X104160320Y-90505280D02*
X114071842Y-90505280D01*
X115595708Y-92029146D02*
X115595708Y-92628242D01*
X114071842Y-90505280D02*
X115595708Y-92029146D01*
X115184029Y-93039921D02*
X114884030Y-93339920D01*
X93925200Y-101799200D02*
X93207840Y-101081840D01*
X94432200Y-101799200D02*
X93925200Y-101799200D01*
X119969600Y-102631200D02*
X120536490Y-103198090D01*
X119969600Y-102356200D02*
X119969600Y-102631200D01*
X120536490Y-103198090D02*
X120536490Y-104473508D01*
X115356640Y-103306880D02*
X115356640Y-103731144D01*
X115356640Y-103731144D02*
X113031919Y-106055865D01*
X113031919Y-106055865D02*
X113031919Y-118181219D01*
X113031919Y-118181219D02*
X114226340Y-119375640D01*
X114226340Y-119375640D02*
X114226340Y-120225640D01*
X119469600Y-102356200D02*
X119469600Y-104146934D01*
X119469600Y-104146934D02*
X119426560Y-104189974D01*
X114584031Y-92700119D02*
X114884030Y-92400120D01*
X100782120Y-101346000D02*
X105938150Y-101346000D01*
X105938150Y-101346000D02*
X114584031Y-92700119D01*
X100332360Y-101795760D02*
X100782120Y-101346000D01*
X100332360Y-114655600D02*
X100332360Y-101795760D01*
X117535960Y-114985800D02*
X118653560Y-113868200D01*
X118653560Y-113868200D02*
X119451120Y-113868200D01*
X103129080Y-109220000D02*
X108341160Y-114432080D01*
X108341160Y-114432080D02*
X111465360Y-114432080D01*
X103129080Y-106669840D02*
X103129080Y-109220000D01*
X106034840Y-87238840D02*
X106034840Y-84561860D01*
X106034840Y-84561860D02*
X105410000Y-83937020D01*
X105410000Y-83937020D02*
X103554240Y-83937020D01*
X103554240Y-83937020D02*
X103271360Y-83654140D01*
X115509040Y-87975440D02*
X115509040Y-84043700D01*
X115509040Y-84043700D02*
X115559840Y-83992900D01*
X113218000Y-84050380D02*
X115502360Y-84050380D01*
X115502360Y-84050380D02*
X115559840Y-83992900D01*
X132649122Y-101537558D02*
X131437560Y-102749120D01*
X132649122Y-100791998D02*
X132649122Y-101537558D01*
X132232124Y-100375000D02*
X132649122Y-100791998D01*
X129205040Y-100375000D02*
X132232124Y-100375000D01*
X131437560Y-102749120D02*
X131437560Y-103449120D01*
X129905040Y-99675000D02*
X131413797Y-99675000D01*
X127920929Y-91727341D02*
X127012269Y-90818679D01*
X126124667Y-89616118D02*
X125856230Y-89616118D01*
X127012269Y-90503720D02*
X126124667Y-89616118D01*
X131413797Y-99675000D02*
X133404795Y-97684002D01*
X128763382Y-91727341D02*
X127920929Y-91727341D01*
X133404795Y-94482238D02*
X132024802Y-93102245D01*
X125856230Y-89616118D02*
X125094229Y-88854117D01*
X133404795Y-97684002D02*
X133404795Y-94482238D01*
X132024802Y-93102245D02*
X130138286Y-93102245D01*
X127012269Y-90818679D02*
X127012269Y-90503720D01*
X125094229Y-88854117D02*
X124794230Y-88554118D01*
X130138286Y-93102245D02*
X128763382Y-91727341D01*
X124231578Y-88554118D02*
X124794230Y-88554118D01*
X123089620Y-87412160D02*
X124231578Y-88554118D01*
X123089620Y-86762160D02*
X123089620Y-87412160D01*
X129580640Y-82737960D02*
X129580640Y-79806540D01*
X129580640Y-79806540D02*
X129469260Y-79695160D01*
X123902961Y-89958843D02*
X123372717Y-89428599D01*
X124625610Y-89958843D02*
X123902961Y-89958843D01*
X129831526Y-94068307D02*
X128390582Y-92627363D01*
X126720091Y-92053324D02*
X124625610Y-89958843D01*
X123372717Y-89428599D02*
X123072718Y-89128600D01*
X126775492Y-92053324D02*
X126720091Y-92053324D01*
X132504773Y-97311202D02*
X132504773Y-94855038D01*
X131718042Y-94068307D02*
X129831526Y-94068307D01*
X129905040Y-98675000D02*
X131140975Y-98675000D01*
X128390582Y-92627363D02*
X127349531Y-92627363D01*
X132504773Y-94855038D02*
X131718042Y-94068307D01*
X131140975Y-98675000D02*
X132504773Y-97311202D01*
X127349531Y-92627363D02*
X126775492Y-92053324D01*
X119781320Y-83753960D02*
X120680860Y-82854420D01*
X120680860Y-82854420D02*
X120680860Y-79695160D01*
X123072718Y-89128600D02*
X121489620Y-87545502D01*
X121489620Y-87545502D02*
X121489620Y-86762160D01*
X126146839Y-90589662D02*
X126146839Y-90541119D01*
X132954784Y-94668638D02*
X131904442Y-93618296D01*
X127734529Y-92177352D02*
X126146839Y-90589662D01*
X129905040Y-99175000D02*
X131277386Y-99175000D01*
X132954784Y-97497602D02*
X132954784Y-94668638D01*
X128576982Y-92177352D02*
X127734529Y-92177352D01*
X130017926Y-93618296D02*
X128576982Y-92177352D01*
X131904442Y-93618296D02*
X130017926Y-93618296D01*
X131277386Y-99175000D02*
X132954784Y-97497602D01*
X126146839Y-90541119D02*
X125846840Y-90241120D01*
X123889620Y-86762160D02*
X124389620Y-86762160D01*
X125648405Y-88020945D02*
X125648405Y-88524395D01*
X124389620Y-86762160D02*
X125648405Y-88020945D01*
X124389620Y-86762160D02*
X128469260Y-82682520D01*
X128469260Y-82682520D02*
X128469260Y-79695160D01*
X132054762Y-95041438D02*
X131531642Y-94518318D01*
X129645126Y-94518318D02*
X128204182Y-93077374D01*
X131004564Y-98175000D02*
X132054762Y-97124802D01*
X131531642Y-94518318D02*
X129645126Y-94518318D01*
X127163131Y-93077374D02*
X126589092Y-92503335D01*
X126280255Y-92503335D02*
X125298479Y-91521559D01*
X125298479Y-91521559D02*
X124998480Y-91221560D01*
X129905040Y-98175000D02*
X131004564Y-98175000D01*
X128204182Y-93077374D02*
X127163131Y-93077374D01*
X132054762Y-97124802D02*
X132054762Y-95041438D01*
X126589092Y-92503335D02*
X126280255Y-92503335D01*
X119684800Y-82621120D02*
X119684800Y-79699100D01*
X119684800Y-79699100D02*
X119680860Y-79695160D01*
X122289620Y-87454242D02*
X124169220Y-89333842D01*
X122289620Y-86762160D02*
X122289620Y-87454242D01*
X128221647Y-91277330D02*
X128949782Y-91277330D01*
X132991208Y-93432241D02*
X133238696Y-93432241D01*
X128792400Y-89813080D02*
X128142400Y-89813080D01*
X128949782Y-91277330D02*
X130324686Y-92652234D01*
X128142400Y-89813080D02*
X128067399Y-89888081D01*
X133923995Y-94117540D02*
X133838694Y-94032239D01*
X133838694Y-94032239D02*
X133538695Y-93732240D01*
X132211201Y-92652234D02*
X132991208Y-93432241D01*
X128067399Y-89888081D02*
X128067399Y-91123081D01*
X133238696Y-93432241D02*
X133538695Y-93732240D01*
X128067399Y-91123081D02*
X128221647Y-91277330D01*
X130324686Y-92652234D02*
X132211201Y-92652234D01*
X135696840Y-94117540D02*
X133923995Y-94117540D01*
X129905040Y-97675000D02*
X130579560Y-97675000D01*
X130579560Y-97675000D02*
X131429760Y-96824800D01*
X129205040Y-96475000D02*
X129205040Y-95003236D01*
X129205040Y-95003236D02*
X127904180Y-93702376D01*
X127061130Y-87751920D02*
X127061130Y-87327656D01*
X127061130Y-87327656D02*
X128554186Y-85834600D01*
X128554186Y-85834600D02*
X135696840Y-85834600D01*
X127522290Y-88213080D02*
X127061130Y-87751920D01*
X128792400Y-88213080D02*
X127522290Y-88213080D01*
X130865601Y-95646519D02*
X131165600Y-95346520D01*
X129905040Y-97175000D02*
X129905040Y-96607080D01*
X135696840Y-93117540D02*
X134671840Y-93117540D01*
X133315017Y-92447887D02*
X132890753Y-92447887D01*
X134671840Y-93117540D02*
X134002187Y-92447887D01*
X129905040Y-96607080D02*
X130865601Y-95646519D01*
X134002187Y-92447887D02*
X133315017Y-92447887D01*
X128942400Y-90613080D02*
X129779905Y-91450585D01*
X128792400Y-90613080D02*
X128942400Y-90613080D01*
X129779905Y-91450585D02*
X130006935Y-91450585D01*
X126446243Y-93128337D02*
X126289090Y-93128337D01*
X128705040Y-95387134D02*
X126446243Y-93128337D01*
X128705040Y-96475000D02*
X128705040Y-95387134D01*
X135696840Y-84834600D02*
X127219840Y-84834600D01*
X127219840Y-84834600D02*
X126435409Y-85619031D01*
X128792400Y-89013080D02*
X126780413Y-89013080D01*
X126780413Y-89013080D02*
X126435409Y-88668076D01*
X126435409Y-85619031D02*
X126435409Y-88668076D01*
X124167605Y-106793890D02*
X123183143Y-107778352D01*
X126434842Y-93753347D02*
X125462038Y-93753347D01*
X124901960Y-109677200D02*
X124901960Y-108890171D01*
X124926085Y-93840055D02*
X124601085Y-94165055D01*
X122883144Y-107478353D02*
X123183143Y-107778352D01*
X124601085Y-94165055D02*
X124601085Y-95026063D01*
X125375330Y-93840055D02*
X124926085Y-93840055D01*
X124552175Y-106814414D02*
X124531651Y-106793890D01*
X127705040Y-95023545D02*
X126434842Y-93753347D01*
X127705040Y-96475000D02*
X127705040Y-95023545D01*
X124901960Y-108890171D02*
X124552175Y-108540386D01*
X124552175Y-108540386D02*
X124552175Y-106814414D01*
X122883144Y-96744004D02*
X122883144Y-107478353D01*
X124531651Y-106793890D02*
X124167605Y-106793890D01*
X124601085Y-95026063D02*
X122883144Y-96744004D01*
X125462038Y-93753347D02*
X125375330Y-93840055D01*
X130581400Y-113238280D02*
X135701280Y-113238280D01*
X135701280Y-113238280D02*
X135752840Y-113186720D01*
X125901960Y-109677200D02*
X125901960Y-108297224D01*
X125901960Y-108297224D02*
X125627196Y-108022460D01*
X133380480Y-104648000D02*
X133794120Y-104234360D01*
X133794120Y-104234360D02*
X135714620Y-104234360D01*
X126705040Y-95625600D02*
X125928120Y-94848680D01*
X126705040Y-96475000D02*
X126705040Y-95625600D01*
X131107773Y-106277580D02*
X130987114Y-106156921D01*
X134727840Y-111636720D02*
X134727840Y-111278963D01*
X135277840Y-112186720D02*
X134727840Y-111636720D01*
X129212837Y-106156921D02*
X127891123Y-104835207D01*
X130987114Y-106156921D02*
X129212837Y-106156921D01*
X127891123Y-104835207D02*
X127591124Y-104535208D01*
X135752840Y-112186720D02*
X135277840Y-112186720D01*
X134727840Y-111278963D02*
X131107773Y-107658895D01*
X131107773Y-107658895D02*
X131107773Y-106277580D01*
X123927173Y-108552413D02*
X123927173Y-108072356D01*
X124401960Y-109027200D02*
X123927173Y-108552413D01*
X124401960Y-109677200D02*
X124401960Y-109027200D01*
X127205040Y-96475000D02*
X127205040Y-95159956D01*
X126248442Y-94203358D02*
X125648438Y-94203358D01*
X125648438Y-94203358D02*
X125386740Y-94465056D01*
X127205040Y-95159956D02*
X126248442Y-94203358D01*
X125386740Y-94465056D02*
X125226086Y-94465056D01*
X135714620Y-103234360D02*
X133188862Y-103234360D01*
X133188862Y-103234360D02*
X131170702Y-105252520D01*
X130609424Y-105252520D02*
X130185160Y-105252520D01*
X131170702Y-105252520D02*
X130609424Y-105252520D01*
X125002186Y-108353986D02*
X125002186Y-107235596D01*
X125002186Y-107235596D02*
X125229035Y-107008747D01*
X125229035Y-107008747D02*
X125229035Y-106584483D01*
X125401960Y-109677200D02*
X125401960Y-108753760D01*
X125401960Y-108753760D02*
X125002186Y-108353986D01*
X124799394Y-97175000D02*
X123369909Y-98604485D01*
X126005040Y-97175000D02*
X124799394Y-97175000D01*
X123369909Y-98604485D02*
X123369909Y-104725357D01*
X123369909Y-104725357D02*
X125229035Y-106584483D01*
X123819920Y-104159140D02*
X126901960Y-107241180D01*
X126005040Y-97675000D02*
X124935805Y-97675000D01*
X126901960Y-107241180D02*
X126901960Y-109027200D01*
X126901960Y-109027200D02*
X126901960Y-109677200D01*
X123819920Y-98790885D02*
X123819920Y-104159140D01*
X124935805Y-97675000D02*
X123819920Y-98790885D01*
X130042920Y-116453920D02*
X130042920Y-120485160D01*
X130042920Y-120485160D02*
X130045080Y-120487320D01*
X126901960Y-109027200D02*
X127745480Y-108183680D01*
X127745480Y-108183680D02*
X129976880Y-108183680D01*
X125208627Y-98675000D02*
X124745348Y-99138279D01*
X130601882Y-106606932D02*
X130601882Y-108483682D01*
X124745348Y-99138279D02*
X124745348Y-103189068D01*
X129408364Y-109677200D02*
X128301960Y-109677200D01*
X130601882Y-108483682D02*
X129408364Y-109677200D01*
X128163212Y-106606932D02*
X130601882Y-106606932D01*
X124745348Y-103189068D02*
X128163212Y-106606932D01*
X126005040Y-98675000D02*
X125208627Y-98675000D01*
X129377884Y-109677200D02*
X130764442Y-111063758D01*
X130764442Y-111063758D02*
X130764442Y-111808014D01*
X128301960Y-109677200D02*
X129377884Y-109677200D01*
X130764442Y-111808014D02*
X128999675Y-113572781D01*
X128999675Y-113572781D02*
X128999675Y-114023835D01*
X128301960Y-109677200D02*
X127901960Y-109677200D01*
X121762520Y-118247160D02*
X121762520Y-120565680D01*
X121762520Y-120565680D02*
X121762140Y-120566060D01*
X126005040Y-98175000D02*
X125072216Y-98175000D01*
X128151811Y-107231942D02*
X129498563Y-107231942D01*
X124295337Y-103375468D02*
X128151811Y-107231942D01*
X124295337Y-98951879D02*
X124295337Y-103375468D01*
X129498563Y-107231942D02*
X129922827Y-107231942D01*
X125072216Y-98175000D02*
X124295337Y-98951879D01*
X126401960Y-109677200D02*
X126401960Y-107666184D01*
X126401960Y-107666184D02*
X126178711Y-107442935D01*
X130977640Y-117190520D02*
X130977640Y-120419880D01*
X130977640Y-120419880D02*
X131045080Y-120487320D01*
X125928041Y-103735351D02*
X127575356Y-103735351D01*
X126005040Y-99175000D02*
X125345038Y-99175000D01*
X125195355Y-99324683D02*
X125195355Y-103002665D01*
X125195355Y-103002665D02*
X125928041Y-103735351D01*
X125345038Y-99175000D02*
X125195355Y-99324683D01*
X123667520Y-113385600D02*
X123667520Y-110332520D01*
X123667520Y-110332520D02*
X122433080Y-109098080D01*
X129177881Y-110402201D02*
X130139440Y-111363760D01*
X127401960Y-109677200D02*
X127401960Y-110327200D01*
X127401960Y-110327200D02*
X127476961Y-110402201D01*
X127476961Y-110402201D02*
X129177881Y-110402201D01*
X122762140Y-120566060D02*
X122762140Y-109427140D01*
X122762140Y-109427140D02*
X122433080Y-109098080D01*
X93878570Y-103273150D02*
X93878570Y-103811083D01*
X94432200Y-102319520D02*
X94432200Y-102719520D01*
X94432200Y-102719520D02*
X93878570Y-103273150D01*
X101883091Y-101906189D02*
X101132640Y-102656640D01*
X114559507Y-101906189D02*
X101883091Y-101906189D01*
X116769600Y-101656200D02*
X114809496Y-101656200D01*
X114809496Y-101656200D02*
X114559507Y-101906189D01*
X94957200Y-103881112D02*
X94793963Y-104044349D01*
X94957200Y-102844520D02*
X94957200Y-103881112D01*
X102703080Y-102356200D02*
X101122480Y-103936800D01*
X114745907Y-102356200D02*
X102703080Y-102356200D01*
X116945268Y-102231868D02*
X114870239Y-102231868D01*
X114870239Y-102231868D02*
X114745907Y-102356200D01*
X117069600Y-102356200D02*
X116945268Y-102231868D01*
X117469600Y-102356200D02*
X117069600Y-102356200D01*
D38*
G36*
X98060536Y-75969093D02*
X97932300Y-76054778D01*
X96907159Y-77079919D01*
X96742412Y-77326481D01*
X96684560Y-77617320D01*
X96684560Y-77950876D01*
X96675843Y-77934569D01*
X96633067Y-77882451D01*
X96601289Y-77822986D01*
X96402309Y-77580486D01*
X96350088Y-77537622D01*
X96307213Y-77485400D01*
X96064753Y-77286500D01*
X96005347Y-77254762D01*
X95953290Y-77212028D01*
X95676680Y-77064128D01*
X95612023Y-77044505D01*
X95552430Y-77012664D01*
X95252270Y-76921664D01*
X95185243Y-76915073D01*
X95120797Y-76895511D01*
X94808667Y-76864711D01*
X94741405Y-76871323D01*
X94674137Y-76864710D01*
X94361987Y-76895510D01*
X94297534Y-76915074D01*
X94230504Y-76921666D01*
X93930354Y-77012666D01*
X93870769Y-77044503D01*
X93806120Y-77064123D01*
X93529499Y-77212023D01*
X93477437Y-77254760D01*
X93418027Y-77286500D01*
X93175567Y-77485400D01*
X93132688Y-77537627D01*
X93080460Y-77580499D01*
X92881490Y-77822999D01*
X92849717Y-77882458D01*
X92806947Y-77934569D01*
X92659087Y-78211169D01*
X92639492Y-78275757D01*
X92607677Y-78335284D01*
X92516627Y-78635484D01*
X92510020Y-78702600D01*
X92490441Y-78767135D01*
X92459691Y-79079235D01*
X92466304Y-79146400D01*
X92459691Y-79213565D01*
X92490441Y-79525665D01*
X92510020Y-79590200D01*
X92516627Y-79657316D01*
X92607677Y-79957516D01*
X92639492Y-80017043D01*
X92659087Y-80081631D01*
X92806947Y-80358231D01*
X92849717Y-80410342D01*
X92881490Y-80469801D01*
X93080460Y-80712301D01*
X93132625Y-80755121D01*
X93175437Y-80807293D01*
X93417897Y-81006292D01*
X93477455Y-81038130D01*
X93529669Y-81080967D01*
X93806290Y-81228768D01*
X93870755Y-81248312D01*
X93930154Y-81280073D01*
X94230304Y-81371174D01*
X94297541Y-81377806D01*
X94362199Y-81397411D01*
X94674329Y-81428110D01*
X94741375Y-81421497D01*
X94808426Y-81428111D01*
X95120576Y-81397411D01*
X95185234Y-81377807D01*
X95252470Y-81371175D01*
X95552630Y-81280075D01*
X95612040Y-81248309D01*
X95676510Y-81228762D01*
X95953120Y-81080962D01*
X96005326Y-81038130D01*
X96064883Y-81006293D01*
X96307343Y-80807293D01*
X96350151Y-80755126D01*
X96402309Y-80712314D01*
X96601289Y-80469814D01*
X96633067Y-80410349D01*
X96675843Y-80358231D01*
X96684560Y-80341924D01*
X96684560Y-81145013D01*
X96586282Y-81144927D01*
X96242506Y-81286972D01*
X95979257Y-81549762D01*
X95836611Y-81893290D01*
X95836570Y-81940166D01*
X95471816Y-82304920D01*
X94791803Y-82304920D01*
X94726449Y-82207111D01*
X94516405Y-82066763D01*
X94268640Y-82017480D01*
X93518640Y-82017480D01*
X93270875Y-82066763D01*
X93060831Y-82207111D01*
X92920483Y-82417155D01*
X92871200Y-82664920D01*
X92871200Y-83037558D01*
X92656238Y-83252520D01*
X92491491Y-83499082D01*
X92433639Y-83789921D01*
X92433639Y-87070779D01*
X92491491Y-87361618D01*
X92656238Y-87608180D01*
X92758259Y-87710201D01*
X92991915Y-87866325D01*
X92910660Y-88062491D01*
X92910660Y-88157050D01*
X93069410Y-88315800D01*
X93990160Y-88315800D01*
X93990160Y-88295800D01*
X94244160Y-88295800D01*
X94244160Y-88315800D01*
X94264160Y-88315800D01*
X94264160Y-88569800D01*
X94244160Y-88569800D01*
X94244160Y-88589800D01*
X93990160Y-88589800D01*
X93990160Y-88569800D01*
X93069410Y-88569800D01*
X92910660Y-88728550D01*
X92910660Y-88823109D01*
X93007333Y-89056498D01*
X93033367Y-89082532D01*
X92947503Y-89211035D01*
X92898220Y-89458800D01*
X92898220Y-89966800D01*
X92947503Y-90214565D01*
X93036528Y-90347800D01*
X92947503Y-90481035D01*
X92898220Y-90728800D01*
X92898220Y-91236800D01*
X92947503Y-91484565D01*
X93087851Y-91694609D01*
X93297895Y-91834957D01*
X93345532Y-91844433D01*
X93182728Y-92006953D01*
X93040082Y-92350481D01*
X93039758Y-92722447D01*
X93181803Y-93066223D01*
X93444593Y-93329472D01*
X93788121Y-93472118D01*
X93816094Y-93472142D01*
X93771240Y-93697640D01*
X93771240Y-94597640D01*
X93820523Y-94845405D01*
X93960871Y-95055449D01*
X94170915Y-95195797D01*
X94418680Y-95245080D01*
X95618680Y-95245080D01*
X95866445Y-95195797D01*
X96076489Y-95055449D01*
X96118680Y-94992306D01*
X96160871Y-95055449D01*
X96370915Y-95195797D01*
X96618680Y-95245080D01*
X97818680Y-95245080D01*
X98066445Y-95195797D01*
X98276489Y-95055449D01*
X98375253Y-94907640D01*
X102611078Y-94907640D01*
X104068478Y-96365040D01*
X104068438Y-96410527D01*
X104210483Y-96754303D01*
X104473273Y-97017552D01*
X104816801Y-97160198D01*
X105188767Y-97160522D01*
X105532543Y-97018477D01*
X105795792Y-96755687D01*
X105938438Y-96412159D01*
X105938762Y-96040193D01*
X105796717Y-95696417D01*
X105533927Y-95433168D01*
X105190399Y-95290522D01*
X105143523Y-95290481D01*
X103463281Y-93610239D01*
X103216719Y-93445492D01*
X102925880Y-93387640D01*
X98375253Y-93387640D01*
X98276489Y-93239831D01*
X98066445Y-93099483D01*
X97978680Y-93082026D01*
X97978680Y-92496820D01*
X97920828Y-92205981D01*
X97756081Y-91959419D01*
X97065212Y-91268550D01*
X99260660Y-91268550D01*
X99260660Y-91363109D01*
X99357333Y-91596498D01*
X99535961Y-91775127D01*
X99769350Y-91871800D01*
X100181410Y-91871800D01*
X100340160Y-91713050D01*
X100340160Y-91109800D01*
X100594160Y-91109800D01*
X100594160Y-91713050D01*
X100752910Y-91871800D01*
X101164970Y-91871800D01*
X101398359Y-91775127D01*
X101576987Y-91596498D01*
X101673660Y-91363109D01*
X101673660Y-91268550D01*
X101514910Y-91109800D01*
X100594160Y-91109800D01*
X100340160Y-91109800D01*
X99419410Y-91109800D01*
X99260660Y-91268550D01*
X97065212Y-91268550D01*
X95795212Y-89998550D01*
X99260660Y-89998550D01*
X99260660Y-90093109D01*
X99357333Y-90326498D01*
X99378635Y-90347800D01*
X99357333Y-90369102D01*
X99260660Y-90602491D01*
X99260660Y-90697050D01*
X99419410Y-90855800D01*
X100340160Y-90855800D01*
X100340160Y-89839800D01*
X100594160Y-89839800D01*
X100594160Y-90855800D01*
X101514910Y-90855800D01*
X101673660Y-90697050D01*
X101673660Y-90602491D01*
X101576987Y-90369102D01*
X101555685Y-90347800D01*
X101576987Y-90326498D01*
X101673660Y-90093109D01*
X101673660Y-89998550D01*
X101514910Y-89839800D01*
X100594160Y-89839800D01*
X100340160Y-89839800D01*
X99419410Y-89839800D01*
X99260660Y-89998550D01*
X95795212Y-89998550D01*
X95761462Y-89964800D01*
X99587241Y-86139021D01*
X99751988Y-85892459D01*
X99809840Y-85601620D01*
X99809840Y-85022473D01*
X99957649Y-84923709D01*
X100097997Y-84713665D01*
X100147280Y-84465900D01*
X100147280Y-83265900D01*
X100097997Y-83018135D01*
X99957649Y-82808091D01*
X99894506Y-82765900D01*
X99957649Y-82723709D01*
X100097997Y-82513665D01*
X100117794Y-82414140D01*
X101364787Y-82414140D01*
X101413562Y-82487136D01*
X101343998Y-82556700D01*
X100971360Y-82556700D01*
X100723595Y-82605983D01*
X100513551Y-82746331D01*
X100373203Y-82956375D01*
X100323920Y-83204140D01*
X100323920Y-84104140D01*
X100373203Y-84351905D01*
X100513551Y-84561949D01*
X100636800Y-84644302D01*
X100636800Y-85157457D01*
X100604608Y-85189593D01*
X100461962Y-85533121D01*
X100461638Y-85905087D01*
X100603683Y-86248863D01*
X100626141Y-86271360D01*
X99895660Y-86271360D01*
X99647895Y-86320643D01*
X99437851Y-86460991D01*
X99297503Y-86671035D01*
X99248220Y-86918800D01*
X99248220Y-87426800D01*
X99297503Y-87674565D01*
X99386528Y-87807800D01*
X99297503Y-87941035D01*
X99248220Y-88188800D01*
X99248220Y-88696800D01*
X99297503Y-88944565D01*
X99383367Y-89073068D01*
X99357333Y-89099102D01*
X99260660Y-89332491D01*
X99260660Y-89427050D01*
X99419410Y-89585800D01*
X100340160Y-89585800D01*
X100340160Y-89565800D01*
X100594160Y-89565800D01*
X100594160Y-89585800D01*
X101514910Y-89585800D01*
X101673660Y-89427050D01*
X101673660Y-89332491D01*
X101619940Y-89202800D01*
X106029760Y-89202800D01*
X106320599Y-89144948D01*
X106567161Y-88980201D01*
X107086242Y-88461120D01*
X107293117Y-88461120D01*
X107114771Y-88639155D01*
X106933986Y-89074535D01*
X106933574Y-89545957D01*
X107015933Y-89745280D01*
X104722783Y-89745280D01*
X104690647Y-89713088D01*
X104347119Y-89570442D01*
X103975153Y-89570118D01*
X103631377Y-89712163D01*
X103368128Y-89974953D01*
X103225482Y-90318481D01*
X103225158Y-90690447D01*
X103367203Y-91034223D01*
X103629993Y-91297472D01*
X103973521Y-91440118D01*
X104345487Y-91440442D01*
X104689263Y-91298397D01*
X104722438Y-91265280D01*
X113757040Y-91265280D01*
X114226813Y-91735053D01*
X114091838Y-91869793D01*
X113949192Y-92213321D01*
X113949151Y-92260197D01*
X105623348Y-100586000D01*
X100782120Y-100586000D01*
X100491281Y-100643852D01*
X100244719Y-100808599D01*
X99794959Y-101258359D01*
X99630212Y-101504921D01*
X99572360Y-101795760D01*
X99572360Y-113589986D01*
X99484595Y-113607443D01*
X99274551Y-113747791D01*
X99134203Y-113957835D01*
X99084920Y-114205600D01*
X99084920Y-115105600D01*
X99134203Y-115353365D01*
X99274551Y-115563409D01*
X99484595Y-115703757D01*
X99732360Y-115753040D01*
X100932360Y-115753040D01*
X101180125Y-115703757D01*
X101390169Y-115563409D01*
X101432360Y-115500266D01*
X101474551Y-115563409D01*
X101684595Y-115703757D01*
X101713760Y-115709558D01*
X101713760Y-116368426D01*
X101625995Y-116385883D01*
X101415951Y-116526231D01*
X101275603Y-116736275D01*
X101226320Y-116984040D01*
X101226320Y-118184040D01*
X101275603Y-118431805D01*
X101415951Y-118641849D01*
X101477080Y-118682694D01*
X101335433Y-118824342D01*
X101238760Y-119057731D01*
X101238760Y-119498290D01*
X101397510Y-119657040D01*
X102346760Y-119657040D01*
X102346760Y-119637040D01*
X102600760Y-119637040D01*
X102600760Y-119657040D01*
X103550010Y-119657040D01*
X103708760Y-119498290D01*
X103708760Y-119057731D01*
X103612087Y-118824342D01*
X103470440Y-118682694D01*
X103531569Y-118641849D01*
X103671917Y-118431805D01*
X103721200Y-118184040D01*
X103721200Y-116984040D01*
X103671917Y-116736275D01*
X103531569Y-116526231D01*
X103321525Y-116385883D01*
X103233760Y-116368426D01*
X103233760Y-115732870D01*
X103380125Y-115703757D01*
X103590169Y-115563409D01*
X103730517Y-115353365D01*
X103779800Y-115105600D01*
X103779800Y-114205600D01*
X103730517Y-113957835D01*
X103590169Y-113747791D01*
X103380125Y-113607443D01*
X103132360Y-113558160D01*
X101932360Y-113558160D01*
X101684595Y-113607443D01*
X101474551Y-113747791D01*
X101432360Y-113810934D01*
X101390169Y-113747791D01*
X101180125Y-113607443D01*
X101092360Y-113589986D01*
X101092360Y-111419474D01*
X101423361Y-111556918D01*
X101470237Y-111556959D01*
X104243663Y-114330385D01*
X104243497Y-114521464D01*
X104385542Y-114865240D01*
X104648332Y-115128489D01*
X104991860Y-115271135D01*
X105363826Y-115271459D01*
X105707602Y-115129414D01*
X105970851Y-114866624D01*
X106113497Y-114523096D01*
X106113821Y-114151130D01*
X105971776Y-113807354D01*
X105708986Y-113544105D01*
X105534558Y-113471676D01*
X102545282Y-110482400D01*
X102545322Y-110436913D01*
X102403277Y-110093137D01*
X102140487Y-109829888D01*
X101796959Y-109687242D01*
X101424993Y-109686918D01*
X101092360Y-109824359D01*
X101092360Y-104871774D01*
X101307647Y-104871962D01*
X101651423Y-104729917D01*
X101914672Y-104467127D01*
X102057318Y-104123599D01*
X102057359Y-104076723D01*
X103017882Y-103116200D01*
X114423414Y-103116200D01*
X114421802Y-103120081D01*
X114421478Y-103492047D01*
X114450557Y-103562425D01*
X112494518Y-105518464D01*
X112329771Y-105765026D01*
X112271919Y-106055865D01*
X112271919Y-113935669D01*
X112258477Y-113903137D01*
X111995687Y-113639888D01*
X111652159Y-113497242D01*
X111280193Y-113496918D01*
X110936417Y-113638963D01*
X110903242Y-113672080D01*
X108655962Y-113672080D01*
X106690231Y-111706349D01*
X107133610Y-111706349D01*
X107283251Y-112068509D01*
X107560094Y-112345835D01*
X107921992Y-112496108D01*
X108313849Y-112496450D01*
X108676009Y-112346809D01*
X108953335Y-112069966D01*
X109103608Y-111708068D01*
X109103950Y-111316211D01*
X108954309Y-110954051D01*
X108677466Y-110676725D01*
X108315568Y-110526452D01*
X107923711Y-110526110D01*
X107561551Y-110675751D01*
X107284225Y-110952594D01*
X107133952Y-111314492D01*
X107133610Y-111706349D01*
X106690231Y-111706349D01*
X103889080Y-108905198D01*
X103889080Y-107232303D01*
X103921272Y-107200167D01*
X104063918Y-106856639D01*
X104064242Y-106484673D01*
X103922197Y-106140897D01*
X103659407Y-105877648D01*
X103315879Y-105735002D01*
X102943913Y-105734678D01*
X102600137Y-105876723D01*
X102336888Y-106139513D01*
X102194242Y-106483041D01*
X102193918Y-106855007D01*
X102335963Y-107198783D01*
X102369080Y-107231958D01*
X102369080Y-109220000D01*
X102426932Y-109510839D01*
X102591679Y-109757401D01*
X107803759Y-114969481D01*
X108050320Y-115134228D01*
X108341160Y-115192080D01*
X110902897Y-115192080D01*
X110935033Y-115224272D01*
X111278561Y-115366918D01*
X111650527Y-115367242D01*
X111994303Y-115225197D01*
X112257552Y-114962407D01*
X112271919Y-114927808D01*
X112271919Y-118181219D01*
X112329771Y-118472058D01*
X112494518Y-118718620D01*
X113174133Y-119398235D01*
X113128900Y-119625640D01*
X113128900Y-120825640D01*
X113178183Y-121073405D01*
X113318531Y-121283449D01*
X113381674Y-121325640D01*
X113318531Y-121367831D01*
X113178183Y-121577875D01*
X113160726Y-121665640D01*
X112394733Y-121665640D01*
X112380829Y-121644831D01*
X112170785Y-121504483D01*
X111923020Y-121455200D01*
X110473020Y-121455200D01*
X110225255Y-121504483D01*
X110015211Y-121644831D01*
X109983266Y-121692640D01*
X108247822Y-121692640D01*
X108472161Y-121468301D01*
X108636908Y-121221740D01*
X108694760Y-120930900D01*
X108694760Y-120738390D01*
X109838020Y-120738390D01*
X109838020Y-120928950D01*
X109934693Y-121162339D01*
X110113322Y-121340967D01*
X110346711Y-121437640D01*
X110912270Y-121437640D01*
X111071020Y-121278890D01*
X111071020Y-120579640D01*
X111325020Y-120579640D01*
X111325020Y-121278890D01*
X111483770Y-121437640D01*
X112049329Y-121437640D01*
X112282718Y-121340967D01*
X112461347Y-121162339D01*
X112558020Y-120928950D01*
X112558020Y-120738390D01*
X112399270Y-120579640D01*
X111325020Y-120579640D01*
X111071020Y-120579640D01*
X109996770Y-120579640D01*
X109838020Y-120738390D01*
X108694760Y-120738390D01*
X108694760Y-119976330D01*
X109838020Y-119976330D01*
X109838020Y-120166890D01*
X109996770Y-120325640D01*
X111071020Y-120325640D01*
X111071020Y-119626390D01*
X111325020Y-119626390D01*
X111325020Y-120325640D01*
X112399270Y-120325640D01*
X112558020Y-120166890D01*
X112558020Y-119976330D01*
X112461347Y-119742941D01*
X112282718Y-119564313D01*
X112049329Y-119467640D01*
X111483770Y-119467640D01*
X111325020Y-119626390D01*
X111071020Y-119626390D01*
X110912270Y-119467640D01*
X110346711Y-119467640D01*
X110113322Y-119564313D01*
X109934693Y-119742941D01*
X109838020Y-119976330D01*
X108694760Y-119976330D01*
X108694760Y-118820666D01*
X108908451Y-118909180D01*
X109149010Y-118909180D01*
X109307760Y-118750430D01*
X109307760Y-118026180D01*
X109561760Y-118026180D01*
X109561760Y-118750430D01*
X109720510Y-118909180D01*
X109961069Y-118909180D01*
X110194458Y-118812507D01*
X110373087Y-118633879D01*
X110469760Y-118400490D01*
X110469760Y-118184930D01*
X110311010Y-118026180D01*
X109561760Y-118026180D01*
X109307760Y-118026180D01*
X109287760Y-118026180D01*
X109287760Y-117772180D01*
X109307760Y-117772180D01*
X109307760Y-117047930D01*
X109561760Y-117047930D01*
X109561760Y-117772180D01*
X110311010Y-117772180D01*
X110469760Y-117613430D01*
X110469760Y-117397870D01*
X110373087Y-117164481D01*
X110194458Y-116985853D01*
X109961069Y-116889180D01*
X109720510Y-116889180D01*
X109561760Y-117047930D01*
X109307760Y-117047930D01*
X109149010Y-116889180D01*
X108908451Y-116889180D01*
X108675062Y-116985853D01*
X108673862Y-116987053D01*
X108582525Y-116926023D01*
X108334760Y-116876740D01*
X107534760Y-116876740D01*
X107286995Y-116926023D01*
X107076951Y-117066371D01*
X106936603Y-117276415D01*
X106887320Y-117524180D01*
X106887320Y-118274180D01*
X106936603Y-118521945D01*
X107076951Y-118731989D01*
X107174760Y-118797343D01*
X107174760Y-119616355D01*
X107122718Y-119564313D01*
X106889329Y-119467640D01*
X106323770Y-119467640D01*
X106165020Y-119626390D01*
X106165020Y-120325640D01*
X106185020Y-120325640D01*
X106185020Y-120579640D01*
X106165020Y-120579640D01*
X106165020Y-121278890D01*
X106323770Y-121437640D01*
X106353218Y-121437640D01*
X106335658Y-121455200D01*
X105313020Y-121455200D01*
X105065255Y-121504483D01*
X104855211Y-121644831D01*
X104714863Y-121854875D01*
X104665580Y-122102640D01*
X104665580Y-122802640D01*
X104714863Y-123050405D01*
X104855211Y-123260449D01*
X105065255Y-123400797D01*
X105313020Y-123450080D01*
X106763020Y-123450080D01*
X107010785Y-123400797D01*
X107220829Y-123260449D01*
X107252774Y-123212640D01*
X109983266Y-123212640D01*
X110015211Y-123260449D01*
X110225255Y-123400797D01*
X110473020Y-123450080D01*
X111923020Y-123450080D01*
X112170785Y-123400797D01*
X112380829Y-123260449D01*
X112430815Y-123185640D01*
X113160726Y-123185640D01*
X113178183Y-123273405D01*
X113318531Y-123483449D01*
X113528575Y-123623797D01*
X113776340Y-123673080D01*
X114676340Y-123673080D01*
X114924105Y-123623797D01*
X115134149Y-123483449D01*
X115274497Y-123273405D01*
X115323780Y-123025640D01*
X115323780Y-121825640D01*
X115274497Y-121577875D01*
X115134149Y-121367831D01*
X115071006Y-121325640D01*
X115134149Y-121283449D01*
X115274497Y-121073405D01*
X115323780Y-120825640D01*
X115323780Y-119625640D01*
X115274497Y-119377875D01*
X115134149Y-119167831D01*
X114924105Y-119027483D01*
X114884991Y-119019703D01*
X114763741Y-118838239D01*
X113791919Y-117866417D01*
X113791919Y-116860480D01*
X114129558Y-116860480D01*
X118372539Y-121103461D01*
X118619101Y-121268208D01*
X118814700Y-121307115D01*
X118814700Y-121341060D01*
X118854991Y-121543620D01*
X117862140Y-121543620D01*
X117614375Y-121592903D01*
X117404331Y-121733251D01*
X117263983Y-121943295D01*
X117214700Y-122191060D01*
X117214700Y-123975892D01*
X95271077Y-124104156D01*
X94283149Y-123376359D01*
X94297537Y-123377776D01*
X94362091Y-123397360D01*
X94674221Y-123428110D01*
X94741380Y-123421497D01*
X94808535Y-123428110D01*
X95120685Y-123397360D01*
X95185235Y-123377778D01*
X95252370Y-123371166D01*
X95552530Y-123280116D01*
X95612041Y-123248307D01*
X95676612Y-123228718D01*
X95953222Y-123080858D01*
X96005359Y-123038068D01*
X96064844Y-123006275D01*
X96307304Y-122807305D01*
X96350114Y-122755144D01*
X96402274Y-122712337D01*
X96601254Y-122469877D01*
X96633055Y-122410382D01*
X96675853Y-122358233D01*
X96823713Y-122081613D01*
X96843302Y-122017039D01*
X96875110Y-121957526D01*
X96966150Y-121657376D01*
X96972759Y-121590250D01*
X96992340Y-121525705D01*
X97023090Y-121213554D01*
X97016477Y-121146400D01*
X97023090Y-121079241D01*
X96992340Y-120767111D01*
X96972760Y-120702571D01*
X96966152Y-120635450D01*
X96875112Y-120335290D01*
X96843300Y-120275769D01*
X96823708Y-120211188D01*
X96748125Y-120069790D01*
X101238760Y-120069790D01*
X101238760Y-120510349D01*
X101335433Y-120743738D01*
X101514061Y-120922367D01*
X101747450Y-121019040D01*
X102188010Y-121019040D01*
X102346760Y-120860290D01*
X102346760Y-119911040D01*
X102600760Y-119911040D01*
X102600760Y-120860290D01*
X102759510Y-121019040D01*
X103200070Y-121019040D01*
X103433459Y-120922367D01*
X103612087Y-120743738D01*
X103614302Y-120738390D01*
X104678020Y-120738390D01*
X104678020Y-120928950D01*
X104774693Y-121162339D01*
X104953322Y-121340967D01*
X105186711Y-121437640D01*
X105752270Y-121437640D01*
X105911020Y-121278890D01*
X105911020Y-120579640D01*
X104836770Y-120579640D01*
X104678020Y-120738390D01*
X103614302Y-120738390D01*
X103708760Y-120510349D01*
X103708760Y-120069790D01*
X103615300Y-119976330D01*
X104678020Y-119976330D01*
X104678020Y-120166890D01*
X104836770Y-120325640D01*
X105911020Y-120325640D01*
X105911020Y-119626390D01*
X105752270Y-119467640D01*
X105186711Y-119467640D01*
X104953322Y-119564313D01*
X104774693Y-119742941D01*
X104678020Y-119976330D01*
X103615300Y-119976330D01*
X103550010Y-119911040D01*
X102600760Y-119911040D01*
X102346760Y-119911040D01*
X101397510Y-119911040D01*
X101238760Y-120069790D01*
X96748125Y-120069790D01*
X96675848Y-119934578D01*
X96633052Y-119882434D01*
X96601254Y-119822943D01*
X96402274Y-119580483D01*
X96350119Y-119537681D01*
X96307317Y-119485526D01*
X96064857Y-119286546D01*
X96005366Y-119254748D01*
X95953222Y-119211952D01*
X95676612Y-119064092D01*
X95612031Y-119044500D01*
X95552510Y-119012688D01*
X95252350Y-118921648D01*
X95185230Y-118915040D01*
X95120689Y-118895460D01*
X94808559Y-118864710D01*
X94741400Y-118871323D01*
X94674246Y-118864710D01*
X94362095Y-118895460D01*
X94297550Y-118915041D01*
X94230424Y-118921650D01*
X93930274Y-119012690D01*
X93870761Y-119044498D01*
X93806187Y-119064087D01*
X93529567Y-119211947D01*
X93477418Y-119254745D01*
X93417923Y-119286546D01*
X93175463Y-119485526D01*
X93132656Y-119537686D01*
X93080495Y-119580496D01*
X92881525Y-119822956D01*
X92849732Y-119882441D01*
X92806942Y-119934578D01*
X92659082Y-120211188D01*
X92639493Y-120275759D01*
X92607684Y-120335270D01*
X92516634Y-120635430D01*
X92510023Y-120702561D01*
X92490440Y-120767111D01*
X92459690Y-121079241D01*
X92466303Y-121146400D01*
X92459690Y-121213555D01*
X92490440Y-121525705D01*
X92510024Y-121590260D01*
X92516636Y-121657396D01*
X92607686Y-121957546D01*
X92639491Y-122017049D01*
X92659077Y-122081613D01*
X92745758Y-122243777D01*
X91826359Y-121566465D01*
X91857249Y-114455840D01*
X93600160Y-114455840D01*
X93600160Y-116155840D01*
X93649443Y-116403605D01*
X93789791Y-116613649D01*
X93999835Y-116753997D01*
X94247600Y-116803280D01*
X95947600Y-116803280D01*
X96195365Y-116753997D01*
X96405409Y-116613649D01*
X96545757Y-116403605D01*
X96595040Y-116155840D01*
X96595040Y-114455840D01*
X96545757Y-114208075D01*
X96405409Y-113998031D01*
X96195365Y-113857683D01*
X96091892Y-113837101D01*
X96369245Y-113532764D01*
X96539076Y-113122730D01*
X96417755Y-112892840D01*
X95224600Y-112892840D01*
X95224600Y-112912840D01*
X94970600Y-112912840D01*
X94970600Y-112892840D01*
X93777445Y-112892840D01*
X93656124Y-113122730D01*
X93825955Y-113532764D01*
X94103308Y-113837101D01*
X93999835Y-113857683D01*
X93789791Y-113998031D01*
X93649443Y-114208075D01*
X93600160Y-114455840D01*
X91857249Y-114455840D01*
X91875625Y-110225840D01*
X93583507Y-110225840D01*
X93696546Y-110794125D01*
X94018453Y-111275894D01*
X94359153Y-111503542D01*
X94216242Y-111570657D01*
X93825955Y-111998916D01*
X93656124Y-112408950D01*
X93777445Y-112638840D01*
X94970600Y-112638840D01*
X94970600Y-112618840D01*
X95224600Y-112618840D01*
X95224600Y-112638840D01*
X96417755Y-112638840D01*
X96539076Y-112408950D01*
X96369245Y-111998916D01*
X95978958Y-111570657D01*
X95836047Y-111503542D01*
X96176747Y-111275894D01*
X96498654Y-110794125D01*
X96611693Y-110225840D01*
X96498654Y-109657555D01*
X96176747Y-109175786D01*
X95694978Y-108853879D01*
X95126693Y-108740840D01*
X95068507Y-108740840D01*
X94500222Y-108853879D01*
X94018453Y-109175786D01*
X93696546Y-109657555D01*
X93583507Y-110225840D01*
X91875625Y-110225840D01*
X91896727Y-105368582D01*
X92468355Y-105940210D01*
X92714917Y-106104957D01*
X93005756Y-106162809D01*
X93986731Y-106162809D01*
X94013031Y-106202169D01*
X94223075Y-106342517D01*
X94470840Y-106391800D01*
X95270840Y-106391800D01*
X95518605Y-106342517D01*
X95620840Y-106274205D01*
X95723075Y-106342517D01*
X95970840Y-106391800D01*
X96770840Y-106391800D01*
X97018605Y-106342517D01*
X97228649Y-106202169D01*
X97368997Y-105992125D01*
X97418280Y-105744360D01*
X97418280Y-105421722D01*
X98069602Y-104770400D01*
X98234349Y-104523838D01*
X98292201Y-104232999D01*
X98292201Y-100894521D01*
X98234349Y-100603682D01*
X98234349Y-100603681D01*
X98069602Y-100357120D01*
X97994601Y-100282119D01*
X97748039Y-100117372D01*
X97700878Y-100107991D01*
X97698555Y-99846273D01*
X97689432Y-99800122D01*
X97662367Y-99758613D01*
X97621478Y-99730622D01*
X97572989Y-99720408D01*
X97156387Y-99715720D01*
X97145527Y-99689502D01*
X96966899Y-99510873D01*
X96733510Y-99414200D01*
X96717200Y-99414200D01*
X96717200Y-98665730D01*
X96741680Y-98641250D01*
X96741680Y-97917000D01*
X96995680Y-97917000D01*
X96995680Y-98641250D01*
X97154430Y-98800000D01*
X97394989Y-98800000D01*
X97628378Y-98703327D01*
X97807007Y-98524699D01*
X97903680Y-98291310D01*
X97903680Y-98075750D01*
X97744930Y-97917000D01*
X96995680Y-97917000D01*
X96741680Y-97917000D01*
X96721680Y-97917000D01*
X96721680Y-97663000D01*
X96741680Y-97663000D01*
X96741680Y-96938750D01*
X96995680Y-96938750D01*
X96995680Y-97663000D01*
X97744930Y-97663000D01*
X97903680Y-97504250D01*
X97903680Y-97288690D01*
X97807007Y-97055301D01*
X97628378Y-96876673D01*
X97394989Y-96780000D01*
X97154430Y-96780000D01*
X96995680Y-96938750D01*
X96741680Y-96938750D01*
X96582930Y-96780000D01*
X96342371Y-96780000D01*
X96108982Y-96876673D01*
X96107782Y-96877873D01*
X96016445Y-96816843D01*
X95768680Y-96767560D01*
X94968680Y-96767560D01*
X94720915Y-96816843D01*
X94510871Y-96957191D01*
X94370523Y-97167235D01*
X94321240Y-97415000D01*
X94321240Y-97708937D01*
X94214562Y-97602259D01*
X93968000Y-97437512D01*
X93677161Y-97379660D01*
X92931559Y-97379660D01*
X92640720Y-97437512D01*
X92394158Y-97602259D01*
X91928443Y-98067974D01*
X92013832Y-78412292D01*
X94169402Y-75966360D01*
X98060536Y-75969093D01*
X98060536Y-75969093D01*
G37*
X98060536Y-75969093D02*
X97932300Y-76054778D01*
X96907159Y-77079919D01*
X96742412Y-77326481D01*
X96684560Y-77617320D01*
X96684560Y-77950876D01*
X96675843Y-77934569D01*
X96633067Y-77882451D01*
X96601289Y-77822986D01*
X96402309Y-77580486D01*
X96350088Y-77537622D01*
X96307213Y-77485400D01*
X96064753Y-77286500D01*
X96005347Y-77254762D01*
X95953290Y-77212028D01*
X95676680Y-77064128D01*
X95612023Y-77044505D01*
X95552430Y-77012664D01*
X95252270Y-76921664D01*
X95185243Y-76915073D01*
X95120797Y-76895511D01*
X94808667Y-76864711D01*
X94741405Y-76871323D01*
X94674137Y-76864710D01*
X94361987Y-76895510D01*
X94297534Y-76915074D01*
X94230504Y-76921666D01*
X93930354Y-77012666D01*
X93870769Y-77044503D01*
X93806120Y-77064123D01*
X93529499Y-77212023D01*
X93477437Y-77254760D01*
X93418027Y-77286500D01*
X93175567Y-77485400D01*
X93132688Y-77537627D01*
X93080460Y-77580499D01*
X92881490Y-77822999D01*
X92849717Y-77882458D01*
X92806947Y-77934569D01*
X92659087Y-78211169D01*
X92639492Y-78275757D01*
X92607677Y-78335284D01*
X92516627Y-78635484D01*
X92510020Y-78702600D01*
X92490441Y-78767135D01*
X92459691Y-79079235D01*
X92466304Y-79146400D01*
X92459691Y-79213565D01*
X92490441Y-79525665D01*
X92510020Y-79590200D01*
X92516627Y-79657316D01*
X92607677Y-79957516D01*
X92639492Y-80017043D01*
X92659087Y-80081631D01*
X92806947Y-80358231D01*
X92849717Y-80410342D01*
X92881490Y-80469801D01*
X93080460Y-80712301D01*
X93132625Y-80755121D01*
X93175437Y-80807293D01*
X93417897Y-81006292D01*
X93477455Y-81038130D01*
X93529669Y-81080967D01*
X93806290Y-81228768D01*
X93870755Y-81248312D01*
X93930154Y-81280073D01*
X94230304Y-81371174D01*
X94297541Y-81377806D01*
X94362199Y-81397411D01*
X94674329Y-81428110D01*
X94741375Y-81421497D01*
X94808426Y-81428111D01*
X95120576Y-81397411D01*
X95185234Y-81377807D01*
X95252470Y-81371175D01*
X95552630Y-81280075D01*
X95612040Y-81248309D01*
X95676510Y-81228762D01*
X95953120Y-81080962D01*
X96005326Y-81038130D01*
X96064883Y-81006293D01*
X96307343Y-80807293D01*
X96350151Y-80755126D01*
X96402309Y-80712314D01*
X96601289Y-80469814D01*
X96633067Y-80410349D01*
X96675843Y-80358231D01*
X96684560Y-80341924D01*
X96684560Y-81145013D01*
X96586282Y-81144927D01*
X96242506Y-81286972D01*
X95979257Y-81549762D01*
X95836611Y-81893290D01*
X95836570Y-81940166D01*
X95471816Y-82304920D01*
X94791803Y-82304920D01*
X94726449Y-82207111D01*
X94516405Y-82066763D01*
X94268640Y-82017480D01*
X93518640Y-82017480D01*
X93270875Y-82066763D01*
X93060831Y-82207111D01*
X92920483Y-82417155D01*
X92871200Y-82664920D01*
X92871200Y-83037558D01*
X92656238Y-83252520D01*
X92491491Y-83499082D01*
X92433639Y-83789921D01*
X92433639Y-87070779D01*
X92491491Y-87361618D01*
X92656238Y-87608180D01*
X92758259Y-87710201D01*
X92991915Y-87866325D01*
X92910660Y-88062491D01*
X92910660Y-88157050D01*
X93069410Y-88315800D01*
X93990160Y-88315800D01*
X93990160Y-88295800D01*
X94244160Y-88295800D01*
X94244160Y-88315800D01*
X94264160Y-88315800D01*
X94264160Y-88569800D01*
X94244160Y-88569800D01*
X94244160Y-88589800D01*
X93990160Y-88589800D01*
X93990160Y-88569800D01*
X93069410Y-88569800D01*
X92910660Y-88728550D01*
X92910660Y-88823109D01*
X93007333Y-89056498D01*
X93033367Y-89082532D01*
X92947503Y-89211035D01*
X92898220Y-89458800D01*
X92898220Y-89966800D01*
X92947503Y-90214565D01*
X93036528Y-90347800D01*
X92947503Y-90481035D01*
X92898220Y-90728800D01*
X92898220Y-91236800D01*
X92947503Y-91484565D01*
X93087851Y-91694609D01*
X93297895Y-91834957D01*
X93345532Y-91844433D01*
X93182728Y-92006953D01*
X93040082Y-92350481D01*
X93039758Y-92722447D01*
X93181803Y-93066223D01*
X93444593Y-93329472D01*
X93788121Y-93472118D01*
X93816094Y-93472142D01*
X93771240Y-93697640D01*
X93771240Y-94597640D01*
X93820523Y-94845405D01*
X93960871Y-95055449D01*
X94170915Y-95195797D01*
X94418680Y-95245080D01*
X95618680Y-95245080D01*
X95866445Y-95195797D01*
X96076489Y-95055449D01*
X96118680Y-94992306D01*
X96160871Y-95055449D01*
X96370915Y-95195797D01*
X96618680Y-95245080D01*
X97818680Y-95245080D01*
X98066445Y-95195797D01*
X98276489Y-95055449D01*
X98375253Y-94907640D01*
X102611078Y-94907640D01*
X104068478Y-96365040D01*
X104068438Y-96410527D01*
X104210483Y-96754303D01*
X104473273Y-97017552D01*
X104816801Y-97160198D01*
X105188767Y-97160522D01*
X105532543Y-97018477D01*
X105795792Y-96755687D01*
X105938438Y-96412159D01*
X105938762Y-96040193D01*
X105796717Y-95696417D01*
X105533927Y-95433168D01*
X105190399Y-95290522D01*
X105143523Y-95290481D01*
X103463281Y-93610239D01*
X103216719Y-93445492D01*
X102925880Y-93387640D01*
X98375253Y-93387640D01*
X98276489Y-93239831D01*
X98066445Y-93099483D01*
X97978680Y-93082026D01*
X97978680Y-92496820D01*
X97920828Y-92205981D01*
X97756081Y-91959419D01*
X97065212Y-91268550D01*
X99260660Y-91268550D01*
X99260660Y-91363109D01*
X99357333Y-91596498D01*
X99535961Y-91775127D01*
X99769350Y-91871800D01*
X100181410Y-91871800D01*
X100340160Y-91713050D01*
X100340160Y-91109800D01*
X100594160Y-91109800D01*
X100594160Y-91713050D01*
X100752910Y-91871800D01*
X101164970Y-91871800D01*
X101398359Y-91775127D01*
X101576987Y-91596498D01*
X101673660Y-91363109D01*
X101673660Y-91268550D01*
X101514910Y-91109800D01*
X100594160Y-91109800D01*
X100340160Y-91109800D01*
X99419410Y-91109800D01*
X99260660Y-91268550D01*
X97065212Y-91268550D01*
X95795212Y-89998550D01*
X99260660Y-89998550D01*
X99260660Y-90093109D01*
X99357333Y-90326498D01*
X99378635Y-90347800D01*
X99357333Y-90369102D01*
X99260660Y-90602491D01*
X99260660Y-90697050D01*
X99419410Y-90855800D01*
X100340160Y-90855800D01*
X100340160Y-89839800D01*
X100594160Y-89839800D01*
X100594160Y-90855800D01*
X101514910Y-90855800D01*
X101673660Y-90697050D01*
X101673660Y-90602491D01*
X101576987Y-90369102D01*
X101555685Y-90347800D01*
X101576987Y-90326498D01*
X101673660Y-90093109D01*
X101673660Y-89998550D01*
X101514910Y-89839800D01*
X100594160Y-89839800D01*
X100340160Y-89839800D01*
X99419410Y-89839800D01*
X99260660Y-89998550D01*
X95795212Y-89998550D01*
X95761462Y-89964800D01*
X99587241Y-86139021D01*
X99751988Y-85892459D01*
X99809840Y-85601620D01*
X99809840Y-85022473D01*
X99957649Y-84923709D01*
X100097997Y-84713665D01*
X100147280Y-84465900D01*
X100147280Y-83265900D01*
X100097997Y-83018135D01*
X99957649Y-82808091D01*
X99894506Y-82765900D01*
X99957649Y-82723709D01*
X100097997Y-82513665D01*
X100117794Y-82414140D01*
X101364787Y-82414140D01*
X101413562Y-82487136D01*
X101343998Y-82556700D01*
X100971360Y-82556700D01*
X100723595Y-82605983D01*
X100513551Y-82746331D01*
X100373203Y-82956375D01*
X100323920Y-83204140D01*
X100323920Y-84104140D01*
X100373203Y-84351905D01*
X100513551Y-84561949D01*
X100636800Y-84644302D01*
X100636800Y-85157457D01*
X100604608Y-85189593D01*
X100461962Y-85533121D01*
X100461638Y-85905087D01*
X100603683Y-86248863D01*
X100626141Y-86271360D01*
X99895660Y-86271360D01*
X99647895Y-86320643D01*
X99437851Y-86460991D01*
X99297503Y-86671035D01*
X99248220Y-86918800D01*
X99248220Y-87426800D01*
X99297503Y-87674565D01*
X99386528Y-87807800D01*
X99297503Y-87941035D01*
X99248220Y-88188800D01*
X99248220Y-88696800D01*
X99297503Y-88944565D01*
X99383367Y-89073068D01*
X99357333Y-89099102D01*
X99260660Y-89332491D01*
X99260660Y-89427050D01*
X99419410Y-89585800D01*
X100340160Y-89585800D01*
X100340160Y-89565800D01*
X100594160Y-89565800D01*
X100594160Y-89585800D01*
X101514910Y-89585800D01*
X101673660Y-89427050D01*
X101673660Y-89332491D01*
X101619940Y-89202800D01*
X106029760Y-89202800D01*
X106320599Y-89144948D01*
X106567161Y-88980201D01*
X107086242Y-88461120D01*
X107293117Y-88461120D01*
X107114771Y-88639155D01*
X106933986Y-89074535D01*
X106933574Y-89545957D01*
X107015933Y-89745280D01*
X104722783Y-89745280D01*
X104690647Y-89713088D01*
X104347119Y-89570442D01*
X103975153Y-89570118D01*
X103631377Y-89712163D01*
X103368128Y-89974953D01*
X103225482Y-90318481D01*
X103225158Y-90690447D01*
X103367203Y-91034223D01*
X103629993Y-91297472D01*
X103973521Y-91440118D01*
X104345487Y-91440442D01*
X104689263Y-91298397D01*
X104722438Y-91265280D01*
X113757040Y-91265280D01*
X114226813Y-91735053D01*
X114091838Y-91869793D01*
X113949192Y-92213321D01*
X113949151Y-92260197D01*
X105623348Y-100586000D01*
X100782120Y-100586000D01*
X100491281Y-100643852D01*
X100244719Y-100808599D01*
X99794959Y-101258359D01*
X99630212Y-101504921D01*
X99572360Y-101795760D01*
X99572360Y-113589986D01*
X99484595Y-113607443D01*
X99274551Y-113747791D01*
X99134203Y-113957835D01*
X99084920Y-114205600D01*
X99084920Y-115105600D01*
X99134203Y-115353365D01*
X99274551Y-115563409D01*
X99484595Y-115703757D01*
X99732360Y-115753040D01*
X100932360Y-115753040D01*
X101180125Y-115703757D01*
X101390169Y-115563409D01*
X101432360Y-115500266D01*
X101474551Y-115563409D01*
X101684595Y-115703757D01*
X101713760Y-115709558D01*
X101713760Y-116368426D01*
X101625995Y-116385883D01*
X101415951Y-116526231D01*
X101275603Y-116736275D01*
X101226320Y-116984040D01*
X101226320Y-118184040D01*
X101275603Y-118431805D01*
X101415951Y-118641849D01*
X101477080Y-118682694D01*
X101335433Y-118824342D01*
X101238760Y-119057731D01*
X101238760Y-119498290D01*
X101397510Y-119657040D01*
X102346760Y-119657040D01*
X102346760Y-119637040D01*
X102600760Y-119637040D01*
X102600760Y-119657040D01*
X103550010Y-119657040D01*
X103708760Y-119498290D01*
X103708760Y-119057731D01*
X103612087Y-118824342D01*
X103470440Y-118682694D01*
X103531569Y-118641849D01*
X103671917Y-118431805D01*
X103721200Y-118184040D01*
X103721200Y-116984040D01*
X103671917Y-116736275D01*
X103531569Y-116526231D01*
X103321525Y-116385883D01*
X103233760Y-116368426D01*
X103233760Y-115732870D01*
X103380125Y-115703757D01*
X103590169Y-115563409D01*
X103730517Y-115353365D01*
X103779800Y-115105600D01*
X103779800Y-114205600D01*
X103730517Y-113957835D01*
X103590169Y-113747791D01*
X103380125Y-113607443D01*
X103132360Y-113558160D01*
X101932360Y-113558160D01*
X101684595Y-113607443D01*
X101474551Y-113747791D01*
X101432360Y-113810934D01*
X101390169Y-113747791D01*
X101180125Y-113607443D01*
X101092360Y-113589986D01*
X101092360Y-111419474D01*
X101423361Y-111556918D01*
X101470237Y-111556959D01*
X104243663Y-114330385D01*
X104243497Y-114521464D01*
X104385542Y-114865240D01*
X104648332Y-115128489D01*
X104991860Y-115271135D01*
X105363826Y-115271459D01*
X105707602Y-115129414D01*
X105970851Y-114866624D01*
X106113497Y-114523096D01*
X106113821Y-114151130D01*
X105971776Y-113807354D01*
X105708986Y-113544105D01*
X105534558Y-113471676D01*
X102545282Y-110482400D01*
X102545322Y-110436913D01*
X102403277Y-110093137D01*
X102140487Y-109829888D01*
X101796959Y-109687242D01*
X101424993Y-109686918D01*
X101092360Y-109824359D01*
X101092360Y-104871774D01*
X101307647Y-104871962D01*
X101651423Y-104729917D01*
X101914672Y-104467127D01*
X102057318Y-104123599D01*
X102057359Y-104076723D01*
X103017882Y-103116200D01*
X114423414Y-103116200D01*
X114421802Y-103120081D01*
X114421478Y-103492047D01*
X114450557Y-103562425D01*
X112494518Y-105518464D01*
X112329771Y-105765026D01*
X112271919Y-106055865D01*
X112271919Y-113935669D01*
X112258477Y-113903137D01*
X111995687Y-113639888D01*
X111652159Y-113497242D01*
X111280193Y-113496918D01*
X110936417Y-113638963D01*
X110903242Y-113672080D01*
X108655962Y-113672080D01*
X106690231Y-111706349D01*
X107133610Y-111706349D01*
X107283251Y-112068509D01*
X107560094Y-112345835D01*
X107921992Y-112496108D01*
X108313849Y-112496450D01*
X108676009Y-112346809D01*
X108953335Y-112069966D01*
X109103608Y-111708068D01*
X109103950Y-111316211D01*
X108954309Y-110954051D01*
X108677466Y-110676725D01*
X108315568Y-110526452D01*
X107923711Y-110526110D01*
X107561551Y-110675751D01*
X107284225Y-110952594D01*
X107133952Y-111314492D01*
X107133610Y-111706349D01*
X106690231Y-111706349D01*
X103889080Y-108905198D01*
X103889080Y-107232303D01*
X103921272Y-107200167D01*
X104063918Y-106856639D01*
X104064242Y-106484673D01*
X103922197Y-106140897D01*
X103659407Y-105877648D01*
X103315879Y-105735002D01*
X102943913Y-105734678D01*
X102600137Y-105876723D01*
X102336888Y-106139513D01*
X102194242Y-106483041D01*
X102193918Y-106855007D01*
X102335963Y-107198783D01*
X102369080Y-107231958D01*
X102369080Y-109220000D01*
X102426932Y-109510839D01*
X102591679Y-109757401D01*
X107803759Y-114969481D01*
X108050320Y-115134228D01*
X108341160Y-115192080D01*
X110902897Y-115192080D01*
X110935033Y-115224272D01*
X111278561Y-115366918D01*
X111650527Y-115367242D01*
X111994303Y-115225197D01*
X112257552Y-114962407D01*
X112271919Y-114927808D01*
X112271919Y-118181219D01*
X112329771Y-118472058D01*
X112494518Y-118718620D01*
X113174133Y-119398235D01*
X113128900Y-119625640D01*
X113128900Y-120825640D01*
X113178183Y-121073405D01*
X113318531Y-121283449D01*
X113381674Y-121325640D01*
X113318531Y-121367831D01*
X113178183Y-121577875D01*
X113160726Y-121665640D01*
X112394733Y-121665640D01*
X112380829Y-121644831D01*
X112170785Y-121504483D01*
X111923020Y-121455200D01*
X110473020Y-121455200D01*
X110225255Y-121504483D01*
X110015211Y-121644831D01*
X109983266Y-121692640D01*
X108247822Y-121692640D01*
X108472161Y-121468301D01*
X108636908Y-121221740D01*
X108694760Y-120930900D01*
X108694760Y-120738390D01*
X109838020Y-120738390D01*
X109838020Y-120928950D01*
X109934693Y-121162339D01*
X110113322Y-121340967D01*
X110346711Y-121437640D01*
X110912270Y-121437640D01*
X111071020Y-121278890D01*
X111071020Y-120579640D01*
X111325020Y-120579640D01*
X111325020Y-121278890D01*
X111483770Y-121437640D01*
X112049329Y-121437640D01*
X112282718Y-121340967D01*
X112461347Y-121162339D01*
X112558020Y-120928950D01*
X112558020Y-120738390D01*
X112399270Y-120579640D01*
X111325020Y-120579640D01*
X111071020Y-120579640D01*
X109996770Y-120579640D01*
X109838020Y-120738390D01*
X108694760Y-120738390D01*
X108694760Y-119976330D01*
X109838020Y-119976330D01*
X109838020Y-120166890D01*
X109996770Y-120325640D01*
X111071020Y-120325640D01*
X111071020Y-119626390D01*
X111325020Y-119626390D01*
X111325020Y-120325640D01*
X112399270Y-120325640D01*
X112558020Y-120166890D01*
X112558020Y-119976330D01*
X112461347Y-119742941D01*
X112282718Y-119564313D01*
X112049329Y-119467640D01*
X111483770Y-119467640D01*
X111325020Y-119626390D01*
X111071020Y-119626390D01*
X110912270Y-119467640D01*
X110346711Y-119467640D01*
X110113322Y-119564313D01*
X109934693Y-119742941D01*
X109838020Y-119976330D01*
X108694760Y-119976330D01*
X108694760Y-118820666D01*
X108908451Y-118909180D01*
X109149010Y-118909180D01*
X109307760Y-118750430D01*
X109307760Y-118026180D01*
X109561760Y-118026180D01*
X109561760Y-118750430D01*
X109720510Y-118909180D01*
X109961069Y-118909180D01*
X110194458Y-118812507D01*
X110373087Y-118633879D01*
X110469760Y-118400490D01*
X110469760Y-118184930D01*
X110311010Y-118026180D01*
X109561760Y-118026180D01*
X109307760Y-118026180D01*
X109287760Y-118026180D01*
X109287760Y-117772180D01*
X109307760Y-117772180D01*
X109307760Y-117047930D01*
X109561760Y-117047930D01*
X109561760Y-117772180D01*
X110311010Y-117772180D01*
X110469760Y-117613430D01*
X110469760Y-117397870D01*
X110373087Y-117164481D01*
X110194458Y-116985853D01*
X109961069Y-116889180D01*
X109720510Y-116889180D01*
X109561760Y-117047930D01*
X109307760Y-117047930D01*
X109149010Y-116889180D01*
X108908451Y-116889180D01*
X108675062Y-116985853D01*
X108673862Y-116987053D01*
X108582525Y-116926023D01*
X108334760Y-116876740D01*
X107534760Y-116876740D01*
X107286995Y-116926023D01*
X107076951Y-117066371D01*
X106936603Y-117276415D01*
X106887320Y-117524180D01*
X106887320Y-118274180D01*
X106936603Y-118521945D01*
X107076951Y-118731989D01*
X107174760Y-118797343D01*
X107174760Y-119616355D01*
X107122718Y-119564313D01*
X106889329Y-119467640D01*
X106323770Y-119467640D01*
X106165020Y-119626390D01*
X106165020Y-120325640D01*
X106185020Y-120325640D01*
X106185020Y-120579640D01*
X106165020Y-120579640D01*
X106165020Y-121278890D01*
X106323770Y-121437640D01*
X106353218Y-121437640D01*
X106335658Y-121455200D01*
X105313020Y-121455200D01*
X105065255Y-121504483D01*
X104855211Y-121644831D01*
X104714863Y-121854875D01*
X104665580Y-122102640D01*
X104665580Y-122802640D01*
X104714863Y-123050405D01*
X104855211Y-123260449D01*
X105065255Y-123400797D01*
X105313020Y-123450080D01*
X106763020Y-123450080D01*
X107010785Y-123400797D01*
X107220829Y-123260449D01*
X107252774Y-123212640D01*
X109983266Y-123212640D01*
X110015211Y-123260449D01*
X110225255Y-123400797D01*
X110473020Y-123450080D01*
X111923020Y-123450080D01*
X112170785Y-123400797D01*
X112380829Y-123260449D01*
X112430815Y-123185640D01*
X113160726Y-123185640D01*
X113178183Y-123273405D01*
X113318531Y-123483449D01*
X113528575Y-123623797D01*
X113776340Y-123673080D01*
X114676340Y-123673080D01*
X114924105Y-123623797D01*
X115134149Y-123483449D01*
X115274497Y-123273405D01*
X115323780Y-123025640D01*
X115323780Y-121825640D01*
X115274497Y-121577875D01*
X115134149Y-121367831D01*
X115071006Y-121325640D01*
X115134149Y-121283449D01*
X115274497Y-121073405D01*
X115323780Y-120825640D01*
X115323780Y-119625640D01*
X115274497Y-119377875D01*
X115134149Y-119167831D01*
X114924105Y-119027483D01*
X114884991Y-119019703D01*
X114763741Y-118838239D01*
X113791919Y-117866417D01*
X113791919Y-116860480D01*
X114129558Y-116860480D01*
X118372539Y-121103461D01*
X118619101Y-121268208D01*
X118814700Y-121307115D01*
X118814700Y-121341060D01*
X118854991Y-121543620D01*
X117862140Y-121543620D01*
X117614375Y-121592903D01*
X117404331Y-121733251D01*
X117263983Y-121943295D01*
X117214700Y-122191060D01*
X117214700Y-123975892D01*
X95271077Y-124104156D01*
X94283149Y-123376359D01*
X94297537Y-123377776D01*
X94362091Y-123397360D01*
X94674221Y-123428110D01*
X94741380Y-123421497D01*
X94808535Y-123428110D01*
X95120685Y-123397360D01*
X95185235Y-123377778D01*
X95252370Y-123371166D01*
X95552530Y-123280116D01*
X95612041Y-123248307D01*
X95676612Y-123228718D01*
X95953222Y-123080858D01*
X96005359Y-123038068D01*
X96064844Y-123006275D01*
X96307304Y-122807305D01*
X96350114Y-122755144D01*
X96402274Y-122712337D01*
X96601254Y-122469877D01*
X96633055Y-122410382D01*
X96675853Y-122358233D01*
X96823713Y-122081613D01*
X96843302Y-122017039D01*
X96875110Y-121957526D01*
X96966150Y-121657376D01*
X96972759Y-121590250D01*
X96992340Y-121525705D01*
X97023090Y-121213554D01*
X97016477Y-121146400D01*
X97023090Y-121079241D01*
X96992340Y-120767111D01*
X96972760Y-120702571D01*
X96966152Y-120635450D01*
X96875112Y-120335290D01*
X96843300Y-120275769D01*
X96823708Y-120211188D01*
X96748125Y-120069790D01*
X101238760Y-120069790D01*
X101238760Y-120510349D01*
X101335433Y-120743738D01*
X101514061Y-120922367D01*
X101747450Y-121019040D01*
X102188010Y-121019040D01*
X102346760Y-120860290D01*
X102346760Y-119911040D01*
X102600760Y-119911040D01*
X102600760Y-120860290D01*
X102759510Y-121019040D01*
X103200070Y-121019040D01*
X103433459Y-120922367D01*
X103612087Y-120743738D01*
X103614302Y-120738390D01*
X104678020Y-120738390D01*
X104678020Y-120928950D01*
X104774693Y-121162339D01*
X104953322Y-121340967D01*
X105186711Y-121437640D01*
X105752270Y-121437640D01*
X105911020Y-121278890D01*
X105911020Y-120579640D01*
X104836770Y-120579640D01*
X104678020Y-120738390D01*
X103614302Y-120738390D01*
X103708760Y-120510349D01*
X103708760Y-120069790D01*
X103615300Y-119976330D01*
X104678020Y-119976330D01*
X104678020Y-120166890D01*
X104836770Y-120325640D01*
X105911020Y-120325640D01*
X105911020Y-119626390D01*
X105752270Y-119467640D01*
X105186711Y-119467640D01*
X104953322Y-119564313D01*
X104774693Y-119742941D01*
X104678020Y-119976330D01*
X103615300Y-119976330D01*
X103550010Y-119911040D01*
X102600760Y-119911040D01*
X102346760Y-119911040D01*
X101397510Y-119911040D01*
X101238760Y-120069790D01*
X96748125Y-120069790D01*
X96675848Y-119934578D01*
X96633052Y-119882434D01*
X96601254Y-119822943D01*
X96402274Y-119580483D01*
X96350119Y-119537681D01*
X96307317Y-119485526D01*
X96064857Y-119286546D01*
X96005366Y-119254748D01*
X95953222Y-119211952D01*
X95676612Y-119064092D01*
X95612031Y-119044500D01*
X95552510Y-119012688D01*
X95252350Y-118921648D01*
X95185230Y-118915040D01*
X95120689Y-118895460D01*
X94808559Y-118864710D01*
X94741400Y-118871323D01*
X94674246Y-118864710D01*
X94362095Y-118895460D01*
X94297550Y-118915041D01*
X94230424Y-118921650D01*
X93930274Y-119012690D01*
X93870761Y-119044498D01*
X93806187Y-119064087D01*
X93529567Y-119211947D01*
X93477418Y-119254745D01*
X93417923Y-119286546D01*
X93175463Y-119485526D01*
X93132656Y-119537686D01*
X93080495Y-119580496D01*
X92881525Y-119822956D01*
X92849732Y-119882441D01*
X92806942Y-119934578D01*
X92659082Y-120211188D01*
X92639493Y-120275759D01*
X92607684Y-120335270D01*
X92516634Y-120635430D01*
X92510023Y-120702561D01*
X92490440Y-120767111D01*
X92459690Y-121079241D01*
X92466303Y-121146400D01*
X92459690Y-121213555D01*
X92490440Y-121525705D01*
X92510024Y-121590260D01*
X92516636Y-121657396D01*
X92607686Y-121957546D01*
X92639491Y-122017049D01*
X92659077Y-122081613D01*
X92745758Y-122243777D01*
X91826359Y-121566465D01*
X91857249Y-114455840D01*
X93600160Y-114455840D01*
X93600160Y-116155840D01*
X93649443Y-116403605D01*
X93789791Y-116613649D01*
X93999835Y-116753997D01*
X94247600Y-116803280D01*
X95947600Y-116803280D01*
X96195365Y-116753997D01*
X96405409Y-116613649D01*
X96545757Y-116403605D01*
X96595040Y-116155840D01*
X96595040Y-114455840D01*
X96545757Y-114208075D01*
X96405409Y-113998031D01*
X96195365Y-113857683D01*
X96091892Y-113837101D01*
X96369245Y-113532764D01*
X96539076Y-113122730D01*
X96417755Y-112892840D01*
X95224600Y-112892840D01*
X95224600Y-112912840D01*
X94970600Y-112912840D01*
X94970600Y-112892840D01*
X93777445Y-112892840D01*
X93656124Y-113122730D01*
X93825955Y-113532764D01*
X94103308Y-113837101D01*
X93999835Y-113857683D01*
X93789791Y-113998031D01*
X93649443Y-114208075D01*
X93600160Y-114455840D01*
X91857249Y-114455840D01*
X91875625Y-110225840D01*
X93583507Y-110225840D01*
X93696546Y-110794125D01*
X94018453Y-111275894D01*
X94359153Y-111503542D01*
X94216242Y-111570657D01*
X93825955Y-111998916D01*
X93656124Y-112408950D01*
X93777445Y-112638840D01*
X94970600Y-112638840D01*
X94970600Y-112618840D01*
X95224600Y-112618840D01*
X95224600Y-112638840D01*
X96417755Y-112638840D01*
X96539076Y-112408950D01*
X96369245Y-111998916D01*
X95978958Y-111570657D01*
X95836047Y-111503542D01*
X96176747Y-111275894D01*
X96498654Y-110794125D01*
X96611693Y-110225840D01*
X96498654Y-109657555D01*
X96176747Y-109175786D01*
X95694978Y-108853879D01*
X95126693Y-108740840D01*
X95068507Y-108740840D01*
X94500222Y-108853879D01*
X94018453Y-109175786D01*
X93696546Y-109657555D01*
X93583507Y-110225840D01*
X91875625Y-110225840D01*
X91896727Y-105368582D01*
X92468355Y-105940210D01*
X92714917Y-106104957D01*
X93005756Y-106162809D01*
X93986731Y-106162809D01*
X94013031Y-106202169D01*
X94223075Y-106342517D01*
X94470840Y-106391800D01*
X95270840Y-106391800D01*
X95518605Y-106342517D01*
X95620840Y-106274205D01*
X95723075Y-106342517D01*
X95970840Y-106391800D01*
X96770840Y-106391800D01*
X97018605Y-106342517D01*
X97228649Y-106202169D01*
X97368997Y-105992125D01*
X97418280Y-105744360D01*
X97418280Y-105421722D01*
X98069602Y-104770400D01*
X98234349Y-104523838D01*
X98292201Y-104232999D01*
X98292201Y-100894521D01*
X98234349Y-100603682D01*
X98234349Y-100603681D01*
X98069602Y-100357120D01*
X97994601Y-100282119D01*
X97748039Y-100117372D01*
X97700878Y-100107991D01*
X97698555Y-99846273D01*
X97689432Y-99800122D01*
X97662367Y-99758613D01*
X97621478Y-99730622D01*
X97572989Y-99720408D01*
X97156387Y-99715720D01*
X97145527Y-99689502D01*
X96966899Y-99510873D01*
X96733510Y-99414200D01*
X96717200Y-99414200D01*
X96717200Y-98665730D01*
X96741680Y-98641250D01*
X96741680Y-97917000D01*
X96995680Y-97917000D01*
X96995680Y-98641250D01*
X97154430Y-98800000D01*
X97394989Y-98800000D01*
X97628378Y-98703327D01*
X97807007Y-98524699D01*
X97903680Y-98291310D01*
X97903680Y-98075750D01*
X97744930Y-97917000D01*
X96995680Y-97917000D01*
X96741680Y-97917000D01*
X96721680Y-97917000D01*
X96721680Y-97663000D01*
X96741680Y-97663000D01*
X96741680Y-96938750D01*
X96995680Y-96938750D01*
X96995680Y-97663000D01*
X97744930Y-97663000D01*
X97903680Y-97504250D01*
X97903680Y-97288690D01*
X97807007Y-97055301D01*
X97628378Y-96876673D01*
X97394989Y-96780000D01*
X97154430Y-96780000D01*
X96995680Y-96938750D01*
X96741680Y-96938750D01*
X96582930Y-96780000D01*
X96342371Y-96780000D01*
X96108982Y-96876673D01*
X96107782Y-96877873D01*
X96016445Y-96816843D01*
X95768680Y-96767560D01*
X94968680Y-96767560D01*
X94720915Y-96816843D01*
X94510871Y-96957191D01*
X94370523Y-97167235D01*
X94321240Y-97415000D01*
X94321240Y-97708937D01*
X94214562Y-97602259D01*
X93968000Y-97437512D01*
X93677161Y-97379660D01*
X92931559Y-97379660D01*
X92640720Y-97437512D01*
X92394158Y-97602259D01*
X91928443Y-98067974D01*
X92013832Y-78412292D01*
X94169402Y-75966360D01*
X98060536Y-75969093D01*
G36*
X121185400Y-112252280D02*
X121185400Y-115063417D01*
X121153208Y-115095553D01*
X121010562Y-115439081D01*
X121010238Y-115811047D01*
X121152283Y-116154823D01*
X121415073Y-116418072D01*
X121758601Y-116560718D01*
X122002140Y-116560930D01*
X122002140Y-117334255D01*
X121949319Y-117312322D01*
X121577353Y-117311998D01*
X121233577Y-117454043D01*
X120970328Y-117716833D01*
X120827682Y-118060361D01*
X120827358Y-118432327D01*
X120969403Y-118776103D01*
X121002520Y-118809278D01*
X121002520Y-119201430D01*
X120889140Y-119314810D01*
X120889140Y-119505645D01*
X120863983Y-119543295D01*
X120814700Y-119791060D01*
X120814700Y-121341060D01*
X120863983Y-121588825D01*
X120889140Y-121626475D01*
X120889140Y-121817310D01*
X121047890Y-121976060D01*
X121188449Y-121976060D01*
X121256951Y-121947686D01*
X121462140Y-121988500D01*
X122062140Y-121988500D01*
X122262140Y-121948718D01*
X122462140Y-121988500D01*
X122854991Y-121988500D01*
X122814700Y-122191060D01*
X122814700Y-123943159D01*
X119709580Y-123961309D01*
X119709580Y-122191060D01*
X119669289Y-121988500D01*
X120062140Y-121988500D01*
X120267329Y-121947686D01*
X120335831Y-121976060D01*
X120476390Y-121976060D01*
X120635140Y-121817310D01*
X120635140Y-121626475D01*
X120660297Y-121588825D01*
X120709580Y-121341060D01*
X120709580Y-119791060D01*
X120660297Y-119543295D01*
X120635140Y-119505645D01*
X120635140Y-119314810D01*
X120522140Y-119201810D01*
X120522140Y-118730900D01*
X120464288Y-118440061D01*
X120299541Y-118193499D01*
X119929042Y-117823000D01*
X119929082Y-117777513D01*
X119787037Y-117433737D01*
X119524247Y-117170488D01*
X119180719Y-117027842D01*
X118808753Y-117027518D01*
X118464977Y-117169563D01*
X118201728Y-117432353D01*
X118059082Y-117775881D01*
X118058758Y-118147847D01*
X118200803Y-118491623D01*
X118463593Y-118754872D01*
X118807121Y-118897518D01*
X118853997Y-118897559D01*
X119002140Y-119045702D01*
X119002140Y-119336530D01*
X118903234Y-119484552D01*
X116279162Y-116860480D01*
X116756920Y-116860480D01*
X117004685Y-116811197D01*
X117214729Y-116670849D01*
X117355077Y-116460805D01*
X117404360Y-116213040D01*
X117404360Y-115920686D01*
X117721127Y-115920962D01*
X117978327Y-115814689D01*
X118012793Y-115897898D01*
X118191421Y-116076527D01*
X118424810Y-116173200D01*
X119165370Y-116173200D01*
X119324120Y-116014450D01*
X119324120Y-115265200D01*
X119578120Y-115265200D01*
X119578120Y-116014450D01*
X119736870Y-116173200D01*
X120477430Y-116173200D01*
X120710819Y-116076527D01*
X120889447Y-115897898D01*
X120986120Y-115664509D01*
X120986120Y-115423950D01*
X120827370Y-115265200D01*
X119578120Y-115265200D01*
X119324120Y-115265200D01*
X119304120Y-115265200D01*
X119304120Y-115011200D01*
X119324120Y-115011200D01*
X119324120Y-114991200D01*
X119578120Y-114991200D01*
X119578120Y-115011200D01*
X120827370Y-115011200D01*
X120986120Y-114852450D01*
X120986120Y-114611891D01*
X120947492Y-114518636D01*
X120949277Y-114515965D01*
X120998560Y-114268200D01*
X120998560Y-113468200D01*
X120951816Y-113233200D01*
X120998560Y-112998200D01*
X120998560Y-112198200D01*
X120965596Y-112032476D01*
X121185400Y-112252280D01*
X121185400Y-112252280D01*
G37*
X121185400Y-112252280D02*
X121185400Y-115063417D01*
X121153208Y-115095553D01*
X121010562Y-115439081D01*
X121010238Y-115811047D01*
X121152283Y-116154823D01*
X121415073Y-116418072D01*
X121758601Y-116560718D01*
X122002140Y-116560930D01*
X122002140Y-117334255D01*
X121949319Y-117312322D01*
X121577353Y-117311998D01*
X121233577Y-117454043D01*
X120970328Y-117716833D01*
X120827682Y-118060361D01*
X120827358Y-118432327D01*
X120969403Y-118776103D01*
X121002520Y-118809278D01*
X121002520Y-119201430D01*
X120889140Y-119314810D01*
X120889140Y-119505645D01*
X120863983Y-119543295D01*
X120814700Y-119791060D01*
X120814700Y-121341060D01*
X120863983Y-121588825D01*
X120889140Y-121626475D01*
X120889140Y-121817310D01*
X121047890Y-121976060D01*
X121188449Y-121976060D01*
X121256951Y-121947686D01*
X121462140Y-121988500D01*
X122062140Y-121988500D01*
X122262140Y-121948718D01*
X122462140Y-121988500D01*
X122854991Y-121988500D01*
X122814700Y-122191060D01*
X122814700Y-123943159D01*
X119709580Y-123961309D01*
X119709580Y-122191060D01*
X119669289Y-121988500D01*
X120062140Y-121988500D01*
X120267329Y-121947686D01*
X120335831Y-121976060D01*
X120476390Y-121976060D01*
X120635140Y-121817310D01*
X120635140Y-121626475D01*
X120660297Y-121588825D01*
X120709580Y-121341060D01*
X120709580Y-119791060D01*
X120660297Y-119543295D01*
X120635140Y-119505645D01*
X120635140Y-119314810D01*
X120522140Y-119201810D01*
X120522140Y-118730900D01*
X120464288Y-118440061D01*
X120299541Y-118193499D01*
X119929042Y-117823000D01*
X119929082Y-117777513D01*
X119787037Y-117433737D01*
X119524247Y-117170488D01*
X119180719Y-117027842D01*
X118808753Y-117027518D01*
X118464977Y-117169563D01*
X118201728Y-117432353D01*
X118059082Y-117775881D01*
X118058758Y-118147847D01*
X118200803Y-118491623D01*
X118463593Y-118754872D01*
X118807121Y-118897518D01*
X118853997Y-118897559D01*
X119002140Y-119045702D01*
X119002140Y-119336530D01*
X118903234Y-119484552D01*
X116279162Y-116860480D01*
X116756920Y-116860480D01*
X117004685Y-116811197D01*
X117214729Y-116670849D01*
X117355077Y-116460805D01*
X117404360Y-116213040D01*
X117404360Y-115920686D01*
X117721127Y-115920962D01*
X117978327Y-115814689D01*
X118012793Y-115897898D01*
X118191421Y-116076527D01*
X118424810Y-116173200D01*
X119165370Y-116173200D01*
X119324120Y-116014450D01*
X119324120Y-115265200D01*
X119578120Y-115265200D01*
X119578120Y-116014450D01*
X119736870Y-116173200D01*
X120477430Y-116173200D01*
X120710819Y-116076527D01*
X120889447Y-115897898D01*
X120986120Y-115664509D01*
X120986120Y-115423950D01*
X120827370Y-115265200D01*
X119578120Y-115265200D01*
X119324120Y-115265200D01*
X119304120Y-115265200D01*
X119304120Y-115011200D01*
X119324120Y-115011200D01*
X119324120Y-114991200D01*
X119578120Y-114991200D01*
X119578120Y-115011200D01*
X120827370Y-115011200D01*
X120986120Y-114852450D01*
X120986120Y-114611891D01*
X120947492Y-114518636D01*
X120949277Y-114515965D01*
X120998560Y-114268200D01*
X120998560Y-113468200D01*
X120951816Y-113233200D01*
X120998560Y-112998200D01*
X120998560Y-112198200D01*
X120965596Y-112032476D01*
X121185400Y-112252280D01*
G36*
X128861480Y-115946720D02*
X129241125Y-115946720D01*
X129108082Y-116267121D01*
X129107758Y-116639087D01*
X129249803Y-116982863D01*
X129282920Y-117016038D01*
X129282920Y-119125230D01*
X129172080Y-119236070D01*
X129172080Y-119426905D01*
X129146923Y-119464555D01*
X129097640Y-119712320D01*
X129097640Y-121262320D01*
X129146923Y-121510085D01*
X129172080Y-121547735D01*
X129172080Y-121738570D01*
X129330830Y-121897320D01*
X129471389Y-121897320D01*
X129539891Y-121868946D01*
X129745080Y-121909760D01*
X130345080Y-121909760D01*
X130545080Y-121869978D01*
X130745080Y-121909760D01*
X131137931Y-121909760D01*
X131097640Y-122112320D01*
X131097640Y-123894744D01*
X127992406Y-123912894D01*
X127992520Y-123912320D01*
X127992520Y-122112320D01*
X127952229Y-121909760D01*
X128345080Y-121909760D01*
X128550269Y-121868946D01*
X128618771Y-121897320D01*
X128759330Y-121897320D01*
X128918080Y-121738570D01*
X128918080Y-121547735D01*
X128943237Y-121510085D01*
X128992520Y-121262320D01*
X128992520Y-119712320D01*
X128943237Y-119464555D01*
X128918080Y-119426905D01*
X128918080Y-119236070D01*
X128805080Y-119123070D01*
X128805080Y-115935501D01*
X128861480Y-115946720D01*
X128861480Y-115946720D01*
G37*
X128861480Y-115946720D02*
X129241125Y-115946720D01*
X129108082Y-116267121D01*
X129107758Y-116639087D01*
X129249803Y-116982863D01*
X129282920Y-117016038D01*
X129282920Y-119125230D01*
X129172080Y-119236070D01*
X129172080Y-119426905D01*
X129146923Y-119464555D01*
X129097640Y-119712320D01*
X129097640Y-121262320D01*
X129146923Y-121510085D01*
X129172080Y-121547735D01*
X129172080Y-121738570D01*
X129330830Y-121897320D01*
X129471389Y-121897320D01*
X129539891Y-121868946D01*
X129745080Y-121909760D01*
X130345080Y-121909760D01*
X130545080Y-121869978D01*
X130745080Y-121909760D01*
X131137931Y-121909760D01*
X131097640Y-122112320D01*
X131097640Y-123894744D01*
X127992406Y-123912894D01*
X127992520Y-123912320D01*
X127992520Y-122112320D01*
X127952229Y-121909760D01*
X128345080Y-121909760D01*
X128550269Y-121868946D01*
X128618771Y-121897320D01*
X128759330Y-121897320D01*
X128918080Y-121738570D01*
X128918080Y-121547735D01*
X128943237Y-121510085D01*
X128992520Y-121262320D01*
X128992520Y-119712320D01*
X128943237Y-119464555D01*
X128918080Y-119426905D01*
X128918080Y-119236070D01*
X128805080Y-119123070D01*
X128805080Y-115935501D01*
X128861480Y-115946720D01*
G36*
X139712975Y-115544637D02*
X139635649Y-115428911D01*
X139425605Y-115288563D01*
X139177840Y-115239280D01*
X137377840Y-115239280D01*
X137175280Y-115279571D01*
X137175280Y-114886720D01*
X137134466Y-114681531D01*
X137162840Y-114613029D01*
X137162840Y-114472470D01*
X137004090Y-114313720D01*
X136813255Y-114313720D01*
X136775605Y-114288563D01*
X136527840Y-114239280D01*
X134977840Y-114239280D01*
X134730075Y-114288563D01*
X134692425Y-114313720D01*
X134501590Y-114313720D01*
X134388590Y-114426720D01*
X129844786Y-114426720D01*
X129934513Y-114210634D01*
X129934771Y-113913967D01*
X130051073Y-114030472D01*
X130394601Y-114173118D01*
X130766567Y-114173442D01*
X131110343Y-114031397D01*
X131143518Y-113998280D01*
X134440150Y-113998280D01*
X134501590Y-114059720D01*
X134692425Y-114059720D01*
X134730075Y-114084877D01*
X134977840Y-114134160D01*
X136527840Y-114134160D01*
X136775605Y-114084877D01*
X136813255Y-114059720D01*
X137004090Y-114059720D01*
X137162840Y-113900970D01*
X137162840Y-113760411D01*
X137134466Y-113691909D01*
X137175280Y-113486720D01*
X137175280Y-112886720D01*
X137135498Y-112686720D01*
X137175280Y-112486720D01*
X137175280Y-112093869D01*
X137377840Y-112134160D01*
X139177840Y-112134160D01*
X139425605Y-112084877D01*
X139635649Y-111944529D01*
X139701995Y-111845236D01*
X139712975Y-115544637D01*
X139712975Y-115544637D01*
G37*
X139712975Y-115544637D02*
X139635649Y-115428911D01*
X139425605Y-115288563D01*
X139177840Y-115239280D01*
X137377840Y-115239280D01*
X137175280Y-115279571D01*
X137175280Y-114886720D01*
X137134466Y-114681531D01*
X137162840Y-114613029D01*
X137162840Y-114472470D01*
X137004090Y-114313720D01*
X136813255Y-114313720D01*
X136775605Y-114288563D01*
X136527840Y-114239280D01*
X134977840Y-114239280D01*
X134730075Y-114288563D01*
X134692425Y-114313720D01*
X134501590Y-114313720D01*
X134388590Y-114426720D01*
X129844786Y-114426720D01*
X129934513Y-114210634D01*
X129934771Y-113913967D01*
X130051073Y-114030472D01*
X130394601Y-114173118D01*
X130766567Y-114173442D01*
X131110343Y-114031397D01*
X131143518Y-113998280D01*
X134440150Y-113998280D01*
X134501590Y-114059720D01*
X134692425Y-114059720D01*
X134730075Y-114084877D01*
X134977840Y-114134160D01*
X136527840Y-114134160D01*
X136775605Y-114084877D01*
X136813255Y-114059720D01*
X137004090Y-114059720D01*
X137162840Y-113900970D01*
X137162840Y-113760411D01*
X137134466Y-113691909D01*
X137175280Y-113486720D01*
X137175280Y-112886720D01*
X137135498Y-112686720D01*
X137175280Y-112486720D01*
X137175280Y-112093869D01*
X137377840Y-112134160D01*
X139177840Y-112134160D01*
X139425605Y-112084877D01*
X139635649Y-111944529D01*
X139701995Y-111845236D01*
X139712975Y-115544637D01*
G36*
X116682289Y-102993888D02*
X116648616Y-103027561D01*
X116483869Y-103274123D01*
X116426017Y-103564962D01*
X116426017Y-104159973D01*
X116483869Y-104450812D01*
X116648616Y-104697374D01*
X117666962Y-105715720D01*
X117608918Y-105715720D01*
X117608918Y-105874468D01*
X117450170Y-105715720D01*
X117209611Y-105715720D01*
X116976222Y-105812393D01*
X116797593Y-105991021D01*
X116700920Y-106224410D01*
X116700920Y-106439970D01*
X116859670Y-106598720D01*
X117608920Y-106598720D01*
X117608920Y-106578720D01*
X117862920Y-106578720D01*
X117862920Y-106598720D01*
X117882920Y-106598720D01*
X117882920Y-106852720D01*
X117862920Y-106852720D01*
X117862920Y-107576970D01*
X118021670Y-107735720D01*
X118262229Y-107735720D01*
X118475920Y-107647206D01*
X118475920Y-108664440D01*
X118485757Y-108713894D01*
X118485478Y-109034327D01*
X118627523Y-109378103D01*
X118890313Y-109641352D01*
X119233841Y-109783998D01*
X119605807Y-109784322D01*
X119788338Y-109708902D01*
X119788338Y-110293200D01*
X119736870Y-110293200D01*
X119578120Y-110451950D01*
X119578120Y-111201200D01*
X119598120Y-111201200D01*
X119598120Y-111455200D01*
X119578120Y-111455200D01*
X119578120Y-111475200D01*
X119324120Y-111475200D01*
X119324120Y-111455200D01*
X118074870Y-111455200D01*
X117916120Y-111613950D01*
X117916120Y-111838200D01*
X117820600Y-111838200D01*
X117529761Y-111896052D01*
X117364851Y-112006241D01*
X117315330Y-111956720D01*
X116591080Y-111956720D01*
X116591080Y-111976720D01*
X116337080Y-111976720D01*
X116337080Y-111956720D01*
X115612830Y-111956720D01*
X115454080Y-112115470D01*
X115454080Y-112356029D01*
X115550753Y-112589418D01*
X115551953Y-112590618D01*
X115490923Y-112681955D01*
X115441640Y-112929720D01*
X115441640Y-113412059D01*
X115396920Y-113636880D01*
X115396920Y-114697426D01*
X115309155Y-114714883D01*
X115099111Y-114855231D01*
X115056920Y-114918374D01*
X115014729Y-114855231D01*
X114804685Y-114714883D01*
X114556920Y-114665600D01*
X113791919Y-114665600D01*
X113791919Y-111303411D01*
X115454080Y-111303411D01*
X115454080Y-111543970D01*
X115612830Y-111702720D01*
X116337080Y-111702720D01*
X116337080Y-110953470D01*
X116591080Y-110953470D01*
X116591080Y-111702720D01*
X117315330Y-111702720D01*
X117474080Y-111543970D01*
X117474080Y-111303411D01*
X117377407Y-111070022D01*
X117198779Y-110891393D01*
X116982703Y-110801891D01*
X117916120Y-110801891D01*
X117916120Y-111042450D01*
X118074870Y-111201200D01*
X119324120Y-111201200D01*
X119324120Y-110451950D01*
X119165370Y-110293200D01*
X118424810Y-110293200D01*
X118191421Y-110389873D01*
X118012793Y-110568502D01*
X117916120Y-110801891D01*
X116982703Y-110801891D01*
X116965390Y-110794720D01*
X116749830Y-110794720D01*
X116591080Y-110953470D01*
X116337080Y-110953470D01*
X116178330Y-110794720D01*
X115962770Y-110794720D01*
X115729381Y-110891393D01*
X115550753Y-111070022D01*
X115454080Y-111303411D01*
X113791919Y-111303411D01*
X113791919Y-107011470D01*
X116700920Y-107011470D01*
X116700920Y-107227030D01*
X116797593Y-107460419D01*
X116976222Y-107639047D01*
X117209611Y-107735720D01*
X117450170Y-107735720D01*
X117608920Y-107576970D01*
X117608920Y-106852720D01*
X116859670Y-106852720D01*
X116700920Y-107011470D01*
X113791919Y-107011470D01*
X113791919Y-106370667D01*
X115894041Y-104268545D01*
X116058788Y-104021983D01*
X116082339Y-103903584D01*
X116148832Y-103837207D01*
X116291478Y-103493679D01*
X116291802Y-103121713D01*
X116238151Y-102991868D01*
X116679266Y-102991868D01*
X116682289Y-102993888D01*
X116682289Y-102993888D01*
G37*
X116682289Y-102993888D02*
X116648616Y-103027561D01*
X116483869Y-103274123D01*
X116426017Y-103564962D01*
X116426017Y-104159973D01*
X116483869Y-104450812D01*
X116648616Y-104697374D01*
X117666962Y-105715720D01*
X117608918Y-105715720D01*
X117608918Y-105874468D01*
X117450170Y-105715720D01*
X117209611Y-105715720D01*
X116976222Y-105812393D01*
X116797593Y-105991021D01*
X116700920Y-106224410D01*
X116700920Y-106439970D01*
X116859670Y-106598720D01*
X117608920Y-106598720D01*
X117608920Y-106578720D01*
X117862920Y-106578720D01*
X117862920Y-106598720D01*
X117882920Y-106598720D01*
X117882920Y-106852720D01*
X117862920Y-106852720D01*
X117862920Y-107576970D01*
X118021670Y-107735720D01*
X118262229Y-107735720D01*
X118475920Y-107647206D01*
X118475920Y-108664440D01*
X118485757Y-108713894D01*
X118485478Y-109034327D01*
X118627523Y-109378103D01*
X118890313Y-109641352D01*
X119233841Y-109783998D01*
X119605807Y-109784322D01*
X119788338Y-109708902D01*
X119788338Y-110293200D01*
X119736870Y-110293200D01*
X119578120Y-110451950D01*
X119578120Y-111201200D01*
X119598120Y-111201200D01*
X119598120Y-111455200D01*
X119578120Y-111455200D01*
X119578120Y-111475200D01*
X119324120Y-111475200D01*
X119324120Y-111455200D01*
X118074870Y-111455200D01*
X117916120Y-111613950D01*
X117916120Y-111838200D01*
X117820600Y-111838200D01*
X117529761Y-111896052D01*
X117364851Y-112006241D01*
X117315330Y-111956720D01*
X116591080Y-111956720D01*
X116591080Y-111976720D01*
X116337080Y-111976720D01*
X116337080Y-111956720D01*
X115612830Y-111956720D01*
X115454080Y-112115470D01*
X115454080Y-112356029D01*
X115550753Y-112589418D01*
X115551953Y-112590618D01*
X115490923Y-112681955D01*
X115441640Y-112929720D01*
X115441640Y-113412059D01*
X115396920Y-113636880D01*
X115396920Y-114697426D01*
X115309155Y-114714883D01*
X115099111Y-114855231D01*
X115056920Y-114918374D01*
X115014729Y-114855231D01*
X114804685Y-114714883D01*
X114556920Y-114665600D01*
X113791919Y-114665600D01*
X113791919Y-111303411D01*
X115454080Y-111303411D01*
X115454080Y-111543970D01*
X115612830Y-111702720D01*
X116337080Y-111702720D01*
X116337080Y-110953470D01*
X116591080Y-110953470D01*
X116591080Y-111702720D01*
X117315330Y-111702720D01*
X117474080Y-111543970D01*
X117474080Y-111303411D01*
X117377407Y-111070022D01*
X117198779Y-110891393D01*
X116982703Y-110801891D01*
X117916120Y-110801891D01*
X117916120Y-111042450D01*
X118074870Y-111201200D01*
X119324120Y-111201200D01*
X119324120Y-110451950D01*
X119165370Y-110293200D01*
X118424810Y-110293200D01*
X118191421Y-110389873D01*
X118012793Y-110568502D01*
X117916120Y-110801891D01*
X116982703Y-110801891D01*
X116965390Y-110794720D01*
X116749830Y-110794720D01*
X116591080Y-110953470D01*
X116337080Y-110953470D01*
X116178330Y-110794720D01*
X115962770Y-110794720D01*
X115729381Y-110891393D01*
X115550753Y-111070022D01*
X115454080Y-111303411D01*
X113791919Y-111303411D01*
X113791919Y-107011470D01*
X116700920Y-107011470D01*
X116700920Y-107227030D01*
X116797593Y-107460419D01*
X116976222Y-107639047D01*
X117209611Y-107735720D01*
X117450170Y-107735720D01*
X117608920Y-107576970D01*
X117608920Y-106852720D01*
X116859670Y-106852720D01*
X116700920Y-107011470D01*
X113791919Y-107011470D01*
X113791919Y-106370667D01*
X115894041Y-104268545D01*
X116058788Y-104021983D01*
X116082339Y-103903584D01*
X116148832Y-103837207D01*
X116291478Y-103493679D01*
X116291802Y-103121713D01*
X116238151Y-102991868D01*
X116679266Y-102991868D01*
X116682289Y-102993888D01*
G36*
X139686456Y-106609788D02*
X139597429Y-106476551D01*
X139387385Y-106336203D01*
X139139620Y-106286920D01*
X137339620Y-106286920D01*
X137137060Y-106327211D01*
X137137060Y-105934360D01*
X137096246Y-105729171D01*
X137124620Y-105660669D01*
X137124620Y-105520110D01*
X136965870Y-105361360D01*
X136775035Y-105361360D01*
X136737385Y-105336203D01*
X136489620Y-105286920D01*
X134939620Y-105286920D01*
X134691855Y-105336203D01*
X134654205Y-105361360D01*
X134463370Y-105361360D01*
X134331700Y-105493030D01*
X134134721Y-105532212D01*
X133888159Y-105696959D01*
X133596400Y-105988718D01*
X133550913Y-105988678D01*
X133207137Y-106130723D01*
X132943888Y-106393513D01*
X132801242Y-106737041D01*
X132800918Y-107109007D01*
X132942963Y-107452783D01*
X133205753Y-107716032D01*
X133549281Y-107858678D01*
X133921247Y-107859002D01*
X134265023Y-107716957D01*
X134528272Y-107454167D01*
X134668354Y-107116814D01*
X134691855Y-107132517D01*
X134939620Y-107181800D01*
X136489620Y-107181800D01*
X136692180Y-107141509D01*
X136692180Y-108134360D01*
X136741463Y-108382125D01*
X136881811Y-108592169D01*
X137091855Y-108732517D01*
X137339620Y-108781800D01*
X139139620Y-108781800D01*
X139387385Y-108732517D01*
X139597429Y-108592169D01*
X139691920Y-108450754D01*
X139696280Y-109919651D01*
X139635649Y-109828911D01*
X139425605Y-109688563D01*
X139177840Y-109639280D01*
X137377840Y-109639280D01*
X137130075Y-109688563D01*
X136920031Y-109828911D01*
X136779683Y-110038955D01*
X136730400Y-110286720D01*
X136730400Y-111279571D01*
X136527840Y-111239280D01*
X135479946Y-111239280D01*
X135429988Y-110988124D01*
X135406248Y-110952594D01*
X135265242Y-110741562D01*
X131867773Y-107344093D01*
X131867773Y-106277580D01*
X131809921Y-105986741D01*
X131687575Y-105803637D01*
X131708103Y-105789921D01*
X132509507Y-104988517D01*
X132587363Y-105176943D01*
X132850153Y-105440192D01*
X133193681Y-105582838D01*
X133565647Y-105583162D01*
X133909423Y-105441117D01*
X134172672Y-105178327D01*
X134249062Y-104994360D01*
X134350370Y-104994360D01*
X134463370Y-105107360D01*
X134654205Y-105107360D01*
X134691855Y-105132517D01*
X134939620Y-105181800D01*
X136489620Y-105181800D01*
X136737385Y-105132517D01*
X136775035Y-105107360D01*
X136965870Y-105107360D01*
X137124620Y-104948610D01*
X137124620Y-104808051D01*
X137096246Y-104739549D01*
X137137060Y-104534360D01*
X137137060Y-103934360D01*
X137097278Y-103734360D01*
X137137060Y-103534360D01*
X137137060Y-103141509D01*
X137339620Y-103181800D01*
X139139620Y-103181800D01*
X139387385Y-103132517D01*
X139597429Y-102992169D01*
X139675372Y-102875519D01*
X139686456Y-106609788D01*
X139686456Y-106609788D01*
G37*
X139686456Y-106609788D02*
X139597429Y-106476551D01*
X139387385Y-106336203D01*
X139139620Y-106286920D01*
X137339620Y-106286920D01*
X137137060Y-106327211D01*
X137137060Y-105934360D01*
X137096246Y-105729171D01*
X137124620Y-105660669D01*
X137124620Y-105520110D01*
X136965870Y-105361360D01*
X136775035Y-105361360D01*
X136737385Y-105336203D01*
X136489620Y-105286920D01*
X134939620Y-105286920D01*
X134691855Y-105336203D01*
X134654205Y-105361360D01*
X134463370Y-105361360D01*
X134331700Y-105493030D01*
X134134721Y-105532212D01*
X133888159Y-105696959D01*
X133596400Y-105988718D01*
X133550913Y-105988678D01*
X133207137Y-106130723D01*
X132943888Y-106393513D01*
X132801242Y-106737041D01*
X132800918Y-107109007D01*
X132942963Y-107452783D01*
X133205753Y-107716032D01*
X133549281Y-107858678D01*
X133921247Y-107859002D01*
X134265023Y-107716957D01*
X134528272Y-107454167D01*
X134668354Y-107116814D01*
X134691855Y-107132517D01*
X134939620Y-107181800D01*
X136489620Y-107181800D01*
X136692180Y-107141509D01*
X136692180Y-108134360D01*
X136741463Y-108382125D01*
X136881811Y-108592169D01*
X137091855Y-108732517D01*
X137339620Y-108781800D01*
X139139620Y-108781800D01*
X139387385Y-108732517D01*
X139597429Y-108592169D01*
X139691920Y-108450754D01*
X139696280Y-109919651D01*
X139635649Y-109828911D01*
X139425605Y-109688563D01*
X139177840Y-109639280D01*
X137377840Y-109639280D01*
X137130075Y-109688563D01*
X136920031Y-109828911D01*
X136779683Y-110038955D01*
X136730400Y-110286720D01*
X136730400Y-111279571D01*
X136527840Y-111239280D01*
X135479946Y-111239280D01*
X135429988Y-110988124D01*
X135406248Y-110952594D01*
X135265242Y-110741562D01*
X131867773Y-107344093D01*
X131867773Y-106277580D01*
X131809921Y-105986741D01*
X131687575Y-105803637D01*
X131708103Y-105789921D01*
X132509507Y-104988517D01*
X132587363Y-105176943D01*
X132850153Y-105440192D01*
X133193681Y-105582838D01*
X133565647Y-105583162D01*
X133909423Y-105441117D01*
X134172672Y-105178327D01*
X134249062Y-104994360D01*
X134350370Y-104994360D01*
X134463370Y-105107360D01*
X134654205Y-105107360D01*
X134691855Y-105132517D01*
X134939620Y-105181800D01*
X136489620Y-105181800D01*
X136737385Y-105132517D01*
X136775035Y-105107360D01*
X136965870Y-105107360D01*
X137124620Y-104948610D01*
X137124620Y-104808051D01*
X137096246Y-104739549D01*
X137137060Y-104534360D01*
X137137060Y-103934360D01*
X137097278Y-103734360D01*
X137137060Y-103534360D01*
X137137060Y-103141509D01*
X137339620Y-103181800D01*
X139139620Y-103181800D01*
X139387385Y-103132517D01*
X139597429Y-102992169D01*
X139675372Y-102875519D01*
X139686456Y-106609788D01*
G36*
X128807275Y-101398157D02*
X128890584Y-101414728D01*
X128803688Y-101501473D01*
X128661042Y-101845001D01*
X128660718Y-102216967D01*
X128716380Y-102351680D01*
X128637560Y-102351680D01*
X128389795Y-102400963D01*
X128179751Y-102541311D01*
X128039403Y-102751355D01*
X128009219Y-102903103D01*
X127762155Y-102800513D01*
X127390189Y-102800189D01*
X127046413Y-102942234D01*
X127013238Y-102975351D01*
X126772131Y-102975351D01*
X126799317Y-102964118D01*
X127062566Y-102701328D01*
X127140158Y-102514468D01*
X127458361Y-102646598D01*
X127830327Y-102646922D01*
X128174103Y-102504877D01*
X128437352Y-102242087D01*
X128579998Y-101898559D01*
X128580322Y-101526593D01*
X128533544Y-101413381D01*
X128714739Y-101338327D01*
X128715939Y-101337127D01*
X128807275Y-101398157D01*
X128807275Y-101398157D01*
G37*
X128807275Y-101398157D02*
X128890584Y-101414728D01*
X128803688Y-101501473D01*
X128661042Y-101845001D01*
X128660718Y-102216967D01*
X128716380Y-102351680D01*
X128637560Y-102351680D01*
X128389795Y-102400963D01*
X128179751Y-102541311D01*
X128039403Y-102751355D01*
X128009219Y-102903103D01*
X127762155Y-102800513D01*
X127390189Y-102800189D01*
X127046413Y-102942234D01*
X127013238Y-102975351D01*
X126772131Y-102975351D01*
X126799317Y-102964118D01*
X127062566Y-102701328D01*
X127140158Y-102514468D01*
X127458361Y-102646598D01*
X127830327Y-102646922D01*
X128174103Y-102504877D01*
X128437352Y-102242087D01*
X128579998Y-101898559D01*
X128580322Y-101526593D01*
X128533544Y-101413381D01*
X128714739Y-101338327D01*
X128715939Y-101337127D01*
X128807275Y-101398157D01*
G36*
X115642360Y-93967490D02*
X114074257Y-95535593D01*
X113909510Y-95782155D01*
X113851658Y-96072994D01*
X113851658Y-96155989D01*
X113819466Y-96188125D01*
X113676820Y-96531653D01*
X113676496Y-96903619D01*
X113818541Y-97247395D01*
X113966720Y-97395833D01*
X113966720Y-97496777D01*
X113934528Y-97528913D01*
X113791882Y-97872441D01*
X113791558Y-98244407D01*
X113933603Y-98588183D01*
X114196393Y-98851432D01*
X114539921Y-98994078D01*
X114911887Y-98994402D01*
X115255663Y-98852357D01*
X115518912Y-98589567D01*
X115661558Y-98246039D01*
X115661882Y-97874073D01*
X115519837Y-97530297D01*
X115486720Y-97497122D01*
X115486720Y-97049207D01*
X115546496Y-96905251D01*
X115546820Y-96533285D01*
X115453068Y-96306386D01*
X115765474Y-95993980D01*
X115924662Y-96153167D01*
X116158051Y-96249840D01*
X116398610Y-96249840D01*
X116557360Y-96091090D01*
X116557360Y-95366840D01*
X116537360Y-95366840D01*
X116537360Y-95222094D01*
X116666614Y-95092840D01*
X116811360Y-95092840D01*
X116811360Y-95112840D01*
X116831360Y-95112840D01*
X116831360Y-95366840D01*
X116811360Y-95366840D01*
X116811360Y-96091090D01*
X116841460Y-96121190D01*
X116767452Y-96231950D01*
X116709600Y-96522789D01*
X116709600Y-97842974D01*
X116672160Y-98031200D01*
X116672160Y-98371200D01*
X116642598Y-98371200D01*
X116642598Y-98529948D01*
X116483850Y-98371200D01*
X116218291Y-98371200D01*
X115984902Y-98467873D01*
X115806273Y-98646501D01*
X115709600Y-98879890D01*
X115709600Y-98922450D01*
X115866263Y-99079113D01*
X115746443Y-99258435D01*
X115722936Y-99376614D01*
X115709600Y-99389950D01*
X115709600Y-99432510D01*
X115711098Y-99436127D01*
X115697160Y-99506200D01*
X115697160Y-99806200D01*
X115717051Y-99906200D01*
X115697160Y-100006200D01*
X115697160Y-100306200D01*
X115717051Y-100406200D01*
X115697160Y-100506200D01*
X115697160Y-100806200D01*
X115715062Y-100896200D01*
X114809496Y-100896200D01*
X114518657Y-100954052D01*
X114272095Y-101118799D01*
X114244705Y-101146189D01*
X107212763Y-101146189D01*
X114290327Y-94068625D01*
X114353703Y-94132112D01*
X114697231Y-94274758D01*
X115069197Y-94275082D01*
X115412973Y-94133037D01*
X115642360Y-93904050D01*
X115642360Y-93967490D01*
X115642360Y-93967490D01*
G37*
X115642360Y-93967490D02*
X114074257Y-95535593D01*
X113909510Y-95782155D01*
X113851658Y-96072994D01*
X113851658Y-96155989D01*
X113819466Y-96188125D01*
X113676820Y-96531653D01*
X113676496Y-96903619D01*
X113818541Y-97247395D01*
X113966720Y-97395833D01*
X113966720Y-97496777D01*
X113934528Y-97528913D01*
X113791882Y-97872441D01*
X113791558Y-98244407D01*
X113933603Y-98588183D01*
X114196393Y-98851432D01*
X114539921Y-98994078D01*
X114911887Y-98994402D01*
X115255663Y-98852357D01*
X115518912Y-98589567D01*
X115661558Y-98246039D01*
X115661882Y-97874073D01*
X115519837Y-97530297D01*
X115486720Y-97497122D01*
X115486720Y-97049207D01*
X115546496Y-96905251D01*
X115546820Y-96533285D01*
X115453068Y-96306386D01*
X115765474Y-95993980D01*
X115924662Y-96153167D01*
X116158051Y-96249840D01*
X116398610Y-96249840D01*
X116557360Y-96091090D01*
X116557360Y-95366840D01*
X116537360Y-95366840D01*
X116537360Y-95222094D01*
X116666614Y-95092840D01*
X116811360Y-95092840D01*
X116811360Y-95112840D01*
X116831360Y-95112840D01*
X116831360Y-95366840D01*
X116811360Y-95366840D01*
X116811360Y-96091090D01*
X116841460Y-96121190D01*
X116767452Y-96231950D01*
X116709600Y-96522789D01*
X116709600Y-97842974D01*
X116672160Y-98031200D01*
X116672160Y-98371200D01*
X116642598Y-98371200D01*
X116642598Y-98529948D01*
X116483850Y-98371200D01*
X116218291Y-98371200D01*
X115984902Y-98467873D01*
X115806273Y-98646501D01*
X115709600Y-98879890D01*
X115709600Y-98922450D01*
X115866263Y-99079113D01*
X115746443Y-99258435D01*
X115722936Y-99376614D01*
X115709600Y-99389950D01*
X115709600Y-99432510D01*
X115711098Y-99436127D01*
X115697160Y-99506200D01*
X115697160Y-99806200D01*
X115717051Y-99906200D01*
X115697160Y-100006200D01*
X115697160Y-100306200D01*
X115717051Y-100406200D01*
X115697160Y-100506200D01*
X115697160Y-100806200D01*
X115715062Y-100896200D01*
X114809496Y-100896200D01*
X114518657Y-100954052D01*
X114272095Y-101118799D01*
X114244705Y-101146189D01*
X107212763Y-101146189D01*
X114290327Y-94068625D01*
X114353703Y-94132112D01*
X114697231Y-94274758D01*
X115069197Y-94275082D01*
X115412973Y-94133037D01*
X115642360Y-93904050D01*
X115642360Y-93967490D01*
G36*
X139656374Y-96474557D02*
X139579649Y-96359731D01*
X139369605Y-96219383D01*
X139121840Y-96170100D01*
X137321840Y-96170100D01*
X137119280Y-96210391D01*
X137119280Y-95817540D01*
X137078466Y-95612351D01*
X137106840Y-95543849D01*
X137106840Y-95403290D01*
X136948090Y-95244540D01*
X136757255Y-95244540D01*
X136719605Y-95219383D01*
X136471840Y-95170100D01*
X134921840Y-95170100D01*
X134674075Y-95219383D01*
X134636425Y-95244540D01*
X134445590Y-95244540D01*
X134286840Y-95403290D01*
X134286840Y-95543849D01*
X134315214Y-95612351D01*
X134274400Y-95817540D01*
X134274400Y-95902673D01*
X134252672Y-96011906D01*
X134164795Y-96099783D01*
X134164795Y-95715726D01*
X134106943Y-95424887D01*
X133942196Y-95178325D01*
X133480870Y-94716999D01*
X133530087Y-94717042D01*
X133873863Y-94574997D01*
X133907038Y-94541880D01*
X134299133Y-94541880D01*
X134315214Y-94622729D01*
X134286840Y-94691231D01*
X134286840Y-94831790D01*
X134445590Y-94990540D01*
X134636425Y-94990540D01*
X134674075Y-95015697D01*
X134921840Y-95064980D01*
X136471840Y-95064980D01*
X136719605Y-95015697D01*
X136757255Y-94990540D01*
X136948090Y-94990540D01*
X137106840Y-94831790D01*
X137106840Y-94691231D01*
X137078466Y-94622729D01*
X137119280Y-94417540D01*
X137119280Y-93817540D01*
X137079498Y-93617540D01*
X137119280Y-93417540D01*
X137119280Y-93024689D01*
X137321840Y-93064980D01*
X139121840Y-93064980D01*
X139369605Y-93015697D01*
X139579649Y-92875349D01*
X139645399Y-92776948D01*
X139656374Y-96474557D01*
X139656374Y-96474557D01*
G37*
X139656374Y-96474557D02*
X139579649Y-96359731D01*
X139369605Y-96219383D01*
X139121840Y-96170100D01*
X137321840Y-96170100D01*
X137119280Y-96210391D01*
X137119280Y-95817540D01*
X137078466Y-95612351D01*
X137106840Y-95543849D01*
X137106840Y-95403290D01*
X136948090Y-95244540D01*
X136757255Y-95244540D01*
X136719605Y-95219383D01*
X136471840Y-95170100D01*
X134921840Y-95170100D01*
X134674075Y-95219383D01*
X134636425Y-95244540D01*
X134445590Y-95244540D01*
X134286840Y-95403290D01*
X134286840Y-95543849D01*
X134315214Y-95612351D01*
X134274400Y-95817540D01*
X134274400Y-95902673D01*
X134252672Y-96011906D01*
X134164795Y-96099783D01*
X134164795Y-95715726D01*
X134106943Y-95424887D01*
X133942196Y-95178325D01*
X133480870Y-94716999D01*
X133530087Y-94717042D01*
X133873863Y-94574997D01*
X133907038Y-94541880D01*
X134299133Y-94541880D01*
X134315214Y-94622729D01*
X134286840Y-94691231D01*
X134286840Y-94831790D01*
X134445590Y-94990540D01*
X134636425Y-94990540D01*
X134674075Y-95015697D01*
X134921840Y-95064980D01*
X136471840Y-95064980D01*
X136719605Y-95015697D01*
X136757255Y-94990540D01*
X136948090Y-94990540D01*
X137106840Y-94831790D01*
X137106840Y-94691231D01*
X137078466Y-94622729D01*
X137119280Y-94417540D01*
X137119280Y-93817540D01*
X137079498Y-93617540D01*
X137119280Y-93417540D01*
X137119280Y-93024689D01*
X137321840Y-93064980D01*
X139121840Y-93064980D01*
X139369605Y-93015697D01*
X139579649Y-92875349D01*
X139645399Y-92776948D01*
X139656374Y-96474557D01*
G36*
X118041699Y-85499561D02*
X118288260Y-85664308D01*
X118336514Y-85673906D01*
X118579100Y-85722160D01*
X120304818Y-85722160D01*
X119157838Y-86869140D01*
X118993091Y-87115702D01*
X118935239Y-87406541D01*
X118935239Y-88667677D01*
X118866297Y-88696163D01*
X118603048Y-88958953D01*
X118460402Y-89302481D01*
X118460078Y-89674447D01*
X118602123Y-90018223D01*
X118864913Y-90281472D01*
X119208441Y-90424118D01*
X119255317Y-90424159D01*
X119908160Y-91077002D01*
X119908160Y-92093160D01*
X119957443Y-92340925D01*
X120097791Y-92550969D01*
X120160934Y-92593160D01*
X120097791Y-92635351D01*
X119957443Y-92845395D01*
X119910384Y-93081982D01*
X119281222Y-92452820D01*
X119318160Y-92267120D01*
X119318160Y-91517120D01*
X119268877Y-91269355D01*
X119128529Y-91059311D01*
X118918485Y-90918963D01*
X118670720Y-90869680D01*
X117870720Y-90869680D01*
X117622955Y-90918963D01*
X117531618Y-90979993D01*
X117530418Y-90978793D01*
X117297029Y-90882120D01*
X117056470Y-90882120D01*
X116897722Y-91040868D01*
X116897722Y-90882120D01*
X116791103Y-90882120D01*
X116788756Y-90870320D01*
X116747867Y-90664759D01*
X116583120Y-90418198D01*
X113328641Y-87163719D01*
X113082079Y-86998972D01*
X112791240Y-86941120D01*
X106923496Y-86941120D01*
X106827957Y-86709897D01*
X106794840Y-86676722D01*
X106794840Y-84561860D01*
X106774245Y-84458321D01*
X106741405Y-84293227D01*
X107812040Y-85363862D01*
X108058601Y-85528609D01*
X108349441Y-85586461D01*
X109891919Y-85586461D01*
X110182758Y-85528609D01*
X110429320Y-85363862D01*
X110690595Y-85102587D01*
X110918000Y-85147820D01*
X111718000Y-85147820D01*
X111965765Y-85098537D01*
X112175809Y-84958189D01*
X112268000Y-84820216D01*
X112360191Y-84958189D01*
X112570235Y-85098537D01*
X112818000Y-85147820D01*
X113618000Y-85147820D01*
X113865765Y-85098537D01*
X114075809Y-84958189D01*
X114174573Y-84810380D01*
X114505659Y-84810380D01*
X114511683Y-84840665D01*
X114652031Y-85050709D01*
X114749040Y-85115529D01*
X114749040Y-87412977D01*
X114716848Y-87445113D01*
X114574202Y-87788641D01*
X114573878Y-88160607D01*
X114715923Y-88504383D01*
X114978713Y-88767632D01*
X115322241Y-88910278D01*
X115694207Y-88910602D01*
X116037983Y-88768557D01*
X116301232Y-88505767D01*
X116443878Y-88162239D01*
X116444202Y-87790273D01*
X116302157Y-87446497D01*
X116269040Y-87413322D01*
X116269040Y-85183416D01*
X116467649Y-85050709D01*
X116607997Y-84840665D01*
X116657280Y-84592900D01*
X116657280Y-84115142D01*
X118041699Y-85499561D01*
X118041699Y-85499561D01*
G37*
X118041699Y-85499561D02*
X118288260Y-85664308D01*
X118336514Y-85673906D01*
X118579100Y-85722160D01*
X120304818Y-85722160D01*
X119157838Y-86869140D01*
X118993091Y-87115702D01*
X118935239Y-87406541D01*
X118935239Y-88667677D01*
X118866297Y-88696163D01*
X118603048Y-88958953D01*
X118460402Y-89302481D01*
X118460078Y-89674447D01*
X118602123Y-90018223D01*
X118864913Y-90281472D01*
X119208441Y-90424118D01*
X119255317Y-90424159D01*
X119908160Y-91077002D01*
X119908160Y-92093160D01*
X119957443Y-92340925D01*
X120097791Y-92550969D01*
X120160934Y-92593160D01*
X120097791Y-92635351D01*
X119957443Y-92845395D01*
X119910384Y-93081982D01*
X119281222Y-92452820D01*
X119318160Y-92267120D01*
X119318160Y-91517120D01*
X119268877Y-91269355D01*
X119128529Y-91059311D01*
X118918485Y-90918963D01*
X118670720Y-90869680D01*
X117870720Y-90869680D01*
X117622955Y-90918963D01*
X117531618Y-90979993D01*
X117530418Y-90978793D01*
X117297029Y-90882120D01*
X117056470Y-90882120D01*
X116897722Y-91040868D01*
X116897722Y-90882120D01*
X116791103Y-90882120D01*
X116788756Y-90870320D01*
X116747867Y-90664759D01*
X116583120Y-90418198D01*
X113328641Y-87163719D01*
X113082079Y-86998972D01*
X112791240Y-86941120D01*
X106923496Y-86941120D01*
X106827957Y-86709897D01*
X106794840Y-86676722D01*
X106794840Y-84561860D01*
X106774245Y-84458321D01*
X106741405Y-84293227D01*
X107812040Y-85363862D01*
X108058601Y-85528609D01*
X108349441Y-85586461D01*
X109891919Y-85586461D01*
X110182758Y-85528609D01*
X110429320Y-85363862D01*
X110690595Y-85102587D01*
X110918000Y-85147820D01*
X111718000Y-85147820D01*
X111965765Y-85098537D01*
X112175809Y-84958189D01*
X112268000Y-84820216D01*
X112360191Y-84958189D01*
X112570235Y-85098537D01*
X112818000Y-85147820D01*
X113618000Y-85147820D01*
X113865765Y-85098537D01*
X114075809Y-84958189D01*
X114174573Y-84810380D01*
X114505659Y-84810380D01*
X114511683Y-84840665D01*
X114652031Y-85050709D01*
X114749040Y-85115529D01*
X114749040Y-87412977D01*
X114716848Y-87445113D01*
X114574202Y-87788641D01*
X114573878Y-88160607D01*
X114715923Y-88504383D01*
X114978713Y-88767632D01*
X115322241Y-88910278D01*
X115694207Y-88910602D01*
X116037983Y-88768557D01*
X116301232Y-88505767D01*
X116443878Y-88162239D01*
X116444202Y-87790273D01*
X116302157Y-87446497D01*
X116269040Y-87413322D01*
X116269040Y-85183416D01*
X116467649Y-85050709D01*
X116607997Y-84840665D01*
X116657280Y-84592900D01*
X116657280Y-84115142D01*
X118041699Y-85499561D01*
G36*
X97952400Y-83693262D02*
X97952400Y-84465900D01*
X98001683Y-84713665D01*
X98142031Y-84923709D01*
X98289840Y-85022473D01*
X98289840Y-85286818D01*
X95260860Y-88315798D01*
X95164912Y-88315798D01*
X95323660Y-88157050D01*
X95323660Y-88062491D01*
X95226987Y-87829102D01*
X95200953Y-87803068D01*
X95286817Y-87674565D01*
X95336100Y-87426800D01*
X95336100Y-86918800D01*
X95286817Y-86671035D01*
X95146469Y-86460991D01*
X94936425Y-86320643D01*
X94934916Y-86320343D01*
X95001198Y-86160719D01*
X95001522Y-85788753D01*
X94859477Y-85444977D01*
X94773118Y-85358467D01*
X94806967Y-85324618D01*
X94903640Y-85091229D01*
X94903640Y-84850670D01*
X94744890Y-84691920D01*
X94020640Y-84691920D01*
X94020640Y-84711920D01*
X93953639Y-84711920D01*
X93953639Y-84417920D01*
X94020640Y-84417920D01*
X94020640Y-84437920D01*
X94744890Y-84437920D01*
X94903640Y-84279170D01*
X94903640Y-84038611D01*
X94815126Y-83824920D01*
X95786618Y-83824920D01*
X96077457Y-83767068D01*
X96324019Y-83602321D01*
X96911129Y-83015211D01*
X96956616Y-83015251D01*
X97181478Y-82922340D01*
X97952400Y-83693262D01*
X97952400Y-83693262D01*
G37*
X97952400Y-83693262D02*
X97952400Y-84465900D01*
X98001683Y-84713665D01*
X98142031Y-84923709D01*
X98289840Y-85022473D01*
X98289840Y-85286818D01*
X95260860Y-88315798D01*
X95164912Y-88315798D01*
X95323660Y-88157050D01*
X95323660Y-88062491D01*
X95226987Y-87829102D01*
X95200953Y-87803068D01*
X95286817Y-87674565D01*
X95336100Y-87426800D01*
X95336100Y-86918800D01*
X95286817Y-86671035D01*
X95146469Y-86460991D01*
X94936425Y-86320643D01*
X94934916Y-86320343D01*
X95001198Y-86160719D01*
X95001522Y-85788753D01*
X94859477Y-85444977D01*
X94773118Y-85358467D01*
X94806967Y-85324618D01*
X94903640Y-85091229D01*
X94903640Y-84850670D01*
X94744890Y-84691920D01*
X94020640Y-84691920D01*
X94020640Y-84711920D01*
X93953639Y-84711920D01*
X93953639Y-84417920D01*
X94020640Y-84417920D01*
X94020640Y-84437920D01*
X94744890Y-84437920D01*
X94903640Y-84279170D01*
X94903640Y-84038611D01*
X94815126Y-83824920D01*
X95786618Y-83824920D01*
X96077457Y-83767068D01*
X96324019Y-83602321D01*
X96911129Y-83015211D01*
X96956616Y-83015251D01*
X97181478Y-82922340D01*
X97952400Y-83693262D01*
G36*
X139631680Y-88154660D02*
X139579649Y-88076791D01*
X139369605Y-87936443D01*
X139121840Y-87887160D01*
X137321840Y-87887160D01*
X137119280Y-87927451D01*
X137119280Y-87534600D01*
X137078466Y-87329411D01*
X137106840Y-87260909D01*
X137106840Y-87120350D01*
X136948090Y-86961600D01*
X136757255Y-86961600D01*
X136719605Y-86936443D01*
X136471840Y-86887160D01*
X134921840Y-86887160D01*
X134674075Y-86936443D01*
X134636425Y-86961600D01*
X134445590Y-86961600D01*
X134286840Y-87120350D01*
X134286840Y-87260909D01*
X134315214Y-87329411D01*
X134290615Y-87453080D01*
X132796757Y-87453080D01*
X133004272Y-87245927D01*
X133146918Y-86902399D01*
X133147186Y-86594600D01*
X134332590Y-86594600D01*
X134445590Y-86707600D01*
X134636425Y-86707600D01*
X134674075Y-86732757D01*
X134921840Y-86782040D01*
X136471840Y-86782040D01*
X136719605Y-86732757D01*
X136757255Y-86707600D01*
X136948090Y-86707600D01*
X137106840Y-86548850D01*
X137106840Y-86408291D01*
X137078466Y-86339789D01*
X137119280Y-86134600D01*
X137119280Y-85534600D01*
X137079498Y-85334600D01*
X137119280Y-85134600D01*
X137119280Y-84741749D01*
X137321840Y-84782040D01*
X139121840Y-84782040D01*
X139369605Y-84732757D01*
X139579649Y-84592409D01*
X139620924Y-84530638D01*
X139631680Y-88154660D01*
X139631680Y-88154660D01*
G37*
X139631680Y-88154660D02*
X139579649Y-88076791D01*
X139369605Y-87936443D01*
X139121840Y-87887160D01*
X137321840Y-87887160D01*
X137119280Y-87927451D01*
X137119280Y-87534600D01*
X137078466Y-87329411D01*
X137106840Y-87260909D01*
X137106840Y-87120350D01*
X136948090Y-86961600D01*
X136757255Y-86961600D01*
X136719605Y-86936443D01*
X136471840Y-86887160D01*
X134921840Y-86887160D01*
X134674075Y-86936443D01*
X134636425Y-86961600D01*
X134445590Y-86961600D01*
X134286840Y-87120350D01*
X134286840Y-87260909D01*
X134315214Y-87329411D01*
X134290615Y-87453080D01*
X132796757Y-87453080D01*
X133004272Y-87245927D01*
X133146918Y-86902399D01*
X133147186Y-86594600D01*
X134332590Y-86594600D01*
X134445590Y-86707600D01*
X134636425Y-86707600D01*
X134674075Y-86732757D01*
X134921840Y-86782040D01*
X136471840Y-86782040D01*
X136719605Y-86732757D01*
X136757255Y-86707600D01*
X136948090Y-86707600D01*
X137106840Y-86548850D01*
X137106840Y-86408291D01*
X137078466Y-86339789D01*
X137119280Y-86134600D01*
X137119280Y-85534600D01*
X137079498Y-85334600D01*
X137119280Y-85134600D01*
X137119280Y-84741749D01*
X137321840Y-84782040D01*
X139121840Y-84782040D01*
X139369605Y-84732757D01*
X139579649Y-84592409D01*
X139620924Y-84530638D01*
X139631680Y-88154660D01*
G36*
X117209331Y-75982544D02*
X117182703Y-76022395D01*
X117133420Y-76270160D01*
X117133420Y-78070160D01*
X117182703Y-78317925D01*
X117323051Y-78527969D01*
X117533095Y-78668317D01*
X117780860Y-78717600D01*
X118773711Y-78717600D01*
X118733420Y-78920160D01*
X118733420Y-80470160D01*
X118782703Y-80717925D01*
X118923051Y-80927969D01*
X118924800Y-80929138D01*
X118924800Y-82058657D01*
X118892608Y-82090793D01*
X118749962Y-82434321D01*
X118749638Y-82806287D01*
X118891683Y-83150063D01*
X118982077Y-83240615D01*
X118846482Y-83567161D01*
X118846158Y-83939127D01*
X118954841Y-84202160D01*
X118893902Y-84202160D01*
X116657280Y-81965538D01*
X116657280Y-81192900D01*
X116607997Y-80945135D01*
X116467649Y-80735091D01*
X116257605Y-80594743D01*
X116009840Y-80545460D01*
X115109840Y-80545460D01*
X114862075Y-80594743D01*
X114652031Y-80735091D01*
X114511683Y-80945135D01*
X114469493Y-81157241D01*
X114322439Y-81255499D01*
X113315440Y-82262498D01*
X113315440Y-81600380D01*
X113266157Y-81352615D01*
X113125809Y-81142571D01*
X112915765Y-81002223D01*
X112668000Y-80952940D01*
X111868000Y-80952940D01*
X111620235Y-81002223D01*
X111410191Y-81142571D01*
X111311427Y-81290380D01*
X110032960Y-81290380D01*
X110032960Y-81101460D01*
X109983677Y-80853695D01*
X109843329Y-80643651D01*
X109695520Y-80544887D01*
X109695520Y-79198580D01*
X110666900Y-79198580D01*
X110914665Y-79149297D01*
X111124709Y-79008949D01*
X111265057Y-78798905D01*
X111277497Y-78736363D01*
X111306846Y-78780287D01*
X111788615Y-79102194D01*
X112356900Y-79215233D01*
X112925185Y-79102194D01*
X113406954Y-78780287D01*
X113634602Y-78439587D01*
X113701717Y-78582498D01*
X114129976Y-78972785D01*
X114540010Y-79142616D01*
X114769900Y-79021295D01*
X114769900Y-77828140D01*
X115023900Y-77828140D01*
X115023900Y-79021295D01*
X115253790Y-79142616D01*
X115663824Y-78972785D01*
X116092083Y-78582498D01*
X116338386Y-78058032D01*
X116217719Y-77828140D01*
X115023900Y-77828140D01*
X114769900Y-77828140D01*
X114749900Y-77828140D01*
X114749900Y-77574140D01*
X114769900Y-77574140D01*
X114769900Y-76380985D01*
X115023900Y-76380985D01*
X115023900Y-77574140D01*
X116217719Y-77574140D01*
X116338386Y-77344248D01*
X116092083Y-76819782D01*
X115663824Y-76429495D01*
X115253790Y-76259664D01*
X115023900Y-76380985D01*
X114769900Y-76380985D01*
X114540010Y-76259664D01*
X114129976Y-76429495D01*
X113701717Y-76819782D01*
X113634602Y-76962693D01*
X113406954Y-76621993D01*
X112925185Y-76300086D01*
X112356900Y-76187047D01*
X111788615Y-76300086D01*
X111306846Y-76621993D01*
X111277497Y-76665917D01*
X111265057Y-76603375D01*
X111124709Y-76393331D01*
X110914665Y-76252983D01*
X110666900Y-76203700D01*
X108966900Y-76203700D01*
X108719135Y-76252983D01*
X108509091Y-76393331D01*
X108368743Y-76603375D01*
X108319460Y-76851140D01*
X108319460Y-78162841D01*
X108233372Y-78291681D01*
X108175520Y-78582520D01*
X108175520Y-80544887D01*
X108027711Y-80643651D01*
X107887363Y-80853695D01*
X107838080Y-81101460D01*
X107838080Y-81579218D01*
X105360292Y-79101430D01*
X105511444Y-79038825D01*
X105939703Y-78648538D01*
X106186006Y-78124072D01*
X106065339Y-77894180D01*
X104871520Y-77894180D01*
X104871520Y-77914180D01*
X104617520Y-77914180D01*
X104617520Y-77894180D01*
X104597520Y-77894180D01*
X104597520Y-77640180D01*
X104617520Y-77640180D01*
X104617520Y-76447025D01*
X104871520Y-76447025D01*
X104871520Y-77640180D01*
X106065339Y-77640180D01*
X106186006Y-77410288D01*
X105939703Y-76885822D01*
X105511444Y-76495535D01*
X105101410Y-76325704D01*
X104871520Y-76447025D01*
X104617520Y-76447025D01*
X104387630Y-76325704D01*
X103977596Y-76495535D01*
X103549337Y-76885822D01*
X103482222Y-77028733D01*
X103254574Y-76688033D01*
X102772805Y-76366126D01*
X102204520Y-76253087D01*
X101838112Y-76325970D01*
X101566920Y-76054778D01*
X101442238Y-75971469D01*
X117209331Y-75982544D01*
X117209331Y-75982544D01*
G37*
X117209331Y-75982544D02*
X117182703Y-76022395D01*
X117133420Y-76270160D01*
X117133420Y-78070160D01*
X117182703Y-78317925D01*
X117323051Y-78527969D01*
X117533095Y-78668317D01*
X117780860Y-78717600D01*
X118773711Y-78717600D01*
X118733420Y-78920160D01*
X118733420Y-80470160D01*
X118782703Y-80717925D01*
X118923051Y-80927969D01*
X118924800Y-80929138D01*
X118924800Y-82058657D01*
X118892608Y-82090793D01*
X118749962Y-82434321D01*
X118749638Y-82806287D01*
X118891683Y-83150063D01*
X118982077Y-83240615D01*
X118846482Y-83567161D01*
X118846158Y-83939127D01*
X118954841Y-84202160D01*
X118893902Y-84202160D01*
X116657280Y-81965538D01*
X116657280Y-81192900D01*
X116607997Y-80945135D01*
X116467649Y-80735091D01*
X116257605Y-80594743D01*
X116009840Y-80545460D01*
X115109840Y-80545460D01*
X114862075Y-80594743D01*
X114652031Y-80735091D01*
X114511683Y-80945135D01*
X114469493Y-81157241D01*
X114322439Y-81255499D01*
X113315440Y-82262498D01*
X113315440Y-81600380D01*
X113266157Y-81352615D01*
X113125809Y-81142571D01*
X112915765Y-81002223D01*
X112668000Y-80952940D01*
X111868000Y-80952940D01*
X111620235Y-81002223D01*
X111410191Y-81142571D01*
X111311427Y-81290380D01*
X110032960Y-81290380D01*
X110032960Y-81101460D01*
X109983677Y-80853695D01*
X109843329Y-80643651D01*
X109695520Y-80544887D01*
X109695520Y-79198580D01*
X110666900Y-79198580D01*
X110914665Y-79149297D01*
X111124709Y-79008949D01*
X111265057Y-78798905D01*
X111277497Y-78736363D01*
X111306846Y-78780287D01*
X111788615Y-79102194D01*
X112356900Y-79215233D01*
X112925185Y-79102194D01*
X113406954Y-78780287D01*
X113634602Y-78439587D01*
X113701717Y-78582498D01*
X114129976Y-78972785D01*
X114540010Y-79142616D01*
X114769900Y-79021295D01*
X114769900Y-77828140D01*
X115023900Y-77828140D01*
X115023900Y-79021295D01*
X115253790Y-79142616D01*
X115663824Y-78972785D01*
X116092083Y-78582498D01*
X116338386Y-78058032D01*
X116217719Y-77828140D01*
X115023900Y-77828140D01*
X114769900Y-77828140D01*
X114749900Y-77828140D01*
X114749900Y-77574140D01*
X114769900Y-77574140D01*
X114769900Y-76380985D01*
X115023900Y-76380985D01*
X115023900Y-77574140D01*
X116217719Y-77574140D01*
X116338386Y-77344248D01*
X116092083Y-76819782D01*
X115663824Y-76429495D01*
X115253790Y-76259664D01*
X115023900Y-76380985D01*
X114769900Y-76380985D01*
X114540010Y-76259664D01*
X114129976Y-76429495D01*
X113701717Y-76819782D01*
X113634602Y-76962693D01*
X113406954Y-76621993D01*
X112925185Y-76300086D01*
X112356900Y-76187047D01*
X111788615Y-76300086D01*
X111306846Y-76621993D01*
X111277497Y-76665917D01*
X111265057Y-76603375D01*
X111124709Y-76393331D01*
X110914665Y-76252983D01*
X110666900Y-76203700D01*
X108966900Y-76203700D01*
X108719135Y-76252983D01*
X108509091Y-76393331D01*
X108368743Y-76603375D01*
X108319460Y-76851140D01*
X108319460Y-78162841D01*
X108233372Y-78291681D01*
X108175520Y-78582520D01*
X108175520Y-80544887D01*
X108027711Y-80643651D01*
X107887363Y-80853695D01*
X107838080Y-81101460D01*
X107838080Y-81579218D01*
X105360292Y-79101430D01*
X105511444Y-79038825D01*
X105939703Y-78648538D01*
X106186006Y-78124072D01*
X106065339Y-77894180D01*
X104871520Y-77894180D01*
X104871520Y-77914180D01*
X104617520Y-77914180D01*
X104617520Y-77894180D01*
X104597520Y-77894180D01*
X104597520Y-77640180D01*
X104617520Y-77640180D01*
X104617520Y-76447025D01*
X104871520Y-76447025D01*
X104871520Y-77640180D01*
X106065339Y-77640180D01*
X106186006Y-77410288D01*
X105939703Y-76885822D01*
X105511444Y-76495535D01*
X105101410Y-76325704D01*
X104871520Y-76447025D01*
X104617520Y-76447025D01*
X104387630Y-76325704D01*
X103977596Y-76495535D01*
X103549337Y-76885822D01*
X103482222Y-77028733D01*
X103254574Y-76688033D01*
X102772805Y-76366126D01*
X102204520Y-76253087D01*
X101838112Y-76325970D01*
X101566920Y-76054778D01*
X101442238Y-75971469D01*
X117209331Y-75982544D01*
G36*
X122806704Y-75986475D02*
X122782703Y-76022395D01*
X122733420Y-76270160D01*
X122733420Y-78070160D01*
X122773711Y-78272720D01*
X122380860Y-78272720D01*
X122175671Y-78313534D01*
X122107169Y-78285160D01*
X121966610Y-78285160D01*
X121807860Y-78443910D01*
X121807860Y-78634745D01*
X121782703Y-78672395D01*
X121733420Y-78920160D01*
X121733420Y-80470160D01*
X121782703Y-80717925D01*
X121807860Y-80755575D01*
X121807860Y-80946410D01*
X121920860Y-81059410D01*
X121920860Y-83606118D01*
X121752219Y-83774759D01*
X121658700Y-83914720D01*
X121239620Y-83914720D01*
X120991855Y-83964003D01*
X120781811Y-84104351D01*
X120716457Y-84202160D01*
X120607614Y-84202160D01*
X120716158Y-83940759D01*
X120716199Y-83893883D01*
X121218261Y-83391821D01*
X121383008Y-83145259D01*
X121440860Y-82854420D01*
X121440860Y-81059410D01*
X121553860Y-80946410D01*
X121553860Y-80755575D01*
X121579017Y-80717925D01*
X121628300Y-80470160D01*
X121628300Y-78920160D01*
X121579017Y-78672395D01*
X121553860Y-78634745D01*
X121553860Y-78443910D01*
X121395110Y-78285160D01*
X121254551Y-78285160D01*
X121186049Y-78313534D01*
X120980860Y-78272720D01*
X120380860Y-78272720D01*
X120180860Y-78312502D01*
X119980860Y-78272720D01*
X119588009Y-78272720D01*
X119628300Y-78070160D01*
X119628300Y-76270160D01*
X119579017Y-76022395D01*
X119553489Y-75984190D01*
X122806704Y-75986475D01*
X122806704Y-75986475D01*
G37*
X122806704Y-75986475D02*
X122782703Y-76022395D01*
X122733420Y-76270160D01*
X122733420Y-78070160D01*
X122773711Y-78272720D01*
X122380860Y-78272720D01*
X122175671Y-78313534D01*
X122107169Y-78285160D01*
X121966610Y-78285160D01*
X121807860Y-78443910D01*
X121807860Y-78634745D01*
X121782703Y-78672395D01*
X121733420Y-78920160D01*
X121733420Y-80470160D01*
X121782703Y-80717925D01*
X121807860Y-80755575D01*
X121807860Y-80946410D01*
X121920860Y-81059410D01*
X121920860Y-83606118D01*
X121752219Y-83774759D01*
X121658700Y-83914720D01*
X121239620Y-83914720D01*
X120991855Y-83964003D01*
X120781811Y-84104351D01*
X120716457Y-84202160D01*
X120607614Y-84202160D01*
X120716158Y-83940759D01*
X120716199Y-83893883D01*
X121218261Y-83391821D01*
X121383008Y-83145259D01*
X121440860Y-82854420D01*
X121440860Y-81059410D01*
X121553860Y-80946410D01*
X121553860Y-80755575D01*
X121579017Y-80717925D01*
X121628300Y-80470160D01*
X121628300Y-78920160D01*
X121579017Y-78672395D01*
X121553860Y-78634745D01*
X121553860Y-78443910D01*
X121395110Y-78285160D01*
X121254551Y-78285160D01*
X121186049Y-78313534D01*
X120980860Y-78272720D01*
X120380860Y-78272720D01*
X120180860Y-78312502D01*
X119980860Y-78272720D01*
X119588009Y-78272720D01*
X119628300Y-78070160D01*
X119628300Y-76270160D01*
X119579017Y-76022395D01*
X119553489Y-75984190D01*
X122806704Y-75986475D01*
G36*
X131590981Y-75992646D02*
X131571103Y-76022395D01*
X131521820Y-76270160D01*
X131521820Y-78070160D01*
X131562111Y-78272720D01*
X131169260Y-78272720D01*
X130964071Y-78313534D01*
X130895569Y-78285160D01*
X130755010Y-78285160D01*
X130596260Y-78443910D01*
X130596260Y-78634745D01*
X130571103Y-78672395D01*
X130521820Y-78920160D01*
X130521820Y-80470160D01*
X130571103Y-80717925D01*
X130596260Y-80755575D01*
X130596260Y-80946410D01*
X130725640Y-81075790D01*
X130725640Y-81652257D01*
X130693448Y-81684393D01*
X130550802Y-82027921D01*
X130550478Y-82399887D01*
X130692523Y-82743663D01*
X130955313Y-83006912D01*
X131298841Y-83149558D01*
X131670807Y-83149882D01*
X132014583Y-83007837D01*
X132277832Y-82745047D01*
X132420478Y-82401519D01*
X132420802Y-82029553D01*
X132278757Y-81685777D01*
X132245640Y-81652602D01*
X132245640Y-80900176D01*
X132367417Y-80717925D01*
X132416700Y-80470160D01*
X132416700Y-79079343D01*
X134459690Y-79079343D01*
X134466303Y-79146400D01*
X134459690Y-79213457D01*
X134490390Y-79525557D01*
X134509989Y-79590196D01*
X134516617Y-79657416D01*
X134607717Y-79957615D01*
X134639489Y-80017040D01*
X134659042Y-80081529D01*
X134806842Y-80358129D01*
X134849656Y-80410312D01*
X134881472Y-80469840D01*
X135080472Y-80712340D01*
X135132642Y-80755158D01*
X135175460Y-80807328D01*
X135417959Y-81006328D01*
X135477489Y-81038145D01*
X135529671Y-81080958D01*
X135806271Y-81228758D01*
X135870758Y-81248311D01*
X135930184Y-81280083D01*
X136230384Y-81371183D01*
X136297604Y-81377811D01*
X136362243Y-81397410D01*
X136674343Y-81428110D01*
X136741400Y-81421497D01*
X136808457Y-81428110D01*
X137120557Y-81397410D01*
X137185196Y-81377811D01*
X137252416Y-81371183D01*
X137552615Y-81280083D01*
X137612040Y-81248311D01*
X137676529Y-81228758D01*
X137953129Y-81080958D01*
X138005312Y-81038144D01*
X138064840Y-81006328D01*
X138307340Y-80807328D01*
X138350210Y-80755094D01*
X138402435Y-80712210D01*
X138601335Y-80469710D01*
X138633053Y-80410330D01*
X138675767Y-80358299D01*
X138823667Y-80081699D01*
X138843296Y-80017025D01*
X138875143Y-79957416D01*
X138966143Y-79657216D01*
X138972730Y-79590206D01*
X138992289Y-79525773D01*
X139023089Y-79213673D01*
X139016476Y-79146400D01*
X139023089Y-79079127D01*
X138992289Y-78767027D01*
X138972730Y-78702594D01*
X138966143Y-78635584D01*
X138875143Y-78335384D01*
X138843296Y-78275775D01*
X138823667Y-78211101D01*
X138675767Y-77934501D01*
X138633053Y-77882470D01*
X138601335Y-77823090D01*
X138402435Y-77580590D01*
X138350147Y-77537654D01*
X138307210Y-77485365D01*
X138064710Y-77286465D01*
X138005330Y-77254747D01*
X137953299Y-77212033D01*
X137676699Y-77064133D01*
X137612024Y-77044503D01*
X137552415Y-77012657D01*
X137252216Y-76921657D01*
X137185206Y-76915070D01*
X137120773Y-76895511D01*
X136808673Y-76864711D01*
X136741400Y-76871324D01*
X136674127Y-76864711D01*
X136362027Y-76895511D01*
X136297594Y-76915070D01*
X136230584Y-76921657D01*
X135930384Y-77012657D01*
X135870775Y-77044504D01*
X135806101Y-77064133D01*
X135529501Y-77212033D01*
X135477470Y-77254747D01*
X135418090Y-77286465D01*
X135175590Y-77485365D01*
X135132706Y-77537590D01*
X135080472Y-77580460D01*
X134881472Y-77822960D01*
X134849656Y-77882488D01*
X134806842Y-77934671D01*
X134659042Y-78211271D01*
X134639489Y-78275760D01*
X134607717Y-78335185D01*
X134516617Y-78635384D01*
X134509989Y-78702604D01*
X134490390Y-78767243D01*
X134459690Y-79079343D01*
X132416700Y-79079343D01*
X132416700Y-78920160D01*
X132376409Y-78717600D01*
X133369260Y-78717600D01*
X133617025Y-78668317D01*
X133827069Y-78527969D01*
X133967417Y-78317925D01*
X134016700Y-78070160D01*
X134016700Y-76270160D01*
X133967417Y-76022395D01*
X133948645Y-75994302D01*
X137444331Y-75996757D01*
X139603613Y-78698324D01*
X139614985Y-82529674D01*
X139579649Y-82476791D01*
X139369605Y-82336443D01*
X139121840Y-82287160D01*
X137321840Y-82287160D01*
X137074075Y-82336443D01*
X136864031Y-82476791D01*
X136723683Y-82686835D01*
X136674400Y-82934600D01*
X136674400Y-83927451D01*
X136471840Y-83887160D01*
X134921840Y-83887160D01*
X134674075Y-83936443D01*
X134467310Y-84074600D01*
X128151982Y-84074600D01*
X128873526Y-83353056D01*
X129050313Y-83530152D01*
X129393841Y-83672798D01*
X129765807Y-83673122D01*
X130109583Y-83531077D01*
X130372832Y-83268287D01*
X130515478Y-82924759D01*
X130515802Y-82552793D01*
X130373757Y-82209017D01*
X130340640Y-82175842D01*
X130340640Y-80948030D01*
X130342260Y-80946410D01*
X130342260Y-80755575D01*
X130367417Y-80717925D01*
X130416700Y-80470160D01*
X130416700Y-78920160D01*
X130367417Y-78672395D01*
X130342260Y-78634745D01*
X130342260Y-78443910D01*
X130183510Y-78285160D01*
X130042951Y-78285160D01*
X129974449Y-78313534D01*
X129769260Y-78272720D01*
X129169260Y-78272720D01*
X128969260Y-78312502D01*
X128769260Y-78272720D01*
X128376409Y-78272720D01*
X128416700Y-78070160D01*
X128416700Y-76270160D01*
X128367417Y-76022395D01*
X128346016Y-75990366D01*
X131590981Y-75992646D01*
X131590981Y-75992646D01*
G37*
X131590981Y-75992646D02*
X131571103Y-76022395D01*
X131521820Y-76270160D01*
X131521820Y-78070160D01*
X131562111Y-78272720D01*
X131169260Y-78272720D01*
X130964071Y-78313534D01*
X130895569Y-78285160D01*
X130755010Y-78285160D01*
X130596260Y-78443910D01*
X130596260Y-78634745D01*
X130571103Y-78672395D01*
X130521820Y-78920160D01*
X130521820Y-80470160D01*
X130571103Y-80717925D01*
X130596260Y-80755575D01*
X130596260Y-80946410D01*
X130725640Y-81075790D01*
X130725640Y-81652257D01*
X130693448Y-81684393D01*
X130550802Y-82027921D01*
X130550478Y-82399887D01*
X130692523Y-82743663D01*
X130955313Y-83006912D01*
X131298841Y-83149558D01*
X131670807Y-83149882D01*
X132014583Y-83007837D01*
X132277832Y-82745047D01*
X132420478Y-82401519D01*
X132420802Y-82029553D01*
X132278757Y-81685777D01*
X132245640Y-81652602D01*
X132245640Y-80900176D01*
X132367417Y-80717925D01*
X132416700Y-80470160D01*
X132416700Y-79079343D01*
X134459690Y-79079343D01*
X134466303Y-79146400D01*
X134459690Y-79213457D01*
X134490390Y-79525557D01*
X134509989Y-79590196D01*
X134516617Y-79657416D01*
X134607717Y-79957615D01*
X134639489Y-80017040D01*
X134659042Y-80081529D01*
X134806842Y-80358129D01*
X134849656Y-80410312D01*
X134881472Y-80469840D01*
X135080472Y-80712340D01*
X135132642Y-80755158D01*
X135175460Y-80807328D01*
X135417959Y-81006328D01*
X135477489Y-81038145D01*
X135529671Y-81080958D01*
X135806271Y-81228758D01*
X135870758Y-81248311D01*
X135930184Y-81280083D01*
X136230384Y-81371183D01*
X136297604Y-81377811D01*
X136362243Y-81397410D01*
X136674343Y-81428110D01*
X136741400Y-81421497D01*
X136808457Y-81428110D01*
X137120557Y-81397410D01*
X137185196Y-81377811D01*
X137252416Y-81371183D01*
X137552615Y-81280083D01*
X137612040Y-81248311D01*
X137676529Y-81228758D01*
X137953129Y-81080958D01*
X138005312Y-81038144D01*
X138064840Y-81006328D01*
X138307340Y-80807328D01*
X138350210Y-80755094D01*
X138402435Y-80712210D01*
X138601335Y-80469710D01*
X138633053Y-80410330D01*
X138675767Y-80358299D01*
X138823667Y-80081699D01*
X138843296Y-80017025D01*
X138875143Y-79957416D01*
X138966143Y-79657216D01*
X138972730Y-79590206D01*
X138992289Y-79525773D01*
X139023089Y-79213673D01*
X139016476Y-79146400D01*
X139023089Y-79079127D01*
X138992289Y-78767027D01*
X138972730Y-78702594D01*
X138966143Y-78635584D01*
X138875143Y-78335384D01*
X138843296Y-78275775D01*
X138823667Y-78211101D01*
X138675767Y-77934501D01*
X138633053Y-77882470D01*
X138601335Y-77823090D01*
X138402435Y-77580590D01*
X138350147Y-77537654D01*
X138307210Y-77485365D01*
X138064710Y-77286465D01*
X138005330Y-77254747D01*
X137953299Y-77212033D01*
X137676699Y-77064133D01*
X137612024Y-77044503D01*
X137552415Y-77012657D01*
X137252216Y-76921657D01*
X137185206Y-76915070D01*
X137120773Y-76895511D01*
X136808673Y-76864711D01*
X136741400Y-76871324D01*
X136674127Y-76864711D01*
X136362027Y-76895511D01*
X136297594Y-76915070D01*
X136230584Y-76921657D01*
X135930384Y-77012657D01*
X135870775Y-77044504D01*
X135806101Y-77064133D01*
X135529501Y-77212033D01*
X135477470Y-77254747D01*
X135418090Y-77286465D01*
X135175590Y-77485365D01*
X135132706Y-77537590D01*
X135080472Y-77580460D01*
X134881472Y-77822960D01*
X134849656Y-77882488D01*
X134806842Y-77934671D01*
X134659042Y-78211271D01*
X134639489Y-78275760D01*
X134607717Y-78335185D01*
X134516617Y-78635384D01*
X134509989Y-78702604D01*
X134490390Y-78767243D01*
X134459690Y-79079343D01*
X132416700Y-79079343D01*
X132416700Y-78920160D01*
X132376409Y-78717600D01*
X133369260Y-78717600D01*
X133617025Y-78668317D01*
X133827069Y-78527969D01*
X133967417Y-78317925D01*
X134016700Y-78070160D01*
X134016700Y-76270160D01*
X133967417Y-76022395D01*
X133948645Y-75994302D01*
X137444331Y-75996757D01*
X139603613Y-78698324D01*
X139614985Y-82529674D01*
X139579649Y-82476791D01*
X139369605Y-82336443D01*
X139121840Y-82287160D01*
X137321840Y-82287160D01*
X137074075Y-82336443D01*
X136864031Y-82476791D01*
X136723683Y-82686835D01*
X136674400Y-82934600D01*
X136674400Y-83927451D01*
X136471840Y-83887160D01*
X134921840Y-83887160D01*
X134674075Y-83936443D01*
X134467310Y-84074600D01*
X128151982Y-84074600D01*
X128873526Y-83353056D01*
X129050313Y-83530152D01*
X129393841Y-83672798D01*
X129765807Y-83673122D01*
X130109583Y-83531077D01*
X130372832Y-83268287D01*
X130515478Y-82924759D01*
X130515802Y-82552793D01*
X130373757Y-82209017D01*
X130340640Y-82175842D01*
X130340640Y-80948030D01*
X130342260Y-80946410D01*
X130342260Y-80755575D01*
X130367417Y-80717925D01*
X130416700Y-80470160D01*
X130416700Y-78920160D01*
X130367417Y-78672395D01*
X130342260Y-78634745D01*
X130342260Y-78443910D01*
X130183510Y-78285160D01*
X130042951Y-78285160D01*
X129974449Y-78313534D01*
X129769260Y-78272720D01*
X129169260Y-78272720D01*
X128969260Y-78312502D01*
X128769260Y-78272720D01*
X128376409Y-78272720D01*
X128416700Y-78070160D01*
X128416700Y-76270160D01*
X128367417Y-76022395D01*
X128346016Y-75990366D01*
X131590981Y-75992646D01*
M02*
