M48
;DRILL file {KiCad no-vcs-found-799c8b6~57~ubuntu16.04.1} date Mon Feb 27 20:11:49 2017
;FORMAT={-:-/ absolute / metric / decimal}
FMAT,2
METRIC,TZ
T1C0.400
T2C1.000
%
G90
G05
M71
T1
X93.086Y-99.411
X93.208Y-101.082
X93.879Y-103.811
X93.975Y-92.537
X94.066Y-85.974
X94.794Y-104.044
X96.566Y-83.993
X96.771Y-82.08
X97.775Y-88.844
X101.122Y-103.937
X101.133Y-102.657
X101.397Y-85.72
X101.61Y-110.622
X102.878Y-86.317
X103.129Y-106.67
X104.16Y-90.505
X105.004Y-96.225
X105.024Y-99.263
X105.179Y-114.336
X106.035Y-87.239
X110.134Y-116.19
X111.465Y-114.432
X114.188Y-111.857
X114.612Y-96.718
X114.727Y-98.059
X114.884Y-92.4
X114.884Y-93.34
X115.357Y-103.307
X115.509Y-87.975
X117.511Y-93.762
X117.536Y-114.986
X117.597Y-85.369
X117.811Y-103.865
X117.878Y-96.115
X118.672Y-96.209
X118.994Y-117.963
X119.395Y-89.489
X119.421Y-108.849
X119.427Y-104.19
X119.685Y-82.621
X119.781Y-83.754
X120.288Y-105.234
X120.536Y-104.474
X120.686Y-95.814
X120.767Y-88.621
X121.763Y-118.247
X121.859Y-96.439
X121.945Y-115.626
X122.433Y-109.098
X123.073Y-89.129
X123.183Y-107.778
X123.668Y-113.386
X123.927Y-108.072
X124.169Y-89.334
X124.765Y-92.765
X124.794Y-88.554
X124.998Y-91.222
X125.226Y-94.465
X125.229Y-106.584
X125.334Y-116.098
X125.489Y-93.128
X125.627Y-108.022
X125.648Y-88.524
X125.847Y-90.241
X125.887Y-82.459
X125.928Y-94.849
X126.179Y-107.443
X126.27Y-102.171
X126.289Y-93.128
X126.435Y-88.668
X126.691Y-102.937
X127.061Y-87.752
X127.544Y-98.222
X127.575Y-103.735
X127.591Y-104.535
X127.645Y-101.712
X127.904Y-93.702
X129.Y-114.024
X129.581Y-82.738
X129.596Y-102.032
X129.923Y-107.232
X129.977Y-108.184
X130.007Y-91.451
X130.043Y-116.454
X130.139Y-111.364
X130.185Y-105.253
X130.581Y-113.238
X130.978Y-117.191
X131.166Y-95.347
X131.43Y-96.825
X131.486Y-82.215
X132.024Y-101.092
X132.212Y-86.716
X132.891Y-92.448
X132.999Y-117.124
X133.38Y-104.648
X133.539Y-93.732
X133.736Y-106.924
X133.899Y-91.023
X134.203Y-99.294
T2
X95.098Y-110.226
X95.098Y-112.766
X95.098Y-115.306
X99.665Y-77.767
X102.205Y-77.767
X104.745Y-77.767
X109.817Y-77.701
X112.357Y-77.701
X114.897Y-77.701
T0
M30
